<svg width="112" height="160" viewBox="0 0 112 160" fill="none" xmlns="http://www.w3.org/2000/svg">
<g clip-path="url(#clip0_113_480)">
<path fill-rule="evenodd" clip-rule="evenodd" d="M7 0C3.13401 0 0 3.13401 0 7V153C0 156.866 3.13401 160 7 160H105C108.866 160 112 156.866 112 153V7C112 3.13401 108.866 0 105 0H7ZM7 1C3.68629 1 1 3.68629 1 7C1 7 1 7 1 7V152C1 152.165 1.00666 152.328 1.01973 152.49C1.2691 155.575 3.85131 158 7 158H105C108.149 158 110.731 155.575 110.98 152.49C110.993 152.328 111 152.165 111 152V7C111 3.68629 108.314 1 105 1H7Z" fill="black" fill-opacity="0.3"/>
<path d="M1 7C1 3.6863 3.68629 1 7 1H105C108.314 1 111 3.68629 111 7V152C111 155.314 108.314 158 105 158H7C3.68629 158 1 155.314 1 152V7Z" fill="#393B4E"/>
<path d="M42.4138 124.03C42.5784 124.03 42.7214 124.086 42.8428 124.199C42.9641 124.303 43.0334 124.433 43.0508 124.589L44.4678 133H42.4788L41.6078 126.396C41.5904 126.24 41.5774 126.088 41.5688 125.941C41.5601 125.794 41.5558 125.651 41.5558 125.512H41.1788C41.1354 125.633 41.0878 125.772 41.0358 125.928C40.9924 126.084 40.9404 126.236 40.8798 126.383L38.1108 133H36.0308L39.8138 124.524C39.8744 124.359 39.9654 124.238 40.0868 124.16C40.2168 124.073 40.3641 124.03 40.5288 124.03H42.4138ZM43.1028 129.126L42.9208 130.66H38.2928L38.4748 129.126H43.1028ZM47.6322 126.578L47.6452 128.06L47.8142 128.242L47.1512 133H45.2402L46.1372 126.578H47.6322ZM50.1932 126.409C50.7912 126.409 51.2245 126.569 51.4932 126.89C51.7705 127.211 51.8702 127.657 51.7922 128.229L51.1162 133H49.2702L49.8682 128.749C49.9028 128.489 49.8812 128.307 49.8032 128.203C49.7252 128.09 49.5778 128.034 49.3612 128.034C49.2052 128.034 49.0405 128.069 48.8672 128.138C48.6938 128.207 48.4988 128.32 48.2822 128.476C48.0655 128.623 47.8012 128.831 47.4892 129.1L47.2552 128.138C47.7925 127.54 48.2908 127.102 48.7502 126.825C49.2095 126.548 49.6905 126.409 50.1932 126.409ZM54.1972 126.409C54.8038 126.409 55.2458 126.574 55.5232 126.903C55.8005 127.224 55.8958 127.666 55.8092 128.229L55.1462 133H53.2352L53.8332 128.749C53.8678 128.472 53.8375 128.285 53.7422 128.19C53.6555 128.086 53.5168 128.034 53.3262 128.034C53.1788 128.034 53.0185 128.069 52.8452 128.138C52.6805 128.199 52.4898 128.307 52.2732 128.463C52.0652 128.61 51.8138 128.818 51.5192 129.087L51.2722 128.138C51.8095 127.531 52.3035 127.094 52.7542 126.825C53.2135 126.548 53.6945 126.409 54.1972 126.409ZM59.5133 126.578L58.6163 133H56.7053L57.6023 126.578H59.5133ZM59.3183 123.744C59.5263 123.744 59.6736 123.796 59.7603 123.9C59.8556 124.004 59.8903 124.16 59.8643 124.368L59.7733 125.057C59.7213 125.421 59.5089 125.603 59.1363 125.603H58.3563C57.9403 125.603 57.7539 125.395 57.7973 124.979L57.9013 124.29C57.9359 123.926 58.1439 123.744 58.5253 123.744H59.3183ZM65.4203 126.656L67.3183 126.773L66.5253 132.35C66.4387 132.991 66.287 133.524 66.0703 133.949C65.8537 134.382 65.5763 134.725 65.2383 134.976C64.909 135.236 64.5233 135.418 64.0813 135.522C63.648 135.626 63.1713 135.682 62.6513 135.691C62.504 135.691 62.2787 135.687 61.9753 135.678C61.6807 135.669 61.3643 135.639 61.0263 135.587C60.6883 135.535 60.385 135.461 60.1163 135.366L60.2333 134.261C60.3893 134.261 60.5453 134.261 60.7013 134.261C60.866 134.27 61.0567 134.274 61.2733 134.274C61.49 134.274 61.7587 134.27 62.0793 134.261C62.6947 134.252 63.2233 134.157 63.6653 133.975C64.116 133.793 64.4237 133.468 64.5883 133C64.6923 132.731 64.7703 132.471 64.8223 132.22C64.883 131.969 64.9783 131.73 65.1083 131.505L64.7443 131.362L65.4203 126.656ZM63.7953 126.409C64.246 126.409 64.6923 126.426 65.1343 126.461C65.585 126.496 65.9967 126.543 66.3693 126.604C66.7507 126.656 67.0627 126.712 67.3053 126.773L66.0053 127.813C65.65 127.796 65.325 127.787 65.0303 127.787C64.7443 127.778 64.4713 127.774 64.2113 127.774C63.8907 127.774 63.6263 127.8 63.4183 127.852C63.219 127.904 63.0587 127.999 62.9373 128.138C62.816 128.268 62.7163 128.459 62.6383 128.71C62.569 128.953 62.504 129.273 62.4433 129.672C62.3567 130.201 62.3133 130.612 62.3133 130.907C62.322 131.193 62.3783 131.388 62.4823 131.492C62.595 131.596 62.7597 131.639 62.9763 131.622C63.219 131.605 63.466 131.527 63.7173 131.388C63.9687 131.241 64.22 131.041 64.4713 130.79C64.7227 130.539 64.9697 130.248 65.2123 129.919L65.5503 130.53C65.377 131.033 65.13 131.475 64.8093 131.856C64.4887 132.229 64.1117 132.523 63.6783 132.74C63.245 132.957 62.7683 133.074 62.2483 133.091C61.711 133.1 61.2907 132.987 60.9873 132.753C60.6927 132.51 60.5063 132.133 60.4283 131.622C60.3503 131.102 60.372 130.448 60.4933 129.659C60.606 128.914 60.7577 128.324 60.9483 127.891C61.139 127.458 61.3687 127.137 61.6373 126.929C61.9147 126.712 62.231 126.574 62.5863 126.513C62.9503 126.444 63.3533 126.409 63.7953 126.409ZM71.9552 126.409C72.1805 126.409 72.4318 126.422 72.7092 126.448C72.9952 126.465 73.2812 126.491 73.5672 126.526C73.8618 126.561 74.1348 126.6 74.3862 126.643C74.6462 126.686 74.8585 126.73 75.0232 126.773L73.7102 127.813C73.3635 127.796 73.0472 127.787 72.7612 127.787C72.4752 127.778 72.2065 127.774 71.9552 127.774C71.6692 127.774 71.4265 127.796 71.2272 127.839C71.0278 127.882 70.8632 127.969 70.7332 128.099C70.6032 128.22 70.4948 128.407 70.4082 128.658C70.3215 128.909 70.2478 129.247 70.1872 129.672C70.1092 130.209 70.0658 130.621 70.0572 130.907C70.0572 131.184 70.1092 131.375 70.2132 131.479C70.3172 131.583 70.4818 131.631 70.7072 131.622C70.9412 131.613 71.1838 131.535 71.4352 131.388C71.6952 131.241 71.9508 131.041 72.2022 130.79C72.4535 130.53 72.6962 130.24 72.9302 129.919L73.2682 130.543C73.0948 131.054 72.8478 131.505 72.5272 131.895C72.2152 132.276 71.8468 132.575 71.4222 132.792C70.9975 133.009 70.5252 133.13 70.0052 133.156C69.4418 133.182 69.0085 133.069 68.7052 132.818C68.4105 132.567 68.2285 132.177 68.1592 131.648C68.0898 131.119 68.1158 130.456 68.2372 129.659C68.3498 128.922 68.5058 128.337 68.7052 127.904C68.9132 127.462 69.1732 127.137 69.4852 126.929C69.7972 126.712 70.1568 126.574 70.5642 126.513C70.9802 126.444 71.4438 126.409 71.9552 126.409ZM73.1252 126.656L75.0232 126.773L74.1522 133H72.6572L72.6832 131.544L72.4492 131.388L73.1252 126.656Z" fill="white"/>
<rect x="23" y="52" width="66" height="40" rx="1" fill="#4F4F4F"/>
<rect x="21.5" y="50.5" width="69" height="43" rx="2.5" stroke="white" stroke-opacity="0.3" stroke-width="3"/>
<rect x="22.5" y="51.5" width="67" height="41" rx="1.5" fill="#E0E0E0" stroke="#333333"/>
<path d="M62.9987 57.288H61.2733L61.0059 57.619C60.9308 57.7174 60.8764 57.7903 60.8417 57.8372C60.7723 57.9309 60.7235 58.0061 60.6953 58.0622C60.6259 58.1659 60.5921 58.2527 60.5921 58.3226C60.5921 58.4585 60.7601 58.543 61.0978 58.576C61.2517 58.5952 61.3296 58.649 61.3296 58.7381C61.3296 58.8464 61.2386 58.9002 61.0556 58.9002L60.7301 58.8833L60.1643 58.8579L59.4363 58.9002H59.2055C59.0685 58.9002 59 58.8579 59 58.7742C59 58.7043 59.0272 58.6536 59.0816 58.6237C59.136 58.5929 59.2392 58.5714 59.3903 58.5568C59.5413 58.543 59.6689 58.4916 59.7712 58.4025L60.1052 58.0591L60.2506 57.8771L60.4045 57.702L60.5584 57.52L63.2651 54.3648C63.4021 54.1966 63.4997 54.0937 63.556 54.0561C63.6132 54.0184 63.7014 54 63.8215 54C63.9528 54 64.0429 54.0284 64.0917 54.0845C64.1405 54.1406 64.1649 54.2627 64.1649 54.4501L64.4304 57.9662C64.4304 58.1075 64.4407 58.2204 64.4613 58.3049C64.4792 58.3771 64.5223 58.4432 64.5842 58.4962C64.6387 58.5438 64.7053 58.5822 64.7813 58.6014C64.8835 58.6283 64.9342 58.6759 64.9342 58.7465C64.9342 58.8495 64.8488 58.9009 64.6771 58.9009L64.4032 58.8802L63.8984 58.8594C63.7389 58.8594 63.5625 58.8648 63.3721 58.8756C63.1807 58.8863 62.9761 58.8948 62.7594 58.9017H62.477C62.3457 58.9017 62.28 58.8571 62.28 58.7688C62.28 58.7081 62.3072 58.6636 62.3616 58.6359C62.416 58.6075 62.5174 58.5868 62.6656 58.573C62.8138 58.5591 62.9142 58.5253 62.9658 58.4716C63.0174 58.4178 63.0428 58.3257 63.0428 58.1943V57.9071L62.9987 57.288ZM62.9639 56.9378L62.887 55.3164L61.5482 56.9378H62.9639Z" fill="#828282"/>
<path d="M76.0952 54.8902L75.0162 57.9685C74.9646 58.1183 74.9393 58.2327 74.9393 58.3118C74.9393 58.4846 75.0537 58.5714 75.2817 58.5714C75.4872 58.5714 75.5904 58.6237 75.5904 58.7289C75.5904 58.8295 75.5022 58.8794 75.3249 58.8794H74.8286L73.9035 58.8518C73.7262 58.8518 73.592 58.8541 73.501 58.8587C73.41 58.8633 73.1839 58.8794 72.8246 58.9078H72.7898C72.6416 58.9078 72.5675 58.861 72.5675 58.7673C72.5675 58.7112 72.5928 58.6728 72.6444 58.6513C72.696 58.6298 72.8124 58.6045 72.9953 58.5745C73.1783 58.5438 73.289 58.5046 73.3293 58.4555C73.3687 58.4063 73.4353 58.2488 73.5263 57.9823L74.5968 54.9186C74.6362 54.8065 74.6569 54.732 74.6569 54.6943C74.6569 54.573 74.5509 54.5123 74.3398 54.5123C74.1568 54.5123 74.0658 54.4677 74.0658 54.3779C74.0658 54.3241 74.0883 54.2819 74.1343 54.2504C74.1803 54.2189 74.2431 54.2035 74.3229 54.2035H74.7169C74.7394 54.2035 74.8051 54.2035 74.914 54.2035C75.0228 54.2035 75.1138 54.2035 75.1879 54.2035C75.7358 54.2035 76.1186 54.192 76.3353 54.1697L76.7894 54.1475C76.9039 54.1475 76.9611 54.192 76.9611 54.2803C76.9611 54.341 76.932 54.3856 76.8758 54.4132C76.8185 54.4409 76.7144 54.4654 76.5633 54.4869C76.4123 54.5077 76.3109 54.5422 76.2593 54.5883C76.2059 54.6352 76.1515 54.7358 76.0952 54.8902Z" fill="#828282"/>
<path d="M81.3538 57.5338C81.3538 57.5338 81.1718 58.0576 81.0883 58.2934C80.9898 58.5684 80.0619 59 78.9304 59C78.0739 59 77.3768 58.8249 76.8401 58.4739C76.3034 58.1237 76.0351 57.6697 76.0351 57.1137C76.0351 56.6697 76.1974 56.2488 76.523 55.8518C76.8485 55.4547 77.3083 55.1129 77.9022 54.828C78.3872 54.5945 78.9117 54.4117 79.4737 54.2811C80.0357 54.1505 80.5883 54.0845 81.1315 54.0845C81.4964 54.0845 81.8192 54.1098 82.0997 54.1598C82.2423 54.1874 82.3136 54.2373 82.3136 54.3103C82.3136 54.3518 82.2967 54.4048 82.262 54.47L82.0481 55.0031C81.9627 55.2465 81.8511 55.3679 81.7141 55.3679C81.5659 55.3679 81.4918 55.2719 81.4918 55.0806L81.5086 54.7227C81.5086 54.6014 81.4786 54.5161 81.4186 54.467C81.3585 54.4178 81.2572 54.3932 81.1146 54.3932C80.7487 54.3932 80.3753 54.4539 79.9925 54.576C79.6097 54.6974 79.2476 54.871 78.9051 55.096C78.4998 55.3625 78.1799 55.6905 77.9453 56.0791C77.7108 56.4677 77.5944 56.8702 77.5944 57.2873C77.5944 57.7181 77.7314 58.0599 78.0054 58.3126C78.2793 58.5653 78.6537 58.692 79.1275 58.692C79.2701 58.692 79.3686 58.6743 79.423 58.6398C79.4774 58.6052 79.5271 58.5246 79.5731 58.3986L79.8902 57.4839C79.9127 57.4324 79.924 57.374 79.924 57.3095C79.924 57.2074 79.8987 57.1406 79.8471 57.1106C79.7955 57.0806 79.6585 57.0538 79.4361 57.03C79.316 57.03 79.256 56.9831 79.256 56.8894C79.256 56.7865 79.3554 56.735 79.5562 56.735L79.9841 56.7419L80.7553 56.7627C80.8069 56.7627 80.8435 56.7627 80.8669 56.7627C80.9129 56.7627 80.9438 56.7627 80.9607 56.7627C81.2122 56.7627 81.4373 56.7535 81.6372 56.7343H82.0481C82.1907 56.7343 82.262 56.7742 82.262 56.8548C82.262 56.967 82.1448 57.0315 81.9111 57.0492C81.7629 57.0492 81.6484 57.0845 81.5687 57.1544C81.488 57.225 81.4167 57.351 81.3538 57.5338Z" fill="#828282"/>
<path d="M84.8909 57.288H83.1655L82.8981 57.619C82.8231 57.7174 82.7687 57.7903 82.734 57.8372C82.6645 57.9309 82.6157 58.0061 82.5876 58.0622C82.5182 58.1659 82.4844 58.2527 82.4844 58.3226C82.4844 58.4585 82.6523 58.543 82.9901 58.576C83.144 58.5952 83.2218 58.649 83.2218 58.7381C83.2218 58.8464 83.1308 58.9002 82.9479 58.9002L82.6223 58.8833L82.3587 58.8717C82.1579 58.8625 81.9562 58.8633 81.7554 58.8733L81.2122 58.9002C81.0752 58.9002 81.0067 58.8579 81.0067 58.7742C81.0067 58.7043 81.0339 58.6536 81.0883 58.6237C81.1427 58.5929 81.2459 58.5714 81.397 58.5568C81.5481 58.543 81.5612 58.4916 81.6635 58.4025L81.9975 58.0591L82.1429 57.8771L82.2967 57.702L82.4506 57.52L85.1574 54.3648C85.2943 54.1966 85.3919 54.0937 85.4482 54.0561C85.5054 54.0184 85.5936 54 85.7137 54C85.8451 54 85.9351 54.0284 85.9839 54.0845C86.0327 54.1406 86.0571 54.2627 86.0571 54.4501L86.3226 57.9662C86.3226 58.2051 86.3526 58.3633 86.4127 58.4409C86.4727 58.5184 86.5853 58.5661 86.7514 58.5853C86.9165 58.6037 87 58.6582 87 58.7473C87 58.8502 86.9146 58.9017 86.7429 58.9017L86.469 58.881L85.7925 58.8602C85.633 58.8602 85.4566 58.8656 85.2662 58.8763C85.0748 58.8871 84.8703 58.8955 84.6535 58.9025H84.3711C84.2398 58.9025 84.1741 58.8579 84.1741 58.7696C84.1741 58.7089 84.2013 58.6644 84.2557 58.6367C84.3101 58.6083 84.4115 58.5876 84.5597 58.5737C84.7079 58.5599 84.8083 58.5261 84.8599 58.4724C84.9115 58.4186 84.9369 58.3264 84.9369 58.1951V57.9078L84.8909 57.288ZM84.8571 56.9378L84.7802 55.3164L83.4414 56.9378H84.8571Z" fill="#828282"/>
<path d="M71.2052 55.149L68.4985 58.4516C68.3671 58.6152 68.2695 58.7181 68.2076 58.7604C68.1448 58.8026 68.0594 58.8233 67.9505 58.8233C67.8361 58.8233 67.7591 58.8026 67.7197 58.7604C67.6794 58.7181 67.6597 58.6267 67.6597 58.4862L67.5227 55.1406L66.6577 57.0707L66.5207 57.4508C66.4119 57.7465 66.349 57.9263 66.3321 57.9892C66.3152 58.0522 66.3068 58.1336 66.3068 58.232C66.3068 58.3449 66.3396 58.4186 66.4053 58.4539C66.471 58.4892 66.6295 58.523 66.881 58.5561C67.0236 58.5699 67.0949 58.6214 67.0949 58.7112C67.0949 58.8241 67.0039 58.8802 66.8209 58.8802L66.5038 58.8548L65.9981 58.8379L65.3329 58.8587C65.1847 58.8587 65.1106 58.8118 65.1106 58.7181C65.1106 58.6421 65.1856 58.586 65.3367 58.5507C65.4221 58.53 65.499 58.4885 65.559 58.4347C65.5891 58.4078 65.6135 58.3856 65.6135 58.3856C65.6763 58.3226 65.7992 58.0829 65.9822 57.6667L67.0958 55.1006C67.199 54.8479 67.2497 54.692 67.2497 54.6306C67.2497 54.5791 67.2225 54.5415 67.1681 54.5184C67.1137 54.4954 67.0039 54.4731 66.8388 54.4516C66.6727 54.4309 66.5901 54.3802 66.5901 54.3011C66.5901 54.2588 66.6127 54.222 66.6586 54.1889C66.7046 54.1559 66.7581 54.1398 66.8209 54.1398L67.1381 54.1682H68.7471C68.8156 54.1682 68.8559 54.1774 68.8672 54.1959C68.8841 54.2197 68.8925 54.278 68.8925 54.371L69.0295 57.2381L71.3422 54.3149C71.3994 54.2435 71.4388 54.2012 71.4623 54.1874C71.4848 54.1743 71.5308 54.1674 71.5992 54.1674H71.6846C71.7878 54.1674 71.8957 54.1674 72.0102 54.1674C72.1246 54.1674 72.2504 54.1674 72.3873 54.1674H73.304C73.4297 54.1674 73.4926 54.2097 73.4926 54.2934C73.4926 54.4101 73.3941 54.477 73.197 54.4931C73 54.5092 72.8771 54.5422 72.8283 54.5906C72.7795 54.6398 72.7298 54.7504 72.6782 54.9232L71.8385 57.7865C71.816 57.8656 71.7925 57.9616 71.77 58.0737C71.7475 58.1859 71.7362 58.2604 71.7362 58.298C71.7362 58.3771 71.7634 58.4355 71.8179 58.4731C71.8723 58.5108 71.9736 58.5384 72.1218 58.5568C72.2701 58.5753 72.3442 58.629 72.3442 58.7181C72.3442 58.8257 72.2438 58.8794 72.044 58.8794H71.7709C71.3656 58.8418 71.0344 58.8233 70.7774 58.8233C70.4922 58.8233 70.2463 58.8326 70.0409 58.8518L69.6131 58.8794C69.4704 58.8794 69.3991 58.8303 69.3991 58.732C69.3991 58.6528 69.4507 58.5991 69.553 58.5707L69.6984 58.5499L69.8016 58.543L69.8955 58.5292C70.0099 58.52 70.0906 58.4839 70.1394 58.4209C70.1882 58.3579 70.252 58.1974 70.3317 57.9409L71.2052 55.149Z" fill="#828282"/>
<rect x="25.5" y="62.5" width="5" height="4" rx="1" fill="#BDBDBD" stroke="#4F4F4F"/>
<rect x="25.5" y="69.5" width="6" height="4" rx="1" fill="#BDBDBD" stroke="#4F4F4F"/>
<rect x="31.5" y="69.5" width="5" height="4" rx="1" fill="#F2F2F2" stroke="#4F4F4F"/>
<rect x="36.5" y="69.5" width="5" height="4" rx="1" fill="#F2F2F2" stroke="#4F4F4F"/>
<rect x="41.5" y="69.5" width="5" height="4" rx="1" fill="#F2F2F2" stroke="#4F4F4F"/>
<rect x="46.5" y="69.5" width="5" height="4" rx="1" fill="#F2F2F2" stroke="#4F4F4F"/>
<rect x="51.5" y="69.5" width="5" height="4" rx="1" fill="#F2F2F2" stroke="#4F4F4F"/>
<rect x="56.5" y="69.5" width="5" height="4" rx="1" fill="#BDBDBD" stroke="#4F4F4F"/>
<rect x="61.5" y="69.5" width="5" height="4" rx="1" fill="#F2F2F2" stroke="#4F4F4F"/>
<rect x="66.5" y="69.5" width="5" height="4" rx="1" fill="#F2F2F2" stroke="#4F4F4F"/>
<rect x="71.5" y="69.5" width="5" height="4" rx="1" fill="#F2F2F2" stroke="#4F4F4F"/>
<rect x="76.5" y="69.5" width="5" height="4" rx="1" fill="#F2F2F2" stroke="#4F4F4F"/>
<rect x="81.5" y="69.5" width="5" height="4" rx="1" fill="#F2F2F2" stroke="#4F4F4F"/>
<rect x="31.5" y="85.5" width="6" height="4" rx="1" fill="#BDBDBD" stroke="#4F4F4F"/>
<rect x="37.5" y="85.5" width="6" height="4" rx="1" fill="#BDBDBD" stroke="#4F4F4F"/>
<rect x="43.5" y="85.5" width="27" height="4" rx="1" fill="#F2F2F2" stroke="#4F4F4F"/>
<rect x="70.5" y="85.5" width="6" height="4" rx="1" fill="#BDBDBD" stroke="#4F4F4F"/>
<rect x="76.5" y="85.5" width="6" height="4" rx="1" fill="#BDBDBD" stroke="#4F4F4F"/>
<rect x="25.5" y="81.5" width="9" height="4" rx="1" fill="#BDBDBD" stroke="#4F4F4F"/>
<rect x="34.5" y="81.5" width="5" height="4" rx="1" fill="#F2F2F2" stroke="#4F4F4F"/>
<rect x="39.5" y="81.5" width="5" height="4" rx="1" fill="#F2F2F2" stroke="#4F4F4F"/>
<rect x="44.5" y="81.5" width="5" height="4" rx="1" fill="#F2F2F2" stroke="#4F4F4F"/>
<rect x="49.5" y="81.5" width="5" height="4" rx="1" fill="#F2F2F2" stroke="#4F4F4F"/>
<rect x="54.5" y="81.5" width="5" height="4" rx="1" fill="#F2F2F2" stroke="#4F4F4F"/>
<rect x="59.5" y="81.5" width="5" height="4" rx="1" fill="#F2F2F2" stroke="#4F4F4F"/>
<rect x="64.5" y="81.5" width="5" height="4" rx="1" fill="#F2F2F2" stroke="#4F4F4F"/>
<rect x="69.5" y="81.5" width="5" height="4" rx="1" fill="#F2F2F2" stroke="#4F4F4F"/>
<rect x="74.5" y="81.5" width="5" height="4" rx="1" fill="#F2F2F2" stroke="#4F4F4F"/>
<rect x="79.5" y="81.5" width="7" height="4" rx="1" fill="#BDBDBD" stroke="#4F4F4F"/>
<rect x="25.5" y="77.5" width="6" height="4" rx="1" fill="#BDBDBD" stroke="#4F4F4F"/>
<rect x="31.5" y="77.5" width="5" height="4" rx="1" fill="#F2F2F2" stroke="#4F4F4F"/>
<rect x="36.5" y="77.5" width="5" height="4" rx="1" fill="#F2F2F2" stroke="#4F4F4F"/>
<rect x="41.5" y="77.5" width="5" height="4" rx="1" fill="#F2F2F2" stroke="#4F4F4F"/>
<rect x="46.5" y="77.5" width="5" height="4" rx="1" fill="#F2F2F2" stroke="#4F4F4F"/>
<rect x="51.5" y="77.5" width="5" height="4" rx="1" fill="#F2F2F2" stroke="#4F4F4F"/>
<rect x="56.5" y="77.5" width="5" height="4" rx="1" fill="#F2F2F2" stroke="#4F4F4F"/>
<rect x="61.5" y="77.5" width="5" height="4" rx="1" fill="#F2F2F2" stroke="#4F4F4F"/>
<rect x="66.5" y="77.5" width="5" height="4" rx="1" fill="#F2F2F2" stroke="#4F4F4F"/>
<rect x="71.5" y="77.5" width="5" height="4" rx="1" fill="#F2F2F2" stroke="#4F4F4F"/>
<rect x="25.5" y="73.5" width="9" height="4" rx="1" fill="#BDBDBD" stroke="#4F4F4F"/>
<rect x="34.5" y="73.5" width="5" height="4" rx="1" fill="#F2F2F2" stroke="#4F4F4F"/>
<rect x="39.5" y="73.5" width="5" height="4" rx="1" fill="#F2F2F2" stroke="#4F4F4F"/>
<rect x="44.5" y="73.5" width="5" height="4" rx="1" fill="#F2F2F2" stroke="#4F4F4F"/>
<rect x="49.5" y="73.5" width="5" height="4" rx="1" fill="#F2F2F2" stroke="#4F4F4F"/>
<rect x="54.5" y="73.5" width="5" height="4" rx="1" fill="#F2F2F2" stroke="#4F4F4F"/>
<rect x="59.5" y="73.5" width="5" height="4" rx="1" fill="#F2F2F2" stroke="#4F4F4F"/>
<rect x="64.5" y="73.5" width="5" height="4" rx="1" fill="#F2F2F2" stroke="#4F4F4F"/>
<rect x="69.5" y="73.5" width="5" height="4" rx="1" fill="#F2F2F2" stroke="#4F4F4F"/>
<rect x="74.5" y="73.5" width="5" height="4" rx="1" fill="#F2F2F2" stroke="#4F4F4F"/>
<rect x="33.5" y="62.5" width="5" height="4" rx="1" fill="#BDBDBD" stroke="#4F4F4F"/>
<rect x="38.5" y="62.5" width="5" height="4" rx="1" fill="#BDBDBD" stroke="#4F4F4F"/>
<rect x="43.5" y="62.5" width="5" height="4" rx="1" fill="#BDBDBD" stroke="#4F4F4F"/>
<rect x="48.5" y="62.5" width="5" height="4" rx="1" fill="#BDBDBD" stroke="#4F4F4F"/>
<rect x="53.5" y="62.5" width="5" height="4" rx="1" fill="#BDBDBD" stroke="#4F4F4F"/>
<path d="M62.5 62.5C61.9477 62.5 61.5 62.9477 61.5 63.5V65.5C61.5 66.0523 61.9477 66.5 62.5 66.5H65.5C66.0523 66.5 66.5 66.0523 66.5 65.5V63.5C66.5 62.9477 66.0523 62.5 65.5 62.5H62.5Z" fill="#BDBDBD" stroke="#4F4F4F"/>
<rect x="66.5" y="62.5" width="5" height="4" rx="1" fill="#BDBDBD" stroke="#4F4F4F"/>
<path d="M72.5 62.5C71.9477 62.5 71.5 62.9477 71.5 63.5V65.5C71.5 66.0523 71.9477 66.5 72.5 66.5H75.5C76.0523 66.5 76.5 66.0523 76.5 65.5V63.5C76.5 62.9477 76.0523 62.5 75.5 62.5H72.5Z" fill="#BDBDBD" stroke="#4F4F4F"/>
<path d="M77.5 62.5C76.9477 62.5 76.5 62.9477 76.5 63.5V65.5C76.5 66.0523 76.9477 66.5 77.5 66.5H80.5C81.0523 66.5 81.5 66.0523 81.5 65.5V63.5C81.5 62.9477 81.0523 62.5 80.5 62.5H77.5Z" fill="#828282" stroke="#4F4F4F"/>
<path d="M82.5 62.5C81.9477 62.5 81.5 62.9477 81.5 63.5V65.5C81.5 66.0523 81.9477 66.5 82.5 66.5H85.5C86.0523 66.5 86.5 66.0523 86.5 65.5V63.5C86.5 62.9477 86.0523 62.5 85.5 62.5H82.5Z" fill="#828282" stroke="#4F4F4F"/>
<path d="M85.5 73.5H80.5C79.9477 73.5 79.5 73.9477 79.5 74.5V77.5H77.5C76.9477 77.5 76.5 77.9477 76.5 78.5V80.5C76.5 81.0523 76.9477 81.5 77.5 81.5H85.5C86.0523 81.5 86.5 81.0523 86.5 80.5V74.5C86.5 73.9477 86.0523 73.5 85.5 73.5Z" fill="#F2F2F2" stroke="#4F4F4F"/>
</g>
<defs>
<clipPath id="clip0_113_480">
<rect width="112" height="160" rx="6" fill="white"/>
</clipPath>
</defs>
</svg>
