<svg width="112" height="160" viewBox="0 0 112 160" fill="none" xmlns="http://www.w3.org/2000/svg">
<g clip-path="url(#clip0_1_381)">
<path fill-rule="evenodd" clip-rule="evenodd" d="M7 0C3.13401 0 0 3.13401 0 7V153C0 156.866 3.13401 160 7 160H105C108.866 160 112 156.866 112 153V7C112 3.13401 108.866 0 105 0H7ZM7 1C3.68629 1 1 3.68629 1 7C1 7 1 7 1 7V152C1 152.165 1.00666 152.328 1.01973 152.49C1.2691 155.575 3.85131 158 7 158H105C108.149 158 110.731 155.575 110.98 152.49C110.993 152.328 111 152.165 111 152V7C111 3.68629 108.314 1 105 1H7Z" fill="black" fill-opacity="0.3"/>
<path d="M1 7C1 3.6863 3.68629 1 7 1H105C108.314 1 111 3.68629 111 7V152C111 155.314 108.314 158 105 158H7C3.68629 158 1 155.314 1 152V7Z" fill="#393B4E"/>
<path d="M42.4138 124.03C42.5784 124.03 42.7214 124.086 42.8428 124.199C42.9641 124.303 43.0334 124.433 43.0508 124.589L44.4678 133H42.4788L41.6078 126.396C41.5904 126.24 41.5774 126.088 41.5688 125.941C41.5601 125.794 41.5558 125.651 41.5558 125.512H41.1788C41.1354 125.633 41.0878 125.772 41.0358 125.928C40.9924 126.084 40.9404 126.236 40.8798 126.383L38.1108 133H36.0308L39.8138 124.524C39.8744 124.359 39.9654 124.238 40.0868 124.16C40.2168 124.073 40.3641 124.03 40.5288 124.03H42.4138ZM43.1028 129.126L42.9208 130.66H38.2928L38.4748 129.126H43.1028ZM47.6322 126.578L47.6452 128.06L47.8142 128.242L47.1512 133H45.2402L46.1372 126.578H47.6322ZM50.1932 126.409C50.7912 126.409 51.2245 126.569 51.4932 126.89C51.7705 127.211 51.8702 127.657 51.7922 128.229L51.1162 133H49.2702L49.8682 128.749C49.9028 128.489 49.8812 128.307 49.8032 128.203C49.7252 128.09 49.5778 128.034 49.3612 128.034C49.2052 128.034 49.0405 128.069 48.8672 128.138C48.6938 128.207 48.4988 128.32 48.2822 128.476C48.0655 128.623 47.8012 128.831 47.4892 129.1L47.2552 128.138C47.7925 127.54 48.2908 127.102 48.7502 126.825C49.2095 126.548 49.6905 126.409 50.1932 126.409ZM54.1972 126.409C54.8038 126.409 55.2458 126.574 55.5232 126.903C55.8005 127.224 55.8958 127.666 55.8092 128.229L55.1462 133H53.2352L53.8332 128.749C53.8678 128.472 53.8375 128.285 53.7422 128.19C53.6555 128.086 53.5168 128.034 53.3262 128.034C53.1788 128.034 53.0185 128.069 52.8452 128.138C52.6805 128.199 52.4898 128.307 52.2732 128.463C52.0652 128.61 51.8138 128.818 51.5192 129.087L51.2722 128.138C51.8095 127.531 52.3035 127.094 52.7542 126.825C53.2135 126.548 53.6945 126.409 54.1972 126.409ZM59.5133 126.578L58.6163 133H56.7053L57.6023 126.578H59.5133ZM59.3183 123.744C59.5263 123.744 59.6736 123.796 59.7603 123.9C59.8556 124.004 59.8903 124.16 59.8643 124.368L59.7733 125.057C59.7213 125.421 59.5089 125.603 59.1363 125.603H58.3563C57.9403 125.603 57.7539 125.395 57.7973 124.979L57.9013 124.29C57.9359 123.926 58.1439 123.744 58.5253 123.744H59.3183ZM65.4203 126.656L67.3183 126.773L66.5253 132.35C66.4387 132.991 66.287 133.524 66.0703 133.949C65.8537 134.382 65.5763 134.725 65.2383 134.976C64.909 135.236 64.5233 135.418 64.0813 135.522C63.648 135.626 63.1713 135.682 62.6513 135.691C62.504 135.691 62.2787 135.687 61.9753 135.678C61.6807 135.669 61.3643 135.639 61.0263 135.587C60.6883 135.535 60.385 135.461 60.1163 135.366L60.2333 134.261C60.3893 134.261 60.5453 134.261 60.7013 134.261C60.866 134.27 61.0567 134.274 61.2733 134.274C61.49 134.274 61.7587 134.27 62.0793 134.261C62.6947 134.252 63.2233 134.157 63.6653 133.975C64.116 133.793 64.4237 133.468 64.5883 133C64.6923 132.731 64.7703 132.471 64.8223 132.22C64.883 131.969 64.9783 131.73 65.1083 131.505L64.7443 131.362L65.4203 126.656ZM63.7953 126.409C64.246 126.409 64.6923 126.426 65.1343 126.461C65.585 126.496 65.9967 126.543 66.3693 126.604C66.7507 126.656 67.0627 126.712 67.3053 126.773L66.0053 127.813C65.65 127.796 65.325 127.787 65.0303 127.787C64.7443 127.778 64.4713 127.774 64.2113 127.774C63.8907 127.774 63.6263 127.8 63.4183 127.852C63.219 127.904 63.0587 127.999 62.9373 128.138C62.816 128.268 62.7163 128.459 62.6383 128.71C62.569 128.953 62.504 129.273 62.4433 129.672C62.3567 130.201 62.3133 130.612 62.3133 130.907C62.322 131.193 62.3783 131.388 62.4823 131.492C62.595 131.596 62.7597 131.639 62.9763 131.622C63.219 131.605 63.466 131.527 63.7173 131.388C63.9687 131.241 64.22 131.041 64.4713 130.79C64.7227 130.539 64.9697 130.248 65.2123 129.919L65.5503 130.53C65.377 131.033 65.13 131.475 64.8093 131.856C64.4887 132.229 64.1117 132.523 63.6783 132.74C63.245 132.957 62.7683 133.074 62.2483 133.091C61.711 133.1 61.2907 132.987 60.9873 132.753C60.6927 132.51 60.5063 132.133 60.4283 131.622C60.3503 131.102 60.372 130.448 60.4933 129.659C60.606 128.914 60.7577 128.324 60.9483 127.891C61.139 127.458 61.3687 127.137 61.6373 126.929C61.9147 126.712 62.231 126.574 62.5863 126.513C62.9503 126.444 63.3533 126.409 63.7953 126.409ZM71.9552 126.409C72.1805 126.409 72.4318 126.422 72.7092 126.448C72.9952 126.465 73.2812 126.491 73.5672 126.526C73.8618 126.561 74.1348 126.6 74.3862 126.643C74.6462 126.686 74.8585 126.73 75.0232 126.773L73.7102 127.813C73.3635 127.796 73.0472 127.787 72.7612 127.787C72.4752 127.778 72.2065 127.774 71.9552 127.774C71.6692 127.774 71.4265 127.796 71.2272 127.839C71.0278 127.882 70.8632 127.969 70.7332 128.099C70.6032 128.22 70.4948 128.407 70.4082 128.658C70.3215 128.909 70.2478 129.247 70.1872 129.672C70.1092 130.209 70.0658 130.621 70.0572 130.907C70.0572 131.184 70.1092 131.375 70.2132 131.479C70.3172 131.583 70.4818 131.631 70.7072 131.622C70.9412 131.613 71.1838 131.535 71.4352 131.388C71.6952 131.241 71.9508 131.041 72.2022 130.79C72.4535 130.53 72.6962 130.24 72.9302 129.919L73.2682 130.543C73.0948 131.054 72.8478 131.505 72.5272 131.895C72.2152 132.276 71.8468 132.575 71.4222 132.792C70.9975 133.009 70.5252 133.13 70.0052 133.156C69.4418 133.182 69.0085 133.069 68.7052 132.818C68.4105 132.567 68.2285 132.177 68.1592 131.648C68.0898 131.119 68.1158 130.456 68.2372 129.659C68.3498 128.922 68.5058 128.337 68.7052 127.904C68.9132 127.462 69.1732 127.137 69.4852 126.929C69.7972 126.712 70.1568 126.574 70.5642 126.513C70.9802 126.444 71.4438 126.409 71.9552 126.409ZM73.1252 126.656L75.0232 126.773L74.1522 133H72.6572L72.6832 131.544L72.4492 131.388L73.1252 126.656Z" fill="white"/>
<rect x="23" y="52" width="66" height="40" rx="1" fill="#4F4F4F"/>
<rect x="21.5" y="50.5" width="69" height="43" rx="2.5" stroke="white" stroke-opacity="0.3" stroke-width="3"/>
<rect x="22.5" y="51.5" width="67" height="41" rx="1.5" fill="#E0E0E0" stroke="#333333"/>
<path d="M60.433 57.9456H58.5238L58.2279 58.3429C58.1449 58.4608 58.0847 58.5484 58.0462 58.6046C57.9694 58.7171 57.9154 58.8074 57.8843 58.8747C57.8075 58.9991 57.7701 59.1032 57.7701 59.1871C57.7701 59.3502 57.9559 59.4516 58.3297 59.4912C58.4999 59.5143 58.5861 59.5788 58.5861 59.6857C58.5861 59.8157 58.4854 59.8802 58.2829 59.8802L57.9227 59.8599L57.2967 59.8295L56.4911 59.8802H56.2357C56.0841 59.8802 56.0083 59.8295 56.0083 59.729C56.0083 59.6452 56.0384 59.5843 56.0986 59.5484C56.1588 59.5115 56.273 59.4857 56.4402 59.4682C56.6073 59.4516 56.7485 59.3899 56.8617 59.2829L57.2313 58.871L57.3922 58.6525L57.5625 58.4424L57.7327 58.224L60.7279 54.4378C60.8794 54.2359 60.9874 54.1124 61.0497 54.0673C61.113 54.0221 61.2106 54 61.3435 54C61.4888 54 61.5885 54.0341 61.6425 54.1014C61.6965 54.1687 61.7235 54.3152 61.7235 54.5401L62.0173 58.7594C62.0173 58.929 62.0287 59.0645 62.0515 59.1659C62.0713 59.2525 62.119 59.3318 62.1875 59.3954C62.2478 59.4525 62.3215 59.4986 62.4056 59.5217C62.5187 59.5539 62.5748 59.6111 62.5748 59.6959C62.5748 59.8194 62.4803 59.8811 62.2903 59.8811L61.9872 59.8562L61.4286 59.8313C61.2521 59.8313 61.057 59.8378 60.8462 59.8507C60.6344 59.8636 60.4081 59.8737 60.1683 59.882H59.8558C59.7104 59.882 59.6378 59.8286 59.6378 59.7226C59.6378 59.6498 59.6679 59.5963 59.7281 59.5631C59.7883 59.529 59.9004 59.5041 60.0645 59.4876C60.2285 59.471 60.3396 59.4304 60.3967 59.3659C60.4538 59.3014 60.4818 59.1908 60.4818 59.0332V58.6885L60.433 57.9456ZM60.3946 57.5253L60.3095 55.5797L58.828 57.5253H60.3946Z" fill="#828282"/>
<path d="M74.9249 55.0682L73.731 58.7622C73.6739 58.9419 73.6459 59.0793 73.6459 59.1742C73.6459 59.3816 73.7726 59.4857 74.0248 59.4857C74.2522 59.4857 74.3664 59.5484 74.3664 59.6747C74.3664 59.7954 74.2688 59.8553 74.0726 59.8553H73.5234L72.4998 59.8221C72.3035 59.8221 72.1551 59.8249 72.0544 59.8304C71.9537 59.8359 71.7035 59.8553 71.3059 59.8894H71.2674C71.1034 59.8894 71.0214 59.8332 71.0214 59.7207C71.0214 59.6535 71.0494 59.6074 71.1065 59.5816C71.1636 59.5558 71.2924 59.5253 71.4948 59.4894C71.6972 59.4525 71.8198 59.4055 71.8644 59.3465C71.908 59.2876 71.9817 59.0986 72.0824 58.7788L73.267 55.1023C73.3106 54.9677 73.3334 54.8783 73.3334 54.8332C73.3334 54.6876 73.2161 54.6147 72.9825 54.6147C72.7801 54.6147 72.6794 54.5613 72.6794 54.4535C72.6794 54.3889 72.7043 54.3382 72.7552 54.3005C72.806 54.2627 72.8756 54.2442 72.9638 54.2442H73.3999C73.4248 54.2442 73.4974 54.2442 73.6179 54.2442C73.7383 54.2442 73.839 54.2442 73.921 54.2442C74.5273 54.2442 74.9509 54.2304 75.1907 54.2037L75.6932 54.177C75.8199 54.177 75.8832 54.2304 75.8832 54.3364C75.8832 54.4092 75.851 54.4627 75.7887 54.4959C75.7254 54.529 75.6101 54.5585 75.443 54.5843C75.2759 54.6092 75.1637 54.6507 75.1066 54.706C75.0474 54.7622 74.9872 54.8829 74.9249 55.0682Z" fill="#828282"/>
<path d="M80.7439 58.2406C80.7439 58.2406 80.5425 58.8691 80.4501 59.1521C80.3411 59.482 79.3144 60 78.0623 60C77.1145 60 76.3431 59.7899 75.7493 59.3687C75.1554 58.9484 74.8585 58.4037 74.8585 57.7364C74.8585 57.2037 75.0381 56.6986 75.3984 56.2221C75.7586 55.7456 76.2673 55.3355 76.9245 54.9935C77.4612 54.7134 78.0416 54.494 78.6634 54.3373C79.2853 54.1806 79.8968 54.1014 80.4979 54.1014C80.9017 54.1014 81.2589 54.1318 81.5693 54.1917C81.7271 54.2249 81.806 54.2848 81.806 54.3724C81.806 54.4221 81.7873 54.4857 81.7489 54.5641L81.5122 55.2037C81.4177 55.4959 81.2942 55.6415 81.1426 55.6415C80.9786 55.6415 80.8965 55.5263 80.8965 55.2968L80.9152 54.8673C80.9152 54.7217 80.882 54.6194 80.8156 54.5604C80.7491 54.5014 80.637 54.4719 80.4792 54.4719C80.0743 54.4719 79.6611 54.5447 79.2375 54.6912C78.814 54.8369 78.4132 55.0452 78.0343 55.3152C77.5858 55.635 77.2318 56.0286 76.9722 56.4949C76.7127 56.9613 76.584 57.4442 76.584 57.9447C76.584 58.4618 76.7355 58.8719 77.0387 59.1751C77.3418 59.4783 77.7561 59.6304 78.2803 59.6304C78.4381 59.6304 78.5471 59.6092 78.6074 59.5677C78.6676 59.5263 78.7226 59.4295 78.7735 59.2783L79.1244 58.1806C79.1493 58.1189 79.1618 58.0488 79.1618 57.9714C79.1618 57.8488 79.1337 57.7687 79.0766 57.7327C79.0195 57.6968 78.8679 57.6645 78.6219 57.6359C78.489 57.6359 78.4226 57.5797 78.4226 57.4673C78.4226 57.3438 78.5326 57.282 78.7548 57.282L79.2282 57.2903L80.0816 57.3152C80.1387 57.3152 80.1792 57.3152 80.2051 57.3152C80.256 57.3152 80.2903 57.3152 80.3089 57.3152C80.5872 57.3152 80.8363 57.3041 81.0575 57.2811H81.5122C81.67 57.2811 81.7489 57.329 81.7489 57.4258C81.7489 57.5604 81.6191 57.6378 81.3606 57.659C81.1966 57.659 81.0699 57.7014 80.9817 57.7853C80.8924 57.87 80.8135 58.0212 80.7439 58.2406Z" fill="#828282"/>
<path d="M84.6579 57.9456H82.7487L82.4528 58.3429C82.3697 58.4608 82.3095 58.5484 82.2711 58.6046C82.1943 58.7171 82.1403 58.8074 82.1091 58.8747C82.0323 58.9991 81.9949 59.1032 81.9949 59.1871C81.9949 59.3502 82.1808 59.4516 82.5545 59.4912C82.7248 59.5143 82.8109 59.5788 82.8109 59.6857C82.8109 59.8157 82.7102 59.8802 82.5078 59.8802L82.1476 59.8599L81.8558 59.8461C81.6337 59.835 81.4104 59.8359 81.1883 59.8479L80.5872 59.8802C80.4356 59.8802 80.3598 59.8295 80.3598 59.729C80.3598 59.6452 80.3899 59.5843 80.4501 59.5484C80.5103 59.5115 80.6245 59.4857 80.7917 59.4682C80.9588 59.4516 80.9734 59.3899 81.0865 59.2829L81.4561 58.871L81.617 58.6525L81.7873 58.4424L81.9576 58.224L84.9527 54.4378C85.1043 54.2359 85.2123 54.1124 85.2745 54.0673C85.3379 54.0221 85.4355 54 85.5683 54C85.7137 54 85.8134 54.0341 85.8673 54.1014C85.9213 54.1687 85.9483 54.3152 85.9483 54.5401L86.2421 58.7594C86.2421 59.0461 86.2753 59.2359 86.3418 59.329C86.4082 59.4221 86.5328 59.4793 86.7166 59.5023C86.8993 59.5244 86.9917 59.5899 86.9917 59.6968C86.9917 59.8203 86.8972 59.882 86.7072 59.882L86.4041 59.8571L85.6556 59.8323C85.4791 59.8323 85.2839 59.8387 85.0731 59.8516C84.8613 59.8645 84.635 59.8747 84.3952 59.8829H84.0827C83.9374 59.8829 83.8647 59.8295 83.8647 59.7235C83.8647 59.6507 83.8948 59.5972 83.955 59.5641C84.0152 59.53 84.1274 59.5051 84.2914 59.4885C84.4554 59.4719 84.5665 59.4313 84.6236 59.3668C84.6807 59.3023 84.7087 59.1917 84.7087 59.0341V58.6894L84.6579 57.9456ZM84.6205 57.5253L84.5354 55.5797L83.0539 57.5253H84.6205Z" fill="#828282"/>
<path d="M69.514 55.3788L66.5188 59.3419C66.3735 59.5382 66.2655 59.6618 66.197 59.7124C66.1274 59.7631 66.033 59.788 65.9125 59.788C65.7859 59.788 65.7007 59.7631 65.6571 59.7124C65.6125 59.6618 65.5907 59.5521 65.5907 59.3834L65.4391 55.3687L64.4819 57.6848L64.3303 58.141C64.2099 58.4959 64.1404 58.7115 64.1217 58.7871C64.103 58.8627 64.0936 58.9604 64.0936 59.0783C64.0936 59.2138 64.13 59.3023 64.2026 59.3447C64.2753 59.3871 64.4508 59.4276 64.729 59.4673C64.8868 59.4839 64.9657 59.5456 64.9657 59.6535C64.9657 59.7889 64.865 59.8562 64.6626 59.8562L64.3116 59.8258L63.7521 59.8055L63.016 59.8304C62.852 59.8304 62.77 59.7742 62.77 59.6618C62.77 59.5705 62.853 59.5032 63.0202 59.4608C63.1146 59.4359 63.1998 59.3862 63.2662 59.3217C63.2994 59.2894 63.3264 59.2627 63.3264 59.2627C63.396 59.1871 63.532 58.8995 63.7344 58.4L64.9667 55.3207C65.0809 55.0175 65.137 54.8304 65.137 54.7567C65.137 54.6949 65.1069 54.6498 65.0467 54.6221C64.9865 54.5945 64.865 54.5677 64.6823 54.5419C64.4985 54.5171 64.4072 54.4562 64.4072 54.3613C64.4072 54.3106 64.4321 54.2664 64.4829 54.2267C64.5338 54.1871 64.593 54.1677 64.6626 54.1677L65.0135 54.2018H66.7939C66.8697 54.2018 66.9144 54.2129 66.9268 54.235C66.9455 54.2636 66.9549 54.3336 66.9549 54.4452L67.1064 57.8857L69.6655 54.3779C69.7289 54.2922 69.7725 54.2415 69.7984 54.2249C69.8233 54.2092 69.8742 54.2009 69.95 54.2009H70.0445C70.1587 54.2009 70.2781 54.2009 70.4047 54.2009C70.5314 54.2009 70.6705 54.2009 70.8221 54.2009H71.8364C71.9755 54.2009 72.045 54.2516 72.045 54.3521C72.045 54.4922 71.936 54.5724 71.718 54.5917C71.5 54.6111 71.364 54.6507 71.31 54.7088C71.256 54.7677 71.201 54.9005 71.1439 55.1078L70.2147 58.5438C70.1898 58.6387 70.1639 58.7539 70.1389 58.8885C70.114 59.023 70.1016 59.1124 70.1016 59.1576C70.1016 59.2525 70.1317 59.3226 70.1919 59.3677C70.2521 59.4129 70.3642 59.4461 70.5283 59.4682C70.6923 59.4903 70.7743 59.5548 70.7743 59.6618C70.7743 59.7908 70.6632 59.8553 70.4421 59.8553H70.14C69.6915 59.8101 69.325 59.788 69.0406 59.788C68.7249 59.788 68.4529 59.7991 68.2256 59.8221L67.7522 59.8553C67.5944 59.8553 67.5155 59.7963 67.5155 59.6783C67.5155 59.5834 67.5726 59.5189 67.6857 59.4848L67.8466 59.4599L67.9608 59.4516L68.0647 59.435C68.1913 59.424 68.2806 59.3806 68.3346 59.3051C68.3886 59.2295 68.4592 59.0369 68.5474 58.729L69.514 55.3788Z" fill="#828282"/>
<rect x="25.5" y="62.5" width="5" height="4" rx="1" fill="#BDBDBD" stroke="#4F4F4F"/>
<rect x="25.5" y="69.5" width="6" height="4" rx="1" fill="#BDBDBD" stroke="#4F4F4F"/>
<rect x="31.5" y="69.5" width="5" height="4" rx="1" fill="#F2F2F2" stroke="#4F4F4F"/>
<rect x="36.5" y="69.5" width="5" height="4" rx="1" fill="#F2F2F2" stroke="#4F4F4F"/>
<rect x="41.5" y="69.5" width="5" height="4" rx="1" fill="#F2F2F2" stroke="#4F4F4F"/>
<rect x="46.5" y="69.5" width="5" height="4" rx="1" fill="#F2F2F2" stroke="#4F4F4F"/>
<rect x="51.5" y="69.5" width="5" height="4" rx="1" fill="#F2F2F2" stroke="#4F4F4F"/>
<rect x="56.5" y="69.5" width="5" height="4" rx="1" fill="#BDBDBD" stroke="#4F4F4F"/>
<rect x="61.5" y="69.5" width="5" height="4" rx="1" fill="#F2F2F2" stroke="#4F4F4F"/>
<rect x="66.5" y="69.5" width="5" height="4" rx="1" fill="#F2F2F2" stroke="#4F4F4F"/>
<rect x="71.5" y="69.5" width="5" height="4" rx="1" fill="#F2F2F2" stroke="#4F4F4F"/>
<rect x="76.5" y="69.5" width="5" height="4" rx="1" fill="#F2F2F2" stroke="#4F4F4F"/>
<rect x="81.5" y="69.5" width="5" height="4" rx="1" fill="#F2F2F2" stroke="#4F4F4F"/>
<rect x="31.5" y="85.5" width="6" height="4" rx="1" fill="#BDBDBD" stroke="#4F4F4F"/>
<rect x="37.5" y="85.5" width="6" height="4" rx="1" fill="#BDBDBD" stroke="#4F4F4F"/>
<rect x="43.5" y="85.5" width="27" height="4" rx="1" fill="#F2F2F2" stroke="#4F4F4F"/>
<rect x="70.5" y="85.5" width="6" height="4" rx="1" fill="#BDBDBD" stroke="#4F4F4F"/>
<rect x="76.5" y="85.5" width="6" height="4" rx="1" fill="#BDBDBD" stroke="#4F4F4F"/>
<rect x="25.5" y="81.5" width="9" height="4" rx="1" fill="#BDBDBD" stroke="#4F4F4F"/>
<rect x="34.5" y="81.5" width="5" height="4" rx="1" fill="#F2F2F2" stroke="#4F4F4F"/>
<rect x="39.5" y="81.5" width="5" height="4" rx="1" fill="#F2F2F2" stroke="#4F4F4F"/>
<rect x="44.5" y="81.5" width="5" height="4" rx="1" fill="#F2F2F2" stroke="#4F4F4F"/>
<rect x="49.5" y="81.5" width="5" height="4" rx="1" fill="#F2F2F2" stroke="#4F4F4F"/>
<rect x="54.5" y="81.5" width="5" height="4" rx="1" fill="#F2F2F2" stroke="#4F4F4F"/>
<rect x="59.5" y="81.5" width="5" height="4" rx="1" fill="#F2F2F2" stroke="#4F4F4F"/>
<rect x="64.5" y="81.5" width="5" height="4" rx="1" fill="#F2F2F2" stroke="#4F4F4F"/>
<rect x="69.5" y="81.5" width="5" height="4" rx="1" fill="#F2F2F2" stroke="#4F4F4F"/>
<rect x="74.5" y="81.5" width="5" height="4" rx="1" fill="#F2F2F2" stroke="#4F4F4F"/>
<rect x="79.5" y="81.5" width="7" height="4" rx="1" fill="#BDBDBD" stroke="#4F4F4F"/>
<rect x="25.5" y="77.5" width="6" height="4" rx="1" fill="#BDBDBD" stroke="#4F4F4F"/>
<rect x="31.5" y="77.5" width="5" height="4" rx="1" fill="#F2F2F2" stroke="#4F4F4F"/>
<rect x="36.5" y="77.5" width="5" height="4" rx="1" fill="#F2F2F2" stroke="#4F4F4F"/>
<rect x="41.5" y="77.5" width="5" height="4" rx="1" fill="#F2F2F2" stroke="#4F4F4F"/>
<rect x="46.5" y="77.5" width="5" height="4" rx="1" fill="#F2F2F2" stroke="#4F4F4F"/>
<rect x="51.5" y="77.5" width="5" height="4" rx="1" fill="#F2F2F2" stroke="#4F4F4F"/>
<rect x="56.5" y="77.5" width="5" height="4" rx="1" fill="#F2F2F2" stroke="#4F4F4F"/>
<rect x="61.5" y="77.5" width="5" height="4" rx="1" fill="#F2F2F2" stroke="#4F4F4F"/>
<rect x="66.5" y="77.5" width="5" height="4" rx="1" fill="#F2F2F2" stroke="#4F4F4F"/>
<rect x="71.5" y="77.5" width="5" height="4" rx="1" fill="#F2F2F2" stroke="#4F4F4F"/>
<rect x="25.5" y="73.5" width="9" height="4" rx="1" fill="#BDBDBD" stroke="#4F4F4F"/>
<rect x="34.5" y="73.5" width="5" height="4" rx="1" fill="#F2F2F2" stroke="#4F4F4F"/>
<rect x="39.5" y="73.5" width="5" height="4" rx="1" fill="#F2F2F2" stroke="#4F4F4F"/>
<rect x="44.5" y="73.5" width="5" height="4" rx="1" fill="#F2F2F2" stroke="#4F4F4F"/>
<rect x="49.5" y="73.5" width="5" height="4" rx="1" fill="#F2F2F2" stroke="#4F4F4F"/>
<rect x="54.5" y="73.5" width="5" height="4" rx="1" fill="#F2F2F2" stroke="#4F4F4F"/>
<rect x="59.5" y="73.5" width="5" height="4" rx="1" fill="#F2F2F2" stroke="#4F4F4F"/>
<rect x="64.5" y="73.5" width="5" height="4" rx="1" fill="#F2F2F2" stroke="#4F4F4F"/>
<rect x="69.5" y="73.5" width="5" height="4" rx="1" fill="#F2F2F2" stroke="#4F4F4F"/>
<rect x="74.5" y="73.5" width="5" height="4" rx="1" fill="#F2F2F2" stroke="#4F4F4F"/>
<rect x="33.5" y="62.5" width="5" height="4" rx="1" fill="#BDBDBD" stroke="#4F4F4F"/>
<rect x="38.5" y="62.5" width="5" height="4" rx="1" fill="#BDBDBD" stroke="#4F4F4F"/>
<rect x="43.5" y="62.5" width="5" height="4" rx="1" fill="#BDBDBD" stroke="#4F4F4F"/>
<rect x="48.5" y="62.5" width="5" height="4" rx="1" fill="#BDBDBD" stroke="#4F4F4F"/>
<rect x="53.5" y="62.5" width="5" height="4" rx="1" fill="#BDBDBD" stroke="#4F4F4F"/>
<path d="M62.5 62.5C61.9477 62.5 61.5 62.9477 61.5 63.5V65.5C61.5 66.0523 61.9477 66.5 62.5 66.5H65.5C66.0523 66.5 66.5 66.0523 66.5 65.5V63.5C66.5 62.9477 66.0523 62.5 65.5 62.5H62.5Z" fill="#BDBDBD" stroke="#4F4F4F"/>
<rect x="66.5" y="62.5" width="5" height="4" rx="1" fill="#BDBDBD" stroke="#4F4F4F"/>
<path d="M72.5 62.5C71.9477 62.5 71.5 62.9477 71.5 63.5V65.5C71.5 66.0523 71.9477 66.5 72.5 66.5H75.5C76.0523 66.5 76.5 66.0523 76.5 65.5V63.5C76.5 62.9477 76.0523 62.5 75.5 62.5H72.5Z" fill="#BDBDBD" stroke="#4F4F4F"/>
<path d="M77.5 62.5C76.9477 62.5 76.5 62.9477 76.5 63.5V65.5C76.5 66.0523 76.9477 66.5 77.5 66.5H80.5C81.0523 66.5 81.5 66.0523 81.5 65.5V63.5C81.5 62.9477 81.0523 62.5 80.5 62.5H77.5Z" fill="#828282" stroke="#4F4F4F"/>
<path d="M82.5 62.5C81.9477 62.5 81.5 62.9477 81.5 63.5V65.5C81.5 66.0523 81.9477 66.5 82.5 66.5H85.5C86.0523 66.5 86.5 66.0523 86.5 65.5V63.5C86.5 62.9477 86.0523 62.5 85.5 62.5H82.5Z" fill="#828282" stroke="#4F4F4F"/>
<mask id="path-68-outside-1_1_381" maskUnits="userSpaceOnUse" x="76" y="73" width="11" height="9" fill="black">
<rect fill="white" x="76" y="73" width="11" height="9"/>
<path fill-rule="evenodd" clip-rule="evenodd" d="M80.5 74C80.2239 74 80 74.2239 80 74.5V78H77.5C77.2239 78 77 78.2239 77 78.5V80.5C77 80.7761 77.2239 81 77.5 81H85.5C85.7761 81 86 80.7761 86 80.5V79V78V74.5C86 74.2239 85.7761 74 85.5 74H80.5Z"/>
</mask>
<path fill-rule="evenodd" clip-rule="evenodd" d="M80.5 74C80.2239 74 80 74.2239 80 74.5V78H77.5C77.2239 78 77 78.2239 77 78.5V80.5C77 80.7761 77.2239 81 77.5 81H85.5C85.7761 81 86 80.7761 86 80.5V79V78V74.5C86 74.2239 85.7761 74 85.5 74H80.5Z" fill="#F2F2F2"/>
<path d="M80 78V79H81V78H80ZM81 74.5C81 74.7761 80.7761 75 80.5 75V73C79.6716 73 79 73.6716 79 74.5H81ZM81 78V74.5H79V78H81ZM77.5 79H80V77H77.5V79ZM78 78.5C78 78.7761 77.7761 79 77.5 79V77C76.6716 77 76 77.6716 76 78.5H78ZM78 80.5V78.5H76V80.5H78ZM77.5 80C77.7761 80 78 80.2239 78 80.5H76C76 81.3284 76.6716 82 77.5 82V80ZM85.5 80H77.5V82H85.5V80ZM85 80.5C85 80.2239 85.2239 80 85.5 80V82C86.3284 82 87 81.3284 87 80.5H85ZM85 79V80.5H87V79H85ZM85 78V79H87V78H85ZM85 74.5V78H87V74.5H85ZM85.5 75C85.2239 75 85 74.7761 85 74.5H87C87 73.6716 86.3284 73 85.5 73V75ZM80.5 75H85.5V73H80.5V75Z" fill="#4F4F4F" mask="url(#path-68-outside-1_1_381)"/>
</g>
<defs>
<clipPath id="clip0_1_381">
<rect width="112" height="160" rx="6" fill="white"/>
</clipPath>
</defs>
</svg>
