<svg width="112" height="160" viewBox="0 0 112 160" fill="none" xmlns="http://www.w3.org/2000/svg">
<g clip-path="url(#clip0_19_1388)">
<path d="M1 7C1 3.6863 3.68629 1 7 1H105C108.314 1 111 3.68629 111 7V152C111 155.314 108.314 158 105 158H7C3.68629 158 1 155.314 1 152V7Z" fill="#393B4E"/>
<path fill-rule="evenodd" clip-rule="evenodd" d="M7 0C3.13401 0 0 3.13401 0 7V153C0 156.866 3.13401 160 7 160H105C108.866 160 112 156.866 112 153V7C112 3.13401 108.866 0 105 0H7ZM7 1C3.68629 1 1 3.68629 1 7C1 7 1 7 1 7V152C1 152.165 1.00666 152.328 1.01973 152.49C1.2691 155.575 3.85131 158 7 158H105C108.149 158 110.731 155.575 110.98 152.49C110.993 152.328 111 152.165 111 152V7C111 3.68629 108.314 1 105 1H7Z" fill="black" fill-opacity="0.3"/>
<path fill-rule="evenodd" clip-rule="evenodd" d="M40.8017 54.1811C40.9082 53.0098 39.986 52 38.8099 52H26.9017C25.2837 52 23.9572 53.283 23.9033 54.9001L23.2107 75.6794C23.0872 79.3842 25.5394 82.6368 29.2028 83.2027C34.6057 84.0374 43.5381 85 56 85C68.4619 85 77.3943 84.0374 82.7972 83.2027C86.4606 82.6368 88.9128 79.3842 88.7893 75.6794L88.0967 54.9001C88.0428 53.283 86.7163 52 85.0983 52H73.1901C72.014 52 71.0918 53.0098 71.1983 54.1811L71.9009 61.9095C71.9541 62.4951 71.493 63 70.905 63H41.095C40.507 63 40.0459 62.4951 40.0991 61.9095L40.8017 54.1811Z" fill="#4F4F4F"/>
<path d="M42.2956 54.3169C42.4819 52.2672 40.868 50.5 38.8099 50.5H26.9017C24.4747 50.5 22.485 52.4245 22.4042 54.8501L21.7115 75.6294C21.5652 80.0184 24.4889 83.9923 28.9738 84.6851C34.4515 85.5314 43.4605 86.5 56 86.5C68.5395 86.5 77.5485 85.5314 83.0262 84.6851C87.5111 83.9923 90.4348 80.0184 90.2885 75.6294L89.5958 54.8501C89.515 52.4245 87.5253 50.5 85.0983 50.5H73.1901C71.132 50.5 69.5181 52.2672 69.7044 54.3169L70.3575 61.5H41.6425L42.2956 54.3169Z" stroke="white" stroke-opacity="0.3" stroke-width="3"/>
<path d="M41.2997 54.2263C41.4328 52.7623 40.28 51.5 38.8099 51.5H26.9017C25.0141 51.5 23.4665 52.9968 23.4036 54.8834L22.711 75.6627C22.5799 79.5956 25.1892 83.0886 29.1265 83.6969C34.5543 84.5354 43.5122 85.5 56 85.5C68.4878 85.5 77.4457 84.5354 82.8735 83.6969C86.8108 83.0886 89.4201 79.5956 89.289 75.6627L88.5964 54.8834C88.5335 52.9968 86.9859 51.5 85.0983 51.5H73.1901C71.72 51.5 70.5672 52.7623 70.7003 54.2263L71.4029 61.9547C71.4295 62.2475 71.199 62.5 70.905 62.5H41.095C40.801 62.5 40.5705 62.2475 40.5971 61.9547L41.2997 54.2263Z" fill="#4F4F4F" stroke="#333333"/>
<path d="M76 67L82 64M85 69L79 72" stroke="#333333" stroke-width="4"/>
<circle cx="31.5" cy="68.5" r="5.5" fill="#333333"/>
<circle cx="31.5" cy="64.5" r="0.5" fill="#4F4F4F"/>
<circle cx="31.5" cy="72.5" r="0.5" fill="#4F4F4F"/>
<circle cx="35.5" cy="68.5" r="0.5" fill="#4F4F4F"/>
<circle cx="27.5" cy="68.5" r="0.5" fill="#4F4F4F"/>
<circle cx="79.5" cy="71.5" r="2.5" fill="#EB5757"/>
<circle cx="85" cy="69" r="2" fill="#2D9CDB"/>
<circle cx="82" cy="64" r="2" fill="#F2C94C"/>
<circle cx="76" cy="67" r="2" fill="#27AE60"/>
<path d="M72.3993 78.3929C67.8419 78.7501 62.3754 79 56 79C49.6245 79 44.158 78.7501 39.6006 78.3929L39.7817 76.401C44.2825 76.7531 49.6885 77 56 77C62.3113 77 67.7174 76.7531 72.2182 76.401L72.3993 78.3929Z" fill="#333333"/>
<path d="M59 77.4748C59 77.2011 59.2202 76.9784 59.4938 76.9743C62.3626 76.9317 65.0221 76.8383 67.4725 76.7098C67.759 76.6948 68 76.9228 68 77.2098V78.211C68 78.4765 67.7925 78.6958 67.5273 78.7097C65.061 78.8384 62.3874 78.9318 59.5065 78.9743C59.2279 78.9785 59 78.7535 59 78.4749L59 77.4748Z" fill="#828282"/>
<path d="M40.6 62L38.5 85" stroke="#333333"/>
<path d="M71.4 62L73.5 85" stroke="#333333"/>
<path d="M24.0056 124.03C24.1702 124.03 24.3132 124.086 24.4346 124.199C24.5559 124.303 24.6252 124.433 24.6426 124.589L26.0596 133H24.0706L23.1996 126.396C23.1822 126.24 23.1692 126.088 23.1606 125.941C23.1519 125.794 23.1476 125.651 23.1476 125.512H22.7706C22.7272 125.633 22.6796 125.772 22.6276 125.928C22.5842 126.084 22.5322 126.236 22.4716 126.383L19.7026 133H17.6226L21.4056 124.524C21.4662 124.359 21.5572 124.238 21.6786 124.16C21.8086 124.073 21.9559 124.03 22.1206 124.03H24.0056ZM24.6946 129.126L24.5126 130.66H19.8846L20.0666 129.126H24.6946ZM29.224 126.578L29.237 128.06L29.406 128.242L28.743 133H26.832L27.729 126.578H29.224ZM31.785 126.409C32.383 126.409 32.8163 126.569 33.085 126.89C33.3623 127.211 33.462 127.657 33.384 128.229L32.708 133H30.862L31.46 128.749C31.4946 128.489 31.473 128.307 31.395 128.203C31.317 128.09 31.1696 128.034 30.953 128.034C30.797 128.034 30.6323 128.069 30.459 128.138C30.2856 128.207 30.0906 128.32 29.874 128.476C29.6573 128.623 29.393 128.831 29.081 129.1L28.847 128.138C29.3843 127.54 29.8826 127.102 30.342 126.825C30.8013 126.548 31.2823 126.409 31.785 126.409ZM35.789 126.409C36.3956 126.409 36.8376 126.574 37.115 126.903C37.3923 127.224 37.4876 127.666 37.401 128.229L36.738 133H34.827L35.425 128.749C35.4596 128.472 35.4293 128.285 35.334 128.19C35.2473 128.086 35.1086 128.034 34.918 128.034C34.7706 128.034 34.6103 128.069 34.437 128.138C34.2723 128.199 34.0816 128.307 33.865 128.463C33.657 128.61 33.4056 128.818 33.111 129.087L32.864 128.138C33.4013 127.531 33.8953 127.094 34.346 126.825C34.8053 126.548 35.2863 126.409 35.789 126.409ZM41.105 126.578L40.208 133H38.297L39.194 126.578H41.105ZM40.91 123.744C41.118 123.744 41.2654 123.796 41.352 123.9C41.4474 124.004 41.482 124.16 41.456 124.368L41.365 125.057C41.313 125.421 41.1007 125.603 40.728 125.603H39.948C39.532 125.603 39.3457 125.395 39.389 124.979L39.493 124.29C39.5277 123.926 39.7357 123.744 40.117 123.744H40.91ZM47.0121 126.656L48.9101 126.773L48.1171 132.35C48.0305 132.991 47.8788 133.524 47.6621 133.949C47.4455 134.382 47.1681 134.725 46.8301 134.976C46.5008 135.236 46.1151 135.418 45.6731 135.522C45.2398 135.626 44.7631 135.682 44.2431 135.691C44.0958 135.691 43.8705 135.687 43.5671 135.678C43.2725 135.669 42.9561 135.639 42.6181 135.587C42.2801 135.535 41.9768 135.461 41.7081 135.366L41.8251 134.261C41.9811 134.261 42.1371 134.261 42.2931 134.261C42.4578 134.27 42.6485 134.274 42.8651 134.274C43.0818 134.274 43.3505 134.27 43.6711 134.261C44.2865 134.252 44.8151 134.157 45.2571 133.975C45.7078 133.793 46.0155 133.468 46.1801 133C46.2841 132.731 46.3621 132.471 46.4141 132.22C46.4748 131.969 46.5701 131.73 46.7001 131.505L46.3361 131.362L47.0121 126.656ZM45.3871 126.409C45.8378 126.409 46.2841 126.426 46.7261 126.461C47.1768 126.496 47.5885 126.543 47.9611 126.604C48.3425 126.656 48.6545 126.712 48.8971 126.773L47.5971 127.813C47.2418 127.796 46.9168 127.787 46.6221 127.787C46.3361 127.778 46.0631 127.774 45.8031 127.774C45.4825 127.774 45.2181 127.8 45.0101 127.852C44.8108 127.904 44.6505 127.999 44.5291 128.138C44.4078 128.268 44.3081 128.459 44.2301 128.71C44.1608 128.953 44.0958 129.273 44.0351 129.672C43.9485 130.201 43.9051 130.612 43.9051 130.907C43.9138 131.193 43.9701 131.388 44.0741 131.492C44.1868 131.596 44.3515 131.639 44.5681 131.622C44.8108 131.605 45.0578 131.527 45.3091 131.388C45.5605 131.241 45.8118 131.041 46.0631 130.79C46.3145 130.539 46.5615 130.248 46.8041 129.919L47.1421 130.53C46.9688 131.033 46.7218 131.475 46.4011 131.856C46.0805 132.229 45.7035 132.523 45.2701 132.74C44.8368 132.957 44.3601 133.074 43.8401 133.091C43.3028 133.1 42.8825 132.987 42.5791 132.753C42.2845 132.51 42.0981 132.133 42.0201 131.622C41.9421 131.102 41.9638 130.448 42.0851 129.659C42.1978 128.914 42.3495 128.324 42.5401 127.891C42.7308 127.458 42.9605 127.137 43.2291 126.929C43.5065 126.712 43.8228 126.574 44.1781 126.513C44.5421 126.444 44.9451 126.409 45.3871 126.409ZM53.547 126.409C53.7723 126.409 54.0236 126.422 54.301 126.448C54.587 126.465 54.873 126.491 55.159 126.526C55.4536 126.561 55.7266 126.6 55.978 126.643C56.238 126.686 56.4503 126.73 56.615 126.773L55.302 127.813C54.9553 127.796 54.639 127.787 54.353 127.787C54.067 127.778 53.7983 127.774 53.547 127.774C53.261 127.774 53.0183 127.796 52.819 127.839C52.6196 127.882 52.455 127.969 52.325 128.099C52.195 128.22 52.0866 128.407 52 128.658C51.9133 128.909 51.8396 129.247 51.779 129.672C51.701 130.209 51.6576 130.621 51.649 130.907C51.649 131.184 51.701 131.375 51.805 131.479C51.909 131.583 52.0736 131.631 52.299 131.622C52.533 131.613 52.7756 131.535 53.027 131.388C53.287 131.241 53.5426 131.041 53.794 130.79C54.0453 130.53 54.288 130.24 54.522 129.919L54.86 130.543C54.6866 131.054 54.4396 131.505 54.119 131.895C53.807 132.276 53.4386 132.575 53.014 132.792C52.5893 133.009 52.117 133.13 51.597 133.156C51.0336 133.182 50.6003 133.069 50.297 132.818C50.0023 132.567 49.8203 132.177 49.751 131.648C49.6816 131.119 49.7076 130.456 49.829 129.659C49.9416 128.922 50.0976 128.337 50.297 127.904C50.505 127.462 50.765 127.137 51.077 126.929C51.389 126.712 51.7486 126.574 52.156 126.513C52.572 126.444 53.0356 126.409 53.547 126.409ZM54.717 126.656L56.615 126.773L55.744 133H54.249L54.275 131.544L54.041 131.388L54.717 126.656ZM64.8777 123.874C65.3023 123.874 65.6663 123.887 65.9697 123.913C66.273 123.93 66.5503 123.965 66.8017 124.017C67.0617 124.06 67.3217 124.121 67.5817 124.199L67.3217 125.642C67.0443 125.625 66.78 125.612 66.5287 125.603C66.286 125.594 66.0303 125.59 65.7617 125.59C65.493 125.581 65.1723 125.577 64.7997 125.577C64.4617 125.577 64.1757 125.62 63.9417 125.707C63.7077 125.785 63.504 125.932 63.3307 126.149C63.166 126.357 63.0273 126.66 62.9147 127.059C62.802 127.449 62.7067 127.96 62.6287 128.593C62.5247 129.338 62.4857 129.919 62.5117 130.335C62.5463 130.751 62.6677 131.041 62.8757 131.206C63.0923 131.371 63.4217 131.453 63.8637 131.453C64.479 131.453 64.986 131.444 65.3847 131.427C65.792 131.401 66.1907 131.371 66.5807 131.336L66.6717 132.805C66.2383 132.926 65.805 133.013 65.3717 133.065C64.9383 133.126 64.414 133.156 63.7987 133.156C62.8713 133.156 62.139 133 61.6017 132.688C61.073 132.376 60.7263 131.878 60.5617 131.193C60.397 130.5 60.3927 129.581 60.5487 128.437C60.6787 127.562 60.8477 126.829 61.0557 126.24C61.2637 125.651 61.5323 125.183 61.8617 124.836C62.191 124.489 62.6027 124.242 63.0967 124.095C63.5907 123.948 64.1843 123.874 64.8777 123.874ZM72.3782 123.9C73.3228 123.9 74.0725 124.043 74.6272 124.329C75.1905 124.606 75.5675 125.087 75.7582 125.772C75.9488 126.448 75.9575 127.388 75.7842 128.593C75.6542 129.52 75.4808 130.283 75.2642 130.881C75.0475 131.47 74.7702 131.93 74.4322 132.259C74.0942 132.58 73.6695 132.805 73.1582 132.935C72.6468 133.065 72.0358 133.13 71.3252 133.13C70.7012 133.13 70.0945 133.117 69.5052 133.091C68.9158 133.065 68.3525 133.035 67.8152 133L68.7902 131.531C69.1108 131.548 69.5052 131.566 69.9732 131.583C70.4412 131.592 70.8832 131.596 71.2992 131.596C71.6632 131.596 71.9752 131.557 72.2352 131.479C72.5038 131.392 72.7292 131.236 72.9112 131.011C73.1018 130.786 73.2578 130.469 73.3792 130.062C73.5092 129.646 73.6175 129.104 73.7042 128.437C73.7908 127.822 73.8342 127.319 73.8342 126.929C73.8342 126.53 73.7822 126.223 73.6782 126.006C73.5828 125.789 73.4225 125.638 73.1972 125.551C72.9718 125.464 72.6772 125.421 72.3132 125.421C72.0445 125.421 71.7628 125.425 71.4682 125.434C71.1735 125.434 70.8832 125.434 70.5972 125.434C70.3198 125.434 70.0642 125.434 69.8302 125.434L69.0762 124.03C69.3882 124.004 69.7305 123.982 70.1032 123.965C70.4758 123.939 70.8572 123.922 71.2472 123.913C71.6372 123.904 72.0142 123.9 72.3782 123.9ZM71.0652 124.03L69.8042 133H67.8152L69.0762 124.03H71.0652ZM83.2005 123.848C84.1538 123.848 84.8558 123.991 85.3065 124.277C85.7571 124.554 85.9825 125.027 85.9825 125.694C85.9825 126.119 85.9175 126.517 85.7875 126.89C85.6661 127.263 85.4755 127.57 85.2155 127.813C84.9641 128.047 84.6478 128.186 84.2665 128.229L84.2535 128.281C84.7475 128.359 85.1071 128.537 85.3325 128.814C85.5578 129.091 85.6705 129.455 85.6705 129.906C85.6705 130.643 85.5231 131.249 85.2285 131.726C84.9338 132.203 84.5091 132.562 83.9545 132.805C83.4085 133.048 82.7411 133.173 81.9525 133.182C81.5365 133.182 81.0858 133.156 80.6005 133.104C80.1151 133.061 79.6341 133 79.1575 132.922L79.3135 131.505C79.6601 131.522 79.9678 131.54 80.2365 131.557C80.5051 131.574 80.7565 131.587 80.9905 131.596C81.2331 131.596 81.4758 131.592 81.7185 131.583C82.3685 131.557 82.8625 131.397 83.2005 131.102C83.5471 130.799 83.7205 130.361 83.7205 129.789C83.7205 129.624 83.6815 129.486 83.6035 129.373C83.5341 129.252 83.4171 129.156 83.2525 129.087C83.0878 129.018 82.8668 128.983 82.5895 128.983L80.8085 128.97L80.9775 127.683H82.7065C83.2178 127.674 83.5775 127.544 83.7855 127.293C83.9935 127.042 84.0975 126.652 84.0975 126.123C84.0975 125.863 84.0151 125.685 83.8505 125.59C83.6858 125.486 83.3608 125.434 82.8755 125.434C82.4681 125.434 82.0435 125.443 81.6015 125.46C81.1681 125.469 80.7911 125.477 80.4705 125.486L80.4445 124.082C80.9558 124.004 81.4498 123.948 81.9265 123.913C82.4118 123.87 82.8365 123.848 83.2005 123.848ZM90.6306 123.874C91.2286 123.874 91.7399 123.922 92.1646 124.017C92.5979 124.112 92.9272 124.29 93.1526 124.55C93.3866 124.801 93.5036 125.17 93.5036 125.655C93.5036 126.097 93.4299 126.504 93.2826 126.877C93.1352 127.25 92.9229 127.601 92.6456 127.93C92.3769 128.259 92.0562 128.593 91.6836 128.931L89.0186 131.388C89.2439 131.336 89.4649 131.301 89.6816 131.284C89.9069 131.267 90.1236 131.258 90.3316 131.258H93.0486L92.8146 133H86.4056L86.5616 131.895C86.5876 131.739 86.6179 131.596 86.6526 131.466C86.6959 131.336 86.7739 131.215 86.8866 131.102L89.4736 128.71C89.8202 128.389 90.1452 128.077 90.4486 127.774C90.7606 127.462 91.0119 127.159 91.2026 126.864C91.4019 126.569 91.5016 126.296 91.5016 126.045C91.5016 125.898 91.4582 125.789 91.3716 125.72C91.2936 125.651 91.1766 125.607 91.0206 125.59C90.8646 125.564 90.6739 125.551 90.4486 125.551C90.1366 125.551 89.8419 125.555 89.5646 125.564C89.2959 125.564 89.0099 125.573 88.7066 125.59C88.4032 125.607 88.0522 125.633 87.6536 125.668L87.6666 124.173C88.1172 124.086 88.5202 124.021 88.8756 123.978C89.2309 123.935 89.5516 123.909 89.8376 123.9C90.1322 123.883 90.3966 123.874 90.6306 123.874Z" fill="white"/>
</g>
<defs>
<clipPath id="clip0_19_1388">
<rect width="112" height="160" rx="6" fill="white"/>
</clipPath>
</defs>
</svg>
