<svg width="112" height="160" viewBox="0 0 112 160" fill="none" xmlns="http://www.w3.org/2000/svg">
<g clip-path="url(#clip0_24_291)">
<path d="M1 7C1 3.6863 3.68629 1 7 1H105C108.314 1 111 3.68629 111 7V152C111 155.314 108.314 158 105 158H7C3.68629 158 1 155.314 1 152V7Z" fill="#393B4E"/>
<path fill-rule="evenodd" clip-rule="evenodd" d="M7 0C3.13401 0 0 3.13401 0 7V153C0 156.866 3.13401 160 7 160H105C108.866 160 112 156.866 112 153V7C112 3.13401 108.866 0 105 0H7ZM7 1C3.68629 1 1 3.68629 1 7C1 7 1 7 1 7V152C1 152.165 1.00666 152.328 1.01973 152.49C1.2691 155.575 3.85131 158 7 158H105C108.149 158 110.731 155.575 110.98 152.49C110.993 152.328 111 152.165 111 152V7C111 3.68629 108.314 1 105 1H7Z" fill="black" fill-opacity="0.3"/>
<rect x="21.5" y="37.5" width="69" height="48" rx="5.5" fill="#BDBDBD" stroke="#333333"/>
<path d="M63 102C64.6569 102 66 101.105 66 100V99H65.5987C65.0799 98.4022 64.1104 98 63 98C61.8896 98 60.9201 98.4022 60.4013 99H60V100C60 101.105 61.3431 102 63 102Z" fill="#C03535"/>
<path d="M70 101C71.6569 101 73 100.105 73 99V98H72.5987C72.0799 97.4022 71.1104 97 70 97C68.8896 97 67.9201 97.4022 67.4013 98H67V99C67 100.105 68.3431 101 70 101Z" fill="#C03535"/>
<path d="M77 100C78.6569 100 80 99.1046 80 98V97H79.5987C79.0799 96.4022 78.1104 96 77 96C75.8896 96 74.9201 96.4022 74.4013 97H74V98C74 99.1046 75.3431 100 77 100Z" fill="#C03535"/>
<path d="M76 95C77.6569 95 79 94.1046 79 93V92H78.5987C78.0799 91.4022 77.1104 91 76 91C74.8896 91 73.9201 91.4022 73.4013 92H73V93C73 94.1046 74.3431 95 76 95Z" fill="#C03535"/>
<path d="M69 96C70.6569 96 72 95.1046 72 94V93H71.5987C71.0799 92.4022 70.1104 92 69 92C67.8896 92 66.9201 92.4022 66.4013 93H66V94C66 95.1046 67.3431 96 69 96Z" fill="#C03535"/>
<path d="M62 97C63.6569 97 65 96.1046 65 95V94H64.5987C64.0799 93.4022 63.1104 93 62 93C60.8896 93 59.9201 93.4022 59.4013 94H59V95C59 96.1046 60.3431 97 62 97Z" fill="#C03535"/>
<ellipse cx="62" cy="94" rx="3" ry="2" fill="#EB5757"/>
<ellipse cx="63" cy="99" rx="3" ry="2" fill="#EB5757"/>
<ellipse cx="70" cy="98" rx="3" ry="2" fill="#EB5757"/>
<ellipse cx="77" cy="97" rx="3" ry="2" fill="#EB5757"/>
<ellipse cx="69" cy="93" rx="3" ry="2" fill="#EB5757"/>
<ellipse cx="76" cy="92" rx="3" ry="2" fill="#EB5757"/>
<path d="M73.5 98C73.5 98.7715 73.969 99.4087 74.6013 99.8302C75.2371 100.254 76.0866 100.5 77 100.5C77.9134 100.5 78.7629 100.254 79.3987 99.8302C80.031 99.4087 80.5 98.7715 80.5 98V97C80.5 96.2285 80.031 95.5913 79.3987 95.1698C79.1387 94.9965 78.8431 94.8529 78.5219 94.7438C79.091 94.3238 79.5 93.7204 79.5 93V92C79.5 91.2285 79.031 90.5913 78.3987 90.1698C77.7629 89.7459 76.9134 89.5 76 89.5C75.0866 89.5 74.2371 89.7459 73.6013 90.1698C72.969 90.5913 72.5 91.2285 72.5 92V93M73.5 98V97C73.5 96.2796 73.909 95.6762 74.4781 95.2562C74.1569 95.1471 73.8613 95.0035 73.6013 94.8302C72.969 94.4087 72.5 93.7715 72.5 93M73.5 98C73.5 97.2285 73.031 96.5913 72.3987 96.1698C72.1387 95.9965 71.8431 95.8529 71.5219 95.7438C72.091 95.3238 72.5 94.7204 72.5 94V93M73.5 98V99C73.5 99.7715 73.031 100.409 72.3987 100.83C71.7629 101.254 70.9134 101.5 70 101.5C69.0866 101.5 68.2371 101.254 67.6013 100.83C66.969 100.409 66.5 99.7715 66.5 99M72.5 93C72.5 92.2285 72.031 91.5913 71.3987 91.1698C70.7629 90.7459 69.9134 90.5 69 90.5C68.0866 90.5 67.2371 90.7459 66.6013 91.1698C65.969 91.5913 65.5 92.2285 65.5 93V94M66.5 99V98C66.5 97.2796 66.909 96.6762 67.4781 96.2562C67.1569 96.1471 66.8613 96.0035 66.6013 95.8302C65.969 95.4087 65.5 94.7715 65.5 94M66.5 99C66.5 98.2285 66.031 97.5913 65.3987 97.1698C65.1387 96.9965 64.8431 96.8529 64.5219 96.7438C65.091 96.3238 65.5 95.7204 65.5 95V94M66.5 99V100C66.5 100.771 66.031 101.409 65.3987 101.83C64.7629 102.254 63.9134 102.5 63 102.5C62.0866 102.5 61.2371 102.254 60.6013 101.83C59.969 101.409 59.5 100.771 59.5 100V99C59.5 98.2796 59.909 97.6762 60.4781 97.2562C60.1569 97.1471 59.8613 97.0035 59.6013 96.8302C58.969 96.4087 58.5 95.7715 58.5 95V94C58.5 93.2285 58.969 92.5913 59.6013 92.1698C60.2371 91.7459 61.0866 91.5 62 91.5C62.9134 91.5 63.7629 91.7459 64.3987 92.1698C65.031 92.5913 65.5 93.2285 65.5 94" stroke="#333333"/>
<rect x="23" y="39" width="66" height="1" fill="#333333" fill-opacity="0.3"/>
<rect x="22" y="41" width="68" height="1" fill="#333333" fill-opacity="0.3"/>
<rect x="22" y="43" width="68" height="1" fill="#333333" fill-opacity="0.3"/>
<rect x="22" y="45" width="68" height="1" fill="#333333" fill-opacity="0.3"/>
<rect x="22" y="47" width="68" height="1" fill="#333333" fill-opacity="0.3"/>
<rect x="22" y="49" width="68" height="1" fill="#333333" fill-opacity="0.3"/>
<rect x="22" y="51" width="68" height="1" fill="#333333" fill-opacity="0.3"/>
<rect x="22" y="53" width="68" height="1" fill="#333333" fill-opacity="0.3"/>
<rect x="22" y="55" width="68" height="1" fill="#333333" fill-opacity="0.3"/>
<rect x="22" y="57" width="68" height="1" fill="#333333" fill-opacity="0.3"/>
<rect x="22" y="59" width="68" height="1" fill="#333333" fill-opacity="0.3"/>
<rect x="22" y="61" width="68" height="1" fill="#333333" fill-opacity="0.3"/>
<rect x="22" y="63" width="68" height="1" fill="#333333" fill-opacity="0.3"/>
<rect x="22" y="65" width="68" height="1" fill="#333333" fill-opacity="0.3"/>
<rect x="22" y="67" width="68" height="1" fill="#333333" fill-opacity="0.3"/>
<rect x="22" y="69" width="68" height="1" fill="#333333" fill-opacity="0.3"/>
<rect x="22" y="71" width="68" height="1" fill="#333333" fill-opacity="0.3"/>
<rect x="22" y="73" width="68" height="1" fill="#333333" fill-opacity="0.3"/>
<rect x="22" y="75" width="68" height="1" fill="#333333" fill-opacity="0.3"/>
<rect x="22" y="77" width="68" height="1" fill="#333333" fill-opacity="0.3"/>
<rect x="22" y="79" width="68" height="1" fill="#333333" fill-opacity="0.3"/>
<rect x="22" y="81" width="68" height="1" fill="#333333" fill-opacity="0.3"/>
<rect x="23" y="83" width="66" height="1" fill="#333333" fill-opacity="0.3"/>
<ellipse cx="37" cy="99.5" rx="5" ry="2.5" fill="#4F4F4F"/>
<ellipse cx="37" cy="99" rx="2" ry="1" fill="#333333"/>
<rect x="36" y="91" width="2" height="8" fill="#BDBDBD"/>
<rect x="36" y="91" width="2" height="2" fill="#828282"/>
<circle cx="37" cy="87" r="5" fill="#C03535"/>
<path d="M42 86C42 88.7614 39.7614 91 37 91C34.2386 91 32 88.7614 32 86C32 83.2386 34.2386 81 37 81C39.7614 81 42 83.2386 42 86Z" fill="#EB5757"/>
<circle cx="36" cy="84" r="1" fill="#F08484"/>
<path d="M38.5 92.2928C40.8085 91.6398 42.5 89.5179 42.5 87C42.5 83.9624 40.0376 81.5 37 81.5C33.9624 81.5 31.5 83.9624 31.5 87C31.5 89.5179 33.1915 91.6398 35.5 92.2928V96.6087C34.4861 96.7593 33.5781 97.0614 32.8854 97.4805C32.1071 97.9513 31.5 98.6389 31.5 99.5C31.5 100.482 32.2829 101.236 33.2409 101.715C34.2287 102.209 35.5585 102.5 37 102.5C38.4415 102.5 39.7713 102.209 40.7591 101.715C41.7171 101.236 42.5 100.482 42.5 99.5C42.5 98.6389 41.8929 97.9513 41.1146 97.4805C40.4219 97.0614 39.5139 96.7593 38.5 96.6087V92.2928Z" stroke="#333333"/>
<path d="M40.2429 124.03C40.4075 124.03 40.5505 124.086 40.6719 124.199C40.7932 124.303 40.8625 124.433 40.8799 124.589L42.2969 133H40.3079L39.4369 126.396C39.4195 126.24 39.4065 126.088 39.3979 125.941C39.3892 125.794 39.3849 125.651 39.3849 125.512H39.0079C38.9645 125.633 38.9169 125.772 38.8649 125.928C38.8215 126.084 38.7695 126.236 38.7089 126.383L35.9399 133H33.8599L37.6429 124.524C37.7035 124.359 37.7945 124.238 37.9159 124.16C38.0459 124.073 38.1932 124.03 38.3579 124.03H40.2429ZM40.9319 129.126L40.7499 130.66H36.1219L36.3039 129.126H40.9319ZM45.4613 126.578L45.4743 128.112L45.6433 128.294L44.9933 133H43.0693L43.9663 126.578H45.4613ZM48.6073 126.409L48.1913 128.19H47.7233C47.4199 128.19 47.0906 128.259 46.7353 128.398C46.3886 128.528 45.9509 128.727 45.4223 128.996L45.3443 127.865C45.8556 127.388 46.3539 127.029 46.8393 126.786C47.3246 126.535 47.7839 126.409 48.2173 126.409H48.6073ZM52.2589 126.409C52.6663 126.409 53.0996 126.444 53.5589 126.513C54.0183 126.574 54.4213 126.678 54.7679 126.825L54.4949 128.008C54.1136 127.991 53.7496 127.982 53.4029 127.982C53.0563 127.973 52.7616 127.969 52.5189 127.969C52.1376 127.969 51.8256 128.021 51.5829 128.125C51.3403 128.229 51.1539 128.415 51.0239 128.684C50.8939 128.944 50.7986 129.312 50.7379 129.789C50.6686 130.292 50.6599 130.673 50.7119 130.933C50.7639 131.193 50.8896 131.371 51.0889 131.466C51.2969 131.561 51.5873 131.609 51.9599 131.609C52.1159 131.609 52.3023 131.605 52.5189 131.596C52.7443 131.587 52.9869 131.579 53.2469 131.57C53.5069 131.553 53.7583 131.527 54.0009 131.492L54.1309 132.74C53.7583 132.887 53.3466 132.991 52.8959 133.052C52.4539 133.121 52.0293 133.156 51.6219 133.156C50.8679 133.156 50.2569 133.043 49.7889 132.818C49.3209 132.584 48.9959 132.216 48.8139 131.713C48.6406 131.202 48.6103 130.534 48.7229 129.711C48.8443 128.914 49.0306 128.277 49.2819 127.8C49.5419 127.315 49.9103 126.964 50.3869 126.747C50.8723 126.522 51.4963 126.409 52.2589 126.409ZM59.0567 126.409C59.2821 126.409 59.5334 126.422 59.8107 126.448C60.0967 126.465 60.3827 126.491 60.6687 126.526C60.9634 126.561 61.2364 126.6 61.4877 126.643C61.7477 126.686 61.9601 126.73 62.1247 126.773L60.8117 127.813C60.4651 127.796 60.1487 127.787 59.8627 127.787C59.5767 127.778 59.3081 127.774 59.0567 127.774C58.7707 127.774 58.5281 127.796 58.3287 127.839C58.1294 127.882 57.9647 127.969 57.8347 128.099C57.7047 128.22 57.5964 128.407 57.5097 128.658C57.4231 128.909 57.3494 129.247 57.2887 129.672C57.2107 130.209 57.1674 130.621 57.1587 130.907C57.1587 131.184 57.2107 131.375 57.3147 131.479C57.4187 131.583 57.5834 131.631 57.8087 131.622C58.0427 131.613 58.2854 131.535 58.5367 131.388C58.7967 131.241 59.0524 131.041 59.3037 130.79C59.5551 130.53 59.7977 130.24 60.0317 129.919L60.3697 130.543C60.1964 131.054 59.9494 131.505 59.6287 131.895C59.3167 132.276 58.9484 132.575 58.5237 132.792C58.0991 133.009 57.6267 133.13 57.1067 133.156C56.5434 133.182 56.1101 133.069 55.8067 132.818C55.5121 132.567 55.3301 132.177 55.2607 131.648C55.1914 131.119 55.2174 130.456 55.3387 129.659C55.4514 128.922 55.6074 128.337 55.8067 127.904C56.0147 127.462 56.2747 127.137 56.5867 126.929C56.8987 126.712 57.2584 126.574 57.6657 126.513C58.0817 126.444 58.5454 126.409 59.0567 126.409ZM60.2267 126.656L62.1247 126.773L61.2537 133H59.7587L59.7847 131.544L59.5507 131.388L60.2267 126.656ZM65.9308 126.409C66.5201 126.409 67.0964 126.448 67.6598 126.526C68.2231 126.604 68.6868 126.725 69.0508 126.89L68.7778 127.722C68.3878 127.713 68.0324 127.709 67.7118 127.709C67.3911 127.7 67.0661 127.696 66.7368 127.696C66.4334 127.696 66.1778 127.722 65.9698 127.774C65.7704 127.817 65.6101 127.908 65.4888 128.047C65.3674 128.177 65.2678 128.372 65.1898 128.632C65.1118 128.892 65.0424 129.239 64.9818 129.672C64.9211 130.131 64.8908 130.5 64.8908 130.777C64.8908 131.046 64.9384 131.241 65.0338 131.362C65.1291 131.483 65.2894 131.544 65.5148 131.544C65.8874 131.535 66.2384 131.423 66.5678 131.206C66.9058 130.989 67.2698 130.699 67.6598 130.335L68.0108 131.167C67.8808 131.34 67.7074 131.54 67.4908 131.765C67.2828 131.99 67.0358 132.211 66.7498 132.428C66.4724 132.636 66.1691 132.809 65.8398 132.948C65.5104 133.087 65.1594 133.156 64.7868 133.156C64.3014 133.156 63.9071 133.039 63.6038 132.805C63.3091 132.562 63.1098 132.185 63.0058 131.674C62.9104 131.154 62.9191 130.482 63.0318 129.659C63.1271 128.983 63.2571 128.433 63.4218 128.008C63.5951 127.575 63.8031 127.245 64.0458 127.02C64.2971 126.786 64.5788 126.626 64.8908 126.539C65.2028 126.452 65.5494 126.409 65.9308 126.409ZM70.2468 123.9L68.9728 133H67.4518V131.414L67.2828 131.297L67.8808 126.851L67.9978 126.643C67.9978 126.418 68.0064 126.197 68.0238 125.98C68.0411 125.763 68.0671 125.534 68.1018 125.291L68.3228 123.9H70.2468ZM74.4422 126.409C75.2309 126.409 75.8376 126.496 76.2622 126.669C76.6956 126.834 76.9859 127.085 77.1332 127.423C77.2806 127.752 77.3152 128.16 77.2372 128.645C77.1766 129.044 77.0422 129.36 76.8342 129.594C76.6349 129.819 76.3576 129.988 76.0022 130.101C75.6469 130.214 75.1962 130.292 74.6502 130.335L71.3742 130.608L71.5172 129.542L74.2732 129.269C74.5072 129.243 74.6979 129.208 74.8452 129.165C75.0012 129.113 75.1226 129.035 75.2092 128.931C75.2959 128.818 75.3522 128.662 75.3782 128.463C75.4129 128.255 75.3999 128.099 75.3392 127.995C75.2786 127.891 75.1702 127.826 75.0142 127.8C74.8582 127.765 74.6502 127.752 74.3902 127.761C74.1216 127.761 73.8962 127.787 73.7142 127.839C73.5322 127.891 73.3806 127.986 73.2592 128.125C73.1379 128.255 73.0382 128.446 72.9602 128.697C72.8822 128.94 72.8086 129.256 72.7392 129.646C72.6526 130.209 72.6396 130.634 72.7002 130.92C72.7609 131.206 72.8952 131.397 73.1032 131.492C73.3112 131.587 73.6016 131.635 73.9742 131.635C74.1822 131.635 74.4336 131.631 74.7282 131.622C75.0229 131.605 75.3219 131.587 75.6252 131.57C75.9372 131.544 76.2189 131.518 76.4702 131.492L76.6002 132.688C76.3402 132.801 76.0456 132.892 75.7162 132.961C75.3869 133.03 75.0532 133.078 74.7152 133.104C74.3772 133.139 74.0609 133.156 73.7662 133.156C72.9082 133.156 72.2409 133.026 71.7642 132.766C71.2962 132.506 70.9842 132.12 70.8282 131.609C70.6722 131.089 70.6376 130.452 70.7242 129.698C70.8022 129.031 70.9322 128.485 71.1142 128.06C71.3049 127.635 71.5476 127.306 71.8422 127.072C72.1456 126.829 72.5139 126.66 72.9472 126.565C73.3806 126.461 73.8789 126.409 74.4422 126.409Z" fill="white"/>
</g>
<defs>
<clipPath id="clip0_24_291">
<rect width="112" height="160" rx="6" fill="white"/>
</clipPath>
</defs>
</svg>
