<svg width="112" height="160" viewBox="0 0 112 160" fill="none" xmlns="http://www.w3.org/2000/svg">
<g clip-path="url(#clip0_1_367)">
<path d="M1 7C1 3.6863 3.68629 1 7 1H105C108.314 1 111 3.68629 111 7V152C111 155.314 108.314 158 105 158H7C3.68629 158 1 155.314 1 152V7Z" fill="#393B4E"/>
<path fill-rule="evenodd" clip-rule="evenodd" d="M7 0C3.13401 0 0 3.13401 0 7V153C0 156.866 3.13401 160 7 160H105C108.866 160 112 156.866 112 153V7C112 3.13401 108.866 0 105 0H7ZM7 1C3.68629 1 1 3.68629 1 7C1 7 1 7 1 7V152C1 152.165 1.00666 152.328 1.01973 152.49C1.2691 155.575 3.85131 158 7 158H105C108.149 158 110.731 155.575 110.98 152.49C110.993 152.328 111 152.165 111 152V7C111 3.68629 108.314 1 105 1H7Z" fill="black" fill-opacity="0.3"/>
<path d="M44 43C44 42.4477 44.4477 42 45 42H67C67.5523 42 68 42.4477 68 43V71.5L67.0317 101.033C67.014 101.572 66.5718 102 66.0322 102H45.9672C45.4279 102 44.9857 101.572 44.9678 101.033L44 72V43Z" fill="#4F4F4F"/>
<rect x="44" y="70" width="24" height="4" fill="#BDBDBD"/>
<rect x="53" y="77" width="6" height="4" rx="0.5" fill="#828282"/>
<rect x="53" y="44" width="6" height="4" fill="#333333"/>
<rect x="53" y="83" width="6" height="4" rx="0.5" fill="#828282"/>
<rect x="53" y="89" width="6" height="4" rx="0.5" fill="#828282"/>
<rect x="53" y="95" width="6" height="4" rx="0.5" fill="#828282"/>
<rect x="46" y="77" width="6" height="4" rx="0.5" fill="#828282"/>
<rect x="46" y="44" width="6" height="4" fill="#333333"/>
<rect x="46" y="83" width="6" height="4" rx="0.5" fill="#828282"/>
<rect x="46" y="89" width="6" height="4" rx="0.5" fill="#828282"/>
<rect x="46" y="95" width="6" height="4" rx="0.5" fill="#828282"/>
<rect x="60" y="77" width="6" height="4" rx="0.5" fill="#828282"/>
<rect x="60" y="44" width="6" height="4" fill="#333333"/>
<rect x="60" y="83" width="6" height="4" rx="0.5" fill="#828282"/>
<rect x="60" y="89" width="6" height="4" rx="0.5" fill="#828282"/>
<rect x="60" y="95" width="6" height="4" rx="0.5" fill="#828282"/>
<circle cx="56" cy="59" r="7.5" fill="#4F4F4F" stroke="#333333"/>
<circle cx="56" cy="59" r="5" fill="#333333"/>
<rect x="42" y="50" width="2" height="8" fill="#EB5757"/>
<rect x="68" y="50" width="2" height="8" fill="#EB5757"/>
<path d="M69.4992 71.5492L69.5 71.5246V71.5V59.5H69.75C70.7165 59.5 71.5 58.7165 71.5 57.75V50.25C71.5 49.2835 70.7165 48.5 69.75 48.5H69.5V43C69.5 41.6193 68.3807 40.5 67 40.5H45C43.6193 40.5 42.5 41.6193 42.5 43V48.5H42.25C41.2835 48.5 40.5 49.2835 40.5 50.25V57.75C40.5 58.7165 41.2835 59.5 42.25 59.5H42.5V72V72.025L42.5008 72.05L43.4686 101.083C43.5135 102.431 44.6189 103.5 45.9672 103.5H66.0322C67.3811 103.5 68.4867 102.43 68.5309 101.082L69.4992 71.5492Z" stroke="white" stroke-opacity="0.3" stroke-width="3"/>
<path d="M68.4997 71.5164L68.5 71.5082V71.5V58.5H69.75C70.1642 58.5 70.5 58.1642 70.5 57.75V50.25C70.5 49.8358 70.1642 49.5 69.75 49.5H68.5V43C68.5 42.1716 67.8284 41.5 67 41.5H45C44.1716 41.5 43.5 42.1716 43.5 43V49.5H42.25C41.8358 49.5 41.5 49.8358 41.5 50.25V57.75C41.5 58.1642 41.8358 58.5 42.25 58.5H43.5V72V72.0083L43.5003 72.0167L44.4681 101.05C44.495 101.858 45.1582 102.5 45.9672 102.5H66.0322C66.8415 102.5 67.5049 101.858 67.5314 101.049L68.4997 71.5164Z" stroke="#333333"/>
<path d="M29.8264 124.03C29.991 124.03 30.134 124.086 30.2554 124.199C30.3767 124.303 30.446 124.433 30.4634 124.589L31.8804 133H29.8914L29.0204 126.396C29.003 126.24 28.99 126.088 28.9814 125.941C28.9727 125.794 28.9684 125.651 28.9684 125.512H28.5914C28.548 125.633 28.5004 125.772 28.4484 125.928C28.405 126.084 28.353 126.236 28.2924 126.383L25.5234 133H23.4434L27.2264 124.524C27.287 124.359 27.378 124.238 27.4994 124.16C27.6294 124.073 27.7767 124.03 27.9414 124.03H29.8264ZM30.5154 129.126L30.3334 130.66H25.7054L25.8874 129.126H30.5154ZM36.1026 124.797L35.2186 130.985C35.184 131.219 35.2056 131.379 35.2836 131.466C35.3616 131.553 35.5263 131.596 35.7776 131.596H36.6486L36.7396 132.909C36.575 132.961 36.3756 133.004 36.1416 133.039C35.9163 133.082 35.6953 133.113 35.4786 133.13C35.262 133.147 35.0843 133.156 34.9456 133.156C34.3476 133.156 33.8926 132.996 33.5806 132.675C33.2773 132.346 33.169 131.904 33.2556 131.349L34.2046 124.797H36.1026ZM37.6366 126.578L37.4546 127.839H32.6186L32.7746 126.643L34.0226 126.578H37.6366ZM41.7213 126.409C41.9466 126.409 42.1979 126.422 42.4753 126.448C42.7613 126.465 43.0473 126.491 43.3333 126.526C43.6279 126.561 43.9009 126.6 44.1523 126.643C44.4123 126.686 44.6246 126.73 44.7893 126.773L43.4763 127.813C43.1296 127.796 42.8133 127.787 42.5273 127.787C42.2413 127.778 41.9726 127.774 41.7213 127.774C41.4353 127.774 41.1926 127.796 40.9933 127.839C40.7939 127.882 40.6293 127.969 40.4993 128.099C40.3693 128.22 40.2609 128.407 40.1743 128.658C40.0876 128.909 40.0139 129.247 39.9533 129.672C39.8753 130.209 39.8319 130.621 39.8233 130.907C39.8233 131.184 39.8753 131.375 39.9793 131.479C40.0833 131.583 40.2479 131.631 40.4733 131.622C40.7073 131.613 40.9499 131.535 41.2013 131.388C41.4613 131.241 41.7169 131.041 41.9683 130.79C42.2196 130.53 42.4623 130.24 42.6963 129.919L43.0343 130.543C42.8609 131.054 42.6139 131.505 42.2933 131.895C41.9813 132.276 41.6129 132.575 41.1883 132.792C40.7636 133.009 40.2913 133.13 39.7713 133.156C39.2079 133.182 38.7746 133.069 38.4713 132.818C38.1766 132.567 37.9946 132.177 37.9253 131.648C37.8559 131.119 37.8819 130.456 38.0033 129.659C38.1159 128.922 38.2719 128.337 38.4713 127.904C38.6793 127.462 38.9393 127.137 39.2513 126.929C39.5633 126.712 39.9229 126.574 40.3303 126.513C40.7463 126.444 41.2099 126.409 41.7213 126.409ZM42.8913 126.656L44.7893 126.773L43.9183 133H42.4233L42.4493 131.544L42.2153 131.388L42.8913 126.656ZM47.8543 126.578L47.8673 128.112L48.0363 128.294L47.3863 133H45.4623L46.3593 126.578H47.8543ZM51.0003 126.409L50.5843 128.19H50.1163C49.813 128.19 49.4837 128.259 49.1283 128.398C48.7817 128.528 48.344 128.727 47.8153 128.996L47.7373 127.865C48.2487 127.388 48.747 127.029 49.2323 126.786C49.7177 126.535 50.177 126.409 50.6103 126.409H51.0003ZM53.8448 126.578L52.9478 133H51.0368L51.9338 126.578H53.8448ZM53.6498 123.744C53.8578 123.744 54.0051 123.796 54.0918 123.9C54.1871 124.004 54.2218 124.16 54.1958 124.368L54.1048 125.057C54.0528 125.421 53.8405 125.603 53.4678 125.603H52.6878C52.2718 125.603 52.0855 125.395 52.1288 124.979L52.2328 124.29C52.2675 123.926 52.4755 123.744 52.8568 123.744H53.6498ZM64.1435 124.03L63.8575 125.525H60.2565L59.9055 127.254L60.9065 127.358C61.5479 127.427 62.0635 127.566 62.4535 127.774C62.8522 127.973 63.1425 128.233 63.3245 128.554C63.5065 128.875 63.5975 129.247 63.5975 129.672C63.5975 130.738 63.2812 131.57 62.6485 132.168C62.0159 132.766 61.1319 133.095 59.9965 133.156C59.5719 133.182 59.1169 133.165 58.6315 133.104C58.1549 133.052 57.6652 132.978 57.1625 132.883L57.4355 131.362C57.8515 131.431 58.2415 131.479 58.6055 131.505C58.9782 131.531 59.3162 131.535 59.6195 131.518C60.2349 131.483 60.7245 131.332 61.0885 131.063C61.4525 130.786 61.6345 130.348 61.6345 129.75C61.6345 129.525 61.5739 129.351 61.4525 129.23C61.3399 129.1 61.1535 129.009 60.8935 128.957C60.6422 128.896 60.3085 128.853 59.8925 128.827L58.7355 128.684C58.5275 128.649 58.3629 128.558 58.2415 128.411C58.1202 128.255 58.0812 128.073 58.1245 127.865L58.8785 124.03H64.1435ZM68.4582 123.874C69.0562 123.874 69.5675 123.922 69.9922 124.017C70.4255 124.112 70.7549 124.29 70.9802 124.55C71.2142 124.801 71.3312 125.17 71.3312 125.655C71.3312 126.097 71.2575 126.504 71.1102 126.877C70.9629 127.25 70.7505 127.601 70.4732 127.93C70.2045 128.259 69.8839 128.593 69.5112 128.931L66.8462 131.388C67.0715 131.336 67.2925 131.301 67.5092 131.284C67.7345 131.267 67.9512 131.258 68.1592 131.258H70.8762L70.6422 133H64.2332L64.3892 131.895C64.4152 131.739 64.4455 131.596 64.4802 131.466C64.5235 131.336 64.6015 131.215 64.7142 131.102L67.3012 128.71C67.6479 128.389 67.9729 128.077 68.2762 127.774C68.5882 127.462 68.8395 127.159 69.0302 126.864C69.2295 126.569 69.3292 126.296 69.3292 126.045C69.3292 125.898 69.2859 125.789 69.1992 125.72C69.1212 125.651 69.0042 125.607 68.8482 125.59C68.6922 125.564 68.5015 125.551 68.2762 125.551C67.9642 125.551 67.6695 125.555 67.3922 125.564C67.1235 125.564 66.8375 125.573 66.5342 125.59C66.2309 125.607 65.8799 125.633 65.4812 125.668L65.4942 124.173C65.9449 124.086 66.3479 124.021 66.7032 123.978C67.0585 123.935 67.3792 123.909 67.6652 123.9C67.9599 123.883 68.2242 123.874 68.4582 123.874ZM75.3771 133.169C74.7271 133.169 74.1681 133.078 73.7001 132.896C73.2407 132.705 72.8897 132.398 72.6471 131.973C72.4044 131.54 72.2874 130.963 72.2961 130.244C72.2961 129.594 72.3264 128.957 72.3871 128.333C72.4564 127.709 72.5734 127.128 72.7381 126.591C72.9027 126.045 73.1367 125.568 73.4401 125.161C73.7434 124.754 74.1291 124.437 74.5971 124.212C75.0737 123.978 75.6587 123.861 76.3521 123.861C77.0194 123.861 77.5784 123.956 78.0291 124.147C78.4884 124.329 78.8351 124.632 79.0691 125.057C79.3117 125.482 79.4331 126.049 79.4331 126.76C79.4331 127.41 79.4027 128.051 79.3421 128.684C79.2901 129.308 79.1817 129.893 79.0171 130.439C78.8524 130.976 78.6184 131.453 78.3151 131.869C78.0117 132.276 77.6217 132.597 77.1451 132.831C76.6684 133.056 76.0791 133.169 75.3771 133.169ZM75.5331 131.622C75.8884 131.622 76.1831 131.531 76.4171 131.349C76.6511 131.167 76.8417 130.92 76.9891 130.608C77.1364 130.296 77.2447 129.941 77.3141 129.542C77.3834 129.135 77.4311 128.71 77.4571 128.268C77.4831 127.817 77.5004 127.375 77.5091 126.942C77.5177 126.387 77.4094 125.993 77.1841 125.759C76.9674 125.525 76.6294 125.408 76.1701 125.408C75.8234 125.408 75.5331 125.499 75.2991 125.681C75.0737 125.863 74.8874 126.114 74.7401 126.435C74.6014 126.747 74.4974 127.102 74.4281 127.501C74.3587 127.9 74.3067 128.324 74.2721 128.775C74.2461 129.226 74.2287 129.668 74.2201 130.101C74.2201 130.647 74.3241 131.037 74.5321 131.271C74.7487 131.505 75.0824 131.622 75.5331 131.622ZM83.5528 133.169C82.9028 133.169 82.3438 133.078 81.8758 132.896C81.4165 132.705 81.0655 132.398 80.8228 131.973C80.5802 131.54 80.4632 130.963 80.4718 130.244C80.4718 129.594 80.5022 128.957 80.5628 128.333C80.6322 127.709 80.7492 127.128 80.9138 126.591C81.0785 126.045 81.3125 125.568 81.6158 125.161C81.9192 124.754 82.3048 124.437 82.7728 124.212C83.2495 123.978 83.8345 123.861 84.5278 123.861C85.1952 123.861 85.7542 123.956 86.2048 124.147C86.6642 124.329 87.0108 124.632 87.2448 125.057C87.4875 125.482 87.6088 126.049 87.6088 126.76C87.6088 127.41 87.5785 128.051 87.5178 128.684C87.4658 129.308 87.3575 129.893 87.1928 130.439C87.0282 130.976 86.7942 131.453 86.4908 131.869C86.1875 132.276 85.7975 132.597 85.3208 132.831C84.8442 133.056 84.2548 133.169 83.5528 133.169ZM83.7088 131.622C84.0642 131.622 84.3588 131.531 84.5928 131.349C84.8268 131.167 85.0175 130.92 85.1648 130.608C85.3122 130.296 85.4205 129.941 85.4898 129.542C85.5592 129.135 85.6068 128.71 85.6328 128.268C85.6588 127.817 85.6762 127.375 85.6848 126.942C85.6935 126.387 85.5852 125.993 85.3598 125.759C85.1432 125.525 84.8052 125.408 84.3458 125.408C83.9992 125.408 83.7088 125.499 83.4748 125.681C83.2495 125.863 83.0632 126.114 82.9158 126.435C82.7772 126.747 82.6732 127.102 82.6038 127.501C82.5345 127.9 82.4825 128.324 82.4478 128.775C82.4218 129.226 82.4045 129.668 82.3958 130.101C82.3958 130.647 82.4998 131.037 82.7078 131.271C82.9245 131.505 83.2582 131.622 83.7088 131.622Z" fill="white"/>
</g>
<defs>
<clipPath id="clip0_1_367">
<rect width="112" height="160" rx="6" fill="white"/>
</clipPath>
</defs>
</svg>
