<svg width="112" height="160" viewBox="0 0 112 160" fill="none" xmlns="http://www.w3.org/2000/svg">
<g clip-path="url(#clip0_1_374)">
<path d="M1 7C1 3.6863 3.68629 1 7 1H105C108.314 1 111 3.68629 111 7V152C111 155.314 108.314 158 105 158H7C3.68629 158 1 155.314 1 152V7Z" fill="#393B4E"/>
<path fill-rule="evenodd" clip-rule="evenodd" d="M7 0C3.13401 0 0 3.13401 0 7V153C0 156.866 3.13401 160 7 160H105C108.866 160 112 156.866 112 153V7C112 3.13401 108.866 0 105 0H7ZM7 1C3.68629 1 1 3.68629 1 7C1 7 1 7 1 7V152C1 152.165 1.00666 152.328 1.01973 152.49C1.2691 155.575 3.85131 158 7 158H105C108.149 158 110.731 155.575 110.98 152.49C110.993 152.328 111 152.165 111 152V7C111 3.68629 108.314 1 105 1H7Z" fill="black" fill-opacity="0.3"/>
<path d="M29.6359 124.03C29.8006 124.03 29.9436 124.086 30.0649 124.199C30.1863 124.303 30.2556 124.433 30.2729 124.589L31.6899 133H29.7009L28.8299 126.396C28.8126 126.24 28.7996 126.088 28.7909 125.941C28.7823 125.794 28.7779 125.651 28.7779 125.512H28.4009C28.3576 125.633 28.3099 125.772 28.2579 125.928C28.2146 126.084 28.1626 126.236 28.1019 126.383L25.3329 133H23.2529L27.0359 124.524C27.0966 124.359 27.1876 124.238 27.3089 124.16C27.4389 124.073 27.5863 124.03 27.7509 124.03H29.6359ZM30.3249 129.126L30.1429 130.66H25.5149L25.6969 129.126H30.3249ZM35.9122 124.797L35.0282 130.985C34.9935 131.219 35.0152 131.379 35.0932 131.466C35.1712 131.553 35.3359 131.596 35.5872 131.596H36.4582L36.5492 132.909C36.3845 132.961 36.1852 133.004 35.9512 133.039C35.7259 133.082 35.5049 133.113 35.2882 133.13C35.0715 133.147 34.8939 133.156 34.7552 133.156C34.1572 133.156 33.7022 132.996 33.3902 132.675C33.0869 132.346 32.9785 131.904 33.0652 131.349L34.0142 124.797H35.9122ZM37.4462 126.578L37.2642 127.839H32.4282L32.5842 126.643L33.8322 126.578H37.4462ZM41.5308 126.409C41.7562 126.409 42.0075 126.422 42.2848 126.448C42.5708 126.465 42.8568 126.491 43.1428 126.526C43.4375 126.561 43.7105 126.6 43.9618 126.643C44.2218 126.686 44.4342 126.73 44.5988 126.773L43.2858 127.813C42.9392 127.796 42.6228 127.787 42.3368 127.787C42.0508 127.778 41.7822 127.774 41.5308 127.774C41.2448 127.774 41.0022 127.796 40.8028 127.839C40.6035 127.882 40.4388 127.969 40.3088 128.099C40.1788 128.22 40.0705 128.407 39.9838 128.658C39.8972 128.909 39.8235 129.247 39.7628 129.672C39.6848 130.209 39.6415 130.621 39.6328 130.907C39.6328 131.184 39.6848 131.375 39.7888 131.479C39.8928 131.583 40.0575 131.631 40.2828 131.622C40.5168 131.613 40.7595 131.535 41.0108 131.388C41.2708 131.241 41.5265 131.041 41.7778 130.79C42.0292 130.53 42.2718 130.24 42.5058 129.919L42.8438 130.543C42.6705 131.054 42.4235 131.505 42.1028 131.895C41.7908 132.276 41.4225 132.575 40.9978 132.792C40.5732 133.009 40.1008 133.13 39.5808 133.156C39.0175 133.182 38.5842 133.069 38.2808 132.818C37.9862 132.567 37.8042 132.177 37.7348 131.648C37.6655 131.119 37.6915 130.456 37.8128 129.659C37.9255 128.922 38.0815 128.337 38.2808 127.904C38.4888 127.462 38.7488 127.137 39.0608 126.929C39.3728 126.712 39.7325 126.574 40.1398 126.513C40.5558 126.444 41.0195 126.409 41.5308 126.409ZM42.7008 126.656L44.5988 126.773L43.7278 133H42.2328L42.2588 131.544L42.0248 131.388L42.7008 126.656ZM47.6639 126.578L47.6769 128.112L47.8459 128.294L47.1959 133H45.2719L46.1689 126.578H47.6639ZM50.8099 126.409L50.3939 128.19H49.9259C49.6226 128.19 49.2932 128.259 48.9379 128.398C48.5912 128.528 48.1536 128.727 47.6249 128.996L47.5469 127.865C48.0582 127.388 48.5566 127.029 49.0419 126.786C49.5272 126.535 49.9866 126.409 50.4199 126.409H50.8099ZM53.6544 126.578L52.7574 133H50.8464L51.7434 126.578H53.6544ZM53.4594 123.744C53.6674 123.744 53.8147 123.796 53.9014 123.9C53.9967 124.004 54.0314 124.16 54.0054 124.368L53.9144 125.057C53.8624 125.421 53.65 125.603 53.2774 125.603H52.4974C52.0814 125.603 51.895 125.395 51.9384 124.979L52.0424 124.29C52.077 123.926 52.285 123.744 52.6664 123.744H53.4594ZM63.3421 124.03C63.7321 124.03 63.9878 124.13 64.1091 124.329C64.2304 124.528 64.2174 124.793 64.0701 125.122L60.1961 133H58.2331L61.4441 126.448C61.5134 126.309 61.5914 126.171 61.6781 126.032C61.7648 125.893 61.8644 125.755 61.9771 125.616L57.8301 125.629L57.9471 124.03H63.3421ZM68.429 123.874C69.2783 123.874 69.9283 123.965 70.379 124.147C70.8296 124.329 71.1243 124.602 71.263 124.966C71.4103 125.33 71.4406 125.789 71.354 126.344C71.3106 126.682 71.224 126.994 71.094 127.28C70.9726 127.566 70.7993 127.8 70.574 127.982C70.3573 128.164 70.0713 128.277 69.716 128.32L69.69 128.372C70.106 128.415 70.4136 128.554 70.613 128.788C70.8123 129.013 70.9336 129.304 70.977 129.659C71.0203 130.014 71.0073 130.409 70.938 130.842C70.8686 131.388 70.7213 131.834 70.496 132.181C70.2793 132.519 69.9283 132.766 69.443 132.922C68.9663 133.078 68.3033 133.16 67.454 133.169C66.57 133.169 65.881 133.078 65.387 132.896C64.9016 132.714 64.5723 132.441 64.399 132.077C64.2256 131.704 64.1736 131.241 64.243 130.686C64.3036 130.279 64.399 129.906 64.529 129.568C64.6676 129.221 64.867 128.944 65.127 128.736C65.387 128.519 65.7293 128.394 66.154 128.359L66.167 128.307C65.699 128.238 65.3826 128.012 65.218 127.631C65.062 127.25 65.023 126.769 65.101 126.188C65.1703 125.651 65.3133 125.213 65.53 124.875C65.7466 124.528 66.0846 124.273 66.544 124.108C67.0033 123.943 67.6316 123.865 68.429 123.874ZM67.844 129.009C67.558 129.009 67.3153 129.026 67.116 129.061C66.9166 129.096 66.752 129.165 66.622 129.269C66.5006 129.364 66.401 129.507 66.323 129.698C66.2536 129.88 66.1973 130.131 66.154 130.452C66.1193 130.764 66.128 131.011 66.18 131.193C66.232 131.375 66.362 131.505 66.57 131.583C66.778 131.652 67.09 131.687 67.506 131.687C67.8786 131.687 68.1776 131.648 68.403 131.57C68.6283 131.492 68.793 131.353 68.897 131.154C69.0096 130.955 69.092 130.673 69.144 130.309C69.1786 130.032 69.1873 129.811 69.17 129.646C69.1526 129.473 69.0963 129.343 69.001 129.256C68.9056 129.161 68.7626 129.096 68.572 129.061C68.39 129.026 68.1473 129.009 67.844 129.009ZM68.39 125.252C68.0173 125.252 67.727 125.291 67.519 125.369C67.311 125.438 67.1593 125.568 67.064 125.759C66.9686 125.95 66.895 126.223 66.843 126.578C66.8083 126.873 66.8126 127.102 66.856 127.267C66.8993 127.423 67.0163 127.531 67.207 127.592C67.3976 127.653 67.6836 127.683 68.065 127.683C68.3336 127.683 68.559 127.666 68.741 127.631C68.923 127.596 69.066 127.536 69.17 127.449C69.274 127.354 69.3563 127.228 69.417 127.072C69.4776 126.907 69.5253 126.695 69.56 126.435C69.612 126.123 69.612 125.88 69.56 125.707C69.5166 125.534 69.404 125.417 69.222 125.356C69.04 125.287 68.7626 125.252 68.39 125.252ZM75.5675 133.169C74.9175 133.169 74.3585 133.078 73.8905 132.896C73.4312 132.705 73.0802 132.398 72.8375 131.973C72.5948 131.54 72.4778 130.963 72.4865 130.244C72.4865 129.594 72.5168 128.957 72.5775 128.333C72.6468 127.709 72.7638 127.128 72.9285 126.591C73.0932 126.045 73.3272 125.568 73.6305 125.161C73.9338 124.754 74.3195 124.437 74.7875 124.212C75.2642 123.978 75.8492 123.861 76.5425 123.861C77.2098 123.861 77.7688 123.956 78.2195 124.147C78.6788 124.329 79.0255 124.632 79.2595 125.057C79.5022 125.482 79.6235 126.049 79.6235 126.76C79.6235 127.41 79.5932 128.051 79.5325 128.684C79.4805 129.308 79.3722 129.893 79.2075 130.439C79.0428 130.976 78.8088 131.453 78.5055 131.869C78.2022 132.276 77.8122 132.597 77.3355 132.831C76.8588 133.056 76.2695 133.169 75.5675 133.169ZM75.7235 131.622C76.0788 131.622 76.3735 131.531 76.6075 131.349C76.8415 131.167 77.0322 130.92 77.1795 130.608C77.3268 130.296 77.4352 129.941 77.5045 129.542C77.5738 129.135 77.6215 128.71 77.6475 128.268C77.6735 127.817 77.6908 127.375 77.6995 126.942C77.7082 126.387 77.5998 125.993 77.3745 125.759C77.1578 125.525 76.8198 125.408 76.3605 125.408C76.0138 125.408 75.7235 125.499 75.4895 125.681C75.2642 125.863 75.0778 126.114 74.9305 126.435C74.7918 126.747 74.6878 127.102 74.6185 127.501C74.5492 127.9 74.4972 128.324 74.4625 128.775C74.4365 129.226 74.4192 129.668 74.4105 130.101C74.4105 130.647 74.5145 131.037 74.7225 131.271C74.9392 131.505 75.2728 131.622 75.7235 131.622ZM83.7433 133.169C83.0933 133.169 82.5343 133.078 82.0663 132.896C81.6069 132.705 81.2559 132.398 81.0133 131.973C80.7706 131.54 80.6536 130.963 80.6623 130.244C80.6623 129.594 80.6926 128.957 80.7533 128.333C80.8226 127.709 80.9396 127.128 81.1043 126.591C81.2689 126.045 81.5029 125.568 81.8063 125.161C82.1096 124.754 82.4953 124.437 82.9633 124.212C83.4399 123.978 84.0249 123.861 84.7183 123.861C85.3856 123.861 85.9446 123.956 86.3953 124.147C86.8546 124.329 87.2013 124.632 87.4353 125.057C87.6779 125.482 87.7993 126.049 87.7993 126.76C87.7993 127.41 87.7689 128.051 87.7083 128.684C87.6563 129.308 87.5479 129.893 87.3833 130.439C87.2186 130.976 86.9846 131.453 86.6813 131.869C86.3779 132.276 85.9879 132.597 85.5113 132.831C85.0346 133.056 84.4453 133.169 83.7433 133.169ZM83.8993 131.622C84.2546 131.622 84.5493 131.531 84.7833 131.349C85.0173 131.167 85.2079 130.92 85.3553 130.608C85.5026 130.296 85.6109 129.941 85.6803 129.542C85.7496 129.135 85.7973 128.71 85.8233 128.268C85.8493 127.817 85.8666 127.375 85.8753 126.942C85.8839 126.387 85.7756 125.993 85.5503 125.759C85.3336 125.525 84.9956 125.408 84.5363 125.408C84.1896 125.408 83.8993 125.499 83.6653 125.681C83.4399 125.863 83.2536 126.114 83.1063 126.435C82.9676 126.747 82.8636 127.102 82.7943 127.501C82.7249 127.9 82.6729 128.324 82.6383 128.775C82.6123 129.226 82.5949 129.668 82.5863 130.101C82.5863 130.647 82.6903 131.037 82.8983 131.271C83.1149 131.505 83.4486 131.622 83.8993 131.622Z" fill="white"/>
<rect x="23" y="53" width="66" height="37" rx="1" fill="#4F4F4F"/>
<rect x="21.5" y="51.5" width="69" height="40" rx="2.5" stroke="white" stroke-opacity="0.3" stroke-width="3"/>
<rect x="22.5" y="52.5" width="67" height="38" rx="1.5" fill="#4F4F4F" stroke="#333333"/>
<circle cx="33" cy="64" r="8" fill="#828282"/>
<path fill-rule="evenodd" clip-rule="evenodd" d="M32 57C31.4477 57 31 57.4477 31 58V62H27C26.4477 62 26 62.4477 26 63V65C26 65.5523 26.4477 66 27 66H31V70C31 70.5523 31.4477 71 32 71H34C34.5523 71 35 70.5523 35 70V66H39C39.5523 66 40 65.5523 40 65V63C40 62.4477 39.5523 62 39 62H35V58C35 57.4477 34.5523 57 34 57H32ZM35 62H31V66H35V62Z" fill="#BDBDBD"/>
<path d="M70.5835 90H56.4934L52.89 84.1446L63.1099 77.8554L70.5835 90Z" fill="#333333"/>
<path d="M86.5835 90H72.4934L68.89 84.1446L79.1099 77.8554L86.5835 90Z" fill="#333333"/>
<circle cx="74" cy="81" r="6" fill="#F08484"/>
<circle cx="58" cy="81" r="6" fill="#F08484"/>
<path d="M27.7072 90L64.7072 53H63.293L26.293 90H27.7072Z" fill="#333333"/>
</g>
<defs>
<clipPath id="clip0_1_374">
<rect width="112" height="160" rx="6" fill="white"/>
</clipPath>
</defs>
</svg>
