<svg width="112" height="160" viewBox="0 0 112 160" fill="none" xmlns="http://www.w3.org/2000/svg">
<g clip-path="url(#clip0_24_526)">
<path d="M1 7C1 3.6863 3.68629 1 7 1H105C108.314 1 111 3.68629 111 7V152C111 155.314 108.314 158 105 158H7C3.68629 158 1 155.314 1 152V7Z" fill="#393B4E"/>
<path fill-rule="evenodd" clip-rule="evenodd" d="M7 0C3.13401 0 0 3.13401 0 7V153C0 156.866 3.13401 160 7 160H105C108.866 160 112 156.866 112 153V7C112 3.13401 108.866 0 105 0H7ZM7 1C3.68629 1 1 3.68629 1 7C1 7 1 7 1 7V152C1 152.165 1.00666 152.328 1.01973 152.49C1.2691 155.575 3.85131 158 7 158H105C108.149 158 110.731 155.575 110.98 152.49C110.993 152.328 111 152.165 111 152V7C111 3.68629 108.314 1 105 1H7Z" fill="black" fill-opacity="0.3"/>
<path d="M30.2455 123.991C30.9561 123.991 31.6711 124 32.3905 124.017C33.1098 124.026 33.7641 124.069 34.3535 124.147L34.1195 125.564H30.9475C30.6701 125.564 30.4665 125.616 30.3365 125.72C30.2065 125.815 30.1241 125.997 30.0895 126.266L29.1405 133H27.1515L28.1525 125.785C28.2391 125.222 28.4688 124.784 28.8415 124.472C29.2141 124.151 29.6821 123.991 30.2455 123.991ZM28.1005 127.813H33.3135L33.1315 129.191H27.9055L28.1005 127.813ZM38.0206 126.409C38.2459 126.409 38.4973 126.422 38.7746 126.448C39.0606 126.465 39.3466 126.491 39.6326 126.526C39.9273 126.561 40.2003 126.6 40.4516 126.643C40.7116 126.686 40.9239 126.73 41.0886 126.773L39.7756 127.813C39.4289 127.796 39.1126 127.787 38.8266 127.787C38.5406 127.778 38.2719 127.774 38.0206 127.774C37.7346 127.774 37.4919 127.796 37.2926 127.839C37.0933 127.882 36.9286 127.969 36.7986 128.099C36.6686 128.22 36.5603 128.407 36.4736 128.658C36.3869 128.909 36.3133 129.247 36.2526 129.672C36.1746 130.209 36.1313 130.621 36.1226 130.907C36.1226 131.184 36.1746 131.375 36.2786 131.479C36.3826 131.583 36.5473 131.631 36.7726 131.622C37.0066 131.613 37.2493 131.535 37.5006 131.388C37.7606 131.241 38.0163 131.041 38.2676 130.79C38.5189 130.53 38.7616 130.24 38.9956 129.919L39.3336 130.543C39.1603 131.054 38.9133 131.505 38.5926 131.895C38.2806 132.276 37.9123 132.575 37.4876 132.792C37.0629 133.009 36.5906 133.13 36.0706 133.156C35.5073 133.182 35.0739 133.069 34.7706 132.818C34.4759 132.567 34.2939 132.177 34.2246 131.648C34.1553 131.119 34.1813 130.456 34.3026 129.659C34.4153 128.922 34.5713 128.337 34.7706 127.904C34.9786 127.462 35.2386 127.137 35.5506 126.929C35.8626 126.712 36.2223 126.574 36.6296 126.513C37.0456 126.444 37.5093 126.409 38.0206 126.409ZM39.1906 126.656L41.0886 126.773L40.2176 133H38.7226L38.7486 131.544L38.5146 131.388L39.1906 126.656ZM48.8596 126.578C48.799 126.959 48.7166 127.345 48.6126 127.735C48.5086 128.125 48.4003 128.498 48.2876 128.853C48.175 129.2 48.058 129.52 47.9366 129.815C47.7546 130.309 47.564 130.747 47.3646 131.128C47.174 131.509 47.0136 131.795 46.8836 131.986C46.7276 132.255 46.5586 132.463 46.3766 132.61C46.2033 132.757 46.0083 132.861 45.7916 132.922C45.575 132.974 45.3106 133 44.9986 133H43.5426C43.3953 133 43.2653 132.952 43.1526 132.857C43.0486 132.762 42.988 132.645 42.9706 132.506L42.0086 126.578H44.0886L44.5566 131.739H44.7126C44.886 131.739 45.016 131.7 45.1026 131.622C45.198 131.544 45.3063 131.384 45.4276 131.141C45.5316 130.942 45.6443 130.699 45.7656 130.413C45.8956 130.127 46.0256 129.78 46.1556 129.373C46.3203 128.87 46.4503 128.389 46.5456 127.93C46.641 127.471 46.7233 127.02 46.7926 126.578H48.8596ZM53.037 126.409C53.8257 126.409 54.4583 126.526 54.935 126.76C55.4117 126.985 55.7323 127.349 55.897 127.852C56.0703 128.355 56.0963 129.031 55.975 129.88C55.8623 130.686 55.6673 131.332 55.39 131.817C55.1213 132.294 54.74 132.636 54.246 132.844C53.752 133.052 53.1107 133.156 52.322 133.156C51.542 133.156 50.9093 133.043 50.424 132.818C49.9473 132.593 49.618 132.229 49.436 131.726C49.2627 131.223 49.2323 130.556 49.345 129.724C49.4663 128.909 49.6613 128.264 49.93 127.787C50.1987 127.302 50.5843 126.951 51.087 126.734C51.5983 126.517 52.2483 126.409 53.037 126.409ZM53.011 127.813C52.6643 127.813 52.3827 127.869 52.166 127.982C51.958 128.095 51.789 128.298 51.659 128.593C51.5377 128.888 51.438 129.317 51.36 129.88C51.2907 130.374 51.269 130.76 51.295 131.037C51.3297 131.314 51.4337 131.505 51.607 131.609C51.7803 131.713 52.036 131.765 52.374 131.765C52.7207 131.765 52.998 131.709 53.206 131.596C53.414 131.475 53.5787 131.267 53.7 130.972C53.8213 130.677 53.921 130.261 53.999 129.724C54.0683 129.213 54.0857 128.823 54.051 128.554C54.025 128.277 53.9253 128.086 53.752 127.982C53.5873 127.869 53.3403 127.813 53.011 127.813ZM59.223 126.578L59.236 128.112L59.405 128.294L58.755 133H56.831L57.728 126.578H59.223ZM62.369 126.409L61.953 128.19H61.485C61.1817 128.19 60.8523 128.259 60.497 128.398C60.1503 128.528 59.7127 128.727 59.184 128.996L59.106 127.865C59.6173 127.388 60.1157 127.029 60.601 126.786C61.0863 126.535 61.5457 126.409 61.979 126.409H62.369ZM65.2134 126.578L64.3164 133H62.4054L63.3024 126.578H65.2134ZM65.0184 123.744C65.2264 123.744 65.3738 123.796 65.4604 123.9C65.5558 124.004 65.5904 124.16 65.5644 124.368L65.4734 125.057C65.4214 125.421 65.2091 125.603 64.8364 125.603H64.0564C63.6404 125.603 63.4541 125.395 63.4974 124.979L63.6014 124.29C63.6361 123.926 63.8441 123.744 64.2254 123.744H65.0184ZM69.5865 124.797L68.7025 130.985C68.6679 131.219 68.6895 131.379 68.7675 131.466C68.8455 131.553 69.0102 131.596 69.2615 131.596H70.1325L70.2235 132.909C70.0589 132.961 69.8595 133.004 69.6255 133.039C69.4002 133.082 69.1792 133.113 68.9625 133.13C68.7459 133.147 68.5682 133.156 68.4295 133.156C67.8315 133.156 67.3765 132.996 67.0645 132.675C66.7612 132.346 66.6529 131.904 66.7395 131.349L67.6885 124.797H69.5865ZM71.1205 126.578L70.9385 127.839H66.1025L66.2585 126.643L67.5065 126.578H71.1205ZM75.1532 126.409C75.9418 126.409 76.5485 126.496 76.9732 126.669C77.4065 126.834 77.6968 127.085 77.8442 127.423C77.9915 127.752 78.0262 128.16 77.9482 128.645C77.8875 129.044 77.7532 129.36 77.5452 129.594C77.3458 129.819 77.0685 129.988 76.7132 130.101C76.3578 130.214 75.9072 130.292 75.3612 130.335L72.0852 130.608L72.2282 129.542L74.9842 129.269C75.2182 129.243 75.4088 129.208 75.5562 129.165C75.7122 129.113 75.8335 129.035 75.9202 128.931C76.0068 128.818 76.0632 128.662 76.0892 128.463C76.1238 128.255 76.1108 128.099 76.0502 127.995C75.9895 127.891 75.8812 127.826 75.7252 127.8C75.5692 127.765 75.3612 127.752 75.1012 127.761C74.8325 127.761 74.6072 127.787 74.4252 127.839C74.2432 127.891 74.0915 127.986 73.9702 128.125C73.8488 128.255 73.7492 128.446 73.6712 128.697C73.5932 128.94 73.5195 129.256 73.4502 129.646C73.3635 130.209 73.3505 130.634 73.4112 130.92C73.4718 131.206 73.6062 131.397 73.8142 131.492C74.0222 131.587 74.3125 131.635 74.6852 131.635C74.8932 131.635 75.1445 131.631 75.4392 131.622C75.7338 131.605 76.0328 131.587 76.3362 131.57C76.6482 131.544 76.9298 131.518 77.1812 131.492L77.3112 132.688C77.0512 132.801 76.7565 132.892 76.4272 132.961C76.0978 133.03 75.7642 133.078 75.4262 133.104C75.0882 133.139 74.7718 133.156 74.4772 133.156C73.6192 133.156 72.9518 133.026 72.4752 132.766C72.0072 132.506 71.6952 132.12 71.5392 131.609C71.3832 131.089 71.3485 130.452 71.4352 129.698C71.5132 129.031 71.6432 128.485 71.8252 128.06C72.0158 127.635 72.2585 127.306 72.5532 127.072C72.8565 126.829 73.2248 126.66 73.6582 126.565C74.0915 126.461 74.5898 126.409 75.1532 126.409ZM81.8541 126.409C82.1747 126.409 82.5171 126.422 82.8811 126.448C83.2451 126.474 83.5961 126.504 83.9341 126.539C84.2807 126.574 84.5797 126.613 84.8311 126.656L84.6491 127.852C84.2331 127.843 83.8171 127.839 83.4011 127.839C82.9937 127.83 82.5777 127.822 82.1531 127.813C81.8237 127.813 81.5594 127.822 81.3601 127.839C81.1694 127.848 81.0307 127.882 80.9441 127.943C80.8574 127.995 80.8054 128.082 80.7881 128.203C80.7707 128.359 80.8141 128.48 80.9181 128.567C81.0307 128.654 81.2214 128.745 81.4901 128.84L83.0891 129.412C83.4271 129.533 83.7044 129.676 83.9211 129.841C84.1377 130.006 84.2894 130.209 84.3761 130.452C84.4714 130.695 84.4974 130.989 84.4541 131.336C84.3934 131.856 84.2287 132.246 83.9601 132.506C83.7001 132.757 83.3491 132.926 82.9071 133.013C82.4737 133.1 81.9451 133.143 81.3211 133.143C80.9831 133.143 80.6667 133.134 80.3721 133.117C80.0861 133.108 79.7871 133.082 79.4751 133.039C79.1717 133.004 78.8294 132.961 78.4481 132.909L78.6171 131.713C78.7817 131.722 78.9811 131.73 79.2151 131.739C79.4577 131.739 79.7091 131.743 79.9691 131.752C80.2377 131.752 80.4891 131.752 80.7231 131.752C81.2171 131.743 81.5941 131.726 81.8541 131.7C82.1141 131.674 82.2961 131.631 82.4001 131.57C82.5127 131.501 82.5821 131.401 82.6081 131.271C82.6254 131.158 82.6081 131.072 82.5561 131.011C82.5127 130.95 82.4304 130.894 82.3091 130.842C82.1964 130.79 82.0404 130.729 81.8411 130.66L80.2811 130.075C79.9257 129.945 79.6397 129.789 79.4231 129.607C79.2151 129.425 79.0721 129.204 78.9941 128.944C78.9247 128.684 78.9117 128.389 78.9551 128.06C79.0071 127.661 79.1371 127.345 79.3451 127.111C79.5531 126.868 79.8607 126.691 80.2681 126.578C80.6754 126.465 81.2041 126.409 81.8541 126.409Z" fill="white"/>
<path d="M58.3083 38.2478C57.4543 36.1946 54.5457 36.1946 53.6917 38.2478L45.9563 56.8459C45.7403 57.3652 45.2519 57.7201 44.6912 57.765L24.6131 59.3747C22.3965 59.5524 21.4976 62.3187 23.1865 63.7653L38.4839 76.8692C38.9111 77.2351 39.0977 77.8093 38.9671 78.3564L34.2935 97.9493C33.7776 100.112 36.1307 101.822 38.0284 100.663L55.2181 90.1635C55.6981 89.8703 56.3019 89.8703 56.7819 90.1635L73.9716 100.663C75.8693 101.822 78.2224 100.112 77.7065 97.9493L73.0329 78.3564C72.9024 77.8093 73.0889 77.2351 73.5161 76.8692L88.8135 63.7653C90.5024 62.3187 89.6035 59.5524 87.3869 59.3747L67.3088 57.765C66.7481 57.7201 66.2597 57.3652 66.0437 56.8459L58.3083 38.2478Z" fill="#F3BE54" stroke="#333333"/>
<path d="M66.3166 57.9321L56.0001 72V37.2079C56.7526 37.2079 57.5051 37.6186 57.8467 38.4399L65.5821 57.0379C65.7364 57.4088 65.9949 57.7168 66.3166 57.9321Z" fill="#F5A70A"/>
<path d="M89.0284 61.085L56.0001 72L35.7881 100.297C36.3692 100.608 37.1034 100.642 37.7679 100.236L54.9576 89.7368C55.5976 89.3458 56.4026 89.3458 57.0426 89.7368L74.2323 100.236C75.0069 100.709 75.8764 100.585 76.4874 100.12L56.0001 72L72.5931 77.3807C72.7054 77.0409 72.9088 76.7311 73.1909 76.4895L88.4883 63.3856C89.2161 62.7622 89.3432 61.8324 89.0284 61.085Z" fill="#F5A70A"/>
<path d="M45.6835 57.9321L55.9999 72V37.2079C55.2474 37.2079 54.4949 37.6186 54.1533 38.4399L46.4179 57.0379C46.2637 57.4088 46.0052 57.7168 45.6835 57.9321Z" fill="#F8D99B"/>
<path d="M45.6835 57.9321L55.9999 72L22.8484 61.4885C23.0096 60.6685 23.669 59.952 24.653 59.8731L44.7311 58.2634C45.0782 58.2356 45.4046 58.1187 45.6835 57.9321Z" fill="#F8D99B"/>
<path d="M35.7879 100.297L55.9999 72L39.3311 77.1859C39.5099 77.5823 39.558 78.0339 39.4534 78.4724L34.7798 98.0653C34.5477 99.0384 35.0414 99.8967 35.7879 100.297Z" fill="#F8D99B"/>
</g>
<defs>
<clipPath id="clip0_24_526">
<rect width="112" height="160" rx="6" fill="white"/>
</clipPath>
</defs>
</svg>
