<svg width="112" height="160" viewBox="0 0 112 160" fill="none" xmlns="http://www.w3.org/2000/svg">
<g clip-path="url(#clip0_24_100)">
<path d="M1 7C1 3.6863 3.68629 1 7 1H105C108.314 1 111 3.68629 111 7V152C111 155.314 108.314 158 105 158H7C3.68629 158 1 155.314 1 152V7Z" fill="#393B4E"/>
<path fill-rule="evenodd" clip-rule="evenodd" d="M7 0C3.13401 0 0 3.13401 0 7V153C0 156.866 3.13401 160 7 160H105C108.866 160 112 156.866 112 153V7C112 3.13401 108.866 0 105 0H7ZM7 1C3.68629 1 1 3.68629 1 7C1 7 1 7 1 7V152C1 152.165 1.00666 152.328 1.01973 152.49C1.2691 155.575 3.85131 158 7 158H105C108.149 158 110.731 155.575 110.98 152.49C110.993 152.328 111 152.165 111 152V7C111 3.68629 108.314 1 105 1H7Z" fill="black" fill-opacity="0.3"/>
<path d="M59.5767 37.204C64.4767 37.204 68.6254 37.596 72.0227 38.38C75.4854 39.0987 78.0987 40.4707 79.8627 42.496C81.6267 44.5213 82.5087 47.4287 82.5087 51.218C82.5087 54.4847 81.9861 57.4573 80.9407 60.136C79.9607 62.7493 78.5234 65.232 76.6287 67.584C74.7341 69.936 72.4474 72.288 69.7687 74.64L50.6587 91.496C52.3574 91.0387 53.9907 90.7447 55.5587 90.614C57.1921 90.418 58.7927 90.32 60.3607 90.32H78.2329C78.8369 90.32 79.303 90.8513 79.2244 91.4501L77.4289 105.13C77.3636 105.628 76.9394 106 76.4374 106H28.0059C27.3945 106 26.9263 105.456 27.017 104.852L28.3147 96.2C28.5107 94.7627 28.8047 93.456 29.1967 92.28C29.5887 91.104 30.2747 89.9933 31.2547 88.948L48.8947 73.17C51.4427 70.818 53.8601 68.5967 56.1467 66.506C58.4987 64.35 60.3934 62.3247 61.8307 60.43C63.2681 58.47 63.9867 56.706 63.9867 55.138C63.9867 54.4193 63.7581 53.864 63.3007 53.472C62.8434 53.08 62.1574 52.8187 61.2427 52.688C60.3934 52.5573 59.2827 52.492 57.9107 52.492C55.4281 52.492 53.1087 52.5247 50.9527 52.59C48.8621 52.59 46.6407 52.6227 44.2887 52.688C42.2649 52.7458 39.9085 52.8292 37.2194 52.9382C36.6427 52.9616 36.1653 52.4939 36.1777 51.9169L36.4312 40.1707C36.4414 39.6982 36.7813 39.2968 37.2463 39.2119C40.3945 38.6371 43.2647 38.2291 45.8567 37.988C48.7314 37.6613 51.3121 37.4653 53.5987 37.4C55.8854 37.2693 57.8781 37.204 59.5767 37.204Z" fill="white"/>
<path d="M30.2547 87.83L30.2055 87.874L30.1604 87.9221C29.0553 89.1009 28.2441 90.3946 27.7737 91.8057C27.3487 93.0806 27.0364 94.4766 26.8299 95.9873L25.5336 104.629C25.3068 106.141 26.4775 107.5 28.0059 107.5H76.4374C77.6924 107.5 78.7528 106.57 78.9161 105.325L80.7116 91.6453C80.9081 90.1483 79.7428 88.82 78.2329 88.82H60.3607C58.8173 88.82 57.2471 88.9113 55.6506 89.093L70.7584 75.7672C70.7586 75.767 70.7587 75.7669 70.7589 75.7668C73.4908 73.3679 75.8397 70.9546 77.7969 68.525C79.7815 66.0613 81.3013 63.4434 82.3418 60.6718C83.461 57.7999 84.0087 54.6423 84.0087 51.218C84.0087 47.2141 83.0774 43.9031 80.9939 41.5108C78.9583 39.1737 76.0183 37.6799 72.3439 36.9147C68.8047 36.0997 64.5408 35.704 59.5767 35.704C57.847 35.704 55.8317 35.7703 53.5344 35.9012C51.2056 35.9685 48.5939 36.1676 45.7025 36.4959C43.0622 36.742 40.1528 37.1564 36.9768 37.7363L37.2433 39.1956L36.9768 37.7363C35.8063 37.9501 34.957 38.9586 34.9316 40.1384L34.6781 51.8846C34.6469 53.3281 35.8409 54.4953 37.2802 54.437C39.9646 54.3282 42.3144 54.245 44.3304 54.1874C46.6702 54.1224 48.8775 54.09 50.9527 54.09H50.9755L50.9982 54.0893C53.137 54.0245 55.441 53.992 57.9107 53.992C59.2457 53.992 60.2716 54.0562 61.0146 54.1706L61.0226 54.1718L61.0306 54.1729C61.8024 54.2832 62.1705 54.4788 62.3245 54.6109L63.2699 53.508L62.3245 54.6109C62.3847 54.6625 62.4867 54.7642 62.4867 55.138C62.4867 56.2527 61.9687 57.7027 60.6283 59.5332C59.261 61.3339 57.4357 63.2896 55.1334 65.4C52.8478 67.4898 50.4319 69.7097 47.886 72.0598L30.2547 87.83Z" stroke="white" stroke-opacity="0.3" stroke-width="3"/>
<path d="M30.9214 88.5753L30.905 88.59L30.89 88.606C29.8683 89.6958 29.1405 90.8675 28.7224 92.1219C28.3194 93.3309 28.0193 94.6674 27.8198 96.1292C27.8196 96.1302 27.8195 96.1313 27.8193 96.1324L26.5225 104.777C26.3865 105.684 27.0889 106.5 28.0059 106.5H76.4374C77.1904 106.5 77.8267 105.942 77.9246 105.195L79.7201 91.5152C79.838 90.617 79.1389 89.82 78.2329 89.82H60.3607C58.7748 89.82 57.1572 89.9189 55.5082 90.1165C54.5238 90.1989 53.516 90.3442 52.485 90.5518L70.0986 75.0157C72.7951 72.6481 75.1026 70.2756 77.0181 67.8977C78.9427 65.5084 80.4076 62.9807 81.4077 60.3146C82.4777 57.5715 83.0087 54.5372 83.0087 51.218C83.0087 47.3571 82.1103 44.3152 80.2398 42.1676C78.3852 40.0383 75.6629 38.6257 72.1298 37.8916C68.6851 37.0972 64.4981 36.704 59.5767 36.704C57.8677 36.704 55.8675 36.7696 53.5773 36.9004C51.2766 36.9664 48.6855 37.1634 45.8053 37.4906C43.1972 37.7334 40.3139 38.1435 37.1565 38.7201C36.4563 38.8479 35.9466 39.4516 35.9313 40.1599L35.6778 51.9061C35.6591 52.772 36.3754 53.4729 37.2397 53.4378C39.9272 53.3289 42.2814 53.2456 44.3026 53.1878C46.6505 53.1226 48.8672 53.09 50.9527 53.09H50.9603L50.9679 53.0898C53.1181 53.0246 55.4324 52.992 57.9107 52.992C59.2704 52.992 60.3528 53.057 61.1667 53.1822L61.1667 53.1822L61.172 53.183C62.0391 53.3068 62.6191 53.5463 62.9753 53.8516C63.3003 54.1302 63.4867 54.5343 63.4867 55.138C63.4867 56.5548 62.8351 58.2141 61.4299 60.1311C60.016 61.9943 58.1445 63.9964 55.8092 66.1371C53.5228 68.2275 51.1059 70.4485 48.5585 72.7999L30.9214 88.5753Z" fill="#53CA86" stroke="#333333"/>
<path d="M37.3524 123.9C38.1584 123.9 38.7954 123.995 39.2634 124.186C39.7314 124.368 40.0477 124.68 40.2124 125.122C40.3857 125.555 40.4161 126.153 40.3034 126.916C40.1994 127.679 40.0217 128.268 39.7704 128.684C39.5277 129.091 39.1811 129.373 38.7304 129.529C38.2797 129.685 37.6861 129.763 36.9494 129.763C36.5594 129.763 36.1781 129.746 35.8054 129.711C35.4327 129.676 35.0817 129.633 34.7524 129.581C34.4317 129.52 34.1587 129.46 33.9334 129.399C33.7081 129.338 33.5521 129.286 33.4654 129.243L33.5434 128.268C34.0634 128.268 34.6051 128.268 35.1684 128.268C35.7317 128.268 36.2777 128.268 36.8064 128.268C37.1531 128.268 37.4261 128.229 37.6254 128.151C37.8247 128.073 37.9807 127.926 38.0934 127.709C38.2061 127.492 38.2884 127.176 38.3404 126.76C38.3924 126.405 38.3924 126.127 38.3404 125.928C38.2971 125.729 38.1887 125.59 38.0154 125.512C37.8507 125.434 37.6124 125.395 37.3004 125.395C36.4944 125.395 35.8054 125.404 35.2334 125.421C34.6614 125.43 34.2757 125.443 34.0764 125.46L34.0244 124.03C34.3797 123.987 34.7134 123.956 35.0254 123.939C35.3374 123.922 35.6754 123.913 36.0394 123.913C36.4034 123.904 36.8411 123.9 37.3524 123.9ZM36.0004 124.03L34.7394 133H32.7634L34.0244 124.03H36.0004ZM43.8301 123.9L42.8161 130.985C42.7814 131.21 42.8074 131.371 42.8941 131.466C42.9894 131.553 43.1671 131.596 43.4271 131.596H44.0121L44.1031 132.909C43.9991 132.97 43.8474 133.017 43.6481 133.052C43.4574 133.087 43.2667 133.113 43.0761 133.13C42.8854 133.147 42.7294 133.156 42.6081 133.156C41.9927 133.156 41.5291 133 41.2171 132.688C40.9051 132.367 40.7837 131.934 40.8531 131.388L41.9061 123.9H43.8301ZM48.837 126.409C49.0623 126.409 49.3137 126.422 49.591 126.448C49.877 126.465 50.163 126.491 50.449 126.526C50.7437 126.561 51.0167 126.6 51.268 126.643C51.528 126.686 51.7403 126.73 51.905 126.773L50.592 127.813C50.2453 127.796 49.929 127.787 49.643 127.787C49.357 127.778 49.0883 127.774 48.837 127.774C48.551 127.774 48.3083 127.796 48.109 127.839C47.9097 127.882 47.745 127.969 47.615 128.099C47.485 128.22 47.3767 128.407 47.29 128.658C47.2033 128.909 47.1297 129.247 47.069 129.672C46.991 130.209 46.9477 130.621 46.939 130.907C46.939 131.184 46.991 131.375 47.095 131.479C47.199 131.583 47.3637 131.631 47.589 131.622C47.823 131.613 48.0657 131.535 48.317 131.388C48.577 131.241 48.8327 131.041 49.084 130.79C49.3353 130.53 49.578 130.24 49.812 129.919L50.15 130.543C49.9767 131.054 49.7297 131.505 49.409 131.895C49.097 132.276 48.7287 132.575 48.304 132.792C47.8793 133.009 47.407 133.13 46.887 133.156C46.3237 133.182 45.8903 133.069 45.587 132.818C45.2923 132.567 45.1103 132.177 45.041 131.648C44.9717 131.119 44.9977 130.456 45.119 129.659C45.2317 128.922 45.3877 128.337 45.587 127.904C45.795 127.462 46.055 127.137 46.367 126.929C46.679 126.712 47.0387 126.574 47.446 126.513C47.862 126.444 48.3257 126.409 48.837 126.409ZM50.007 126.656L51.905 126.773L51.034 133H49.539L49.565 131.544L49.331 131.388L50.007 126.656ZM59.8191 126.578C59.7497 127.003 59.6544 127.436 59.5331 127.878C59.4204 128.32 59.2904 128.758 59.1431 129.191C58.9957 129.624 58.8397 130.04 58.6751 130.439C58.5191 130.829 58.3587 131.193 58.1941 131.531C58.0381 131.869 57.8821 132.168 57.7261 132.428C57.2927 133.173 56.8421 133.78 56.3741 134.248C55.9061 134.716 55.4034 135.063 54.8661 135.288C54.3287 135.513 53.7394 135.643 53.0981 135.678L52.9031 134.547C53.2237 134.452 53.5271 134.343 53.8131 134.222C54.0991 134.109 54.3721 133.958 54.6321 133.767C54.9007 133.576 55.1607 133.321 55.4121 133C55.6634 132.671 55.9147 132.25 56.1661 131.739C56.4261 131.228 56.6514 130.716 56.8421 130.205C57.0414 129.694 57.2147 129.143 57.3621 128.554C57.5181 127.965 57.6567 127.306 57.7781 126.578H59.8191ZM54.8921 126.578L55.4381 131.518C55.4641 131.665 55.5507 131.739 55.6981 131.739H56.4261L55.9061 133H54.5931C54.3937 133 54.2247 132.939 54.0861 132.818C53.9474 132.697 53.8607 132.545 53.8261 132.363L52.8121 126.578H54.8921ZM64.0448 126.409C64.8334 126.409 65.4401 126.496 65.8648 126.669C66.2981 126.834 66.5884 127.085 66.7358 127.423C66.8831 127.752 66.9178 128.16 66.8398 128.645C66.7791 129.044 66.6448 129.36 66.4368 129.594C66.2374 129.819 65.9601 129.988 65.6048 130.101C65.2494 130.214 64.7988 130.292 64.2528 130.335L60.9768 130.608L61.1198 129.542L63.8758 129.269C64.1098 129.243 64.3004 129.208 64.4478 129.165C64.6038 129.113 64.7251 129.035 64.8118 128.931C64.8984 128.818 64.9548 128.662 64.9808 128.463C65.0154 128.255 65.0024 128.099 64.9418 127.995C64.8811 127.891 64.7728 127.826 64.6168 127.8C64.4608 127.765 64.2528 127.752 63.9928 127.761C63.7241 127.761 63.4988 127.787 63.3168 127.839C63.1348 127.891 62.9831 127.986 62.8618 128.125C62.7404 128.255 62.6408 128.446 62.5628 128.697C62.4848 128.94 62.4111 129.256 62.3418 129.646C62.2551 130.209 62.2421 130.634 62.3028 130.92C62.3634 131.206 62.4978 131.397 62.7058 131.492C62.9138 131.587 63.2041 131.635 63.5768 131.635C63.7848 131.635 64.0361 131.631 64.3308 131.622C64.6254 131.605 64.9244 131.587 65.2278 131.57C65.5398 131.544 65.8214 131.518 66.0728 131.492L66.2028 132.688C65.9428 132.801 65.6481 132.892 65.3188 132.961C64.9894 133.03 64.6558 133.078 64.3178 133.104C63.9798 133.139 63.6634 133.156 63.3688 133.156C62.5108 133.156 61.8434 133.026 61.3668 132.766C60.8988 132.506 60.5868 132.12 60.4308 131.609C60.2748 131.089 60.2401 130.452 60.3268 129.698C60.4048 129.031 60.5348 128.485 60.7168 128.06C60.9074 127.635 61.1501 127.306 61.4448 127.072C61.7481 126.829 62.1164 126.66 62.5498 126.565C62.9831 126.461 63.4814 126.409 64.0448 126.409ZM69.8617 126.578L69.8747 128.112L70.0437 128.294L69.3937 133H67.4697L68.3667 126.578H69.8617ZM73.0077 126.409L72.5917 128.19H72.1237C71.8203 128.19 71.491 128.259 71.1357 128.398C70.789 128.528 70.3513 128.727 69.8227 128.996L69.7447 127.865C70.256 127.388 70.7543 127.029 71.2397 126.786C71.725 126.535 72.1843 126.409 72.6177 126.409H73.0077ZM76.2681 126.409C76.5888 126.409 76.9311 126.422 77.2951 126.448C77.6591 126.474 78.0101 126.504 78.3481 126.539C78.6948 126.574 78.9938 126.613 79.2451 126.656L79.0631 127.852C78.6471 127.843 78.2311 127.839 77.8151 127.839C77.4078 127.83 76.9918 127.822 76.5671 127.813C76.2378 127.813 75.9735 127.822 75.7741 127.839C75.5835 127.848 75.4448 127.882 75.3581 127.943C75.2715 127.995 75.2195 128.082 75.2021 128.203C75.1848 128.359 75.2281 128.48 75.3321 128.567C75.4448 128.654 75.6355 128.745 75.9041 128.84L77.5031 129.412C77.8411 129.533 78.1185 129.676 78.3351 129.841C78.5518 130.006 78.7035 130.209 78.7901 130.452C78.8855 130.695 78.9115 130.989 78.8681 131.336C78.8075 131.856 78.6428 132.246 78.3741 132.506C78.1141 132.757 77.7631 132.926 77.3211 133.013C76.8878 133.1 76.3591 133.143 75.7351 133.143C75.3971 133.143 75.0808 133.134 74.7861 133.117C74.5001 133.108 74.2011 133.082 73.8891 133.039C73.5858 133.004 73.2435 132.961 72.8621 132.909L73.0311 131.713C73.1958 131.722 73.3951 131.73 73.6291 131.739C73.8718 131.739 74.1231 131.743 74.3831 131.752C74.6518 131.752 74.9031 131.752 75.1371 131.752C75.6311 131.743 76.0081 131.726 76.2681 131.7C76.5281 131.674 76.7101 131.631 76.8141 131.57C76.9268 131.501 76.9961 131.401 77.0221 131.271C77.0395 131.158 77.0221 131.072 76.9701 131.011C76.9268 130.95 76.8445 130.894 76.7231 130.842C76.6105 130.79 76.4545 130.729 76.2551 130.66L74.6951 130.075C74.3398 129.945 74.0538 129.789 73.8371 129.607C73.6291 129.425 73.4861 129.204 73.4081 128.944C73.3388 128.684 73.3258 128.389 73.3691 128.06C73.4211 127.661 73.5511 127.345 73.7591 127.111C73.9671 126.868 74.2748 126.691 74.6821 126.578C75.0895 126.465 75.6181 126.409 76.2681 126.409Z" fill="white"/>
</g>
<defs>
<clipPath id="clip0_24_100">
<rect width="112" height="160" rx="6" fill="white"/>
</clipPath>
</defs>
</svg>
