<svg width="112" height="160" viewBox="0 0 112 160" fill="none" xmlns="http://www.w3.org/2000/svg">
<g clip-path="url(#clip0_24_241)">
<path d="M1 7C1 3.6863 3.68629 1 7 1H105C108.314 1 111 3.68629 111 7V152C111 155.314 108.314 158 105 158H7C3.68629 158 1 155.314 1 152V7Z" fill="#393B4E"/>
<path fill-rule="evenodd" clip-rule="evenodd" d="M7 0C3.13401 0 0 3.13401 0 7V153C0 156.866 3.13401 160 7 160H105C108.866 160 112 156.866 112 153V7C112 3.13401 108.866 0 105 0H7ZM7 1C3.68629 1 1 3.68629 1 7C1 7 1 7 1 7V152C1 152.165 1.00666 152.328 1.01973 152.49C1.2691 155.575 3.85131 158 7 158H105C108.149 158 110.731 155.575 110.98 152.49C110.993 152.328 111 152.165 111 152V7C111 3.68629 108.314 1 105 1H7Z" fill="black" fill-opacity="0.3"/>
<path fill-rule="evenodd" clip-rule="evenodd" d="M40.4352 72.2705C36.3207 69.8246 32.0286 66.778 28.5384 63.3609C24.3634 59.2736 21 54.326 21 49C21 46.9091 21.2466 44.4651 22.3974 42.4923C23.6602 40.3275 25.8489 39 29 39C30.6434 39 31.997 39.5845 32.9999 40.4843C34.3109 41.6603 35.0228 43.3752 34.9998 45.0278C34.9882 45.8668 34.7625 46.6357 34.4024 47.3098C34.0506 47.9683 33.5705 48.5364 33.0364 48.9911C33.0336 48.9935 33.0307 48.9959 33.0279 48.9984C31.9484 49.9139 30.5066 50.5 29 50.5C28.6944 50.5 28.4048 50.4315 28.1458 50.3089C27.6149 50.0578 27.2122 49.5798 27.063 49C27.0219 48.8402 27 48.6726 27 48.5C27 47.6737 27.5011 46.9644 28.216 46.6595C28.4567 46.5568 28.7217 46.5 29 46.5C29.4894 46.5 30.0307 46.2967 30.4436 45.9452C30.8562 45.594 30.9966 45.2285 31.0002 44.9722C31.014 43.9757 30.2624 43 29 43C27.1511 43 26.3398 43.6725 25.8526 44.5077C25.8155 44.5712 25.7799 44.6367 25.7455 44.7041C25.2725 45.6315 25.0449 46.9328 25.0061 48.5C25.002 48.6638 25 48.8305 25 49C25 50.0132 25.1815 51.0483 25.5273 52.0973C26.4353 54.8519 28.476 57.702 31.3366 60.5027C32.7507 61.8871 34.3226 63.2174 35.9743 64.472C37.441 65.586 38.9706 66.6403 40.5084 67.6196C39.7485 65.9922 39.0802 64.3229 38.5069 62.6196C37.1603 58.6185 36.338 54.4296 36.0843 50.1559C36.0282 49.211 35.9999 48.2619 35.9999 47.3098V39C35.9999 38.4477 36.4477 38 36.9999 38H74.9999C75.5522 38 75.9999 38.4477 75.9999 39V47.3098C75.9999 48.2619 75.9717 49.211 75.9156 50.1559C75.6619 54.4296 74.8396 58.6185 73.493 62.6196C72.9197 64.3229 72.2514 65.9922 71.4915 67.6196C73.0293 66.6403 74.5589 65.586 76.0256 64.472C77.6773 63.2174 79.2492 61.8871 80.6632 60.5027C83.5239 57.702 85.5646 54.8519 86.4726 52.0973C86.8184 51.0483 86.9999 50.0132 86.9999 49C86.9999 48.8305 86.9979 48.6638 86.9938 48.5C86.955 46.9328 86.7274 45.6315 86.2544 44.7041C86.22 44.6366 86.1843 44.5712 86.1473 44.5077C85.6601 43.6725 84.8488 43 82.9999 43C81.7375 43 80.9858 43.9757 80.9997 44.9722C81.0032 45.2285 81.1437 45.594 81.5563 45.9452C81.9692 46.2967 82.5105 46.5 82.9999 46.5C83.2782 46.5 83.5432 46.5568 83.7839 46.6595C84.4988 46.9645 84.9999 47.6737 84.9999 48.5C84.9999 48.6726 84.978 48.8402 84.9369 49C84.7877 49.5798 84.385 50.0578 83.8541 50.3089C83.595 50.4315 83.3055 50.5 82.9999 50.5C81.4932 50.5 80.0515 49.9139 78.972 48.9984C78.9692 48.9959 78.9663 48.9935 78.9634 48.9911C78.4293 48.5364 77.9493 47.9683 77.5975 47.3098C77.2374 46.6357 77.0117 45.8668 77.0001 45.0278C76.9771 43.3752 77.689 41.6603 78.9999 40.4843C80.0029 39.5845 81.3565 39 82.9999 39C86.151 39 88.3397 40.3275 89.6024 42.4923C90.7533 44.4651 90.9999 46.9091 90.9999 49C90.9999 54.326 87.6365 59.2736 83.4615 63.3609C79.9712 66.778 75.6791 69.8246 71.5647 72.2705C70.8272 72.7089 70.0955 73.128 69.3751 73.5264C69.2356 73.6036 69.0965 73.68 68.9579 73.7556C68.9578 73.7557 68.958 73.7556 68.9579 73.7556L68.5459 73.0011C68.5279 73.0295 68.5098 73.058 68.4917 73.0864C68.1815 73.5737 67.8624 74.0557 67.5343 74.5321C67.2447 74.9527 66.9482 75.369 66.6448 75.7807C64.9569 78.0718 63.0568 80.2241 60.9579 82.2064L58.3133 84.704C58.1133 84.8929 57.9999 85.1559 57.9999 85.431V90.974C57.9999 91.3033 58.1621 91.6115 58.4334 91.798L65.133 96.404C65.6757 96.7771 65.9999 97.3935 65.9999 98.0521V105C65.9999 105.552 65.5522 106 64.9999 106H46.9999C46.4477 106 45.9999 105.552 45.9999 105V98.0521C45.9999 97.3935 46.3242 96.7771 46.8669 96.404L53.5665 91.798C53.8378 91.6115 53.9999 91.3033 53.9999 90.974V85.431C53.9999 85.1559 53.8866 84.8929 53.6866 84.704L51.042 82.2064C48.9431 80.2241 47.043 78.0718 45.355 75.7807C45.0517 75.369 44.7552 74.9527 44.4656 74.5321C44.1375 74.0557 43.8184 73.5737 43.5082 73.0864C43.4901 73.058 43.472 73.0295 43.454 73.0011L43.0423 73.7558C43.0422 73.7557 43.0424 73.7558 43.0423 73.7558C42.9037 73.6802 42.7643 73.6036 42.6248 73.5264C41.9044 73.128 41.1726 72.7089 40.4352 72.2705ZM42.4107 76.8285L41.6057 76.3895C36.6105 73.6648 30.9386 69.9092 26.4396 65.5046C22.0966 61.2527 18 55.5655 18 49C18 46.771 18.242 43.662 19.8061 40.9806C21.6519 37.8164 24.8751 36 29 36C30.7076 36 32.2041 36.4235 33.4614 37.1331C34.1321 35.8645 35.4651 35 36.9999 35H74.9999C76.5348 35 77.8678 35.8645 78.5385 37.1331C79.7958 36.4235 81.2922 36 82.9999 36C87.1247 36 90.348 37.8164 92.1938 40.9806C93.7579 43.662 93.9999 46.771 93.9999 49C93.9999 55.5655 89.9033 61.2527 85.5602 65.5046C81.0613 69.9092 75.3894 73.6648 70.3941 76.3895L69.5892 76.8285C67.6667 79.5373 65.4698 82.0716 63.0177 84.3874L60.9999 86.2931V89.9219L66.8326 93.9319C68.1894 94.8646 68.9999 96.4056 68.9999 98.0521V105C68.9999 107.209 67.2091 109 64.9999 109H46.9999C44.7908 109 42.9999 107.209 42.9999 105V98.0521C42.9999 96.4056 43.8105 94.8646 45.1673 93.9319L50.9999 89.9219V86.2931L48.9821 84.3874C46.53 82.0716 44.3332 79.5373 42.4107 76.8285ZM82.5363 53.4879C81.1775 53.4168 79.8842 53.0365 78.7417 52.4375C78.5073 54.7573 78.1151 57.0487 77.5714 59.2969C77.9114 58.9868 78.2428 58.674 78.5645 58.359C80.3421 56.6187 81.6497 54.9844 82.5363 53.4879ZM33.2582 52.4375C32.1157 53.0365 30.8224 53.4168 29.4635 53.4879C30.3502 54.9844 31.6578 56.6187 33.4354 58.359C33.7571 58.674 34.0885 58.9867 34.4285 59.2969C33.8848 57.0487 33.4925 54.7573 33.2582 52.4375Z" fill="white" fill-opacity="0.3"/>
<path d="M68.5187 73.9952L68.7581 74.4342L69.1971 74.1947C74.0697 71.537 79.5306 67.9092 83.8114 63.7182C88.0144 59.6034 91.4999 54.5326 91.4999 49C91.4999 46.886 91.2541 44.3312 90.0344 42.2403L89.6025 42.4923L90.0344 42.2403C88.6744 39.909 86.3133 38.5 82.9999 38.5C78.8887 38.5 76.4564 41.8817 76.5002 45.0347C76.5257 46.8696 77.4758 48.3813 78.6394 49.3718C79.8031 50.3625 81.3615 51 82.9999 51C84.3807 51 85.4999 49.8807 85.4999 48.5C85.4999 47.1193 84.3807 46 82.9999 46C82.6379 46 82.2096 45.8447 81.8804 45.5645C81.5541 45.2867 81.5009 45.0492 81.4997 44.9653C81.4894 44.2212 82.0421 43.5 82.9999 43.5C83.8648 43.5 84.4412 43.6573 84.8431 43.8786C85.2403 44.0974 85.5056 44.3998 85.7155 44.7597L86.1474 44.5077L85.7155 44.7597C86.2456 45.6684 86.4999 47.1132 86.4999 49C86.4999 52.4676 84.2353 56.3059 80.3135 60.1454C76.4693 63.909 71.4302 67.2812 66.8028 69.8053L66.3639 70.0447L66.6033 70.4836L68.5187 73.9952Z" fill="#F3BE54" stroke="#333333"/>
<path d="M43.4813 73.9952L43.2419 74.4342L42.8029 74.1947C37.9303 71.537 32.4694 67.9092 28.1886 63.7182C23.9856 59.6034 20.5001 54.5326 20.5001 49C20.5001 46.886 20.7459 44.3312 21.9656 42.2403L22.3975 42.4923L21.9656 42.2403C23.3256 39.909 25.6867 38.5 29.0001 38.5C33.1113 38.5 35.5436 41.8817 35.4998 45.0347C35.4743 46.8696 34.5242 48.3813 33.3606 49.3718C32.1969 50.3625 30.6385 51 29.0001 51C27.6193 51 26.5001 49.8807 26.5001 48.5C26.5001 47.1193 27.6193 46 29.0001 46C29.3621 46 29.7904 45.8447 30.1196 45.5645C30.4459 45.2867 30.4991 45.0492 30.5003 44.9653C30.5106 44.2212 29.9579 43.5 29.0001 43.5C28.1352 43.5 27.5588 43.6573 27.1569 43.8786C26.7597 44.0974 26.4944 44.3998 26.2845 44.7597L25.8526 44.5077L26.2845 44.7597C25.7544 45.6684 25.5001 47.1132 25.5001 49C25.5001 52.4676 27.7647 56.3059 31.6865 60.1454C35.5307 63.909 40.5698 67.2812 45.1972 69.8053L45.6361 70.0447L45.3967 70.4836L43.4813 73.9952Z" fill="#F3BE54" stroke="#333333"/>
<path fill-rule="evenodd" clip-rule="evenodd" d="M79 40.4842C77.689 41.6603 76.9771 43.3751 77.0001 45.0278C77.0231 46.6866 77.8827 48.0711 78.9634 48.9911C78.9663 48.9935 78.9692 48.996 78.9721 48.9984C78.9907 48.4367 79 47.8737 79 47.3098V40.4842ZM76.0257 64.4719C75.1693 66.8681 74.1347 69.1975 72.9303 71.4402C71.5876 72.2751 70.2522 73.0496 68.9576 73.7558L68.5459 73.0011C69.6431 71.2695 70.6267 69.4717 71.4916 67.6195C73.0294 66.6402 74.559 65.5859 76.0257 64.4719ZM40.5085 67.6196C38.9706 66.6403 37.4411 65.5861 35.9744 64.472C36.8307 66.8682 37.8654 69.1976 39.0698 71.4403C40.4124 72.2752 41.7477 73.0496 43.0423 73.7558L43.454 73.001C42.3569 71.2694 41.3734 69.4717 40.5085 67.6196ZM33.0279 48.9983C33.0093 48.4366 33 47.8737 33 47.3098V40.4843C34.3109 41.6604 35.0228 43.3752 34.9998 45.0278C34.9768 46.6866 34.1172 48.0711 33.0364 48.9911C33.0336 48.9935 33.0308 48.9959 33.0279 48.9983Z" fill="#F5A70A"/>
<path d="M37 37.5C36.1716 37.5 35.5 38.1716 35.5 39V47.3098C35.5 60.6535 40.9977 73.4078 50.6988 82.5699L53.5 85.2155V91.237L46.5837 95.992C45.9053 96.4583 45.5 97.2288 45.5 98.0521V105C45.5 105.828 46.1716 106.5 47 106.5H65C65.8284 106.5 66.5 105.828 66.5 105V98.0521C66.5 97.2288 66.0947 96.4583 65.4163 95.992L58.5 91.237V85.2155L61.3012 82.5699C71.0023 73.4078 76.5 60.6535 76.5 47.3098V39C76.5 38.1716 75.8284 37.5 75 37.5H37Z" fill="#F3BE54" stroke="#333333"/>
<path d="M49.5 97.5C48.9477 97.5 48.5 97.9477 48.5 98.5V102.5C48.5 103.052 48.9477 103.5 49.5 103.5H62.5C63.0523 103.5 63.5 103.052 63.5 102.5V98.5C63.5 97.9477 63.0523 97.5 62.5 97.5H49.5Z" fill="#A85D1A" stroke="#F5A70A"/>
<path d="M54 85L54.5448 85.1362C55.5002 85.3751 56.4998 85.3751 57.4552 85.1362L58 85V91.5C56.741 92.1295 55.259 92.1295 54 91.5V85Z" fill="#F5A70A"/>
<path d="M46 105H66C66 105.552 65.5523 106 65 106H47C46.4477 106 46 105.552 46 105Z" fill="#F5A70A"/>
<path d="M18.28 124.03C18.4447 124.03 18.5877 124.086 18.709 124.199C18.8303 124.303 18.8997 124.433 18.917 124.589L20.334 133H18.345L17.474 126.396C17.4567 126.24 17.4437 126.088 17.435 125.941C17.4263 125.794 17.422 125.651 17.422 125.512H17.045C17.0017 125.633 16.954 125.772 16.902 125.928C16.8587 126.084 16.8067 126.236 16.746 126.383L13.977 133H11.897L15.68 124.524C15.7407 124.359 15.8317 124.238 15.953 124.16C16.083 124.073 16.2303 124.03 16.395 124.03H18.28ZM18.969 129.126L18.787 130.66H14.159L14.341 129.126H18.969ZM24.8244 126.409C25.2317 126.409 25.665 126.444 26.1244 126.513C26.5837 126.574 26.9867 126.678 27.3334 126.825L27.0604 128.008C26.679 127.991 26.315 127.982 25.9684 127.982C25.6217 127.973 25.327 127.969 25.0844 127.969C24.703 127.969 24.391 128.021 24.1484 128.125C23.9057 128.229 23.7194 128.415 23.5894 128.684C23.4594 128.944 23.364 129.312 23.3034 129.789C23.234 130.292 23.2254 130.673 23.2774 130.933C23.3294 131.193 23.455 131.371 23.6544 131.466C23.8624 131.561 24.1527 131.609 24.5254 131.609C24.6814 131.609 24.8677 131.605 25.0844 131.596C25.3097 131.587 25.5524 131.579 25.8124 131.57C26.0724 131.553 26.3237 131.527 26.5664 131.492L26.6964 132.74C26.3237 132.887 25.912 132.991 25.4614 133.052C25.0194 133.121 24.5947 133.156 24.1874 133.156C23.4334 133.156 22.8224 133.043 22.3544 132.818C21.8864 132.584 21.5614 132.216 21.3794 131.713C21.206 131.202 21.1757 130.534 21.2884 129.711C21.4097 128.914 21.596 128.277 21.8474 127.8C22.1074 127.315 22.4757 126.964 22.9524 126.747C23.4377 126.522 24.0617 126.409 24.8244 126.409ZM33.0243 126.409C33.6223 126.409 34.0643 126.565 34.3503 126.877C34.645 127.189 34.749 127.64 34.6623 128.229L33.9863 133H32.0623L32.6733 128.749C32.708 128.472 32.6907 128.285 32.6213 128.19C32.552 128.086 32.4133 128.034 32.2053 128.034C31.8933 128.034 31.577 128.125 31.2563 128.307C30.9357 128.48 30.5457 128.749 30.0863 129.113L29.8653 128.138C30.446 127.549 30.9963 127.115 31.5163 126.838C32.045 126.552 32.5477 126.409 33.0243 126.409ZM30.9313 123.9L30.6193 126.162C30.5673 126.569 30.485 126.968 30.3723 127.358C30.2683 127.748 30.173 128.056 30.0863 128.281L30.2813 128.437L29.6573 133H27.7333L29.0073 123.9H30.9313ZM38.3756 126.578L37.4786 133H35.5676L36.4646 126.578H38.3756ZM38.1806 123.744C38.3886 123.744 38.5359 123.796 38.6226 123.9C38.7179 124.004 38.7526 124.16 38.7266 124.368L38.6356 125.057C38.5836 125.421 38.3712 125.603 37.9986 125.603H37.2186C36.8026 125.603 36.6162 125.395 36.6596 124.979L36.7636 124.29C36.7982 123.926 37.0062 123.744 37.3876 123.744H38.1806ZM43.0086 126.409C43.7973 126.409 44.404 126.496 44.8286 126.669C45.262 126.834 45.5523 127.085 45.6996 127.423C45.847 127.752 45.8816 128.16 45.8036 128.645C45.743 129.044 45.6086 129.36 45.4006 129.594C45.2013 129.819 44.924 129.988 44.5686 130.101C44.2133 130.214 43.7626 130.292 43.2166 130.335L39.9406 130.608L40.0836 129.542L42.8396 129.269C43.0736 129.243 43.2643 129.208 43.4116 129.165C43.5676 129.113 43.689 129.035 43.7756 128.931C43.8623 128.818 43.9186 128.662 43.9446 128.463C43.9793 128.255 43.9663 128.099 43.9056 127.995C43.845 127.891 43.7366 127.826 43.5806 127.8C43.4246 127.765 43.2166 127.752 42.9566 127.761C42.688 127.761 42.4626 127.787 42.2806 127.839C42.0986 127.891 41.947 127.986 41.8256 128.125C41.7043 128.255 41.6046 128.446 41.5266 128.697C41.4486 128.94 41.375 129.256 41.3056 129.646C41.219 130.209 41.206 130.634 41.2666 130.92C41.3273 131.206 41.4616 131.397 41.6696 131.492C41.8776 131.587 42.168 131.635 42.5406 131.635C42.7486 131.635 43 131.631 43.2946 131.622C43.5893 131.605 43.8883 131.587 44.1916 131.57C44.5036 131.544 44.7853 131.518 45.0366 131.492L45.1666 132.688C44.9066 132.801 44.612 132.892 44.2826 132.961C43.9533 133.03 43.6196 133.078 43.2816 133.104C42.9436 133.139 42.6273 133.156 42.3326 133.156C41.4746 133.156 40.8073 133.026 40.3306 132.766C39.8626 132.506 39.5506 132.12 39.3946 131.609C39.2386 131.089 39.204 130.452 39.2906 129.698C39.3686 129.031 39.4986 128.485 39.6806 128.06C39.8713 127.635 40.114 127.306 40.4086 127.072C40.712 126.829 41.0803 126.66 41.5136 126.565C41.947 126.461 42.4453 126.409 43.0086 126.409ZM53.4934 126.578C53.4328 126.959 53.3504 127.345 53.2464 127.735C53.1424 128.125 53.0341 128.498 52.9214 128.853C52.8088 129.2 52.6918 129.52 52.5704 129.815C52.3884 130.309 52.1978 130.747 51.9984 131.128C51.8078 131.509 51.6474 131.795 51.5174 131.986C51.3614 132.255 51.1924 132.463 51.0104 132.61C50.8371 132.757 50.6421 132.861 50.4254 132.922C50.2088 132.974 49.9444 133 49.6324 133H48.1764C48.0291 133 47.8991 132.952 47.7864 132.857C47.6824 132.762 47.6218 132.645 47.6044 132.506L46.6424 126.578H48.7224L49.1904 131.739H49.3464C49.5198 131.739 49.6498 131.7 49.7364 131.622C49.8318 131.544 49.9401 131.384 50.0614 131.141C50.1654 130.942 50.2781 130.699 50.3994 130.413C50.5294 130.127 50.6594 129.78 50.7894 129.373C50.9541 128.87 51.0841 128.389 51.1794 127.93C51.2748 127.471 51.3571 127.02 51.4264 126.578H53.4934ZM57.7098 126.409C58.4985 126.409 59.1051 126.496 59.5298 126.669C59.9631 126.834 60.2535 127.085 60.4008 127.423C60.5481 127.752 60.5828 128.16 60.5048 128.645C60.4441 129.044 60.3098 129.36 60.1018 129.594C59.9025 129.819 59.6251 129.988 59.2698 130.101C58.9145 130.214 58.4638 130.292 57.9178 130.335L54.6418 130.608L54.7848 129.542L57.5408 129.269C57.7748 129.243 57.9655 129.208 58.1128 129.165C58.2688 129.113 58.3901 129.035 58.4768 128.931C58.5635 128.818 58.6198 128.662 58.6458 128.463C58.6805 128.255 58.6675 128.099 58.6068 127.995C58.5461 127.891 58.4378 127.826 58.2818 127.8C58.1258 127.765 57.9178 127.752 57.6578 127.761C57.3891 127.761 57.1638 127.787 56.9818 127.839C56.7998 127.891 56.6481 127.986 56.5268 128.125C56.4055 128.255 56.3058 128.446 56.2278 128.697C56.1498 128.94 56.0761 129.256 56.0068 129.646C55.9201 130.209 55.9071 130.634 55.9678 130.92C56.0285 131.206 56.1628 131.397 56.3708 131.492C56.5788 131.587 56.8691 131.635 57.2418 131.635C57.4498 131.635 57.7011 131.631 57.9958 131.622C58.2905 131.605 58.5895 131.587 58.8928 131.57C59.2048 131.544 59.4865 131.518 59.7378 131.492L59.8678 132.688C59.6078 132.801 59.3131 132.892 58.9838 132.961C58.6545 133.03 58.3208 133.078 57.9828 133.104C57.6448 133.139 57.3285 133.156 57.0338 133.156C56.1758 133.156 55.5085 133.026 55.0318 132.766C54.5638 132.506 54.2518 132.12 54.0958 131.609C53.9398 131.089 53.9051 130.452 53.9918 129.698C54.0698 129.031 54.1998 128.485 54.3818 128.06C54.5725 127.635 54.8151 127.306 55.1098 127.072C55.4131 126.829 55.7815 126.66 56.2148 126.565C56.6481 126.461 57.1465 126.409 57.7098 126.409ZM63.5267 126.578L63.5397 128.06L63.7087 128.242L63.0457 133H61.1347L62.0317 126.578H63.5267ZM66.0877 126.409C66.6857 126.409 67.119 126.569 67.3877 126.89C67.665 127.211 67.7647 127.657 67.6867 128.229L67.0107 133H65.1647L65.7627 128.749C65.7974 128.489 65.7757 128.307 65.6977 128.203C65.6197 128.09 65.4724 128.034 65.2557 128.034C65.0997 128.034 64.935 128.069 64.7617 128.138C64.5884 128.207 64.3934 128.32 64.1767 128.476C63.96 128.623 63.6957 128.831 63.3837 129.1L63.1497 128.138C63.687 127.54 64.1854 127.102 64.6447 126.825C65.104 126.548 65.585 126.409 66.0877 126.409ZM70.0917 126.409C70.6984 126.409 71.1404 126.574 71.4177 126.903C71.695 127.224 71.7904 127.666 71.7037 128.229L71.0407 133H69.1297L69.7277 128.749C69.7624 128.472 69.732 128.285 69.6367 128.19C69.55 128.086 69.4114 128.034 69.2207 128.034C69.0734 128.034 68.913 128.069 68.7397 128.138C68.575 128.199 68.3844 128.307 68.1677 128.463C67.9597 128.61 67.7084 128.818 67.4137 129.087L67.1667 128.138C67.704 127.531 68.198 127.094 68.6487 126.825C69.108 126.548 69.589 126.409 70.0917 126.409ZM76.4608 126.409C77.2494 126.409 77.8561 126.496 78.2808 126.669C78.7141 126.834 79.0044 127.085 79.1518 127.423C79.2991 127.752 79.3338 128.16 79.2558 128.645C79.1951 129.044 79.0608 129.36 78.8528 129.594C78.6534 129.819 78.3761 129.988 78.0208 130.101C77.6654 130.214 77.2148 130.292 76.6688 130.335L73.3928 130.608L73.5358 129.542L76.2918 129.269C76.5258 129.243 76.7164 129.208 76.8638 129.165C77.0198 129.113 77.1411 129.035 77.2278 128.931C77.3144 128.818 77.3708 128.662 77.3968 128.463C77.4314 128.255 77.4184 128.099 77.3578 127.995C77.2971 127.891 77.1888 127.826 77.0328 127.8C76.8768 127.765 76.6688 127.752 76.4088 127.761C76.1401 127.761 75.9148 127.787 75.7328 127.839C75.5508 127.891 75.3991 127.986 75.2778 128.125C75.1564 128.255 75.0568 128.446 74.9788 128.697C74.9008 128.94 74.8271 129.256 74.7578 129.646C74.6711 130.209 74.6581 130.634 74.7188 130.92C74.7794 131.206 74.9138 131.397 75.1218 131.492C75.3298 131.587 75.6201 131.635 75.9928 131.635C76.2008 131.635 76.4521 131.631 76.7468 131.622C77.0414 131.605 77.3404 131.587 77.6438 131.57C77.9558 131.544 78.2374 131.518 78.4888 131.492L78.6188 132.688C78.3588 132.801 78.0641 132.892 77.7348 132.961C77.4054 133.03 77.0718 133.078 76.7338 133.104C76.3958 133.139 76.0794 133.156 75.7848 133.156C74.9268 133.156 74.2594 133.026 73.7828 132.766C73.3148 132.506 73.0028 132.12 72.8468 131.609C72.6908 131.089 72.6561 130.452 72.7428 129.698C72.8208 129.031 72.9508 128.485 73.1328 128.06C73.3234 127.635 73.5661 127.306 73.8608 127.072C74.1641 126.829 74.5324 126.66 74.9658 126.565C75.3991 126.461 75.8974 126.409 76.4608 126.409ZM85.2287 126.409C85.584 126.409 85.8917 126.478 86.1517 126.617C86.4117 126.747 86.6023 126.946 86.7237 127.215C86.845 127.484 86.8797 127.822 86.8277 128.229L86.1517 133H84.2147L84.8127 128.814C84.856 128.519 84.8387 128.316 84.7607 128.203C84.6913 128.082 84.5353 128.025 84.2927 128.034C84.0067 128.043 83.7033 128.134 83.3827 128.307C83.0707 128.48 82.6893 128.749 82.2387 129.113L82.0177 128.138C82.529 127.592 83.0577 127.167 83.6037 126.864C84.1583 126.561 84.7 126.409 85.2287 126.409ZM82.2907 126.578V128.268L82.4467 128.45L81.8097 133H79.8857L80.7827 126.578H82.2907ZM91.3209 124.797L90.4369 130.985C90.4022 131.219 90.4239 131.379 90.5019 131.466C90.5799 131.553 90.7446 131.596 90.9959 131.596H91.8669L91.9579 132.909C91.7932 132.961 91.5939 133.004 91.3599 133.039C91.1346 133.082 90.9136 133.113 90.6969 133.13C90.4802 133.147 90.3026 133.156 90.1639 133.156C89.5659 133.156 89.1109 132.996 88.7989 132.675C88.4956 132.346 88.3872 131.904 88.4739 131.349L89.4229 124.797H91.3209ZM92.8549 126.578L92.6729 127.839H87.8369L87.9929 126.643L89.2409 126.578H92.8549ZM96.2505 126.409C96.5712 126.409 96.9135 126.422 97.2775 126.448C97.6415 126.474 97.9925 126.504 98.3305 126.539C98.6772 126.574 98.9762 126.613 99.2275 126.656L99.0455 127.852C98.6295 127.843 98.2135 127.839 97.7975 127.839C97.3902 127.83 96.9742 127.822 96.5495 127.813C96.2202 127.813 95.9559 127.822 95.7565 127.839C95.5659 127.848 95.4272 127.882 95.3405 127.943C95.2539 127.995 95.2019 128.082 95.1845 128.203C95.1672 128.359 95.2105 128.48 95.3145 128.567C95.4272 128.654 95.6179 128.745 95.8865 128.84L97.4855 129.412C97.8235 129.533 98.1009 129.676 98.3175 129.841C98.5342 130.006 98.6859 130.209 98.7725 130.452C98.8679 130.695 98.8939 130.989 98.8505 131.336C98.7899 131.856 98.6252 132.246 98.3565 132.506C98.0965 132.757 97.7455 132.926 97.3035 133.013C96.8702 133.1 96.3415 133.143 95.7175 133.143C95.3795 133.143 95.0632 133.134 94.7685 133.117C94.4825 133.108 94.1835 133.082 93.8715 133.039C93.5682 133.004 93.2259 132.961 92.8445 132.909L93.0135 131.713C93.1782 131.722 93.3775 131.73 93.6115 131.739C93.8542 131.739 94.1055 131.743 94.3655 131.752C94.6342 131.752 94.8855 131.752 95.1195 131.752C95.6135 131.743 95.9905 131.726 96.2505 131.7C96.5105 131.674 96.6925 131.631 96.7965 131.57C96.9092 131.501 96.9785 131.401 97.0045 131.271C97.0219 131.158 97.0045 131.072 96.9525 131.011C96.9092 130.95 96.8269 130.894 96.7055 130.842C96.5929 130.79 96.4369 130.729 96.2375 130.66L94.6775 130.075C94.3222 129.945 94.0362 129.789 93.8195 129.607C93.6115 129.425 93.4685 129.204 93.3905 128.944C93.3212 128.684 93.3082 128.389 93.3515 128.06C93.4035 127.661 93.5335 127.345 93.7415 127.111C93.9495 126.868 94.2572 126.691 94.6645 126.578C95.0719 126.465 95.6005 126.409 96.2505 126.409Z" fill="white"/>
</g>
<defs>
<clipPath id="clip0_24_241">
<rect width="112" height="160" rx="6" fill="white"/>
</clipPath>
</defs>
</svg>
