<svg width="112" height="160" viewBox="0 0 112 160" fill="none" xmlns="http://www.w3.org/2000/svg">
<g clip-path="url(#clip0_116_82)">
<path d="M1 7C1 3.6863 3.68629 1 7 1H105C108.314 1 111 3.68629 111 7V152C111 155.314 108.314 158 105 158H7C3.68629 158 1 155.314 1 152V7Z" fill="#393B4E"/>
<path fill-rule="evenodd" clip-rule="evenodd" d="M7 0C3.13401 0 0 3.13401 0 7V153C0 156.866 3.13401 160 7 160H105C108.866 160 112 156.866 112 153V7C112 3.13401 108.866 0 105 0H7ZM7 1C3.68629 1 1 3.68629 1 7C1 7 1 7 1 7V152C1 152.165 1.00666 152.328 1.01973 152.49C1.2691 155.575 3.85131 158 7 158H105C108.149 158 110.731 155.575 110.98 152.49C110.993 152.328 111 152.165 111 152V7C111 3.68629 108.314 1 105 1H7Z" fill="black" fill-opacity="0.3"/>
<path d="M31.2736 124.03C31.4383 124.03 31.5813 124.086 31.7026 124.199C31.824 124.303 31.8933 124.433 31.9106 124.589L33.3276 133H31.3386L30.4676 126.396C30.4503 126.24 30.4373 126.088 30.4286 125.941C30.42 125.794 30.4156 125.651 30.4156 125.512H30.0386C29.9953 125.633 29.9476 125.772 29.8956 125.928C29.8523 126.084 29.8003 126.236 29.7396 126.383L26.9706 133H24.8906L28.6736 124.524C28.7343 124.359 28.8253 124.238 28.9466 124.16C29.0766 124.073 29.224 124.03 29.3886 124.03H31.2736ZM31.9626 129.126L31.7806 130.66H27.1526L27.3346 129.126H31.9626ZM37.311 123.9L36.297 130.985C36.2624 131.21 36.2884 131.371 36.375 131.466C36.4704 131.553 36.648 131.596 36.908 131.596H37.493L37.584 132.909C37.48 132.97 37.3284 133.017 37.129 133.052C36.9384 133.087 36.7477 133.113 36.557 133.13C36.3664 133.147 36.2104 133.156 36.089 133.156C35.4737 133.156 35.01 133 34.698 132.688C34.386 132.367 34.2647 131.934 34.334 131.388L35.387 123.9H37.311ZM41.564 123.9L40.55 130.985C40.5153 131.21 40.5413 131.371 40.628 131.466C40.7233 131.553 40.901 131.596 41.161 131.596H41.746L41.837 132.909C41.733 132.97 41.5813 133.017 41.382 133.052C41.1913 133.087 41.0006 133.113 40.81 133.13C40.6193 133.147 40.4633 133.156 40.342 133.156C39.7266 133.156 39.263 133 38.951 132.688C38.639 132.367 38.5176 131.934 38.587 131.388L39.64 123.9H41.564ZM50.1639 123.848C50.4932 123.848 50.8139 123.861 51.1259 123.887C51.4465 123.913 51.7585 123.952 52.0619 124.004C52.3739 124.047 52.6685 124.112 52.9459 124.199L52.7119 125.629C52.4172 125.612 52.1269 125.599 51.8409 125.59C51.5549 125.581 51.2732 125.577 50.9959 125.577C50.7185 125.568 50.4282 125.564 50.1249 125.564C49.7262 125.564 49.3882 125.612 49.1109 125.707C48.8335 125.794 48.5995 125.95 48.4089 126.175C48.2269 126.392 48.0752 126.699 47.9539 127.098C47.8325 127.488 47.7285 127.986 47.6419 128.593C47.5552 129.321 47.5249 129.897 47.5509 130.322C47.5855 130.738 47.6939 131.033 47.8759 131.206C48.0579 131.379 48.3352 131.466 48.7079 131.466C49.0025 131.466 49.2582 131.423 49.4749 131.336C49.6915 131.241 49.8909 131.119 50.0729 130.972C50.2635 130.816 50.4542 130.656 50.6449 130.491L50.9439 131.427C50.7879 131.618 50.6102 131.817 50.4109 132.025C50.2115 132.224 49.9862 132.415 49.7349 132.597C49.4835 132.77 49.2019 132.909 48.8899 133.013C48.5779 133.126 48.2312 133.182 47.8499 133.182C47.2432 133.182 46.7449 133.026 46.3549 132.714C45.9649 132.402 45.7005 131.899 45.5619 131.206C45.4232 130.513 45.4275 129.59 45.5749 128.437C45.6962 127.51 45.8739 126.747 46.1079 126.149C46.3505 125.551 46.6539 125.087 47.0179 124.758C47.3905 124.42 47.8369 124.186 48.3569 124.056C48.8769 123.917 49.4792 123.848 50.1639 123.848ZM52.8029 127.826L52.0619 133H50.6189L50.5539 131.609L50.4239 131.232L50.8919 127.826H52.8029ZM57.4889 126.409C57.7142 126.409 57.9655 126.422 58.2429 126.448C58.5289 126.465 58.8149 126.491 59.1009 126.526C59.3955 126.561 59.6685 126.6 59.9199 126.643C60.1799 126.686 60.3922 126.73 60.5569 126.773L59.2439 127.813C58.8972 127.796 58.5809 127.787 58.2949 127.787C58.0089 127.778 57.7402 127.774 57.4889 127.774C57.2029 127.774 56.9602 127.796 56.7609 127.839C56.5615 127.882 56.3969 127.969 56.2669 128.099C56.1369 128.22 56.0285 128.407 55.9419 128.658C55.8552 128.909 55.7815 129.247 55.7209 129.672C55.6429 130.209 55.5995 130.621 55.5909 130.907C55.5909 131.184 55.6429 131.375 55.7469 131.479C55.8509 131.583 56.0155 131.631 56.2409 131.622C56.4749 131.613 56.7175 131.535 56.9689 131.388C57.2289 131.241 57.4845 131.041 57.7359 130.79C57.9872 130.53 58.2299 130.24 58.4639 129.919L58.8019 130.543C58.6285 131.054 58.3815 131.505 58.0609 131.895C57.7489 132.276 57.3805 132.575 56.9559 132.792C56.5312 133.009 56.0589 133.13 55.5389 133.156C54.9755 133.182 54.5422 133.069 54.2389 132.818C53.9442 132.567 53.7622 132.177 53.6929 131.648C53.6235 131.119 53.6495 130.456 53.7709 129.659C53.8835 128.922 54.0395 128.337 54.2389 127.904C54.4469 127.462 54.7069 127.137 55.0189 126.929C55.3309 126.712 55.6905 126.574 56.0979 126.513C56.5139 126.444 56.9775 126.409 57.4889 126.409ZM58.6589 126.656L60.5569 126.773L59.6859 133H58.1909L58.2169 131.544L57.9829 131.388L58.6589 126.656ZM63.6219 126.578L63.6349 128.06L63.8039 128.242L63.1409 133H61.2299L62.1269 126.578H63.6219ZM66.1829 126.409C66.7809 126.409 67.2142 126.569 67.4829 126.89C67.7602 127.211 67.8599 127.657 67.7819 128.229L67.1059 133H65.2599L65.8579 128.749C65.8926 128.489 65.8709 128.307 65.7929 128.203C65.7149 128.09 65.5676 128.034 65.3509 128.034C65.1949 128.034 65.0302 128.069 64.8569 128.138C64.6836 128.207 64.4886 128.32 64.2719 128.476C64.0552 128.623 63.7909 128.831 63.4789 129.1L63.2449 128.138C63.7822 127.54 64.2806 127.102 64.7399 126.825C65.1992 126.548 65.6802 126.409 66.1829 126.409ZM70.1869 126.409C70.7936 126.409 71.2356 126.574 71.5129 126.903C71.7902 127.224 71.8856 127.666 71.7989 128.229L71.1359 133H69.2249L69.8229 128.749C69.8576 128.472 69.8272 128.285 69.7319 128.19C69.6452 128.086 69.5066 128.034 69.3159 128.034C69.1686 128.034 69.0082 128.069 68.8349 128.138C68.6702 128.199 68.4796 128.307 68.2629 128.463C68.0549 128.61 67.8036 128.818 67.5089 129.087L67.2619 128.138C67.7992 127.531 68.2932 127.094 68.7439 126.825C69.2032 126.548 69.6842 126.409 70.1869 126.409ZM76.556 126.409C77.3447 126.409 77.9513 126.496 78.376 126.669C78.8093 126.834 79.0997 127.085 79.247 127.423C79.3943 127.752 79.429 128.16 79.351 128.645C79.2903 129.044 79.156 129.36 78.948 129.594C78.7487 129.819 78.4713 129.988 78.116 130.101C77.7607 130.214 77.31 130.292 76.764 130.335L73.488 130.608L73.631 129.542L76.387 129.269C76.621 129.243 76.8117 129.208 76.959 129.165C77.115 129.113 77.2363 129.035 77.323 128.931C77.4097 128.818 77.466 128.662 77.492 128.463C77.5267 128.255 77.5137 128.099 77.453 127.995C77.3923 127.891 77.284 127.826 77.128 127.8C76.972 127.765 76.764 127.752 76.504 127.761C76.2353 127.761 76.01 127.787 75.828 127.839C75.646 127.891 75.4943 127.986 75.373 128.125C75.2517 128.255 75.152 128.446 75.074 128.697C74.996 128.94 74.9223 129.256 74.853 129.646C74.7663 130.209 74.7533 130.634 74.814 130.92C74.8747 131.206 75.009 131.397 75.217 131.492C75.425 131.587 75.7153 131.635 76.088 131.635C76.296 131.635 76.5473 131.631 76.842 131.622C77.1367 131.605 77.4357 131.587 77.739 131.57C78.051 131.544 78.3327 131.518 78.584 131.492L78.714 132.688C78.454 132.801 78.1593 132.892 77.83 132.961C77.5007 133.03 77.167 133.078 76.829 133.104C76.491 133.139 76.1747 133.156 75.88 133.156C75.022 133.156 74.3547 133.026 73.878 132.766C73.41 132.506 73.098 132.12 72.942 131.609C72.786 131.089 72.7513 130.452 72.838 129.698C72.916 129.031 73.046 128.485 73.228 128.06C73.4187 127.635 73.6613 127.306 73.956 127.072C74.2593 126.829 74.6277 126.66 75.061 126.565C75.4943 126.461 75.9927 126.409 76.556 126.409ZM83.2569 126.409C83.5776 126.409 83.9199 126.422 84.2839 126.448C84.6479 126.474 84.9989 126.504 85.3369 126.539C85.6836 126.574 85.9826 126.613 86.2339 126.656L86.0519 127.852C85.6359 127.843 85.2199 127.839 84.8039 127.839C84.3966 127.83 83.9806 127.822 83.5559 127.813C83.2266 127.813 82.9622 127.822 82.7629 127.839C82.5722 127.848 82.4336 127.882 82.3469 127.943C82.2602 127.995 82.2082 128.082 82.1909 128.203C82.1736 128.359 82.2169 128.48 82.3209 128.567C82.4336 128.654 82.6242 128.745 82.8929 128.84L84.4919 129.412C84.8299 129.533 85.1072 129.676 85.3239 129.841C85.5406 130.006 85.6922 130.209 85.7789 130.452C85.8742 130.695 85.9002 130.989 85.8569 131.336C85.7962 131.856 85.6316 132.246 85.3629 132.506C85.1029 132.757 84.7519 132.926 84.3099 133.013C83.8766 133.1 83.3479 133.143 82.7239 133.143C82.3859 133.143 82.0696 133.134 81.7749 133.117C81.4889 133.108 81.1899 133.082 80.8779 133.039C80.5746 133.004 80.2322 132.961 79.8509 132.909L80.0199 131.713C80.1846 131.722 80.3839 131.73 80.6179 131.739C80.8606 131.739 81.1119 131.743 81.3719 131.752C81.6406 131.752 81.8919 131.752 82.1259 131.752C82.6199 131.743 82.9969 131.726 83.2569 131.7C83.5169 131.674 83.6989 131.631 83.8029 131.57C83.9156 131.501 83.9849 131.401 84.0109 131.271C84.0282 131.158 84.0109 131.072 83.9589 131.011C83.9156 130.95 83.8332 130.894 83.7119 130.842C83.5992 130.79 83.4432 130.729 83.2439 130.66L81.6839 130.075C81.3286 129.945 81.0426 129.789 80.8259 129.607C80.6179 129.425 80.4749 129.204 80.3969 128.944C80.3276 128.684 80.3146 128.389 80.3579 128.06C80.4099 127.661 80.5399 127.345 80.7479 127.111C80.9559 126.868 81.2636 126.691 81.6709 126.578C82.0782 126.465 82.6069 126.409 83.2569 126.409Z" fill="white"/>
<path d="M32 39C32 38.4477 32.4477 38 33 38H79C79.5523 38 80 38.4477 80 39V67C80 67.5523 79.5523 68 79 68H78.8555L79.7091 79.3022C79.8804 81.5709 78.4986 83.6692 76.3467 84.4079L75.048 84.8537C77.8623 88.5246 80 93.6196 80 99C80 103.941 75.0588 106.059 72.9412 106.059C70.9721 106.059 69.068 104.759 66.8941 103.274C64.0026 101.3 60.6339 99 56 99C51.3661 99 47.9974 101.3 45.1059 103.274C42.932 104.759 41.0279 106.059 39.0588 106.059C36.9412 106.059 32 103.941 32 99C32 93.6196 34.1377 88.5246 36.952 84.8537L35.6533 84.4079C33.5014 83.6692 32.1196 81.5709 32.2909 79.3022L33.1445 68H33C32.4477 68 32 67.5523 32 67V39Z" fill="#4F4F4F"/>
<path d="M33 36.5C31.6193 36.5 30.5 37.6193 30.5 39V67C30.5 67.8451 30.9194 68.5923 31.5613 69.0448L30.7952 79.1893C30.588 81.9322 32.1274 84.4836 34.5942 85.5997C32.2056 89.2986 30.5 94.0166 30.5 99C30.5 102.04 32.0424 104.211 33.8241 105.574C35.5491 106.893 37.6273 107.559 39.0588 107.559C40.3755 107.559 41.588 107.124 42.691 106.557C43.7685 106.004 44.8529 105.263 45.9055 104.545L45.9517 104.513C48.8711 102.52 51.8849 100.5 56 100.5C60.1151 100.5 63.1289 102.52 66.0483 104.513L66.0943 104.545C67.1469 105.263 68.2315 106.004 69.309 106.557C70.412 107.124 71.6245 107.559 72.9412 107.559C74.3727 107.559 76.4509 106.893 78.1759 105.574C79.9576 104.211 81.5 102.04 81.5 99C81.5 94.0166 79.7944 89.2986 77.4058 85.5997C79.8727 84.4836 81.412 81.9322 81.2048 79.1893L80.4387 69.0448C81.0806 68.5923 81.5 67.8451 81.5 67V39C81.5 37.6193 80.3807 36.5 79 36.5H33Z" stroke="white" stroke-opacity="0.3" stroke-width="3"/>
<rect x="31.5" y="37.5" width="49" height="31" rx="1.5" fill="#E0E0E0" stroke="#333333"/>
<path d="M59.224 42.4592H57.8355L57.6203 42.7571C57.5599 42.8456 57.5161 42.9113 57.4882 42.9535C57.4323 43.0378 57.393 43.1055 57.3704 43.156C57.3145 43.2493 57.2873 43.3274 57.2873 43.3903C57.2873 43.5127 57.4225 43.5887 57.6943 43.6184C57.8181 43.6357 57.8808 43.6841 57.8808 43.7643C57.8808 43.8618 57.8076 43.9101 57.6603 43.9101L57.3983 43.8949L56.943 43.8721L56.3571 43.9101H56.1714C56.0612 43.9101 56.006 43.8721 56.006 43.7968C56.006 43.7339 56.0279 43.6882 56.0717 43.6613C56.1155 43.6336 56.1986 43.6143 56.3201 43.6012C56.4417 43.5887 56.5444 43.5424 56.6267 43.4622L56.8955 43.1532L57.0125 42.9894L57.1363 42.8318L57.2602 42.668L59.4384 39.8283C59.5487 39.677 59.6272 39.5843 59.6725 39.5505C59.7186 39.5166 59.7895 39.5 59.8862 39.5C59.9919 39.5 60.0644 39.5256 60.1036 39.576C60.1429 39.6265 60.1625 39.7364 60.1625 39.9051L60.3762 43.0696C60.3762 43.1968 60.3845 43.2984 60.4011 43.3744C60.4155 43.4394 60.4502 43.4988 60.5 43.5465C60.5438 43.5894 60.5974 43.624 60.6586 43.6412C60.7409 43.6654 60.7817 43.7083 60.7817 43.7719C60.7817 43.8645 60.713 43.9108 60.5748 43.9108L60.3543 43.8922L59.9481 43.8735C59.8197 43.8735 59.6778 43.8783 59.5245 43.888C59.3705 43.8977 59.2059 43.9053 59.0315 43.9115H58.8042C58.6985 43.9115 58.6457 43.8714 58.6457 43.7919C58.6457 43.7373 58.6676 43.6972 58.7113 43.6723C58.7551 43.6468 58.8367 43.6281 58.956 43.6157C59.0753 43.6032 59.1561 43.5728 59.1976 43.5244C59.2391 43.476 59.2595 43.3931 59.2595 43.2749V43.0164L59.224 42.4592ZM59.1961 42.144L59.1342 40.6848L58.0567 42.144H59.1961Z" fill="#828282"/>
<path d="M69.7636 40.3012L68.8953 43.0717C68.8538 43.2065 68.8334 43.3094 68.8334 43.3806C68.8334 43.5362 68.9255 43.6143 69.109 43.6143C69.2743 43.6143 69.3574 43.6613 69.3574 43.756C69.3574 43.8465 69.2864 43.8915 69.1437 43.8915H68.7443L67.9998 43.8666C67.8571 43.8666 67.7492 43.8687 67.6759 43.8728C67.6027 43.877 67.4207 43.8915 67.1315 43.9171H67.1036C66.9843 43.9171 66.9247 43.8749 66.9247 43.7906C66.9247 43.7401 66.945 43.7055 66.9866 43.6862C67.0281 43.6668 67.1217 43.644 67.269 43.6171C67.4162 43.5894 67.5053 43.5541 67.5377 43.5099C67.5695 43.4657 67.6231 43.324 67.6963 43.0841L68.5578 40.3267C68.5895 40.2258 68.6061 40.1588 68.6061 40.1249C68.6061 40.0157 68.5208 39.9611 68.3509 39.9611C68.2037 39.9611 68.1305 39.921 68.1305 39.8401C68.1305 39.7917 68.1486 39.7537 68.1856 39.7253C68.2226 39.697 68.2732 39.6832 68.3373 39.6832H68.6544C68.6726 39.6832 68.7254 39.6832 68.813 39.6832C68.9006 39.6832 68.9738 39.6832 69.0335 39.6832C69.4744 39.6832 69.7825 39.6728 69.9569 39.6528L70.3223 39.6327C70.4144 39.6327 70.4605 39.6728 70.4605 39.7523C70.4605 39.8069 70.4371 39.847 70.3918 39.8719C70.3457 39.8968 70.2619 39.9189 70.1404 39.9382C70.0188 39.9569 69.9373 39.988 69.8957 40.0295C69.8527 40.0717 69.8089 40.1622 69.7636 40.3012Z" fill="#828282"/>
<path d="M73.9956 42.6804C73.9956 42.6804 73.8491 43.1518 73.7819 43.3641C73.7026 43.6115 72.9559 44 72.0453 44C71.356 44 70.795 43.8424 70.3631 43.5265C69.9312 43.2113 69.7153 42.8028 69.7153 42.3023C69.7153 41.9028 69.8459 41.524 70.1079 41.1666C70.3699 40.8092 70.7399 40.5016 71.2178 40.2452C71.6082 40.035 72.0302 39.8705 72.4825 39.753C72.9348 39.6355 73.3795 39.576 73.8166 39.576C74.1104 39.576 74.3701 39.5988 74.5958 39.6438C74.7106 39.6687 74.768 39.7136 74.768 39.7793C74.768 39.8166 74.7544 39.8643 74.7265 39.923L74.5543 40.4028C74.4856 40.6219 74.3958 40.7311 74.2855 40.7311C74.1662 40.7311 74.1066 40.6447 74.1066 40.4726L74.1202 40.1505C74.1202 40.0412 74.096 39.9645 74.0477 39.9203C73.9994 39.876 73.9178 39.8539 73.8031 39.8539C73.5086 39.8539 73.2081 39.9085 72.9 40.0184C72.592 40.1276 72.3005 40.2839 72.0249 40.4864C71.6988 40.7263 71.4413 41.0214 71.2525 41.3712C71.0638 41.721 70.9702 42.0832 70.9702 42.4585C70.9702 42.8463 71.0804 43.1539 71.3009 43.3813C71.5213 43.6088 71.8226 43.7228 72.2039 43.7228C72.3187 43.7228 72.3979 43.7069 72.4417 43.6758C72.4855 43.6447 72.5255 43.5721 72.5625 43.4588L72.8177 42.6355C72.8359 42.5892 72.8449 42.5366 72.8449 42.4786C72.8449 42.3866 72.8245 42.3265 72.783 42.2995C72.7415 42.2726 72.6312 42.2484 72.4523 42.227C72.3556 42.227 72.3073 42.1848 72.3073 42.1005C72.3073 42.0078 72.3874 41.9615 72.5489 41.9615L72.8932 41.9677L73.5139 41.9864C73.5554 41.9864 73.5849 41.9864 73.6037 41.9864C73.6407 41.9864 73.6656 41.9864 73.6792 41.9864C73.8816 41.9864 74.0628 41.9781 74.2236 41.9608H74.5543C74.6691 41.9608 74.7265 41.9968 74.7265 42.0694C74.7265 42.1703 74.6321 42.2283 74.4441 42.2442C74.3248 42.2442 74.2327 42.276 74.1685 42.3389C74.1036 42.4025 74.0462 42.5159 73.9956 42.6804Z" fill="#828282"/>
<path d="M76.8421 42.4592H75.4536L75.2384 42.7571C75.178 42.8456 75.1342 42.9113 75.1063 42.9535C75.0504 43.0378 75.0111 43.1055 74.9885 43.156C74.9326 43.2493 74.9054 43.3274 74.9054 43.3903C74.9054 43.5127 75.0406 43.5887 75.3124 43.6184C75.4362 43.6357 75.4989 43.6841 75.4989 43.7643C75.4989 43.8618 75.4256 43.9101 75.2784 43.9101L75.0164 43.8949L74.8042 43.8846C74.6427 43.8763 74.4803 43.877 74.3187 43.8859L73.8816 43.9101C73.7713 43.9101 73.7162 43.8721 73.7162 43.7968C73.7162 43.7339 73.7381 43.6882 73.7819 43.6613C73.8257 43.6336 73.9088 43.6143 74.0303 43.6012C74.1519 43.5887 74.1625 43.5424 74.2448 43.4622L74.5136 43.1532L74.6306 42.9894L74.7544 42.8318L74.8782 42.668L77.0565 39.8283C77.1668 39.677 77.2453 39.5843 77.2906 39.5505C77.3366 39.5166 77.4076 39.5 77.5043 39.5C77.61 39.5 77.6824 39.5256 77.7217 39.576C77.761 39.6265 77.7806 39.7364 77.7806 39.9051L77.9943 43.0696C77.9943 43.2846 78.0184 43.427 78.0668 43.4968C78.1151 43.5666 78.2057 43.6094 78.3393 43.6267C78.4722 43.6433 78.5394 43.6924 78.5394 43.7726C78.5394 43.8652 78.4707 43.9115 78.3325 43.9115L78.1121 43.8929L77.5677 43.8742C77.4393 43.8742 77.2974 43.879 77.1441 43.8887C76.9901 43.8984 76.8255 43.906 76.6511 43.9122H76.4238C76.3181 43.9122 76.2652 43.8721 76.2652 43.7926C76.2652 43.738 76.2871 43.6979 76.3309 43.673C76.3747 43.6475 76.4563 43.6288 76.5756 43.6164C76.6949 43.6039 76.7756 43.5735 76.8172 43.5251C76.8587 43.4767 76.8791 43.3938 76.8791 43.2756V43.0171L76.8421 42.4592ZM76.8149 42.144L76.753 40.6848L75.6756 42.144H76.8149Z" fill="#828282"/>
<path d="M65.8283 40.5341L63.6501 43.5065C63.5443 43.6537 63.4658 43.7463 63.416 43.7843C63.3654 43.8224 63.2967 43.841 63.2091 43.841C63.117 43.841 63.0551 43.8224 63.0234 43.7843C62.9909 43.7463 62.975 43.6641 62.975 43.5376L62.8648 40.5265L62.1687 42.2636L62.0584 42.6058C61.9708 42.8719 61.9203 43.0336 61.9067 43.0903C61.8931 43.147 61.8863 43.2203 61.8863 43.3088C61.8863 43.4104 61.9127 43.4767 61.9656 43.5085C62.0184 43.5403 62.146 43.5707 62.3484 43.6005C62.4631 43.6129 62.5205 43.6592 62.5205 43.7401C62.5205 43.8417 62.4473 43.8922 62.3 43.8922L62.0448 43.8694L61.6379 43.8541L61.1026 43.8728C60.9833 43.8728 60.9236 43.8306 60.9236 43.7463C60.9236 43.6779 60.984 43.6274 61.1056 43.5956C61.1743 43.577 61.2362 43.5396 61.2845 43.4912C61.3087 43.4671 61.3283 43.447 61.3283 43.447C61.3789 43.3903 61.4778 43.1747 61.625 42.8L62.5213 40.4906C62.6043 40.2631 62.6451 40.1228 62.6451 40.0675C62.6451 40.0212 62.6232 39.9873 62.5794 39.9666C62.5356 39.9459 62.4473 39.9258 62.3144 39.9065C62.1807 39.8878 62.1143 39.8422 62.1143 39.771C62.1143 39.7329 62.1324 39.6998 62.1694 39.67C62.2064 39.6403 62.2495 39.6258 62.3 39.6258L62.5552 39.6514H63.8501C63.9053 39.6514 63.9377 39.6597 63.9468 39.6763C63.9604 39.6977 63.9672 39.7502 63.9672 39.8339L64.0774 42.4143L65.9386 39.7834C65.9846 39.7191 66.0163 39.6811 66.0352 39.6687C66.0533 39.6569 66.0903 39.6507 66.1455 39.6507H66.2142C66.2972 39.6507 66.384 39.6507 66.4762 39.6507C66.5683 39.6507 66.6695 39.6507 66.7797 39.6507H67.5174C67.6185 39.6507 67.6691 39.6887 67.6691 39.7641C67.6691 39.8691 67.5898 39.9293 67.4313 39.9438C67.2727 39.9583 67.1738 39.988 67.1346 40.0316C67.0953 40.0758 67.0553 40.1753 67.0138 40.3309L66.338 42.9078C66.3199 42.979 66.301 43.0654 66.2829 43.1664C66.2648 43.2673 66.2557 43.3343 66.2557 43.3682C66.2557 43.4394 66.2776 43.4919 66.3214 43.5258C66.3652 43.5597 66.4467 43.5846 66.566 43.6012C66.6853 43.6177 66.745 43.6661 66.745 43.7463C66.745 43.8431 66.6642 43.8915 66.5033 43.8915H66.2836C65.9575 43.8576 65.6909 43.841 65.484 43.841C65.2545 43.841 65.0567 43.8493 64.8913 43.8666L64.547 43.8915C64.4323 43.8915 64.3749 43.8472 64.3749 43.7588C64.3749 43.6876 64.4164 43.6392 64.4987 43.6136L64.6157 43.5949L64.6988 43.5887L64.7743 43.5763C64.8664 43.568 64.9314 43.5355 64.9706 43.4788C65.0099 43.4221 65.0612 43.2776 65.1254 43.0468L65.8283 40.5341Z" fill="#828282"/>
<rect x="39" y="45" width="17" height="4" rx="1" fill="#4F4F4F"/>
<rect x="58" y="45" width="21" height="4" rx="1" fill="#4F4F4F"/>
<rect x="33" y="50" width="46" height="13" rx="1" fill="#4F4F4F"/>
<rect x="36" y="61" width="41" height="5" rx="1" fill="#4F4F4F"/>
<rect x="33.5" y="45.5" width="4" height="3" rx="1" fill="#BDBDBD" stroke="#4F4F4F"/>
<rect x="34" y="51" width="4" height="2" rx="0.5" fill="#BDBDBD"/>
<rect x="39" y="51" width="3" height="2" rx="0.5" fill="#F2F2F2"/>
<rect x="41" y="54" width="3" height="2" rx="0.5" fill="#F2F2F2"/>
<rect x="39" y="57" width="3" height="2" rx="0.5" fill="#F2F2F2"/>
<rect x="41" y="60" width="3" height="2" rx="0.5" fill="#F2F2F2"/>
<rect x="43" y="51" width="3" height="2" rx="0.5" fill="#F2F2F2"/>
<rect x="45" y="54" width="3" height="2" rx="0.5" fill="#F2F2F2"/>
<rect x="43" y="57" width="3" height="2" rx="0.5" fill="#F2F2F2"/>
<rect x="45" y="60" width="3" height="2" rx="0.5" fill="#F2F2F2"/>
<rect x="47" y="51" width="3" height="2" rx="0.5" fill="#F2F2F2"/>
<rect x="49" y="54" width="3" height="2" rx="0.5" fill="#F2F2F2"/>
<rect x="47" y="57" width="3" height="2" rx="0.5" fill="#F2F2F2"/>
<rect x="49" y="60" width="3" height="2" rx="0.5" fill="#F2F2F2"/>
<rect x="51" y="51" width="3" height="2" rx="0.5" fill="#F2F2F2"/>
<rect x="53" y="54" width="3" height="2" rx="0.5" fill="#F2F2F2"/>
<rect x="51" y="57" width="3" height="2" rx="0.5" fill="#F2F2F2"/>
<rect x="53" y="60" width="3" height="2" rx="0.5" fill="#F2F2F2"/>
<rect x="55" y="51" width="3" height="2" rx="0.5" fill="#F2F2F2"/>
<rect x="57" y="54" width="3" height="2" rx="0.5" fill="#F2F2F2"/>
<rect x="55" y="57" width="3" height="2" rx="0.5" fill="#F2F2F2"/>
<rect x="57" y="60" width="3" height="2" rx="0.5" fill="#F2F2F2"/>
<rect x="59" y="51" width="3" height="2" rx="0.5" fill="#F2F2F2"/>
<rect x="61" y="54" width="3" height="2" rx="0.5" fill="#F2F2F2"/>
<rect x="59" y="57" width="3" height="2" rx="0.5" fill="#F2F2F2"/>
<rect x="61" y="60" width="3" height="2" rx="0.5" fill="#F2F2F2"/>
<rect x="63" y="51" width="3" height="2" rx="0.5" fill="#F2F2F2"/>
<rect x="65" y="54" width="3" height="2" rx="0.5" fill="#F2F2F2"/>
<rect x="63" y="57" width="3" height="2" rx="0.5" fill="#F2F2F2"/>
<rect x="65" y="60" width="3" height="2" rx="0.5" fill="#F2F2F2"/>
<rect x="67" y="51" width="3" height="2" rx="0.5" fill="#F2F2F2"/>
<rect x="69" y="54" width="3" height="2" rx="0.5" fill="#F2F2F2"/>
<rect x="67" y="57" width="3" height="2" rx="0.5" fill="#F2F2F2"/>
<rect x="69" y="60" width="3" height="2" rx="0.5" fill="#F2F2F2"/>
<rect x="71" y="51" width="3" height="2" rx="0.5" fill="#F2F2F2"/>
<rect x="75" y="51" width="3" height="2" rx="0.5" fill="#F2F2F2"/>
<rect x="37" y="63" width="4" height="2" rx="0.5" fill="#BDBDBD"/>
<rect x="42" y="63" width="4" height="2" rx="0.5" fill="#BDBDBD"/>
<rect x="47" y="63" width="19" height="2" rx="0.5" fill="#F2F2F2"/>
<rect x="67" y="63" width="4" height="2" rx="0.5" fill="#BDBDBD"/>
<rect x="72" y="63" width="4" height="2" rx="0.5" fill="#BDBDBD"/>
<rect x="34" y="60" width="6" height="2" rx="0.5" fill="#BDBDBD"/>
<rect x="73" y="60" width="5" height="2" rx="0.5" fill="#BDBDBD"/>
<rect x="34" y="57" width="4" height="2" rx="0.5" fill="#BDBDBD"/>
<rect x="34" y="54" width="6" height="2" rx="0.5" fill="#BDBDBD"/>
<rect x="40" y="46" width="3" height="2" rx="0.5" fill="#BDBDBD"/>
<rect x="44" y="46" width="3" height="2" rx="0.5" fill="#BDBDBD"/>
<rect x="48" y="46" width="3" height="2" rx="0.5" fill="#BDBDBD"/>
<rect x="52" y="46" width="3" height="2" rx="0.5" fill="#BDBDBD"/>
<path d="M59 46.5C59 46.2239 59.2239 46 59.5 46H61.5C61.7761 46 62 46.2239 62 46.5V47.5C62 47.7761 61.7761 48 61.5 48H59.5C59.2239 48 59 47.7761 59 47.5V46.5Z" fill="#BDBDBD"/>
<path d="M63 46.5C63 46.2239 63.2239 46 63.5 46H65.5C65.7761 46 66 46.2239 66 46.5V47.5C66 47.7761 65.7761 48 65.5 48H63.5C63.2239 48 63 47.7761 63 47.5V46.5Z" fill="#BDBDBD"/>
<path d="M67 46.5C67 46.2239 67.2239 46 67.5 46H69.5C69.7761 46 70 46.2239 70 46.5V47.5C70 47.7761 69.7761 48 69.5 48H67.5C67.2239 48 67 47.7761 67 47.5V46.5Z" fill="#BDBDBD"/>
<path d="M71 46.5C71 46.2239 71.2239 46 71.5 46H73.5C73.7761 46 74 46.2239 74 46.5V47.5C74 47.7761 73.7761 48 73.5 48H71.5C71.2239 48 71 47.7761 71 47.5V46.5Z" fill="#BDBDBD"/>
<path d="M75 46.5C75 46.2239 75.2239 46 75.5 46H77.5C77.7761 46 78 46.2239 78 46.5V47.5C78 47.7761 77.7761 48 77.5 48H75.5C75.2239 48 75 47.7761 75 47.5V46.5Z" fill="#828282"/>
<path d="M73.5 54C73.2239 54 73 54.2239 73 54.5V57H71.5C71.2239 57 71 57.2239 71 57.5V58.5C71 58.7761 71.2239 59 71.5 59H77.5C77.7761 59 78 58.7761 78 58.5L78 54.5C78 54.2239 77.7761 54 77.5 54H73.5Z" fill="#F2F2F2"/>
<path d="M68.3145 60.7782C67.998 60.6825 67.6744 60.611 67.3466 60.5645L67.1078 60.5118C67.0305 60.4947 66.9518 60.4965 66.8777 60.5152C66.73 60.5051 66.5819 60.5 66.4333 60.5H45.0816C45.0521 60.5 45.0225 60.5002 44.993 60.5006L44.9929 60.5006L44.9892 60.5007L44.989 60.5007C44.389 60.5092 43.7961 60.6007 43.2264 60.7704L37.3071 61.6929C35.626 61.9549 34.2842 63.1263 33.7501 64.6582C33.1708 65.2343 32.7932 66.0123 32.728 66.8764L31.7923 79.2646C31.6039 81.7601 33.1239 84.0683 35.491 84.8808L37.1176 85.4392C43.0212 87.4657 49.2198 88.5 55.4616 88.5H56.5384C62.7802 88.5 68.9788 87.4657 74.8825 85.4392L76.509 84.8808C78.8761 84.0683 80.3962 81.7601 80.2077 79.2646L79.2721 66.8764C79.1929 65.8286 78.6548 64.908 77.8546 64.3194C77.2345 63.291 76.2097 62.5213 74.9702 62.2476L68.3145 60.7782Z" fill="#7E64B9" stroke="#333333" stroke-linecap="round" stroke-linejoin="round"/>
<path d="M34 66.1392C34 64.1679 35.4362 62.4905 37.3841 62.1869L45 61L43 67H34V66.1392Z" fill="#E0E0E0"/>
<path d="M78 66.6418C78 64.7649 76.6951 63.1405 74.8623 62.7358L67 61L69 67H78V66.6418Z" fill="#E0E0E0"/>
<path d="M32.2909 79.3022L33.2265 66.914C33.3342 65.488 34.4335 64.3363 35.853 64.1623L36.75 64.0523C38.269 63.8661 39.7249 63.3337 41.0057 62.4963L41.7981 61.9782C42.7742 61.3399 43.9153 61 45.0816 61H66.4333C67.4606 61 68.4706 61.2637 69.3667 61.7659L71.2235 62.8066C72.3577 63.4422 73.605 63.8506 74.8956 64.0088L76.147 64.1623C77.5665 64.3363 78.6658 65.488 78.7735 66.914L79.7091 79.3022C79.8804 81.5709 78.4986 83.6692 76.3467 84.4079L74.7201 84.9663C68.8687 86.9749 62.7249 88 56.5384 88H55.4616C49.2751 88 43.1313 86.9749 37.2799 84.9663L35.6533 84.4079C33.5014 83.6692 32.1196 81.5709 32.2909 79.3022Z" fill="#7E64B9"/>
<path d="M65.6611 65H46.338C44.7458 65 43.4309 66.2438 43.3426 67.8336L43 74C43 76.0173 43.0309 78.3634 43.0615 80.1936C43.092 82.0183 44.3628 83.5862 46.153 83.941C47.4392 84.1958 48.915 84.4603 50.1148 84.5994C54.7223 85.1335 57.396 85.1335 62.0035 84.5994C63.1809 84.4629 64.624 84.2057 65.893 83.9553C67.717 83.5953 68.9969 81.9778 68.9969 80.1186L68.9969 74L68.6565 67.8346C68.5687 66.2444 67.2537 65 65.6611 65Z" fill="#333333"/>
<rect x="45" y="67" width="22" height="15" rx="1" fill="#828282"/>
<rect x="45.5" y="67.5" width="21" height="14" rx="0.5" stroke="black" stroke-opacity="0.3"/>
<path d="M71 78.5L76 77M71 80L76 78.5M71 81.5L76 80M71 83L76 81.5" stroke="black" stroke-opacity="0.4" stroke-linecap="round"/>
<path d="M37.3333 69C37.1492 69 37 69.1492 37 69.3333V71H35.3333C35.1492 71 35 71.1492 35 71.3333V72.6667C35 72.8508 35.1492 73 35.3333 73H37V74.6667C37 74.8508 37.1492 75 37.3333 75H38.6667C38.8508 75 39 74.8508 39 74.6667V73H40.6667C40.8508 73 41 72.8508 41 72.6667V71.3333C41 71.1492 40.8508 71 40.6667 71H39V69.3333C39 69.1492 38.8508 69 38.6667 69H37.3333Z" fill="#E0E0E0"/>
<path d="M37.3333 68.75C37.0112 68.75 36.75 69.0112 36.75 69.3333V70.75H35.3333C35.0112 70.75 34.75 71.0112 34.75 71.3333V72.6667C34.75 72.9888 35.0112 73.25 35.3333 73.25H36.75V74.6667C36.75 74.9888 37.0112 75.25 37.3333 75.25H38.6667C38.9888 75.25 39.25 74.9888 39.25 74.6667V73.25H40.6667C40.9888 73.25 41.25 72.9888 41.25 72.6667V71.3333C41.25 71.0112 40.9888 70.75 40.6667 70.75H39.25V69.3333C39.25 69.0112 38.9888 68.75 38.6667 68.75H37.3333Z" stroke="black" stroke-opacity="0.3" stroke-width="0.5"/>
<circle cx="38" cy="72" r="1" fill="#BDBDBD"/>
<path d="M38.3953 75.8142C37.7404 75.5959 37.0325 75.9498 36.8142 76.6047C36.5959 77.2597 36.9498 77.9676 37.6047 78.1859L40.6047 79.1859C41.2597 79.4042 41.9676 79.0502 42.1859 78.3953C42.4042 77.7404 42.0502 77.0325 41.3953 76.8142L38.3953 75.8142ZM38.3953 78.8142C37.7404 78.5959 37.0325 78.9498 36.8142 79.6047C36.5959 80.2597 36.9498 80.9676 37.6047 81.1859L40.6047 82.1859C41.2597 82.4042 41.9676 82.0502 42.1859 81.3953C42.4042 80.7404 42.0502 80.0325 41.3953 79.8142L38.3953 78.8142Z" stroke="black" stroke-opacity="0.3" stroke-width="0.5" stroke-linecap="round" stroke-linejoin="round"/>
<circle cx="41" cy="78" r="1" fill="#E0E0E0"/>
<circle cx="41" cy="78" r="1.25" stroke="black" stroke-opacity="0.3" stroke-width="0.5"/>
<circle cx="41" cy="81" r="1" fill="#E0E0E0"/>
<circle cx="41" cy="81" r="1.25" stroke="black" stroke-opacity="0.3" stroke-width="0.5"/>
<circle cx="71.5" cy="73.5" r="1.5" fill="#E0E0E0"/>
<circle cx="71.5" cy="73.5" r="1.75" stroke="black" stroke-opacity="0.3" stroke-width="0.5"/>
<circle cx="75.5" cy="71.5" r="1.5" fill="#E0E0E0"/>
<circle cx="75.5" cy="71.5" r="1.75" stroke="black" stroke-opacity="0.3" stroke-width="0.5"/>
<path d="M50.5974 78.8535C48.5115 78.4162 46.7297 78.179 43.8712 78.9412C41.0584 79.6913 37.9702 82.3142 35.598 85.8917C33.215 89.4855 31.5 94.1211 31.5 99C31.5 101.66 32.8377 103.561 34.4316 104.78C36.0066 105.984 37.8758 106.559 39.0588 106.559C40.1541 106.559 41.2038 106.197 42.234 105.668C43.2557 105.143 44.2966 104.432 45.3709 103.699L45.3878 103.687C48.2886 101.707 51.5391 99.5 56 99.5C60.4609 99.5 63.7114 101.707 66.6122 103.687L66.6291 103.699C67.7034 104.432 68.7443 105.143 69.766 105.668C70.7962 106.197 71.8459 106.559 72.9412 106.559C74.1242 106.559 75.9934 105.984 77.5684 104.78C79.1623 103.561 80.5 101.66 80.5 99C80.5 94.1211 78.785 89.4855 76.402 85.8917C74.0298 82.3142 70.9416 79.6913 68.1288 78.9412C65.2703 78.179 63.4885 78.4162 61.4026 78.8535C59.9315 79.1619 58.3159 79.5 56 79.5C53.6841 79.5 52.0685 79.1619 50.5974 78.8535Z" fill="#4F4F4F" stroke="#333333"/>
<path d="M66.6948 103.138C67.464 102.736 68.2533 102.407 69.0589 102.176C76.4706 100.059 78.8461 94.6033 76.1177 88.6008C72.9091 81.542 64.4706 81.542 56 81.542C47.5294 81.542 39.0909 81.542 35.8824 88.6008C33.154 94.6033 35.5294 100.059 42.9412 102.176C43.7468 102.407 44.536 102.736 45.3053 103.138C48.1523 101.196 51.4723 99 56 99C60.5278 99 63.8477 101.196 66.6948 103.138Z" fill="#828282" fill-opacity="0.4"/>
<path d="M56 96.1596C56.6455 96.1596 57.2547 96.0299 57.721 95.7967C58.1574 95.5785 58.6176 95.1846 58.6176 94.6008C58.6176 94.017 58.1574 93.6231 57.721 93.4049C57.2547 93.1718 56.6455 93.042 56 93.042C55.3544 93.042 54.7452 93.1718 54.279 93.4049C53.8426 93.6231 53.3823 94.017 53.3823 94.6008C53.3823 95.1846 53.8426 95.5785 54.279 95.7967C54.7452 96.0299 55.3544 96.1596 56 96.1596Z" fill="#828282" stroke="#333333"/>
<path d="M70.1176 89.1008C71.1735 89.1008 72.0294 88.2449 72.0294 87.189C72.0294 86.1332 71.1735 85.2773 70.1176 85.2773C69.0618 85.2773 68.2059 86.1332 68.2059 87.189C68.2059 87.3661 68.2299 87.5374 68.2749 87.7001C67.9529 87.0984 67.3184 86.689 66.5882 86.689C65.5324 86.689 64.6764 87.545 64.6764 88.6008C64.6764 88.7778 64.7005 88.9492 64.7455 89.1119C64.4235 88.5102 63.789 88.1008 63.0588 88.1008C62.003 88.1008 61.147 88.9567 61.147 90.0126C61.147 91.0684 62.003 91.9243 63.0588 91.9243C64.1146 91.9243 64.9706 91.0684 64.9706 90.0126C64.9706 89.8356 64.9465 89.6642 64.9015 89.5015C65.2235 90.1032 65.858 90.5126 66.5882 90.5126C67.644 90.5126 68.5 89.6567 68.5 88.6008C68.5 88.4238 68.4759 88.2524 68.4309 88.0897C68.7529 88.6915 69.3874 89.1008 70.1176 89.1008ZM73.647 93.3361C75.0927 93.3361 76.2647 92.1641 76.2647 90.7185C76.2647 89.2728 75.0927 88.1008 73.647 88.1008C72.2013 88.1008 71.0294 89.2728 71.0294 90.7185C71.0294 92.1641 72.2013 93.3361 73.647 93.3361ZM68.7059 95.4538C70.1515 95.4538 71.3235 94.2818 71.3235 92.8361C71.3235 91.3904 70.1515 90.2185 68.7059 90.2185C67.2602 90.2185 66.0882 91.3904 66.0882 92.8361C66.0882 94.2818 67.2602 95.4538 68.7059 95.4538ZM63.7647 97.5714C65.2104 97.5714 66.3823 96.3994 66.3823 94.9538C66.3823 93.5081 65.2104 92.3361 63.7647 92.3361C62.319 92.3361 61.147 93.5081 61.147 94.9538C61.147 96.3994 62.319 97.5714 63.7647 97.5714Z" fill="#828282" stroke="#333333"/>
<circle cx="63.7647" cy="94.9538" r="2.11765" fill="#828282"/>
<circle cx="68.7059" cy="92.8361" r="2.11765" fill="#828282"/>
<circle cx="73.6471" cy="90.7185" r="2.11765" fill="#828282"/>
<circle cx="63.0588" cy="90.0126" r="1.41176" fill="#828282"/>
<circle cx="66.5882" cy="88.6008" r="1.41176" fill="#828282"/>
<circle cx="70.1176" cy="87.189" r="1.41176" fill="#828282"/>
<path d="M48.2899 95.0084C51.1565 92.1418 51.7822 87.8214 49.3396 85.3788C46.897 82.9362 42.5766 83.5619 39.71 86.4285C36.8435 89.295 36.2177 93.6155 38.6603 96.0581C41.1029 98.5007 45.4234 97.8749 48.2899 95.0084Z" fill="#4F4F4F" stroke="#4F4F4F"/>
<path d="M44 96.1596C47.0051 96.1596 49.4412 93.7235 49.4412 90.7185C49.4412 87.7134 47.0051 85.2773 44 85.2773C40.9949 85.2773 38.5588 87.7134 38.5588 90.7185C38.5588 93.7235 40.9949 96.1596 44 96.1596Z" fill="#4F4F4F" stroke="#333333"/>
<path d="M49.3179 91.875C49.3987 91.5018 49.4412 91.1148 49.4412 90.7185C49.4412 90.3221 49.3987 89.9351 49.3179 89.5619C49.2165 89.0935 48.7968 88.8067 48.3637 88.8067H46.8235C46.32 88.8067 45.9118 88.3985 45.9118 87.8949V86.3548C45.9118 85.9217 45.625 85.502 45.1565 85.4006C44.7834 85.3197 44.3964 85.2773 44 85.2773C43.6037 85.2773 43.2167 85.3197 42.8435 85.4006C42.3751 85.502 42.0882 85.9217 42.0882 86.3548V87.8949C42.0882 88.3985 41.68 88.8067 41.1765 88.8067H39.6363C39.2032 88.8067 38.7835 89.0935 38.6821 89.5619C38.6013 89.9351 38.5588 90.3221 38.5588 90.7185C38.5588 91.1148 38.6013 91.5018 38.6821 91.875C38.7835 92.3434 39.2032 92.6302 39.6363 92.6302H41.1765C41.68 92.6302 42.0882 93.0384 42.0882 93.542V95.0821C42.0882 95.5152 42.3751 95.9349 42.8435 96.0364C43.2167 96.1172 43.6037 96.1596 44 96.1596C44.3964 96.1596 44.7834 96.1172 45.1565 96.0364C45.625 95.9349 45.9118 95.5152 45.9118 95.0821V93.542C45.9118 93.0384 46.32 92.6302 46.8235 92.6302H48.3637C48.7968 92.6302 49.2165 92.3434 49.3179 91.875Z" fill="#828282" stroke="#333333"/>
<circle cx="44" cy="90.7185" r="0.911765" stroke="#333333"/>
</g>
<defs>
<clipPath id="clip0_116_82">
<rect width="112" height="160" rx="6" fill="white"/>
</clipPath>
</defs>
</svg>
