<svg width="112" height="160" viewBox="0 0 112 160" fill="none" xmlns="http://www.w3.org/2000/svg">
<g clip-path="url(#clip0_24_455)">
<path d="M1 7C1 3.6863 3.68629 1 7 1H105C108.314 1 111 3.68629 111 7V152C111 155.314 108.314 158 105 158H7C3.68629 158 1 155.314 1 152V7Z" fill="#393B4E"/>
<path fill-rule="evenodd" clip-rule="evenodd" d="M7 0C3.13401 0 0 3.13401 0 7V153C0 156.866 3.13401 160 7 160H105C108.866 160 112 156.866 112 153V7C112 3.13401 108.866 0 105 0H7ZM7 1C3.68629 1 1 3.68629 1 7C1 7 1 7 1 7V152C1 152.165 1.00666 152.328 1.01973 152.49C1.2691 155.575 3.85131 158 7 158H105C108.149 158 110.731 155.575 110.98 152.49C110.993 152.328 111 152.165 111 152V7C111 3.68629 108.314 1 105 1H7Z" fill="black" fill-opacity="0.3"/>
<rect x="32.5" y="90.5" width="58" height="47" rx="5.5" transform="rotate(-90 32.5 90.5)" fill="#BDBDBD" stroke="#333333"/>
<path d="M63 106C64.6569 106 66 105.105 66 104V103H65.5987C65.0799 102.402 64.1104 102 63 102C61.8896 102 60.9201 102.402 60.4013 103H60V104C60 105.105 61.3431 106 63 106Z" fill="#C03535"/>
<path d="M70 105C71.6569 105 73 104.105 73 103V102H72.5987C72.0799 101.402 71.1104 101 70 101C68.8896 101 67.9201 101.402 67.4013 102H67V103C67 104.105 68.3431 105 70 105Z" fill="#C03535"/>
<path d="M77 104C78.6569 104 80 103.105 80 102V101H79.5987C79.0799 100.402 78.1104 100 77 100C75.8896 100 74.9201 100.402 74.4013 101H74V102C74 103.105 75.3431 104 77 104Z" fill="#C03535"/>
<path d="M76 99C77.6569 99 79 98.1046 79 97V96H78.5987C78.0799 95.4022 77.1104 95 76 95C74.8896 95 73.9201 95.4022 73.4013 96H73V97C73 98.1046 74.3431 99 76 99Z" fill="#C03535"/>
<path d="M69 100C70.6569 100 72 99.1046 72 98V97H71.5987C71.0799 96.4022 70.1104 96 69 96C67.8896 96 66.9201 96.4022 66.4013 97H66V98C66 99.1046 67.3431 100 69 100Z" fill="#C03535"/>
<path d="M62 101C63.6569 101 65 100.105 65 99V98H64.5987C64.0799 97.4022 63.1104 97 62 97C60.8896 97 59.9201 97.4022 59.4013 98H59V99C59 100.105 60.3431 101 62 101Z" fill="#C03535"/>
<ellipse cx="62" cy="98" rx="3" ry="2" fill="#EB5757"/>
<ellipse cx="63" cy="103" rx="3" ry="2" fill="#EB5757"/>
<ellipse cx="70" cy="102" rx="3" ry="2" fill="#EB5757"/>
<ellipse cx="77" cy="101" rx="3" ry="2" fill="#EB5757"/>
<ellipse cx="69" cy="97" rx="3" ry="2" fill="#EB5757"/>
<ellipse cx="76" cy="96" rx="3" ry="2" fill="#EB5757"/>
<path d="M73.5 102C73.5 102.771 73.969 103.409 74.6013 103.83C75.2371 104.254 76.0866 104.5 77 104.5C77.9134 104.5 78.7629 104.254 79.3987 103.83C80.031 103.409 80.5 102.771 80.5 102V101C80.5 100.229 80.031 99.5913 79.3987 99.1698C79.1387 98.9965 78.8431 98.8529 78.5219 98.7438C79.091 98.3238 79.5 97.7204 79.5 97V96C79.5 95.2285 79.031 94.5913 78.3987 94.1698C77.7629 93.7459 76.9134 93.5 76 93.5C75.0866 93.5 74.2371 93.7459 73.6013 94.1698C72.969 94.5913 72.5 95.2285 72.5 96V97M73.5 102V101C73.5 100.28 73.909 99.6762 74.4781 99.2562C74.1569 99.1471 73.8613 99.0035 73.6013 98.8302C72.969 98.4087 72.5 97.7715 72.5 97M73.5 102C73.5 101.229 73.031 100.591 72.3987 100.17C72.1387 99.9965 71.8431 99.8529 71.5219 99.7438C72.091 99.3238 72.5 98.7204 72.5 98V97M73.5 102V103C73.5 103.771 73.031 104.409 72.3987 104.83C71.7629 105.254 70.9134 105.5 70 105.5C69.0866 105.5 68.2371 105.254 67.6013 104.83C66.969 104.409 66.5 103.771 66.5 103M72.5 97C72.5 96.2285 72.031 95.5913 71.3987 95.1698C70.7629 94.7459 69.9134 94.5 69 94.5C68.0866 94.5 67.2371 94.7459 66.6013 95.1698C65.969 95.5913 65.5 96.2285 65.5 97V98M66.5 103V102C66.5 101.28 66.909 100.676 67.4781 100.256C67.1569 100.147 66.8613 100.004 66.6013 99.8302C65.969 99.4087 65.5 98.7715 65.5 98M66.5 103C66.5 102.229 66.031 101.591 65.3987 101.17C65.1387 100.996 64.8431 100.853 64.5219 100.744C65.091 100.324 65.5 99.7204 65.5 99V98M66.5 103V104C66.5 104.771 66.031 105.409 65.3987 105.83C64.7629 106.254 63.9134 106.5 63 106.5C62.0866 106.5 61.2371 106.254 60.6013 105.83C59.969 105.409 59.5 104.771 59.5 104V103C59.5 102.28 59.909 101.676 60.4781 101.256C60.1569 101.147 59.8613 101.004 59.6013 100.83C58.969 100.409 58.5 99.7715 58.5 99V98C58.5 97.2285 58.969 96.5913 59.6013 96.1698C60.2371 95.7459 61.0866 95.5 62 95.5C62.9134 95.5 63.7629 95.7459 64.3987 96.1698C65.031 96.5913 65.5 97.2285 65.5 98" stroke="#333333"/>
<rect x="34" y="34" width="44" height="1" fill="#333333" fill-opacity="0.3"/>
<rect x="33" y="36" width="46" height="1" fill="#333333" fill-opacity="0.3"/>
<rect x="33" y="38" width="46" height="1" fill="#333333" fill-opacity="0.3"/>
<rect x="33" y="40" width="46" height="1" fill="#333333" fill-opacity="0.3"/>
<rect x="33" y="42" width="46" height="1" fill="#333333" fill-opacity="0.3"/>
<rect x="33" y="44" width="46" height="1" fill="#333333" fill-opacity="0.3"/>
<rect x="33" y="46" width="46" height="1" fill="#333333" fill-opacity="0.3"/>
<rect x="33" y="48" width="46" height="1" fill="#333333" fill-opacity="0.3"/>
<rect x="33" y="50" width="46" height="1" fill="#333333" fill-opacity="0.3"/>
<rect x="33" y="52" width="46" height="1" fill="#333333" fill-opacity="0.3"/>
<rect x="33" y="54" width="46" height="1" fill="#333333" fill-opacity="0.3"/>
<rect x="33" y="56" width="46" height="1" fill="#333333" fill-opacity="0.3"/>
<rect x="33" y="58" width="46" height="1" fill="#333333" fill-opacity="0.3"/>
<rect x="33" y="60" width="46" height="1" fill="#333333" fill-opacity="0.3"/>
<rect x="33" y="62" width="46" height="1" fill="#333333" fill-opacity="0.3"/>
<rect x="33" y="64" width="46" height="1" fill="#333333" fill-opacity="0.3"/>
<rect x="33" y="66" width="46" height="1" fill="#333333" fill-opacity="0.3"/>
<rect x="33" y="68" width="46" height="1" fill="#333333" fill-opacity="0.3"/>
<rect x="33" y="70" width="46" height="1" fill="#333333" fill-opacity="0.3"/>
<rect x="33" y="72" width="46" height="1" fill="#333333" fill-opacity="0.3"/>
<rect x="33" y="74" width="46" height="1" fill="#333333" fill-opacity="0.3"/>
<rect x="33" y="76" width="46" height="1" fill="#333333" fill-opacity="0.3"/>
<rect x="33" y="78" width="46" height="1" fill="#333333" fill-opacity="0.3"/>
<rect x="33" y="80" width="46" height="1" fill="#333333" fill-opacity="0.3"/>
<rect x="33" y="82" width="46" height="1" fill="#333333" fill-opacity="0.3"/>
<rect x="33" y="84" width="46" height="1" fill="#333333" fill-opacity="0.3"/>
<rect x="33" y="86" width="46" height="1" fill="#333333" fill-opacity="0.3"/>
<rect x="34" y="88" width="44" height="1" fill="#333333" fill-opacity="0.3"/>
<ellipse cx="37" cy="103.5" rx="5" ry="2.5" fill="#4F4F4F"/>
<ellipse cx="37" cy="103" rx="2" ry="1" fill="#333333"/>
<rect x="36" y="95" width="2" height="8" fill="#BDBDBD"/>
<rect x="36" y="95" width="2" height="2" fill="#828282"/>
<circle cx="37" cy="91" r="5" fill="#C03535"/>
<path d="M42 90C42 92.7614 39.7614 95 37 95C34.2386 95 32 92.7614 32 90C32 87.2386 34.2386 85 37 85C39.7614 85 42 87.2386 42 90Z" fill="#EB5757"/>
<circle cx="36" cy="88" r="1" fill="#F08484"/>
<path d="M38.5 96.2928C40.8085 95.6398 42.5 93.5179 42.5 91C42.5 87.9624 40.0376 85.5 37 85.5C33.9624 85.5 31.5 87.9624 31.5 91C31.5 93.5179 33.1915 95.6398 35.5 96.2928V100.609C34.4861 100.759 33.5781 101.061 32.8854 101.481C32.1071 101.951 31.5 102.639 31.5 103.5C31.5 104.482 32.2829 105.236 33.2409 105.715C34.2287 106.209 35.5585 106.5 37 106.5C38.4415 106.5 39.7713 106.209 40.7591 105.715C41.7171 105.236 42.5 104.482 42.5 103.5C42.5 102.639 41.8929 101.951 41.1146 101.481C40.4219 101.061 39.5139 100.759 38.5 100.609V96.2928Z" stroke="#333333"/>
<path d="M40.8534 118.03L37.2004 126.493C37.0704 126.831 36.8321 127 36.4854 127H34.6784C34.5051 127 34.3578 126.944 34.2364 126.831C34.1238 126.718 34.0588 126.58 34.0414 126.415L32.7544 118.03H34.7564L35.4844 124.452C35.5018 124.634 35.5148 124.816 35.5234 124.998C35.5408 125.18 35.5494 125.358 35.5494 125.531H35.8874C35.9308 125.349 35.9828 125.171 36.0434 124.998C36.1041 124.816 36.1691 124.638 36.2384 124.465L38.7604 118.03H40.8534ZM43.9417 120.409C44.7304 120.409 45.3371 120.496 45.7617 120.669C46.1951 120.834 46.4854 121.085 46.6327 121.423C46.7801 121.752 46.8147 122.16 46.7367 122.645C46.6761 123.044 46.5417 123.36 46.3337 123.594C46.1344 123.819 45.8571 123.988 45.5017 124.101C45.1464 124.214 44.6957 124.292 44.1497 124.335L40.8737 124.608L41.0167 123.542L43.7727 123.269C44.0067 123.243 44.1974 123.208 44.3447 123.165C44.5007 123.113 44.6221 123.035 44.7087 122.931C44.7954 122.818 44.8517 122.662 44.8777 122.463C44.9124 122.255 44.8994 122.099 44.8387 121.995C44.7781 121.891 44.6697 121.826 44.5137 121.8C44.3577 121.765 44.1497 121.752 43.8897 121.761C43.6211 121.761 43.3957 121.787 43.2137 121.839C43.0317 121.891 42.8801 121.986 42.7587 122.125C42.6374 122.255 42.5377 122.446 42.4597 122.697C42.3817 122.94 42.3081 123.256 42.2387 123.646C42.1521 124.209 42.1391 124.634 42.1997 124.92C42.2604 125.206 42.3947 125.397 42.6027 125.492C42.8107 125.587 43.1011 125.635 43.4737 125.635C43.6817 125.635 43.9331 125.631 44.2277 125.622C44.5224 125.605 44.8214 125.587 45.1247 125.57C45.4367 125.544 45.7184 125.518 45.9697 125.492L46.0997 126.688C45.8397 126.801 45.5451 126.892 45.2157 126.961C44.8864 127.03 44.5527 127.078 44.2147 127.104C43.8767 127.139 43.5604 127.156 43.2657 127.156C42.4077 127.156 41.7404 127.026 41.2637 126.766C40.7957 126.506 40.4837 126.12 40.3277 125.609C40.1717 125.089 40.1371 124.452 40.2237 123.698C40.3017 123.031 40.4317 122.485 40.6137 122.06C40.8044 121.635 41.0471 121.306 41.3417 121.072C41.6451 120.829 42.0134 120.66 42.4467 120.565C42.8801 120.461 43.3784 120.409 43.9417 120.409ZM49.7586 120.578L49.7716 122.112L49.9406 122.294L49.2906 127H47.3666L48.2636 120.578H49.7586ZM52.9046 120.409L52.4886 122.19H52.0206C51.7173 122.19 51.388 122.259 51.0326 122.398C50.686 122.528 50.2483 122.727 49.7196 122.996L49.6416 121.865C50.153 121.388 50.6513 121.029 51.1366 120.786C51.622 120.535 52.0813 120.409 52.5146 120.409H52.9046ZM56.5421 118.797L55.6581 124.985C55.6234 125.219 55.6451 125.379 55.7231 125.466C55.8011 125.553 55.9658 125.596 56.2171 125.596H57.0881L57.1791 126.909C57.0144 126.961 56.8151 127.004 56.5811 127.039C56.3558 127.082 56.1348 127.113 55.9181 127.13C55.7014 127.147 55.5238 127.156 55.3851 127.156C54.7871 127.156 54.3321 126.996 54.0201 126.675C53.7168 126.346 53.6084 125.904 53.6951 125.349L54.6441 118.797H56.5421ZM58.0761 120.578L57.8941 121.839H53.0581L53.2141 120.643L54.4621 120.578H58.0761ZM61.0557 120.578L60.1587 127H58.2477L59.1447 120.578H61.0557ZM60.8607 117.744C61.0687 117.744 61.2161 117.796 61.3027 117.9C61.3981 118.004 61.4327 118.16 61.4067 118.368L61.3157 119.057C61.2637 119.421 61.0514 119.603 60.6787 119.603H59.8987C59.4827 119.603 59.2964 119.395 59.3397 118.979L59.4437 118.29C59.4784 117.926 59.6864 117.744 60.0677 117.744H60.8607ZM65.4938 120.409C65.9011 120.409 66.3345 120.444 66.7938 120.513C67.2531 120.574 67.6561 120.678 68.0028 120.825L67.7298 122.008C67.3485 121.991 66.9845 121.982 66.6378 121.982C66.2911 121.973 65.9965 121.969 65.7538 121.969C65.3725 121.969 65.0605 122.021 64.8178 122.125C64.5751 122.229 64.3888 122.415 64.2588 122.684C64.1288 122.944 64.0335 123.312 63.9728 123.789C63.9035 124.292 63.8948 124.673 63.9468 124.933C63.9988 125.193 64.1245 125.371 64.3238 125.466C64.5318 125.561 64.8221 125.609 65.1948 125.609C65.3508 125.609 65.5371 125.605 65.7538 125.596C65.9791 125.587 66.2218 125.579 66.4818 125.57C66.7418 125.553 66.9931 125.527 67.2358 125.492L67.3658 126.74C66.9931 126.887 66.5815 126.991 66.1308 127.052C65.6888 127.121 65.2641 127.156 64.8568 127.156C64.1028 127.156 63.4918 127.043 63.0238 126.818C62.5558 126.584 62.2308 126.216 62.0488 125.713C61.8755 125.202 61.8451 124.534 61.9578 123.711C62.0791 122.914 62.2655 122.277 62.5168 121.8C62.7768 121.315 63.1451 120.964 63.6218 120.747C64.1071 120.522 64.7311 120.409 65.4938 120.409ZM72.2916 120.409C72.5169 120.409 72.7683 120.422 73.0456 120.448C73.3316 120.465 73.6176 120.491 73.9036 120.526C74.1983 120.561 74.4713 120.6 74.7226 120.643C74.9826 120.686 75.1949 120.73 75.3596 120.773L74.0466 121.813C73.6999 121.796 73.3836 121.787 73.0976 121.787C72.8116 121.778 72.5429 121.774 72.2916 121.774C72.0056 121.774 71.7629 121.796 71.5636 121.839C71.3643 121.882 71.1996 121.969 71.0696 122.099C70.9396 122.22 70.8313 122.407 70.7446 122.658C70.6579 122.909 70.5843 123.247 70.5236 123.672C70.4456 124.209 70.4023 124.621 70.3936 124.907C70.3936 125.184 70.4456 125.375 70.5496 125.479C70.6536 125.583 70.8183 125.631 71.0436 125.622C71.2776 125.613 71.5203 125.535 71.7716 125.388C72.0316 125.241 72.2873 125.041 72.5386 124.79C72.7899 124.53 73.0326 124.24 73.2666 123.919L73.6046 124.543C73.4313 125.054 73.1843 125.505 72.8636 125.895C72.5516 126.276 72.1833 126.575 71.7586 126.792C71.3339 127.009 70.8616 127.13 70.3416 127.156C69.7783 127.182 69.3449 127.069 69.0416 126.818C68.7469 126.567 68.5649 126.177 68.4956 125.648C68.4263 125.119 68.4523 124.456 68.5736 123.659C68.6863 122.922 68.8423 122.337 69.0416 121.904C69.2496 121.462 69.5096 121.137 69.8216 120.929C70.1336 120.712 70.4933 120.574 70.9006 120.513C71.3166 120.444 71.7803 120.409 72.2916 120.409ZM73.4616 120.656L75.3596 120.773L74.4886 127H72.9936L73.0196 125.544L72.7856 125.388L73.4616 120.656ZM79.2436 117.9L78.2296 124.985C78.195 125.21 78.221 125.371 78.3076 125.466C78.403 125.553 78.5806 125.596 78.8406 125.596H79.4256L79.5166 126.909C79.4126 126.97 79.261 127.017 79.0616 127.052C78.871 127.087 78.6803 127.113 78.4896 127.13C78.299 127.147 78.143 127.156 78.0216 127.156C77.4063 127.156 76.9426 127 76.6306 126.688C76.3186 126.367 76.1973 125.934 76.2666 125.388L77.3196 117.9H79.2436ZM40.2429 131.03C40.4075 131.03 40.5505 131.086 40.6719 131.199C40.7932 131.303 40.8625 131.433 40.8799 131.589L42.2969 140H40.3079L39.4369 133.396C39.4195 133.24 39.4065 133.088 39.3979 132.941C39.3892 132.794 39.3849 132.651 39.3849 132.512H39.0079C38.9645 132.633 38.9169 132.772 38.8649 132.928C38.8215 133.084 38.7695 133.236 38.7089 133.383L35.9399 140H33.8599L37.6429 131.524C37.7035 131.359 37.7945 131.238 37.9159 131.16C38.0459 131.073 38.1932 131.03 38.3579 131.03H40.2429ZM40.9319 136.126L40.7499 137.66H36.1219L36.3039 136.126H40.9319ZM45.4613 133.578L45.4743 135.112L45.6433 135.294L44.9933 140H43.0693L43.9663 133.578H45.4613ZM48.6073 133.409L48.1913 135.19H47.7233C47.4199 135.19 47.0906 135.259 46.7353 135.398C46.3886 135.528 45.9509 135.727 45.4223 135.996L45.3443 134.865C45.8556 134.388 46.3539 134.029 46.8393 133.786C47.3246 133.535 47.7839 133.409 48.2173 133.409H48.6073ZM52.2589 133.409C52.6663 133.409 53.0996 133.444 53.5589 133.513C54.0183 133.574 54.4213 133.678 54.7679 133.825L54.4949 135.008C54.1136 134.991 53.7496 134.982 53.4029 134.982C53.0563 134.973 52.7616 134.969 52.5189 134.969C52.1376 134.969 51.8256 135.021 51.5829 135.125C51.3403 135.229 51.1539 135.415 51.0239 135.684C50.8939 135.944 50.7986 136.312 50.7379 136.789C50.6686 137.292 50.6599 137.673 50.7119 137.933C50.7639 138.193 50.8896 138.371 51.0889 138.466C51.2969 138.561 51.5873 138.609 51.9599 138.609C52.1159 138.609 52.3023 138.605 52.5189 138.596C52.7443 138.587 52.9869 138.579 53.2469 138.57C53.5069 138.553 53.7583 138.527 54.0009 138.492L54.1309 139.74C53.7583 139.887 53.3466 139.991 52.8959 140.052C52.4539 140.121 52.0293 140.156 51.6219 140.156C50.8679 140.156 50.2569 140.043 49.7889 139.818C49.3209 139.584 48.9959 139.216 48.8139 138.713C48.6406 138.202 48.6103 137.534 48.7229 136.711C48.8443 135.914 49.0306 135.277 49.2819 134.8C49.5419 134.315 49.9103 133.964 50.3869 133.747C50.8723 133.522 51.4963 133.409 52.2589 133.409ZM59.0567 133.409C59.2821 133.409 59.5334 133.422 59.8107 133.448C60.0967 133.465 60.3827 133.491 60.6687 133.526C60.9634 133.561 61.2364 133.6 61.4877 133.643C61.7477 133.686 61.9601 133.73 62.1247 133.773L60.8117 134.813C60.4651 134.796 60.1487 134.787 59.8627 134.787C59.5767 134.778 59.3081 134.774 59.0567 134.774C58.7707 134.774 58.5281 134.796 58.3287 134.839C58.1294 134.882 57.9647 134.969 57.8347 135.099C57.7047 135.22 57.5964 135.407 57.5097 135.658C57.4231 135.909 57.3494 136.247 57.2887 136.672C57.2107 137.209 57.1674 137.621 57.1587 137.907C57.1587 138.184 57.2107 138.375 57.3147 138.479C57.4187 138.583 57.5834 138.631 57.8087 138.622C58.0427 138.613 58.2854 138.535 58.5367 138.388C58.7967 138.241 59.0524 138.041 59.3037 137.79C59.5551 137.53 59.7977 137.24 60.0317 136.919L60.3697 137.543C60.1964 138.054 59.9494 138.505 59.6287 138.895C59.3167 139.276 58.9484 139.575 58.5237 139.792C58.0991 140.009 57.6267 140.13 57.1067 140.156C56.5434 140.182 56.1101 140.069 55.8067 139.818C55.5121 139.567 55.3301 139.177 55.2607 138.648C55.1914 138.119 55.2174 137.456 55.3387 136.659C55.4514 135.922 55.6074 135.337 55.8067 134.904C56.0147 134.462 56.2747 134.137 56.5867 133.929C56.8987 133.712 57.2584 133.574 57.6657 133.513C58.0817 133.444 58.5454 133.409 59.0567 133.409ZM60.2267 133.656L62.1247 133.773L61.2537 140H59.7587L59.7847 138.544L59.5507 138.388L60.2267 133.656ZM65.9308 133.409C66.5201 133.409 67.0964 133.448 67.6598 133.526C68.2231 133.604 68.6868 133.725 69.0508 133.89L68.7778 134.722C68.3878 134.713 68.0324 134.709 67.7118 134.709C67.3911 134.7 67.0661 134.696 66.7368 134.696C66.4334 134.696 66.1778 134.722 65.9698 134.774C65.7704 134.817 65.6101 134.908 65.4888 135.047C65.3674 135.177 65.2678 135.372 65.1898 135.632C65.1118 135.892 65.0424 136.239 64.9818 136.672C64.9211 137.131 64.8908 137.5 64.8908 137.777C64.8908 138.046 64.9384 138.241 65.0338 138.362C65.1291 138.483 65.2894 138.544 65.5148 138.544C65.8874 138.535 66.2384 138.423 66.5678 138.206C66.9058 137.989 67.2698 137.699 67.6598 137.335L68.0108 138.167C67.8808 138.34 67.7074 138.54 67.4908 138.765C67.2828 138.99 67.0358 139.211 66.7498 139.428C66.4724 139.636 66.1691 139.809 65.8398 139.948C65.5104 140.087 65.1594 140.156 64.7868 140.156C64.3014 140.156 63.9071 140.039 63.6038 139.805C63.3091 139.562 63.1098 139.185 63.0058 138.674C62.9104 138.154 62.9191 137.482 63.0318 136.659C63.1271 135.983 63.2571 135.433 63.4218 135.008C63.5951 134.575 63.8031 134.245 64.0458 134.02C64.2971 133.786 64.5788 133.626 64.8908 133.539C65.2028 133.452 65.5494 133.409 65.9308 133.409ZM70.2468 130.9L68.9728 140H67.4518V138.414L67.2828 138.297L67.8808 133.851L67.9978 133.643C67.9978 133.418 68.0064 133.197 68.0238 132.98C68.0411 132.763 68.0671 132.534 68.1018 132.291L68.3228 130.9H70.2468ZM74.4422 133.409C75.2309 133.409 75.8376 133.496 76.2622 133.669C76.6956 133.834 76.9859 134.085 77.1332 134.423C77.2806 134.752 77.3152 135.16 77.2372 135.645C77.1766 136.044 77.0422 136.36 76.8342 136.594C76.6349 136.819 76.3576 136.988 76.0022 137.101C75.6469 137.214 75.1962 137.292 74.6502 137.335L71.3742 137.608L71.5172 136.542L74.2732 136.269C74.5072 136.243 74.6979 136.208 74.8452 136.165C75.0012 136.113 75.1226 136.035 75.2092 135.931C75.2959 135.818 75.3522 135.662 75.3782 135.463C75.4129 135.255 75.3999 135.099 75.3392 134.995C75.2786 134.891 75.1702 134.826 75.0142 134.8C74.8582 134.765 74.6502 134.752 74.3902 134.761C74.1216 134.761 73.8962 134.787 73.7142 134.839C73.5322 134.891 73.3806 134.986 73.2592 135.125C73.1379 135.255 73.0382 135.446 72.9602 135.697C72.8822 135.94 72.8086 136.256 72.7392 136.646C72.6526 137.209 72.6396 137.634 72.7002 137.92C72.7609 138.206 72.8952 138.397 73.1032 138.492C73.3112 138.587 73.6016 138.635 73.9742 138.635C74.1822 138.635 74.4336 138.631 74.7282 138.622C75.0229 138.605 75.3219 138.587 75.6252 138.57C75.9372 138.544 76.2189 138.518 76.4702 138.492L76.6002 139.688C76.3402 139.801 76.0456 139.892 75.7162 139.961C75.3869 140.03 75.0532 140.078 74.7152 140.104C74.3772 140.139 74.0609 140.156 73.7662 140.156C72.9082 140.156 72.2409 140.026 71.7642 139.766C71.2962 139.506 70.9842 139.12 70.8282 138.609C70.6722 138.089 70.6376 137.452 70.7242 136.698C70.8022 136.031 70.9322 135.485 71.1142 135.06C71.3049 134.635 71.5476 134.306 71.8422 134.072C72.1456 133.829 72.5139 133.66 72.9472 133.565C73.3806 133.461 73.8789 133.409 74.4422 133.409Z" fill="white"/>
</g>
<defs>
<clipPath id="clip0_24_455">
<rect width="112" height="160" rx="6" fill="white"/>
</clipPath>
</defs>
</svg>
