<svg width="112" height="160" viewBox="0 0 112 160" fill="none" xmlns="http://www.w3.org/2000/svg">
<g clip-path="url(#clip0_24_181)">
<path d="M1 7C1 3.6863 3.68629 1 7 1H105C108.314 1 111 3.68629 111 7V152C111 155.314 108.314 158 105 158H7C3.68629 158 1 155.314 1 152V7Z" fill="#393B4E"/>
<path fill-rule="evenodd" clip-rule="evenodd" d="M7 0C3.13401 0 0 3.13401 0 7V153C0 156.866 3.13401 160 7 160H105C108.866 160 112 156.866 112 153V7C112 3.13401 108.866 0 105 0H7ZM7 1C3.68629 1 1 3.68629 1 7C1 7 1 7 1 7V152C1 152.165 1.00666 152.328 1.01973 152.49C1.2691 155.575 3.85131 158 7 158H105C108.149 158 110.731 155.575 110.98 152.49C110.993 152.328 111 152.165 111 152V7C111 3.68629 108.314 1 105 1H7Z" fill="black" fill-opacity="0.3"/>
<path d="M23.527 124.03L22.565 130.712C22.539 130.937 22.565 131.111 22.643 131.232C22.7296 131.345 22.8986 131.401 23.15 131.401H26.257L26.218 132.909C25.6373 132.97 25.009 133.004 24.333 133.013C23.657 133.03 22.9896 133.039 22.331 133.039C21.9323 133.039 21.5856 132.957 21.291 132.792C21.005 132.627 20.7926 132.398 20.654 132.103C20.524 131.808 20.4893 131.457 20.55 131.05L21.525 124.03H23.527ZM31.0445 126.409C31.2699 126.409 31.5212 126.422 31.7985 126.448C32.0845 126.465 32.3705 126.491 32.6565 126.526C32.9512 126.561 33.2242 126.6 33.4755 126.643C33.7355 126.686 33.9479 126.73 34.1125 126.773L32.7995 127.813C32.4529 127.796 32.1365 127.787 31.8505 127.787C31.5645 127.778 31.2959 127.774 31.0445 127.774C30.7585 127.774 30.5159 127.796 30.3165 127.839C30.1172 127.882 29.9525 127.969 29.8225 128.099C29.6925 128.22 29.5842 128.407 29.4975 128.658C29.4109 128.909 29.3372 129.247 29.2765 129.672C29.1985 130.209 29.1552 130.621 29.1465 130.907C29.1465 131.184 29.1985 131.375 29.3025 131.479C29.4065 131.583 29.5712 131.631 29.7965 131.622C30.0305 131.613 30.2732 131.535 30.5245 131.388C30.7845 131.241 31.0402 131.041 31.2915 130.79C31.5429 130.53 31.7855 130.24 32.0195 129.919L32.3575 130.543C32.1842 131.054 31.9372 131.505 31.6165 131.895C31.3045 132.276 30.9362 132.575 30.5115 132.792C30.0869 133.009 29.6145 133.13 29.0945 133.156C28.5312 133.182 28.0979 133.069 27.7945 132.818C27.4999 132.567 27.3179 132.177 27.2485 131.648C27.1792 131.119 27.2052 130.456 27.3265 129.659C27.4392 128.922 27.5952 128.337 27.7945 127.904C28.0025 127.462 28.2625 127.137 28.5745 126.929C28.8865 126.712 29.2462 126.574 29.6535 126.513C30.0695 126.444 30.5332 126.409 31.0445 126.409ZM32.2145 126.656L34.1125 126.773L33.2415 133H31.7465L31.7725 131.544L31.5385 131.388L32.2145 126.656ZM38.0616 126.409C38.3822 126.409 38.7246 126.422 39.0886 126.448C39.4526 126.474 39.8036 126.504 40.1416 126.539C40.4882 126.574 40.7872 126.613 41.0386 126.656L40.8566 127.852C40.4406 127.843 40.0246 127.839 39.6086 127.839C39.2012 127.83 38.7852 127.822 38.3606 127.813C38.0312 127.813 37.7669 127.822 37.5676 127.839C37.3769 127.848 37.2382 127.882 37.1516 127.943C37.0649 127.995 37.0129 128.082 36.9956 128.203C36.9782 128.359 37.0216 128.48 37.1256 128.567C37.2382 128.654 37.4289 128.745 37.6976 128.84L39.2966 129.412C39.6346 129.533 39.9119 129.676 40.1286 129.841C40.3452 130.006 40.4969 130.209 40.5836 130.452C40.6789 130.695 40.7049 130.989 40.6616 131.336C40.6009 131.856 40.4362 132.246 40.1676 132.506C39.9076 132.757 39.5566 132.926 39.1146 133.013C38.6812 133.1 38.1526 133.143 37.5286 133.143C37.1906 133.143 36.8742 133.134 36.5796 133.117C36.2936 133.108 35.9946 133.082 35.6826 133.039C35.3792 133.004 35.0369 132.961 34.6556 132.909L34.8246 131.713C34.9892 131.722 35.1886 131.73 35.4226 131.739C35.6652 131.739 35.9166 131.743 36.1766 131.752C36.4452 131.752 36.6966 131.752 36.9306 131.752C37.4246 131.743 37.8016 131.726 38.0616 131.7C38.3216 131.674 38.5036 131.631 38.6076 131.57C38.7202 131.501 38.7896 131.401 38.8156 131.271C38.8329 131.158 38.8156 131.072 38.7636 131.011C38.7202 130.95 38.6379 130.894 38.5166 130.842C38.4039 130.79 38.2479 130.729 38.0486 130.66L36.4886 130.075C36.1332 129.945 35.8472 129.789 35.6306 129.607C35.4226 129.425 35.2796 129.204 35.2016 128.944C35.1322 128.684 35.1192 128.389 35.1626 128.06C35.2146 127.661 35.3446 127.345 35.5526 127.111C35.7606 126.868 36.0682 126.691 36.4756 126.578C36.8829 126.465 37.4116 126.409 38.0616 126.409ZM45.294 124.797L44.41 130.985C44.3754 131.219 44.397 131.379 44.475 131.466C44.553 131.553 44.7177 131.596 44.969 131.596H45.84L45.931 132.909C45.7664 132.961 45.567 133.004 45.333 133.039C45.1077 133.082 44.8867 133.113 44.67 133.13C44.4534 133.147 44.2757 133.156 44.137 133.156C43.539 133.156 43.084 132.996 42.772 132.675C42.4687 132.346 42.3604 131.904 42.447 131.349L43.396 124.797H45.294ZM46.828 126.578L46.646 127.839H41.81L41.966 126.643L43.214 126.578H46.828ZM54.4593 123.9C55.2653 123.9 55.9023 123.995 56.3703 124.186C56.8383 124.368 57.1547 124.68 57.3193 125.122C57.4927 125.555 57.523 126.153 57.4103 126.916C57.3063 127.679 57.1287 128.268 56.8773 128.684C56.6347 129.091 56.288 129.373 55.8373 129.529C55.3867 129.685 54.793 129.763 54.0563 129.763C53.6663 129.763 53.285 129.746 52.9123 129.711C52.5397 129.676 52.1887 129.633 51.8593 129.581C51.5387 129.52 51.2657 129.46 51.0403 129.399C50.815 129.338 50.659 129.286 50.5723 129.243L50.6503 128.268C51.1703 128.268 51.712 128.268 52.2753 128.268C52.8387 128.268 53.3847 128.268 53.9133 128.268C54.26 128.268 54.533 128.229 54.7323 128.151C54.9317 128.073 55.0877 127.926 55.2003 127.709C55.313 127.492 55.3953 127.176 55.4473 126.76C55.4993 126.405 55.4993 126.127 55.4473 125.928C55.404 125.729 55.2957 125.59 55.1223 125.512C54.9577 125.434 54.7193 125.395 54.4073 125.395C53.6013 125.395 52.9123 125.404 52.3403 125.421C51.7683 125.43 51.3827 125.443 51.1833 125.46L51.1313 124.03C51.4867 123.987 51.8203 123.956 52.1323 123.939C52.4443 123.922 52.7823 123.913 53.1463 123.913C53.5103 123.904 53.948 123.9 54.4593 123.9ZM53.1073 124.03L51.8463 133H49.8703L51.1313 124.03H53.1073ZM60.937 123.9L59.923 130.985C59.8883 131.21 59.9143 131.371 60.001 131.466C60.0963 131.553 60.274 131.596 60.534 131.596H61.119L61.21 132.909C61.106 132.97 60.9543 133.017 60.755 133.052C60.5643 133.087 60.3737 133.113 60.183 133.13C59.9923 133.147 59.8363 133.156 59.715 133.156C59.0997 133.156 58.636 133 58.324 132.688C58.012 132.367 57.8907 131.934 57.96 131.388L59.013 123.9H60.937ZM65.9439 126.409C66.1693 126.409 66.4206 126.422 66.6979 126.448C66.9839 126.465 67.2699 126.491 67.5559 126.526C67.8506 126.561 68.1236 126.6 68.3749 126.643C68.6349 126.686 68.8473 126.73 69.0119 126.773L67.6989 127.813C67.3523 127.796 67.0359 127.787 66.7499 127.787C66.4639 127.778 66.1953 127.774 65.9439 127.774C65.6579 127.774 65.4153 127.796 65.2159 127.839C65.0166 127.882 64.8519 127.969 64.7219 128.099C64.5919 128.22 64.4836 128.407 64.3969 128.658C64.3103 128.909 64.2366 129.247 64.1759 129.672C64.0979 130.209 64.0546 130.621 64.0459 130.907C64.0459 131.184 64.0979 131.375 64.2019 131.479C64.3059 131.583 64.4706 131.631 64.6959 131.622C64.9299 131.613 65.1726 131.535 65.4239 131.388C65.6839 131.241 65.9396 131.041 66.1909 130.79C66.4423 130.53 66.6849 130.24 66.9189 129.919L67.2569 130.543C67.0836 131.054 66.8366 131.505 66.5159 131.895C66.2039 132.276 65.8356 132.575 65.4109 132.792C64.9863 133.009 64.5139 133.13 63.9939 133.156C63.4306 133.182 62.9973 133.069 62.6939 132.818C62.3993 132.567 62.2173 132.177 62.1479 131.648C62.0786 131.119 62.1046 130.456 62.2259 129.659C62.3386 128.922 62.4946 128.337 62.6939 127.904C62.9019 127.462 63.1619 127.137 63.4739 126.929C63.7859 126.712 64.1456 126.574 64.5529 126.513C64.9689 126.444 65.4326 126.409 65.9439 126.409ZM67.1139 126.656L69.0119 126.773L68.1409 133H66.6459L66.6719 131.544L66.4379 131.388L67.1139 126.656ZM76.926 126.578C76.8567 127.003 76.7613 127.436 76.64 127.878C76.5273 128.32 76.3973 128.758 76.25 129.191C76.1027 129.624 75.9467 130.04 75.782 130.439C75.626 130.829 75.4657 131.193 75.301 131.531C75.145 131.869 74.989 132.168 74.833 132.428C74.3997 133.173 73.949 133.78 73.481 134.248C73.013 134.716 72.5103 135.063 71.973 135.288C71.4357 135.513 70.8463 135.643 70.205 135.678L70.01 134.547C70.3307 134.452 70.634 134.343 70.92 134.222C71.206 134.109 71.479 133.958 71.739 133.767C72.0077 133.576 72.2677 133.321 72.519 133C72.7703 132.671 73.0217 132.25 73.273 131.739C73.533 131.228 73.7583 130.716 73.949 130.205C74.1483 129.694 74.3217 129.143 74.469 128.554C74.625 127.965 74.7637 127.306 74.885 126.578H76.926ZM71.999 126.578L72.545 131.518C72.571 131.665 72.6577 131.739 72.805 131.739H73.533L73.013 133H71.7C71.5007 133 71.3317 132.939 71.193 132.818C71.0543 132.697 70.9677 132.545 70.933 132.363L69.919 126.578H71.999ZM81.1517 126.409C81.9404 126.409 82.547 126.496 82.9717 126.669C83.405 126.834 83.6954 127.085 83.8427 127.423C83.99 127.752 84.0247 128.16 83.9467 128.645C83.886 129.044 83.7517 129.36 83.5437 129.594C83.3444 129.819 83.067 129.988 82.7117 130.101C82.3564 130.214 81.9057 130.292 81.3597 130.335L78.0837 130.608L78.2267 129.542L80.9827 129.269C81.2167 129.243 81.4074 129.208 81.5547 129.165C81.7107 129.113 81.832 129.035 81.9187 128.931C82.0054 128.818 82.0617 128.662 82.0877 128.463C82.1224 128.255 82.1094 128.099 82.0487 127.995C81.988 127.891 81.8797 127.826 81.7237 127.8C81.5677 127.765 81.3597 127.752 81.0997 127.761C80.831 127.761 80.6057 127.787 80.4237 127.839C80.2417 127.891 80.09 127.986 79.9687 128.125C79.8474 128.255 79.7477 128.446 79.6697 128.697C79.5917 128.94 79.518 129.256 79.4487 129.646C79.362 130.209 79.349 130.634 79.4097 130.92C79.4704 131.206 79.6047 131.397 79.8127 131.492C80.0207 131.587 80.311 131.635 80.6837 131.635C80.8917 131.635 81.143 131.631 81.4377 131.622C81.7324 131.605 82.0314 131.587 82.3347 131.57C82.6467 131.544 82.9284 131.518 83.1797 131.492L83.3097 132.688C83.0497 132.801 82.755 132.892 82.4257 132.961C82.0964 133.03 81.7627 133.078 81.4247 133.104C81.0867 133.139 80.7704 133.156 80.4757 133.156C79.6177 133.156 78.9504 133.026 78.4737 132.766C78.0057 132.506 77.6937 132.12 77.5377 131.609C77.3817 131.089 77.347 130.452 77.4337 129.698C77.5117 129.031 77.6417 128.485 77.8237 128.06C78.0144 127.635 78.257 127.306 78.5517 127.072C78.855 126.829 79.2234 126.66 79.6567 126.565C80.09 126.461 80.5884 126.409 81.1517 126.409ZM87.7096 126.409C88.2989 126.409 88.8753 126.448 89.4386 126.526C90.0019 126.604 90.4656 126.725 90.8296 126.89L90.5566 127.722C90.1666 127.713 89.8113 127.709 89.4906 127.709C89.1699 127.7 88.8449 127.696 88.5156 127.696C88.2123 127.696 87.9566 127.722 87.7486 127.774C87.5493 127.817 87.3889 127.908 87.2676 128.047C87.1463 128.177 87.0466 128.372 86.9686 128.632C86.8906 128.892 86.8213 129.239 86.7606 129.672C86.6999 130.131 86.6696 130.5 86.6696 130.777C86.6696 131.046 86.7173 131.241 86.8126 131.362C86.9079 131.483 87.0683 131.544 87.2936 131.544C87.6663 131.535 88.0173 131.423 88.3466 131.206C88.6846 130.989 89.0486 130.699 89.4386 130.335L89.7896 131.167C89.6596 131.34 89.4863 131.54 89.2696 131.765C89.0616 131.99 88.8146 132.211 88.5286 132.428C88.2513 132.636 87.9479 132.809 87.6186 132.948C87.2893 133.087 86.9383 133.156 86.5656 133.156C86.0803 133.156 85.6859 133.039 85.3826 132.805C85.0879 132.562 84.8886 132.185 84.7846 131.674C84.6893 131.154 84.6979 130.482 84.8106 129.659C84.9059 128.983 85.0359 128.433 85.2006 128.008C85.3739 127.575 85.5819 127.245 85.8246 127.02C86.0759 126.786 86.3576 126.626 86.6696 126.539C86.9816 126.452 87.3283 126.409 87.7096 126.409ZM92.0256 123.9L90.7516 133H89.2306V131.414L89.0616 131.297L89.6596 126.851L89.7766 126.643C89.7766 126.418 89.7853 126.197 89.8026 125.98C89.8199 125.763 89.8459 125.534 89.8806 125.291L90.1016 123.9H92.0256Z" fill="white"/>
<path d="M59.6667 72L60.2667 71.2C60.2671 71.2004 60.2676 71.2007 60.2681 71.2011L60.2667 71.2L59.6667 72ZM59.6667 72L60.2667 72.8C60.267 72.7998 60.2673 72.7995 60.2677 72.7992L60.2667 72.8L59.6667 72ZM40 36C37.7909 36 36 37.7909 36 40V44C36 54.7017 41.0386 64.779 49.6 71.2L50.6667 72L49.6 72.8C41.0386 79.2211 36 89.2983 36 100V104C36 106.209 37.7909 108 40 108H72C74.2091 108 76 106.209 76 104V100C76 89.2983 70.9614 79.2211 62.4 72.8L61.3333 72L62.4 71.2C70.9614 64.779 76 54.7017 76 44V40C76 37.7909 74.2091 36 72 36H40Z" stroke="white" stroke-opacity="0.3" stroke-width="4"/>
<path d="M40 104V103C40 103 45 102 50 98C55 94 54 92 56 92C58 92 57 94 62 98C67 102 72 103 72 103V104H40Z" fill="#F3BE54"/>
<circle cx="56" cy="72" r="1" fill="#F3BE54"/>
<path d="M70.1872 57L70.0009 57.0131C60.6787 57.6702 51.3216 57.6658 42 57L47 65L55 72H57L66 64L70.1872 57Z" fill="#F3BE54"/>
<path d="M38 40C38 38.8954 38.8954 38 40 38H72C73.1046 38 74 38.8954 74 40V44C74 54.0722 69.2578 63.5567 61.2 69.6L59.0667 71.2C58.5333 71.6 58.5333 72.4 59.0667 72.8L61.2 74.4C69.2578 80.4433 74 89.9278 74 100V104C74 105.105 73.1046 106 72 106H40C38.8954 106 38 105.105 38 104V100C38 89.9278 42.7422 80.4433 50.8 74.4L52.9333 72.8C53.4667 72.4 53.4667 71.6 52.9333 71.2L50.8 69.6C42.7422 63.5567 38 54.0722 38 44V40Z" stroke="#333333" stroke-width="4"/>
<path d="M38 40C38 38.8954 38.8954 38 40 38H72C73.1046 38 74 38.8954 74 40V44C74 54.0722 69.2578 63.5567 61.2 69.6L59.0667 71.2C58.5333 71.6 58.5333 72.4 59.0667 72.8L61.2 74.4C69.2578 80.4433 74 89.9278 74 100V104C74 105.105 73.1046 106 72 106H40C38.8954 106 38 105.105 38 104V100C38 89.9278 42.7422 80.4433 50.8 74.4L52.9333 72.8C53.4667 72.4 53.4667 71.6 52.9333 71.2L50.8 69.6C42.7422 63.5567 38 54.0722 38 44V40Z" stroke="#F2F2F2" stroke-width="2"/>
<path d="M56 75V83" stroke="#F3BE54" stroke-width="2" stroke-linecap="round"/>
<path d="M56 87V90" stroke="#F3BE54" stroke-width="2" stroke-linecap="round"/>
</g>
<defs>
<clipPath id="clip0_24_181">
<rect width="112" height="160" rx="6" fill="white"/>
</clipPath>
</defs>
</svg>
