<svg width="112" height="160" viewBox="0 0 112 160" fill="none" xmlns="http://www.w3.org/2000/svg">
<g clip-path="url(#clip0_24_210)">
<path d="M1 7C1 3.6863 3.68629 1 7 1H105C108.314 1 111 3.68629 111 7V152C111 155.314 108.314 158 105 158H7C3.68629 158 1 155.314 1 152V7Z" fill="#393B4E"/>
<path fill-rule="evenodd" clip-rule="evenodd" d="M7 0C3.13401 0 0 3.13401 0 7V153C0 156.866 3.13401 160 7 160H105C108.866 160 112 156.866 112 153V7C112 3.13401 108.866 0 105 0H7ZM7 1C3.68629 1 1 3.68629 1 7C1 7 1 7 1 7V152C1 152.165 1.00666 152.328 1.01973 152.49C1.2691 155.575 3.85131 158 7 158H105C108.149 158 110.731 155.575 110.98 152.49C110.993 152.328 111 152.165 111 152V7C111 3.68629 108.314 1 105 1H7Z" fill="black" fill-opacity="0.3"/>
<path fill-rule="evenodd" clip-rule="evenodd" d="M56 37C56.4674 37 56.8724 37.3238 56.9754 37.7797L57.5771 40.4434C59.5555 49.2019 69.6065 53.3652 77.1987 48.5709L79.5077 47.1128C79.9029 46.8633 80.4182 46.9208 80.7487 47.2513C81.0792 47.5818 81.1367 48.0971 80.8872 48.4923L79.4291 50.8013C74.6348 58.3935 78.7981 68.4445 87.5566 70.4229L90.2203 71.0246C90.6762 71.1276 91 71.5326 91 72C91 72.4674 90.6762 72.8724 90.2203 72.9754L87.5566 73.5771C78.7981 75.5555 74.6348 85.6065 79.4291 93.1987L80.8872 95.5077C81.1367 95.9029 81.0792 96.4182 80.7487 96.7487C80.4182 97.0792 79.9029 97.1367 79.5077 96.8872L77.1987 95.4291C69.6065 90.6348 59.5555 94.7981 57.5771 103.557L56.9754 106.22C56.8724 106.676 56.4674 107 56 107C55.5326 107 55.1276 106.676 55.0246 106.22L54.4229 103.557C52.4445 94.7981 42.3935 90.6348 34.8013 95.4291L32.4923 96.8872C32.0971 97.1367 31.5818 97.0792 31.2513 96.7487C30.9208 96.4182 30.8633 95.9029 31.1128 95.5077L32.5709 93.1987C37.3652 85.6065 33.2019 75.5555 24.4434 73.5771L21.7797 72.9754C21.3238 72.8724 21 72.4674 21 72C21 71.5326 21.3238 71.1276 21.7797 71.0246L24.4434 70.4229C33.2019 68.4445 37.3652 58.3935 32.5709 50.8013L31.1128 48.4923C30.8633 48.0971 30.9208 47.5818 31.2513 47.2513C31.5818 46.9208 32.0971 46.8633 32.4923 47.1128L34.8013 48.5709C42.3935 53.3652 52.4445 49.2019 54.4229 40.4434L55.0246 37.7797C55.1276 37.3238 55.5326 37 56 37ZM35.0127 50.9874L34.9614 50.9614L34.9874 51.0127L35.0127 50.9874ZM37.3451 51.9308L38.9508 53.5365L40.9062 54.7713C46.1623 58.0904 53.1207 55.2082 54.4904 49.1445L55 46.8885V44.6178C51.6641 50.9404 44.1747 54.0426 37.3451 51.9308ZM57 44.6178V46.8885L57.5096 49.1445C58.8793 55.2082 65.8377 58.0904 71.0938 54.7713L73.0496 53.5362L74.6551 51.9307C67.8255 54.0427 60.336 50.9404 57 44.6178ZM55 53.0716C52.5342 56.9581 47.8145 58.9131 43.3228 57.9085L45.3118 59.8975C49.0635 62.1841 53.9637 60.1545 55 55.8851V53.0716ZM57 55.8841V53.0716C59.4658 56.9581 64.1856 58.9131 68.6774 57.9085L66.6882 59.8976C62.9363 62.1842 58.0358 60.1542 57 55.8841ZM55 60.0459C53.2923 61.9319 50.7954 62.9662 48.2543 62.84L51.6787 66.2644L51.9187 66.416C53.0867 67.1535 54.633 66.513 54.9374 65.1656L55 64.8885V60.0459ZM57 64.8885V60.0457C58.7076 61.9318 61.2047 62.9661 63.7459 62.84L60.3217 66.2641L60.0813 66.416C58.9133 67.1535 57.367 66.513 57.0626 65.1656L57 64.8885ZM70.0915 59.3228L68.1026 61.3117C65.8159 65.0635 67.8457 69.9639 72.1155 71H74.9284C71.0419 68.5342 69.0869 63.8145 70.0915 59.3228ZM65.1601 64.2542C65.034 66.7953 66.0683 69.2923 67.9543 71H63.1115L62.8344 70.9374C61.487 70.633 60.8465 69.0867 61.584 67.9187L61.7356 67.6787L65.1601 64.2542ZM67.9543 73H63.1115L62.8344 73.0626C61.487 73.367 60.8465 74.9133 61.584 76.0813L61.7356 76.3213L65.1601 79.7458C65.034 77.2047 66.0683 74.7077 67.9543 73ZM74.9284 73H72.1155C67.8457 74.0361 65.8159 78.9365 68.1026 82.6883L70.0915 84.6772C69.0869 80.1855 71.0419 75.4658 74.9284 73ZM78.8555 73.5096L81.1115 73H83.3822C77.0596 76.3359 73.9574 83.8253 76.0692 90.6549L74.4635 89.0492L73.2287 87.0938C69.9096 81.8377 72.7918 74.8793 78.8555 73.5096ZM76.0692 53.3451C73.9574 60.1747 77.0596 67.6641 83.3822 71H81.1115L78.8555 70.4904C72.7918 69.1207 69.9096 62.1623 73.2287 56.9062L74.4635 54.9508L76.0692 53.3451ZM77.0386 50.9614L77.0126 51.0126L76.9874 50.9874L77.0386 50.9614ZM77.0126 92.9874L76.9874 93.0126L77.0386 93.0386L77.0126 92.9874ZM74.6551 92.0693L73.0496 90.4638L71.0938 89.2287C65.8377 85.9096 58.8793 88.7918 57.5096 94.8555L57 97.1115V99.3822C60.336 93.0596 67.8255 89.9573 74.6551 92.0693ZM55 99.3822C51.6641 93.0596 44.1747 89.9574 37.3451 92.0692L38.9508 90.4635L40.9062 89.2287C46.1623 85.9096 53.1207 88.7918 54.4904 94.8555L55 97.1115V99.3822ZM28.6178 73C34.9404 76.336 38.0427 83.8255 35.9307 90.6551L37.5362 89.0496L38.7713 87.0938C42.0904 81.8377 39.2082 74.8793 33.1445 73.5096L30.8885 73H28.6178ZM28.6178 71C34.9404 67.664 38.0427 60.1745 35.9307 53.3449L37.5362 54.9504L38.7713 56.9062C42.0904 62.1623 39.2082 69.1207 33.1445 70.4904L30.8885 71H28.6178ZM37.0716 71C40.9581 68.5342 42.9131 63.8144 41.9085 59.3226L43.8978 61.3119C46.1842 65.0637 44.1544 69.964 39.8847 71H37.0716ZM37.0716 73C40.9581 75.4658 42.9131 80.1856 41.9085 84.6774L43.8978 82.6881C46.1842 78.9363 44.1544 74.036 39.8847 73H37.0716ZM44.0459 73C45.9319 74.7076 46.9662 77.2046 46.8401 79.7458L50.2641 76.3217L50.416 76.0813C51.1535 74.9133 50.513 73.367 49.1656 73.0626L48.8885 73H44.0459ZM44.0459 71H48.8885L49.1656 70.9374C50.513 70.633 51.1535 69.0867 50.416 67.9187L50.2641 67.6783L46.8401 64.2542C46.9662 66.7954 45.9319 69.2924 44.0459 71ZM55 90.9284C52.5342 87.0419 47.8145 85.0869 43.3228 86.0915L45.3118 84.1025C49.0635 81.8159 53.9637 83.8455 55 88.1149V90.9284ZM55 83.9541C53.2923 82.0681 50.7954 81.0338 48.2543 81.16L51.6787 77.7356L51.9187 77.584C53.0867 76.8465 54.633 77.487 54.9374 78.8344L55 79.1115V83.9541ZM57 90.9284C59.4658 87.0419 64.1856 85.0869 68.6774 86.0915L66.6882 84.1024C62.9363 81.8158 58.0358 83.8458 57 88.1159V90.9284ZM57 83.9543C58.7076 82.0682 61.2047 81.0339 63.7459 81.16L60.3217 77.7359L60.0813 77.584C58.9133 76.8465 57.367 77.487 57.0626 78.8344L57 79.1115V83.9543ZM56 67.3604C55.1814 68.2939 53.9582 68.8006 52.7193 68.7193C52.8006 69.9582 52.2939 71.1814 51.3604 72C52.2939 72.8186 52.8006 74.0418 52.7193 75.2807C53.9582 75.1994 55.1814 75.7061 56 76.6396C56.8186 75.7061 58.0418 75.1994 59.2807 75.2807C59.1994 74.0418 59.7061 72.8186 60.6396 72C59.7061 71.1814 59.1994 69.9582 59.2807 68.7193C58.0418 68.8006 56.8186 68.2939 56 67.3604Z" fill="white" stroke="white" stroke-opacity="0.3" stroke-width="3"/>
<path fill-rule="evenodd" clip-rule="evenodd" d="M56 37C56.4674 37 56.8724 37.3238 56.9754 37.7797L57.5771 40.4434C59.5555 49.2019 69.6065 53.3652 77.1987 48.5709L79.5077 47.1128C79.9029 46.8633 80.4182 46.9208 80.7487 47.2513C81.0792 47.5818 81.1367 48.0971 80.8872 48.4923L79.4291 50.8013C74.6348 58.3935 78.7981 68.4445 87.5566 70.4229L90.2203 71.0246C90.6762 71.1276 91 71.5326 91 72C91 72.4674 90.6762 72.8724 90.2203 72.9754L87.5566 73.5771C78.7981 75.5555 74.6348 85.6065 79.4291 93.1987L80.8872 95.5077C81.1367 95.9029 81.0792 96.4182 80.7487 96.7487C80.4182 97.0792 79.9029 97.1367 79.5077 96.8872L77.1987 95.4291C69.6065 90.6348 59.5555 94.7981 57.5771 103.557L56.9754 106.22C56.8724 106.676 56.4674 107 56 107C55.5326 107 55.1276 106.676 55.0246 106.22L54.4229 103.557C52.4445 94.7981 42.3935 90.6348 34.8013 95.4291L32.4923 96.8872C32.0971 97.1367 31.5818 97.0792 31.2513 96.7487C30.9208 96.4182 30.8633 95.9029 31.1128 95.5077L32.5709 93.1987C37.3652 85.6065 33.2019 75.5555 24.4434 73.5771L21.7797 72.9754C21.3238 72.8724 21 72.4674 21 72C21 71.5326 21.3238 71.1276 21.7797 71.0246L24.4434 70.4229C33.2019 68.4445 37.3652 58.3935 32.5709 50.8013L31.1128 48.4923C30.8633 48.0971 30.9208 47.5818 31.2513 47.2513C31.5818 46.9208 32.0971 46.8633 32.4923 47.1128L34.8013 48.5709C42.3935 53.3652 52.4445 49.2019 54.4229 40.4434L55.0246 37.7797C55.1276 37.3238 55.5326 37 56 37ZM35.0127 50.9874L34.9614 50.9614L34.9874 51.0127L35.0127 50.9874ZM37.3451 51.9308L38.9508 53.5365L40.9062 54.7713C46.1623 58.0904 53.1207 55.2082 54.4904 49.1445L55 46.8885V44.6178C51.6641 50.9404 44.1747 54.0426 37.3451 51.9308ZM57 44.6178V46.8885L57.5096 49.1445C58.8793 55.2082 65.8377 58.0904 71.0938 54.7713L73.0496 53.5362L74.6551 51.9307C67.8255 54.0427 60.336 50.9404 57 44.6178ZM55 53.0716C52.5342 56.9581 47.8145 58.9131 43.3228 57.9085L45.3118 59.8975C49.0635 62.1841 53.9637 60.1545 55 55.8851V53.0716ZM57 55.8841V53.0716C59.4658 56.9581 64.1856 58.9131 68.6774 57.9085L66.6882 59.8976C62.9363 62.1842 58.0358 60.1542 57 55.8841ZM55 60.0459C53.2923 61.9319 50.7954 62.9662 48.2543 62.84L51.6787 66.2644L51.9187 66.416C53.0867 67.1535 54.633 66.513 54.9374 65.1656L55 64.8885V60.0459ZM57 64.8885V60.0457C58.7076 61.9318 61.2047 62.9661 63.7459 62.84L60.3217 66.2641L60.0813 66.416C58.9133 67.1535 57.367 66.513 57.0626 65.1656L57 64.8885ZM70.0915 59.3228L68.1026 61.3117C65.8159 65.0635 67.8457 69.9639 72.1155 71H74.9284C71.0419 68.5342 69.0869 63.8145 70.0915 59.3228ZM65.1601 64.2542C65.034 66.7953 66.0683 69.2923 67.9543 71H63.1115L62.8344 70.9374C61.487 70.633 60.8465 69.0867 61.584 67.9187L61.7356 67.6787L65.1601 64.2542ZM67.9543 73H63.1115L62.8344 73.0626C61.487 73.367 60.8465 74.9133 61.584 76.0813L61.7356 76.3213L65.1601 79.7458C65.034 77.2047 66.0683 74.7077 67.9543 73ZM74.9284 73H72.1155C67.8457 74.0361 65.8159 78.9365 68.1026 82.6883L70.0915 84.6772C69.0869 80.1855 71.0419 75.4658 74.9284 73ZM78.8555 73.5096L81.1115 73H83.3822C77.0596 76.3359 73.9574 83.8253 76.0692 90.6549L74.4635 89.0492L73.2287 87.0938C69.9096 81.8377 72.7918 74.8793 78.8555 73.5096ZM76.0692 53.3451C73.9574 60.1747 77.0596 67.6641 83.3822 71H81.1115L78.8555 70.4904C72.7918 69.1207 69.9096 62.1623 73.2287 56.9062L74.4635 54.9508L76.0692 53.3451ZM77.0386 50.9614L77.0126 51.0126L76.9874 50.9874L77.0386 50.9614ZM77.0126 92.9874L76.9874 93.0126L77.0386 93.0386L77.0126 92.9874ZM74.6551 92.0693L73.0496 90.4638L71.0938 89.2287C65.8377 85.9096 58.8793 88.7918 57.5096 94.8555L57 97.1115V99.3822C60.336 93.0596 67.8255 89.9573 74.6551 92.0693ZM55 99.3822C51.6641 93.0596 44.1747 89.9574 37.3451 92.0692L38.9508 90.4635L40.9062 89.2287C46.1623 85.9096 53.1207 88.7918 54.4904 94.8555L55 97.1115V99.3822ZM28.6178 73C34.9404 76.336 38.0427 83.8255 35.9307 90.6551L37.5362 89.0496L38.7713 87.0938C42.0904 81.8377 39.2082 74.8793 33.1445 73.5096L30.8885 73H28.6178ZM28.6178 71C34.9404 67.664 38.0427 60.1745 35.9307 53.3449L37.5362 54.9504L38.7713 56.9062C42.0904 62.1623 39.2082 69.1207 33.1445 70.4904L30.8885 71H28.6178ZM37.0716 71C40.9581 68.5342 42.9131 63.8144 41.9085 59.3226L43.8978 61.3119C46.1842 65.0637 44.1544 69.964 39.8847 71H37.0716ZM37.0716 73C40.9581 75.4658 42.9131 80.1856 41.9085 84.6774L43.8978 82.6881C46.1842 78.9363 44.1544 74.036 39.8847 73H37.0716ZM44.0459 73C45.9319 74.7076 46.9662 77.2046 46.8401 79.7458L50.2641 76.3217L50.416 76.0813C51.1535 74.9133 50.513 73.367 49.1656 73.0626L48.8885 73H44.0459ZM44.0459 71H48.8885L49.1656 70.9374C50.513 70.633 51.1535 69.0867 50.416 67.9187L50.2641 67.6783L46.8401 64.2542C46.9662 66.7954 45.9319 69.2924 44.0459 71ZM55 90.9284C52.5342 87.0419 47.8145 85.0869 43.3228 86.0915L45.3118 84.1025C49.0635 81.8159 53.9637 83.8455 55 88.1149V90.9284ZM55 83.9541C53.2923 82.0681 50.7954 81.0338 48.2543 81.16L51.6787 77.7356L51.9187 77.584C53.0867 76.8465 54.633 77.487 54.9374 78.8344L55 79.1115V83.9541ZM57 90.9284C59.4658 87.0419 64.1856 85.0869 68.6774 86.0915L66.6882 84.1024C62.9363 81.8158 58.0358 83.8458 57 88.1159V90.9284ZM57 83.9543C58.7076 82.0682 61.2047 81.0339 63.7459 81.16L60.3217 77.7359L60.0813 77.584C58.9133 76.8465 57.367 77.487 57.0626 78.8344L57 79.1115V83.9543ZM56 67.3604C55.1814 68.2939 53.9582 68.8006 52.7193 68.7193C52.8006 69.9582 52.2939 71.1814 51.3604 72C52.2939 72.8186 52.8006 74.0418 52.7193 75.2807C53.9582 75.1994 55.1814 75.7061 56 76.6396C56.8186 75.7061 58.0418 75.1994 59.2807 75.2807C59.1994 74.0418 59.7061 72.8186 60.6396 72C59.7061 71.1814 59.1994 69.9582 59.2807 68.7193C58.0418 68.8006 56.8186 68.2939 56 67.3604Z" fill="white" stroke="#333333"/>
<path d="M56 38L56.6017 40.6637C58.7323 50.096 69.5564 54.5795 77.7327 49.4164L80.0416 47.9584L78.5836 50.2673C73.4205 58.4436 77.904 69.2677 87.3363 71.3983L90 72L87.3363 72.6017C77.904 74.7323 73.4205 85.5564 78.5836 93.7327L80.0416 96.0416L77.7327 94.5836C69.5564 89.4205 58.7323 93.904 56.6017 103.336L56 106L55.3983 103.336C53.2677 93.904 42.4436 89.4205 34.2673 94.5836L31.9584 96.0416L33.4164 93.7327C38.5795 85.5564 34.096 74.7323 24.6637 72.6017L22 72L24.6637 71.3983C34.096 69.2677 38.5795 58.4436 33.4164 50.2673L31.9584 47.9584L34.2673 49.4164C42.4436 54.5795 53.2677 50.096 55.3983 40.6637L56 38Z" stroke="white" stroke-width="2" stroke-linejoin="round"/>
<path d="M56 47L56.5342 49.3649C58.0561 56.1022 65.7876 59.3047 71.6277 55.6168L73.6777 54.3223L72.3832 56.3723C68.6953 62.2124 71.8978 69.9439 78.6351 71.4658L81 72L78.6351 72.5342C71.8978 74.0561 68.6953 81.7876 72.3832 87.6277L73.6777 89.6777L71.6277 88.3832C65.7876 84.6953 58.0561 87.8978 56.5342 94.6351L56 97L55.4658 94.6351C53.9439 87.8978 46.2124 84.6953 40.3723 88.3832L38.3223 89.6777L39.6168 87.6277C43.3047 81.7876 40.1022 74.0561 33.3649 72.5342L31 72L33.3649 71.4658C40.1022 69.9439 43.3047 62.2124 39.6168 56.3723L38.3223 54.3223L40.3723 55.6168C46.2124 59.3047 53.9439 56.1022 55.4658 49.3649L56 47Z" stroke="white" stroke-width="2" stroke-linejoin="round"/>
<path d="M56 56V56C57.1408 61.0501 62.9361 63.4507 67.3137 60.6863V60.6863V60.6863C64.5493 65.0639 66.9499 70.8592 72 72V72V72C66.9499 73.1408 64.5493 78.9361 67.3137 83.3137V83.3137V83.3137C62.9361 80.5493 57.1408 82.9499 56 88V88V88C54.8592 82.9499 49.0639 80.5493 44.6863 83.3137V83.3137V83.3137C47.4507 78.9361 45.0501 73.1408 40 72V72V72C45.0501 70.8592 47.4507 65.0639 44.6863 60.6863V60.6863V60.6863C49.0639 63.4507 54.8592 61.0501 56 56V56Z" stroke="white" stroke-width="2" stroke-linejoin="round"/>
<path d="M56 65L56.0872 65.3859C56.5437 67.4071 58.8632 68.3679 60.6152 67.2615L60.9497 67.0503L60.7385 67.3848C59.6321 69.1368 60.5929 71.4563 62.6141 71.9128L63 72L62.6141 72.0872C60.5929 72.5437 59.6321 74.8632 60.7385 76.6152L60.9497 76.9497L60.6152 76.7385C58.8632 75.6321 56.5437 76.5929 56.0872 78.6141L56 79L55.9128 78.6141C55.4563 76.5929 53.1368 75.6321 51.3848 76.7385L51.0503 76.9497L51.2615 76.6152C52.3679 74.8632 51.4071 72.5437 49.3859 72.0872L49 72L49.3859 71.9128C51.4071 71.4563 52.3679 69.1368 51.2615 67.3848L51.0503 67.0503L51.3848 67.2615C53.1368 68.3679 55.4563 67.4071 55.9128 65.3859L56 65Z" stroke="white" stroke-width="2" stroke-linejoin="round"/>
<path d="M52 68L35 51M60 76L77 93" stroke="white" stroke-width="2"/>
<path d="M60 68L77 51" stroke="white" stroke-width="2"/>
<path d="M56 66V42" stroke="white" stroke-width="2"/>
<path d="M63 72H88" stroke="white" stroke-width="2"/>
<path d="M56 78V104" stroke="white" stroke-width="2"/>
<path d="M52 76L34 94" stroke="white" stroke-width="2"/>
<path d="M49 72H24" stroke="white" stroke-width="2"/>
<path d="M24.1525 124.03L22.9825 132.324C22.9478 132.558 22.8742 132.731 22.7615 132.844C22.6488 132.948 22.4755 133 22.2415 133H21.2535C21.0368 133 20.8765 132.944 20.7725 132.831C20.6772 132.718 20.5905 132.562 20.5125 132.363L18.6275 127.657C18.5408 127.466 18.4628 127.254 18.3935 127.02C18.3328 126.786 18.2765 126.556 18.2245 126.331H18.0685C18.0685 126.565 18.0598 126.803 18.0425 127.046C18.0338 127.28 18.0122 127.518 17.9775 127.761L17.2365 133H15.3645L16.5215 124.706C16.5562 124.472 16.6342 124.303 16.7555 124.199C16.8768 124.086 17.0545 124.03 17.2885 124.03H18.2505C18.4672 124.03 18.6232 124.091 18.7185 124.212C18.8138 124.325 18.9048 124.476 18.9915 124.667L20.8245 129.217C20.9112 129.416 20.9935 129.637 21.0715 129.88C21.1582 130.114 21.2362 130.365 21.3055 130.634H21.4875C21.4788 130.374 21.4788 130.131 21.4875 129.906C21.5048 129.681 21.5308 129.451 21.5655 129.217L22.2805 124.03H24.1525ZM28.4788 126.409C29.2675 126.409 29.8742 126.496 30.2988 126.669C30.7322 126.834 31.0225 127.085 31.1698 127.423C31.3172 127.752 31.3518 128.16 31.2738 128.645C31.2132 129.044 31.0788 129.36 30.8708 129.594C30.6715 129.819 30.3942 129.988 30.0388 130.101C29.6835 130.214 29.2328 130.292 28.6868 130.335L25.4108 130.608L25.5538 129.542L28.3098 129.269C28.5438 129.243 28.7345 129.208 28.8818 129.165C29.0378 129.113 29.1592 129.035 29.2458 128.931C29.3325 128.818 29.3888 128.662 29.4148 128.463C29.4495 128.255 29.4365 128.099 29.3758 127.995C29.3152 127.891 29.2068 127.826 29.0508 127.8C28.8948 127.765 28.6868 127.752 28.4268 127.761C28.1582 127.761 27.9328 127.787 27.7508 127.839C27.5688 127.891 27.4172 127.986 27.2958 128.125C27.1745 128.255 27.0748 128.446 26.9968 128.697C26.9188 128.94 26.8452 129.256 26.7758 129.646C26.6892 130.209 26.6762 130.634 26.7368 130.92C26.7975 131.206 26.9318 131.397 27.1398 131.492C27.3478 131.587 27.6382 131.635 28.0108 131.635C28.2188 131.635 28.4702 131.631 28.7648 131.622C29.0595 131.605 29.3585 131.587 29.6618 131.57C29.9738 131.544 30.2555 131.518 30.5068 131.492L30.6368 132.688C30.3768 132.801 30.0822 132.892 29.7528 132.961C29.4235 133.03 29.0898 133.078 28.7518 133.104C28.4138 133.139 28.0975 133.156 27.8028 133.156C26.9448 133.156 26.2775 133.026 25.8008 132.766C25.3328 132.506 25.0208 132.12 24.8648 131.609C24.7088 131.089 24.6742 130.452 24.7608 129.698C24.8388 129.031 24.9688 128.485 25.1508 128.06C25.3415 127.635 25.5842 127.306 25.8788 127.072C26.1822 126.829 26.5505 126.66 26.9838 126.565C27.4172 126.461 27.9155 126.409 28.4788 126.409ZM38.9637 126.578C38.903 126.959 38.8207 127.345 38.7167 127.735C38.6127 128.125 38.5043 128.498 38.3917 128.853C38.279 129.2 38.162 129.52 38.0407 129.815C37.8587 130.309 37.668 130.747 37.4687 131.128C37.278 131.509 37.1177 131.795 36.9877 131.986C36.8317 132.255 36.6627 132.463 36.4807 132.61C36.3073 132.757 36.1123 132.861 35.8957 132.922C35.679 132.974 35.4147 133 35.1027 133H33.6467C33.4993 133 33.3693 132.952 33.2567 132.857C33.1527 132.762 33.092 132.645 33.0747 132.506L32.1127 126.578H34.1927L34.6607 131.739H34.8167C34.99 131.739 35.12 131.7 35.2067 131.622C35.302 131.544 35.4103 131.384 35.5317 131.141C35.6357 130.942 35.7483 130.699 35.8697 130.413C35.9997 130.127 36.1297 129.78 36.2597 129.373C36.4243 128.87 36.5543 128.389 36.6497 127.93C36.745 127.471 36.8273 127.02 36.8967 126.578H38.9637ZM43.18 126.409C43.9687 126.409 44.5754 126.496 45 126.669C45.4334 126.834 45.7237 127.085 45.871 127.423C46.0184 127.752 46.053 128.16 45.975 128.645C45.9144 129.044 45.78 129.36 45.572 129.594C45.3727 129.819 45.0954 129.988 44.74 130.101C44.3847 130.214 43.934 130.292 43.388 130.335L40.112 130.608L40.255 129.542L43.011 129.269C43.245 129.243 43.4357 129.208 43.583 129.165C43.739 129.113 43.8604 129.035 43.947 128.931C44.0337 128.818 44.09 128.662 44.116 128.463C44.1507 128.255 44.1377 128.099 44.077 127.995C44.0164 127.891 43.908 127.826 43.752 127.8C43.596 127.765 43.388 127.752 43.128 127.761C42.8594 127.761 42.634 127.787 42.452 127.839C42.27 127.891 42.1184 127.986 41.997 128.125C41.8757 128.255 41.776 128.446 41.698 128.697C41.62 128.94 41.5464 129.256 41.477 129.646C41.3904 130.209 41.3774 130.634 41.438 130.92C41.4987 131.206 41.633 131.397 41.841 131.492C42.049 131.587 42.3394 131.635 42.712 131.635C42.92 131.635 43.1714 131.631 43.466 131.622C43.7607 131.605 44.0597 131.587 44.363 131.57C44.675 131.544 44.9567 131.518 45.208 131.492L45.338 132.688C45.078 132.801 44.7834 132.892 44.454 132.961C44.1247 133.03 43.791 133.078 43.453 133.104C43.115 133.139 42.7987 133.156 42.504 133.156C41.646 133.156 40.9787 133.026 40.502 132.766C40.034 132.506 39.722 132.12 39.566 131.609C39.41 131.089 39.3754 130.452 39.462 129.698C39.54 129.031 39.67 128.485 39.852 128.06C40.0427 127.635 40.2854 127.306 40.58 127.072C40.8834 126.829 41.2517 126.66 41.685 126.565C42.1184 126.461 42.6167 126.409 43.18 126.409ZM48.9969 126.578L49.0099 128.112L49.1789 128.294L48.5289 133H46.6049L47.5019 126.578H48.9969ZM52.1429 126.409L51.7269 128.19H51.2589C50.9556 128.19 50.6262 128.259 50.2709 128.398C49.9242 128.528 49.4866 128.727 48.9579 128.996L48.8799 127.865C49.3912 127.388 49.8896 127.029 50.3749 126.786C50.8602 126.535 51.3196 126.409 51.7529 126.409H52.1429ZM59.3978 123.9C60.2038 123.9 60.8408 123.995 61.3088 124.186C61.7768 124.368 62.0932 124.68 62.2578 125.122C62.4312 125.555 62.4615 126.153 62.3488 126.916C62.2448 127.679 62.0672 128.268 61.8158 128.684C61.5732 129.091 61.2265 129.373 60.7758 129.529C60.3252 129.685 59.7315 129.763 58.9948 129.763C58.6048 129.763 58.2235 129.746 57.8508 129.711C57.4782 129.676 57.1272 129.633 56.7978 129.581C56.4772 129.52 56.2042 129.46 55.9788 129.399C55.7535 129.338 55.5975 129.286 55.5108 129.243L55.5888 128.268C56.1088 128.268 56.6505 128.268 57.2138 128.268C57.7772 128.268 58.3232 128.268 58.8518 128.268C59.1985 128.268 59.4715 128.229 59.6708 128.151C59.8702 128.073 60.0262 127.926 60.1388 127.709C60.2515 127.492 60.3338 127.176 60.3858 126.76C60.4378 126.405 60.4378 126.127 60.3858 125.928C60.3425 125.729 60.2342 125.59 60.0608 125.512C59.8962 125.434 59.6578 125.395 59.3458 125.395C58.5398 125.395 57.8508 125.404 57.2788 125.421C56.7068 125.43 56.3212 125.443 56.1218 125.46L56.0698 124.03C56.4252 123.987 56.7588 123.956 57.0708 123.939C57.3828 123.922 57.7208 123.913 58.0848 123.913C58.4488 123.904 58.8865 123.9 59.3978 123.9ZM58.0458 124.03L56.7848 133H54.8088L56.0698 124.03H58.0458ZM65.8755 123.9L64.8615 130.985C64.8268 131.21 64.8528 131.371 64.9395 131.466C65.0348 131.553 65.2125 131.596 65.4725 131.596H66.0575L66.1485 132.909C66.0445 132.97 65.8928 133.017 65.6935 133.052C65.5028 133.087 65.3121 133.113 65.1215 133.13C64.9308 133.147 64.7748 133.156 64.6535 133.156C64.0381 133.156 63.5745 133 63.2625 132.688C62.9505 132.367 62.8291 131.934 62.8985 131.388L63.9515 123.9H65.8755ZM70.8824 126.409C71.1077 126.409 71.3591 126.422 71.6364 126.448C71.9224 126.465 72.2084 126.491 72.4944 126.526C72.7891 126.561 73.0621 126.6 73.3134 126.643C73.5734 126.686 73.7857 126.73 73.9504 126.773L72.6374 127.813C72.2907 127.796 71.9744 127.787 71.6884 127.787C71.4024 127.778 71.1337 127.774 70.8824 127.774C70.5964 127.774 70.3537 127.796 70.1544 127.839C69.9551 127.882 69.7904 127.969 69.6604 128.099C69.5304 128.22 69.4221 128.407 69.3354 128.658C69.2487 128.909 69.1751 129.247 69.1144 129.672C69.0364 130.209 68.9931 130.621 68.9844 130.907C68.9844 131.184 69.0364 131.375 69.1404 131.479C69.2444 131.583 69.4091 131.631 69.6344 131.622C69.8684 131.613 70.1111 131.535 70.3624 131.388C70.6224 131.241 70.8781 131.041 71.1294 130.79C71.3807 130.53 71.6234 130.24 71.8574 129.919L72.1954 130.543C72.0221 131.054 71.7751 131.505 71.4544 131.895C71.1424 132.276 70.7741 132.575 70.3494 132.792C69.9247 133.009 69.4524 133.13 68.9324 133.156C68.3691 133.182 67.9357 133.069 67.6324 132.818C67.3377 132.567 67.1557 132.177 67.0864 131.648C67.0171 131.119 67.0431 130.456 67.1644 129.659C67.2771 128.922 67.4331 128.337 67.6324 127.904C67.8404 127.462 68.1004 127.137 68.4124 126.929C68.7244 126.712 69.0841 126.574 69.4914 126.513C69.9074 126.444 70.3711 126.409 70.8824 126.409ZM72.0524 126.656L73.9504 126.773L73.0794 133H71.5844L71.6104 131.544L71.3764 131.388L72.0524 126.656ZM81.8645 126.578C81.7951 127.003 81.6998 127.436 81.5785 127.878C81.4658 128.32 81.3358 128.758 81.1885 129.191C81.0411 129.624 80.8851 130.04 80.7205 130.439C80.5645 130.829 80.4041 131.193 80.2395 131.531C80.0835 131.869 79.9275 132.168 79.7715 132.428C79.3381 133.173 78.8875 133.78 78.4195 134.248C77.9515 134.716 77.4488 135.063 76.9115 135.288C76.3741 135.513 75.7848 135.643 75.1435 135.678L74.9485 134.547C75.2691 134.452 75.5725 134.343 75.8585 134.222C76.1445 134.109 76.4175 133.958 76.6775 133.767C76.9461 133.576 77.2061 133.321 77.4575 133C77.7088 132.671 77.9601 132.25 78.2115 131.739C78.4715 131.228 78.6968 130.716 78.8875 130.205C79.0868 129.694 79.2601 129.143 79.4075 128.554C79.5635 127.965 79.7021 127.306 79.8235 126.578H81.8645ZM76.9375 126.578L77.4835 131.518C77.5095 131.665 77.5961 131.739 77.7435 131.739H78.4715L77.9515 133H76.6385C76.4391 133 76.2701 132.939 76.1315 132.818C75.9928 132.697 75.9061 132.545 75.8715 132.363L74.8575 126.578H76.9375ZM86.0902 126.409C86.8788 126.409 87.4855 126.496 87.9102 126.669C88.3435 126.834 88.6338 127.085 88.7812 127.423C88.9285 127.752 88.9632 128.16 88.8852 128.645C88.8245 129.044 88.6902 129.36 88.4822 129.594C88.2828 129.819 88.0055 129.988 87.6502 130.101C87.2948 130.214 86.8442 130.292 86.2982 130.335L83.0222 130.608L83.1652 129.542L85.9212 129.269C86.1552 129.243 86.3458 129.208 86.4932 129.165C86.6492 129.113 86.7705 129.035 86.8572 128.931C86.9438 128.818 87.0002 128.662 87.0262 128.463C87.0608 128.255 87.0478 128.099 86.9872 127.995C86.9265 127.891 86.8182 127.826 86.6622 127.8C86.5062 127.765 86.2982 127.752 86.0382 127.761C85.7695 127.761 85.5442 127.787 85.3622 127.839C85.1802 127.891 85.0285 127.986 84.9072 128.125C84.7858 128.255 84.6862 128.446 84.6082 128.697C84.5302 128.94 84.4565 129.256 84.3872 129.646C84.3005 130.209 84.2875 130.634 84.3482 130.92C84.4088 131.206 84.5432 131.397 84.7512 131.492C84.9592 131.587 85.2495 131.635 85.6222 131.635C85.8302 131.635 86.0815 131.631 86.3762 131.622C86.6708 131.605 86.9698 131.587 87.2732 131.57C87.5852 131.544 87.8668 131.518 88.1182 131.492L88.2482 132.688C87.9882 132.801 87.6935 132.892 87.3642 132.961C87.0348 133.03 86.7012 133.078 86.3632 133.104C86.0252 133.139 85.7088 133.156 85.4142 133.156C84.5562 133.156 83.8888 133.026 83.4122 132.766C82.9442 132.506 82.6322 132.12 82.4762 131.609C82.3202 131.089 82.2855 130.452 82.3722 129.698C82.4502 129.031 82.5802 128.485 82.7622 128.06C82.9528 127.635 83.1955 127.306 83.4902 127.072C83.7935 126.829 84.1618 126.66 84.5952 126.565C85.0285 126.461 85.5268 126.409 86.0902 126.409ZM92.6481 126.409C93.2374 126.409 93.8137 126.448 94.3771 126.526C94.9404 126.604 95.4041 126.725 95.7681 126.89L95.4951 127.722C95.1051 127.713 94.7497 127.709 94.4291 127.709C94.1084 127.7 93.7834 127.696 93.4541 127.696C93.1507 127.696 92.8951 127.722 92.6871 127.774C92.4877 127.817 92.3274 127.908 92.2061 128.047C92.0847 128.177 91.9851 128.372 91.9071 128.632C91.8291 128.892 91.7597 129.239 91.6991 129.672C91.6384 130.131 91.6081 130.5 91.6081 130.777C91.6081 131.046 91.6557 131.241 91.7511 131.362C91.8464 131.483 92.0067 131.544 92.2321 131.544C92.6047 131.535 92.9557 131.423 93.2851 131.206C93.6231 130.989 93.9871 130.699 94.3771 130.335L94.7281 131.167C94.5981 131.34 94.4247 131.54 94.2081 131.765C94.0001 131.99 93.7531 132.211 93.4671 132.428C93.1897 132.636 92.8864 132.809 92.5571 132.948C92.2277 133.087 91.8767 133.156 91.5041 133.156C91.0187 133.156 90.6244 133.039 90.3211 132.805C90.0264 132.562 89.8271 132.185 89.7231 131.674C89.6277 131.154 89.6364 130.482 89.7491 129.659C89.8444 128.983 89.9744 128.433 90.1391 128.008C90.3124 127.575 90.5204 127.245 90.7631 127.02C91.0144 126.786 91.2961 126.626 91.6081 126.539C91.9201 126.452 92.2667 126.409 92.6481 126.409ZM96.9641 123.9L95.6901 133H94.1691V131.414L94.0001 131.297L94.5981 126.851L94.7151 126.643C94.7151 126.418 94.7237 126.197 94.7411 125.98C94.7584 125.763 94.7844 125.534 94.8191 125.291L95.0401 123.9H96.9641Z" fill="white"/>
</g>
<defs>
<clipPath id="clip0_24_210">
<rect width="112" height="160" rx="6" fill="white"/>
</clipPath>
</defs>
</svg>
