<svg width="112" height="160" viewBox="0 0 112 160" fill="none" xmlns="http://www.w3.org/2000/svg">
<g clip-path="url(#clip0_24_138)">
<path d="M1 7C1 3.6863 3.68629 1 7 1H105C108.314 1 111 3.68629 111 7V152C111 155.314 108.314 158 105 158H7C3.68629 158 1 155.314 1 152V7Z" fill="#393B4E"/>
<path fill-rule="evenodd" clip-rule="evenodd" d="M7 0C3.13401 0 0 3.13401 0 7V153C0 156.866 3.13401 160 7 160H105C108.866 160 112 156.866 112 153V7C112 3.13401 108.866 0 105 0H7ZM7 1C3.68629 1 1 3.68629 1 7C1 7 1 7 1 7V152C1 152.165 1.00666 152.328 1.01973 152.49C1.2691 155.575 3.85131 158 7 158H105C108.149 158 110.731 155.575 110.98 152.49C110.993 152.328 111 152.165 111 152V7C111 3.68629 108.314 1 105 1H7Z" fill="black" fill-opacity="0.3"/>
<path d="M64.9982 38C65.7527 38 66.2355 38.8038 65.8809 39.4699L46.1694 76.5C45.7118 77.3541 45.5157 77.9783 45.5811 78.3725C45.7118 78.7667 46.2021 78.9638 47.0519 78.9638H83.8493C84.4571 78.9638 84.9243 79.5014 84.8396 80.1032L83.6262 88.7209C83.5679 89.1352 83.2579 89.4693 82.8491 89.5585L76.2431 91H33C30.7774 91 28.9797 90.5072 27.6069 89.5217C26.2341 88.4705 25.3842 87.1237 25.0574 85.4812C24.7959 83.7729 25.1228 82.0647 26.038 80.3565L48.827 38.5216C49.0021 38.2001 49.339 38 49.7051 38H64.9982ZM80.5165 51.3044C81.1238 51.3044 81.591 51.8413 81.5069 52.4428L74.1381 105.138C74.069 105.632 73.6465 106 73.1477 106H58.3948C57.7891 106 57.3224 105.466 57.4039 104.865L63.2313 61.9478L67.3881 51.9214C67.543 51.5479 67.9075 51.3044 68.3119 51.3044H80.5165Z" fill="#56CCF2"/>
<path d="M47.4916 77.2084L47.4935 77.2048L67.205 40.1747C68.0914 38.5095 66.8846 36.5 64.9982 36.5H49.7051C48.7898 36.5 47.9476 37.0002 47.5097 37.8041L24.7207 79.639L24.7207 79.639L24.7158 79.6481C23.6668 81.6061 23.2581 83.6403 23.5747 85.7081L23.5797 85.7411L23.5862 85.7739C23.9867 87.7863 25.0431 89.4478 26.6949 90.7127L26.7133 90.7268L26.7321 90.7403C28.4295 91.9588 30.5617 92.5 33 92.5H57.5691L55.9176 104.664C55.7138 106.164 56.8804 107.5 58.3948 107.5H73.1477C74.3947 107.5 75.4509 106.581 75.6236 105.346L77.4519 92.2715L83.1689 91.024C84.1907 90.8011 84.9657 89.9657 85.1115 88.9301L86.3249 80.3123C86.5367 78.8078 85.3687 77.4638 83.8493 77.4638H79.5226L82.9924 52.6506C83.2027 51.1468 82.0349 49.8044 80.5165 49.8044H68.3119C67.301 49.8044 66.3896 50.4131 66.0025 51.3469L61.8457 61.3734L61.7712 61.5532L61.745 61.746L59.6108 77.4638H47.3599C47.3992 77.3843 47.4429 77.2992 47.4916 77.2084Z" stroke="white" stroke-opacity="0.3" stroke-width="3"/>
<path d="M46.6101 76.7361L46.6108 76.7349L66.3223 39.7048C66.8541 38.7057 66.13 37.5 64.9982 37.5H49.7051C49.1559 37.5 48.6506 37.8001 48.3879 38.2824L25.5989 80.1173L25.5972 80.1204C24.6374 81.9118 24.2833 83.7287 24.5631 85.5568L24.5648 85.5678L24.567 85.5787C24.9184 87.3446 25.8371 88.7963 27.3029 89.9187L27.309 89.9234L27.3153 89.9279C28.7963 90.9911 30.7055 91.5 33 91.5H58.7141L56.9085 104.798C56.7862 105.699 57.4862 106.5 58.3948 106.5H73.1477C73.8959 106.5 74.5296 105.949 74.6333 105.208L76.5581 91.443L82.9557 90.047C83.5688 89.9133 84.0338 89.412 84.1213 88.7907L85.3347 80.1729C85.4618 79.2702 84.7609 78.4638 83.8493 78.4638H78.373L82.002 52.5121C82.1282 51.6098 81.4275 50.8044 80.5165 50.8044H68.3119C67.7053 50.8044 67.1585 51.1696 66.9262 51.7299L62.7695 61.7563L62.7446 61.8163L62.7359 61.8806L60.4842 78.4638H47.0519C46.6567 78.4638 46.3941 78.4167 46.2333 78.352C46.1301 78.3105 46.088 78.2709 46.0695 78.2434C46.0648 78.149 46.0823 77.9934 46.1561 77.7586C46.2415 77.4868 46.3898 77.1474 46.6101 76.7361Z" fill="#56CCF2" stroke="#333333"/>
<path d="M37.3524 123.9C38.1584 123.9 38.7954 123.995 39.2634 124.186C39.7314 124.368 40.0477 124.68 40.2124 125.122C40.3857 125.555 40.4161 126.153 40.3034 126.916C40.1994 127.679 40.0217 128.268 39.7704 128.684C39.5277 129.091 39.1811 129.373 38.7304 129.529C38.2797 129.685 37.6861 129.763 36.9494 129.763C36.5594 129.763 36.1781 129.746 35.8054 129.711C35.4327 129.676 35.0817 129.633 34.7524 129.581C34.4317 129.52 34.1587 129.46 33.9334 129.399C33.7081 129.338 33.5521 129.286 33.4654 129.243L33.5434 128.268C34.0634 128.268 34.6051 128.268 35.1684 128.268C35.7317 128.268 36.2777 128.268 36.8064 128.268C37.1531 128.268 37.4261 128.229 37.6254 128.151C37.8247 128.073 37.9807 127.926 38.0934 127.709C38.2061 127.492 38.2884 127.176 38.3404 126.76C38.3924 126.405 38.3924 126.127 38.3404 125.928C38.2971 125.729 38.1887 125.59 38.0154 125.512C37.8507 125.434 37.6124 125.395 37.3004 125.395C36.4944 125.395 35.8054 125.404 35.2334 125.421C34.6614 125.43 34.2757 125.443 34.0764 125.46L34.0244 124.03C34.3797 123.987 34.7134 123.956 35.0254 123.939C35.3374 123.922 35.6754 123.913 36.0394 123.913C36.4034 123.904 36.8411 123.9 37.3524 123.9ZM36.0004 124.03L34.7394 133H32.7634L34.0244 124.03H36.0004ZM43.8301 123.9L42.8161 130.985C42.7814 131.21 42.8074 131.371 42.8941 131.466C42.9894 131.553 43.1671 131.596 43.4271 131.596H44.0121L44.1031 132.909C43.9991 132.97 43.8474 133.017 43.6481 133.052C43.4574 133.087 43.2667 133.113 43.0761 133.13C42.8854 133.147 42.7294 133.156 42.6081 133.156C41.9927 133.156 41.5291 133 41.2171 132.688C40.9051 132.367 40.7837 131.934 40.8531 131.388L41.9061 123.9H43.8301ZM48.837 126.409C49.0623 126.409 49.3137 126.422 49.591 126.448C49.877 126.465 50.163 126.491 50.449 126.526C50.7437 126.561 51.0167 126.6 51.268 126.643C51.528 126.686 51.7403 126.73 51.905 126.773L50.592 127.813C50.2453 127.796 49.929 127.787 49.643 127.787C49.357 127.778 49.0883 127.774 48.837 127.774C48.551 127.774 48.3083 127.796 48.109 127.839C47.9097 127.882 47.745 127.969 47.615 128.099C47.485 128.22 47.3767 128.407 47.29 128.658C47.2033 128.909 47.1297 129.247 47.069 129.672C46.991 130.209 46.9477 130.621 46.939 130.907C46.939 131.184 46.991 131.375 47.095 131.479C47.199 131.583 47.3637 131.631 47.589 131.622C47.823 131.613 48.0657 131.535 48.317 131.388C48.577 131.241 48.8327 131.041 49.084 130.79C49.3353 130.53 49.578 130.24 49.812 129.919L50.15 130.543C49.9767 131.054 49.7297 131.505 49.409 131.895C49.097 132.276 48.7287 132.575 48.304 132.792C47.8793 133.009 47.407 133.13 46.887 133.156C46.3237 133.182 45.8903 133.069 45.587 132.818C45.2923 132.567 45.1103 132.177 45.041 131.648C44.9717 131.119 44.9977 130.456 45.119 129.659C45.2317 128.922 45.3877 128.337 45.587 127.904C45.795 127.462 46.055 127.137 46.367 126.929C46.679 126.712 47.0387 126.574 47.446 126.513C47.862 126.444 48.3257 126.409 48.837 126.409ZM50.007 126.656L51.905 126.773L51.034 133H49.539L49.565 131.544L49.331 131.388L50.007 126.656ZM59.8191 126.578C59.7497 127.003 59.6544 127.436 59.5331 127.878C59.4204 128.32 59.2904 128.758 59.1431 129.191C58.9957 129.624 58.8397 130.04 58.6751 130.439C58.5191 130.829 58.3587 131.193 58.1941 131.531C58.0381 131.869 57.8821 132.168 57.7261 132.428C57.2927 133.173 56.8421 133.78 56.3741 134.248C55.9061 134.716 55.4034 135.063 54.8661 135.288C54.3287 135.513 53.7394 135.643 53.0981 135.678L52.9031 134.547C53.2237 134.452 53.5271 134.343 53.8131 134.222C54.0991 134.109 54.3721 133.958 54.6321 133.767C54.9007 133.576 55.1607 133.321 55.4121 133C55.6634 132.671 55.9147 132.25 56.1661 131.739C56.4261 131.228 56.6514 130.716 56.8421 130.205C57.0414 129.694 57.2147 129.143 57.3621 128.554C57.5181 127.965 57.6567 127.306 57.7781 126.578H59.8191ZM54.8921 126.578L55.4381 131.518C55.4641 131.665 55.5507 131.739 55.6981 131.739H56.4261L55.9061 133H54.5931C54.3937 133 54.2247 132.939 54.0861 132.818C53.9474 132.697 53.8607 132.545 53.8261 132.363L52.8121 126.578H54.8921ZM64.0448 126.409C64.8334 126.409 65.4401 126.496 65.8648 126.669C66.2981 126.834 66.5884 127.085 66.7358 127.423C66.8831 127.752 66.9178 128.16 66.8398 128.645C66.7791 129.044 66.6448 129.36 66.4368 129.594C66.2374 129.819 65.9601 129.988 65.6048 130.101C65.2494 130.214 64.7988 130.292 64.2528 130.335L60.9768 130.608L61.1198 129.542L63.8758 129.269C64.1098 129.243 64.3004 129.208 64.4478 129.165C64.6038 129.113 64.7251 129.035 64.8118 128.931C64.8984 128.818 64.9548 128.662 64.9808 128.463C65.0154 128.255 65.0024 128.099 64.9418 127.995C64.8811 127.891 64.7728 127.826 64.6168 127.8C64.4608 127.765 64.2528 127.752 63.9928 127.761C63.7241 127.761 63.4988 127.787 63.3168 127.839C63.1348 127.891 62.9831 127.986 62.8618 128.125C62.7404 128.255 62.6408 128.446 62.5628 128.697C62.4848 128.94 62.4111 129.256 62.3418 129.646C62.2551 130.209 62.2421 130.634 62.3028 130.92C62.3634 131.206 62.4978 131.397 62.7058 131.492C62.9138 131.587 63.2041 131.635 63.5768 131.635C63.7848 131.635 64.0361 131.631 64.3308 131.622C64.6254 131.605 64.9244 131.587 65.2278 131.57C65.5398 131.544 65.8214 131.518 66.0728 131.492L66.2028 132.688C65.9428 132.801 65.6481 132.892 65.3188 132.961C64.9894 133.03 64.6558 133.078 64.3178 133.104C63.9798 133.139 63.6634 133.156 63.3688 133.156C62.5108 133.156 61.8434 133.026 61.3668 132.766C60.8988 132.506 60.5868 132.12 60.4308 131.609C60.2748 131.089 60.2401 130.452 60.3268 129.698C60.4048 129.031 60.5348 128.485 60.7168 128.06C60.9074 127.635 61.1501 127.306 61.4448 127.072C61.7481 126.829 62.1164 126.66 62.5498 126.565C62.9831 126.461 63.4814 126.409 64.0448 126.409ZM69.8617 126.578L69.8747 128.112L70.0437 128.294L69.3937 133H67.4697L68.3667 126.578H69.8617ZM73.0077 126.409L72.5917 128.19H72.1237C71.8203 128.19 71.491 128.259 71.1357 128.398C70.789 128.528 70.3513 128.727 69.8227 128.996L69.7447 127.865C70.256 127.388 70.7543 127.029 71.2397 126.786C71.725 126.535 72.1843 126.409 72.6177 126.409H73.0077ZM76.2681 126.409C76.5888 126.409 76.9311 126.422 77.2951 126.448C77.6591 126.474 78.0101 126.504 78.3481 126.539C78.6948 126.574 78.9938 126.613 79.2451 126.656L79.0631 127.852C78.6471 127.843 78.2311 127.839 77.8151 127.839C77.4078 127.83 76.9918 127.822 76.5671 127.813C76.2378 127.813 75.9735 127.822 75.7741 127.839C75.5835 127.848 75.4448 127.882 75.3581 127.943C75.2715 127.995 75.2195 128.082 75.2021 128.203C75.1848 128.359 75.2281 128.48 75.3321 128.567C75.4448 128.654 75.6355 128.745 75.9041 128.84L77.5031 129.412C77.8411 129.533 78.1185 129.676 78.3351 129.841C78.5518 130.006 78.7035 130.209 78.7901 130.452C78.8855 130.695 78.9115 130.989 78.8681 131.336C78.8075 131.856 78.6428 132.246 78.3741 132.506C78.1141 132.757 77.7631 132.926 77.3211 133.013C76.8878 133.1 76.3591 133.143 75.7351 133.143C75.3971 133.143 75.0808 133.134 74.7861 133.117C74.5001 133.108 74.2011 133.082 73.8891 133.039C73.5858 133.004 73.2435 132.961 72.8621 132.909L73.0311 131.713C73.1958 131.722 73.3951 131.73 73.6291 131.739C73.8718 131.739 74.1231 131.743 74.3831 131.752C74.6518 131.752 74.9031 131.752 75.1371 131.752C75.6311 131.743 76.0081 131.726 76.2681 131.7C76.5281 131.674 76.7101 131.631 76.8141 131.57C76.9268 131.501 76.9961 131.401 77.0221 131.271C77.0395 131.158 77.0221 131.072 76.9701 131.011C76.9268 130.95 76.8445 130.894 76.7231 130.842C76.6105 130.79 76.4545 130.729 76.2551 130.66L74.6951 130.075C74.3398 129.945 74.0538 129.789 73.8371 129.607C73.6291 129.425 73.4861 129.204 73.4081 128.944C73.3388 128.684 73.3258 128.389 73.3691 128.06C73.4211 127.661 73.5511 127.345 73.7591 127.111C73.9671 126.868 74.2748 126.691 74.6821 126.578C75.0895 126.465 75.6181 126.409 76.2681 126.409Z" fill="white"/>
</g>
<defs>
<clipPath id="clip0_24_138">
<rect width="112" height="160" rx="6" fill="white"/>
</clipPath>
</defs>
</svg>
