<svg width="112" height="160" viewBox="0 0 112 160" fill="none" xmlns="http://www.w3.org/2000/svg">
<g clip-path="url(#clip0_24_57)">
<path d="M1 7C1 3.6863 3.68629 1 7 1H105C108.314 1 111 3.68629 111 7V152C111 155.314 108.314 158 105 158H7C3.68629 158 1 155.314 1 152V7Z" fill="#393B4E"/>
<path fill-rule="evenodd" clip-rule="evenodd" d="M7 0C3.13401 0 0 3.13401 0 7V153C0 156.866 3.13401 160 7 160H105C108.866 160 112 156.866 112 153V7C112 3.13401 108.866 0 105 0H7ZM7 1C3.68629 1 1 3.68629 1 7C1 7 1 7 1 7V152C1 152.165 1.00666 152.328 1.01973 152.49C1.2691 155.575 3.85131 158 7 158H105C108.149 158 110.731 155.575 110.98 152.49C110.993 152.328 111 152.165 111 152V7C111 3.68629 108.314 1 105 1H7Z" fill="black" fill-opacity="0.3"/>
<path fill-rule="evenodd" clip-rule="evenodd" d="M19 40C19 37.2386 21.2386 35 24 35H37C39.4193 35 41.4373 36.7183 41.9002 39.001C41.9334 39.0003 41.9667 39 42 39H54C56.4193 39 58.4373 40.7183 58.9002 43.001C58.9334 43.0003 58.9666 43 59 43H71C71.0334 43 71.0666 43.0003 71.0998 43.001C71.5627 40.7182 73.5807 39 76 39H88C90.7614 39 93 41.2386 93 44V104C93 106.761 90.7614 109 88 109H76C75.0893 109 74.2354 108.757 73.5 108.331C72.7646 108.757 71.9107 109 71 109H59C58.0893 109 57.2354 108.757 56.5 108.331C55.7646 108.757 54.9107 109 54 109H42C41.0893 109 40.2354 108.757 39.5 108.331C38.7646 108.757 37.9107 109 37 109H24C21.2386 109 19 106.761 19 104V40ZM37.3989 105.96C37.27 105.986 37.1366 106 37 106H24C22.8954 106 22 105.105 22 104V40C22 38.8954 22.8954 38 24 38H37C38.1045 38 38.9998 38.8952 39 39.9996C39 39.9995 39 39.9998 39 39.9996V104C39 104.968 38.3123 105.775 37.3989 105.96ZM41.6011 105.96C41.73 105.986 41.8634 106 42 106H54C54.1366 106 54.27 105.986 54.3989 105.96C55.3123 105.775 56 104.968 56 104V44C56 43.9999 56 44.0001 56 44C55.9998 42.8956 55.1045 42 54 42H42C40.8954 42 40 42.8954 40 44V104C40 104.968 40.6877 105.775 41.6011 105.96ZM58.6011 105.96C58.73 105.986 58.8634 106 59 106H71C71.1366 106 71.27 105.986 71.3989 105.96C72.3123 105.775 73 104.968 73 104V48C73 46.8954 72.1046 46 71 46H59C57.8954 46 57 46.8954 57 48V104C57 104.968 57.6877 105.775 58.6011 105.96ZM75.6011 105.96C75.73 105.986 75.8634 106 76 106H88C89.1046 106 90 105.105 90 104V44C90 42.8954 89.1046 42 88 42H76C74.8955 42 74.0002 42.8952 74 43.9996C74 43.9995 74 43.9998 74 43.9996V104C74 104.968 74.6877 105.775 75.6011 105.96Z" fill="white" fill-opacity="0.3"/>
<path fill-rule="evenodd" clip-rule="evenodd" d="M21 40C21 38.3431 22.3431 37 24 37H37C38.6569 37 40 38.3431 40 40V41.7639C40.5308 41.2889 41.2316 41 42 41H54C55.6569 41 57 42.3431 57 44V45.7639C57.5308 45.2889 58.2316 45 59 45H71C71.7684 45 72.4692 45.2889 73 45.7639V44C73 42.3431 74.3431 41 76 41H88C89.6569 41 91 42.3431 91 44V104C91 105.657 89.6569 107 88 107H76C74.9565 107 74.0375 106.467 73.5 105.659C72.9625 106.467 72.0435 107 71 107H59C57.9565 107 57.0375 106.467 56.5 105.659C55.9625 106.467 55.0435 107 54 107H42C40.9565 107 40.0375 106.467 39.5 105.659C38.9625 106.467 38.0435 107 37 107H24C22.3431 107 21 105.657 21 104V40ZM39 104C39 105.105 38.1046 106 37 106H24C22.8954 106 22 105.105 22 104V40C22 38.8954 22.8954 38 24 38H37C38.1046 38 39 38.8954 39 40V104ZM73 104V48C73 46.8954 72.1046 46 71 46H59C57.8954 46 57 46.8954 57 48V104C57 105.105 57.8954 106 59 106H71C72.1046 106 73 105.105 73 104ZM40 44C40 42.8954 40.8954 42 42 42H54C55.1046 42 56 42.8954 56 44V104C56 105.105 55.1046 106 54 106H42C40.8954 106 40 105.105 40 104V44ZM74 44C74 42.8954 74.8954 42 76 42H88C89.1046 42 90 42.8954 90 44V104C90 105.105 89.1046 106 88 106H76C74.8954 106 74 105.105 74 104V44Z" fill="#333333"/>
<path d="M22 40C22 38.8954 22.8954 38 24 38H37C38.1046 38 39 38.8954 39 40V104C39 105.105 38.1046 106 37 106H24C22.8954 106 22 105.105 22 104V40Z" fill="#BB6BD9"/>
<path d="M40 44C40 42.8954 40.8954 42 42 42H54C55.1046 42 56 42.8954 56 44V104C56 105.105 55.1046 106 54 106H42C40.8954 106 40 105.105 40 104V44Z" fill="#EB5757"/>
<rect x="57" y="46" width="16" height="60" rx="2" fill="#F2994A"/>
<path d="M74 44C74 42.8954 74.8954 42 76 42H88C89.1046 42 90 42.8954 90 44V104C90 105.105 89.1046 106 88 106H76C74.8954 106 74 105.105 74 104V44Z" fill="#F3BE54"/>
<rect x="22" y="92" width="17" height="8" fill="#D1A0E3"/>
<rect x="40" y="92" width="16" height="8" fill="#F08484"/>
<rect x="57" y="92" width="16" height="8" fill="#F4BC8A"/>
<rect x="74" y="92" width="16" height="8" fill="#F8D99B"/>
<path d="M26.614 123.874C27.0387 123.874 27.4027 123.887 27.706 123.913C28.0093 123.93 28.2867 123.965 28.538 124.017C28.798 124.06 29.058 124.121 29.318 124.199L29.058 125.642C28.7807 125.625 28.5163 125.612 28.265 125.603C28.0223 125.594 27.7667 125.59 27.498 125.59C27.2293 125.581 26.9087 125.577 26.536 125.577C26.198 125.577 25.912 125.62 25.678 125.707C25.444 125.785 25.2403 125.932 25.067 126.149C24.9023 126.357 24.7637 126.66 24.651 127.059C24.5383 127.449 24.443 127.96 24.365 128.593C24.261 129.338 24.222 129.919 24.248 130.335C24.2827 130.751 24.404 131.041 24.612 131.206C24.8287 131.371 25.158 131.453 25.6 131.453C26.2153 131.453 26.7223 131.444 27.121 131.427C27.5283 131.401 27.927 131.371 28.317 131.336L28.408 132.805C27.9747 132.926 27.5413 133.013 27.108 133.065C26.6747 133.126 26.1503 133.156 25.535 133.156C24.6077 133.156 23.8753 133 23.338 132.688C22.8093 132.376 22.4627 131.878 22.298 131.193C22.1333 130.5 22.129 129.581 22.285 128.437C22.415 127.562 22.584 126.829 22.792 126.24C23 125.651 23.2687 125.183 23.598 124.836C23.9273 124.489 24.339 124.242 24.833 124.095C25.327 123.948 25.9207 123.874 26.614 123.874ZM33.245 126.409C34.0337 126.409 34.6664 126.526 35.143 126.76C35.6197 126.985 35.9404 127.349 36.105 127.852C36.2784 128.355 36.3044 129.031 36.183 129.88C36.0704 130.686 35.8754 131.332 35.598 131.817C35.3294 132.294 34.948 132.636 34.454 132.844C33.96 133.052 33.3187 133.156 32.53 133.156C31.75 133.156 31.1174 133.043 30.632 132.818C30.1554 132.593 29.826 132.229 29.644 131.726C29.4707 131.223 29.4404 130.556 29.553 129.724C29.6744 128.909 29.8694 128.264 30.138 127.787C30.4067 127.302 30.7924 126.951 31.295 126.734C31.8064 126.517 32.4564 126.409 33.245 126.409ZM33.219 127.813C32.8724 127.813 32.5907 127.869 32.374 127.982C32.166 128.095 31.997 128.298 31.867 128.593C31.7457 128.888 31.646 129.317 31.568 129.88C31.4987 130.374 31.477 130.76 31.503 131.037C31.5377 131.314 31.6417 131.505 31.815 131.609C31.9884 131.713 32.244 131.765 32.582 131.765C32.9287 131.765 33.206 131.709 33.414 131.596C33.622 131.475 33.7867 131.267 33.908 130.972C34.0294 130.677 34.129 130.261 34.207 129.724C34.2764 129.213 34.2937 128.823 34.259 128.554C34.233 128.277 34.1334 128.086 33.96 127.982C33.7954 127.869 33.5484 127.813 33.219 127.813ZM40.25 123.9L39.236 130.985C39.2013 131.21 39.2273 131.371 39.314 131.466C39.4093 131.553 39.587 131.596 39.847 131.596H40.432L40.523 132.909C40.419 132.97 40.2673 133.017 40.068 133.052C39.8773 133.087 39.6867 133.113 39.496 133.13C39.3053 133.147 39.1493 133.156 39.028 133.156C38.4127 133.156 37.949 133 37.637 132.688C37.325 132.367 37.2037 131.934 37.273 131.388L38.326 123.9H40.25ZM44.5029 123.9L43.4889 130.985C43.4543 131.21 43.4803 131.371 43.5669 131.466C43.6623 131.553 43.8399 131.596 44.0999 131.596H44.6849L44.7759 132.909C44.6719 132.97 44.5203 133.017 44.3209 133.052C44.1303 133.087 43.9396 133.113 43.7489 133.13C43.5583 133.147 43.4023 133.156 43.2809 133.156C42.6656 133.156 42.2019 133 41.8899 132.688C41.5779 132.367 41.4566 131.934 41.5259 131.388L42.5789 123.9H44.5029ZM49.4198 126.409C50.2084 126.409 50.8151 126.496 51.2398 126.669C51.6731 126.834 51.9634 127.085 52.1108 127.423C52.2581 127.752 52.2928 128.16 52.2148 128.645C52.1541 129.044 52.0198 129.36 51.8118 129.594C51.6124 129.819 51.3351 129.988 50.9798 130.101C50.6244 130.214 50.1738 130.292 49.6278 130.335L46.3518 130.608L46.4948 129.542L49.2508 129.269C49.4848 129.243 49.6754 129.208 49.8228 129.165C49.9788 129.113 50.1001 129.035 50.1868 128.931C50.2734 128.818 50.3298 128.662 50.3558 128.463C50.3904 128.255 50.3774 128.099 50.3168 127.995C50.2561 127.891 50.1478 127.826 49.9918 127.8C49.8358 127.765 49.6278 127.752 49.3678 127.761C49.0991 127.761 48.8738 127.787 48.6918 127.839C48.5098 127.891 48.3581 127.986 48.2368 128.125C48.1154 128.255 48.0158 128.446 47.9378 128.697C47.8598 128.94 47.7861 129.256 47.7168 129.646C47.6301 130.209 47.6171 130.634 47.6778 130.92C47.7384 131.206 47.8728 131.397 48.0808 131.492C48.2888 131.587 48.5791 131.635 48.9518 131.635C49.1598 131.635 49.4111 131.631 49.7058 131.622C50.0004 131.605 50.2994 131.587 50.6028 131.57C50.9148 131.544 51.1964 131.518 51.4478 131.492L51.5778 132.688C51.3178 132.801 51.0231 132.892 50.6938 132.961C50.3644 133.03 50.0308 133.078 49.6928 133.104C49.3548 133.139 49.0384 133.156 48.7438 133.156C47.8858 133.156 47.2184 133.026 46.7418 132.766C46.2738 132.506 45.9618 132.12 45.8058 131.609C45.6498 131.089 45.6151 130.452 45.7018 129.698C45.7798 129.031 45.9098 128.485 46.0918 128.06C46.2824 127.635 46.5251 127.306 46.8198 127.072C47.1231 126.829 47.4914 126.66 47.9248 126.565C48.3581 126.461 48.8564 126.409 49.4198 126.409ZM56.5627 126.409C56.97 126.409 57.4033 126.444 57.8627 126.513C58.322 126.574 58.725 126.678 59.0717 126.825L58.7987 128.008C58.4173 127.991 58.0533 127.982 57.7067 127.982C57.36 127.973 57.0653 127.969 56.8227 127.969C56.4413 127.969 56.1293 128.021 55.8867 128.125C55.644 128.229 55.4577 128.415 55.3277 128.684C55.1977 128.944 55.1023 129.312 55.0417 129.789C54.9723 130.292 54.9637 130.673 55.0157 130.933C55.0677 131.193 55.1933 131.371 55.3927 131.466C55.6007 131.561 55.891 131.609 56.2637 131.609C56.4197 131.609 56.606 131.605 56.8227 131.596C57.048 131.587 57.2907 131.579 57.5507 131.57C57.8107 131.553 58.062 131.527 58.3047 131.492L58.4347 132.74C58.062 132.887 57.6503 132.991 57.1997 133.052C56.7577 133.121 56.333 133.156 55.9257 133.156C55.1717 133.156 54.5607 133.043 54.0927 132.818C53.6247 132.584 53.2997 132.216 53.1177 131.713C52.9443 131.202 52.914 130.534 53.0267 129.711C53.148 128.914 53.3343 128.277 53.5857 127.8C53.8457 127.315 54.214 126.964 54.6907 126.747C55.176 126.522 55.8 126.409 56.5627 126.409ZM63.1246 124.797L62.2406 130.985C62.2059 131.219 62.2276 131.379 62.3056 131.466C62.3836 131.553 62.5483 131.596 62.7996 131.596H63.6706L63.7616 132.909C63.5969 132.961 63.3976 133.004 63.1636 133.039C62.9383 133.082 62.7173 133.113 62.5006 133.13C62.2839 133.147 62.1063 133.156 61.9676 133.156C61.3696 133.156 60.9146 132.996 60.6026 132.675C60.2993 132.346 60.1909 131.904 60.2776 131.349L61.2266 124.797H63.1246ZM64.6586 126.578L64.4766 127.839H59.6406L59.7966 126.643L61.0446 126.578H64.6586ZM67.6383 126.578L66.7413 133H64.8303L65.7273 126.578H67.6383ZM67.4433 123.744C67.6513 123.744 67.7986 123.796 67.8853 123.9C67.9806 124.004 68.0153 124.16 67.9893 124.368L67.8983 125.057C67.8463 125.421 67.6339 125.603 67.2613 125.603H66.4813C66.0653 125.603 65.8789 125.395 65.9223 124.979L66.0263 124.29C66.0609 123.926 66.2689 123.744 66.6503 123.744H67.4433ZM72.2323 126.409C73.021 126.409 73.6537 126.526 74.1303 126.76C74.607 126.985 74.9277 127.349 75.0923 127.852C75.2657 128.355 75.2917 129.031 75.1703 129.88C75.0577 130.686 74.8627 131.332 74.5853 131.817C74.3167 132.294 73.9353 132.636 73.4413 132.844C72.9473 133.052 72.306 133.156 71.5173 133.156C70.7373 133.156 70.1047 133.043 69.6193 132.818C69.1427 132.593 68.8133 132.229 68.6313 131.726C68.458 131.223 68.4277 130.556 68.5403 129.724C68.6617 128.909 68.8567 128.264 69.1253 127.787C69.394 127.302 69.7797 126.951 70.2823 126.734C70.7937 126.517 71.4437 126.409 72.2323 126.409ZM72.2063 127.813C71.8597 127.813 71.578 127.869 71.3613 127.982C71.1533 128.095 70.9843 128.298 70.8543 128.593C70.733 128.888 70.6333 129.317 70.5553 129.88C70.486 130.374 70.4643 130.76 70.4903 131.037C70.525 131.314 70.629 131.505 70.8023 131.609C70.9757 131.713 71.2313 131.765 71.5693 131.765C71.916 131.765 72.1933 131.709 72.4013 131.596C72.6093 131.475 72.774 131.267 72.8953 130.972C73.0167 130.677 73.1163 130.261 73.1943 129.724C73.2637 129.213 73.281 128.823 73.2463 128.554C73.2203 128.277 73.1207 128.086 72.9473 127.982C72.7827 127.869 72.5357 127.813 72.2063 127.813ZM81.3693 126.409C81.7246 126.409 82.0323 126.478 82.2923 126.617C82.5523 126.747 82.743 126.946 82.8643 127.215C82.9856 127.484 83.0203 127.822 82.9683 128.229L82.2923 133H80.3553L80.9533 128.814C80.9966 128.519 80.9793 128.316 80.9013 128.203C80.832 128.082 80.676 128.025 80.4333 128.034C80.1473 128.043 79.844 128.134 79.5233 128.307C79.2113 128.48 78.83 128.749 78.3793 129.113L78.1583 128.138C78.6696 127.592 79.1983 127.167 79.7443 126.864C80.299 126.561 80.8406 126.409 81.3693 126.409ZM78.4313 126.578V128.268L78.5873 128.45L77.9503 133H76.0263L76.9233 126.578H78.4313ZM87.0845 126.409C87.4052 126.409 87.7475 126.422 88.1115 126.448C88.4755 126.474 88.8265 126.504 89.1645 126.539C89.5112 126.574 89.8102 126.613 90.0615 126.656L89.8795 127.852C89.4635 127.843 89.0475 127.839 88.6315 127.839C88.2242 127.83 87.8082 127.822 87.3835 127.813C87.0542 127.813 86.7899 127.822 86.5905 127.839C86.3999 127.848 86.2612 127.882 86.1745 127.943C86.0879 127.995 86.0359 128.082 86.0185 128.203C86.0012 128.359 86.0445 128.48 86.1485 128.567C86.2612 128.654 86.4519 128.745 86.7205 128.84L88.3195 129.412C88.6575 129.533 88.9349 129.676 89.1515 129.841C89.3682 130.006 89.5199 130.209 89.6065 130.452C89.7019 130.695 89.7279 130.989 89.6845 131.336C89.6239 131.856 89.4592 132.246 89.1905 132.506C88.9305 132.757 88.5795 132.926 88.1375 133.013C87.7042 133.1 87.1755 133.143 86.5515 133.143C86.2135 133.143 85.8972 133.134 85.6025 133.117C85.3165 133.108 85.0175 133.082 84.7055 133.039C84.4022 133.004 84.0599 132.961 83.6785 132.909L83.8475 131.713C84.0122 131.722 84.2115 131.73 84.4455 131.739C84.6882 131.739 84.9395 131.743 85.1995 131.752C85.4682 131.752 85.7195 131.752 85.9535 131.752C86.4475 131.743 86.8245 131.726 87.0845 131.7C87.3445 131.674 87.5265 131.631 87.6305 131.57C87.7432 131.501 87.8125 131.401 87.8385 131.271C87.8559 131.158 87.8385 131.072 87.7865 131.011C87.7432 130.95 87.6609 130.894 87.5395 130.842C87.4269 130.79 87.2709 130.729 87.0715 130.66L85.5115 130.075C85.1562 129.945 84.8702 129.789 84.6535 129.607C84.4455 129.425 84.3025 129.204 84.2245 128.944C84.1552 128.684 84.1422 128.389 84.1855 128.06C84.2375 127.661 84.3675 127.345 84.5755 127.111C84.7835 126.868 85.0912 126.691 85.4985 126.578C85.9059 126.465 86.4345 126.409 87.0845 126.409Z" fill="white"/>
</g>
<defs>
<clipPath id="clip0_24_57">
<rect width="112" height="160" rx="6" fill="white"/>
</clipPath>
</defs>
</svg>
