<svg width="112" height="160" viewBox="0 0 112 160" fill="none" xmlns="http://www.w3.org/2000/svg">
<g clip-path="url(#clip0_121_105)">
<path d="M1 7C1 3.6863 3.68629 1 7 1H105C108.314 1 111 3.68629 111 7V152C111 155.314 108.314 158 105 158H7C3.68629 158 1 155.314 1 152V7Z" fill="#393B4E"/>
<path fill-rule="evenodd" clip-rule="evenodd" d="M7 0C3.13401 0 0 3.13401 0 7V153C0 156.866 3.13401 160 7 160H105C108.866 160 112 156.866 112 153V7C112 3.13401 108.866 0 105 0H7ZM7 1C3.68629 1 1 3.68629 1 7C1 7 1 7 1 7V152C1 152.165 1.00666 152.328 1.01973 152.49C1.2691 155.575 3.85131 158 7 158H105C108.149 158 110.731 155.575 110.98 152.49C110.993 152.328 111 152.165 111 152V7C111 3.68629 108.314 1 105 1H7Z" fill="black" fill-opacity="0.3"/>
<path d="M35.894 49.8897C40.1782 43.3328 47.5831 39 56 39C64.4169 39 71.8218 43.3328 76.106 49.8897C80.6162 50.6943 83.8247 51.5498 84.5 52C86 53 88 61 88 68C88 75 86 93.5 83.5 99C81 104.5 79 108 78 108C77.1075 108 76.6752 106.35 75.7404 102.783C75.5244 101.959 75.2815 101.032 75 100C74.9528 99.8268 74.9066 99.6557 74.8613 99.4864C73.298 94.9308 63.7182 94 56 94C48.2818 94 38.702 94.9308 37.1387 99.4864C37.0934 99.6557 37.0472 99.8268 37 100C36.7185 101.032 36.4757 101.959 36.2597 102.783C35.3248 106.35 34.8925 108 34 108C33 108 31 104.5 28.5 99C26 93.5 24 75 24 68C24 61 26 53 27.5 52C28.1753 51.5498 31.3838 50.6943 35.894 49.8897Z" fill="#E0E0E0"/>
<path d="M56 37.5C47.2899 37.5 39.6007 41.8682 35.0026 48.5268C32.9872 48.8982 31.2429 49.278 29.8874 49.6245C29.1417 49.8151 28.4986 49.9995 27.986 50.1711C27.5236 50.3259 27.0214 50.5163 26.6679 50.7519C26.2045 51.0609 25.8709 51.5214 25.6351 51.9118C25.3801 52.3339 25.1442 52.8367 24.9268 53.3823C24.4909 54.4764 24.0799 55.8681 23.7254 57.4149C23.0161 60.51 22.5 64.373 22.5 68C22.5 71.5924 23.0087 78.0396 23.8253 84.2578C24.2345 87.3744 24.7244 90.4592 25.273 93.1229C25.815 95.7544 26.4353 98.0826 27.1345 99.6207C28.3918 102.387 29.5445 104.698 30.5263 106.334C31.0133 107.146 31.4905 107.847 31.948 108.362C32.176 108.62 32.4375 108.875 32.731 109.076C33.0089 109.267 33.4481 109.5 34 109.5C34.7711 109.5 35.3514 109.112 35.7362 108.664C36.0827 108.26 36.3231 107.755 36.5105 107.277C36.8794 106.336 37.2391 104.963 37.6819 103.273L37.7107 103.163C37.9268 102.339 38.1678 101.419 38.4471 100.395C38.4898 100.238 38.5316 100.083 38.5727 99.9304C38.8174 99.2586 39.3903 98.6056 40.4199 98.0005C41.4738 97.3811 42.8937 96.8811 44.5914 96.4981C47.9841 95.7326 52.1778 95.5 56 95.5C59.8222 95.5 64.0159 95.7326 67.4086 96.4981C69.1063 96.8811 70.5262 97.3811 71.5801 98.0005C72.6096 98.6055 73.1826 99.2585 73.4273 99.9303C73.4684 100.083 73.5102 100.238 73.5529 100.395C73.8321 101.419 74.0733 102.339 74.2894 103.163L74.3181 103.273C74.7609 104.963 75.1206 106.336 75.4896 107.277C75.6769 107.755 75.9173 108.26 76.2638 108.664C76.6486 109.112 77.2289 109.5 78 109.5C78.5519 109.5 78.9911 109.267 79.269 109.076C79.5625 108.875 79.824 108.62 80.052 108.362C80.5095 107.847 80.9867 107.146 81.4737 106.334C82.4555 104.698 83.6082 102.387 84.8656 99.6207C85.5647 98.0826 86.185 95.7544 86.727 93.1229C87.2756 90.4592 87.7655 87.3744 88.1747 84.2578C88.9913 78.0396 89.5 71.5924 89.5 68C89.5 64.373 88.9839 60.51 88.2746 57.4149C87.9201 55.8681 87.5091 54.4764 87.0732 53.3823C86.8558 52.8367 86.6199 52.3339 86.3649 51.9118C86.1291 51.5214 85.7955 51.0609 85.3321 50.7519C84.9786 50.5163 84.4764 50.3259 84.014 50.1711C83.5014 49.9995 82.8583 49.8151 82.1126 49.6245C80.7571 49.278 79.0128 48.8982 76.9974 48.5268C72.3993 41.8682 64.7101 37.5 56 37.5Z" stroke="white" stroke-opacity="0.3" stroke-width="3"/>
<path d="M56 38.5C47.4849 38.5 39.9847 42.8444 35.5947 49.4354C33.4212 49.8274 31.5543 50.2306 30.1351 50.5933C29.4031 50.7805 28.7852 50.9581 28.3035 51.1194C27.8385 51.275 27.453 51.4304 27.2226 51.584C26.9432 51.7703 26.7018 52.0801 26.491 52.4289C26.2738 52.7884 26.0611 53.2372 25.8558 53.7524C25.4449 54.7838 25.0475 56.1227 24.7001 57.6383C24.0054 60.67 23.5 64.4577 23.5 68C23.5 71.5308 24.0029 77.9299 24.8168 84.1276C25.224 87.229 25.7102 90.2885 26.2525 92.9212C26.7925 95.5431 27.3951 97.7775 28.0448 99.2069C29.2973 101.962 30.4315 104.233 31.3838 105.82C31.8586 106.611 32.2989 107.251 32.6962 107.699C32.8946 107.923 33.0951 108.113 33.2964 108.251C33.4926 108.386 33.7327 108.5 34 108.5C34.4058 108.5 34.7288 108.302 34.9775 108.012C35.2134 107.737 35.4048 107.357 35.5794 106.912C35.9267 106.026 36.2743 104.7 36.7325 102.951L36.7433 102.91C36.9594 102.085 37.2016 101.161 37.4824 100.132C37.5282 99.9634 37.5731 99.7973 37.6171 99.6329C37.9591 98.6516 38.7433 97.8259 39.9132 97.1383C41.0902 96.4466 42.6204 95.9177 44.3713 95.5226C47.8723 94.7327 52.1532 94.5 56 94.5C59.8468 94.5 64.1277 94.7327 67.6287 95.5226C69.3796 95.9177 70.9098 96.4466 72.0868 97.1383C73.2567 97.8259 74.0409 98.6516 74.3829 99.633C74.4269 99.7973 74.4718 99.9634 74.5176 100.132C74.7983 101.161 75.0407 102.086 75.2567 102.91L75.2675 102.951C75.7258 104.7 76.0733 106.026 76.4206 106.912C76.5952 107.357 76.7866 107.737 77.0225 108.012C77.2712 108.302 77.5942 108.5 78 108.5C78.2673 108.5 78.5074 108.386 78.7036 108.251C78.9049 108.113 79.1054 107.923 79.3038 107.699C79.7011 107.251 80.1414 106.611 80.6162 105.82C81.5685 104.233 82.7027 101.962 83.9552 99.2069C84.6049 97.7775 85.2075 95.5431 85.7475 92.9212C86.2898 90.2885 86.776 87.229 87.1832 84.1276C87.9971 77.9299 88.5 71.5308 88.5 68C88.5 64.4577 87.9946 60.67 87.2999 57.6383C86.9525 56.1227 86.5551 54.7838 86.1442 53.7524C85.9389 53.2372 85.7262 52.7884 85.509 52.4289C85.2982 52.0801 85.0568 51.7703 84.7774 51.584C84.547 51.4304 84.1615 51.275 83.6965 51.1194C83.2148 50.9581 82.5969 50.7805 81.8649 50.5933C80.4457 50.2306 78.5788 49.8274 76.4053 49.4354C72.0153 42.8444 64.5151 38.5 56 38.5Z" fill="#E0E0E0" stroke="#333333"/>
<path d="M68.3955 84.7155C64.7421 86.8055 60.5105 88 56 88C51.4895 88 47.2579 86.8055 43.6045 84.7155C40.5721 90.2396 39.7261 93.4471 38.7281 97.344C37.9727 97.949 37.423 98.6578 37.1387 99.4865C37.3421 98.7259 37.527 98.0037 37.7062 97.3037C38.7427 93.2548 39.5903 89.9438 42.746 84.2014C35.6913 79.7818 31 71.9388 31 63C31 58.2955 32.2995 53.8945 34.559 50.1364C34.9897 50.0539 35.4351 49.9715 35.894 49.8896C33.4315 53.6585 32 58.1621 32 63C32 76.2548 42.7452 87 56 87C60.6599 87 65.0096 85.6719 68.6913 83.3737C68.7162 83.3581 68.7411 83.3425 68.766 83.3268C75.5151 79.0792 80 71.5634 80 63C80 58.1621 78.5685 53.6585 76.106 49.8896C76.5649 49.9715 77.0103 50.0539 77.441 50.1364C79.7005 53.8945 81 58.2955 81 63C81 71.9388 76.3087 79.7818 69.2539 84.2014C72.4097 89.9438 73.2573 93.2548 74.2938 97.3037C74.473 98.0038 74.6579 98.7259 74.8613 99.4865C74.5769 98.6578 74.0273 97.949 73.2719 97.344C72.2739 93.4471 71.4279 90.2396 68.3955 84.7155Z" fill="#828282"/>
<path fill-rule="evenodd" clip-rule="evenodd" d="M67 41.6636C63.7048 39.9613 59.9647 39 56 39C52.0353 39 48.2952 39.9613 45 41.6636V61C45 67.0751 49.9249 72 56 72C62.0751 72 67 67.0751 67 61V41.6636Z" fill="#BDBDBD"/>
<path d="M68 42.2108V61C68 67.6274 62.6274 73 56 73C49.3726 73 44 67.6274 44 61V42.2108C44.3285 42.0208 44.6619 41.8383 45 41.6636V61C45 67.0751 49.9249 72 56 72C62.0751 72 67 67.0751 67 61V41.6636C67.3381 41.8383 67.6715 42.0208 68 42.2108Z" fill="#4F4F4F"/>
<path d="M48 52.5616C48 51.6438 48.6244 50.8464 49.5258 50.6742C51.0535 50.3823 53.5267 50 56 50C58.4733 50 60.9465 50.3823 62.4742 50.6742C63.3756 50.8464 64 51.6438 64 52.5616V63.4384C64 64.3562 63.3756 65.1536 62.4742 65.3258C60.9465 65.6177 58.4733 66 56 66C53.5267 66 51.0535 65.6177 49.5258 65.3258C48.6244 65.1536 48 64.3562 48 63.4384V52.5616Z" fill="#828282"/>
<path d="M49 52.5C49 52.2239 49.2239 52 49.5 52H62.5C62.7761 52 63 52.2239 63 52.5V63.5C63 63.7761 62.7761 64 62.5 64H49.5C49.2239 64 49 63.7761 49 63.5V52.5Z" fill="#6AAE27"/>
<path fill-rule="evenodd" clip-rule="evenodd" d="M50 53V63H62V53H50ZM49.5 52C49.2239 52 49 52.2239 49 52.5V63.5C49 63.7761 49.2239 64 49.5 64H62.5C62.7761 64 63 63.7761 63 63.5V52.5C63 52.2239 62.7761 52 62.5 52H49.5Z" fill="black" fill-opacity="0.3"/>
<path d="M33.8843 69.4577C33.6038 69.6458 33.5 69.9503 33.5 70.2071V72.5H31.2071C30.9503 72.5 30.6458 72.6038 30.4577 72.8843C30.2657 73.1706 30 73.7116 30 74.5C30 75.2884 30.2657 75.8294 30.4577 76.1157L30.8721 75.8378L30.4577 76.1157C30.6458 76.3962 30.9503 76.5 31.2071 76.5H33.5V78.7929C33.5 79.0497 33.6038 79.3542 33.8843 79.5423L34.1628 79.127L33.8843 79.5423C34.1706 79.7343 34.7116 80 35.5 80C36.2884 80 36.8294 79.7343 37.1157 79.5423C37.3962 79.3542 37.5 79.0497 37.5 78.7929V76.5H39.7929C40.0497 76.5 40.3542 76.3962 40.5423 76.1157C40.7343 75.8294 41 75.2884 41 74.5C41 73.7116 40.7343 73.1706 40.5423 72.8843L40.127 73.1628L40.5423 72.8843C40.3542 72.6038 40.0497 72.5 39.7929 72.5H37.5V70.2071C37.5 69.9503 37.3962 69.6458 37.1157 69.4577L36.8372 69.873L37.1157 69.4577C36.8294 69.2657 36.2884 69 35.5 69C34.7116 69 34.1706 69.2657 33.8843 69.4577Z" fill="#E0E0E0" stroke="#4F4F4F"/>
<circle cx="77.5" cy="59.5" r="3" fill="#27AE60" stroke="#4F4F4F"/>
<circle cx="77.5" cy="71.5" r="3" fill="#EB5757" stroke="#4F4F4F"/>
<circle cx="71.5" cy="65.5" r="3" fill="#F3BE54" stroke="#4F4F4F"/>
<circle cx="83.5" cy="65.5" r="3" fill="#18ADDC" stroke="#4F4F4F"/>
<circle cx="34" cy="60" r="7.5" fill="#E0E0E0" stroke="#4F4F4F"/>
<circle cx="34" cy="60" r="4.5" fill="#BDBDBD" stroke="#828282"/>
<circle cx="35.5" cy="74.5" r="1.25" stroke="#BDBDBD" stroke-width="0.5"/>
<path d="M58.1366 83.7586L57.2179 82.4809C56.6194 81.6484 55.3806 81.6484 54.7821 82.4809L53.8634 83.7587C53.1721 84.7202 52.6155 85.7717 52.2089 86.8839L51.7726 88.0772C51.4452 88.9727 52.0254 89.9424 52.9693 90.0772L54.1615 90.2475C55.381 90.4217 56.619 90.4217 57.8385 90.2475L59.0307 90.0772C59.9746 89.9424 60.5548 88.9727 60.2274 88.0773L59.7912 86.8839C59.3845 85.7717 58.8279 84.7202 58.1366 83.7586Z" fill="#E0E0E0" stroke="#E0E0E0" stroke-width="2"/>
<path d="M57.0895 83.1588L56.8119 82.7728C56.4129 82.2178 55.5871 82.2178 55.1881 82.7728L54.9105 83.1588C53.8204 84.6751 52.9426 86.3332 52.3014 88.0871L52.2422 88.2489C52.024 88.8459 52.4108 89.4923 53.04 89.5822L53.1009 89.5909C55.0239 89.8656 56.9761 89.8656 58.8991 89.5909L58.96 89.5822C59.5892 89.4923 59.976 88.8459 59.7578 88.2489L59.6986 88.0871C59.0575 86.3332 58.1796 84.6751 57.0895 83.1588Z" fill="#BDBDBD" stroke="#4F4F4F"/>
<path d="M27.3289 123.9C28.2735 123.9 29.0232 124.043 29.5779 124.329C30.1412 124.606 30.5182 125.087 30.7089 125.772C30.8995 126.448 30.9082 127.388 30.7349 128.593C30.6049 129.52 30.4315 130.283 30.2149 130.881C29.9982 131.47 29.7209 131.93 29.3829 132.259C29.0449 132.58 28.6202 132.805 28.1089 132.935C27.5975 133.065 26.9865 133.13 26.2759 133.13C25.6519 133.13 25.0452 133.117 24.4559 133.091C23.8665 133.065 23.3032 133.035 22.7659 133L23.7409 131.531C24.0615 131.548 24.4559 131.566 24.9239 131.583C25.3919 131.592 25.8339 131.596 26.2499 131.596C26.6139 131.596 26.9259 131.557 27.1859 131.479C27.4545 131.392 27.6799 131.236 27.8619 131.011C28.0525 130.786 28.2085 130.469 28.3299 130.062C28.4599 129.646 28.5682 129.104 28.6549 128.437C28.7415 127.822 28.7849 127.319 28.7849 126.929C28.7849 126.53 28.7329 126.223 28.6289 126.006C28.5335 125.789 28.3732 125.638 28.1479 125.551C27.9225 125.464 27.6279 125.421 27.2639 125.421C26.9952 125.421 26.7135 125.425 26.4189 125.434C26.1242 125.434 25.8339 125.434 25.5479 125.434C25.2705 125.434 25.0149 125.434 24.7809 125.434L24.0269 124.03C24.3389 124.004 24.6812 123.982 25.0539 123.965C25.4265 123.939 25.8079 123.922 26.1979 123.913C26.5879 123.904 26.9649 123.9 27.3289 123.9ZM26.0159 124.03L24.7549 133H22.7659L24.0269 124.03H26.0159ZM33.8895 126.578L33.9025 128.112L34.0715 128.294L33.4215 133H31.4975L32.3945 126.578H33.8895ZM37.0355 126.409L36.6195 128.19H36.1515C35.8482 128.19 35.5188 128.259 35.1635 128.398C34.8168 128.528 34.3792 128.727 33.8505 128.996L33.7725 127.865C34.2838 127.388 34.7822 127.029 35.2675 126.786C35.7528 126.535 36.2122 126.409 36.6455 126.409H37.0355ZM40.8822 126.409C41.6708 126.409 42.2775 126.496 42.7022 126.669C43.1355 126.834 43.4258 127.085 43.5732 127.423C43.7205 127.752 43.7552 128.16 43.6772 128.645C43.6165 129.044 43.4822 129.36 43.2742 129.594C43.0748 129.819 42.7975 129.988 42.4422 130.101C42.0868 130.214 41.6362 130.292 41.0902 130.335L37.8142 130.608L37.9572 129.542L40.7132 129.269C40.9472 129.243 41.1378 129.208 41.2852 129.165C41.4412 129.113 41.5625 129.035 41.6492 128.931C41.7358 128.818 41.7922 128.662 41.8182 128.463C41.8528 128.255 41.8398 128.099 41.7792 127.995C41.7185 127.891 41.6102 127.826 41.4542 127.8C41.2982 127.765 41.0902 127.752 40.8302 127.761C40.5615 127.761 40.3362 127.787 40.1542 127.839C39.9722 127.891 39.8205 127.986 39.6992 128.125C39.5778 128.255 39.4782 128.446 39.4002 128.697C39.3222 128.94 39.2485 129.256 39.1792 129.646C39.0925 130.209 39.0795 130.634 39.1402 130.92C39.2008 131.206 39.3352 131.397 39.5432 131.492C39.7512 131.587 40.0415 131.635 40.4142 131.635C40.6222 131.635 40.8735 131.631 41.1682 131.622C41.4628 131.605 41.7618 131.587 42.0652 131.57C42.3772 131.544 42.6588 131.518 42.9102 131.492L43.0402 132.688C42.7802 132.801 42.4855 132.892 42.1562 132.961C41.8268 133.03 41.4932 133.078 41.1552 133.104C40.8172 133.139 40.5008 133.156 40.2062 133.156C39.3482 133.156 38.6808 133.026 38.2042 132.766C37.7362 132.506 37.4242 132.12 37.2682 131.609C37.1122 131.089 37.0775 130.452 37.1642 129.698C37.2422 129.031 37.3722 128.485 37.5542 128.06C37.7448 127.635 37.9875 127.306 38.2822 127.072C38.5855 126.829 38.9538 126.66 39.3872 126.565C39.8205 126.461 40.3188 126.409 40.8822 126.409ZM48.2721 126.409C48.4974 126.409 48.7487 126.422 49.0261 126.448C49.3121 126.465 49.5981 126.491 49.8841 126.526C50.1787 126.561 50.4517 126.6 50.7031 126.643C50.9631 126.686 51.1754 126.73 51.3401 126.773L50.0271 127.813C49.6804 127.796 49.3641 127.787 49.0781 127.787C48.7921 127.778 48.5234 127.774 48.2721 127.774C47.9861 127.774 47.7434 127.796 47.5441 127.839C47.3447 127.882 47.1801 127.969 47.0501 128.099C46.9201 128.22 46.8117 128.407 46.7251 128.658C46.6384 128.909 46.5647 129.247 46.5041 129.672C46.4261 130.209 46.3827 130.621 46.3741 130.907C46.3741 131.184 46.4261 131.375 46.5301 131.479C46.6341 131.583 46.7987 131.631 47.0241 131.622C47.2581 131.613 47.5007 131.535 47.7521 131.388C48.0121 131.241 48.2677 131.041 48.5191 130.79C48.7704 130.53 49.0131 130.24 49.2471 129.919L49.5851 130.543C49.4117 131.054 49.1647 131.505 48.8441 131.895C48.5321 132.276 48.1637 132.575 47.7391 132.792C47.3144 133.009 46.8421 133.13 46.3221 133.156C45.7587 133.182 45.3254 133.069 45.0221 132.818C44.7274 132.567 44.5454 132.177 44.4761 131.648C44.4067 131.119 44.4327 130.456 44.5541 129.659C44.6667 128.922 44.8227 128.337 45.0221 127.904C45.2301 127.462 45.4901 127.137 45.8021 126.929C46.1141 126.712 46.4737 126.574 46.8811 126.513C47.2971 126.444 47.7607 126.409 48.2721 126.409ZM49.4421 126.656L51.3401 126.773L50.4691 133H48.9741L49.0001 131.544L48.7661 131.388L49.4421 126.656ZM54.4051 126.578L54.4181 128.06L54.5871 128.242L53.9241 133H52.0131L52.9101 126.578H54.4051ZM56.9661 126.409C57.5641 126.409 57.9974 126.569 58.2661 126.89C58.5434 127.211 58.6431 127.657 58.5651 128.229L57.8891 133H56.0431L56.6411 128.749C56.6758 128.489 56.6541 128.307 56.5761 128.203C56.4981 128.09 56.3508 128.034 56.1341 128.034C55.9781 128.034 55.8134 128.069 55.6401 128.138C55.4668 128.207 55.2718 128.32 55.0551 128.476C54.8384 128.623 54.5741 128.831 54.2621 129.1L54.0281 128.138C54.5654 127.54 55.0638 127.102 55.5231 126.825C55.9824 126.548 56.4634 126.409 56.9661 126.409ZM60.9701 126.409C61.5768 126.409 62.0188 126.574 62.2961 126.903C62.5734 127.224 62.6688 127.666 62.5821 128.229L61.9191 133H60.0081L60.6061 128.749C60.6408 128.472 60.6104 128.285 60.5151 128.19C60.4284 128.086 60.2898 128.034 60.0991 128.034C59.9518 128.034 59.7914 128.069 59.6181 128.138C59.4534 128.199 59.2628 128.307 59.0461 128.463C58.8381 128.61 58.5868 128.818 58.2921 129.087L58.0451 128.138C58.5824 127.531 59.0764 127.094 59.5271 126.825C59.9864 126.548 60.4674 126.409 60.9701 126.409ZM67.1442 126.409C67.5515 126.409 67.9849 126.444 68.4442 126.513C68.9035 126.574 69.3065 126.678 69.6532 126.825L69.3802 128.008C68.9989 127.991 68.6349 127.982 68.2882 127.982C67.9415 127.973 67.6469 127.969 67.4042 127.969C67.0229 127.969 66.7109 128.021 66.4682 128.125C66.2255 128.229 66.0392 128.415 65.9092 128.684C65.7792 128.944 65.6839 129.312 65.6232 129.789C65.5539 130.292 65.5452 130.673 65.5972 130.933C65.6492 131.193 65.7749 131.371 65.9742 131.466C66.1822 131.561 66.4725 131.609 66.8452 131.609C67.0012 131.609 67.1875 131.605 67.4042 131.596C67.6295 131.587 67.8722 131.579 68.1322 131.57C68.3922 131.553 68.6435 131.527 68.8862 131.492L69.0162 132.74C68.6435 132.887 68.2319 132.991 67.7812 133.052C67.3392 133.121 66.9145 133.156 66.5072 133.156C65.7532 133.156 65.1422 133.043 64.6742 132.818C64.2062 132.584 63.8812 132.216 63.6992 131.713C63.5259 131.202 63.4955 130.534 63.6082 129.711C63.7295 128.914 63.9159 128.277 64.1672 127.8C64.4272 127.315 64.7955 126.964 65.2722 126.747C65.7575 126.522 66.3815 126.409 67.1442 126.409ZM73.942 126.409C74.1673 126.409 74.4186 126.422 74.696 126.448C74.982 126.465 75.268 126.491 75.554 126.526C75.8486 126.561 76.1216 126.6 76.373 126.643C76.633 126.686 76.8453 126.73 77.01 126.773L75.697 127.813C75.3503 127.796 75.034 127.787 74.748 127.787C74.462 127.778 74.1933 127.774 73.942 127.774C73.656 127.774 73.4133 127.796 73.214 127.839C73.0146 127.882 72.85 127.969 72.72 128.099C72.59 128.22 72.4816 128.407 72.395 128.658C72.3083 128.909 72.2346 129.247 72.174 129.672C72.096 130.209 72.0526 130.621 72.044 130.907C72.044 131.184 72.096 131.375 72.2 131.479C72.304 131.583 72.4686 131.631 72.694 131.622C72.928 131.613 73.1706 131.535 73.422 131.388C73.682 131.241 73.9376 131.041 74.189 130.79C74.4403 130.53 74.683 130.24 74.917 129.919L75.255 130.543C75.0816 131.054 74.8346 131.505 74.514 131.895C74.202 132.276 73.8336 132.575 73.409 132.792C72.9843 133.009 72.512 133.13 71.992 133.156C71.4286 133.182 70.9953 133.069 70.692 132.818C70.3973 132.567 70.2153 132.177 70.146 131.648C70.0766 131.119 70.1026 130.456 70.224 129.659C70.3366 128.922 70.4926 128.337 70.692 127.904C70.9 127.462 71.16 127.137 71.472 126.929C71.784 126.712 72.1436 126.574 72.551 126.513C72.967 126.444 73.4306 126.409 73.942 126.409ZM75.112 126.656L77.01 126.773L76.139 133H74.644L74.67 131.544L74.436 131.388L75.112 126.656ZM80.959 126.409C81.2797 126.409 81.622 126.422 81.986 126.448C82.35 126.474 82.701 126.504 83.039 126.539C83.3857 126.574 83.6847 126.613 83.936 126.656L83.754 127.852C83.338 127.843 82.922 127.839 82.506 127.839C82.0987 127.83 81.6827 127.822 81.258 127.813C80.9287 127.813 80.6644 127.822 80.465 127.839C80.2744 127.848 80.1357 127.882 80.049 127.943C79.9624 127.995 79.9104 128.082 79.893 128.203C79.8757 128.359 79.919 128.48 80.023 128.567C80.1357 128.654 80.3264 128.745 80.595 128.84L82.194 129.412C82.532 129.533 82.8094 129.676 83.026 129.841C83.2427 130.006 83.3944 130.209 83.481 130.452C83.5764 130.695 83.6024 130.989 83.559 131.336C83.4984 131.856 83.3337 132.246 83.065 132.506C82.805 132.757 82.454 132.926 82.012 133.013C81.5787 133.1 81.05 133.143 80.426 133.143C80.088 133.143 79.7717 133.134 79.477 133.117C79.191 133.108 78.892 133.082 78.58 133.039C78.2767 133.004 77.9344 132.961 77.553 132.909L77.722 131.713C77.8867 131.722 78.086 131.73 78.32 131.739C78.5627 131.739 78.814 131.743 79.074 131.752C79.3427 131.752 79.594 131.752 79.828 131.752C80.322 131.743 80.699 131.726 80.959 131.7C81.219 131.674 81.401 131.631 81.505 131.57C81.6177 131.501 81.687 131.401 81.713 131.271C81.7304 131.158 81.713 131.072 81.661 131.011C81.6177 130.95 81.5354 130.894 81.414 130.842C81.3014 130.79 81.1454 130.729 80.946 130.66L79.386 130.075C79.0307 129.945 78.7447 129.789 78.528 129.607C78.32 129.425 78.177 129.204 78.099 128.944C78.0297 128.684 78.0167 128.389 78.06 128.06C78.112 127.661 78.242 127.345 78.45 127.111C78.658 126.868 78.9657 126.691 79.373 126.578C79.7804 126.465 80.309 126.409 80.959 126.409ZM88.1915 124.797L87.3075 130.985C87.2728 131.219 87.2945 131.379 87.3725 131.466C87.4505 131.553 87.6152 131.596 87.8665 131.596H88.7375L88.8285 132.909C88.6638 132.961 88.4645 133.004 88.2305 133.039C88.0052 133.082 87.7842 133.113 87.5675 133.13C87.3508 133.147 87.1732 133.156 87.0345 133.156C86.4365 133.156 85.9815 132.996 85.6695 132.675C85.3662 132.346 85.2578 131.904 85.3445 131.349L86.2935 124.797H88.1915ZM89.7255 126.578L89.5435 127.839H84.7075L84.8635 126.643L86.1115 126.578H89.7255Z" fill="white"/>
</g>
<defs>
<clipPath id="clip0_121_105">
<rect width="112" height="160" rx="6" fill="white"/>
</clipPath>
</defs>
</svg>
