<svg width="112" height="160" viewBox="0 0 112 160" fill="none" xmlns="http://www.w3.org/2000/svg">
<g clip-path="url(#clip0_113_1346)">
<path d="M1 7C1 3.6863 3.68629 1 7 1H105C108.314 1 111 3.68629 111 7V152C111 155.314 108.314 158 105 158H7C3.68629 158 1 155.314 1 152V7Z" fill="#393B4E"/>
<path fill-rule="evenodd" clip-rule="evenodd" d="M7 0C3.13401 0 0 3.13401 0 7V153C0 156.866 3.13401 160 7 160H105C108.866 160 112 156.866 112 153V7C112 3.13401 108.866 0 105 0H7ZM7 1C3.68629 1 1 3.68629 1 7C1 7 1 7 1 7V152C1 152.165 1.00666 152.328 1.01973 152.49C1.2691 155.575 3.85131 158 7 158H105C108.149 158 110.731 155.575 110.98 152.49C110.993 152.328 111 152.165 111 152V7C111 3.68629 108.314 1 105 1H7Z" fill="black" fill-opacity="0.3"/>
<rect x="16" y="52" width="80" height="40" rx="2" fill="#F8D99B"/>
<rect x="14.5" y="50.5" width="83" height="43" rx="3.5" stroke="white" stroke-opacity="0.3" stroke-width="3"/>
<rect x="15.5" y="51.5" width="81" height="41" rx="2.5" fill="#F8D99B" stroke="#333333"/>
<rect x="16" y="52" width="80" height="40" rx="2" fill="#C03535"/>
<rect x="18" y="54" width="26" height="36" rx="1" fill="#F8D99B"/>
<rect x="18" y="68" width="76" height="22" rx="1" fill="#F8D99B"/>
<rect x="18" y="84" width="76" height="1" fill="#333333"/>
<rect x="18" y="82" width="76" height="1" fill="#333333"/>
<path d="M27.5 70.5C26.9477 70.5 26.5 70.9477 26.5 71.5V75.5H22.5C21.9477 75.5 21.5 75.9477 21.5 76.5V80.5C21.5 81.0523 21.9477 81.5 22.5 81.5H26.5V85.5C26.5 86.0523 26.9477 86.5 27.5 86.5H31.5C32.0523 86.5 32.5 86.0523 32.5 85.5V81.5H36.5C37.0523 81.5 37.5 81.0523 37.5 80.5V76.5C37.5 75.9477 37.0523 75.5 36.5 75.5H32.5V71.5C32.5 70.9477 32.0523 70.5 31.5 70.5H27.5Z" fill="#333333" stroke="#C03535"/>
<circle cx="74.5" cy="82.5" r="4" fill="#333333" stroke="#C03535"/>
<circle cx="85.5" cy="82.5" r="4" fill="#333333" stroke="#C03535"/>
<rect x="44.5" y="78.5" width="22" height="8" rx="4" fill="#EB5757" stroke="#C03535"/>
<rect x="48" y="81" width="6" height="3" rx="1.5" fill="#333333"/>
<rect x="47.5" y="80.5" width="7" height="4" rx="2" stroke="black" stroke-opacity="0.2"/>
<rect x="57" y="81" width="6" height="3" rx="1.5" fill="#333333"/>
<rect x="56.5" y="80.5" width="7" height="4" rx="2" stroke="black" stroke-opacity="0.2"/>
<rect x="20" y="56" width="7" height="7" fill="#333333"/>
<path d="M22.5 57H24.5L24 57.5V61.5L24.5 62H22.5L23 61.5V57.5L22.5 57Z" fill="#F2F2F2"/>
<path d="M31.7753 123.991C32.4859 123.991 33.2009 124 33.9203 124.017C34.6396 124.026 35.2939 124.069 35.8833 124.147L35.6493 125.564H32.4773C32.1999 125.564 31.9963 125.616 31.8663 125.72C31.7363 125.815 31.6539 125.997 31.6193 126.266L30.6703 133H28.6813L29.6823 125.785C29.7689 125.222 29.9986 124.784 30.3713 124.472C30.7439 124.151 31.2119 123.991 31.7753 123.991ZM29.6303 127.813H34.8433L34.6613 129.191H29.4353L29.6303 127.813ZM39.5504 126.409C39.7757 126.409 40.027 126.422 40.3044 126.448C40.5904 126.465 40.8764 126.491 41.1624 126.526C41.457 126.561 41.73 126.6 41.9814 126.643C42.2414 126.686 42.4537 126.73 42.6184 126.773L41.3054 127.813C40.9587 127.796 40.6424 127.787 40.3564 127.787C40.0704 127.778 39.8017 127.774 39.5504 127.774C39.2644 127.774 39.0217 127.796 38.8224 127.839C38.623 127.882 38.4584 127.969 38.3284 128.099C38.1984 128.22 38.09 128.407 38.0034 128.658C37.9167 128.909 37.843 129.247 37.7824 129.672C37.7044 130.209 37.661 130.621 37.6524 130.907C37.6524 131.184 37.7044 131.375 37.8084 131.479C37.9124 131.583 38.077 131.631 38.3024 131.622C38.5364 131.613 38.779 131.535 39.0304 131.388C39.2904 131.241 39.546 131.041 39.7974 130.79C40.0487 130.53 40.2914 130.24 40.5254 129.919L40.8634 130.543C40.69 131.054 40.443 131.505 40.1224 131.895C39.8104 132.276 39.442 132.575 39.0174 132.792C38.5927 133.009 38.1204 133.13 37.6004 133.156C37.037 133.182 36.6037 133.069 36.3004 132.818C36.0057 132.567 35.8237 132.177 35.7544 131.648C35.685 131.119 35.711 130.456 35.8324 129.659C35.945 128.922 36.101 128.337 36.3004 127.904C36.5084 127.462 36.7684 127.137 37.0804 126.929C37.3924 126.712 37.752 126.574 38.1594 126.513C38.5754 126.444 39.039 126.409 39.5504 126.409ZM40.7204 126.656L42.6184 126.773L41.7474 133H40.2524L40.2784 131.544L40.0444 131.388L40.7204 126.656ZM45.6834 126.578L45.6964 128.06L45.8654 128.242L45.2024 133H43.2914L44.1884 126.578H45.6834ZM48.2444 126.409C48.8424 126.409 49.2758 126.569 49.5444 126.89C49.8218 127.211 49.9214 127.657 49.8434 128.229L49.1674 133H47.3214L47.9194 128.749C47.9541 128.489 47.9324 128.307 47.8544 128.203C47.7764 128.09 47.6291 128.034 47.4124 128.034C47.2564 128.034 47.0918 128.069 46.9184 128.138C46.7451 128.207 46.5501 128.32 46.3334 128.476C46.1168 128.623 45.8524 128.831 45.5404 129.1L45.3064 128.138C45.8438 127.54 46.3421 127.102 46.8014 126.825C47.2608 126.548 47.7418 126.409 48.2444 126.409ZM52.2484 126.409C52.8551 126.409 53.2971 126.574 53.5744 126.903C53.8518 127.224 53.9471 127.666 53.8604 128.229L53.1974 133H51.2864L51.8844 128.749C51.9191 128.472 51.8888 128.285 51.7934 128.19C51.7068 128.086 51.5681 128.034 51.3774 128.034C51.2301 128.034 51.0698 128.069 50.8964 128.138C50.7318 128.199 50.5411 128.307 50.3244 128.463C50.1164 128.61 49.8651 128.818 49.5704 129.087L49.3234 128.138C49.8608 127.531 50.3548 127.094 50.8054 126.825C51.2648 126.548 51.7458 126.409 52.2484 126.409ZM57.5645 126.578L56.6675 133H54.7565L55.6535 126.578H57.5645ZM57.3695 123.744C57.5775 123.744 57.7249 123.796 57.8115 123.9C57.9069 124.004 57.9415 124.16 57.9155 124.368L57.8245 125.057C57.7725 125.421 57.5602 125.603 57.1875 125.603H56.4075C55.9915 125.603 55.8052 125.395 55.8485 124.979L55.9525 124.29C55.9872 123.926 56.1952 123.744 56.5765 123.744H57.3695ZM62.0026 126.409C62.4099 126.409 62.8433 126.444 63.3026 126.513C63.7619 126.574 64.1649 126.678 64.5116 126.825L64.2386 128.008C63.8573 127.991 63.4933 127.982 63.1466 127.982C62.7999 127.973 62.5053 127.969 62.2626 127.969C61.8813 127.969 61.5693 128.021 61.3266 128.125C61.0839 128.229 60.8976 128.415 60.7676 128.684C60.6376 128.944 60.5423 129.312 60.4816 129.789C60.4123 130.292 60.4036 130.673 60.4556 130.933C60.5076 131.193 60.6333 131.371 60.8326 131.466C61.0406 131.561 61.3309 131.609 61.7036 131.609C61.8596 131.609 62.0459 131.605 62.2626 131.596C62.4879 131.587 62.7306 131.579 62.9906 131.57C63.2506 131.553 63.5019 131.527 63.7446 131.492L63.8746 132.74C63.5019 132.887 63.0903 132.991 62.6396 133.052C62.1976 133.121 61.7729 133.156 61.3656 133.156C60.6116 133.156 60.0006 133.043 59.5326 132.818C59.0646 132.584 58.7396 132.216 58.5576 131.713C58.3843 131.202 58.3539 130.534 58.4666 129.711C58.5879 128.914 58.7743 128.277 59.0256 127.8C59.2856 127.315 59.6539 126.964 60.1306 126.747C60.6159 126.522 61.2399 126.409 62.0026 126.409ZM68.6967 126.409C69.4854 126.409 70.118 126.526 70.5947 126.76C71.0714 126.985 71.392 127.349 71.5567 127.852C71.73 128.355 71.756 129.031 71.6347 129.88C71.522 130.686 71.327 131.332 71.0497 131.817C70.781 132.294 70.3997 132.636 69.9057 132.844C69.4117 133.052 68.7704 133.156 67.9817 133.156C67.2017 133.156 66.569 133.043 66.0837 132.818C65.607 132.593 65.2777 132.229 65.0957 131.726C64.9224 131.223 64.892 130.556 65.0047 129.724C65.126 128.909 65.321 128.264 65.5897 127.787C65.8584 127.302 66.244 126.951 66.7467 126.734C67.258 126.517 67.908 126.409 68.6967 126.409ZM68.6707 127.813C68.324 127.813 68.0424 127.869 67.8257 127.982C67.6177 128.095 67.4487 128.298 67.3187 128.593C67.1974 128.888 67.0977 129.317 67.0197 129.88C66.9504 130.374 66.9287 130.76 66.9547 131.037C66.9894 131.314 67.0934 131.505 67.2667 131.609C67.44 131.713 67.6957 131.765 68.0337 131.765C68.3804 131.765 68.6577 131.709 68.8657 131.596C69.0737 131.475 69.2384 131.267 69.3597 130.972C69.481 130.677 69.5807 130.261 69.6587 129.724C69.728 129.213 69.7454 128.823 69.7107 128.554C69.6847 128.277 69.585 128.086 69.4117 127.982C69.247 127.869 69 127.813 68.6707 127.813ZM74.8827 126.578L74.8957 128.06L75.0647 128.242L74.4017 133H72.4907L73.3877 126.578H74.8827ZM77.4437 126.409C78.0417 126.409 78.475 126.569 78.7437 126.89C79.021 127.211 79.1207 127.657 79.0427 128.229L78.3667 133H76.5207L77.1187 128.749C77.1533 128.489 77.1317 128.307 77.0537 128.203C76.9757 128.09 76.8283 128.034 76.6117 128.034C76.4557 128.034 76.291 128.069 76.1177 128.138C75.9443 128.207 75.7493 128.32 75.5327 128.476C75.316 128.623 75.0517 128.831 74.7397 129.1L74.5057 128.138C75.043 127.54 75.5413 127.102 76.0007 126.825C76.46 126.548 76.941 126.409 77.4437 126.409ZM81.4477 126.409C82.0543 126.409 82.4963 126.574 82.7737 126.903C83.051 127.224 83.1463 127.666 83.0597 128.229L82.3967 133H80.4857L81.0837 128.749C81.1183 128.472 81.088 128.285 80.9927 128.19C80.906 128.086 80.7673 128.034 80.5767 128.034C80.4293 128.034 80.269 128.069 80.0957 128.138C79.931 128.199 79.7403 128.307 79.5237 128.463C79.3157 128.61 79.0643 128.818 78.7697 129.087L78.5227 128.138C79.06 127.531 79.554 127.094 80.0047 126.825C80.464 126.548 80.945 126.409 81.4477 126.409Z" fill="white"/>
</g>
<defs>
<clipPath id="clip0_113_1346">
<rect width="112" height="160" rx="6" fill="white"/>
</clipPath>
</defs>
</svg>
