<svg width="112" height="160" viewBox="0 0 112 160" fill="none" xmlns="http://www.w3.org/2000/svg">
<g clip-path="url(#clip0_113_1515)">
<path d="M1 7C1 3.6863 3.68629 1 7 1H105C108.314 1 111 3.68629 111 7V152C111 155.314 108.314 158 105 158H7C3.68629 158 1 155.314 1 152V7Z" fill="#393B4E"/>
<path fill-rule="evenodd" clip-rule="evenodd" d="M7 0C3.13401 0 0 3.13401 0 7V153C0 156.866 3.13401 160 7 160H105C108.866 160 112 156.866 112 153V7C112 3.13401 108.866 0 105 0H7ZM7 1C3.68629 1 1 3.68629 1 7C1 7 1 7 1 7V152C1 152.165 1.00666 152.328 1.01973 152.49C1.2691 155.575 3.85131 158 7 158H105C108.149 158 110.731 155.575 110.98 152.49C110.993 152.328 111 152.165 111 152V7C111 3.68629 108.314 1 105 1H7Z" fill="black" fill-opacity="0.3"/>
<path d="M23.5 36C23.7761 36 24 36.2239 24 36.5V36.5C24 36.7761 24.2239 37 24.5 37H49.5C49.7761 37 50 36.7761 50 36.5V36.5C50 36.2239 50.2239 36 50.5 36H61.5C61.7761 36 62 36.2239 62 36.5V36.5C62 36.7761 62.2239 37 62.5 37H87.5C87.7761 37 88 36.7761 88 36.5V36.5C88 36.2239 88.2239 36 88.5 36H94C95.1046 36 96 36.8954 96 38V106C96 107.105 95.1046 108 94 108H18C16.8954 108 16 107.105 16 106V38C16 36.8954 16.8954 36 18 36H23.5Z" fill="#C03535"/>
<path d="M48.7676 35.5H25.2324C24.8866 34.9022 24.2403 34.5 23.5 34.5H18C16.067 34.5 14.5 36.067 14.5 38V106C14.5 107.933 16.067 109.5 18 109.5H94C95.933 109.5 97.5 107.933 97.5 106V38C97.5 36.067 95.933 34.5 94 34.5H88.5C87.7597 34.5 87.1134 34.9022 86.7676 35.5H63.2324C62.8866 34.9022 62.2403 34.5 61.5 34.5H50.5C49.7597 34.5 49.1134 34.9022 48.7676 35.5Z" stroke="white" stroke-opacity="0.3" stroke-width="3"/>
<path d="M49.5 36.5H24.5C24.5 35.9477 24.0523 35.5 23.5 35.5H18C16.6193 35.5 15.5 36.6193 15.5 38V106C15.5 107.381 16.6193 108.5 18 108.5H94C95.3807 108.5 96.5 107.381 96.5 106V38C96.5 36.6193 95.3807 35.5 94 35.5H88.5C87.9477 35.5 87.5 35.9477 87.5 36.5H62.5C62.5 35.9477 62.0523 35.5 61.5 35.5H50.5C49.9477 35.5 49.5 35.9477 49.5 36.5Z" fill="#C03535" stroke="#333333"/>
<rect x="18" y="70" width="26" height="36" rx="1" fill="#F8D99B"/>
<rect x="18" y="84" width="76" height="22" rx="1" fill="#F8D99B"/>
<rect x="18" y="100" width="76" height="1" fill="#333333"/>
<rect x="18" y="98" width="76" height="1" fill="#333333"/>
<path d="M27.5 86.5C26.9477 86.5 26.5 86.9477 26.5 87.5V91.5H22.5C21.9477 91.5 21.5 91.9477 21.5 92.5V96.5C21.5 97.0523 21.9477 97.5 22.5 97.5H26.5V101.5C26.5 102.052 26.9477 102.5 27.5 102.5H31.5C32.0523 102.5 32.5 102.052 32.5 101.5V97.5H36.5C37.0523 97.5 37.5 97.0523 37.5 96.5V92.5C37.5 91.9477 37.0523 91.5 36.5 91.5H32.5V87.5C32.5 86.9477 32.0523 86.5 31.5 86.5H27.5Z" fill="#333333" stroke="#C03535"/>
<circle cx="74.5" cy="98.5" r="4" fill="#333333" stroke="#C03535"/>
<circle cx="85.5" cy="98.5" r="4" fill="#333333" stroke="#C03535"/>
<rect x="44.5" y="94.5" width="22" height="8" rx="4" fill="#EB5757" stroke="#C03535"/>
<rect x="48" y="97" width="6" height="3" rx="1.5" fill="#333333"/>
<rect x="47.5" y="96.5" width="7" height="4" rx="2" stroke="black" stroke-opacity="0.2"/>
<rect x="57" y="97" width="6" height="3" rx="1.5" fill="#333333"/>
<rect x="56.5" y="96.5" width="7" height="4" rx="2" stroke="black" stroke-opacity="0.2"/>
<rect x="20" y="72" width="7" height="7" fill="#333333"/>
<path d="M22.5 73H24.5L24 73.5V77.5L24.5 78H22.5L23 77.5V73.5L22.5 73Z" fill="#F2F2F2"/>
<path fill-rule="evenodd" clip-rule="evenodd" d="M66 37H46V68C46 73.5228 50.4772 78 56 78C61.5228 78 66 73.5228 66 68V37Z" fill="black" fill-opacity="0.3"/>
<path fill-rule="evenodd" clip-rule="evenodd" d="M65 37H47V68C47 72.9706 51.0294 77 56 77C60.9706 77 65 72.9706 65 68V37Z" fill="#C03535"/>
<circle cx="56" cy="68" r="7" fill="#F2F2F2"/>
<circle cx="56" cy="68" r="1" fill="#333333"/>
<circle cx="53" cy="64" r="1" fill="#828282"/>
<rect x="53" y="38" width="6" height="21" rx="1" fill="black" fill-opacity="0.5"/>
<path d="M31.7753 117.991C32.4859 117.991 33.2009 118 33.9203 118.017C34.6396 118.026 35.2939 118.069 35.8833 118.147L35.6493 119.564H32.4773C32.1999 119.564 31.9963 119.616 31.8663 119.72C31.7363 119.815 31.6539 119.997 31.6193 120.266L30.6703 127H28.6813L29.6823 119.785C29.7689 119.222 29.9986 118.784 30.3713 118.472C30.7439 118.151 31.2119 117.991 31.7753 117.991ZM29.6303 121.813H34.8433L34.6613 123.191H29.4353L29.6303 121.813ZM39.5504 120.409C39.7757 120.409 40.027 120.422 40.3044 120.448C40.5904 120.465 40.8764 120.491 41.1624 120.526C41.457 120.561 41.73 120.6 41.9814 120.643C42.2414 120.686 42.4537 120.73 42.6184 120.773L41.3054 121.813C40.9587 121.796 40.6424 121.787 40.3564 121.787C40.0704 121.778 39.8017 121.774 39.5504 121.774C39.2644 121.774 39.0217 121.796 38.8224 121.839C38.623 121.882 38.4584 121.969 38.3284 122.099C38.1984 122.22 38.09 122.407 38.0034 122.658C37.9167 122.909 37.843 123.247 37.7824 123.672C37.7044 124.209 37.661 124.621 37.6524 124.907C37.6524 125.184 37.7044 125.375 37.8084 125.479C37.9124 125.583 38.077 125.631 38.3024 125.622C38.5364 125.613 38.779 125.535 39.0304 125.388C39.2904 125.241 39.546 125.041 39.7974 124.79C40.0487 124.53 40.2914 124.24 40.5254 123.919L40.8634 124.543C40.69 125.054 40.443 125.505 40.1224 125.895C39.8104 126.276 39.442 126.575 39.0174 126.792C38.5927 127.009 38.1204 127.13 37.6004 127.156C37.037 127.182 36.6037 127.069 36.3004 126.818C36.0057 126.567 35.8237 126.177 35.7544 125.648C35.685 125.119 35.711 124.456 35.8324 123.659C35.945 122.922 36.101 122.337 36.3004 121.904C36.5084 121.462 36.7684 121.137 37.0804 120.929C37.3924 120.712 37.752 120.574 38.1594 120.513C38.5754 120.444 39.039 120.409 39.5504 120.409ZM40.7204 120.656L42.6184 120.773L41.7474 127H40.2524L40.2784 125.544L40.0444 125.388L40.7204 120.656ZM45.6834 120.578L45.6964 122.06L45.8654 122.242L45.2024 127H43.2914L44.1884 120.578H45.6834ZM48.2444 120.409C48.8424 120.409 49.2758 120.569 49.5444 120.89C49.8218 121.211 49.9214 121.657 49.8434 122.229L49.1674 127H47.3214L47.9194 122.749C47.9541 122.489 47.9324 122.307 47.8544 122.203C47.7764 122.09 47.6291 122.034 47.4124 122.034C47.2564 122.034 47.0918 122.069 46.9184 122.138C46.7451 122.207 46.5501 122.32 46.3334 122.476C46.1168 122.623 45.8524 122.831 45.5404 123.1L45.3064 122.138C45.8438 121.54 46.3421 121.102 46.8014 120.825C47.2608 120.548 47.7418 120.409 48.2444 120.409ZM52.2484 120.409C52.8551 120.409 53.2971 120.574 53.5744 120.903C53.8518 121.224 53.9471 121.666 53.8604 122.229L53.1974 127H51.2864L51.8844 122.749C51.9191 122.472 51.8888 122.285 51.7934 122.19C51.7068 122.086 51.5681 122.034 51.3774 122.034C51.2301 122.034 51.0698 122.069 50.8964 122.138C50.7318 122.199 50.5411 122.307 50.3244 122.463C50.1164 122.61 49.8651 122.818 49.5704 123.087L49.3234 122.138C49.8608 121.531 50.3548 121.094 50.8054 120.825C51.2648 120.548 51.7458 120.409 52.2484 120.409ZM57.5645 120.578L56.6675 127H54.7565L55.6535 120.578H57.5645ZM57.3695 117.744C57.5775 117.744 57.7249 117.796 57.8115 117.9C57.9069 118.004 57.9415 118.16 57.9155 118.368L57.8245 119.057C57.7725 119.421 57.5602 119.603 57.1875 119.603H56.4075C55.9915 119.603 55.8052 119.395 55.8485 118.979L55.9525 118.29C55.9872 117.926 56.1952 117.744 56.5765 117.744H57.3695ZM62.0026 120.409C62.4099 120.409 62.8433 120.444 63.3026 120.513C63.7619 120.574 64.1649 120.678 64.5116 120.825L64.2386 122.008C63.8573 121.991 63.4933 121.982 63.1466 121.982C62.7999 121.973 62.5053 121.969 62.2626 121.969C61.8813 121.969 61.5693 122.021 61.3266 122.125C61.0839 122.229 60.8976 122.415 60.7676 122.684C60.6376 122.944 60.5423 123.312 60.4816 123.789C60.4123 124.292 60.4036 124.673 60.4556 124.933C60.5076 125.193 60.6333 125.371 60.8326 125.466C61.0406 125.561 61.3309 125.609 61.7036 125.609C61.8596 125.609 62.0459 125.605 62.2626 125.596C62.4879 125.587 62.7306 125.579 62.9906 125.57C63.2506 125.553 63.5019 125.527 63.7446 125.492L63.8746 126.74C63.5019 126.887 63.0903 126.991 62.6396 127.052C62.1976 127.121 61.7729 127.156 61.3656 127.156C60.6116 127.156 60.0006 127.043 59.5326 126.818C59.0646 126.584 58.7396 126.216 58.5576 125.713C58.3843 125.202 58.3539 124.534 58.4666 123.711C58.5879 122.914 58.7743 122.277 59.0256 121.8C59.2856 121.315 59.6539 120.964 60.1306 120.747C60.6159 120.522 61.2399 120.409 62.0026 120.409ZM68.6967 120.409C69.4854 120.409 70.118 120.526 70.5947 120.76C71.0714 120.985 71.392 121.349 71.5567 121.852C71.73 122.355 71.756 123.031 71.6347 123.88C71.522 124.686 71.327 125.332 71.0497 125.817C70.781 126.294 70.3997 126.636 69.9057 126.844C69.4117 127.052 68.7704 127.156 67.9817 127.156C67.2017 127.156 66.569 127.043 66.0837 126.818C65.607 126.593 65.2777 126.229 65.0957 125.726C64.9224 125.223 64.892 124.556 65.0047 123.724C65.126 122.909 65.321 122.264 65.5897 121.787C65.8584 121.302 66.244 120.951 66.7467 120.734C67.258 120.517 67.908 120.409 68.6967 120.409ZM68.6707 121.813C68.324 121.813 68.0424 121.869 67.8257 121.982C67.6177 122.095 67.4487 122.298 67.3187 122.593C67.1974 122.888 67.0977 123.317 67.0197 123.88C66.9504 124.374 66.9287 124.76 66.9547 125.037C66.9894 125.314 67.0934 125.505 67.2667 125.609C67.44 125.713 67.6957 125.765 68.0337 125.765C68.3804 125.765 68.6577 125.709 68.8657 125.596C69.0737 125.475 69.2384 125.267 69.3597 124.972C69.481 124.677 69.5807 124.261 69.6587 123.724C69.728 123.213 69.7454 122.823 69.7107 122.554C69.6847 122.277 69.585 122.086 69.4117 121.982C69.247 121.869 69 121.813 68.6707 121.813ZM74.8827 120.578L74.8957 122.06L75.0647 122.242L74.4017 127H72.4907L73.3877 120.578H74.8827ZM77.4437 120.409C78.0417 120.409 78.475 120.569 78.7437 120.89C79.021 121.211 79.1207 121.657 79.0427 122.229L78.3667 127H76.5207L77.1187 122.749C77.1533 122.489 77.1317 122.307 77.0537 122.203C76.9757 122.09 76.8283 122.034 76.6117 122.034C76.4557 122.034 76.291 122.069 76.1177 122.138C75.9443 122.207 75.7493 122.32 75.5327 122.476C75.316 122.623 75.0517 122.831 74.7397 123.1L74.5057 122.138C75.043 121.54 75.5413 121.102 76.0007 120.825C76.46 120.548 76.941 120.409 77.4437 120.409ZM81.4477 120.409C82.0543 120.409 82.4963 120.574 82.7737 120.903C83.051 121.224 83.1463 121.666 83.0597 122.229L82.3967 127H80.4857L81.0837 122.749C81.1183 122.472 81.088 122.285 80.9927 122.19C80.906 122.086 80.7673 122.034 80.5767 122.034C80.4293 122.034 80.269 122.069 80.0957 122.138C79.931 122.199 79.7403 122.307 79.5237 122.463C79.3157 122.61 79.0643 122.818 78.7697 123.087L78.5227 122.138C79.06 121.531 79.554 121.094 80.0047 120.825C80.464 120.548 80.945 120.409 81.4477 120.409ZM23.2156 130.9C24.1602 130.9 24.9099 131.043 25.4646 131.329C26.0279 131.606 26.4049 132.087 26.5956 132.772C26.7862 133.448 26.7949 134.388 26.6216 135.593C26.4916 136.52 26.3182 137.283 26.1016 137.881C25.8849 138.47 25.6076 138.93 25.2696 139.259C24.9316 139.58 24.5069 139.805 23.9956 139.935C23.4842 140.065 22.8732 140.13 22.1626 140.13C21.5386 140.13 20.9319 140.117 20.3426 140.091C19.7532 140.065 19.1899 140.035 18.6526 140L19.6276 138.531C19.9482 138.548 20.3426 138.566 20.8106 138.583C21.2786 138.592 21.7206 138.596 22.1366 138.596C22.5006 138.596 22.8126 138.557 23.0726 138.479C23.3412 138.392 23.5666 138.236 23.7486 138.011C23.9392 137.786 24.0952 137.469 24.2166 137.062C24.3466 136.646 24.4549 136.104 24.5416 135.437C24.6282 134.822 24.6716 134.319 24.6716 133.929C24.6716 133.53 24.6196 133.223 24.5156 133.006C24.4202 132.789 24.2599 132.638 24.0346 132.551C23.8092 132.464 23.5146 132.421 23.1506 132.421C22.8819 132.421 22.6002 132.425 22.3056 132.434C22.0109 132.434 21.7206 132.434 21.4346 132.434C21.1572 132.434 20.9016 132.434 20.6676 132.434L19.9136 131.03C20.2256 131.004 20.5679 130.982 20.9406 130.965C21.3132 130.939 21.6946 130.922 22.0846 130.913C22.4746 130.904 22.8516 130.9 23.2156 130.9ZM21.9026 131.03L20.6416 140H18.6526L19.9136 131.03H21.9026ZM30.2442 133.578L29.3472 140H27.4362L28.3332 133.578H30.2442ZM30.0492 130.744C30.2572 130.744 30.4045 130.796 30.4912 130.9C30.5865 131.004 30.6212 131.16 30.5952 131.368L30.5042 132.057C30.4522 132.421 30.2399 132.603 29.8672 132.603H29.0872C28.6712 132.603 28.4849 132.395 28.5282 131.979L28.6322 131.29C28.6669 130.926 28.8749 130.744 29.2562 130.744H30.0492ZM34.2403 133.409C34.561 133.409 34.9033 133.422 35.2673 133.448C35.6313 133.474 35.9823 133.504 36.3203 133.539C36.667 133.574 36.966 133.613 37.2173 133.656L37.0353 134.852C36.6193 134.843 36.2033 134.839 35.7873 134.839C35.38 134.83 34.964 134.822 34.5393 134.813C34.21 134.813 33.9456 134.822 33.7463 134.839C33.5556 134.848 33.417 134.882 33.3303 134.943C33.2436 134.995 33.1916 135.082 33.1743 135.203C33.157 135.359 33.2003 135.48 33.3043 135.567C33.417 135.654 33.6076 135.745 33.8763 135.84L35.4753 136.412C35.8133 136.533 36.0906 136.676 36.3073 136.841C36.524 137.006 36.6756 137.209 36.7623 137.452C36.8576 137.695 36.8836 137.989 36.8403 138.336C36.7796 138.856 36.615 139.246 36.3463 139.506C36.0863 139.757 35.7353 139.926 35.2933 140.013C34.86 140.1 34.3313 140.143 33.7073 140.143C33.3693 140.143 33.053 140.134 32.7583 140.117C32.4723 140.108 32.1733 140.082 31.8613 140.039C31.558 140.004 31.2156 139.961 30.8343 139.909L31.0033 138.713C31.168 138.722 31.3673 138.73 31.6013 138.739C31.844 138.739 32.0953 138.743 32.3553 138.752C32.624 138.752 32.8753 138.752 33.1093 138.752C33.6033 138.743 33.9803 138.726 34.2403 138.7C34.5003 138.674 34.6823 138.631 34.7863 138.57C34.899 138.501 34.9683 138.401 34.9943 138.271C35.0116 138.158 34.9943 138.072 34.9423 138.011C34.899 137.95 34.8166 137.894 34.6953 137.842C34.5826 137.79 34.4266 137.729 34.2273 137.66L32.6673 137.075C32.312 136.945 32.026 136.789 31.8093 136.607C31.6013 136.425 31.4583 136.204 31.3803 135.944C31.311 135.684 31.298 135.389 31.3413 135.06C31.3933 134.661 31.5233 134.345 31.7313 134.111C31.9393 133.868 32.247 133.691 32.6543 133.578C33.0616 133.465 33.5903 133.409 34.2403 133.409ZM41.0178 130.9L40.4848 134.865C40.4414 135.142 40.3764 135.411 40.2898 135.671C40.2118 135.931 40.1078 136.2 39.9778 136.477C39.9951 136.676 40.0168 136.902 40.0428 137.153C40.0688 137.396 40.0774 137.612 40.0688 137.803L39.7438 140H37.8198L39.0938 130.9H41.0178ZM44.7358 133.578C44.5451 134.254 44.2678 134.83 43.9038 135.307C43.5484 135.775 43.1368 136.169 42.6688 136.49C42.2008 136.811 41.7111 137.084 41.1998 137.309C40.6884 137.526 40.1988 137.716 39.7308 137.881L39.5618 136.607C40.0471 136.416 40.5108 136.169 40.9528 135.866C41.4034 135.563 41.7848 135.216 42.0968 134.826C42.4174 134.436 42.6384 134.02 42.7598 133.578H44.7358ZM42.2268 136.347C42.4434 136.477 42.6211 136.633 42.7598 136.815C42.8984 136.997 43.0111 137.188 43.0978 137.387L44.3198 140H42.3178L40.9138 136.828L42.2268 136.347ZM52.201 130.861C52.669 130.861 53.1587 130.891 53.67 130.952C54.1813 131.004 54.671 131.095 55.139 131.225L54.957 132.538C54.6797 132.529 54.3807 132.525 54.06 132.525C53.748 132.516 53.4273 132.512 53.098 132.512C52.7687 132.503 52.435 132.499 52.097 132.499C51.8803 132.499 51.6853 132.508 51.512 132.525C51.3473 132.534 51.2043 132.564 51.083 132.616C50.9703 132.668 50.8793 132.755 50.81 132.876C50.7407 132.989 50.6887 133.145 50.654 133.344C50.6367 133.517 50.641 133.665 50.667 133.786C50.7017 133.899 50.7753 133.998 50.888 134.085C51.0007 134.163 51.1697 134.25 51.395 134.345L53.02 135.021C53.4967 135.22 53.8563 135.441 54.099 135.684C54.3417 135.927 54.4977 136.213 54.567 136.542C54.6363 136.863 54.6407 137.244 54.58 137.686C54.502 138.353 54.333 138.869 54.073 139.233C53.813 139.588 53.4403 139.835 52.955 139.974C52.4697 140.104 51.8327 140.169 51.044 140.169C50.7233 140.169 50.2813 140.143 49.718 140.091C49.1633 140.048 48.5653 139.957 47.924 139.818L48.119 138.414C48.6303 138.423 49.0723 138.436 49.445 138.453C49.8177 138.462 50.1297 138.47 50.381 138.479C50.6323 138.479 50.8317 138.479 50.979 138.479C51.3517 138.479 51.6507 138.457 51.876 138.414C52.1013 138.362 52.2703 138.275 52.383 138.154C52.5043 138.024 52.5823 137.833 52.617 137.582C52.643 137.391 52.6387 137.24 52.604 137.127C52.578 137.014 52.5087 136.923 52.396 136.854C52.292 136.776 52.1447 136.698 51.954 136.62L50.238 135.879C49.7787 135.68 49.4277 135.454 49.185 135.203C48.9423 134.943 48.7863 134.653 48.717 134.332C48.6477 134.003 48.639 133.643 48.691 133.253C48.7517 132.759 48.8687 132.356 49.042 132.044C49.2153 131.723 49.445 131.481 49.731 131.316C50.0257 131.143 50.3767 131.026 50.784 130.965C51.2 130.896 51.6723 130.861 52.201 130.861ZM62.7326 133.578C62.6633 134.003 62.568 134.436 62.4466 134.878C62.334 135.32 62.204 135.758 62.0566 136.191C61.9093 136.624 61.7533 137.04 61.5886 137.439C61.4326 137.829 61.2723 138.193 61.1076 138.531C60.9516 138.869 60.7956 139.168 60.6396 139.428C60.2063 140.173 59.7556 140.78 59.2876 141.248C58.8196 141.716 58.317 142.063 57.7796 142.288C57.2423 142.513 56.653 142.643 56.0116 142.678L55.8166 141.547C56.1373 141.452 56.4406 141.343 56.7266 141.222C57.0126 141.109 57.2856 140.958 57.5456 140.767C57.8143 140.576 58.0743 140.321 58.3256 140C58.577 139.671 58.8283 139.25 59.0796 138.739C59.3396 138.228 59.565 137.716 59.7556 137.205C59.955 136.694 60.1283 136.143 60.2756 135.554C60.4316 134.965 60.5703 134.306 60.6916 133.578H62.7326ZM57.8056 133.578L58.3516 138.518C58.3776 138.665 58.4643 138.739 58.6116 138.739H59.3396L58.8196 140H57.5066C57.3073 140 57.1383 139.939 56.9996 139.818C56.861 139.697 56.7743 139.545 56.7396 139.363L55.7256 133.578H57.8056ZM66.3213 133.409C66.642 133.409 66.9843 133.422 67.3483 133.448C67.7123 133.474 68.0633 133.504 68.4013 133.539C68.748 133.574 69.047 133.613 69.2983 133.656L69.1163 134.852C68.7003 134.843 68.2843 134.839 67.8683 134.839C67.461 134.83 67.045 134.822 66.6203 134.813C66.291 134.813 66.0267 134.822 65.8273 134.839C65.6367 134.848 65.498 134.882 65.4113 134.943C65.3247 134.995 65.2727 135.082 65.2553 135.203C65.238 135.359 65.2813 135.48 65.3853 135.567C65.498 135.654 65.6887 135.745 65.9573 135.84L67.5563 136.412C67.8943 136.533 68.1717 136.676 68.3883 136.841C68.605 137.006 68.7567 137.209 68.8433 137.452C68.9387 137.695 68.9647 137.989 68.9213 138.336C68.8607 138.856 68.696 139.246 68.4273 139.506C68.1673 139.757 67.8163 139.926 67.3743 140.013C66.941 140.1 66.4123 140.143 65.7883 140.143C65.4503 140.143 65.134 140.134 64.8393 140.117C64.5533 140.108 64.2543 140.082 63.9423 140.039C63.639 140.004 63.2967 139.961 62.9153 139.909L63.0843 138.713C63.249 138.722 63.4483 138.73 63.6823 138.739C63.925 138.739 64.1763 138.743 64.4363 138.752C64.705 138.752 64.9563 138.752 65.1903 138.752C65.6843 138.743 66.0613 138.726 66.3213 138.7C66.5813 138.674 66.7633 138.631 66.8673 138.57C66.98 138.501 67.0493 138.401 67.0753 138.271C67.0927 138.158 67.0753 138.072 67.0233 138.011C66.98 137.95 66.8977 137.894 66.7763 137.842C66.6637 137.79 66.5077 137.729 66.3083 137.66L64.7483 137.075C64.393 136.945 64.107 136.789 63.8903 136.607C63.6823 136.425 63.5393 136.204 63.4613 135.944C63.392 135.684 63.379 135.389 63.4223 135.06C63.4743 134.661 63.6043 134.345 63.8123 134.111C64.0203 133.868 64.328 133.691 64.7353 133.578C65.1427 133.465 65.6713 133.409 66.3213 133.409ZM73.5538 131.797L72.6698 137.985C72.6351 138.219 72.6568 138.379 72.7348 138.466C72.8128 138.553 72.9775 138.596 73.2288 138.596H74.0998L74.1908 139.909C74.0261 139.961 73.8268 140.004 73.5928 140.039C73.3675 140.082 73.1465 140.113 72.9298 140.13C72.7131 140.147 72.5355 140.156 72.3968 140.156C71.7988 140.156 71.3438 139.996 71.0318 139.675C70.7285 139.346 70.6201 138.904 70.7068 138.349L71.6558 131.797H73.5538ZM75.0878 133.578L74.9058 134.839H70.0698L70.2258 133.643L71.4738 133.578H75.0878ZM79.1204 133.409C79.9091 133.409 80.5158 133.496 80.9404 133.669C81.3738 133.834 81.6641 134.085 81.8114 134.423C81.9588 134.752 81.9934 135.16 81.9154 135.645C81.8548 136.044 81.7204 136.36 81.5124 136.594C81.3131 136.819 81.0358 136.988 80.6804 137.101C80.3251 137.214 79.8744 137.292 79.3284 137.335L76.0524 137.608L76.1954 136.542L78.9514 136.269C79.1854 136.243 79.3761 136.208 79.5234 136.165C79.6794 136.113 79.8008 136.035 79.8874 135.931C79.9741 135.818 80.0304 135.662 80.0564 135.463C80.0911 135.255 80.0781 135.099 80.0174 134.995C79.9568 134.891 79.8484 134.826 79.6924 134.8C79.5364 134.765 79.3284 134.752 79.0684 134.761C78.7998 134.761 78.5744 134.787 78.3924 134.839C78.2104 134.891 78.0588 134.986 77.9374 135.125C77.8161 135.255 77.7164 135.446 77.6384 135.697C77.5604 135.94 77.4868 136.256 77.4174 136.646C77.3308 137.209 77.3178 137.634 77.3784 137.92C77.4391 138.206 77.5734 138.397 77.7814 138.492C77.9894 138.587 78.2798 138.635 78.6524 138.635C78.8604 138.635 79.1118 138.631 79.4064 138.622C79.7011 138.605 80.0001 138.587 80.3034 138.57C80.6154 138.544 80.8971 138.518 81.1484 138.492L81.2784 139.688C81.0184 139.801 80.7238 139.892 80.3944 139.961C80.0651 140.03 79.7314 140.078 79.3934 140.104C79.0554 140.139 78.7391 140.156 78.4444 140.156C77.5864 140.156 76.9191 140.026 76.4424 139.766C75.9744 139.506 75.6624 139.12 75.5064 138.609C75.3504 138.089 75.3158 137.452 75.4024 136.698C75.4804 136.031 75.6104 135.485 75.7924 135.06C75.9831 134.635 76.2258 134.306 76.5204 134.072C76.8238 133.829 77.1921 133.66 77.6254 133.565C78.0588 133.461 78.5571 133.409 79.1204 133.409ZM84.9373 133.578L84.9503 135.06L85.1193 135.242L84.4563 140H82.5453L83.4423 133.578H84.9373ZM87.4983 133.409C88.0963 133.409 88.5297 133.569 88.7983 133.89C89.0757 134.211 89.1753 134.657 89.0973 135.229L88.4213 140H86.5753L87.1733 135.749C87.208 135.489 87.1863 135.307 87.1083 135.203C87.0303 135.09 86.883 135.034 86.6663 135.034C86.5103 135.034 86.3457 135.069 86.1723 135.138C85.999 135.207 85.804 135.32 85.5873 135.476C85.3707 135.623 85.1063 135.831 84.7943 136.1L84.5603 135.138C85.0977 134.54 85.596 134.102 86.0553 133.825C86.5147 133.548 86.9957 133.409 87.4983 133.409ZM91.5023 133.409C92.109 133.409 92.551 133.574 92.8283 133.903C93.1057 134.224 93.201 134.666 93.1143 135.229L92.4513 140H90.5403L91.1383 135.749C91.173 135.472 91.1427 135.285 91.0473 135.19C90.9607 135.086 90.822 135.034 90.6313 135.034C90.484 135.034 90.3237 135.069 90.1503 135.138C89.9857 135.199 89.795 135.307 89.5783 135.463C89.3703 135.61 89.119 135.818 88.8243 136.087L88.5773 135.138C89.1147 134.531 89.6087 134.094 90.0593 133.825C90.5187 133.548 90.9997 133.409 91.5023 133.409Z" fill="white"/>
</g>
<defs>
<clipPath id="clip0_113_1515">
<rect width="112" height="160" rx="6" fill="white"/>
</clipPath>
</defs>
</svg>
