<svg width="112" height="160" viewBox="0 0 112 160" fill="none" xmlns="http://www.w3.org/2000/svg">
<g clip-path="url(#clip0_119_4135)">
<path d="M1 7C1 3.6863 3.68629 1 7 1H105C108.314 1 111 3.68629 111 7V152C111 155.314 108.314 158 105 158H7C3.68629 158 1 155.314 1 152V7Z" fill="#393B4E"/>
<path fill-rule="evenodd" clip-rule="evenodd" d="M7 0C3.13401 0 0 3.13401 0 7V153C0 156.866 3.13401 160 7 160H105C108.866 160 112 156.866 112 153V7C112 3.13401 108.866 0 105 0H7ZM7 1C3.68629 1 1 3.68629 1 7C1 7 1 7 1 7V152C1 152.165 1.00666 152.328 1.01973 152.49C1.2691 155.575 3.85131 158 7 158H105C108.149 158 110.731 155.575 110.98 152.49C110.993 152.328 111 152.165 111 152V7C111 3.68629 108.314 1 105 1H7Z" fill="black" fill-opacity="0.3"/>
<path d="M23.4155 58.5947C23.722 57.0102 25.0354 55.8792 26.6407 55.7132C31.9913 55.1601 44.5757 54 56 54C67.4243 54 80.0087 55.1601 85.3593 55.7132C86.9646 55.8792 88.278 57.0102 88.5845 58.5947C89.1748 61.6467 90 67.2919 90 75C90 78.1389 89.7989 81.4788 89.5771 84.2083C89.3038 87.5717 86.5633 90.1406 83.1925 90.2972C76.8474 90.592 66.2197 91 56 91C45.7803 91 35.1526 90.592 28.8075 90.2972C25.4367 90.1406 22.6962 87.5717 22.4229 84.2083C22.2011 81.4788 22 78.1389 22 75C22 67.2918 22.8252 61.6467 23.4155 58.5947Z" fill="#6387F3"/>
<path d="M20.5 75C20.5 78.1956 20.7044 81.5802 20.9278 84.3298C21.2642 88.469 24.6372 91.6051 28.7379 91.7956C35.0922 92.0908 45.7464 92.5 56 92.5C66.2536 92.5 76.9078 92.0908 83.2621 91.7956C87.3629 91.6051 90.7358 88.469 91.0722 84.3298C91.2956 81.5802 91.5 78.1956 91.5 75C91.5 67.1851 90.6634 61.4441 90.0572 58.3099C89.6171 56.0343 87.7326 54.4506 85.5135 54.2212C80.1508 53.6668 67.5041 52.5 56 52.5C44.4959 52.5 31.8492 53.6668 26.4865 54.2212C24.2674 54.4506 22.3829 56.0343 21.9428 58.3099C21.3366 61.4441 20.5 67.1851 20.5 75Z" stroke="white" stroke-opacity="0.3" stroke-width="3"/>
<path d="M21.5 75C21.5 78.1578 21.7022 81.5126 21.9245 84.2488C22.2189 87.8708 25.1702 90.6288 28.7843 90.7967C35.1325 91.0916 45.769 91.5 56 91.5C66.231 91.5 76.8676 91.0916 83.2157 90.7967C86.8298 90.6288 89.7811 87.8708 90.0755 84.2488C90.2978 81.5126 90.5 78.1578 90.5 75C90.5 67.2563 89.671 61.5792 89.0754 58.4998C88.7244 56.6849 87.2206 55.403 85.4107 55.2159C80.0561 54.6624 67.4509 53.5 56 53.5C44.5491 53.5 31.9439 54.6624 26.5893 55.2159C24.7794 55.403 23.2756 56.6849 22.9246 58.4998C22.329 61.5792 21.5 67.2563 21.5 75Z" fill="#6387F3" stroke="#333333"/>
<circle cx="29.5" cy="71.5" r="6" fill="#828282" stroke="#333333"/>
<path d="M56 54C47.0265 54 37.3372 54.7158 31 55.2909L40.2149 77.6657C41.2951 80.2884 43.8511 82 46.6875 82H65.3125C68.1489 82 70.7049 80.2884 71.7851 77.6657L81 55.2909C74.6628 54.7158 64.9735 54 56 54Z" fill="#6387F3"/>
<path d="M82.0419 55.3869L72.7097 78.0465C71.4753 81.0438 68.5541 83 65.3125 83H46.6875C43.4459 83 40.5247 81.0438 39.2903 78.0465L29.9581 55.3869C30.2942 55.3555 30.6417 55.3234 31 55.2909L40.2149 77.6657C41.2951 80.2883 43.8511 82 46.6875 82H65.3125C68.1489 82 70.7049 80.2883 71.7851 77.6657L81 55.2909C81.3583 55.3234 81.7058 55.3555 82.0419 55.3869Z" fill="#3965EA"/>
<path d="M56 56.5C48.0937 56.5 41.6332 56.886 36.7269 58.3692C35.3698 58.7795 34.7605 60.2617 35.2552 61.5293L41.2923 76.9995C42.1161 79.1104 44.1501 80.5 46.416 80.5H65.584C67.8499 80.5 69.8839 79.1104 70.7077 76.9995L76.7012 61.6411C77.2184 60.3158 76.5267 58.794 75.1224 58.404C69.6866 56.8943 63.9849 56.5 56 56.5Z" fill="#4F4F4F" stroke="#333333"/>
<path d="M84.5 72.5C86.7091 72.5 88.5 70.7091 88.5 68.5C88.5 66.2909 86.7091 64.5 84.5 64.5C82.2909 64.5 80.5 66.2909 80.5 68.5C80.5 70.7091 82.2909 72.5 84.5 72.5ZM79.5 79.5C81.7091 79.5 83.5 77.7091 83.5 75.5C83.5 73.2909 81.7091 71.5 79.5 71.5C77.2909 71.5 75.5 73.2909 75.5 75.5C75.5 77.7091 77.2909 79.5 79.5 79.5Z" fill="#828282" stroke="#333333"/>
<circle cx="84.5" cy="68.5" r="3.5" fill="#828282"/>
<circle cx="79.5" cy="75.5" r="3.5" fill="#828282"/>
<circle cx="30.5" cy="80.5" r="0.5" fill="black" fill-opacity="0.4"/>
<circle cx="30.5" cy="82.5" r="0.5" fill="black" fill-opacity="0.4"/>
<circle cx="28.5" cy="82.5" r="0.5" fill="black" fill-opacity="0.25"/>
<circle cx="38.5" cy="82.5" r="0.5" fill="black" fill-opacity="0.25"/>
<circle cx="30.5" cy="84.5" r="0.5" fill="black" fill-opacity="0.4"/>
<circle cx="28.5" cy="84.5" r="0.5" fill="black" fill-opacity="0.25"/>
<circle cx="38.5" cy="84.5" r="0.5" fill="black" fill-opacity="0.25"/>
<circle cx="30.5" cy="86.5" r="0.5" fill="black" fill-opacity="0.4"/>
<circle cx="32.5" cy="80.5" r="0.5" fill="black" fill-opacity="0.4"/>
<circle cx="32.5" cy="82.5" r="0.5" fill="black" fill-opacity="0.4"/>
<circle cx="32.5" cy="84.5" r="0.5" fill="black" fill-opacity="0.4"/>
<circle cx="32.5" cy="86.5" r="0.5" fill="black" fill-opacity="0.4"/>
<circle cx="34.5" cy="80.5" r="0.5" fill="black" fill-opacity="0.4"/>
<circle cx="34.5" cy="82.5" r="0.5" fill="black" fill-opacity="0.4"/>
<circle cx="34.5" cy="84.5" r="0.5" fill="black" fill-opacity="0.4"/>
<circle cx="34.5" cy="86.5" r="0.5" fill="black" fill-opacity="0.4"/>
<circle cx="36.5" cy="80.5" r="0.5" fill="black" fill-opacity="0.4"/>
<circle cx="36.5" cy="82.5" r="0.5" fill="black" fill-opacity="0.4"/>
<circle cx="36.5" cy="84.5" r="0.5" fill="black" fill-opacity="0.4"/>
<circle cx="36.5" cy="86.5" r="0.5" fill="black" fill-opacity="0.4"/>
<path d="M78.2263 64.6516C78.5993 64.8729 79.0348 65 79.5 65C80.8807 65 82 63.8807 82 62.5C82 61.3301 81.1964 60.3479 80.1111 60.0752L78.2263 64.6516Z" fill="#1F2FAD"/>
<rect x="45.5" y="59.5" width="21" height="18" rx="1.5" fill="#828282" stroke="#333333"/>
<path fill-rule="evenodd" clip-rule="evenodd" d="M27 69H25.5C24.6716 69 24 69.6716 24 70.5V72.5C24 73.3284 24.6716 74 25.5 74H27V75.5C27 76.3284 27.6716 77 28.5 77H30.5C31.3284 77 32 76.3284 32 75.5V74H33.5C34.3284 74 35 73.3284 35 72.5V70.5C35 69.6716 34.3284 69 33.5 69H32V67.5C32 66.6716 31.3284 66 30.5 66H28.5C27.6716 66 27 66.6716 27 67.5V69Z" fill="#333333"/>
<path d="M28 67.5C28 67.2239 28.2239 67 28.5 67H30.5C30.7761 67 31 67.2239 31 67.5V69.2929L29.5 70.7929L28 69.2929V67.5Z" fill="#828282"/>
<path d="M27.2929 70H25.5C25.2239 70 25 70.2239 25 70.5V72.5C25 72.7761 25.2239 73 25.5 73H27.2929L28.7929 71.5L27.2929 70Z" fill="#828282"/>
<path d="M28 73.7071V75.5C28 75.7761 28.2239 76 28.5 76H30.5C30.7761 76 31 75.7761 31 75.5V73.7071L29.5 72.2071L28 73.7071Z" fill="#828282"/>
<path d="M31.7071 73H33.5C33.7761 73 34 72.7761 34 72.5V70.5C34 70.2239 33.7761 70 33.5 70H31.7071L30.2071 71.5L31.7071 73Z" fill="#828282"/>
<path d="M27.9725 123.848C28.3018 123.848 28.6225 123.861 28.9345 123.887C29.2551 123.913 29.5671 123.952 29.8705 124.004C30.1825 124.047 30.4771 124.112 30.7545 124.199L30.5205 125.629C30.2258 125.612 29.9355 125.599 29.6495 125.59C29.3635 125.581 29.0818 125.577 28.8045 125.577C28.5271 125.568 28.2368 125.564 27.9335 125.564C27.5348 125.564 27.1968 125.612 26.9195 125.707C26.6421 125.794 26.4081 125.95 26.2175 126.175C26.0355 126.392 25.8838 126.699 25.7625 127.098C25.6411 127.488 25.5371 127.986 25.4505 128.593C25.3638 129.321 25.3335 129.897 25.3595 130.322C25.3941 130.738 25.5025 131.033 25.6845 131.206C25.8665 131.379 26.1438 131.466 26.5165 131.466C26.8111 131.466 27.0668 131.423 27.2835 131.336C27.5001 131.241 27.6995 131.119 27.8815 130.972C28.0721 130.816 28.2628 130.656 28.4535 130.491L28.7525 131.427C28.5965 131.618 28.4188 131.817 28.2195 132.025C28.0201 132.224 27.7948 132.415 27.5435 132.597C27.2921 132.77 27.0105 132.909 26.6985 133.013C26.3865 133.126 26.0398 133.182 25.6585 133.182C25.0518 133.182 24.5535 133.026 24.1635 132.714C23.7735 132.402 23.5091 131.899 23.3705 131.206C23.2318 130.513 23.2361 129.59 23.3835 128.437C23.5048 127.51 23.6825 126.747 23.9165 126.149C24.1591 125.551 24.4625 125.087 24.8265 124.758C25.1991 124.42 25.6455 124.186 26.1655 124.056C26.6855 123.917 27.2878 123.848 27.9725 123.848ZM30.6115 127.826L29.8705 133H28.4275L28.3625 131.609L28.2325 131.232L28.7005 127.826H30.6115ZM35.2974 126.409C35.5228 126.409 35.7741 126.422 36.0514 126.448C36.3374 126.465 36.6234 126.491 36.9094 126.526C37.2041 126.561 37.4771 126.6 37.7284 126.643C37.9884 126.686 38.2008 126.73 38.3654 126.773L37.0524 127.813C36.7058 127.796 36.3894 127.787 36.1034 127.787C35.8174 127.778 35.5488 127.774 35.2974 127.774C35.0114 127.774 34.7688 127.796 34.5694 127.839C34.3701 127.882 34.2054 127.969 34.0754 128.099C33.9454 128.22 33.8371 128.407 33.7504 128.658C33.6638 128.909 33.5901 129.247 33.5294 129.672C33.4514 130.209 33.4081 130.621 33.3994 130.907C33.3994 131.184 33.4514 131.375 33.5554 131.479C33.6594 131.583 33.8241 131.631 34.0494 131.622C34.2834 131.613 34.5261 131.535 34.7774 131.388C35.0374 131.241 35.2931 131.041 35.5444 130.79C35.7958 130.53 36.0384 130.24 36.2724 129.919L36.6104 130.543C36.4371 131.054 36.1901 131.505 35.8694 131.895C35.5574 132.276 35.1891 132.575 34.7644 132.792C34.3398 133.009 33.8674 133.13 33.3474 133.156C32.7841 133.182 32.3508 133.069 32.0474 132.818C31.7528 132.567 31.5708 132.177 31.5014 131.648C31.4321 131.119 31.4581 130.456 31.5794 129.659C31.6921 128.922 31.8481 128.337 32.0474 127.904C32.2554 127.462 32.5154 127.137 32.8274 126.929C33.1394 126.712 33.4991 126.574 33.9064 126.513C34.3224 126.444 34.7861 126.409 35.2974 126.409ZM36.4674 126.656L38.3654 126.773L37.4944 133H35.9994L36.0254 131.544L35.7914 131.388L36.4674 126.656ZM41.4305 126.578L41.4435 128.06L41.6125 128.242L40.9495 133H39.0385L39.9355 126.578H41.4305ZM43.9915 126.409C44.5895 126.409 45.0228 126.569 45.2915 126.89C45.5688 127.211 45.6685 127.657 45.5905 128.229L44.9145 133H43.0685L43.6665 128.749C43.7012 128.489 43.6795 128.307 43.6015 128.203C43.5235 128.09 43.3762 128.034 43.1595 128.034C43.0035 128.034 42.8388 128.069 42.6655 128.138C42.4922 128.207 42.2972 128.32 42.0805 128.476C41.8638 128.623 41.5995 128.831 41.2875 129.1L41.0535 128.138C41.5908 127.54 42.0892 127.102 42.5485 126.825C43.0078 126.548 43.4888 126.409 43.9915 126.409ZM47.9955 126.409C48.6022 126.409 49.0442 126.574 49.3215 126.903C49.5988 127.224 49.6942 127.666 49.6075 128.229L48.9445 133H47.0335L47.6315 128.749C47.6662 128.472 47.6358 128.285 47.5405 128.19C47.4538 128.086 47.3152 128.034 47.1245 128.034C46.9772 128.034 46.8168 128.069 46.6435 128.138C46.4788 128.199 46.2882 128.307 46.0715 128.463C45.8635 128.61 45.6122 128.818 45.3175 129.087L45.0705 128.138C45.6078 127.531 46.1018 127.094 46.5525 126.825C47.0118 126.548 47.4928 126.409 47.9955 126.409ZM54.3646 126.409C55.1533 126.409 55.7599 126.496 56.1846 126.669C56.6179 126.834 56.9083 127.085 57.0556 127.423C57.2029 127.752 57.2376 128.16 57.1596 128.645C57.0989 129.044 56.9646 129.36 56.7566 129.594C56.5573 129.819 56.2799 129.988 55.9246 130.101C55.5693 130.214 55.1186 130.292 54.5726 130.335L51.2966 130.608L51.4396 129.542L54.1956 129.269C54.4296 129.243 54.6203 129.208 54.7676 129.165C54.9236 129.113 55.0449 129.035 55.1316 128.931C55.2183 128.818 55.2746 128.662 55.3006 128.463C55.3353 128.255 55.3223 128.099 55.2616 127.995C55.2009 127.891 55.0926 127.826 54.9366 127.8C54.7806 127.765 54.5726 127.752 54.3126 127.761C54.0439 127.761 53.8186 127.787 53.6366 127.839C53.4546 127.891 53.3029 127.986 53.1816 128.125C53.0603 128.255 52.9606 128.446 52.8826 128.697C52.8046 128.94 52.7309 129.256 52.6616 129.646C52.5749 130.209 52.5619 130.634 52.6226 130.92C52.6833 131.206 52.8176 131.397 53.0256 131.492C53.2336 131.587 53.5239 131.635 53.8966 131.635C54.1046 131.635 54.3559 131.631 54.6506 131.622C54.9453 131.605 55.2443 131.587 55.5476 131.57C55.8596 131.544 56.1413 131.518 56.3926 131.492L56.5226 132.688C56.2626 132.801 55.9679 132.892 55.6386 132.961C55.3093 133.03 54.9756 133.078 54.6376 133.104C54.2996 133.139 53.9833 133.156 53.6886 133.156C52.8306 133.156 52.1633 133.026 51.6866 132.766C51.2186 132.506 50.9066 132.12 50.7506 131.609C50.5946 131.089 50.5599 130.452 50.6466 129.698C50.7246 129.031 50.8546 128.485 51.0366 128.06C51.2273 127.635 51.4699 127.306 51.7646 127.072C52.0679 126.829 52.4363 126.66 52.8696 126.565C53.3029 126.461 53.8013 126.409 54.3646 126.409ZM65.6521 123.848C65.9815 123.848 66.3021 123.861 66.6141 123.887C66.9348 123.913 67.2468 123.952 67.5501 124.004C67.8621 124.047 68.1568 124.112 68.4341 124.199L68.2001 125.629C67.9055 125.612 67.6151 125.599 67.3291 125.59C67.0431 125.581 66.7615 125.577 66.4841 125.577C66.2068 125.568 65.9165 125.564 65.6131 125.564C65.2145 125.564 64.8765 125.612 64.5991 125.707C64.3218 125.794 64.0878 125.95 63.8971 126.175C63.7151 126.392 63.5635 126.699 63.4421 127.098C63.3208 127.488 63.2168 127.986 63.1301 128.593C63.0435 129.321 63.0131 129.897 63.0391 130.322C63.0738 130.738 63.1821 131.033 63.3641 131.206C63.5461 131.379 63.8235 131.466 64.1961 131.466C64.4908 131.466 64.7465 131.423 64.9631 131.336C65.1798 131.241 65.3791 131.119 65.5611 130.972C65.7518 130.816 65.9425 130.656 66.1331 130.491L66.4321 131.427C66.2761 131.618 66.0985 131.817 65.8991 132.025C65.6998 132.224 65.4745 132.415 65.2231 132.597C64.9718 132.77 64.6901 132.909 64.3781 133.013C64.0661 133.126 63.7195 133.182 63.3381 133.182C62.7315 133.182 62.2331 133.026 61.8431 132.714C61.4531 132.402 61.1888 131.899 61.0501 131.206C60.9115 130.513 60.9158 129.59 61.0631 128.437C61.1845 127.51 61.3621 126.747 61.5961 126.149C61.8388 125.551 62.1421 125.087 62.5061 124.758C62.8788 124.42 63.3251 124.186 63.8451 124.056C64.3651 123.917 64.9675 123.848 65.6521 123.848ZM68.2911 127.826L67.5501 133H66.1071L66.0421 131.609L65.9121 131.232L66.3801 127.826H68.2911ZM72.9251 126.409C73.7138 126.409 74.3205 126.496 74.7451 126.669C75.1785 126.834 75.4688 127.085 75.6161 127.423C75.7635 127.752 75.7981 128.16 75.7201 128.645C75.6595 129.044 75.5251 129.36 75.3171 129.594C75.1178 129.819 74.8405 129.988 74.4851 130.101C74.1298 130.214 73.6791 130.292 73.1331 130.335L69.8571 130.608L70.0001 129.542L72.7561 129.269C72.9901 129.243 73.1808 129.208 73.3281 129.165C73.4841 129.113 73.6055 129.035 73.6921 128.931C73.7788 128.818 73.8351 128.662 73.8611 128.463C73.8958 128.255 73.8828 128.099 73.8221 127.995C73.7615 127.891 73.6531 127.826 73.4971 127.8C73.3411 127.765 73.1331 127.752 72.8731 127.761C72.6045 127.761 72.3791 127.787 72.1971 127.839C72.0151 127.891 71.8635 127.986 71.7421 128.125C71.6208 128.255 71.5211 128.446 71.4431 128.697C71.3651 128.94 71.2915 129.256 71.2221 129.646C71.1355 130.209 71.1225 130.634 71.1831 130.92C71.2438 131.206 71.3781 131.397 71.5861 131.492C71.7941 131.587 72.0845 131.635 72.4571 131.635C72.6651 131.635 72.9165 131.631 73.2111 131.622C73.5058 131.605 73.8048 131.587 74.1081 131.57C74.4201 131.544 74.7018 131.518 74.9531 131.492L75.0831 132.688C74.8231 132.801 74.5285 132.892 74.1991 132.961C73.8698 133.03 73.5361 133.078 73.1981 133.104C72.8601 133.139 72.5438 133.156 72.2491 133.156C71.3911 133.156 70.7238 133.026 70.2471 132.766C69.7791 132.506 69.4671 132.12 69.3111 131.609C69.1551 131.089 69.1205 130.452 69.2071 129.698C69.2851 129.031 69.4151 128.485 69.5971 128.06C69.7878 127.635 70.0305 127.306 70.3251 127.072C70.6285 126.829 70.9968 126.66 71.4301 126.565C71.8635 126.461 72.3618 126.409 72.9251 126.409ZM80.315 126.409C80.5404 126.409 80.7917 126.422 81.069 126.448C81.355 126.465 81.641 126.491 81.927 126.526C82.2217 126.561 82.4947 126.6 82.746 126.643C83.006 126.686 83.2184 126.73 83.383 126.773L82.07 127.813C81.7234 127.796 81.407 127.787 81.121 127.787C80.835 127.778 80.5664 127.774 80.315 127.774C80.029 127.774 79.7864 127.796 79.587 127.839C79.3877 127.882 79.223 127.969 79.093 128.099C78.963 128.22 78.8547 128.407 78.768 128.658C78.6814 128.909 78.6077 129.247 78.547 129.672C78.469 130.209 78.4257 130.621 78.417 130.907C78.417 131.184 78.469 131.375 78.573 131.479C78.677 131.583 78.8417 131.631 79.067 131.622C79.301 131.613 79.5437 131.535 79.795 131.388C80.055 131.241 80.3107 131.041 80.562 130.79C80.8134 130.53 81.056 130.24 81.29 129.919L81.628 130.543C81.4547 131.054 81.2077 131.505 80.887 131.895C80.575 132.276 80.2067 132.575 79.782 132.792C79.3574 133.009 78.885 133.13 78.365 133.156C77.8017 133.182 77.3684 133.069 77.065 132.818C76.7704 132.567 76.5884 132.177 76.519 131.648C76.4497 131.119 76.4757 130.456 76.597 129.659C76.7097 128.922 76.8657 128.337 77.065 127.904C77.273 127.462 77.533 127.137 77.845 126.929C78.157 126.712 78.5167 126.574 78.924 126.513C79.34 126.444 79.8037 126.409 80.315 126.409ZM81.485 126.656L83.383 126.773L82.512 133H81.017L81.043 131.544L80.809 131.388L81.485 126.656ZM86.4481 126.578L86.4611 128.112L86.6301 128.294L85.9801 133H84.0561L84.9531 126.578H86.4481ZM89.5941 126.409L89.1781 128.19H88.7101C88.4067 128.19 88.0774 128.259 87.7221 128.398C87.3754 128.528 86.9377 128.727 86.4091 128.996L86.3311 127.865C86.8424 127.388 87.3407 127.029 87.8261 126.786C88.3114 126.535 88.7707 126.409 89.2041 126.409H89.5941Z" fill="white"/>
</g>
<defs>
<clipPath id="clip0_119_4135">
<rect width="112" height="160" rx="6" fill="white"/>
</clipPath>
</defs>
</svg>
