<svg width="112" height="160" viewBox="0 0 112 160" fill="none" xmlns="http://www.w3.org/2000/svg">
<g clip-path="url(#clip0_113_1298)">
<path d="M1 7C1 3.6863 3.68629 1 7 1H105C108.314 1 111 3.68629 111 7V152C111 155.314 108.314 158 105 158H7C3.68629 158 1 155.314 1 152V7Z" fill="#393B4E"/>
<path fill-rule="evenodd" clip-rule="evenodd" d="M7 0C3.13401 0 0 3.13401 0 7V153C0 156.866 3.13401 160 7 160H105C108.866 160 112 156.866 112 153V7C112 3.13401 108.866 0 105 0H7ZM7 1C3.68629 1 1 3.68629 1 7C1 7 1 7 1 7V152C1 152.165 1.00666 152.328 1.01973 152.49C1.2691 155.575 3.85131 158 7 158H105C108.149 158 110.731 155.575 110.98 152.49C110.993 152.328 111 152.165 111 152V7C111 3.68629 108.314 1 105 1H7Z" fill="black" fill-opacity="0.3"/>
<rect x="16" y="49" width="80" height="46" rx="2" fill="#F8D99B"/>
<rect x="14.5" y="47.5" width="83" height="49" rx="3.5" stroke="white" stroke-opacity="0.3" stroke-width="3"/>
<rect x="15.5" y="48.5" width="81" height="47" rx="2.5" fill="#F8D99B" stroke="#333333"/>
<rect x="16.5" y="49.5" width="79" height="45" rx="1.5" fill="#F8D99B" stroke="#C03535"/>
<path d="M24.5 76.5C23.9477 76.5 23.5 76.9477 23.5 77.5V80.5H20.5C19.9477 80.5 19.5 80.9477 19.5 81.5V84.5C19.5 85.0523 19.9477 85.5 20.5 85.5H23.5V88.5C23.5 89.0523 23.9477 89.5 24.5 89.5H27.5C28.0523 89.5 28.5 89.0523 28.5 88.5V85.5H31.5C32.0523 85.5 32.5 85.0523 32.5 84.5V81.5C32.5 80.9477 32.0523 80.5 31.5 80.5H28.5V77.5C28.5 76.9477 28.0523 76.5 27.5 76.5H24.5Z" fill="#333333" stroke="#C03535"/>
<circle cx="82" cy="83" r="3.5" fill="#F08484" stroke="#C03535"/>
<circle cx="90" cy="83" r="3.5" fill="#F08484" stroke="#C03535"/>
<rect x="79.5" y="52.5" width="6" height="4" rx="2" fill="#E0E0E0" stroke="#C03535"/>
<rect x="79.5" y="58.5" width="6" height="4" rx="2" fill="#E0E0E0" stroke="#C03535"/>
<rect x="79.5" y="64.5" width="6" height="4" rx="2" fill="#E0E0E0" stroke="#C03535"/>
<rect x="35" y="52" width="40" height="38" rx="3" fill="white" fill-opacity="0.5"/>
<rect x="37" y="54" width="40" height="38" rx="3" fill="#F2994A"/>
<rect x="36" y="53" width="40" height="38" rx="2" fill="#F8D99B"/>
<rect x="38.5" y="58.5" width="35" height="27" rx="0.5" fill="#333333" stroke="#C03535"/>
<rect x="21" y="55" width="10" height="8" rx="1" fill="#F2F2F2"/>
<rect x="20.5" y="54.5" width="11" height="9" rx="1.5" stroke="black" stroke-opacity="0.2"/>
<path d="M16.2737 123.848C16.6031 123.848 16.9237 123.861 17.2357 123.887C17.5564 123.913 17.8684 123.952 18.1717 124.004C18.4837 124.047 18.7784 124.112 19.0557 124.199L18.8217 125.629C18.5271 125.612 18.2367 125.599 17.9507 125.59C17.6647 125.581 17.3831 125.577 17.1057 125.577C16.8284 125.568 16.5381 125.564 16.2347 125.564C15.8361 125.564 15.4981 125.612 15.2207 125.707C14.9434 125.794 14.7094 125.95 14.5187 126.175C14.3367 126.392 14.1851 126.699 14.0637 127.098C13.9424 127.488 13.8384 127.986 13.7517 128.593C13.6651 129.321 13.6347 129.897 13.6607 130.322C13.6954 130.738 13.8037 131.033 13.9857 131.206C14.1677 131.379 14.4451 131.466 14.8177 131.466C15.1124 131.466 15.3681 131.423 15.5847 131.336C15.8014 131.241 16.0007 131.119 16.1827 130.972C16.3734 130.816 16.5641 130.656 16.7547 130.491L17.0537 131.427C16.8977 131.618 16.7201 131.817 16.5207 132.025C16.3214 132.224 16.0961 132.415 15.8447 132.597C15.5934 132.77 15.3117 132.909 14.9997 133.013C14.6877 133.126 14.3411 133.182 13.9597 133.182C13.3531 133.182 12.8547 133.026 12.4647 132.714C12.0747 132.402 11.8104 131.899 11.6717 131.206C11.5331 130.513 11.5374 129.59 11.6847 128.437C11.8061 127.51 11.9837 126.747 12.2177 126.149C12.4604 125.551 12.7637 125.087 13.1277 124.758C13.5004 124.42 13.9467 124.186 14.4667 124.056C14.9867 123.917 15.5891 123.848 16.2737 123.848ZM18.9127 127.826L18.1717 133H16.7287L16.6637 131.609L16.5337 131.232L17.0017 127.826H18.9127ZM23.5987 126.409C23.8241 126.409 24.0754 126.422 24.3527 126.448C24.6387 126.465 24.9247 126.491 25.2107 126.526C25.5054 126.561 25.7784 126.6 26.0297 126.643C26.2897 126.686 26.5021 126.73 26.6667 126.773L25.3537 127.813C25.0071 127.796 24.6907 127.787 24.4047 127.787C24.1187 127.778 23.8501 127.774 23.5987 127.774C23.3127 127.774 23.0701 127.796 22.8707 127.839C22.6714 127.882 22.5067 127.969 22.3767 128.099C22.2467 128.22 22.1384 128.407 22.0517 128.658C21.9651 128.909 21.8914 129.247 21.8307 129.672C21.7527 130.209 21.7094 130.621 21.7007 130.907C21.7007 131.184 21.7527 131.375 21.8567 131.479C21.9607 131.583 22.1254 131.631 22.3507 131.622C22.5847 131.613 22.8274 131.535 23.0787 131.388C23.3387 131.241 23.5944 131.041 23.8457 130.79C24.0971 130.53 24.3397 130.24 24.5737 129.919L24.9117 130.543C24.7384 131.054 24.4914 131.505 24.1707 131.895C23.8587 132.276 23.4904 132.575 23.0657 132.792C22.6411 133.009 22.1687 133.13 21.6487 133.156C21.0854 133.182 20.6521 133.069 20.3487 132.818C20.0541 132.567 19.8721 132.177 19.8027 131.648C19.7334 131.119 19.7594 130.456 19.8807 129.659C19.9934 128.922 20.1494 128.337 20.3487 127.904C20.5567 127.462 20.8167 127.137 21.1287 126.929C21.4407 126.712 21.8004 126.574 22.2077 126.513C22.6237 126.444 23.0874 126.409 23.5987 126.409ZM24.7687 126.656L26.6667 126.773L25.7957 133H24.3007L24.3267 131.544L24.0927 131.388L24.7687 126.656ZM29.7318 126.578L29.7448 128.06L29.9138 128.242L29.2508 133H27.3398L28.2368 126.578H29.7318ZM32.2928 126.409C32.8908 126.409 33.3241 126.569 33.5928 126.89C33.8701 127.211 33.9698 127.657 33.8918 128.229L33.2158 133H31.3698L31.9678 128.749C32.0024 128.489 31.9808 128.307 31.9028 128.203C31.8248 128.09 31.6774 128.034 31.4608 128.034C31.3048 128.034 31.1401 128.069 30.9668 128.138C30.7934 128.207 30.5984 128.32 30.3818 128.476C30.1651 128.623 29.9008 128.831 29.5888 129.1L29.3548 128.138C29.8921 127.54 30.3904 127.102 30.8498 126.825C31.3091 126.548 31.7901 126.409 32.2928 126.409ZM36.2968 126.409C36.9034 126.409 37.3454 126.574 37.6228 126.903C37.9001 127.224 37.9954 127.666 37.9088 128.229L37.2458 133H35.3348L35.9328 128.749C35.9674 128.472 35.9371 128.285 35.8418 128.19C35.7551 128.086 35.6164 128.034 35.4258 128.034C35.2784 128.034 35.1181 128.069 34.9448 128.138C34.7801 128.199 34.5894 128.307 34.3728 128.463C34.1648 128.61 33.9134 128.818 33.6188 129.087L33.3718 128.138C33.9091 127.531 34.4031 127.094 34.8538 126.825C35.3131 126.548 35.7941 126.409 36.2968 126.409ZM42.6659 126.409C43.4545 126.409 44.0612 126.496 44.4859 126.669C44.9192 126.834 45.2095 127.085 45.3569 127.423C45.5042 127.752 45.5389 128.16 45.4609 128.645C45.4002 129.044 45.2659 129.36 45.0579 129.594C44.8585 129.819 44.5812 129.988 44.2259 130.101C43.8705 130.214 43.4199 130.292 42.8739 130.335L39.5979 130.608L39.7409 129.542L42.4969 129.269C42.7309 129.243 42.9215 129.208 43.0689 129.165C43.2249 129.113 43.3462 129.035 43.4329 128.931C43.5195 128.818 43.5759 128.662 43.6019 128.463C43.6365 128.255 43.6235 128.099 43.5629 127.995C43.5022 127.891 43.3939 127.826 43.2379 127.8C43.0819 127.765 42.8739 127.752 42.6139 127.761C42.3452 127.761 42.1199 127.787 41.9379 127.839C41.7559 127.891 41.6042 127.986 41.4829 128.125C41.3615 128.255 41.2619 128.446 41.1839 128.697C41.1059 128.94 41.0322 129.256 40.9629 129.646C40.8762 130.209 40.8632 130.634 40.9239 130.92C40.9845 131.206 41.1189 131.397 41.3269 131.492C41.5349 131.587 41.8252 131.635 42.1979 131.635C42.4059 131.635 42.6572 131.631 42.9519 131.622C43.2465 131.605 43.5455 131.587 43.8489 131.57C44.1609 131.544 44.4425 131.518 44.6939 131.492L44.8239 132.688C44.5639 132.801 44.2692 132.892 43.9399 132.961C43.6105 133.03 43.2769 133.078 42.9389 133.104C42.6009 133.139 42.2845 133.156 41.9899 133.156C41.1319 133.156 40.4645 133.026 39.9879 132.766C39.5199 132.506 39.2079 132.12 39.0519 131.609C38.8959 131.089 38.8612 130.452 38.9479 129.698C39.0259 129.031 39.1559 128.485 39.3379 128.06C39.5285 127.635 39.7712 127.306 40.0659 127.072C40.3692 126.829 40.7375 126.66 41.1709 126.565C41.6042 126.461 42.1025 126.409 42.6659 126.409ZM53.5374 123.874C53.8754 123.874 54.2307 123.891 54.6034 123.926C54.9761 123.961 55.3574 124.039 55.7474 124.16L55.4354 125.499C55.1754 125.447 54.8807 125.408 54.5514 125.382C54.2307 125.347 53.9144 125.33 53.6024 125.33C53.2297 125.33 52.9264 125.36 52.6924 125.421C52.4671 125.473 52.2937 125.586 52.1724 125.759C52.0511 125.932 51.9644 126.192 51.9124 126.539C51.8691 126.851 51.8734 127.094 51.9254 127.267C51.9861 127.44 52.1031 127.562 52.2764 127.631C52.4584 127.7 52.7054 127.735 53.0174 127.735H58.3344L58.1394 129.022H52.8354C52.4974 129.022 52.2114 129.061 51.9774 129.139C51.7521 129.217 51.5701 129.356 51.4314 129.555C51.3014 129.746 51.2104 130.027 51.1584 130.4C51.1237 130.634 51.1194 130.829 51.1454 130.985C51.1801 131.141 51.2407 131.267 51.3274 131.362C51.4227 131.449 51.5484 131.509 51.7044 131.544C51.8691 131.579 52.0641 131.596 52.2894 131.596C52.8701 131.596 53.3684 131.496 53.7844 131.297C54.2004 131.089 54.5427 130.742 54.8114 130.257C55.0801 129.815 55.2621 129.273 55.3574 128.632C55.4614 127.982 55.5134 127.224 55.5134 126.357H57.1514C57.1514 127.25 57.0951 128.077 56.9824 128.84C56.8697 129.594 56.6531 130.27 56.3324 130.868C56.0811 131.353 55.7561 131.765 55.3574 132.103C54.9674 132.441 54.4864 132.701 53.9144 132.883C53.3511 133.065 52.6881 133.16 51.9254 133.169C51.1801 133.169 50.5821 133.082 50.1314 132.909C49.6807 132.727 49.3687 132.454 49.1954 132.09C49.0221 131.717 48.9701 131.236 49.0394 130.647C49.1001 130.205 49.2127 129.819 49.3774 129.49C49.5421 129.161 49.7717 128.901 50.0664 128.71C50.3697 128.511 50.7424 128.402 51.1844 128.385L51.1974 128.307C50.8681 128.281 50.5994 128.173 50.3914 127.982C50.1834 127.791 50.0447 127.54 49.9754 127.228C49.9061 126.907 49.9061 126.552 49.9754 126.162C50.0881 125.495 50.3004 125.001 50.6124 124.68C50.9331 124.351 51.3361 124.134 51.8214 124.03C52.3154 123.926 52.8874 123.874 53.5374 123.874ZM74.2051 124.03L71.5401 132.493C71.4967 132.658 71.4101 132.783 71.2801 132.87C71.1587 132.957 71.0027 133 70.8121 133H68.9921C68.8101 133 68.6541 132.944 68.5241 132.831C68.3941 132.718 68.3291 132.575 68.3291 132.402L68.1471 126.643C68.1471 126.426 68.1471 126.227 68.1471 126.045C68.1471 125.863 68.1471 125.668 68.1471 125.46H67.8871C67.8437 125.651 67.7961 125.85 67.7441 126.058C67.6921 126.257 67.6401 126.452 67.5881 126.643L65.7811 132.48C65.7291 132.645 65.6381 132.775 65.5081 132.87C65.3781 132.957 65.2264 133 65.0531 133H63.1941C63.0207 133 62.8647 132.944 62.7261 132.831C62.5961 132.718 62.5311 132.58 62.5311 132.415L62.2191 124.03H64.1951L64.2341 130.309C64.2341 130.5 64.2297 130.703 64.2211 130.92C64.2124 131.137 64.2037 131.366 64.1951 131.609H64.4681C64.5287 131.375 64.5894 131.141 64.6501 130.907C64.7107 130.664 64.7714 130.439 64.8321 130.231L66.6001 124.602C66.7041 124.221 66.9511 124.03 67.3411 124.03H68.9401C69.1221 124.03 69.2694 124.095 69.3821 124.225C69.5034 124.346 69.5684 124.498 69.5771 124.68L69.8371 130.322C69.8457 130.53 69.8501 130.747 69.8501 130.972C69.8587 131.189 69.8587 131.401 69.8501 131.609H70.1361C70.1707 131.401 70.2141 131.176 70.2661 130.933C70.3267 130.682 70.3874 130.456 70.4481 130.257L72.2161 124.03H74.2051ZM77.8204 126.409C78.0457 126.409 78.2971 126.422 78.5744 126.448C78.8604 126.465 79.1464 126.491 79.4324 126.526C79.7271 126.561 80.0001 126.6 80.2514 126.643C80.5114 126.686 80.7237 126.73 80.8884 126.773L79.5754 127.813C79.2287 127.796 78.9124 127.787 78.6264 127.787C78.3404 127.778 78.0717 127.774 77.8204 127.774C77.5344 127.774 77.2917 127.796 77.0924 127.839C76.8931 127.882 76.7284 127.969 76.5984 128.099C76.4684 128.22 76.3601 128.407 76.2734 128.658C76.1867 128.909 76.1131 129.247 76.0524 129.672C75.9744 130.209 75.9311 130.621 75.9224 130.907C75.9224 131.184 75.9744 131.375 76.0784 131.479C76.1824 131.583 76.3471 131.631 76.5724 131.622C76.8064 131.613 77.0491 131.535 77.3004 131.388C77.5604 131.241 77.8161 131.041 78.0674 130.79C78.3187 130.53 78.5614 130.24 78.7954 129.919L79.1334 130.543C78.9601 131.054 78.7131 131.505 78.3924 131.895C78.0804 132.276 77.7121 132.575 77.2874 132.792C76.8627 133.009 76.3904 133.13 75.8704 133.156C75.3071 133.182 74.8737 133.069 74.5704 132.818C74.2757 132.567 74.0937 132.177 74.0244 131.648C73.9551 131.119 73.9811 130.456 74.1024 129.659C74.2151 128.922 74.3711 128.337 74.5704 127.904C74.7784 127.462 75.0384 127.137 75.3504 126.929C75.6624 126.712 76.0221 126.574 76.4294 126.513C76.8454 126.444 77.3091 126.409 77.8204 126.409ZM78.9904 126.656L80.8884 126.773L80.0174 133H78.5224L78.5484 131.544L78.3144 131.388L78.9904 126.656ZM85.2145 124.797L84.3305 130.985C84.2958 131.219 84.3175 131.379 84.3955 131.466C84.4735 131.553 84.6381 131.596 84.8895 131.596H85.7605L85.8515 132.909C85.6868 132.961 85.4875 133.004 85.2535 133.039C85.0281 133.082 84.8071 133.113 84.5905 133.13C84.3738 133.147 84.1961 133.156 84.0575 133.156C83.4595 133.156 83.0045 132.996 82.6925 132.675C82.3891 132.346 82.2808 131.904 82.3675 131.349L83.3165 124.797H85.2145ZM86.7485 126.578L86.5665 127.839H81.7305L81.8865 126.643L83.1345 126.578H86.7485ZM90.5861 126.409C90.9934 126.409 91.4268 126.444 91.8861 126.513C92.3454 126.574 92.7484 126.678 93.0951 126.825L92.8221 128.008C92.4408 127.991 92.0768 127.982 91.7301 127.982C91.3834 127.973 91.0888 127.969 90.8461 127.969C90.4648 127.969 90.1528 128.021 89.9101 128.125C89.6674 128.229 89.4811 128.415 89.3511 128.684C89.2211 128.944 89.1258 129.312 89.0651 129.789C88.9958 130.292 88.9871 130.673 89.0391 130.933C89.0911 131.193 89.2168 131.371 89.4161 131.466C89.6241 131.561 89.9144 131.609 90.2871 131.609C90.4431 131.609 90.6294 131.605 90.8461 131.596C91.0714 131.587 91.3141 131.579 91.5741 131.57C91.8341 131.553 92.0854 131.527 92.3281 131.492L92.4581 132.74C92.0854 132.887 91.6738 132.991 91.2231 133.052C90.7811 133.121 90.3564 133.156 89.9491 133.156C89.1951 133.156 88.5841 133.043 88.1161 132.818C87.6481 132.584 87.3231 132.216 87.1411 131.713C86.9678 131.202 86.9374 130.534 87.0501 129.711C87.1714 128.914 87.3578 128.277 87.6091 127.8C87.8691 127.315 88.2374 126.964 88.7141 126.747C89.1994 126.522 89.8234 126.409 90.5861 126.409ZM98.786 126.409C99.384 126.409 99.826 126.565 100.112 126.877C100.407 127.189 100.511 127.64 100.424 128.229L99.748 133H97.824L98.435 128.749C98.4697 128.472 98.4524 128.285 98.383 128.19C98.3137 128.086 98.175 128.034 97.967 128.034C97.655 128.034 97.3387 128.125 97.018 128.307C96.6974 128.48 96.3074 128.749 95.848 129.113L95.627 128.138C96.2077 127.549 96.758 127.115 97.278 126.838C97.8067 126.552 98.3094 126.409 98.786 126.409ZM96.693 123.9L96.381 126.162C96.329 126.569 96.2467 126.968 96.134 127.358C96.03 127.748 95.9347 128.056 95.848 128.281L96.043 128.437L95.419 133H93.495L94.769 123.9H96.693Z" fill="white"/>
</g>
<defs>
<clipPath id="clip0_113_1298">
<rect width="112" height="160" rx="6" fill="white"/>
</clipPath>
</defs>
</svg>
