<svg width="112" height="160" viewBox="0 0 112 160" fill="none" xmlns="http://www.w3.org/2000/svg">
<g clip-path="url(#clip0_113_1580)">
<path d="M1 7C1 3.6863 3.68629 1 7 1H105C108.314 1 111 3.68629 111 7V152C111 155.314 108.314 158 105 158H7C3.68629 158 1 155.314 1 152V7Z" fill="#393B4E"/>
<path fill-rule="evenodd" clip-rule="evenodd" d="M7 0C3.13401 0 0 3.13401 0 7V153C0 156.866 3.13401 160 7 160H105C108.866 160 112 156.866 112 153V7C112 3.13401 108.866 0 105 0H7ZM7 1C3.68629 1 1 3.68629 1 7C1 7 1 7 1 7V152C1 152.165 1.00666 152.328 1.01973 152.49C1.2691 155.575 3.85131 158 7 158H105C108.149 158 110.731 155.575 110.98 152.49C110.993 152.328 111 152.165 111 152V7C111 3.68629 108.314 1 105 1H7Z" fill="black" fill-opacity="0.3"/>
<path d="M32 40C32 38.8954 32.8954 38 34 38H78C79.1046 38 80 38.8954 80 40V98C80 102.418 76.4183 106 72 106H34C32.8954 106 32 105.105 32 104V40Z" fill="#E0E0E0"/>
<path d="M78 36.5H34C32.067 36.5 30.5 38.067 30.5 40V104C30.5 105.933 32.067 107.5 34 107.5H72C77.2467 107.5 81.5 103.247 81.5 98V40C81.5 38.067 79.933 36.5 78 36.5Z" stroke="white" stroke-opacity="0.3" stroke-width="3"/>
<path d="M78 37.5H34C32.6193 37.5 31.5 38.6193 31.5 40V104C31.5 105.381 32.6193 106.5 34 106.5H72C76.6944 106.5 80.5 102.694 80.5 98V40C80.5 38.6193 79.3807 37.5 78 37.5Z" fill="#E0E0E0" stroke="#333333"/>
<path d="M41.5 77C41.2239 77 41 77.2239 41 77.5V81H37.5C37.2239 81 37 81.2239 37 81.5V84.5C37 84.7761 37.2239 85 37.5 85H41V88.5C41 88.7761 41.2239 89 41.5 89H44.5C44.7761 89 45 88.7761 45 88.5V85H48.5C48.7761 85 49 84.7761 49 84.5V81.5C49 81.2239 48.7761 81 48.5 81H45V77.5C45 77.2239 44.7761 77 44.5 77H41.5Z" fill="#333333"/>
<path d="M41.5 76.5C40.9477 76.5 40.5 76.9477 40.5 77.5V80.5H37.5C36.9477 80.5 36.5 80.9477 36.5 81.5V84.5C36.5 85.0523 36.9477 85.5 37.5 85.5H40.5V88.5C40.5 89.0523 40.9477 89.5 41.5 89.5H44.5C45.0523 89.5 45.5 89.0523 45.5 88.5V85.5H48.5C49.0523 85.5 49.5 85.0523 49.5 84.5V81.5C49.5 80.9477 49.0523 80.5 48.5 80.5H45.5V77.5C45.5 76.9477 45.0523 76.5 44.5 76.5H41.5Z" stroke="black" stroke-opacity="0.2"/>
<path d="M35 43C35 42.4477 35.4477 42 36 42H76C76.5523 42 77 42.4477 77 43V67C77 69.7614 74.7614 72 72 72H36C35.4477 72 35 71.5523 35 71V43Z" fill="#BDBDBD"/>
<rect x="43" y="44" width="26" height="26" rx="1" fill="#27AE39"/>
<rect x="43.5" y="44.5" width="25" height="25" rx="0.5" stroke="black" stroke-opacity="0.3"/>
<circle cx="65" cy="85" r="3" fill="#D6244E"/>
<circle cx="65" cy="85" r="3.5" stroke="black" stroke-opacity="0.2"/>
<circle cx="73" cy="81" r="3" fill="#D6244E"/>
<circle cx="73" cy="81" r="3.5" stroke="black" stroke-opacity="0.2"/>
<path d="M50.234 97.5712C49.879 97.1481 49.9342 96.5173 50.3572 96.1623L52.6554 94.234C53.0784 93.879 53.7092 93.9342 54.0642 94.3572C54.4192 94.7803 54.364 95.4111 53.9409 95.7661L51.6428 97.6944C51.2197 98.0494 50.589 97.9942 50.234 97.5712Z" fill="#4F4F4F"/>
<path d="M58.2341 97.5712C57.8791 97.1481 57.9343 96.5173 58.3574 96.1623L60.6555 94.234C61.0786 93.879 61.7093 93.9342 62.0643 94.3572C62.4193 94.7803 62.3641 95.4111 61.9411 95.7661L59.6429 97.6944C59.2199 98.0494 58.5891 97.9942 58.2341 97.5712Z" fill="#4F4F4F"/>
<path d="M52.334 93.851L50.0358 95.7793C49.4012 96.3118 49.3185 97.258 49.851 97.8926C50.3835 98.5272 51.3296 98.61 51.9642 98.0775L54.2623 96.1491C54.8969 95.6166 54.9797 94.6705 54.4472 94.0358C53.9147 93.4012 52.9686 93.3185 52.334 93.851ZM60.3341 93.851L58.036 95.7793C57.4014 96.3118 57.3186 97.258 57.8511 97.8926C58.3836 98.5272 59.3297 98.61 59.9643 98.0775L62.2625 96.1491C62.8971 95.6166 62.9798 94.6705 62.4473 94.0358C61.9148 93.4012 60.9687 93.3185 60.3341 93.851Z" stroke="black" stroke-opacity="0.2"/>
<path d="M67 98L71 102M69 96L73 100M71 94L75 98" stroke="black" stroke-opacity="0.3" stroke-linecap="round" stroke-linejoin="round"/>
<path d="M52.9505 123.848C53.2798 123.848 53.6005 123.861 53.9125 123.887C54.2332 123.913 54.5452 123.952 54.8485 124.004C55.1605 124.047 55.4552 124.112 55.7325 124.199L55.4985 125.629C55.2038 125.612 54.9135 125.599 54.6275 125.59C54.3415 125.581 54.0598 125.577 53.7825 125.577C53.5052 125.568 53.2148 125.564 52.9115 125.564C52.5128 125.564 52.1748 125.612 51.8975 125.707C51.6202 125.794 51.3862 125.95 51.1955 126.175C51.0135 126.392 50.8618 126.699 50.7405 127.098C50.6192 127.488 50.5152 127.986 50.4285 128.593C50.3418 129.321 50.3115 129.897 50.3375 130.322C50.3722 130.738 50.4805 131.033 50.6625 131.206C50.8445 131.379 51.1218 131.466 51.4945 131.466C51.7892 131.466 52.0448 131.423 52.2615 131.336C52.4782 131.241 52.6775 131.119 52.8595 130.972C53.0502 130.816 53.2408 130.656 53.4315 130.491L53.7305 131.427C53.5745 131.618 53.3968 131.817 53.1975 132.025C52.9982 132.224 52.7728 132.415 52.5215 132.597C52.2702 132.77 51.9885 132.909 51.6765 133.013C51.3645 133.126 51.0178 133.182 50.6365 133.182C50.0298 133.182 49.5315 133.026 49.1415 132.714C48.7515 132.402 48.4872 131.899 48.3485 131.206C48.2098 130.513 48.2142 129.59 48.3615 128.437C48.4828 127.51 48.6605 126.747 48.8945 126.149C49.1372 125.551 49.4405 125.087 49.8045 124.758C50.1772 124.42 50.6235 124.186 51.1435 124.056C51.6635 123.917 52.2658 123.848 52.9505 123.848ZM55.5895 127.826L54.8485 133H53.4055L53.3405 131.609L53.2105 131.232L53.6785 127.826H55.5895ZM60.9645 123.926C61.7185 123.926 62.3208 124 62.7715 124.147C63.2308 124.286 63.5471 124.533 63.7205 124.888C63.9025 125.235 63.9501 125.72 63.8635 126.344C63.7768 126.968 63.5991 127.44 63.3305 127.761C63.0618 128.082 62.6328 128.268 62.0435 128.32L62.0305 128.385C62.7238 128.446 63.1831 128.688 63.4085 129.113C63.6338 129.538 63.6945 130.114 63.5905 130.842C63.5038 131.449 63.3391 131.917 63.0965 132.246C62.8538 132.575 62.5071 132.801 62.0565 132.922C61.6058 133.043 61.0251 133.104 60.3145 133.104C59.7165 133.104 59.1965 133.1 58.7545 133.091C58.3125 133.091 57.9095 133.082 57.5455 133.065C57.1815 133.048 56.8088 133.026 56.4275 133L56.7525 131.596C56.9691 131.605 57.3635 131.613 57.9355 131.622C58.5161 131.631 59.1878 131.635 59.9505 131.635C60.3318 131.635 60.6351 131.6 60.8605 131.531C61.0858 131.462 61.2548 131.332 61.3675 131.141C61.4888 130.942 61.5711 130.664 61.6145 130.309C61.6665 129.954 61.6665 129.685 61.6145 129.503C61.5625 129.321 61.4411 129.195 61.2505 129.126C61.0685 129.048 60.7998 129.005 60.4445 128.996H57.1685L57.3505 127.709H60.4965C60.8258 127.7 61.0858 127.666 61.2765 127.605C61.4758 127.536 61.6275 127.41 61.7315 127.228C61.8441 127.046 61.9221 126.79 61.9655 126.461C62.0088 126.175 62.0001 125.954 61.9395 125.798C61.8875 125.642 61.7748 125.538 61.6015 125.486C61.4368 125.425 61.2028 125.395 60.8995 125.395C60.3968 125.395 59.9548 125.395 59.5735 125.395C59.1921 125.395 58.8541 125.395 58.5595 125.395C58.2735 125.395 58.0048 125.404 57.7535 125.421L57.6885 124.03C58.0265 123.995 58.3558 123.974 58.6765 123.965C58.9971 123.948 59.3395 123.939 59.7035 123.939C60.0761 123.93 60.4965 123.926 60.9645 123.926ZM59.6255 124.03L58.3645 133H56.4275L57.6885 124.03H59.6255Z" fill="white"/>
</g>
<defs>
<clipPath id="clip0_113_1580">
<rect width="112" height="160" rx="6" fill="white"/>
</clipPath>
</defs>
</svg>
