<svg width="112" height="160" viewBox="0 0 112 160" fill="none" xmlns="http://www.w3.org/2000/svg">
<g clip-path="url(#clip0_113_2028)">
<path d="M1 7C1 3.6863 3.68629 1 7 1H105C108.314 1 111 3.68629 111 7V152C111 155.314 108.314 158 105 158H7C3.68629 158 1 155.314 1 152V7Z" fill="#393B4E"/>
<path fill-rule="evenodd" clip-rule="evenodd" d="M7 0C3.13401 0 0 3.13401 0 7V153C0 156.866 3.13401 160 7 160H105C108.866 160 112 156.866 112 153V7C112 3.13401 108.866 0 105 0H7ZM7 1C3.68629 1 1 3.68629 1 7C1 7 1 7 1 7V152C1 152.165 1.00666 152.328 1.01973 152.49C1.2691 155.575 3.85131 158 7 158H105C108.149 158 110.731 155.575 110.98 152.49C110.993 152.328 111 152.165 111 152V7C111 3.68629 108.314 1 105 1H7Z" fill="black" fill-opacity="0.3"/>
<path d="M75.2281 53.5174C75.2067 53.5142 75.1854 53.5114 75.1641 53.509L75.1276 53.4882C73.9944 52.8406 72.7118 52.5 71.4066 52.5H39.8166C38.3925 52.5 36.999 52.9054 35.7985 53.6672L27.1637 54.9956C24.4985 55.4056 22.5265 57.6862 22.5002 60.3772C22.4075 60.6862 22.3471 61.0085 22.3226 61.3396L20.7872 82.0667C20.5701 84.9984 22.3475 87.7109 25.1222 88.682L32.5218 91.2719C38.6269 93.4086 45.0487 94.5 51.5169 94.5H60.483C66.9512 94.5 73.3731 93.4086 79.4782 91.2719L86.8778 88.682C89.6524 87.7109 91.4299 84.9984 91.2127 82.0667L89.6774 61.3396C89.6529 61.0085 89.5924 60.6862 89.4997 60.3772C89.4734 57.6862 87.5014 55.4057 84.8363 54.9956L75.2281 53.5174Z" stroke="white" stroke-opacity="0.3" stroke-width="3" stroke-linecap="round" stroke-linejoin="round"/>
<path d="M75.076 54.5058C75.017 54.4967 74.9575 54.4984 74.9003 54.51L74.6315 54.3564C73.6493 53.7952 72.5378 53.5 71.4066 53.5H39.8166C38.5334 53.5 37.2788 53.8798 36.2111 54.5917L36.1646 54.6226L27.3157 55.984C25.1205 56.3217 23.5 58.2106 23.5 60.4317V60.5343C23.404 60.8135 23.3424 61.1084 23.3198 61.4135L21.7845 82.1406C21.6007 84.6212 23.1048 86.9164 25.4525 87.7381L32.8521 90.328C38.851 92.4276 45.1612 93.5 51.5169 93.5H60.483C66.8387 93.5 73.1489 92.4276 79.1478 90.328L86.5474 87.7381C88.8952 86.9164 90.3992 84.6212 90.2155 82.1406L88.6801 61.4135C88.6575 61.1084 88.5959 60.8135 88.5 60.5343V60.4317C88.5 58.2106 86.8795 56.3217 84.6842 55.984L75.076 54.5058Z" stroke="#333333" stroke-linecap="round" stroke-linejoin="round"/>
<path d="M24 60.4317C24 58.4574 25.4404 56.7784 27.3918 56.4782L37 55V62H24V60.4317Z" fill="#E0E0E0"/>
<path d="M88 60.4317C88 58.4574 86.5596 56.7784 84.6082 56.4782L75 55V62H88V60.4317Z" fill="#E0E0E0"/>
<path d="M22.2831 82.1776L23.8185 61.4504C23.9241 60.0253 25.0202 58.8725 26.4382 58.6952L29.6575 58.2928C31.198 58.1002 32.6725 57.5517 33.9642 56.6905L36.4885 55.0077C37.4741 54.3506 38.6321 54 39.8167 54H71.4066C72.4508 54 73.4769 54.2725 74.3834 54.7905L78.2635 57.0077C79.4098 57.6628 80.6745 58.0843 81.9846 58.2481L85.5618 58.6952C86.9798 58.8725 88.076 60.0253 88.1815 61.4504L89.7169 82.1776C89.8839 84.4327 88.5166 86.5192 86.3823 87.2662L78.9827 89.8561C73.0368 91.9371 66.7825 93 60.483 93H51.517C45.2175 93 38.9632 91.9371 33.0173 89.8561L25.6177 87.2662C23.4834 86.5192 22.1161 84.4327 22.2831 82.1776Z" fill="#6541B9"/>
<path d="M70.3042 59H41.7933C40.2194 59 38.9133 60.2132 38.8012 61.7831L38 73C37.7556 76.4212 37.8171 81.0425 37.8973 84.0225C37.9449 85.79 39.1739 87.2939 40.8995 87.6794C42.9894 88.1462 45.815 88.7289 48 89C54.5884 89.8175 58.4116 89.8175 65 89C67.147 88.7336 69.9125 88.1664 71.9909 87.7038C73.7684 87.3082 75.0123 85.731 74.9953 83.9101C74.9675 80.9273 74.862 76.3784 74.5 73L73.2869 61.6777C73.1236 60.1533 71.8374 59 70.3042 59Z" fill="#333333"/>
<rect x="41" y="62" width="30" height="20" rx="1" fill="#828282"/>
<rect x="41.5" y="62.5" width="29" height="19" rx="0.5" stroke="black" stroke-opacity="0.3"/>
<path d="M84.5 72C85.8807 72 87 70.8807 87 69.5C87 68.1193 85.8807 67 84.5 67C83.1193 67 82 68.1193 82 69.5C82 70.8807 83.1193 72 84.5 72Z" fill="#E0E0E0"/>
<path d="M78.5 74C79.8807 74 81 72.8807 81 71.5C81 70.1193 79.8807 69 78.5 69C77.1193 69 76 70.1193 76 71.5C76 72.8807 77.1193 74 78.5 74Z" fill="#E0E0E0"/>
<path d="M84.5 72.5C86.1569 72.5 87.5 71.1569 87.5 69.5C87.5 67.8431 86.1569 66.5 84.5 66.5C82.8431 66.5 81.5 67.8431 81.5 69.5C81.5 71.1569 82.8431 72.5 84.5 72.5ZM78.5 74.5C80.1569 74.5 81.5 73.1569 81.5 71.5C81.5 69.8431 80.1569 68.5 78.5 68.5C76.8431 68.5 75.5 69.8431 75.5 71.5C75.5 73.1569 76.8431 74.5 78.5 74.5Z" stroke="black" stroke-opacity="0.3"/>
<path d="M77 80L84 78M77 82L84 80M77 84L84 82M77 86L84 84" stroke="black" stroke-opacity="0.4" stroke-linecap="round"/>
<circle cx="78.5" cy="61.5" r="0.5" fill="#53CA86"/>
<path d="M29.5 66C29.2239 66 29 66.2239 29 66.5V69H26.5C26.2239 69 26 69.2239 26 69.5V71.5C26 71.7761 26.2239 72 26.5 72H29V74.5C29 74.7761 29.2239 75 29.5 75H31.5C31.7761 75 32 74.7761 32 74.5V72H34.5C34.7761 72 35 71.7761 35 71.5V69.5C35 69.2239 34.7761 69 34.5 69H32V66.5C32 66.2239 31.7761 66 31.5 66H29.5Z" fill="#E0E0E0"/>
<path d="M29.5 65.5C28.9477 65.5 28.5 65.9477 28.5 66.5V68.5H26.5C25.9477 68.5 25.5 68.9477 25.5 69.5V71.5C25.5 72.0523 25.9477 72.5 26.5 72.5H28.5V74.5C28.5 75.0523 28.9477 75.5 29.5 75.5H31.5C32.0523 75.5 32.5 75.0523 32.5 74.5V72.5H34.5C35.0523 72.5 35.5 72.0523 35.5 71.5V69.5C35.5 68.9477 35.0523 68.5 34.5 68.5H32.5V66.5C32.5 65.9477 32.0523 65.5 31.5 65.5H29.5Z" stroke="black" stroke-opacity="0.3"/>
<path d="M30.2452 77.7742C29.5682 77.6388 28.9097 78.0779 28.7743 78.7548C28.6389 79.4318 29.0779 80.0903 29.7549 80.2257L34.7549 81.2257C35.4318 81.3611 36.0903 80.922 36.2257 80.2451C36.3611 79.5681 35.9221 78.9096 35.2452 78.7742L30.2452 77.7742ZM30.2452 81.7742C29.5682 81.6388 28.9097 82.0779 28.7743 82.7548C28.6389 83.4318 29.0779 84.0903 29.7549 84.2257L34.7549 85.2257C35.4318 85.3611 36.0903 84.922 36.2257 84.2451C36.3611 83.5681 35.9221 82.9096 35.2452 82.7742L30.2452 81.7742Z" stroke="black" stroke-opacity="0.3" stroke-width="0.5" stroke-linecap="round"/>
<path d="M35 81C35.5523 81 36 80.5523 36 80C36 79.4477 35.5523 79 35 79C34.4477 79 34 79.4477 34 80C34 80.5523 34.4477 81 35 81Z" fill="#E0E0E0"/>
<path d="M35 85C35.5523 85 36 84.5523 36 84C36 83.4477 35.5523 83 35 83C34.4477 83 34 83.4477 34 84C34 84.5523 34.4477 85 35 85Z" fill="#E0E0E0"/>
<path d="M35 81.25C35.6904 81.25 36.25 80.6904 36.25 80C36.25 79.3096 35.6904 78.75 35 78.75C34.3096 78.75 33.75 79.3096 33.75 80C33.75 80.6904 34.3096 81.25 35 81.25ZM35 85.25C35.6904 85.25 36.25 84.6904 36.25 84C36.25 83.3096 35.6904 82.75 35 82.75C34.3096 82.75 33.75 83.3096 33.75 84C33.75 84.6904 34.3096 85.25 35 85.25Z" stroke="black" stroke-opacity="0.3" stroke-width="0.5"/>
<circle cx="30.5" cy="70.5" r="1" fill="#BDBDBD"/>
<path d="M48.7293 123.848C49.0586 123.848 49.3793 123.861 49.6913 123.887C50.012 123.913 50.324 123.952 50.6273 124.004C50.9393 124.047 51.234 124.112 51.5113 124.199L51.2773 125.629C50.9826 125.612 50.6923 125.599 50.4063 125.59C50.1203 125.581 49.8386 125.577 49.5613 125.577C49.284 125.568 48.9936 125.564 48.6903 125.564C48.2916 125.564 47.9536 125.612 47.6763 125.707C47.399 125.794 47.165 125.95 46.9743 126.175C46.7923 126.392 46.6406 126.699 46.5193 127.098C46.398 127.488 46.294 127.986 46.2073 128.593C46.1206 129.321 46.0903 129.897 46.1163 130.322C46.151 130.738 46.2593 131.033 46.4413 131.206C46.6233 131.379 46.9006 131.466 47.2733 131.466C47.568 131.466 47.8236 131.423 48.0403 131.336C48.257 131.241 48.4563 131.119 48.6383 130.972C48.829 130.816 49.0196 130.656 49.2103 130.491L49.5093 131.427C49.3533 131.618 49.1756 131.817 48.9763 132.025C48.777 132.224 48.5516 132.415 48.3003 132.597C48.049 132.77 47.7673 132.909 47.4553 133.013C47.1433 133.126 46.7966 133.182 46.4153 133.182C45.8086 133.182 45.3103 133.026 44.9203 132.714C44.5303 132.402 44.266 131.899 44.1273 131.206C43.9886 130.513 43.993 129.59 44.1403 128.437C44.2616 127.51 44.4393 126.747 44.6733 126.149C44.916 125.551 45.2193 125.087 45.5833 124.758C45.956 124.42 46.4023 124.186 46.9223 124.056C47.4423 123.917 48.0446 123.848 48.7293 123.848ZM51.3683 127.826L50.6273 133H49.1843L49.1193 131.609L48.9893 131.232L49.4573 127.826H51.3683ZM56.7433 123.926C57.4973 123.926 58.0996 124 58.5503 124.147C59.0096 124.286 59.326 124.533 59.4993 124.888C59.6813 125.235 59.729 125.72 59.6423 126.344C59.5556 126.968 59.378 127.44 59.1093 127.761C58.8406 128.082 58.4116 128.268 57.8223 128.32L57.8093 128.385C58.5026 128.446 58.962 128.688 59.1873 129.113C59.4126 129.538 59.4733 130.114 59.3693 130.842C59.2826 131.449 59.118 131.917 58.8753 132.246C58.6326 132.575 58.286 132.801 57.8353 132.922C57.3846 133.043 56.804 133.104 56.0933 133.104C55.4953 133.104 54.9753 133.1 54.5333 133.091C54.0913 133.091 53.6883 133.082 53.3243 133.065C52.9603 133.048 52.5876 133.026 52.2063 133L52.5313 131.596C52.748 131.605 53.1423 131.613 53.7143 131.622C54.295 131.631 54.9666 131.635 55.7293 131.635C56.1106 131.635 56.414 131.6 56.6393 131.531C56.8646 131.462 57.0336 131.332 57.1463 131.141C57.2676 130.942 57.35 130.664 57.3933 130.309C57.4453 129.954 57.4453 129.685 57.3933 129.503C57.3413 129.321 57.22 129.195 57.0293 129.126C56.8473 129.048 56.5786 129.005 56.2233 128.996H52.9473L53.1293 127.709H56.2753C56.6046 127.7 56.8646 127.666 57.0553 127.605C57.2546 127.536 57.4063 127.41 57.5103 127.228C57.623 127.046 57.701 126.79 57.7443 126.461C57.7876 126.175 57.779 125.954 57.7183 125.798C57.6663 125.642 57.5536 125.538 57.3803 125.486C57.2156 125.425 56.9816 125.395 56.6783 125.395C56.1756 125.395 55.7336 125.395 55.3523 125.395C54.971 125.395 54.633 125.395 54.3383 125.395C54.0523 125.395 53.7836 125.404 53.5323 125.421L53.4673 124.03C53.8053 123.995 54.1346 123.974 54.4553 123.965C54.776 123.948 55.1183 123.939 55.4823 123.939C55.855 123.93 56.2753 123.926 56.7433 123.926ZM55.4043 124.03L54.1433 133H52.2063L53.4673 124.03H55.4043ZM65.9953 124.03C66.16 124.03 66.303 124.086 66.4243 124.199C66.5457 124.303 66.615 124.433 66.6323 124.589L68.0493 133H66.0603L65.1893 126.396C65.172 126.24 65.159 126.088 65.1503 125.941C65.1417 125.794 65.1373 125.651 65.1373 125.512H64.7603C64.717 125.633 64.6693 125.772 64.6173 125.928C64.574 126.084 64.522 126.236 64.4613 126.383L61.6923 133H59.6123L63.3953 124.524C63.456 124.359 63.547 124.238 63.6683 124.16C63.7983 124.073 63.9457 124.03 64.1103 124.03H65.9953ZM66.6843 129.126L66.5023 130.66H61.8743L62.0563 129.126H66.6843Z" fill="white"/>
</g>
<defs>
<clipPath id="clip0_113_2028">
<rect width="112" height="160" rx="6" fill="white"/>
</clipPath>
</defs>
</svg>
