<svg width="112" height="160" viewBox="0 0 112 160" fill="none" xmlns="http://www.w3.org/2000/svg">
<g clip-path="url(#clip0_113_2139)">
<path d="M1 7C1 3.6863 3.68629 1 7 1H105C108.314 1 111 3.68629 111 7V152C111 155.314 108.314 158 105 158H7C3.68629 158 1 155.314 1 152V7Z" fill="#393B4E"/>
<path fill-rule="evenodd" clip-rule="evenodd" d="M7 0C3.13401 0 0 3.13401 0 7V153C0 156.866 3.13401 160 7 160H105C108.866 160 112 156.866 112 153V7C112 3.13401 108.866 0 105 0H7ZM7 1C3.68629 1 1 3.68629 1 7C1 7 1 7 1 7V152C1 152.165 1.00666 152.328 1.01973 152.49C1.2691 155.575 3.85131 158 7 158H105C108.149 158 110.731 155.575 110.98 152.49C110.993 152.328 111 152.165 111 152V7C111 3.68629 108.314 1 105 1H7Z" fill="black" fill-opacity="0.3"/>
<path d="M75.2281 53.5174C75.2067 53.5142 75.1854 53.5114 75.1641 53.509L75.1276 53.4882C73.9944 52.8406 72.7118 52.5 71.4066 52.5H39.8166C38.3925 52.5 36.999 52.9054 35.7985 53.6672L27.1637 54.9956C24.4985 55.4056 22.5265 57.6862 22.5002 60.3772C22.4075 60.6862 22.3471 61.0085 22.3226 61.3396L20.7872 82.0667C20.5701 84.9984 22.3475 87.7109 25.1222 88.682L32.5218 91.2719C38.6269 93.4086 45.0487 94.5 51.5169 94.5H60.483C66.9512 94.5 73.3731 93.4086 79.4782 91.2719L86.8778 88.682C89.6524 87.7109 91.4299 84.9984 91.2127 82.0667L89.6774 61.3396C89.6529 61.0085 89.5924 60.6862 89.4997 60.3772C89.4734 57.6862 87.5014 55.4057 84.8363 54.9956L75.2281 53.5174Z" stroke="white" stroke-opacity="0.3" stroke-width="3" stroke-linecap="round" stroke-linejoin="round"/>
<path d="M75.076 54.5058C75.017 54.4967 74.9575 54.4984 74.9003 54.51L74.6315 54.3564C73.6493 53.7952 72.5378 53.5 71.4066 53.5H39.8166C38.5334 53.5 37.2788 53.8798 36.2111 54.5917L36.1646 54.6226L27.3157 55.984C25.1205 56.3217 23.5 58.2106 23.5 60.4317V60.5343C23.404 60.8135 23.3424 61.1084 23.3198 61.4135L21.7845 82.1406C21.6007 84.6212 23.1048 86.9164 25.4525 87.7381L32.8521 90.328C38.851 92.4276 45.1612 93.5 51.5169 93.5H60.483C66.8387 93.5 73.1489 92.4276 79.1478 90.328L86.5474 87.7381C88.8952 86.9164 90.3992 84.6212 90.2155 82.1406L88.6801 61.4135C88.6575 61.1084 88.5959 60.8135 88.5 60.5343V60.4317C88.5 58.2106 86.8795 56.3217 84.6842 55.984L75.076 54.5058Z" stroke="#333333" stroke-linecap="round" stroke-linejoin="round"/>
<path d="M24 60.4317C24 58.4574 25.4404 56.7784 27.3918 56.4782L37 55V62H24V60.4317Z" fill="#BAFFA1"/>
<path d="M88 60.4317C88 58.4574 86.5596 56.7784 84.6082 56.4782L75 55V62H88V60.4317Z" fill="#E0E0E0"/>
<path d="M22.2831 82.1776L23.8185 61.4504C23.9241 60.0253 25.0202 58.8725 26.4382 58.6952L29.6575 58.2928C31.198 58.1002 32.6725 57.5517 33.9642 56.6905L36.4885 55.0077C37.4741 54.3506 38.6321 54 39.8167 54H71.4066C72.4508 54 73.4769 54.2725 74.3834 54.7905L78.2635 57.0077C79.4098 57.6628 80.6745 58.0843 81.9846 58.2481L85.5618 58.6952C86.9798 58.8725 88.076 60.0253 88.1815 61.4504L89.7169 82.1776C89.8839 84.4327 88.5166 86.5192 86.3823 87.2662L78.9827 89.8561C73.0368 91.9371 66.7825 93 60.483 93H51.517C45.2175 93 38.9632 91.9371 33.0173 89.8561L25.6177 87.2662C23.4834 86.5192 22.1161 84.4327 22.2831 82.1776Z" fill="#2EAF00"/>
<path d="M70.4778 59H41.9669C40.393 59 39.0869 60.2132 38.9748 61.7831L38.1736 73C37.9292 76.4212 37.9907 81.0425 38.0709 84.0225C38.1185 85.79 39.3475 87.2939 41.0731 87.6794C43.163 88.1462 45.9885 88.7289 48.1736 89C54.762 89.8175 58.5852 89.8175 65.1736 89C67.3206 88.7336 70.0861 88.1664 72.1644 87.7038C73.942 87.3082 75.1859 85.731 75.1689 83.9101C75.1411 80.9273 75.0355 76.3784 74.6736 73L73.4605 61.6777C73.2971 60.1533 72.011 59 70.4778 59Z" fill="#144C00"/>
<rect x="41" y="62" width="30" height="20" rx="1" fill="#33C200"/>
<rect x="41.5" y="62.5" width="29" height="19" rx="0.5" stroke="black" stroke-opacity="0.3"/>
<path d="M84.5 72.5C86.1569 72.5 87.5 71.1569 87.5 69.5C87.5 67.8431 86.1569 66.5 84.5 66.5C82.8431 66.5 81.5 67.8431 81.5 69.5C81.5 71.1569 82.8431 72.5 84.5 72.5ZM78.5 74.5C80.1569 74.5 81.5 73.1569 81.5 71.5C81.5 69.8431 80.1569 68.5 78.5 68.5C76.8431 68.5 75.5 69.8431 75.5 71.5C75.5 73.1569 76.8431 74.5 78.5 74.5Z" fill="#BAFFA1" stroke="#207B00"/>
<path d="M77 80L84 78M77 82L84 80M77 84L84 82M77 86L84 84" stroke="#207B00" stroke-linecap="round"/>
<circle cx="78.5" cy="61.5" r="0.5" fill="#42EB06"/>
<path d="M29.5 65.5C28.9477 65.5 28.5 65.9477 28.5 66.5V68.5H26.5C25.9477 68.5 25.5 68.9477 25.5 69.5V71.5C25.5 72.0523 25.9477 72.5 26.5 72.5H28.5V74.5C28.5 75.0523 28.9477 75.5 29.5 75.5H31.5C32.0523 75.5 32.5 75.0523 32.5 74.5V72.5H34.5C35.0523 72.5 35.5 72.0523 35.5 71.5V69.5C35.5 68.9477 35.0523 68.5 34.5 68.5H32.5V66.5C32.5 65.9477 32.0523 65.5 31.5 65.5H29.5Z" fill="#BAFFA1" stroke="#207B00"/>
<path d="M30.2452 77.7742C29.5682 77.6388 28.9097 78.0779 28.7743 78.7548C28.6389 79.4318 29.0779 80.0903 29.7549 80.2257L34.7549 81.2257C35.4318 81.3611 36.0903 80.922 36.2257 80.2451C36.3611 79.5681 35.9221 78.9096 35.2452 78.7742L30.2452 77.7742ZM30.2452 81.7742C29.5682 81.6388 28.9097 82.0779 28.7743 82.7548C28.6389 83.4318 29.0779 84.0903 29.7549 84.2257L34.7549 85.2257C35.4318 85.3611 36.0903 84.922 36.2257 84.2451C36.3611 83.5681 35.9221 82.9096 35.2452 82.7742L30.2452 81.7742Z" stroke="#207B00" stroke-width="0.5" stroke-linecap="round"/>
<path d="M35 81.25C35.6904 81.25 36.25 80.6904 36.25 80C36.25 79.3096 35.6904 78.75 35 78.75C34.3096 78.75 33.75 79.3096 33.75 80C33.75 80.6904 34.3096 81.25 35 81.25ZM35 85.25C35.6904 85.25 36.25 84.6904 36.25 84C36.25 83.3096 35.6904 82.75 35 82.75C34.3096 82.75 33.75 83.3096 33.75 84C33.75 84.6904 34.3096 85.25 35 85.25Z" fill="#BAFFA1" stroke="#207B00" stroke-width="0.5"/>
<circle cx="30.5" cy="70.5" r="1" fill="#6CFF38"/>
<path d="M28.7659 123.848C29.0952 123.848 29.4159 123.861 29.7279 123.887C30.0486 123.913 30.3606 123.952 30.6639 124.004C30.9759 124.047 31.2706 124.112 31.5479 124.199L31.3139 125.629C31.0192 125.612 30.7289 125.599 30.4429 125.59C30.1569 125.581 29.8752 125.577 29.5979 125.577C29.3206 125.568 29.0302 125.564 28.7269 125.564C28.3282 125.564 27.9902 125.612 27.7129 125.707C27.4356 125.794 27.2016 125.95 27.0109 126.175C26.8289 126.392 26.6772 126.699 26.5559 127.098C26.4346 127.488 26.3306 127.986 26.2439 128.593C26.1572 129.321 26.1269 129.897 26.1529 130.322C26.1876 130.738 26.2959 131.033 26.4779 131.206C26.6599 131.379 26.9372 131.466 27.3099 131.466C27.6046 131.466 27.8602 131.423 28.0769 131.336C28.2936 131.241 28.4929 131.119 28.6749 130.972C28.8656 130.816 29.0562 130.656 29.2469 130.491L29.5459 131.427C29.3899 131.618 29.2122 131.817 29.0129 132.025C28.8136 132.224 28.5882 132.415 28.3369 132.597C28.0856 132.77 27.8039 132.909 27.4919 133.013C27.1799 133.126 26.8332 133.182 26.4519 133.182C25.8452 133.182 25.3469 133.026 24.9569 132.714C24.5669 132.402 24.3026 131.899 24.1639 131.206C24.0252 130.513 24.0296 129.59 24.1769 128.437C24.2982 127.51 24.4759 126.747 24.7099 126.149C24.9526 125.551 25.2559 125.087 25.6199 124.758C25.9926 124.42 26.4389 124.186 26.9589 124.056C27.4789 123.917 28.0812 123.848 28.7659 123.848ZM31.4049 127.826L30.6639 133H29.2209L29.1559 131.609L29.0259 131.232L29.4939 127.826H31.4049ZM36.7799 123.926C37.5339 123.926 38.1362 124 38.5869 124.147C39.0462 124.286 39.3626 124.533 39.5359 124.888C39.7179 125.235 39.7656 125.72 39.6789 126.344C39.5922 126.968 39.4146 127.44 39.1459 127.761C38.8772 128.082 38.4482 128.268 37.8589 128.32L37.8459 128.385C38.5392 128.446 38.9986 128.688 39.2239 129.113C39.4492 129.538 39.5099 130.114 39.4059 130.842C39.3192 131.449 39.1546 131.917 38.9119 132.246C38.6692 132.575 38.3226 132.801 37.8719 132.922C37.4212 133.043 36.8406 133.104 36.1299 133.104C35.5319 133.104 35.0119 133.1 34.5699 133.091C34.1279 133.091 33.7249 133.082 33.3609 133.065C32.9969 133.048 32.6242 133.026 32.2429 133L32.5679 131.596C32.7846 131.605 33.1789 131.613 33.7509 131.622C34.3316 131.631 35.0032 131.635 35.7659 131.635C36.1472 131.635 36.4506 131.6 36.6759 131.531C36.9012 131.462 37.0702 131.332 37.1829 131.141C37.3042 130.942 37.3866 130.664 37.4299 130.309C37.4819 129.954 37.4819 129.685 37.4299 129.503C37.3779 129.321 37.2566 129.195 37.0659 129.126C36.8839 129.048 36.6152 129.005 36.2599 128.996H32.9839L33.1659 127.709H36.3119C36.6412 127.7 36.9012 127.666 37.0919 127.605C37.2912 127.536 37.4429 127.41 37.5469 127.228C37.6596 127.046 37.7376 126.79 37.7809 126.461C37.8242 126.175 37.8156 125.954 37.7549 125.798C37.7029 125.642 37.5902 125.538 37.4169 125.486C37.2522 125.425 37.0182 125.395 36.7149 125.395C36.2122 125.395 35.7702 125.395 35.3889 125.395C35.0076 125.395 34.6696 125.395 34.3749 125.395C34.0889 125.395 33.8202 125.404 33.5689 125.421L33.5039 124.03C33.8419 123.995 34.1712 123.974 34.4919 123.965C34.8126 123.948 35.1549 123.939 35.5189 123.939C35.8916 123.93 36.3119 123.926 36.7799 123.926ZM35.4409 124.03L34.1799 133H32.2429L33.5039 124.03H35.4409ZM46.0319 124.03C46.1966 124.03 46.3396 124.086 46.4609 124.199C46.5823 124.303 46.6516 124.433 46.6689 124.589L48.0859 133H46.0969L45.2259 126.396C45.2086 126.24 45.1956 126.088 45.1869 125.941C45.1783 125.794 45.1739 125.651 45.1739 125.512H44.7969C44.7536 125.633 44.7059 125.772 44.6539 125.928C44.6106 126.084 44.5586 126.236 44.4979 126.383L41.7289 133H39.6489L43.4319 124.524C43.4926 124.359 43.5836 124.238 43.7049 124.16C43.8349 124.073 43.9823 124.03 44.1469 124.03H46.0319ZM46.7209 129.126L46.5389 130.66H41.9109L42.0929 129.126H46.7209ZM54.7139 124.03L53.4529 133H51.4509L52.7119 124.03H54.7139ZM57.4959 127.475L57.2879 128.983H53.9079L54.1159 127.475H57.4959ZM59.8229 124.03L58.5619 133H56.5859L57.8469 124.03H59.8229ZM64.211 126.409C64.4364 126.409 64.6877 126.422 64.965 126.448C65.251 126.465 65.537 126.491 65.823 126.526C66.1177 126.561 66.3907 126.6 66.642 126.643C66.902 126.686 67.1144 126.73 67.279 126.773L65.966 127.813C65.6194 127.796 65.303 127.787 65.017 127.787C64.731 127.778 64.4624 127.774 64.211 127.774C63.925 127.774 63.6824 127.796 63.483 127.839C63.2837 127.882 63.119 127.969 62.989 128.099C62.859 128.22 62.7507 128.407 62.664 128.658C62.5774 128.909 62.5037 129.247 62.443 129.672C62.365 130.209 62.3217 130.621 62.313 130.907C62.313 131.184 62.365 131.375 62.469 131.479C62.573 131.583 62.7377 131.631 62.963 131.622C63.197 131.613 63.4397 131.535 63.691 131.388C63.951 131.241 64.2067 131.041 64.458 130.79C64.7094 130.53 64.952 130.24 65.186 129.919L65.524 130.543C65.3507 131.054 65.1037 131.505 64.783 131.895C64.471 132.276 64.1027 132.575 63.678 132.792C63.2534 133.009 62.781 133.13 62.261 133.156C61.6977 133.182 61.2644 133.069 60.961 132.818C60.6664 132.567 60.4844 132.177 60.415 131.648C60.3457 131.119 60.3717 130.456 60.493 129.659C60.6057 128.922 60.7617 128.337 60.961 127.904C61.169 127.462 61.429 127.137 61.741 126.929C62.053 126.712 62.4127 126.574 62.82 126.513C63.236 126.444 63.6997 126.409 64.211 126.409ZM65.381 126.656L67.279 126.773L66.408 133H64.913L64.939 131.544L64.705 131.388L65.381 126.656ZM71.6701 126.409C72.0774 126.409 72.5107 126.444 72.9701 126.513C73.4294 126.574 73.8324 126.678 74.1791 126.825L73.9061 128.008C73.5247 127.991 73.1607 127.982 72.8141 127.982C72.4674 127.973 72.1727 127.969 71.9301 127.969C71.5487 127.969 71.2367 128.021 70.9941 128.125C70.7514 128.229 70.5651 128.415 70.4351 128.684C70.3051 128.944 70.2097 129.312 70.1491 129.789C70.0797 130.292 70.0711 130.673 70.1231 130.933C70.1751 131.193 70.3007 131.371 70.5001 131.466C70.7081 131.561 70.9984 131.609 71.3711 131.609C71.5271 131.609 71.7134 131.605 71.9301 131.596C72.1554 131.587 72.3981 131.579 72.6581 131.57C72.9181 131.553 73.1694 131.527 73.4121 131.492L73.5421 132.74C73.1694 132.887 72.7577 132.991 72.3071 133.052C71.8651 133.121 71.4404 133.156 71.0331 133.156C70.2791 133.156 69.6681 133.043 69.2001 132.818C68.7321 132.584 68.4071 132.216 68.2251 131.713C68.0517 131.202 68.0214 130.534 68.1341 129.711C68.2554 128.914 68.4417 128.277 68.6931 127.8C68.9531 127.315 69.3214 126.964 69.7981 126.747C70.2834 126.522 70.9074 126.409 71.6701 126.409ZM77.777 123.9L77.244 127.865C77.2007 128.142 77.1357 128.411 77.049 128.671C76.971 128.931 76.867 129.2 76.737 129.477C76.7544 129.676 76.776 129.902 76.802 130.153C76.828 130.396 76.8367 130.612 76.828 130.803L76.503 133H74.579L75.853 123.9H77.777ZM81.495 126.578C81.3044 127.254 81.027 127.83 80.663 128.307C80.3077 128.775 79.896 129.169 79.428 129.49C78.96 129.811 78.4704 130.084 77.959 130.309C77.4477 130.526 76.958 130.716 76.49 130.881L76.321 129.607C76.8064 129.416 77.27 129.169 77.712 128.866C78.1627 128.563 78.544 128.216 78.856 127.826C79.1767 127.436 79.3977 127.02 79.519 126.578H81.495ZM78.986 129.347C79.2027 129.477 79.3804 129.633 79.519 129.815C79.6577 129.997 79.7704 130.188 79.857 130.387L81.079 133H79.077L77.673 129.828L78.986 129.347ZM85.2056 126.409C85.5263 126.409 85.8686 126.422 86.2326 126.448C86.5966 126.474 86.9476 126.504 87.2856 126.539C87.6323 126.574 87.9313 126.613 88.1826 126.656L88.0006 127.852C87.5846 127.843 87.1686 127.839 86.7526 127.839C86.3453 127.83 85.9293 127.822 85.5046 127.813C85.1753 127.813 84.911 127.822 84.7116 127.839C84.521 127.848 84.3823 127.882 84.2956 127.943C84.209 127.995 84.157 128.082 84.1396 128.203C84.1223 128.359 84.1656 128.48 84.2696 128.567C84.3823 128.654 84.573 128.745 84.8416 128.84L86.4406 129.412C86.7786 129.533 87.056 129.676 87.2726 129.841C87.4893 130.006 87.641 130.209 87.7276 130.452C87.823 130.695 87.849 130.989 87.8056 131.336C87.745 131.856 87.5803 132.246 87.3116 132.506C87.0516 132.757 86.7006 132.926 86.2586 133.013C85.8253 133.1 85.2966 133.143 84.6726 133.143C84.3346 133.143 84.0183 133.134 83.7236 133.117C83.4376 133.108 83.1386 133.082 82.8266 133.039C82.5233 133.004 82.181 132.961 81.7996 132.909L81.9686 131.713C82.1333 131.722 82.3326 131.73 82.5666 131.739C82.8093 131.739 83.0606 131.743 83.3206 131.752C83.5893 131.752 83.8406 131.752 84.0746 131.752C84.5686 131.743 84.9456 131.726 85.2056 131.7C85.4656 131.674 85.6476 131.631 85.7516 131.57C85.8643 131.501 85.9336 131.401 85.9596 131.271C85.977 131.158 85.9596 131.072 85.9076 131.011C85.8643 130.95 85.782 130.894 85.6606 130.842C85.548 130.79 85.392 130.729 85.1926 130.66L83.6326 130.075C83.2773 129.945 82.9913 129.789 82.7746 129.607C82.5666 129.425 82.4236 129.204 82.3456 128.944C82.2763 128.684 82.2633 128.389 82.3066 128.06C82.3586 127.661 82.4886 127.345 82.6966 127.111C82.9046 126.868 83.2123 126.691 83.6196 126.578C84.027 126.465 84.5556 126.409 85.2056 126.409Z" fill="white"/>
</g>
<defs>
<clipPath id="clip0_113_2139">
<rect width="112" height="160" rx="6" fill="white"/>
</clipPath>
</defs>
</svg>
