<svg width="112" height="160" viewBox="0 0 112 160" fill="none" xmlns="http://www.w3.org/2000/svg">
<g clip-path="url(#clip0_113_1675)">
<path d="M1 7C1 3.6863 3.68629 1 7 1H105C108.314 1 111 3.68629 111 7V152C111 155.314 108.314 158 105 158H7C3.68629 158 1 155.314 1 152V7Z" fill="#393B4E"/>
<path fill-rule="evenodd" clip-rule="evenodd" d="M7 0C3.13401 0 0 3.13401 0 7V153C0 156.866 3.13401 160 7 160H105C108.866 160 112 156.866 112 153V7C112 3.13401 108.866 0 105 0H7ZM7 1C3.68629 1 1 3.68629 1 7C1 7 1 7 1 7V152C1 152.165 1.00666 152.328 1.01973 152.49C1.2691 155.575 3.85131 158 7 158H105C108.149 158 110.731 155.575 110.98 152.49C110.993 152.328 111 152.165 111 152V7C111 3.68629 108.314 1 105 1H7Z" fill="black" fill-opacity="0.3"/>
<path d="M32 40C32 38.8954 32.8954 38 34 38H78C79.1046 38 80 38.8954 80 40V101.614C80 102.448 79.4858 103.186 78.6845 103.416C75.8156 104.24 68.2541 106 56 106C43.7459 106 36.1844 104.24 33.3155 103.416C32.5142 103.186 32 102.448 32 101.614V40Z" fill="#F3BE54"/>
<path d="M32.9014 104.858L33.3155 103.416L32.9014 104.858C35.8995 105.719 43.6003 107.5 56 107.5C68.3997 107.5 76.1005 105.719 79.0986 104.858L78.6845 103.416L79.0986 104.858C80.5937 104.429 81.5 103.062 81.5 101.614V40C81.5 38.067 79.933 36.5 78 36.5H34C32.067 36.5 30.5 38.067 30.5 40V101.614C30.5 103.062 31.4063 104.429 32.9014 104.858Z" stroke="white" stroke-opacity="0.3" stroke-width="3"/>
<path d="M33.1775 103.897L33.3155 103.416L33.1775 103.897C36.0895 104.733 43.6974 106.5 56 106.5C68.3026 106.5 75.9105 104.733 78.8225 103.897C79.8551 103.6 80.5 102.653 80.5 101.614V40C80.5 38.6193 79.3807 37.5 78 37.5H34C32.6193 37.5 31.5 38.6193 31.5 40V101.614C31.5 102.653 32.1449 103.6 33.1775 103.897Z" fill="#F3BE54" stroke="#333333"/>
<path d="M41.5 77C41.2239 77 41 77.2239 41 77.5V81H37.5C37.2239 81 37 81.2239 37 81.5V84.5C37 84.7761 37.2239 85 37.5 85H41V88.5C41 88.7761 41.2239 89 41.5 89H44.5C44.7761 89 45 88.7761 45 88.5V85H48.5C48.7761 85 49 84.7761 49 84.5V81.5C49 81.2239 48.7761 81 48.5 81H45V77.5C45 77.2239 44.7761 77 44.5 77H41.5Z" fill="#333333"/>
<path d="M35 42C35 41.4477 35.4477 41 36 41H76C76.5523 41 77 41.4477 77 42V69.3977C77 70.236 76.4776 70.9742 75.6649 71.1798C73.1629 71.8126 67.0026 73 56 73C44.9974 73 38.8371 71.8126 36.3351 71.1798C35.5224 70.9742 35 70.236 35 69.3977V42Z" fill="#333333"/>
<rect x="43" y="43" width="26" height="26" rx="1" fill="#828282"/>
<rect x="43.5" y="43.5" width="25" height="25" rx="0.5" stroke="black" stroke-opacity="0.3"/>
<circle cx="65" cy="85" r="3" fill="#333333"/>
<circle cx="73" cy="81" r="3" fill="#333333"/>
<rect x="50" y="93" width="5" height="2" rx="1" fill="#333333"/>
<rect x="57" y="93" width="5" height="2" rx="1" fill="#333333"/>
<circle cx="71.5" cy="95.5" r="0.5" fill="black" fill-opacity="0.4"/>
<circle cx="73.5" cy="95.5" r="0.5" fill="black" fill-opacity="0.4"/>
<circle cx="75.5" cy="95.5" r="0.5" fill="black" fill-opacity="0.4"/>
<circle cx="75.5" cy="97.5" r="0.5" fill="black" fill-opacity="0.4"/>
<circle cx="75.5" cy="99.5" r="0.5" fill="black" fill-opacity="0.4"/>
<circle cx="73.5" cy="101.5" r="0.5" fill="black" fill-opacity="0.4"/>
<circle cx="69.5" cy="97.5" r="0.5" fill="black" fill-opacity="0.4"/>
<circle cx="71.5" cy="97.5" r="0.5" fill="black" fill-opacity="0.4"/>
<circle cx="73.5" cy="97.5" r="0.5" fill="black" fill-opacity="0.4"/>
<circle cx="73.5" cy="99.5" r="0.5" fill="black" fill-opacity="0.4"/>
<circle cx="71.5" cy="99.5" r="0.5" fill="black" fill-opacity="0.4"/>
<circle cx="73.5" cy="93.5" r="0.5" fill="black" fill-opacity="0.4"/>
<circle cx="77.5" cy="97.5" r="0.5" fill="black" fill-opacity="0.4"/>
<path d="M49.1482 123.848C49.4776 123.848 49.7982 123.861 50.1102 123.887C50.4309 123.913 50.7429 123.952 51.0462 124.004C51.3582 124.047 51.6529 124.112 51.9302 124.199L51.6962 125.629C51.4016 125.612 51.1112 125.599 50.8252 125.59C50.5392 125.581 50.2576 125.577 49.9802 125.577C49.7029 125.568 49.4126 125.564 49.1092 125.564C48.7106 125.564 48.3726 125.612 48.0952 125.707C47.8179 125.794 47.5839 125.95 47.3932 126.175C47.2112 126.392 47.0596 126.699 46.9382 127.098C46.8169 127.488 46.7129 127.986 46.6262 128.593C46.5396 129.321 46.5092 129.897 46.5352 130.322C46.5699 130.738 46.6782 131.033 46.8602 131.206C47.0422 131.379 47.3196 131.466 47.6922 131.466C47.9869 131.466 48.2426 131.423 48.4592 131.336C48.6759 131.241 48.8752 131.119 49.0572 130.972C49.2479 130.816 49.4386 130.656 49.6292 130.491L49.9282 131.427C49.7722 131.618 49.5946 131.817 49.3952 132.025C49.1959 132.224 48.9706 132.415 48.7192 132.597C48.4679 132.77 48.1862 132.909 47.8742 133.013C47.5622 133.126 47.2156 133.182 46.8342 133.182C46.2276 133.182 45.7292 133.026 45.3392 132.714C44.9492 132.402 44.6849 131.899 44.5462 131.206C44.4076 130.513 44.4119 129.59 44.5592 128.437C44.6806 127.51 44.8582 126.747 45.0922 126.149C45.3349 125.551 45.6382 125.087 46.0022 124.758C46.3749 124.42 46.8212 124.186 47.3412 124.056C47.8612 123.917 48.4636 123.848 49.1482 123.848ZM51.7872 127.826L51.0462 133H49.6032L49.5382 131.609L49.4082 131.232L49.8762 127.826H51.7872ZM57.1622 123.926C57.9162 123.926 58.5186 124 58.9692 124.147C59.4286 124.286 59.7449 124.533 59.9182 124.888C60.1002 125.235 60.1479 125.72 60.0612 126.344C59.9746 126.968 59.7969 127.44 59.5282 127.761C59.2596 128.082 58.8306 128.268 58.2412 128.32L58.2282 128.385C58.9216 128.446 59.3809 128.688 59.6062 129.113C59.8316 129.538 59.8922 130.114 59.7882 130.842C59.7016 131.449 59.5369 131.917 59.2942 132.246C59.0516 132.575 58.7049 132.801 58.2542 132.922C57.8036 133.043 57.2229 133.104 56.5122 133.104C55.9142 133.104 55.3942 133.1 54.9522 133.091C54.5102 133.091 54.1072 133.082 53.7432 133.065C53.3792 133.048 53.0066 133.026 52.6252 133L52.9502 131.596C53.1669 131.605 53.5612 131.613 54.1332 131.622C54.7139 131.631 55.3856 131.635 56.1482 131.635C56.5296 131.635 56.8329 131.6 57.0582 131.531C57.2836 131.462 57.4526 131.332 57.5652 131.141C57.6866 130.942 57.7689 130.664 57.8122 130.309C57.8642 129.954 57.8642 129.685 57.8122 129.503C57.7602 129.321 57.6389 129.195 57.4482 129.126C57.2662 129.048 56.9976 129.005 56.6422 128.996H53.3662L53.5482 127.709H56.6942C57.0236 127.7 57.2836 127.666 57.4742 127.605C57.6736 127.536 57.8252 127.41 57.9292 127.228C58.0419 127.046 58.1199 126.79 58.1632 126.461C58.2066 126.175 58.1979 125.954 58.1372 125.798C58.0852 125.642 57.9726 125.538 57.7992 125.486C57.6346 125.425 57.4006 125.395 57.0972 125.395C56.5946 125.395 56.1526 125.395 55.7712 125.395C55.3899 125.395 55.0519 125.395 54.7572 125.395C54.4712 125.395 54.2026 125.404 53.9512 125.421L53.8862 124.03C54.2242 123.995 54.5536 123.974 54.8742 123.965C55.1949 123.948 55.5372 123.939 55.9012 123.939C56.2739 123.93 56.6942 123.926 57.1622 123.926ZM55.8232 124.03L54.5622 133H52.6252L53.8862 124.03H55.8232ZM65.5823 123.874C66.0069 123.874 66.3709 123.887 66.6743 123.913C66.9776 123.93 67.2549 123.965 67.5063 124.017C67.7663 124.06 68.0263 124.121 68.2863 124.199L68.0263 125.642C67.7489 125.625 67.4846 125.612 67.2333 125.603C66.9906 125.594 66.7349 125.59 66.4663 125.59C66.1976 125.581 65.8769 125.577 65.5043 125.577C65.1663 125.577 64.8803 125.62 64.6463 125.707C64.4123 125.785 64.2086 125.932 64.0353 126.149C63.8706 126.357 63.7319 126.66 63.6193 127.059C63.5066 127.449 63.4113 127.96 63.3333 128.593C63.2293 129.338 63.1903 129.919 63.2163 130.335C63.2509 130.751 63.3723 131.041 63.5803 131.206C63.7969 131.371 64.1263 131.453 64.5683 131.453C65.1836 131.453 65.6906 131.444 66.0893 131.427C66.4966 131.401 66.8953 131.371 67.2853 131.336L67.3763 132.805C66.9429 132.926 66.5096 133.013 66.0763 133.065C65.6429 133.126 65.1186 133.156 64.5033 133.156C63.5759 133.156 62.8436 133 62.3063 132.688C61.7776 132.376 61.4309 131.878 61.2663 131.193C61.1016 130.5 61.0973 129.581 61.2533 128.437C61.3833 127.562 61.5523 126.829 61.7603 126.24C61.9683 125.651 62.2369 125.183 62.5663 124.836C62.8956 124.489 63.3073 124.242 63.8013 124.095C64.2953 123.948 64.8889 123.874 65.5823 123.874Z" fill="white"/>
</g>
<defs>
<clipPath id="clip0_113_1675">
<rect width="112" height="160" rx="6" fill="white"/>
</clipPath>
</defs>
</svg>
