<svg width="112" height="160" viewBox="0 0 112 160" fill="none" xmlns="http://www.w3.org/2000/svg">
<g clip-path="url(#clip0_113_1726)">
<path d="M1 7C1 3.6863 3.68629 1 7 1H105C108.314 1 111 3.68629 111 7V152C111 155.314 108.314 158 105 158H7C3.68629 158 1 155.314 1 152V7Z" fill="#393B4E"/>
<path fill-rule="evenodd" clip-rule="evenodd" d="M7 0C3.13401 0 0 3.13401 0 7V153C0 156.866 3.13401 160 7 160H105C108.866 160 112 156.866 112 153V7C112 3.13401 108.866 0 105 0H7ZM7 1C3.68629 1 1 3.68629 1 7C1 7 1 7 1 7V152C1 152.165 1.00666 152.328 1.01973 152.49C1.2691 155.575 3.85131 158 7 158H105C108.149 158 110.731 155.575 110.98 152.49C110.993 152.328 111 152.165 111 152V7C111 3.68629 108.314 1 105 1H7Z" fill="black" fill-opacity="0.3"/>
<path d="M32 40C32 38.8954 32.8954 38 34 38H78C79.1046 38 80 38.8954 80 40V101.614C80 102.448 79.4858 103.186 78.6845 103.416C75.8156 104.24 68.2541 106 56 106C43.7459 106 36.1844 104.24 33.3155 103.416C32.5142 103.186 32 102.448 32 101.614V40Z" fill="#78FF48"/>
<path d="M78 36.5H34C32.067 36.5 30.5 38.067 30.5 40V101.614C30.5 103.062 31.4063 104.429 32.9014 104.858C35.8995 105.719 43.6003 107.5 56 107.5C68.3997 107.5 76.1005 105.719 79.0986 104.858C80.5937 104.429 81.5 103.062 81.5 101.614V40C81.5 38.067 79.933 36.5 78 36.5Z" stroke="white" stroke-opacity="0.3" stroke-width="3"/>
<path d="M78 37.5H34C32.6193 37.5 31.5 38.6193 31.5 40V101.614C31.5 102.653 32.1449 103.6 33.1775 103.897C36.0895 104.733 43.6974 106.5 56 106.5C68.3026 106.5 75.9105 104.733 78.8225 103.897C79.8551 103.6 80.5 102.653 80.5 101.614V40C80.5 38.6193 79.3807 37.5 78 37.5Z" fill="#78FF48" stroke="#333333"/>
<path d="M41.5 76.5C40.9477 76.5 40.5 76.9477 40.5 77.5V80.5H37.5C36.9477 80.5 36.5 80.9477 36.5 81.5V84.5C36.5 85.0523 36.9477 85.5 37.5 85.5H40.5V88.5C40.5 89.0523 40.9477 89.5 41.5 89.5H44.5C45.0523 89.5 45.5 89.0523 45.5 88.5V85.5H48.5C49.0523 85.5 49.5 85.0523 49.5 84.5V81.5C49.5 80.9477 49.0523 80.5 48.5 80.5H45.5V77.5C45.5 76.9477 45.0523 76.5 44.5 76.5H41.5Z" fill="#144C00" stroke="#3EE702"/>
<path d="M35 42C35 41.4477 35.4477 41 36 41H76C76.5523 41 77 41.4477 77 42V69.3977C77 70.236 76.4776 70.9742 75.6649 71.1798C73.1629 71.8126 67.0026 73 56 73C44.9974 73 38.8371 71.8126 36.3351 71.1798C35.5224 70.9742 35 70.236 35 69.3977V42Z" fill="#144C00"/>
<rect x="43" y="43" width="26" height="26" rx="1" fill="#33C200"/>
<rect x="43.5" y="43.5" width="25" height="25" rx="0.5" stroke="black" stroke-opacity="0.3"/>
<circle cx="65" cy="85" r="3.5" fill="#144C00" stroke="#3EE702"/>
<circle cx="73" cy="81" r="3.5" fill="#144C00" stroke="#3EE702"/>
<rect x="49.5" y="92.5" width="6" height="3" rx="1.5" fill="#144C00" stroke="#3EE702"/>
<rect x="56.5" y="92.5" width="6" height="3" rx="1.5" fill="#144C00" stroke="#3EE702"/>
<circle cx="71.5" cy="95.5" r="0.5" fill="#2EAE00"/>
<circle cx="73.5" cy="95.5" r="0.5" fill="#2EAE00"/>
<circle cx="75.5" cy="95.5" r="0.5" fill="#2EAE00"/>
<circle cx="75.5" cy="97.5" r="0.5" fill="#2EAE00"/>
<circle cx="75.5" cy="99.5" r="0.5" fill="#2EAE00"/>
<circle cx="73.5" cy="101.5" r="0.5" fill="#2EAE00"/>
<circle cx="69.5" cy="97.5" r="0.5" fill="#2EAE00"/>
<circle cx="71.5" cy="97.5" r="0.5" fill="#2EAE00"/>
<circle cx="73.5" cy="97.5" r="0.5" fill="#2EAE00"/>
<circle cx="73.5" cy="99.5" r="0.5" fill="#2EAE00"/>
<circle cx="71.5" cy="99.5" r="0.5" fill="#2EAE00"/>
<circle cx="73.5" cy="93.5" r="0.5" fill="#2EAE00"/>
<circle cx="77.5" cy="97.5" r="0.5" fill="#2EAE00"/>
<path d="M29.0198 123.848C29.3492 123.848 29.6698 123.861 29.9818 123.887C30.3025 123.913 30.6145 123.952 30.9178 124.004C31.2298 124.047 31.5245 124.112 31.8018 124.199L31.5678 125.629C31.2732 125.612 30.9828 125.599 30.6968 125.59C30.4108 125.581 30.1292 125.577 29.8518 125.577C29.5745 125.568 29.2842 125.564 28.9808 125.564C28.5822 125.564 28.2442 125.612 27.9668 125.707C27.6895 125.794 27.4555 125.95 27.2648 126.175C27.0828 126.392 26.9312 126.699 26.8098 127.098C26.6885 127.488 26.5845 127.986 26.4978 128.593C26.4112 129.321 26.3808 129.897 26.4068 130.322C26.4415 130.738 26.5498 131.033 26.7318 131.206C26.9138 131.379 27.1912 131.466 27.5638 131.466C27.8585 131.466 28.1142 131.423 28.3308 131.336C28.5475 131.241 28.7468 131.119 28.9288 130.972C29.1195 130.816 29.3102 130.656 29.5008 130.491L29.7998 131.427C29.6438 131.618 29.4662 131.817 29.2668 132.025C29.0675 132.224 28.8422 132.415 28.5908 132.597C28.3395 132.77 28.0578 132.909 27.7458 133.013C27.4338 133.126 27.0872 133.182 26.7058 133.182C26.0992 133.182 25.6008 133.026 25.2108 132.714C24.8208 132.402 24.5565 131.899 24.4178 131.206C24.2792 130.513 24.2835 129.59 24.4308 128.437C24.5522 127.51 24.7298 126.747 24.9638 126.149C25.2065 125.551 25.5098 125.087 25.8738 124.758C26.2465 124.42 26.6928 124.186 27.2128 124.056C27.7328 123.917 28.3352 123.848 29.0198 123.848ZM31.6588 127.826L30.9178 133H29.4748L29.4098 131.609L29.2798 131.232L29.7478 127.826H31.6588ZM37.0338 123.926C37.7878 123.926 38.3901 124 38.8408 124.147C39.3001 124.286 39.6165 124.533 39.7898 124.888C39.9718 125.235 40.0195 125.72 39.9328 126.344C39.8461 126.968 39.6685 127.44 39.3998 127.761C39.1311 128.082 38.7021 128.268 38.1128 128.32L38.0998 128.385C38.7931 128.446 39.2525 128.688 39.4778 129.113C39.7031 129.538 39.7638 130.114 39.6598 130.842C39.5731 131.449 39.4085 131.917 39.1658 132.246C38.9231 132.575 38.5765 132.801 38.1258 132.922C37.6751 133.043 37.0945 133.104 36.3838 133.104C35.7858 133.104 35.2658 133.1 34.8238 133.091C34.3818 133.091 33.9788 133.082 33.6148 133.065C33.2508 133.048 32.8781 133.026 32.4968 133L32.8218 131.596C33.0385 131.605 33.4328 131.613 34.0048 131.622C34.5855 131.631 35.2571 131.635 36.0198 131.635C36.4011 131.635 36.7045 131.6 36.9298 131.531C37.1551 131.462 37.3241 131.332 37.4368 131.141C37.5581 130.942 37.6405 130.664 37.6838 130.309C37.7358 129.954 37.7358 129.685 37.6838 129.503C37.6318 129.321 37.5105 129.195 37.3198 129.126C37.1378 129.048 36.8691 129.005 36.5138 128.996H33.2378L33.4198 127.709H36.5658C36.8951 127.7 37.1551 127.666 37.3458 127.605C37.5451 127.536 37.6968 127.41 37.8008 127.228C37.9135 127.046 37.9915 126.79 38.0348 126.461C38.0781 126.175 38.0695 125.954 38.0088 125.798C37.9568 125.642 37.8441 125.538 37.6708 125.486C37.5061 125.425 37.2721 125.395 36.9688 125.395C36.4661 125.395 36.0241 125.395 35.6428 125.395C35.2615 125.395 34.9235 125.395 34.6288 125.395C34.3428 125.395 34.0741 125.404 33.8228 125.421L33.7578 124.03C34.0958 123.995 34.4251 123.974 34.7458 123.965C35.0665 123.948 35.4088 123.939 35.7728 123.939C36.1455 123.93 36.5658 123.926 37.0338 123.926ZM35.6948 124.03L34.4338 133H32.4968L33.7578 124.03H35.6948ZM45.4539 123.874C45.8785 123.874 46.2425 123.887 46.5459 123.913C46.8492 123.93 47.1265 123.965 47.3779 124.017C47.6379 124.06 47.8979 124.121 48.1579 124.199L47.8979 125.642C47.6205 125.625 47.3562 125.612 47.1049 125.603C46.8622 125.594 46.6065 125.59 46.3379 125.59C46.0692 125.581 45.7485 125.577 45.3759 125.577C45.0379 125.577 44.7519 125.62 44.5179 125.707C44.2839 125.785 44.0802 125.932 43.9069 126.149C43.7422 126.357 43.6035 126.66 43.4909 127.059C43.3782 127.449 43.2829 127.96 43.2049 128.593C43.1009 129.338 43.0619 129.919 43.0879 130.335C43.1225 130.751 43.2439 131.041 43.4519 131.206C43.6685 131.371 43.9979 131.453 44.4399 131.453C45.0552 131.453 45.5622 131.444 45.9609 131.427C46.3682 131.401 46.7669 131.371 47.1569 131.336L47.2479 132.805C46.8145 132.926 46.3812 133.013 45.9479 133.065C45.5145 133.126 44.9902 133.156 44.3749 133.156C43.4475 133.156 42.7152 133 42.1779 132.688C41.6492 132.376 41.3025 131.878 41.1379 131.193C40.9732 130.5 40.9689 129.581 41.1249 128.437C41.2549 127.562 41.4239 126.829 41.6319 126.24C41.8399 125.651 42.1085 125.183 42.4379 124.836C42.7672 124.489 43.1789 124.242 43.6729 124.095C44.1669 123.948 44.7605 123.874 45.4539 123.874ZM54.46 124.03L53.199 133H51.197L52.458 124.03H54.46ZM57.242 127.475L57.034 128.983H53.654L53.862 127.475H57.242ZM59.569 124.03L58.308 133H56.332L57.593 124.03H59.569ZM63.9571 126.409C64.1825 126.409 64.4338 126.422 64.7111 126.448C64.9971 126.465 65.2831 126.491 65.5691 126.526C65.8638 126.561 66.1368 126.6 66.3881 126.643C66.6481 126.686 66.8605 126.73 67.0251 126.773L65.7121 127.813C65.3655 127.796 65.0491 127.787 64.7631 127.787C64.4771 127.778 64.2085 127.774 63.9571 127.774C63.6711 127.774 63.4285 127.796 63.2291 127.839C63.0298 127.882 62.8651 127.969 62.7351 128.099C62.6051 128.22 62.4968 128.407 62.4101 128.658C62.3235 128.909 62.2498 129.247 62.1891 129.672C62.1111 130.209 62.0678 130.621 62.0591 130.907C62.0591 131.184 62.1111 131.375 62.2151 131.479C62.3191 131.583 62.4838 131.631 62.7091 131.622C62.9431 131.613 63.1858 131.535 63.4371 131.388C63.6971 131.241 63.9528 131.041 64.2041 130.79C64.4555 130.53 64.6981 130.24 64.9321 129.919L65.2701 130.543C65.0968 131.054 64.8498 131.505 64.5291 131.895C64.2171 132.276 63.8488 132.575 63.4241 132.792C62.9995 133.009 62.5271 133.13 62.0071 133.156C61.4438 133.182 61.0105 133.069 60.7071 132.818C60.4125 132.567 60.2305 132.177 60.1611 131.648C60.0918 131.119 60.1178 130.456 60.2391 129.659C60.3518 128.922 60.5078 128.337 60.7071 127.904C60.9151 127.462 61.1751 127.137 61.4871 126.929C61.7991 126.712 62.1588 126.574 62.5661 126.513C62.9821 126.444 63.4458 126.409 63.9571 126.409ZM65.1271 126.656L67.0251 126.773L66.1541 133H64.6591L64.6851 131.544L64.4511 131.388L65.1271 126.656ZM71.4162 126.409C71.8235 126.409 72.2568 126.444 72.7162 126.513C73.1755 126.574 73.5785 126.678 73.9252 126.825L73.6522 128.008C73.2708 127.991 72.9068 127.982 72.5602 127.982C72.2135 127.973 71.9188 127.969 71.6762 127.969C71.2948 127.969 70.9828 128.021 70.7402 128.125C70.4975 128.229 70.3112 128.415 70.1812 128.684C70.0512 128.944 69.9558 129.312 69.8952 129.789C69.8258 130.292 69.8172 130.673 69.8692 130.933C69.9212 131.193 70.0468 131.371 70.2462 131.466C70.4542 131.561 70.7445 131.609 71.1172 131.609C71.2732 131.609 71.4595 131.605 71.6762 131.596C71.9015 131.587 72.1442 131.579 72.4042 131.57C72.6642 131.553 72.9155 131.527 73.1582 131.492L73.2882 132.74C72.9155 132.887 72.5038 132.991 72.0532 133.052C71.6112 133.121 71.1865 133.156 70.7792 133.156C70.0252 133.156 69.4142 133.043 68.9462 132.818C68.4782 132.584 68.1532 132.216 67.9712 131.713C67.7978 131.202 67.7675 130.534 67.8802 129.711C68.0015 128.914 68.1878 128.277 68.4392 127.8C68.6992 127.315 69.0675 126.964 69.5442 126.747C70.0295 126.522 70.6535 126.409 71.4162 126.409ZM77.5231 123.9L76.9901 127.865C76.9468 128.142 76.8818 128.411 76.7951 128.671C76.7171 128.931 76.6131 129.2 76.4831 129.477C76.5005 129.676 76.5221 129.902 76.5481 130.153C76.5741 130.396 76.5828 130.612 76.5741 130.803L76.2491 133H74.3251L75.5991 123.9H77.5231ZM81.2411 126.578C81.0505 127.254 80.7731 127.83 80.4091 128.307C80.0538 128.775 79.6421 129.169 79.1741 129.49C78.7061 129.811 78.2165 130.084 77.7051 130.309C77.1938 130.526 76.7041 130.716 76.2361 130.881L76.0671 129.607C76.5525 129.416 77.0161 129.169 77.4581 128.866C77.9088 128.563 78.2901 128.216 78.6021 127.826C78.9228 127.436 79.1438 127.02 79.2651 126.578H81.2411ZM78.7321 129.347C78.9488 129.477 79.1265 129.633 79.2651 129.815C79.4038 129.997 79.5165 130.188 79.6031 130.387L80.8251 133H78.8231L77.4191 129.828L78.7321 129.347ZM84.9517 126.409C85.2724 126.409 85.6147 126.422 85.9787 126.448C86.3427 126.474 86.6937 126.504 87.0317 126.539C87.3784 126.574 87.6774 126.613 87.9287 126.656L87.7467 127.852C87.3307 127.843 86.9147 127.839 86.4987 127.839C86.0914 127.83 85.6754 127.822 85.2507 127.813C84.9214 127.813 84.657 127.822 84.4577 127.839C84.267 127.848 84.1284 127.882 84.0417 127.943C83.955 127.995 83.903 128.082 83.8857 128.203C83.8684 128.359 83.9117 128.48 84.0157 128.567C84.1284 128.654 84.319 128.745 84.5877 128.84L86.1867 129.412C86.5247 129.533 86.802 129.676 87.0187 129.841C87.2354 130.006 87.387 130.209 87.4737 130.452C87.569 130.695 87.595 130.989 87.5517 131.336C87.491 131.856 87.3264 132.246 87.0577 132.506C86.7977 132.757 86.4467 132.926 86.0047 133.013C85.5714 133.1 85.0427 133.143 84.4187 133.143C84.0807 133.143 83.7644 133.134 83.4697 133.117C83.1837 133.108 82.8847 133.082 82.5727 133.039C82.2694 133.004 81.927 132.961 81.5457 132.909L81.7147 131.713C81.8794 131.722 82.0787 131.73 82.3127 131.739C82.5554 131.739 82.8067 131.743 83.0667 131.752C83.3354 131.752 83.5867 131.752 83.8207 131.752C84.3147 131.743 84.6917 131.726 84.9517 131.7C85.2117 131.674 85.3937 131.631 85.4977 131.57C85.6104 131.501 85.6797 131.401 85.7057 131.271C85.723 131.158 85.7057 131.072 85.6537 131.011C85.6104 130.95 85.528 130.894 85.4067 130.842C85.294 130.79 85.138 130.729 84.9387 130.66L83.3787 130.075C83.0234 129.945 82.7374 129.789 82.5207 129.607C82.3127 129.425 82.1697 129.204 82.0917 128.944C82.0224 128.684 82.0094 128.389 82.0527 128.06C82.1047 127.661 82.2347 127.345 82.4427 127.111C82.6507 126.868 82.9584 126.691 83.3657 126.578C83.773 126.465 84.3017 126.409 84.9517 126.409Z" fill="white"/>
</g>
<defs>
<clipPath id="clip0_113_1726">
<rect width="112" height="160" rx="6" fill="white"/>
</clipPath>
</defs>
</svg>
