<svg width="112" height="160" viewBox="0 0 112 160" fill="none" xmlns="http://www.w3.org/2000/svg">
<g clip-path="url(#clip0_113_1629)">
<path d="M1 7C1 3.6863 3.68629 1 7 1H105C108.314 1 111 3.68629 111 7V152C111 155.314 108.314 158 105 158H7C3.68629 158 1 155.314 1 152V7Z" fill="#393B4E"/>
<path fill-rule="evenodd" clip-rule="evenodd" d="M7 0C3.13401 0 0 3.13401 0 7V153C0 156.866 3.13401 160 7 160H105C108.866 160 112 156.866 112 153V7C112 3.13401 108.866 0 105 0H7ZM7 1C3.68629 1 1 3.68629 1 7C1 7 1 7 1 7V152C1 152.165 1.00666 152.328 1.01973 152.49C1.2691 155.575 3.85131 158 7 158H105C108.149 158 110.731 155.575 110.98 152.49C110.993 152.328 111 152.165 111 152V7C111 3.68629 108.314 1 105 1H7Z" fill="black" fill-opacity="0.3"/>
<path d="M32 40C32 38.8954 32.8954 38 34 38H78C79.1046 38 80 38.8954 80 40V98C80 102.418 76.4183 106 72 106H34C32.8954 106 32 105.105 32 104V40Z" fill="#E0E0E0"/>
<path d="M78 36.5H34C32.067 36.5 30.5 38.067 30.5 40V104C30.5 105.933 32.067 107.5 34 107.5H72C77.2467 107.5 81.5 103.247 81.5 98V40C81.5 38.067 79.933 36.5 78 36.5Z" stroke="white" stroke-opacity="0.3" stroke-width="3"/>
<path d="M78 37.5H34C32.6193 37.5 31.5 38.6193 31.5 40V104C31.5 105.381 32.6193 106.5 34 106.5H72C76.6944 106.5 80.5 102.694 80.5 98V40C80.5 38.6193 79.3807 37.5 78 37.5Z" fill="#BAFFA1" stroke="#333333"/>
<path d="M41.5 76.5C40.9477 76.5 40.5 76.9477 40.5 77.5V80.5H37.5C36.9477 80.5 36.5 80.9477 36.5 81.5V84.5C36.5 85.0523 36.9477 85.5 37.5 85.5H40.5V88.5C40.5 89.0523 40.9477 89.5 41.5 89.5H44.5C45.0523 89.5 45.5 89.0523 45.5 88.5V85.5H48.5C49.0523 85.5 49.5 85.0523 49.5 84.5V81.5C49.5 80.9477 49.0523 80.5 48.5 80.5H45.5V77.5C45.5 76.9477 45.0523 76.5 44.5 76.5H41.5Z" fill="#144C00" stroke="#56FF1A"/>
<path d="M35 43C35 42.4477 35.4477 42 36 42H76C76.5523 42 77 42.4477 77 43V67C77 69.7614 74.7614 72 72 72H36C35.4477 72 35 71.5523 35 71V43Z" fill="#6CFF38"/>
<rect x="43" y="44" width="26" height="26" rx="1" fill="#2FB400"/>
<rect x="43.5" y="44.5" width="25" height="25" rx="0.5" stroke="black" stroke-opacity="0.3"/>
<circle cx="65" cy="85" r="3.5" fill="#258D00" stroke="#56FF1A"/>
<circle cx="73" cy="81" r="3.5" fill="#258D00" stroke="#56FF1A"/>
<path d="M52.334 93.851L50.0358 95.7793C49.4012 96.3118 49.3185 97.258 49.851 97.8926C50.3835 98.5272 51.3296 98.61 51.9642 98.0775L54.2623 96.1491C54.8969 95.6166 54.9797 94.6705 54.4472 94.0358C53.9147 93.4012 52.9686 93.3185 52.334 93.851ZM60.3341 93.851L58.036 95.7793C57.4014 96.3118 57.3186 97.258 57.8511 97.8926C58.3836 98.5272 59.3297 98.61 59.9643 98.0775L62.2625 96.1491C62.8971 95.6166 62.9798 94.6705 62.4473 94.0358C61.9148 93.4012 60.9687 93.3185 60.3341 93.851Z" fill="#1F7600" stroke="#56FF1A"/>
<path d="M67 98L71 102M69 96L73 100M71 94L75 98" stroke="#40E904" stroke-linecap="round" stroke-linejoin="round"/>
<path d="M32.8221 123.848C33.1514 123.848 33.4721 123.861 33.7841 123.887C34.1047 123.913 34.4167 123.952 34.7201 124.004C35.0321 124.047 35.3267 124.112 35.6041 124.199L35.3701 125.629C35.0754 125.612 34.7851 125.599 34.4991 125.59C34.2131 125.581 33.9314 125.577 33.6541 125.577C33.3767 125.568 33.0864 125.564 32.7831 125.564C32.3844 125.564 32.0464 125.612 31.7691 125.707C31.4917 125.794 31.2577 125.95 31.0671 126.175C30.8851 126.392 30.7334 126.699 30.6121 127.098C30.4907 127.488 30.3867 127.986 30.3001 128.593C30.2134 129.321 30.1831 129.897 30.2091 130.322C30.2437 130.738 30.3521 131.033 30.5341 131.206C30.7161 131.379 30.9934 131.466 31.3661 131.466C31.6607 131.466 31.9164 131.423 32.1331 131.336C32.3497 131.241 32.5491 131.119 32.7311 130.972C32.9217 130.816 33.1124 130.656 33.3031 130.491L33.6021 131.427C33.4461 131.618 33.2684 131.817 33.0691 132.025C32.8697 132.224 32.6444 132.415 32.3931 132.597C32.1417 132.77 31.8601 132.909 31.5481 133.013C31.2361 133.126 30.8894 133.182 30.5081 133.182C29.9014 133.182 29.4031 133.026 29.0131 132.714C28.6231 132.402 28.3587 131.899 28.2201 131.206C28.0814 130.513 28.0857 129.59 28.2331 128.437C28.3544 127.51 28.5321 126.747 28.7661 126.149C29.0087 125.551 29.3121 125.087 29.6761 124.758C30.0487 124.42 30.4951 124.186 31.0151 124.056C31.5351 123.917 32.1374 123.848 32.8221 123.848ZM35.4611 127.826L34.7201 133H33.2771L33.2121 131.609L33.0821 131.232L33.5501 127.826H35.4611ZM40.8361 123.926C41.5901 123.926 42.1924 124 42.6431 124.147C43.1024 124.286 43.4187 124.533 43.5921 124.888C43.7741 125.235 43.8217 125.72 43.7351 126.344C43.6484 126.968 43.4707 127.44 43.2021 127.761C42.9334 128.082 42.5044 128.268 41.9151 128.32L41.9021 128.385C42.5954 128.446 43.0547 128.688 43.2801 129.113C43.5054 129.538 43.5661 130.114 43.4621 130.842C43.3754 131.449 43.2107 131.917 42.9681 132.246C42.7254 132.575 42.3787 132.801 41.9281 132.922C41.4774 133.043 40.8967 133.104 40.1861 133.104C39.5881 133.104 39.0681 133.1 38.6261 133.091C38.1841 133.091 37.7811 133.082 37.4171 133.065C37.0531 133.048 36.6804 133.026 36.2991 133L36.6241 131.596C36.8407 131.605 37.2351 131.613 37.8071 131.622C38.3877 131.631 39.0594 131.635 39.8221 131.635C40.2034 131.635 40.5067 131.6 40.7321 131.531C40.9574 131.462 41.1264 131.332 41.2391 131.141C41.3604 130.942 41.4427 130.664 41.4861 130.309C41.5381 129.954 41.5381 129.685 41.4861 129.503C41.4341 129.321 41.3127 129.195 41.1221 129.126C40.9401 129.048 40.6714 129.005 40.3161 128.996H37.0401L37.2221 127.709H40.3681C40.6974 127.7 40.9574 127.666 41.1481 127.605C41.3474 127.536 41.4991 127.41 41.6031 127.228C41.7157 127.046 41.7937 126.79 41.8371 126.461C41.8804 126.175 41.8717 125.954 41.8111 125.798C41.7591 125.642 41.6464 125.538 41.4731 125.486C41.3084 125.425 41.0744 125.395 40.7711 125.395C40.2684 125.395 39.8264 125.395 39.4451 125.395C39.0637 125.395 38.7257 125.395 38.4311 125.395C38.1451 125.395 37.8764 125.404 37.6251 125.421L37.5601 124.03C37.8981 123.995 38.2274 123.974 38.5481 123.965C38.8687 123.948 39.2111 123.939 39.5751 123.939C39.9477 123.93 40.3681 123.926 40.8361 123.926ZM39.4971 124.03L38.2361 133H36.2991L37.5601 124.03H39.4971ZM50.6578 124.03L49.3968 133H47.3948L48.6558 124.03H50.6578ZM53.4398 127.475L53.2318 128.983H49.8518L50.0598 127.475H53.4398ZM55.7668 124.03L54.5058 133H52.5298L53.7908 124.03H55.7668ZM60.1549 126.409C60.3802 126.409 60.6315 126.422 60.9089 126.448C61.1949 126.465 61.4809 126.491 61.7669 126.526C62.0615 126.561 62.3345 126.6 62.5859 126.643C62.8459 126.686 63.0582 126.73 63.2229 126.773L61.9099 127.813C61.5632 127.796 61.2469 127.787 60.9609 127.787C60.6749 127.778 60.4062 127.774 60.1549 127.774C59.8689 127.774 59.6262 127.796 59.4269 127.839C59.2275 127.882 59.0629 127.969 58.9329 128.099C58.8029 128.22 58.6945 128.407 58.6079 128.658C58.5212 128.909 58.4475 129.247 58.3869 129.672C58.3089 130.209 58.2655 130.621 58.2569 130.907C58.2569 131.184 58.3089 131.375 58.4129 131.479C58.5169 131.583 58.6815 131.631 58.9069 131.622C59.1409 131.613 59.3835 131.535 59.6349 131.388C59.8949 131.241 60.1505 131.041 60.4019 130.79C60.6532 130.53 60.8959 130.24 61.1299 129.919L61.4679 130.543C61.2945 131.054 61.0475 131.505 60.7269 131.895C60.4149 132.276 60.0465 132.575 59.6219 132.792C59.1972 133.009 58.7249 133.13 58.2049 133.156C57.6415 133.182 57.2082 133.069 56.9049 132.818C56.6102 132.567 56.4282 132.177 56.3589 131.648C56.2895 131.119 56.3155 130.456 56.4369 129.659C56.5495 128.922 56.7055 128.337 56.9049 127.904C57.1129 127.462 57.3729 127.137 57.6849 126.929C57.9969 126.712 58.3565 126.574 58.7639 126.513C59.1799 126.444 59.6435 126.409 60.1549 126.409ZM61.3249 126.656L63.2229 126.773L62.3519 133H60.8569L60.8829 131.544L60.6489 131.388L61.3249 126.656ZM67.6139 126.409C68.0213 126.409 68.4546 126.444 68.9139 126.513C69.3733 126.574 69.7763 126.678 70.1229 126.825L69.8499 128.008C69.4686 127.991 69.1046 127.982 68.7579 127.982C68.4113 127.973 68.1166 127.969 67.8739 127.969C67.4926 127.969 67.1806 128.021 66.9379 128.125C66.6953 128.229 66.5089 128.415 66.3789 128.684C66.2489 128.944 66.1536 129.312 66.0929 129.789C66.0236 130.292 66.0149 130.673 66.0669 130.933C66.1189 131.193 66.2446 131.371 66.4439 131.466C66.6519 131.561 66.9423 131.609 67.3149 131.609C67.4709 131.609 67.6573 131.605 67.8739 131.596C68.0993 131.587 68.3419 131.579 68.6019 131.57C68.8619 131.553 69.1133 131.527 69.3559 131.492L69.4859 132.74C69.1133 132.887 68.7016 132.991 68.2509 133.052C67.8089 133.121 67.3843 133.156 66.9769 133.156C66.2229 133.156 65.6119 133.043 65.1439 132.818C64.6759 132.584 64.3509 132.216 64.1689 131.713C63.9956 131.202 63.9653 130.534 64.0779 129.711C64.1993 128.914 64.3856 128.277 64.6369 127.8C64.8969 127.315 65.2653 126.964 65.7419 126.747C66.2273 126.522 66.8513 126.409 67.6139 126.409ZM73.7209 123.9L73.1879 127.865C73.1445 128.142 73.0795 128.411 72.9929 128.671C72.9149 128.931 72.8109 129.2 72.6809 129.477C72.6982 129.676 72.7199 129.902 72.7459 130.153C72.7719 130.396 72.7805 130.612 72.7719 130.803L72.4469 133H70.5229L71.7969 123.9H73.7209ZM77.4389 126.578C77.2482 127.254 76.9709 127.83 76.6069 128.307C76.2515 128.775 75.8399 129.169 75.3719 129.49C74.9039 129.811 74.4142 130.084 73.9029 130.309C73.3915 130.526 72.9019 130.716 72.4339 130.881L72.2649 129.607C72.7502 129.416 73.2139 129.169 73.6559 128.866C74.1065 128.563 74.4879 128.216 74.7999 127.826C75.1205 127.436 75.3415 127.02 75.4629 126.578H77.4389ZM74.9299 129.347C75.1465 129.477 75.3242 129.633 75.4629 129.815C75.6015 129.997 75.7142 130.188 75.8009 130.387L77.0229 133H75.0209L73.6169 129.828L74.9299 129.347ZM81.1495 126.409C81.4701 126.409 81.8125 126.422 82.1765 126.448C82.5405 126.474 82.8915 126.504 83.2295 126.539C83.5761 126.574 83.8751 126.613 84.1265 126.656L83.9445 127.852C83.5285 127.843 83.1125 127.839 82.6965 127.839C82.2891 127.83 81.8731 127.822 81.4485 127.813C81.1191 127.813 80.8548 127.822 80.6555 127.839C80.4648 127.848 80.3261 127.882 80.2395 127.943C80.1528 127.995 80.1008 128.082 80.0835 128.203C80.0661 128.359 80.1095 128.48 80.2135 128.567C80.3261 128.654 80.5168 128.745 80.7855 128.84L82.3845 129.412C82.7225 129.533 82.9998 129.676 83.2165 129.841C83.4331 130.006 83.5848 130.209 83.6715 130.452C83.7668 130.695 83.7928 130.989 83.7495 131.336C83.6888 131.856 83.5241 132.246 83.2555 132.506C82.9955 132.757 82.6445 132.926 82.2025 133.013C81.7691 133.1 81.2405 133.143 80.6165 133.143C80.2785 133.143 79.9621 133.134 79.6675 133.117C79.3815 133.108 79.0825 133.082 78.7705 133.039C78.4671 133.004 78.1248 132.961 77.7435 132.909L77.9125 131.713C78.0771 131.722 78.2765 131.73 78.5105 131.739C78.7531 131.739 79.0045 131.743 79.2645 131.752C79.5331 131.752 79.7845 131.752 80.0185 131.752C80.5125 131.743 80.8895 131.726 81.1495 131.7C81.4095 131.674 81.5915 131.631 81.6955 131.57C81.8081 131.501 81.8775 131.401 81.9035 131.271C81.9208 131.158 81.9035 131.072 81.8515 131.011C81.8081 130.95 81.7258 130.894 81.6045 130.842C81.4918 130.79 81.3358 130.729 81.1365 130.66L79.5765 130.075C79.2211 129.945 78.9351 129.789 78.7185 129.607C78.5105 129.425 78.3675 129.204 78.2895 128.944C78.2201 128.684 78.2071 128.389 78.2505 128.06C78.3025 127.661 78.4325 127.345 78.6405 127.111C78.8485 126.868 79.1561 126.691 79.5635 126.578C79.9708 126.465 80.4995 126.409 81.1495 126.409Z" fill="white"/>
</g>
<defs>
<clipPath id="clip0_113_1629">
<rect width="112" height="160" rx="6" fill="white"/>
</clipPath>
</defs>
</svg>
