<svg width="112" height="160" viewBox="0 0 112 160" fill="none" xmlns="http://www.w3.org/2000/svg">
<g clip-path="url(#clip0_117_192)">
<path d="M1 7C1 3.6863 3.68629 1 7 1H105C108.314 1 111 3.68629 111 7V152C111 155.314 108.314 158 105 158H7C3.68629 158 1 155.314 1 152V7Z" fill="#393B4E"/>
<path fill-rule="evenodd" clip-rule="evenodd" d="M7 0C3.13401 0 0 3.13401 0 7V153C0 156.866 3.13401 160 7 160H105C108.866 160 112 156.866 112 153V7C112 3.13401 108.866 0 105 0H7ZM7 1C3.68629 1 1 3.68629 1 7C1 7 1 7 1 7V152C1 152.165 1.00666 152.328 1.01973 152.49C1.2691 155.575 3.85131 158 7 158H105C108.149 158 110.731 155.575 110.98 152.49C110.993 152.328 111 152.165 111 152V7C111 3.68629 108.314 1 105 1H7Z" fill="black" fill-opacity="0.3"/>
<path d="M36 92C28.5 92 22 81 22 72C22 61.5 34 52 56 52C78 52 90 61.5 90 72C90 81 83.5 92 76 92C73.0941 92 71.8008 89.6751 70.4862 87.3121C69.539 85.6093 68.5807 83.8867 67 83C63.1166 80.8215 60.4527 80 56 80C51.5473 80 48.8834 80.8215 45 83C43.4193 83.8867 42.461 85.6093 41.5138 87.3121C40.1993 89.6751 38.9059 92 36 92Z" fill="#4F4F4F"/>
<path d="M20.5 72C20.5 76.8233 22.2283 82.1073 24.9363 86.2024C27.6094 90.2446 31.5045 93.5 36 93.5C37.9284 93.5 39.3493 92.7003 40.43 91.587C41.4204 90.5667 42.1544 89.2466 42.7779 88.1253L42.8246 88.0413C43.8261 86.241 44.5934 84.948 45.7339 84.3082C49.4249 82.2376 51.8385 81.5 56 81.5C60.1615 81.5 62.5751 82.2376 66.2661 84.3082C67.4066 84.948 68.1739 86.241 69.1754 88.0413L69.2221 88.1253C69.8456 89.2466 70.5796 90.5667 71.57 91.587C72.6507 92.7003 74.0716 93.5 76 93.5C80.4955 93.5 84.3906 90.2446 87.0637 86.2024C89.7717 82.1073 91.5 76.8233 91.5 72C91.5 66.1199 88.129 60.6921 82.0597 56.7998C76.0025 52.9153 67.1977 50.5 56 50.5C44.8023 50.5 35.9975 52.9153 29.9403 56.7998C23.871 60.6921 20.5 66.1199 20.5 72Z" stroke="white" stroke-opacity="0.3" stroke-width="3"/>
<path d="M21.5 72C21.5 76.6078 23.1594 81.7024 25.7704 85.6508C28.3698 89.5815 32.0015 92.5 36 92.5C37.6115 92.5 38.785 91.846 39.7124 90.8904C40.6095 89.9663 41.2884 88.7458 41.9323 87.5883L41.9507 87.5552C42.9161 85.8199 43.8107 84.2405 45.2446 83.4361C49.0639 81.2936 51.6444 80.5 56 80.5C60.3556 80.5 62.9361 81.2936 66.7554 83.4361C68.1893 84.2405 69.0839 85.8199 70.0493 87.5552L70.0677 87.5884C70.7116 88.7459 71.3905 89.9663 72.2876 90.8904C73.215 91.846 74.3885 92.5 76 92.5C79.9985 92.5 83.6302 89.5815 86.2296 85.6508C88.8406 81.7024 90.5 76.6078 90.5 72C90.5 66.54 87.3763 61.3974 81.5199 57.6416C75.6675 53.8884 67.0659 51.5 56 51.5C44.9341 51.5 36.3325 53.8884 30.4801 57.6416C24.6237 61.3974 21.5 66.54 21.5 72Z" fill="#4F4F4F" stroke="#333333"/>
<path d="M68 75C68 75 71.5272 72.3475 74 71C76.6115 69.5769 81 68 81 68" stroke="#828282" stroke-width="14" stroke-linecap="round" stroke-linejoin="round"/>
<path d="M68 75C68 75 71.5272 72.3475 74 71C76.6115 69.5769 81 68 81 68" stroke="#4F4F4F" stroke-width="10" stroke-linecap="round" stroke-linejoin="round"/>
<path d="M81 71.5C82.933 71.5 84.5 69.933 84.5 68C84.5 66.067 82.933 64.5 81 64.5C79.067 64.5 77.5 66.067 77.5 68C77.5 69.933 79.067 71.5 81 71.5ZM74 74.5C75.933 74.5 77.5 72.933 77.5 71C77.5 69.067 75.933 67.5 74 67.5C72.067 67.5 70.5 69.067 70.5 71C70.5 72.933 72.067 74.5 74 74.5ZM68 78.5C69.933 78.5 71.5 76.933 71.5 75C71.5 73.067 69.933 71.5 68 71.5C66.067 71.5 64.5 73.067 64.5 75C64.5 76.933 66.067 78.5 68 78.5Z" fill="#4F4F4F" stroke="#333333"/>
<circle cx="68" cy="75" r="3" fill="#BB6BD9"/>
<circle cx="74" cy="71" r="3" fill="#BB6BD9"/>
<circle cx="81" cy="68" r="3" fill="#BB6BD9"/>
<circle cx="37.5" cy="70.5" r="10.5" fill="#828282"/>
<circle opacity="0.5" cx="37.5" cy="70.5" r="8.5" fill="#4F4F4F"/>
<path d="M29 70L28 70.5L29 71V70Z" fill="#D1A0E3"/>
<path d="M37.5 61L37 62H38L37.5 61Z" fill="#D1A0E3"/>
<path d="M47 70.5L46 70V71L47 70.5Z" fill="#D1A0E3"/>
<path d="M37.5 80L37 79H38L37.5 80Z" fill="#D1A0E3"/>
<circle cx="37.5" cy="70.5" r="7" fill="#828282" stroke="#333333"/>
<path d="M38.5 64.5H36.5C35.9477 64.5 35.5 64.9477 35.5 65.5V68.5H32.5C31.9477 68.5 31.5 68.9477 31.5 69.5V71.5C31.5 72.0523 31.9477 72.5 32.5 72.5H35.5V75.5C35.5 76.0523 35.9477 76.5 36.5 76.5H38.5C39.0523 76.5 39.5 76.0523 39.5 75.5V72.5H42.5C43.0523 72.5 43.5 72.0523 43.5 71.5V69.5C43.5 68.9477 43.0523 68.5 42.5 68.5H39.5V65.5C39.5 64.9477 39.0523 64.5 38.5 64.5Z" fill="#828282" stroke="#333333"/>
<path d="M33.5 67L33 66L34 66.5L33.5 67Z" fill="#BDBDBD"/>
<path d="M41 66.5L42 66L41.5 67L41 66.5Z" fill="#BDBDBD"/>
<path d="M42 75L41.5 74L41 74.5L42 75Z" fill="#BDBDBD"/>
<path d="M33.5 74L33 75L34 74.5L33.5 74Z" fill="#BDBDBD"/>
<circle cx="37.5" cy="70.5" r="1.25" stroke="#4F4F4F" stroke-width="0.5"/>
<path fill-rule="evenodd" clip-rule="evenodd" d="M73.4285 60.1286C73.6336 60.6414 73.3842 61.2234 72.8714 61.4285L67.8714 63.4285C67.3586 63.6336 66.7767 63.3842 66.5715 62.8714C66.3664 62.3586 66.6158 61.7767 67.1286 61.5715L72.1286 59.5715C72.6414 59.3664 73.2234 59.6158 73.4285 60.1286Z" fill="#BDBDBD"/>
<path d="M73.0571 61.8927C73.8263 61.5851 74.2004 60.7121 73.8927 59.9429C73.5851 59.1738 72.7121 58.7996 71.9429 59.1073L66.9429 61.1073C66.1738 61.415 65.7996 62.2879 66.1073 63.0571C66.415 63.8263 67.2879 64.2004 68.0571 63.8927L73.0571 61.8927Z" stroke="black" stroke-opacity="0.3" stroke-linecap="round" stroke-linejoin="round"/>
<path d="M37.221 123.848C37.5503 123.848 37.871 123.861 38.183 123.887C38.5037 123.913 38.8157 123.952 39.119 124.004C39.431 124.047 39.7257 124.112 40.003 124.199L39.769 125.629C39.4743 125.612 39.184 125.599 38.898 125.59C38.612 125.581 38.3303 125.577 38.053 125.577C37.7757 125.568 37.4853 125.564 37.182 125.564C36.7833 125.564 36.4453 125.612 36.168 125.707C35.8907 125.794 35.6567 125.95 35.466 126.175C35.284 126.392 35.1323 126.699 35.011 127.098C34.8897 127.488 34.7857 127.986 34.699 128.593C34.6123 129.321 34.582 129.897 34.608 130.322C34.6427 130.738 34.751 131.033 34.933 131.206C35.115 131.379 35.3923 131.466 35.765 131.466C36.0597 131.466 36.3153 131.423 36.532 131.336C36.7487 131.241 36.948 131.119 37.13 130.972C37.3207 130.816 37.5113 130.656 37.702 130.491L38.001 131.427C37.845 131.618 37.6673 131.817 37.468 132.025C37.2687 132.224 37.0433 132.415 36.792 132.597C36.5407 132.77 36.259 132.909 35.947 133.013C35.635 133.126 35.2883 133.182 34.907 133.182C34.3003 133.182 33.802 133.026 33.412 132.714C33.022 132.402 32.7577 131.899 32.619 131.206C32.4803 130.513 32.4847 129.59 32.632 128.437C32.7533 127.51 32.931 126.747 33.165 126.149C33.4077 125.551 33.711 125.087 34.075 124.758C34.4477 124.42 34.894 124.186 35.414 124.056C35.934 123.917 36.5363 123.848 37.221 123.848ZM39.86 127.826L39.119 133H37.676L37.611 131.609L37.481 131.232L37.949 127.826H39.86ZM44.494 126.409C45.2827 126.409 45.8893 126.496 46.314 126.669C46.7473 126.834 47.0377 127.085 47.185 127.423C47.3323 127.752 47.367 128.16 47.289 128.645C47.2283 129.044 47.094 129.36 46.886 129.594C46.6867 129.819 46.4093 129.988 46.054 130.101C45.6987 130.214 45.248 130.292 44.702 130.335L41.426 130.608L41.569 129.542L44.325 129.269C44.559 129.243 44.7497 129.208 44.897 129.165C45.053 129.113 45.1743 129.035 45.261 128.931C45.3477 128.818 45.404 128.662 45.43 128.463C45.4647 128.255 45.4517 128.099 45.391 127.995C45.3303 127.891 45.222 127.826 45.066 127.8C44.91 127.765 44.702 127.752 44.442 127.761C44.1733 127.761 43.948 127.787 43.766 127.839C43.584 127.891 43.4323 127.986 43.311 128.125C43.1897 128.255 43.09 128.446 43.012 128.697C42.934 128.94 42.8603 129.256 42.791 129.646C42.7043 130.209 42.6913 130.634 42.752 130.92C42.8127 131.206 42.947 131.397 43.155 131.492C43.363 131.587 43.6533 131.635 44.026 131.635C44.234 131.635 44.4853 131.631 44.78 131.622C45.0747 131.605 45.3737 131.587 45.677 131.57C45.989 131.544 46.2707 131.518 46.522 131.492L46.652 132.688C46.392 132.801 46.0973 132.892 45.768 132.961C45.4387 133.03 45.105 133.078 44.767 133.104C44.429 133.139 44.1127 133.156 43.818 133.156C42.96 133.156 42.2927 133.026 41.816 132.766C41.348 132.506 41.036 132.12 40.88 131.609C40.724 131.089 40.6893 130.452 40.776 129.698C40.854 129.031 40.984 128.485 41.166 128.06C41.3567 127.635 41.5993 127.306 41.894 127.072C42.1973 126.829 42.5657 126.66 42.999 126.565C43.4323 126.461 43.9307 126.409 44.494 126.409ZM53.2619 126.409C53.6172 126.409 53.9249 126.478 54.1849 126.617C54.4449 126.747 54.6355 126.946 54.7569 127.215C54.8782 127.484 54.9129 127.822 54.8609 128.229L54.1849 133H52.2479L52.8459 128.814C52.8892 128.519 52.8719 128.316 52.7939 128.203C52.7245 128.082 52.5685 128.025 52.3259 128.034C52.0399 128.043 51.7365 128.134 51.4159 128.307C51.1039 128.48 50.7225 128.749 50.2719 129.113L50.0509 128.138C50.5622 127.592 51.0909 127.167 51.6369 126.864C52.1915 126.561 52.7332 126.409 53.2619 126.409ZM50.3239 126.578V128.268L50.4799 128.45L49.8429 133H47.9189L48.8159 126.578H50.3239ZM59.6141 126.409C60.4028 126.409 61.0094 126.496 61.4341 126.669C61.8674 126.834 62.1578 127.085 62.3051 127.423C62.4524 127.752 62.4871 128.16 62.4091 128.645C62.3484 129.044 62.2141 129.36 62.0061 129.594C61.8068 129.819 61.5294 129.988 61.1741 130.101C60.8188 130.214 60.3681 130.292 59.8221 130.335L56.5461 130.608L56.6891 129.542L59.4451 129.269C59.6791 129.243 59.8698 129.208 60.0171 129.165C60.1731 129.113 60.2944 129.035 60.3811 128.931C60.4678 128.818 60.5241 128.662 60.5501 128.463C60.5848 128.255 60.5718 128.099 60.5111 127.995C60.4504 127.891 60.3421 127.826 60.1861 127.8C60.0301 127.765 59.8221 127.752 59.5621 127.761C59.2934 127.761 59.0681 127.787 58.8861 127.839C58.7041 127.891 58.5524 127.986 58.4311 128.125C58.3098 128.255 58.2101 128.446 58.1321 128.697C58.0541 128.94 57.9804 129.256 57.9111 129.646C57.8244 130.209 57.8114 130.634 57.8721 130.92C57.9328 131.206 58.0671 131.397 58.2751 131.492C58.4831 131.587 58.7734 131.635 59.1461 131.635C59.3541 131.635 59.6054 131.631 59.9001 131.622C60.1948 131.605 60.4938 131.587 60.7971 131.57C61.1091 131.544 61.3908 131.518 61.6421 131.492L61.7721 132.688C61.5121 132.801 61.2174 132.892 60.8881 132.961C60.5588 133.03 60.2251 133.078 59.8871 133.104C59.5491 133.139 59.2328 133.156 58.9381 133.156C58.0801 133.156 57.4128 133.026 56.9361 132.766C56.4681 132.506 56.1561 132.12 56.0001 131.609C55.8441 131.089 55.8094 130.452 55.8961 129.698C55.9741 129.031 56.1041 128.485 56.2861 128.06C56.4768 127.635 56.7194 127.306 57.0141 127.072C57.3174 126.829 57.6858 126.66 58.1191 126.565C58.5524 126.461 59.0508 126.409 59.6141 126.409ZM66.315 126.409C66.6357 126.409 66.978 126.422 67.342 126.448C67.706 126.474 68.057 126.504 68.395 126.539C68.7417 126.574 69.0407 126.613 69.292 126.656L69.11 127.852C68.694 127.843 68.278 127.839 67.862 127.839C67.4547 127.83 67.0387 127.822 66.614 127.813C66.2847 127.813 66.0203 127.822 65.821 127.839C65.6303 127.848 65.4917 127.882 65.405 127.943C65.3183 127.995 65.2663 128.082 65.249 128.203C65.2317 128.359 65.275 128.48 65.379 128.567C65.4917 128.654 65.6823 128.745 65.951 128.84L67.55 129.412C67.888 129.533 68.1653 129.676 68.382 129.841C68.5987 130.006 68.7503 130.209 68.837 130.452C68.9323 130.695 68.9583 130.989 68.915 131.336C68.8543 131.856 68.6897 132.246 68.421 132.506C68.161 132.757 67.81 132.926 67.368 133.013C66.9347 133.1 66.406 133.143 65.782 133.143C65.444 133.143 65.1277 133.134 64.833 133.117C64.547 133.108 64.248 133.082 63.936 133.039C63.6327 133.004 63.2903 132.961 62.909 132.909L63.078 131.713C63.2427 131.722 63.442 131.73 63.676 131.739C63.9187 131.739 64.17 131.743 64.43 131.752C64.6987 131.752 64.95 131.752 65.184 131.752C65.678 131.743 66.055 131.726 66.315 131.7C66.575 131.674 66.757 131.631 66.861 131.57C66.9737 131.501 67.043 131.401 67.069 131.271C67.0863 131.158 67.069 131.072 67.017 131.011C66.9737 130.95 66.8913 130.894 66.77 130.842C66.6573 130.79 66.5013 130.729 66.302 130.66L64.742 130.075C64.3867 129.945 64.1007 129.789 63.884 129.607C63.676 129.425 63.533 129.204 63.455 128.944C63.3857 128.684 63.3727 128.389 63.416 128.06C63.468 127.661 63.598 127.345 63.806 127.111C64.014 126.868 64.3217 126.691 64.729 126.578C65.1363 126.465 65.665 126.409 66.315 126.409ZM72.7545 126.578L71.8575 133H69.9465L70.8435 126.578H72.7545ZM72.5595 123.744C72.7675 123.744 72.9148 123.796 73.0015 123.9C73.0968 124.004 73.1315 124.16 73.1055 124.368L73.0145 125.057C72.9625 125.421 72.7501 125.603 72.3775 125.603H71.5975C71.1815 125.603 70.9951 125.395 71.0385 124.979L71.1425 124.29C71.1771 123.926 71.3851 123.744 71.7665 123.744H72.5595ZM76.7505 126.409C77.0712 126.409 77.4135 126.422 77.7775 126.448C78.1415 126.474 78.4925 126.504 78.8305 126.539C79.1772 126.574 79.4762 126.613 79.7275 126.656L79.5455 127.852C79.1295 127.843 78.7135 127.839 78.2975 127.839C77.8902 127.83 77.4742 127.822 77.0495 127.813C76.7202 127.813 76.4559 127.822 76.2565 127.839C76.0659 127.848 75.9272 127.882 75.8405 127.943C75.7539 127.995 75.7019 128.082 75.6845 128.203C75.6672 128.359 75.7105 128.48 75.8145 128.567C75.9272 128.654 76.1179 128.745 76.3865 128.84L77.9855 129.412C78.3235 129.533 78.6009 129.676 78.8175 129.841C79.0342 130.006 79.1859 130.209 79.2725 130.452C79.3679 130.695 79.3939 130.989 79.3505 131.336C79.2899 131.856 79.1252 132.246 78.8565 132.506C78.5965 132.757 78.2455 132.926 77.8035 133.013C77.3702 133.1 76.8415 133.143 76.2175 133.143C75.8795 133.143 75.5632 133.134 75.2685 133.117C74.9825 133.108 74.6835 133.082 74.3715 133.039C74.0682 133.004 73.7259 132.961 73.3445 132.909L73.5135 131.713C73.6782 131.722 73.8775 131.73 74.1115 131.739C74.3542 131.739 74.6055 131.743 74.8655 131.752C75.1342 131.752 75.3855 131.752 75.6195 131.752C76.1135 131.743 76.4905 131.726 76.7505 131.7C77.0105 131.674 77.1925 131.631 77.2965 131.57C77.4092 131.501 77.4785 131.401 77.5045 131.271C77.5219 131.158 77.5045 131.072 77.4525 131.011C77.4092 130.95 77.3269 130.894 77.2055 130.842C77.0929 130.79 76.9369 130.729 76.7375 130.66L75.1775 130.075C74.8222 129.945 74.5362 129.789 74.3195 129.607C74.1115 129.425 73.9685 129.204 73.8905 128.944C73.8212 128.684 73.8082 128.389 73.8515 128.06C73.9035 127.661 74.0335 127.345 74.2415 127.111C74.4495 126.868 74.7572 126.691 75.1645 126.578C75.5719 126.465 76.1005 126.409 76.7505 126.409Z" fill="white"/>
</g>
<defs>
<clipPath id="clip0_117_192">
<rect width="112" height="160" rx="6" fill="white"/>
</clipPath>
</defs>
</svg>
