<svg width="112" height="160" viewBox="0 0 112 160" fill="none" xmlns="http://www.w3.org/2000/svg">
<g clip-path="url(#clip0_117_226)">
<path d="M1 7C1 3.6863 3.68629 1 7 1H105C108.314 1 111 3.68629 111 7V152C111 155.314 108.314 158 105 158H7C3.68629 158 1 155.314 1 152V7Z" fill="#393B4E"/>
<path fill-rule="evenodd" clip-rule="evenodd" d="M7 0C3.13401 0 0 3.13401 0 7V153C0 156.866 3.13401 160 7 160H105C108.866 160 112 156.866 112 153V7C112 3.13401 108.866 0 105 0H7ZM7 1C3.68629 1 1 3.68629 1 7C1 7 1 7 1 7V152C1 152.165 1.00666 152.328 1.01973 152.49C1.2691 155.575 3.85131 158 7 158H105C108.149 158 110.731 155.575 110.98 152.49C110.993 152.328 111 152.165 111 152V7C111 3.68629 108.314 1 105 1H7Z" fill="black" fill-opacity="0.3"/>
<path d="M36 92C28.5 92 22 81 22 72C22 61.5 34 52 56 52C78 52 90 61.5 90 72C90 81 83.5 92 76 92C73.0941 92 71.8008 89.6751 70.4862 87.3121C69.539 85.6093 68.5807 83.8867 67 83C63.1166 80.8215 60.4527 80 56 80C51.5473 80 48.8834 80.8215 45 83C43.4193 83.8867 42.461 85.6093 41.5138 87.3121C40.1993 89.6751 38.9059 92 36 92Z" fill="#4F4F4F"/>
<path d="M20.5 72C20.5 76.8233 22.2283 82.1073 24.9363 86.2024C27.6094 90.2446 31.5045 93.5 36 93.5C37.9284 93.5 39.3493 92.7003 40.43 91.587C41.4204 90.5667 42.1544 89.2466 42.7779 88.1253L42.8246 88.0413C43.8261 86.241 44.5934 84.948 45.7339 84.3082C49.4249 82.2376 51.8385 81.5 56 81.5C60.1615 81.5 62.5751 82.2376 66.2661 84.3082C67.4066 84.948 68.1739 86.241 69.1754 88.0413L69.2221 88.1253C69.8456 89.2466 70.5796 90.5667 71.57 91.587C72.6507 92.7003 74.0716 93.5 76 93.5C80.4955 93.5 84.3906 90.2446 87.0637 86.2024C89.7717 82.1073 91.5 76.8233 91.5 72C91.5 66.1199 88.129 60.6921 82.0597 56.7998C76.0025 52.9153 67.1977 50.5 56 50.5C44.8023 50.5 35.9975 52.9153 29.9403 56.7998C23.871 60.6921 20.5 66.1199 20.5 72Z" stroke="white" stroke-opacity="0.3" stroke-width="3"/>
<path d="M21.5 72C21.5 76.6078 23.1594 81.7024 25.7704 85.6508C28.3698 89.5815 32.0015 92.5 36 92.5C37.6115 92.5 38.785 91.846 39.7124 90.8904C40.6095 89.9663 41.2884 88.7458 41.9323 87.5883L41.9507 87.5552C42.9161 85.8199 43.8107 84.2405 45.2446 83.4361C49.0639 81.2936 51.6444 80.5 56 80.5C60.3556 80.5 62.9361 81.2936 66.7554 83.4361C68.1893 84.2405 69.0839 85.8199 70.0493 87.5552L70.0677 87.5884C70.7116 88.7459 71.3905 89.9663 72.2876 90.8904C73.215 91.846 74.3885 92.5 76 92.5C79.9985 92.5 83.6302 89.5815 86.2296 85.6508C88.8406 81.7024 90.5 76.6078 90.5 72C90.5 66.54 87.3763 61.3974 81.5199 57.6416C75.6675 53.8884 67.0659 51.5 56 51.5C44.9341 51.5 36.3325 53.8884 30.4801 57.6416C24.6237 61.3974 21.5 66.54 21.5 72Z" fill="#1F7600" stroke="#333333"/>
<path d="M68 75C68 75 71.5272 72.3475 74 71C76.6115 69.5769 81 68 81 68" stroke="#33C200" stroke-width="14" stroke-linecap="round" stroke-linejoin="round"/>
<path d="M68 75C68 75 71.5272 72.3475 74 71C76.6115 69.5769 81 68 81 68" stroke="#238500" stroke-width="10" stroke-linecap="round" stroke-linejoin="round"/>
<path d="M81 71.5C82.933 71.5 84.5 69.933 84.5 68C84.5 66.067 82.933 64.5 81 64.5C79.067 64.5 77.5 66.067 77.5 68C77.5 69.933 79.067 71.5 81 71.5ZM74 74.5C75.933 74.5 77.5 72.933 77.5 71C77.5 69.067 75.933 67.5 74 67.5C72.067 67.5 70.5 69.067 70.5 71C70.5 72.933 72.067 74.5 74 74.5ZM68 78.5C69.933 78.5 71.5 76.933 71.5 75C71.5 73.067 69.933 71.5 68 71.5C66.067 71.5 64.5 73.067 64.5 75C64.5 76.933 66.067 78.5 68 78.5Z" fill="#4F4F4F" stroke="#144C00"/>
<circle cx="68" cy="75" r="3" fill="#38D600"/>
<circle cx="74" cy="71" r="3" fill="#38D600"/>
<circle cx="81" cy="68" r="3" fill="#38D600"/>
<circle cx="37.5" cy="70.5" r="10.5" fill="#33C200"/>
<circle opacity="0.5" cx="37.5" cy="70.5" r="8.5" fill="#299C00"/>
<path d="M29 70L28 70.5L29 71V70Z" fill="#5DFF23"/>
<path d="M37.5 61L37 62H38L37.5 61Z" fill="#5DFF23"/>
<path d="M47 70.5L46 70V71L47 70.5Z" fill="#5DFF23"/>
<path d="M37.5 80L37 79H38L37.5 80Z" fill="#5DFF23"/>
<circle cx="37.5" cy="70.5" r="7" fill="#33C200" stroke="#144C00"/>
<path d="M38.5 64.5H36.5C35.9477 64.5 35.5 64.9477 35.5 65.5V68.5H32.5C31.9477 68.5 31.5 68.9477 31.5 69.5V71.5C31.5 72.0523 31.9477 72.5 32.5 72.5H35.5V75.5C35.5 76.0523 35.9477 76.5 36.5 76.5H38.5C39.0523 76.5 39.5 76.0523 39.5 75.5V72.5H42.5C43.0523 72.5 43.5 72.0523 43.5 71.5V69.5C43.5 68.9477 43.0523 68.5 42.5 68.5H39.5V65.5C39.5 64.9477 39.0523 64.5 38.5 64.5Z" stroke="#144C00"/>
<path d="M33.5 67L33 66L34 66.5L33.5 67Z" fill="#6CFF38"/>
<path d="M41 66.5L42 66L41.5 67L41 66.5Z" fill="#6CFF38"/>
<path d="M42 75L41.5 74L41 74.5L42 75Z" fill="#6CFF38"/>
<path d="M33.5 74L33 75L34 74.5L33.5 74Z" fill="#6CFF38"/>
<circle cx="37.5" cy="70.5" r="1.25" stroke="#1F7600" stroke-width="0.5"/>
<path d="M73.0571 61.8927C73.8263 61.5851 74.2004 60.7121 73.8927 59.9429C73.5851 59.1738 72.7121 58.7996 71.9429 59.1073L66.9429 61.1073C66.1738 61.415 65.7996 62.2879 66.1073 63.0571C66.415 63.8263 67.2879 64.2004 68.0571 63.8927L73.0571 61.8927Z" fill="#6CFF38" stroke="#165200" stroke-linecap="round" stroke-linejoin="round"/>
<path d="M37.221 117.848C37.5503 117.848 37.871 117.861 38.183 117.887C38.5037 117.913 38.8157 117.952 39.119 118.004C39.431 118.047 39.7257 118.112 40.003 118.199L39.769 119.629C39.4743 119.612 39.184 119.599 38.898 119.59C38.612 119.581 38.3303 119.577 38.053 119.577C37.7757 119.568 37.4853 119.564 37.182 119.564C36.7833 119.564 36.4453 119.612 36.168 119.707C35.8907 119.794 35.6567 119.95 35.466 120.175C35.284 120.392 35.1323 120.699 35.011 121.098C34.8897 121.488 34.7857 121.986 34.699 122.593C34.6123 123.321 34.582 123.897 34.608 124.322C34.6427 124.738 34.751 125.033 34.933 125.206C35.115 125.379 35.3923 125.466 35.765 125.466C36.0597 125.466 36.3153 125.423 36.532 125.336C36.7487 125.241 36.948 125.119 37.13 124.972C37.3207 124.816 37.5113 124.656 37.702 124.491L38.001 125.427C37.845 125.618 37.6673 125.817 37.468 126.025C37.2687 126.224 37.0433 126.415 36.792 126.597C36.5407 126.77 36.259 126.909 35.947 127.013C35.635 127.126 35.2883 127.182 34.907 127.182C34.3003 127.182 33.802 127.026 33.412 126.714C33.022 126.402 32.7577 125.899 32.619 125.206C32.4803 124.513 32.4847 123.59 32.632 122.437C32.7533 121.51 32.931 120.747 33.165 120.149C33.4077 119.551 33.711 119.087 34.075 118.758C34.4477 118.42 34.894 118.186 35.414 118.056C35.934 117.917 36.5363 117.848 37.221 117.848ZM39.86 121.826L39.119 127H37.676L37.611 125.609L37.481 125.232L37.949 121.826H39.86ZM44.494 120.409C45.2827 120.409 45.8893 120.496 46.314 120.669C46.7473 120.834 47.0377 121.085 47.185 121.423C47.3323 121.752 47.367 122.16 47.289 122.645C47.2283 123.044 47.094 123.36 46.886 123.594C46.6867 123.819 46.4093 123.988 46.054 124.101C45.6987 124.214 45.248 124.292 44.702 124.335L41.426 124.608L41.569 123.542L44.325 123.269C44.559 123.243 44.7497 123.208 44.897 123.165C45.053 123.113 45.1743 123.035 45.261 122.931C45.3477 122.818 45.404 122.662 45.43 122.463C45.4647 122.255 45.4517 122.099 45.391 121.995C45.3303 121.891 45.222 121.826 45.066 121.8C44.91 121.765 44.702 121.752 44.442 121.761C44.1733 121.761 43.948 121.787 43.766 121.839C43.584 121.891 43.4323 121.986 43.311 122.125C43.1897 122.255 43.09 122.446 43.012 122.697C42.934 122.94 42.8603 123.256 42.791 123.646C42.7043 124.209 42.6913 124.634 42.752 124.92C42.8127 125.206 42.947 125.397 43.155 125.492C43.363 125.587 43.6533 125.635 44.026 125.635C44.234 125.635 44.4853 125.631 44.78 125.622C45.0747 125.605 45.3737 125.587 45.677 125.57C45.989 125.544 46.2707 125.518 46.522 125.492L46.652 126.688C46.392 126.801 46.0973 126.892 45.768 126.961C45.4387 127.03 45.105 127.078 44.767 127.104C44.429 127.139 44.1127 127.156 43.818 127.156C42.96 127.156 42.2927 127.026 41.816 126.766C41.348 126.506 41.036 126.12 40.88 125.609C40.724 125.089 40.6893 124.452 40.776 123.698C40.854 123.031 40.984 122.485 41.166 122.06C41.3567 121.635 41.5993 121.306 41.894 121.072C42.1973 120.829 42.5657 120.66 42.999 120.565C43.4323 120.461 43.9307 120.409 44.494 120.409ZM53.2619 120.409C53.6172 120.409 53.9249 120.478 54.1849 120.617C54.4449 120.747 54.6355 120.946 54.7569 121.215C54.8782 121.484 54.9129 121.822 54.8609 122.229L54.1849 127H52.2479L52.8459 122.814C52.8892 122.519 52.8719 122.316 52.7939 122.203C52.7245 122.082 52.5685 122.025 52.3259 122.034C52.0399 122.043 51.7365 122.134 51.4159 122.307C51.1039 122.48 50.7225 122.749 50.2719 123.113L50.0509 122.138C50.5622 121.592 51.0909 121.167 51.6369 120.864C52.1915 120.561 52.7332 120.409 53.2619 120.409ZM50.3239 120.578V122.268L50.4799 122.45L49.8429 127H47.9189L48.8159 120.578H50.3239ZM59.6141 120.409C60.4028 120.409 61.0094 120.496 61.4341 120.669C61.8674 120.834 62.1578 121.085 62.3051 121.423C62.4524 121.752 62.4871 122.16 62.4091 122.645C62.3484 123.044 62.2141 123.36 62.0061 123.594C61.8068 123.819 61.5294 123.988 61.1741 124.101C60.8188 124.214 60.3681 124.292 59.8221 124.335L56.5461 124.608L56.6891 123.542L59.4451 123.269C59.6791 123.243 59.8698 123.208 60.0171 123.165C60.1731 123.113 60.2944 123.035 60.3811 122.931C60.4678 122.818 60.5241 122.662 60.5501 122.463C60.5848 122.255 60.5718 122.099 60.5111 121.995C60.4504 121.891 60.3421 121.826 60.1861 121.8C60.0301 121.765 59.8221 121.752 59.5621 121.761C59.2934 121.761 59.0681 121.787 58.8861 121.839C58.7041 121.891 58.5524 121.986 58.4311 122.125C58.3098 122.255 58.2101 122.446 58.1321 122.697C58.0541 122.94 57.9804 123.256 57.9111 123.646C57.8244 124.209 57.8114 124.634 57.8721 124.92C57.9328 125.206 58.0671 125.397 58.2751 125.492C58.4831 125.587 58.7734 125.635 59.1461 125.635C59.3541 125.635 59.6054 125.631 59.9001 125.622C60.1948 125.605 60.4938 125.587 60.7971 125.57C61.1091 125.544 61.3908 125.518 61.6421 125.492L61.7721 126.688C61.5121 126.801 61.2174 126.892 60.8881 126.961C60.5588 127.03 60.2251 127.078 59.8871 127.104C59.5491 127.139 59.2328 127.156 58.9381 127.156C58.0801 127.156 57.4128 127.026 56.9361 126.766C56.4681 126.506 56.1561 126.12 56.0001 125.609C55.8441 125.089 55.8094 124.452 55.8961 123.698C55.9741 123.031 56.1041 122.485 56.2861 122.06C56.4768 121.635 56.7194 121.306 57.0141 121.072C57.3174 120.829 57.6858 120.66 58.1191 120.565C58.5524 120.461 59.0508 120.409 59.6141 120.409ZM66.315 120.409C66.6357 120.409 66.978 120.422 67.342 120.448C67.706 120.474 68.057 120.504 68.395 120.539C68.7417 120.574 69.0407 120.613 69.292 120.656L69.11 121.852C68.694 121.843 68.278 121.839 67.862 121.839C67.4547 121.83 67.0387 121.822 66.614 121.813C66.2847 121.813 66.0203 121.822 65.821 121.839C65.6303 121.848 65.4917 121.882 65.405 121.943C65.3183 121.995 65.2663 122.082 65.249 122.203C65.2317 122.359 65.275 122.48 65.379 122.567C65.4917 122.654 65.6823 122.745 65.951 122.84L67.55 123.412C67.888 123.533 68.1653 123.676 68.382 123.841C68.5987 124.006 68.7503 124.209 68.837 124.452C68.9323 124.695 68.9583 124.989 68.915 125.336C68.8543 125.856 68.6897 126.246 68.421 126.506C68.161 126.757 67.81 126.926 67.368 127.013C66.9347 127.1 66.406 127.143 65.782 127.143C65.444 127.143 65.1277 127.134 64.833 127.117C64.547 127.108 64.248 127.082 63.936 127.039C63.6327 127.004 63.2903 126.961 62.909 126.909L63.078 125.713C63.2427 125.722 63.442 125.73 63.676 125.739C63.9187 125.739 64.17 125.743 64.43 125.752C64.6987 125.752 64.95 125.752 65.184 125.752C65.678 125.743 66.055 125.726 66.315 125.7C66.575 125.674 66.757 125.631 66.861 125.57C66.9737 125.501 67.043 125.401 67.069 125.271C67.0863 125.158 67.069 125.072 67.017 125.011C66.9737 124.95 66.8913 124.894 66.77 124.842C66.6573 124.79 66.5013 124.729 66.302 124.66L64.742 124.075C64.3867 123.945 64.1007 123.789 63.884 123.607C63.676 123.425 63.533 123.204 63.455 122.944C63.3857 122.684 63.3727 122.389 63.416 122.06C63.468 121.661 63.598 121.345 63.806 121.111C64.014 120.868 64.3217 120.691 64.729 120.578C65.1363 120.465 65.665 120.409 66.315 120.409ZM72.7545 120.578L71.8575 127H69.9465L70.8435 120.578H72.7545ZM72.5595 117.744C72.7675 117.744 72.9148 117.796 73.0015 117.9C73.0968 118.004 73.1315 118.16 73.1055 118.368L73.0145 119.057C72.9625 119.421 72.7501 119.603 72.3775 119.603H71.5975C71.1815 119.603 70.9951 119.395 71.0385 118.979L71.1425 118.29C71.1771 117.926 71.3851 117.744 71.7665 117.744H72.5595ZM76.7505 120.409C77.0712 120.409 77.4135 120.422 77.7775 120.448C78.1415 120.474 78.4925 120.504 78.8305 120.539C79.1772 120.574 79.4762 120.613 79.7275 120.656L79.5455 121.852C79.1295 121.843 78.7135 121.839 78.2975 121.839C77.8902 121.83 77.4742 121.822 77.0495 121.813C76.7202 121.813 76.4559 121.822 76.2565 121.839C76.0659 121.848 75.9272 121.882 75.8405 121.943C75.7539 121.995 75.7019 122.082 75.6845 122.203C75.6672 122.359 75.7105 122.48 75.8145 122.567C75.9272 122.654 76.1179 122.745 76.3865 122.84L77.9855 123.412C78.3235 123.533 78.6009 123.676 78.8175 123.841C79.0342 124.006 79.1859 124.209 79.2725 124.452C79.3679 124.695 79.3939 124.989 79.3505 125.336C79.2899 125.856 79.1252 126.246 78.8565 126.506C78.5965 126.757 78.2455 126.926 77.8035 127.013C77.3702 127.1 76.8415 127.143 76.2175 127.143C75.8795 127.143 75.5632 127.134 75.2685 127.117C74.9825 127.108 74.6835 127.082 74.3715 127.039C74.0682 127.004 73.7259 126.961 73.3445 126.909L73.5135 125.713C73.6782 125.722 73.8775 125.73 74.1115 125.739C74.3542 125.739 74.6055 125.743 74.8655 125.752C75.1342 125.752 75.3855 125.752 75.6195 125.752C76.1135 125.743 76.4905 125.726 76.7505 125.7C77.0105 125.674 77.1925 125.631 77.2965 125.57C77.4092 125.501 77.4785 125.401 77.5045 125.271C77.5219 125.158 77.5045 125.072 77.4525 125.011C77.4092 124.95 77.3269 124.894 77.2055 124.842C77.0929 124.79 76.9369 124.729 76.7375 124.66L75.1775 124.075C74.8222 123.945 74.5362 123.789 74.3195 123.607C74.1115 123.425 73.9685 123.204 73.8905 122.944C73.8212 122.684 73.8082 122.389 73.8515 122.06C73.9035 121.661 74.0335 121.345 74.2415 121.111C74.4495 120.868 74.7572 120.691 75.1645 120.578C75.5719 120.465 76.1005 120.409 76.7505 120.409ZM40.9014 131.03L39.6404 140H37.6384L38.8994 131.03H40.9014ZM43.6834 134.475L43.4754 135.983H40.0954L40.3034 134.475H43.6834ZM46.0104 131.03L44.7494 140H42.7734L44.0344 131.03H46.0104ZM50.3985 133.409C50.6239 133.409 50.8752 133.422 51.1525 133.448C51.4385 133.465 51.7245 133.491 52.0105 133.526C52.3052 133.561 52.5782 133.6 52.8295 133.643C53.0895 133.686 53.3019 133.73 53.4665 133.773L52.1535 134.813C51.8069 134.796 51.4905 134.787 51.2045 134.787C50.9185 134.778 50.6499 134.774 50.3985 134.774C50.1125 134.774 49.8699 134.796 49.6705 134.839C49.4712 134.882 49.3065 134.969 49.1765 135.099C49.0465 135.22 48.9382 135.407 48.8515 135.658C48.7649 135.909 48.6912 136.247 48.6305 136.672C48.5525 137.209 48.5092 137.621 48.5005 137.907C48.5005 138.184 48.5525 138.375 48.6565 138.479C48.7605 138.583 48.9252 138.631 49.1505 138.622C49.3845 138.613 49.6272 138.535 49.8785 138.388C50.1385 138.241 50.3942 138.041 50.6455 137.79C50.8969 137.53 51.1395 137.24 51.3735 136.919L51.7115 137.543C51.5382 138.054 51.2912 138.505 50.9705 138.895C50.6585 139.276 50.2902 139.575 49.8655 139.792C49.4409 140.009 48.9685 140.13 48.4485 140.156C47.8852 140.182 47.4519 140.069 47.1485 139.818C46.8539 139.567 46.6719 139.177 46.6025 138.648C46.5332 138.119 46.5592 137.456 46.6805 136.659C46.7932 135.922 46.9492 135.337 47.1485 134.904C47.3565 134.462 47.6165 134.137 47.9285 133.929C48.2405 133.712 48.6002 133.574 49.0075 133.513C49.4235 133.444 49.8872 133.409 50.3985 133.409ZM51.5685 133.656L53.4665 133.773L52.5955 140H51.1005L51.1265 138.544L50.8925 138.388L51.5685 133.656ZM57.8576 133.409C58.2649 133.409 58.6982 133.444 59.1576 133.513C59.6169 133.574 60.0199 133.678 60.3666 133.825L60.0936 135.008C59.7122 134.991 59.3482 134.982 59.0016 134.982C58.6549 134.973 58.3602 134.969 58.1176 134.969C57.7362 134.969 57.4242 135.021 57.1816 135.125C56.9389 135.229 56.7526 135.415 56.6226 135.684C56.4926 135.944 56.3972 136.312 56.3366 136.789C56.2672 137.292 56.2586 137.673 56.3106 137.933C56.3626 138.193 56.4882 138.371 56.6876 138.466C56.8956 138.561 57.1859 138.609 57.5586 138.609C57.7146 138.609 57.9009 138.605 58.1176 138.596C58.3429 138.587 58.5856 138.579 58.8456 138.57C59.1056 138.553 59.3569 138.527 59.5996 138.492L59.7296 139.74C59.3569 139.887 58.9452 139.991 58.4946 140.052C58.0526 140.121 57.6279 140.156 57.2206 140.156C56.4666 140.156 55.8556 140.043 55.3876 139.818C54.9196 139.584 54.5946 139.216 54.4126 138.713C54.2392 138.202 54.2089 137.534 54.3216 136.711C54.4429 135.914 54.6292 135.277 54.8806 134.8C55.1406 134.315 55.5089 133.964 55.9856 133.747C56.4709 133.522 57.0949 133.409 57.8576 133.409ZM63.9645 130.9L63.4315 134.865C63.3882 135.142 63.3232 135.411 63.2365 135.671C63.1585 135.931 63.0545 136.2 62.9245 136.477C62.9419 136.676 62.9635 136.902 62.9895 137.153C63.0155 137.396 63.0242 137.612 63.0155 137.803L62.6905 140H60.7665L62.0405 130.9H63.9645ZM67.6825 133.578C67.4919 134.254 67.2145 134.83 66.8505 135.307C66.4952 135.775 66.0835 136.169 65.6155 136.49C65.1475 136.811 64.6579 137.084 64.1465 137.309C63.6352 137.526 63.1455 137.716 62.6775 137.881L62.5085 136.607C62.9939 136.416 63.4575 136.169 63.8995 135.866C64.3502 135.563 64.7315 135.216 65.0435 134.826C65.3642 134.436 65.5852 134.02 65.7065 133.578H67.6825ZM65.1735 136.347C65.3902 136.477 65.5679 136.633 65.7065 136.815C65.8452 136.997 65.9579 137.188 66.0445 137.387L67.2665 140H65.2645L63.8605 136.828L65.1735 136.347ZM71.3931 133.409C71.7138 133.409 72.0561 133.422 72.4201 133.448C72.7841 133.474 73.1351 133.504 73.4731 133.539C73.8198 133.574 74.1188 133.613 74.3701 133.656L74.1881 134.852C73.7721 134.843 73.3561 134.839 72.9401 134.839C72.5328 134.83 72.1168 134.822 71.6921 134.813C71.3628 134.813 71.0985 134.822 70.8991 134.839C70.7085 134.848 70.5698 134.882 70.4831 134.943C70.3965 134.995 70.3445 135.082 70.3271 135.203C70.3098 135.359 70.3531 135.48 70.4571 135.567C70.5698 135.654 70.7605 135.745 71.0291 135.84L72.6281 136.412C72.9661 136.533 73.2435 136.676 73.4601 136.841C73.6768 137.006 73.8285 137.209 73.9151 137.452C74.0105 137.695 74.0365 137.989 73.9931 138.336C73.9325 138.856 73.7678 139.246 73.4991 139.506C73.2391 139.757 72.8881 139.926 72.4461 140.013C72.0128 140.1 71.4841 140.143 70.8601 140.143C70.5221 140.143 70.2058 140.134 69.9111 140.117C69.6251 140.108 69.3261 140.082 69.0141 140.039C68.7108 140.004 68.3685 139.961 67.9871 139.909L68.1561 138.713C68.3208 138.722 68.5201 138.73 68.7541 138.739C68.9968 138.739 69.2481 138.743 69.5081 138.752C69.7768 138.752 70.0281 138.752 70.2621 138.752C70.7561 138.743 71.1331 138.726 71.3931 138.7C71.6531 138.674 71.8351 138.631 71.9391 138.57C72.0518 138.501 72.1211 138.401 72.1471 138.271C72.1645 138.158 72.1471 138.072 72.0951 138.011C72.0518 137.95 71.9695 137.894 71.8481 137.842C71.7355 137.79 71.5795 137.729 71.3801 137.66L69.8201 137.075C69.4648 136.945 69.1788 136.789 68.9621 136.607C68.7541 136.425 68.6111 136.204 68.5331 135.944C68.4638 135.684 68.4508 135.389 68.4941 135.06C68.5461 134.661 68.6761 134.345 68.8841 134.111C69.0921 133.868 69.3998 133.691 69.8071 133.578C70.2145 133.465 70.7431 133.409 71.3931 133.409Z" fill="white"/>
</g>
<defs>
<clipPath id="clip0_117_226">
<rect width="112" height="160" rx="6" fill="white"/>
</clipPath>
</defs>
</svg>
