<svg width="112" height="160" viewBox="0 0 112 160" fill="none" xmlns="http://www.w3.org/2000/svg">
<g clip-path="url(#clip0_119_4235)">
<path d="M1 7C1 3.6863 3.68629 1 7 1H105C108.314 1 111 3.68629 111 7V152C111 155.314 108.314 158 105 158H7C3.68629 158 1 155.314 1 152V7Z" fill="#393B4E"/>
<path fill-rule="evenodd" clip-rule="evenodd" d="M7 0C3.13401 0 0 3.13401 0 7V153C0 156.866 3.13401 160 7 160H105C108.866 160 112 156.866 112 153V7C112 3.13401 108.866 0 105 0H7ZM7 1C3.68629 1 1 3.68629 1 7C1 7 1 7 1 7V152C1 152.165 1.00666 152.328 1.01973 152.49C1.2691 155.575 3.85131 158 7 158H105C108.149 158 110.731 155.575 110.98 152.49C110.993 152.328 111 152.165 111 152V7C111 3.68629 108.314 1 105 1H7Z" fill="black" fill-opacity="0.3"/>
<path d="M23.4155 58.5947C23.722 57.0102 25.0354 55.8792 26.6407 55.7132C31.9913 55.1601 44.5757 54 56 54C67.4243 54 80.0087 55.1601 85.3593 55.7132C86.9646 55.8792 88.278 57.0102 88.5845 58.5947C89.1748 61.6467 90 67.2919 90 75C90 78.1389 89.7989 81.4788 89.5771 84.2083C89.3038 87.5717 86.5633 90.1406 83.1925 90.2972C76.8474 90.592 66.2197 91 56 91C45.7803 91 35.1526 90.592 28.8075 90.2972C25.4367 90.1406 22.6962 87.5717 22.4229 84.2083C22.2011 81.4788 22 78.1389 22 75C22 67.2918 22.8252 61.6467 23.4155 58.5947Z" fill="#6387F3"/>
<path d="M20.5 75C20.5 78.1956 20.7044 81.5802 20.9278 84.3298C21.2642 88.469 24.6372 91.6051 28.7379 91.7956C35.0922 92.0908 45.7464 92.5 56 92.5C66.2536 92.5 76.9078 92.0908 83.2621 91.7956C87.3629 91.6051 90.7358 88.469 91.0722 84.3298C91.2956 81.5802 91.5 78.1956 91.5 75C91.5 67.1851 90.6634 61.4441 90.0572 58.3099C89.6171 56.0343 87.7326 54.4506 85.5135 54.2212C80.1508 53.6668 67.5041 52.5 56 52.5C44.4959 52.5 31.8492 53.6668 26.4865 54.2212C24.2674 54.4506 22.3829 56.0343 21.9428 58.3099C21.3366 61.4441 20.5 67.1851 20.5 75Z" stroke="white" stroke-opacity="0.3" stroke-width="3"/>
<path d="M21.5 75C21.5 78.1578 21.7022 81.5126 21.9245 84.2488C22.2189 87.8708 25.1702 90.6288 28.7843 90.7967C35.1325 91.0916 45.769 91.5 56 91.5C66.231 91.5 76.8676 91.0916 83.2157 90.7967C86.8298 90.6288 89.7811 87.8708 90.0755 84.2488C90.2978 81.5126 90.5 78.1578 90.5 75C90.5 67.2563 89.671 61.5792 89.0754 58.4998C88.7244 56.6849 87.2206 55.403 85.4107 55.2159C80.0561 54.6624 67.4509 53.5 56 53.5C44.5491 53.5 31.9439 54.6624 26.5893 55.2159C24.7794 55.403 23.2756 56.6849 22.9246 58.4998C22.329 61.5792 21.5 67.2563 21.5 75Z" fill="#35CB00" stroke="#333333"/>
<circle cx="29.5" cy="71.5" r="6" fill="#289900" stroke="#144C00"/>
<path d="M82.0419 55.3869L72.7097 78.0465C71.4753 81.0438 68.5541 83 65.3125 83H46.6875C43.4459 83 40.5247 81.0438 39.2903 78.0465L29.9581 55.3869C30.2942 55.3555 30.6417 55.3234 31 55.2909L40.2149 77.6657C41.2951 80.2883 43.8511 82 46.6875 82H65.3125C68.1489 82 70.7049 80.2883 71.7851 77.6657L81 55.2909C81.3583 55.3234 81.7058 55.3555 82.0419 55.3869Z" fill="#35B408"/>
<path d="M56 56.5C48.0937 56.5 41.6332 56.886 36.7269 58.3692C35.3698 58.7795 34.7605 60.2617 35.2552 61.5293L41.2923 76.9995C42.1161 79.1104 44.1501 80.5 46.416 80.5H65.584C67.8499 80.5 69.8839 79.1104 70.7077 76.9995L76.7012 61.6411C77.2184 60.3158 76.5267 58.794 75.1224 58.404C69.6866 56.8943 63.9849 56.5 56 56.5Z" fill="#1F7600" stroke="#144C00"/>
<path d="M84.5 72.5C86.7091 72.5 88.5 70.7091 88.5 68.5C88.5 66.2909 86.7091 64.5 84.5 64.5C82.2909 64.5 80.5 66.2909 80.5 68.5C80.5 70.7091 82.2909 72.5 84.5 72.5ZM79.5 79.5C81.7091 79.5 83.5 77.7091 83.5 75.5C83.5 73.2909 81.7091 71.5 79.5 71.5C77.2909 71.5 75.5 73.2909 75.5 75.5C75.5 77.7091 77.2909 79.5 79.5 79.5Z" fill="#828282" stroke="#144C00"/>
<circle cx="84.5" cy="68.5" r="3.5" fill="#289900"/>
<circle cx="79.5" cy="75.5" r="3.5" fill="#289900"/>
<circle cx="30.5" cy="80.5" r="0.5" fill="#207A00"/>
<circle cx="30.5" cy="82.5" r="0.5" fill="#207A00"/>
<circle cx="28.5" cy="82.5" r="0.5" fill="#289800"/>
<circle cx="38.5" cy="82.5" r="0.5" fill="#289800"/>
<circle cx="30.5" cy="84.5" r="0.5" fill="#207A00"/>
<circle cx="28.5" cy="84.5" r="0.5" fill="#289800"/>
<circle cx="38.5" cy="84.5" r="0.5" fill="#289800"/>
<circle cx="30.5" cy="86.5" r="0.5" fill="#207A00"/>
<circle cx="32.5" cy="80.5" r="0.5" fill="#207A00"/>
<circle cx="32.5" cy="82.5" r="0.5" fill="#207A00"/>
<circle cx="32.5" cy="84.5" r="0.5" fill="#207A00"/>
<circle cx="32.5" cy="86.5" r="0.5" fill="#207A00"/>
<circle cx="34.5" cy="80.5" r="0.5" fill="#207A00"/>
<circle cx="34.5" cy="82.5" r="0.5" fill="#207A00"/>
<circle cx="34.5" cy="84.5" r="0.5" fill="#207A00"/>
<circle cx="34.5" cy="86.5" r="0.5" fill="#207A00"/>
<circle cx="36.5" cy="80.5" r="0.5" fill="#207A00"/>
<circle cx="36.5" cy="82.5" r="0.5" fill="#207A00"/>
<circle cx="36.5" cy="84.5" r="0.5" fill="#207A00"/>
<circle cx="36.5" cy="86.5" r="0.5" fill="#207A00"/>
<path d="M78.2263 64.6516C78.5993 64.8729 79.0348 65 79.5 65C80.8807 65 82 63.8807 82 62.5C82 61.3301 81.1964 60.3479 80.1111 60.0752L78.2263 64.6516Z" fill="#248A00"/>
<rect x="45.5" y="59.5" width="21" height="18" rx="1.5" fill="#33C200" stroke="#144C00"/>
<path fill-rule="evenodd" clip-rule="evenodd" d="M27 69H25.5C24.6716 69 24 69.6716 24 70.5V72.5C24 73.3284 24.6716 74 25.5 74H27V75.5C27 76.3284 27.6716 77 28.5 77H30.5C31.3284 77 32 76.3284 32 75.5V74H33.5C34.3284 74 35 73.3284 35 72.5V70.5C35 69.6716 34.3284 69 33.5 69H32V67.5C32 66.6716 31.3284 66 30.5 66H28.5C27.6716 66 27 66.6716 27 67.5V69Z" fill="#144C00"/>
<path d="M28 67.5C28 67.2239 28.2239 67 28.5 67H30.5C30.7761 67 31 67.2239 31 67.5V69.2929L29.5 70.7929L28 69.2929V67.5Z" fill="#289900"/>
<path d="M27.2929 70H25.5C25.2239 70 25 70.2239 25 70.5V72.5C25 72.7761 25.2239 73 25.5 73H27.2929L28.7929 71.5L27.2929 70Z" fill="#289900"/>
<path d="M28 73.7071V75.5C28 75.7761 28.2239 76 28.5 76H30.5C30.7761 76 31 75.7761 31 75.5V73.7071L29.5 72.2071L28 73.7071Z" fill="#289900"/>
<path d="M31.7071 73H33.5C33.7761 73 34 72.7761 34 72.5V70.5C34 70.2239 33.7761 70 33.5 70H31.7071L30.2071 71.5L31.7071 73Z" fill="#289900"/>
<path d="M27.9725 117.848C28.3018 117.848 28.6225 117.861 28.9345 117.887C29.2551 117.913 29.5671 117.952 29.8705 118.004C30.1825 118.047 30.4771 118.112 30.7545 118.199L30.5205 119.629C30.2258 119.612 29.9355 119.599 29.6495 119.59C29.3635 119.581 29.0818 119.577 28.8045 119.577C28.5271 119.568 28.2368 119.564 27.9335 119.564C27.5348 119.564 27.1968 119.612 26.9195 119.707C26.6421 119.794 26.4081 119.95 26.2175 120.175C26.0355 120.392 25.8838 120.699 25.7625 121.098C25.6411 121.488 25.5371 121.986 25.4505 122.593C25.3638 123.321 25.3335 123.897 25.3595 124.322C25.3941 124.738 25.5025 125.033 25.6845 125.206C25.8665 125.379 26.1438 125.466 26.5165 125.466C26.8111 125.466 27.0668 125.423 27.2835 125.336C27.5001 125.241 27.6995 125.119 27.8815 124.972C28.0721 124.816 28.2628 124.656 28.4535 124.491L28.7525 125.427C28.5965 125.618 28.4188 125.817 28.2195 126.025C28.0201 126.224 27.7948 126.415 27.5435 126.597C27.2921 126.77 27.0105 126.909 26.6985 127.013C26.3865 127.126 26.0398 127.182 25.6585 127.182C25.0518 127.182 24.5535 127.026 24.1635 126.714C23.7735 126.402 23.5091 125.899 23.3705 125.206C23.2318 124.513 23.2361 123.59 23.3835 122.437C23.5048 121.51 23.6825 120.747 23.9165 120.149C24.1591 119.551 24.4625 119.087 24.8265 118.758C25.1991 118.42 25.6455 118.186 26.1655 118.056C26.6855 117.917 27.2878 117.848 27.9725 117.848ZM30.6115 121.826L29.8705 127H28.4275L28.3625 125.609L28.2325 125.232L28.7005 121.826H30.6115ZM35.2974 120.409C35.5228 120.409 35.7741 120.422 36.0514 120.448C36.3374 120.465 36.6234 120.491 36.9094 120.526C37.2041 120.561 37.4771 120.6 37.7284 120.643C37.9884 120.686 38.2008 120.73 38.3654 120.773L37.0524 121.813C36.7058 121.796 36.3894 121.787 36.1034 121.787C35.8174 121.778 35.5488 121.774 35.2974 121.774C35.0114 121.774 34.7688 121.796 34.5694 121.839C34.3701 121.882 34.2054 121.969 34.0754 122.099C33.9454 122.22 33.8371 122.407 33.7504 122.658C33.6638 122.909 33.5901 123.247 33.5294 123.672C33.4514 124.209 33.4081 124.621 33.3994 124.907C33.3994 125.184 33.4514 125.375 33.5554 125.479C33.6594 125.583 33.8241 125.631 34.0494 125.622C34.2834 125.613 34.5261 125.535 34.7774 125.388C35.0374 125.241 35.2931 125.041 35.5444 124.79C35.7958 124.53 36.0384 124.24 36.2724 123.919L36.6104 124.543C36.4371 125.054 36.1901 125.505 35.8694 125.895C35.5574 126.276 35.1891 126.575 34.7644 126.792C34.3398 127.009 33.8674 127.13 33.3474 127.156C32.7841 127.182 32.3508 127.069 32.0474 126.818C31.7528 126.567 31.5708 126.177 31.5014 125.648C31.4321 125.119 31.4581 124.456 31.5794 123.659C31.6921 122.922 31.8481 122.337 32.0474 121.904C32.2554 121.462 32.5154 121.137 32.8274 120.929C33.1394 120.712 33.4991 120.574 33.9064 120.513C34.3224 120.444 34.7861 120.409 35.2974 120.409ZM36.4674 120.656L38.3654 120.773L37.4944 127H35.9994L36.0254 125.544L35.7914 125.388L36.4674 120.656ZM41.4305 120.578L41.4435 122.06L41.6125 122.242L40.9495 127H39.0385L39.9355 120.578H41.4305ZM43.9915 120.409C44.5895 120.409 45.0228 120.569 45.2915 120.89C45.5688 121.211 45.6685 121.657 45.5905 122.229L44.9145 127H43.0685L43.6665 122.749C43.7012 122.489 43.6795 122.307 43.6015 122.203C43.5235 122.09 43.3762 122.034 43.1595 122.034C43.0035 122.034 42.8388 122.069 42.6655 122.138C42.4922 122.207 42.2972 122.32 42.0805 122.476C41.8638 122.623 41.5995 122.831 41.2875 123.1L41.0535 122.138C41.5908 121.54 42.0892 121.102 42.5485 120.825C43.0078 120.548 43.4888 120.409 43.9915 120.409ZM47.9955 120.409C48.6022 120.409 49.0442 120.574 49.3215 120.903C49.5988 121.224 49.6942 121.666 49.6075 122.229L48.9445 127H47.0335L47.6315 122.749C47.6662 122.472 47.6358 122.285 47.5405 122.19C47.4538 122.086 47.3152 122.034 47.1245 122.034C46.9772 122.034 46.8168 122.069 46.6435 122.138C46.4788 122.199 46.2882 122.307 46.0715 122.463C45.8635 122.61 45.6122 122.818 45.3175 123.087L45.0705 122.138C45.6078 121.531 46.1018 121.094 46.5525 120.825C47.0118 120.548 47.4928 120.409 47.9955 120.409ZM54.3646 120.409C55.1533 120.409 55.7599 120.496 56.1846 120.669C56.6179 120.834 56.9083 121.085 57.0556 121.423C57.2029 121.752 57.2376 122.16 57.1596 122.645C57.0989 123.044 56.9646 123.36 56.7566 123.594C56.5573 123.819 56.2799 123.988 55.9246 124.101C55.5693 124.214 55.1186 124.292 54.5726 124.335L51.2966 124.608L51.4396 123.542L54.1956 123.269C54.4296 123.243 54.6203 123.208 54.7676 123.165C54.9236 123.113 55.0449 123.035 55.1316 122.931C55.2183 122.818 55.2746 122.662 55.3006 122.463C55.3353 122.255 55.3223 122.099 55.2616 121.995C55.2009 121.891 55.0926 121.826 54.9366 121.8C54.7806 121.765 54.5726 121.752 54.3126 121.761C54.0439 121.761 53.8186 121.787 53.6366 121.839C53.4546 121.891 53.3029 121.986 53.1816 122.125C53.0603 122.255 52.9606 122.446 52.8826 122.697C52.8046 122.94 52.7309 123.256 52.6616 123.646C52.5749 124.209 52.5619 124.634 52.6226 124.92C52.6833 125.206 52.8176 125.397 53.0256 125.492C53.2336 125.587 53.5239 125.635 53.8966 125.635C54.1046 125.635 54.3559 125.631 54.6506 125.622C54.9453 125.605 55.2443 125.587 55.5476 125.57C55.8596 125.544 56.1413 125.518 56.3926 125.492L56.5226 126.688C56.2626 126.801 55.9679 126.892 55.6386 126.961C55.3093 127.03 54.9756 127.078 54.6376 127.104C54.2996 127.139 53.9833 127.156 53.6886 127.156C52.8306 127.156 52.1633 127.026 51.6866 126.766C51.2186 126.506 50.9066 126.12 50.7506 125.609C50.5946 125.089 50.5599 124.452 50.6466 123.698C50.7246 123.031 50.8546 122.485 51.0366 122.06C51.2273 121.635 51.4699 121.306 51.7646 121.072C52.0679 120.829 52.4363 120.66 52.8696 120.565C53.3029 120.461 53.8013 120.409 54.3646 120.409ZM65.6521 117.848C65.9815 117.848 66.3021 117.861 66.6141 117.887C66.9348 117.913 67.2468 117.952 67.5501 118.004C67.8621 118.047 68.1568 118.112 68.4341 118.199L68.2001 119.629C67.9055 119.612 67.6151 119.599 67.3291 119.59C67.0431 119.581 66.7615 119.577 66.4841 119.577C66.2068 119.568 65.9165 119.564 65.6131 119.564C65.2145 119.564 64.8765 119.612 64.5991 119.707C64.3218 119.794 64.0878 119.95 63.8971 120.175C63.7151 120.392 63.5635 120.699 63.4421 121.098C63.3208 121.488 63.2168 121.986 63.1301 122.593C63.0435 123.321 63.0131 123.897 63.0391 124.322C63.0738 124.738 63.1821 125.033 63.3641 125.206C63.5461 125.379 63.8235 125.466 64.1961 125.466C64.4908 125.466 64.7465 125.423 64.9631 125.336C65.1798 125.241 65.3791 125.119 65.5611 124.972C65.7518 124.816 65.9425 124.656 66.1331 124.491L66.4321 125.427C66.2761 125.618 66.0985 125.817 65.8991 126.025C65.6998 126.224 65.4745 126.415 65.2231 126.597C64.9718 126.77 64.6901 126.909 64.3781 127.013C64.0661 127.126 63.7195 127.182 63.3381 127.182C62.7315 127.182 62.2331 127.026 61.8431 126.714C61.4531 126.402 61.1888 125.899 61.0501 125.206C60.9115 124.513 60.9158 123.59 61.0631 122.437C61.1845 121.51 61.3621 120.747 61.5961 120.149C61.8388 119.551 62.1421 119.087 62.5061 118.758C62.8788 118.42 63.3251 118.186 63.8451 118.056C64.3651 117.917 64.9675 117.848 65.6521 117.848ZM68.2911 121.826L67.5501 127H66.1071L66.0421 125.609L65.9121 125.232L66.3801 121.826H68.2911ZM72.9251 120.409C73.7138 120.409 74.3205 120.496 74.7451 120.669C75.1785 120.834 75.4688 121.085 75.6161 121.423C75.7635 121.752 75.7981 122.16 75.7201 122.645C75.6595 123.044 75.5251 123.36 75.3171 123.594C75.1178 123.819 74.8405 123.988 74.4851 124.101C74.1298 124.214 73.6791 124.292 73.1331 124.335L69.8571 124.608L70.0001 123.542L72.7561 123.269C72.9901 123.243 73.1808 123.208 73.3281 123.165C73.4841 123.113 73.6055 123.035 73.6921 122.931C73.7788 122.818 73.8351 122.662 73.8611 122.463C73.8958 122.255 73.8828 122.099 73.8221 121.995C73.7615 121.891 73.6531 121.826 73.4971 121.8C73.3411 121.765 73.1331 121.752 72.8731 121.761C72.6045 121.761 72.3791 121.787 72.1971 121.839C72.0151 121.891 71.8635 121.986 71.7421 122.125C71.6208 122.255 71.5211 122.446 71.4431 122.697C71.3651 122.94 71.2915 123.256 71.2221 123.646C71.1355 124.209 71.1225 124.634 71.1831 124.92C71.2438 125.206 71.3781 125.397 71.5861 125.492C71.7941 125.587 72.0845 125.635 72.4571 125.635C72.6651 125.635 72.9165 125.631 73.2111 125.622C73.5058 125.605 73.8048 125.587 74.1081 125.57C74.4201 125.544 74.7018 125.518 74.9531 125.492L75.0831 126.688C74.8231 126.801 74.5285 126.892 74.1991 126.961C73.8698 127.03 73.5361 127.078 73.1981 127.104C72.8601 127.139 72.5438 127.156 72.2491 127.156C71.3911 127.156 70.7238 127.026 70.2471 126.766C69.7791 126.506 69.4671 126.12 69.3111 125.609C69.1551 125.089 69.1205 124.452 69.2071 123.698C69.2851 123.031 69.4151 122.485 69.5971 122.06C69.7878 121.635 70.0305 121.306 70.3251 121.072C70.6285 120.829 70.9968 120.66 71.4301 120.565C71.8635 120.461 72.3618 120.409 72.9251 120.409ZM80.315 120.409C80.5404 120.409 80.7917 120.422 81.069 120.448C81.355 120.465 81.641 120.491 81.927 120.526C82.2217 120.561 82.4947 120.6 82.746 120.643C83.006 120.686 83.2184 120.73 83.383 120.773L82.07 121.813C81.7234 121.796 81.407 121.787 81.121 121.787C80.835 121.778 80.5664 121.774 80.315 121.774C80.029 121.774 79.7864 121.796 79.587 121.839C79.3877 121.882 79.223 121.969 79.093 122.099C78.963 122.22 78.8547 122.407 78.768 122.658C78.6814 122.909 78.6077 123.247 78.547 123.672C78.469 124.209 78.4257 124.621 78.417 124.907C78.417 125.184 78.469 125.375 78.573 125.479C78.677 125.583 78.8417 125.631 79.067 125.622C79.301 125.613 79.5437 125.535 79.795 125.388C80.055 125.241 80.3107 125.041 80.562 124.79C80.8134 124.53 81.056 124.24 81.29 123.919L81.628 124.543C81.4547 125.054 81.2077 125.505 80.887 125.895C80.575 126.276 80.2067 126.575 79.782 126.792C79.3574 127.009 78.885 127.13 78.365 127.156C77.8017 127.182 77.3684 127.069 77.065 126.818C76.7704 126.567 76.5884 126.177 76.519 125.648C76.4497 125.119 76.4757 124.456 76.597 123.659C76.7097 122.922 76.8657 122.337 77.065 121.904C77.273 121.462 77.533 121.137 77.845 120.929C78.157 120.712 78.5167 120.574 78.924 120.513C79.34 120.444 79.8037 120.409 80.315 120.409ZM81.485 120.656L83.383 120.773L82.512 127H81.017L81.043 125.544L80.809 125.388L81.485 120.656ZM86.4481 120.578L86.4611 122.112L86.6301 122.294L85.9801 127H84.0561L84.9531 120.578H86.4481ZM89.5941 120.409L89.1781 122.19H88.7101C88.4067 122.19 88.0774 122.259 87.7221 122.398C87.3754 122.528 86.9377 122.727 86.4091 122.996L86.3311 121.865C86.8424 121.388 87.3407 121.029 87.8261 120.786C88.3114 120.535 88.7707 120.409 89.2041 120.409H89.5941ZM40.9014 131.03L39.6404 140H37.6384L38.8994 131.03H40.9014ZM43.6834 134.475L43.4754 135.983H40.0954L40.3034 134.475H43.6834ZM46.0104 131.03L44.7494 140H42.7734L44.0344 131.03H46.0104ZM50.3985 133.409C50.6239 133.409 50.8752 133.422 51.1525 133.448C51.4385 133.465 51.7245 133.491 52.0105 133.526C52.3052 133.561 52.5782 133.6 52.8295 133.643C53.0895 133.686 53.3019 133.73 53.4665 133.773L52.1535 134.813C51.8069 134.796 51.4905 134.787 51.2045 134.787C50.9185 134.778 50.6499 134.774 50.3985 134.774C50.1125 134.774 49.8699 134.796 49.6705 134.839C49.4712 134.882 49.3065 134.969 49.1765 135.099C49.0465 135.22 48.9382 135.407 48.8515 135.658C48.7649 135.909 48.6912 136.247 48.6305 136.672C48.5525 137.209 48.5092 137.621 48.5005 137.907C48.5005 138.184 48.5525 138.375 48.6565 138.479C48.7605 138.583 48.9252 138.631 49.1505 138.622C49.3845 138.613 49.6272 138.535 49.8785 138.388C50.1385 138.241 50.3942 138.041 50.6455 137.79C50.8969 137.53 51.1395 137.24 51.3735 136.919L51.7115 137.543C51.5382 138.054 51.2912 138.505 50.9705 138.895C50.6585 139.276 50.2902 139.575 49.8655 139.792C49.4409 140.009 48.9685 140.13 48.4485 140.156C47.8852 140.182 47.4519 140.069 47.1485 139.818C46.8539 139.567 46.6719 139.177 46.6025 138.648C46.5332 138.119 46.5592 137.456 46.6805 136.659C46.7932 135.922 46.9492 135.337 47.1485 134.904C47.3565 134.462 47.6165 134.137 47.9285 133.929C48.2405 133.712 48.6002 133.574 49.0075 133.513C49.4235 133.444 49.8872 133.409 50.3985 133.409ZM51.5685 133.656L53.4665 133.773L52.5955 140H51.1005L51.1265 138.544L50.8925 138.388L51.5685 133.656ZM57.8576 133.409C58.2649 133.409 58.6982 133.444 59.1576 133.513C59.6169 133.574 60.0199 133.678 60.3666 133.825L60.0936 135.008C59.7122 134.991 59.3482 134.982 59.0016 134.982C58.6549 134.973 58.3602 134.969 58.1176 134.969C57.7362 134.969 57.4242 135.021 57.1816 135.125C56.9389 135.229 56.7526 135.415 56.6226 135.684C56.4926 135.944 56.3972 136.312 56.3366 136.789C56.2672 137.292 56.2586 137.673 56.3106 137.933C56.3626 138.193 56.4882 138.371 56.6876 138.466C56.8956 138.561 57.1859 138.609 57.5586 138.609C57.7146 138.609 57.9009 138.605 58.1176 138.596C58.3429 138.587 58.5856 138.579 58.8456 138.57C59.1056 138.553 59.3569 138.527 59.5996 138.492L59.7296 139.74C59.3569 139.887 58.9452 139.991 58.4946 140.052C58.0526 140.121 57.6279 140.156 57.2206 140.156C56.4666 140.156 55.8556 140.043 55.3876 139.818C54.9196 139.584 54.5946 139.216 54.4126 138.713C54.2392 138.202 54.2089 137.534 54.3216 136.711C54.4429 135.914 54.6292 135.277 54.8806 134.8C55.1406 134.315 55.5089 133.964 55.9856 133.747C56.4709 133.522 57.0949 133.409 57.8576 133.409ZM63.9645 130.9L63.4315 134.865C63.3882 135.142 63.3232 135.411 63.2365 135.671C63.1585 135.931 63.0545 136.2 62.9245 136.477C62.9419 136.676 62.9635 136.902 62.9895 137.153C63.0155 137.396 63.0242 137.612 63.0155 137.803L62.6905 140H60.7665L62.0405 130.9H63.9645ZM67.6825 133.578C67.4919 134.254 67.2145 134.83 66.8505 135.307C66.4952 135.775 66.0835 136.169 65.6155 136.49C65.1475 136.811 64.6579 137.084 64.1465 137.309C63.6352 137.526 63.1455 137.716 62.6775 137.881L62.5085 136.607C62.9939 136.416 63.4575 136.169 63.8995 135.866C64.3502 135.563 64.7315 135.216 65.0435 134.826C65.3642 134.436 65.5852 134.02 65.7065 133.578H67.6825ZM65.1735 136.347C65.3902 136.477 65.5679 136.633 65.7065 136.815C65.8452 136.997 65.9579 137.188 66.0445 137.387L67.2665 140H65.2645L63.8605 136.828L65.1735 136.347ZM71.3931 133.409C71.7138 133.409 72.0561 133.422 72.4201 133.448C72.7841 133.474 73.1351 133.504 73.4731 133.539C73.8198 133.574 74.1188 133.613 74.3701 133.656L74.1881 134.852C73.7721 134.843 73.3561 134.839 72.9401 134.839C72.5328 134.83 72.1168 134.822 71.6921 134.813C71.3628 134.813 71.0985 134.822 70.8991 134.839C70.7085 134.848 70.5698 134.882 70.4831 134.943C70.3965 134.995 70.3445 135.082 70.3271 135.203C70.3098 135.359 70.3531 135.48 70.4571 135.567C70.5698 135.654 70.7605 135.745 71.0291 135.84L72.6281 136.412C72.9661 136.533 73.2435 136.676 73.4601 136.841C73.6768 137.006 73.8285 137.209 73.9151 137.452C74.0105 137.695 74.0365 137.989 73.9931 138.336C73.9325 138.856 73.7678 139.246 73.4991 139.506C73.2391 139.757 72.8881 139.926 72.4461 140.013C72.0128 140.1 71.4841 140.143 70.8601 140.143C70.5221 140.143 70.2058 140.134 69.9111 140.117C69.6251 140.108 69.3261 140.082 69.0141 140.039C68.7108 140.004 68.3685 139.961 67.9871 139.909L68.1561 138.713C68.3208 138.722 68.5201 138.73 68.7541 138.739C68.9968 138.739 69.2481 138.743 69.5081 138.752C69.7768 138.752 70.0281 138.752 70.2621 138.752C70.7561 138.743 71.1331 138.726 71.3931 138.7C71.6531 138.674 71.8351 138.631 71.9391 138.57C72.0518 138.501 72.1211 138.401 72.1471 138.271C72.1645 138.158 72.1471 138.072 72.0951 138.011C72.0518 137.95 71.9695 137.894 71.8481 137.842C71.7355 137.79 71.5795 137.729 71.3801 137.66L69.8201 137.075C69.4648 136.945 69.1788 136.789 68.9621 136.607C68.7541 136.425 68.6111 136.204 68.5331 135.944C68.4638 135.684 68.4508 135.389 68.4941 135.06C68.5461 134.661 68.6761 134.345 68.8841 134.111C69.0921 133.868 69.3998 133.691 69.8071 133.578C70.2145 133.465 70.7431 133.409 71.3931 133.409Z" fill="white"/>
</g>
<defs>
<clipPath id="clip0_119_4235">
<rect width="112" height="160" rx="6" fill="white"/>
</clipPath>
</defs>
</svg>
