<svg width="112" height="160" viewBox="0 0 112 160" fill="none" xmlns="http://www.w3.org/2000/svg">
<g clip-path="url(#clip0_101_120)">
<path d="M1 7C1 3.6863 3.68629 1 7 1H105C108.314 1 111 3.68629 111 7V152C111 155.314 108.314 158 105 158H7C3.68629 158 1 155.314 1 152V7Z" fill="#393B4E"/>
<path fill-rule="evenodd" clip-rule="evenodd" d="M7 0C3.13401 0 0 3.13401 0 7V153C0 156.866 3.13401 160 7 160H105C108.866 160 112 156.866 112 153V7C112 3.13401 108.866 0 105 0H7ZM7 1C3.68629 1 1 3.68629 1 7C1 7 1 7 1 7V152C1 152.165 1.00666 152.328 1.01973 152.49C1.2691 155.575 3.85131 158 7 158H105C108.149 158 110.731 155.575 110.98 152.49C110.993 152.328 111 152.165 111 152V7C111 3.68629 108.314 1 105 1H7Z" fill="black" fill-opacity="0.3"/>
<path d="M25.9209 124.03L24.6599 133H22.6579L23.9189 124.03H25.9209ZM28.7029 127.475L28.4949 128.983H25.1149L25.3229 127.475H28.7029ZM31.0299 124.03L29.7689 133H27.7929L29.0539 124.03H31.0299ZM35.3271 126.409C36.1157 126.409 36.7484 126.526 37.2251 126.76C37.7017 126.985 38.0224 127.349 38.1871 127.852C38.3604 128.355 38.3864 129.031 38.2651 129.88C38.1524 130.686 37.9574 131.332 37.6801 131.817C37.4114 132.294 37.0301 132.636 36.5361 132.844C36.0421 133.052 35.4007 133.156 34.6121 133.156C33.8321 133.156 33.1994 133.043 32.7141 132.818C32.2374 132.593 31.9081 132.229 31.7261 131.726C31.5527 131.223 31.5224 130.556 31.6351 129.724C31.7564 128.909 31.9514 128.264 32.2201 127.787C32.4887 127.302 32.8744 126.951 33.3771 126.734C33.8884 126.517 34.5384 126.409 35.3271 126.409ZM35.3011 127.813C34.9544 127.813 34.6727 127.869 34.4561 127.982C34.2481 128.095 34.0791 128.298 33.9491 128.593C33.8277 128.888 33.7281 129.317 33.6501 129.88C33.5807 130.374 33.5591 130.76 33.5851 131.037C33.6197 131.314 33.7237 131.505 33.8971 131.609C34.0704 131.713 34.3261 131.765 34.6641 131.765C35.0107 131.765 35.2881 131.709 35.4961 131.596C35.7041 131.475 35.8687 131.267 35.9901 130.972C36.1114 130.677 36.2111 130.261 36.2891 129.724C36.3584 129.213 36.3757 128.823 36.3411 128.554C36.3151 128.277 36.2154 128.086 36.0421 127.982C35.8774 127.869 35.6304 127.813 35.3011 127.813ZM41.513 126.578L41.526 128.06L41.695 128.242L41.032 133H39.121L40.018 126.578H41.513ZM44.074 126.409C44.672 126.409 45.1054 126.569 45.374 126.89C45.6514 127.211 45.751 127.657 45.673 128.229L44.997 133H43.151L43.749 128.749C43.7837 128.489 43.762 128.307 43.684 128.203C43.606 128.09 43.4587 128.034 43.242 128.034C43.086 128.034 42.9214 128.069 42.748 128.138C42.5747 128.207 42.3797 128.32 42.163 128.476C41.9464 128.623 41.682 128.831 41.37 129.1L41.136 128.138C41.6734 127.54 42.1717 127.102 42.631 126.825C43.0904 126.548 43.5714 126.409 44.074 126.409ZM48.078 126.409C48.6847 126.409 49.1267 126.574 49.404 126.903C49.6814 127.224 49.7767 127.666 49.69 128.229L49.027 133H47.116L47.714 128.749C47.7487 128.472 47.7184 128.285 47.623 128.19C47.5364 128.086 47.3977 128.034 47.207 128.034C47.0597 128.034 46.8994 128.069 46.726 128.138C46.5614 128.199 46.3707 128.307 46.154 128.463C45.946 128.61 45.6947 128.818 45.4 129.087L45.153 128.138C45.6904 127.531 46.1844 127.094 46.635 126.825C47.0944 126.548 47.5754 126.409 48.078 126.409ZM54.4471 126.409C55.2358 126.409 55.8424 126.496 56.2671 126.669C56.7004 126.834 56.9908 127.085 57.1381 127.423C57.2854 127.752 57.3201 128.16 57.2421 128.645C57.1814 129.044 57.0471 129.36 56.8391 129.594C56.6398 129.819 56.3624 129.988 56.0071 130.101C55.6518 130.214 55.2011 130.292 54.6551 130.335L51.3791 130.608L51.5221 129.542L54.2781 129.269C54.5121 129.243 54.7028 129.208 54.8501 129.165C55.0061 129.113 55.1274 129.035 55.2141 128.931C55.3008 128.818 55.3571 128.662 55.3831 128.463C55.4178 128.255 55.4048 128.099 55.3441 127.995C55.2834 127.891 55.1751 127.826 55.0191 127.8C54.8631 127.765 54.6551 127.752 54.3951 127.761C54.1264 127.761 53.9011 127.787 53.7191 127.839C53.5371 127.891 53.3854 127.986 53.2641 128.125C53.1428 128.255 53.0431 128.446 52.9651 128.697C52.8871 128.94 52.8134 129.256 52.7441 129.646C52.6574 130.209 52.6444 130.634 52.7051 130.92C52.7658 131.206 52.9001 131.397 53.1081 131.492C53.3161 131.587 53.6064 131.635 53.9791 131.635C54.1871 131.635 54.4384 131.631 54.7331 131.622C55.0278 131.605 55.3268 131.587 55.6301 131.57C55.9421 131.544 56.2238 131.518 56.4751 131.492L56.6051 132.688C56.3451 132.801 56.0504 132.892 55.7211 132.961C55.3918 133.03 55.0581 133.078 54.7201 133.104C54.3821 133.139 54.0658 133.156 53.7711 133.156C52.9131 133.156 52.2458 133.026 51.7691 132.766C51.3011 132.506 50.9891 132.12 50.8331 131.609C50.6771 131.089 50.6424 130.452 50.7291 129.698C50.8071 129.031 50.9371 128.485 51.1191 128.06C51.3098 127.635 51.5524 127.306 51.8471 127.072C52.1504 126.829 52.5188 126.66 52.9521 126.565C53.3854 126.461 53.8838 126.409 54.4471 126.409ZM62.955 126.409C63.4663 126.409 63.8693 126.522 64.164 126.747C64.4673 126.972 64.6667 127.336 64.762 127.839C64.8573 128.342 64.8443 129.009 64.723 129.841C64.6363 130.413 64.515 130.907 64.359 131.323C64.203 131.739 63.9907 132.086 63.722 132.363C63.462 132.632 63.1327 132.831 62.734 132.961C62.344 133.091 61.8673 133.156 61.304 133.156C61.0613 133.156 60.784 133.143 60.472 133.117C60.1687 133.1 59.8567 133.069 59.536 133.026C59.2153 132.983 58.912 132.931 58.626 132.87C58.3487 132.809 58.106 132.736 57.898 132.649L59.302 131.648C59.4927 131.674 59.6963 131.7 59.913 131.726C60.1383 131.743 60.3507 131.761 60.55 131.778C60.7493 131.787 60.9097 131.787 61.031 131.778C61.3343 131.778 61.5813 131.752 61.772 131.7C61.9627 131.639 62.1187 131.535 62.24 131.388C62.37 131.241 62.474 131.033 62.552 130.764C62.63 130.487 62.6993 130.131 62.76 129.698C62.838 129.221 62.8683 128.857 62.851 128.606C62.8423 128.355 62.786 128.186 62.682 128.099C62.578 128.004 62.4177 127.956 62.201 127.956C61.889 127.956 61.551 128.064 61.187 128.281C60.8317 128.489 60.446 128.771 60.03 129.126L59.744 128.45C59.9087 128.199 60.108 127.952 60.342 127.709C60.5847 127.466 60.8447 127.25 61.122 127.059C61.3993 126.86 61.694 126.704 62.006 126.591C62.318 126.47 62.6343 126.409 62.955 126.409ZM61.057 123.9L60.771 126.006C60.7363 126.318 60.6843 126.613 60.615 126.89C60.5543 127.167 60.4677 127.453 60.355 127.748L60.511 127.878L59.822 132.74L57.898 132.649L59.133 123.9H61.057ZM67.9954 126.578L68.0084 128.112L68.1774 128.294L67.5274 133H65.6034L66.5004 126.578H67.9954ZM71.1414 126.409L70.7254 128.19H70.2574C69.9541 128.19 69.6248 128.259 69.2694 128.398C68.9228 128.528 68.4851 128.727 67.9564 128.996L67.8784 127.865C68.3898 127.388 68.8881 127.029 69.3734 126.786C69.8588 126.535 70.3181 126.409 70.7514 126.409H71.1414ZM74.9881 126.409C75.7768 126.409 76.3835 126.496 76.8081 126.669C77.2415 126.834 77.5318 127.085 77.6791 127.423C77.8265 127.752 77.8611 128.16 77.7831 128.645C77.7225 129.044 77.5881 129.36 77.3801 129.594C77.1808 129.819 76.9035 129.988 76.5481 130.101C76.1928 130.214 75.7421 130.292 75.1961 130.335L71.9201 130.608L72.0631 129.542L74.8191 129.269C75.0531 129.243 75.2438 129.208 75.3911 129.165C75.5471 129.113 75.6685 129.035 75.7551 128.931C75.8418 128.818 75.8981 128.662 75.9241 128.463C75.9588 128.255 75.9458 128.099 75.8851 127.995C75.8245 127.891 75.7161 127.826 75.5601 127.8C75.4041 127.765 75.1961 127.752 74.9361 127.761C74.6675 127.761 74.4421 127.787 74.2601 127.839C74.0781 127.891 73.9265 127.986 73.8051 128.125C73.6838 128.255 73.5841 128.446 73.5061 128.697C73.4281 128.94 73.3545 129.256 73.2851 129.646C73.1985 130.209 73.1855 130.634 73.2461 130.92C73.3068 131.206 73.4411 131.397 73.6491 131.492C73.8571 131.587 74.1475 131.635 74.5201 131.635C74.7281 131.635 74.9795 131.631 75.2741 131.622C75.5688 131.605 75.8678 131.587 76.1711 131.57C76.4831 131.544 76.7648 131.518 77.0161 131.492L77.1461 132.688C76.8861 132.801 76.5915 132.892 76.2621 132.961C75.9328 133.03 75.5991 133.078 75.2611 133.104C74.9231 133.139 74.6068 133.156 74.3121 133.156C73.4541 133.156 72.7868 133.026 72.3101 132.766C71.8421 132.506 71.5301 132.12 71.3741 131.609C71.2181 131.089 71.1835 130.452 71.2701 129.698C71.3481 129.031 71.4781 128.485 71.6601 128.06C71.8508 127.635 72.0935 127.306 72.3881 127.072C72.6915 126.829 73.0598 126.66 73.4931 126.565C73.9265 126.461 74.4248 126.409 74.9881 126.409ZM80.688 126.578L81.078 131.713H81.208C81.3293 131.713 81.4333 131.665 81.52 131.57C81.6067 131.466 81.6933 131.297 81.78 131.063C81.858 130.881 81.936 130.664 82.014 130.413C82.1007 130.162 82.1787 129.884 82.248 129.581C82.3173 129.338 82.378 129.096 82.43 128.853C82.482 128.61 82.5297 128.346 82.573 128.06C82.625 127.765 82.6813 127.432 82.742 127.059C82.7593 126.946 82.8113 126.838 82.898 126.734C82.9933 126.63 83.132 126.578 83.314 126.578H85.03C85.1773 126.578 85.2987 126.626 85.394 126.721C85.4893 126.816 85.5413 126.929 85.55 127.059L85.888 131.713H86.005C86.1437 131.713 86.2477 131.648 86.317 131.518C86.3863 131.379 86.4557 131.21 86.525 131.011C86.6377 130.742 86.7373 130.487 86.824 130.244C86.9193 129.993 87.0147 129.694 87.11 129.347C87.2313 128.922 87.3353 128.489 87.422 128.047C87.5087 127.596 87.5867 127.107 87.656 126.578H89.593C89.5237 126.942 89.45 127.306 89.372 127.67C89.294 128.034 89.2073 128.389 89.112 128.736C89.0167 129.083 88.9083 129.425 88.787 129.763C88.6483 130.17 88.501 130.56 88.345 130.933C88.189 131.297 88.046 131.605 87.916 131.856C87.786 132.116 87.6387 132.333 87.474 132.506C87.318 132.671 87.1187 132.796 86.876 132.883C86.6333 132.961 86.317 133 85.927 133H85.056C84.9 133 84.77 132.952 84.666 132.857C84.562 132.753 84.5057 132.627 84.497 132.48L84.211 127.761H84.055C84.0377 127.917 84.0073 128.116 83.964 128.359C83.9293 128.593 83.8817 128.849 83.821 129.126C83.7603 129.395 83.6953 129.663 83.626 129.932C83.574 130.14 83.5133 130.352 83.444 130.569C83.3833 130.777 83.3183 130.976 83.249 131.167C83.1797 131.349 83.1103 131.514 83.041 131.661C82.9023 132.06 82.7333 132.354 82.534 132.545C82.3347 132.736 82.1093 132.861 81.858 132.922C81.6067 132.974 81.325 133 81.013 133H79.973C79.817 133 79.687 132.952 79.583 132.857C79.4877 132.753 79.4313 132.627 79.414 132.48L78.725 126.578H80.688Z" fill="white"/>
<rect x="27" y="48" width="58" height="48" rx="2" fill="#4F4F4F"/>
<rect x="25.5" y="46.5" width="61" height="51" rx="3.5" stroke="white" stroke-opacity="0.3" stroke-width="3"/>
<rect x="26.5" y="47.5" width="59" height="49" rx="2.5" fill="#4F4F4F" stroke="#333333"/>
<line x1="27" y1="56.5" x2="85" y2="56.5" stroke="#333333"/>
<path d="M27 50C27 48.8954 27.8954 48 29 48H83C84.1046 48 85 48.8954 85 50V56H27V50Z" fill="#828282"/>
<path d="M79 50L83 54M83 50L79 54" stroke="#BDBDBD"/>
<path d="M33.36 74.112C32.656 74.016 32.0373 73.824 31.504 73.536C30.9707 73.248 30.5653 72.88 30.288 72.432L31.728 70.96C31.9733 71.312 32.2827 71.5893 32.656 71.792C33.0293 71.9947 33.4187 72.1387 33.824 72.224L34.336 69.184L34.016 69.088C32.2987 68.5867 31.44 67.6373 31.44 66.24C31.44 65.2373 31.776 64.416 32.448 63.776C33.1307 63.136 34.0693 62.768 35.264 62.672L35.536 61.024H37.328L37.04 62.768C37.5733 62.8853 38.048 63.072 38.464 63.328C38.88 63.5733 39.2107 63.872 39.456 64.224L37.984 65.664C37.8027 65.4187 37.5947 65.216 37.36 65.056C37.136 64.896 36.8693 64.7733 36.56 64.688L36.096 67.472L36.32 67.536C37.12 67.7813 37.7653 68.128 38.256 68.576C38.7467 69.0133 38.992 69.6107 38.992 70.368C38.992 70.8907 38.9067 71.3707 38.736 71.808C38.5653 72.2453 38.3147 72.6293 37.984 72.96C37.6533 73.28 37.248 73.5467 36.768 73.76C36.2987 73.9627 35.7547 74.096 35.136 74.16L34.864 75.808H33.072L33.36 74.112ZM33.712 65.984C33.712 66.272 33.792 66.4907 33.952 66.64C34.112 66.7787 34.3627 66.9067 34.704 67.024L35.088 64.656C34.608 64.7413 34.256 64.9067 34.032 65.152C33.8187 65.3973 33.712 65.6747 33.712 65.984ZM36.704 70.624C36.704 70.368 36.624 70.1653 36.464 70.016C36.304 69.856 36.0587 69.7173 35.728 69.6L35.312 72.192C36.24 71.9893 36.704 71.4667 36.704 70.624ZM39.4017 77.056L39.7218 75.152H47.3218L47.0018 77.056H39.4017Z" fill="white"/>
</g>
<defs>
<clipPath id="clip0_101_120">
<rect width="112" height="160" rx="6" fill="white"/>
</clipPath>
</defs>
</svg>
