<svg width="112" height="160" viewBox="0 0 112 160" fill="none" xmlns="http://www.w3.org/2000/svg">
<g clip-path="url(#clip0_24_23)">
<path d="M1 7C1 3.6863 3.68629 1 7 1H105C108.314 1 111 3.68629 111 7V152C111 155.314 108.314 158 105 158H7C3.68629 158 1 155.314 1 152V7Z" fill="#393B4E"/>
<path fill-rule="evenodd" clip-rule="evenodd" d="M7 0C3.13401 0 0 3.13401 0 7V153C0 156.866 3.13401 160 7 160H105C108.866 160 112 156.866 112 153V7C112 3.13401 108.866 0 105 0H7ZM7 1C3.68629 1 1 3.68629 1 7C1 7 1 7 1 7V152C1 152.165 1.00666 152.328 1.01973 152.49C1.2691 155.575 3.85131 158 7 158H105C108.149 158 110.731 155.575 110.98 152.49C110.993 152.328 111 152.165 111 152V7C111 3.68629 108.314 1 105 1H7Z" fill="black" fill-opacity="0.3"/>
<rect x="26" y="42" width="60" height="60" rx="4" fill="#F5F5F5"/>
<rect x="24.5" y="40.5" width="63" height="63" rx="5.5" stroke="white" stroke-opacity="0.3" stroke-width="3"/>
<rect x="25.5" y="41.5" width="61" height="61" rx="4.5" fill="#F5F5F5" stroke="#333333"/>
<rect x="27.7646" y="43.7647" width="56.4706" height="47.6471" rx="2" fill="#56CCF2"/>
<rect x="28.2646" y="44.2647" width="55.4706" height="46.6471" rx="1.5" stroke="black" stroke-opacity="0.2"/>
<path d="M42.7646 70.2353L27.7646 85.2353V89.4118C27.7646 90.5163 28.6601 91.4118 29.7646 91.4118H63.9411L42.7646 70.2353Z" fill="#23804A"/>
<path d="M28.2646 89.4118V85.4424L42.7646 70.9424L62.734 90.9118H29.7646C28.9362 90.9118 28.2646 90.2402 28.2646 89.4118Z" stroke="black" stroke-opacity="0.2"/>
<path d="M70.9999 63.1765L84.2352 76.4118V89.4118C84.2352 90.5163 83.3398 91.4118 82.2352 91.4118H42.7646L70.9999 63.1765Z" fill="#27AE60"/>
<path d="M70.9999 63.8836L83.7352 76.6189V89.4118C83.7352 90.2402 83.0637 90.9118 82.2352 90.9118H43.9718L70.9999 63.8836Z" stroke="black" stroke-opacity="0.2"/>
<circle cx="49.8236" cy="55.2353" r="6.67647" fill="#F3BE54" stroke="#F2994A"/>
<path d="M22.221 123.861C22.689 123.861 23.1787 123.891 23.69 123.952C24.2014 124.004 24.691 124.095 25.159 124.225L24.977 125.538C24.6997 125.529 24.4007 125.525 24.08 125.525C23.768 125.516 23.4474 125.512 23.118 125.512C22.7887 125.503 22.455 125.499 22.117 125.499C21.9004 125.499 21.7054 125.508 21.532 125.525C21.3674 125.534 21.2244 125.564 21.103 125.616C20.9904 125.668 20.8994 125.755 20.83 125.876C20.7607 125.989 20.7087 126.145 20.674 126.344C20.6567 126.517 20.661 126.665 20.687 126.786C20.7217 126.899 20.7954 126.998 20.908 127.085C21.0207 127.163 21.1897 127.25 21.415 127.345L23.04 128.021C23.5167 128.22 23.8764 128.441 24.119 128.684C24.3617 128.927 24.5177 129.213 24.587 129.542C24.6564 129.863 24.6607 130.244 24.6 130.686C24.522 131.353 24.353 131.869 24.093 132.233C23.833 132.588 23.4604 132.835 22.975 132.974C22.4897 133.104 21.8527 133.169 21.064 133.169C20.7434 133.169 20.3014 133.143 19.738 133.091C19.1834 133.048 18.5854 132.957 17.944 132.818L18.139 131.414C18.6504 131.423 19.0924 131.436 19.465 131.453C19.8377 131.462 20.1497 131.47 20.401 131.479C20.6524 131.479 20.8517 131.479 20.999 131.479C21.3717 131.479 21.6707 131.457 21.896 131.414C22.1214 131.362 22.2904 131.275 22.403 131.154C22.5244 131.024 22.6024 130.833 22.637 130.582C22.663 130.391 22.6587 130.24 22.624 130.127C22.598 130.014 22.5287 129.923 22.416 129.854C22.312 129.776 22.1647 129.698 21.974 129.62L20.258 128.879C19.7987 128.68 19.4477 128.454 19.205 128.203C18.9624 127.943 18.8064 127.653 18.737 127.332C18.6677 127.003 18.659 126.643 18.711 126.253C18.7717 125.759 18.8887 125.356 19.062 125.044C19.2354 124.723 19.465 124.481 19.751 124.316C20.0457 124.143 20.3967 124.026 20.804 123.965C21.22 123.896 21.6924 123.861 22.221 123.861ZM29.2677 126.409C29.6751 126.409 30.1084 126.444 30.5677 126.513C31.0271 126.574 31.4301 126.678 31.7767 126.825L31.5037 128.008C31.1224 127.991 30.7584 127.982 30.4117 127.982C30.0651 127.973 29.7704 127.969 29.5277 127.969C29.1464 127.969 28.8344 128.021 28.5917 128.125C28.3491 128.229 28.1627 128.415 28.0327 128.684C27.9027 128.944 27.8074 129.312 27.7467 129.789C27.6774 130.292 27.6687 130.673 27.7207 130.933C27.7727 131.193 27.8984 131.371 28.0977 131.466C28.3057 131.561 28.5961 131.609 28.9687 131.609C29.1247 131.609 29.3111 131.605 29.5277 131.596C29.7531 131.587 29.9957 131.579 30.2557 131.57C30.5157 131.553 30.7671 131.527 31.0097 131.492L31.1397 132.74C30.7671 132.887 30.3554 132.991 29.9047 133.052C29.4627 133.121 29.0381 133.156 28.6307 133.156C27.8767 133.156 27.2657 133.043 26.7977 132.818C26.3297 132.584 26.0047 132.216 25.8227 131.713C25.6494 131.202 25.6191 130.534 25.7317 129.711C25.8531 128.914 26.0394 128.277 26.2907 127.8C26.5507 127.315 26.9191 126.964 27.3957 126.747C27.8811 126.522 28.5051 126.409 29.2677 126.409ZM34.5687 126.578L34.5817 128.112L34.7507 128.294L34.1007 133H32.1767L33.0737 126.578H34.5687ZM37.7147 126.409L37.2987 128.19H36.8307C36.5274 128.19 36.198 128.259 35.8427 128.398C35.496 128.528 35.0584 128.727 34.5297 128.996L34.4517 127.865C34.963 127.388 35.4614 127.029 35.9467 126.786C36.432 126.535 36.8914 126.409 37.3247 126.409H37.7147ZM41.5614 126.409C42.35 126.409 42.9567 126.496 43.3814 126.669C43.8147 126.834 44.105 127.085 44.2524 127.423C44.3997 127.752 44.4344 128.16 44.3564 128.645C44.2957 129.044 44.1614 129.36 43.9534 129.594C43.754 129.819 43.4767 129.988 43.1214 130.101C42.766 130.214 42.3154 130.292 41.7694 130.335L38.4934 130.608L38.6364 129.542L41.3924 129.269C41.6264 129.243 41.817 129.208 41.9644 129.165C42.1204 129.113 42.2417 129.035 42.3284 128.931C42.415 128.818 42.4714 128.662 42.4974 128.463C42.532 128.255 42.519 128.099 42.4584 127.995C42.3977 127.891 42.2894 127.826 42.1334 127.8C41.9774 127.765 41.7694 127.752 41.5094 127.761C41.2407 127.761 41.0154 127.787 40.8334 127.839C40.6514 127.891 40.4997 127.986 40.3784 128.125C40.257 128.255 40.1574 128.446 40.0794 128.697C40.0014 128.94 39.9277 129.256 39.8584 129.646C39.7717 130.209 39.7587 130.634 39.8194 130.92C39.88 131.206 40.0144 131.397 40.2224 131.492C40.4304 131.587 40.7207 131.635 41.0934 131.635C41.3014 131.635 41.5527 131.631 41.8474 131.622C42.142 131.605 42.441 131.587 42.7444 131.57C43.0564 131.544 43.338 131.518 43.5894 131.492L43.7194 132.688C43.4594 132.801 43.1647 132.892 42.8354 132.961C42.506 133.03 42.1724 133.078 41.8344 133.104C41.4964 133.139 41.18 133.156 40.8854 133.156C40.0274 133.156 39.36 133.026 38.8834 132.766C38.4154 132.506 38.1034 132.12 37.9474 131.609C37.7914 131.089 37.7567 130.452 37.8434 129.698C37.9214 129.031 38.0514 128.485 38.2334 128.06C38.424 127.635 38.6667 127.306 38.9614 127.072C39.2647 126.829 39.633 126.66 40.0664 126.565C40.4997 126.461 40.998 126.409 41.5614 126.409ZM48.8993 126.409C49.6879 126.409 50.2946 126.496 50.7193 126.669C51.1526 126.834 51.4429 127.085 51.5903 127.423C51.7376 127.752 51.7723 128.16 51.6943 128.645C51.6336 129.044 51.4993 129.36 51.2913 129.594C51.0919 129.819 50.8146 129.988 50.4593 130.101C50.1039 130.214 49.6533 130.292 49.1073 130.335L45.8313 130.608L45.9743 129.542L48.7303 129.269C48.9643 129.243 49.1549 129.208 49.3023 129.165C49.4583 129.113 49.5796 129.035 49.6663 128.931C49.7529 128.818 49.8093 128.662 49.8353 128.463C49.8699 128.255 49.8569 128.099 49.7963 127.995C49.7356 127.891 49.6273 127.826 49.4713 127.8C49.3153 127.765 49.1073 127.752 48.8473 127.761C48.5786 127.761 48.3533 127.787 48.1713 127.839C47.9893 127.891 47.8376 127.986 47.7163 128.125C47.5949 128.255 47.4953 128.446 47.4173 128.697C47.3393 128.94 47.2656 129.256 47.1963 129.646C47.1096 130.209 47.0966 130.634 47.1573 130.92C47.2179 131.206 47.3523 131.397 47.5603 131.492C47.7683 131.587 48.0586 131.635 48.4313 131.635C48.6393 131.635 48.8906 131.631 49.1853 131.622C49.4799 131.605 49.7789 131.587 50.0823 131.57C50.3943 131.544 50.6759 131.518 50.9273 131.492L51.0573 132.688C50.7973 132.801 50.5026 132.892 50.1733 132.961C49.8439 133.03 49.5103 133.078 49.1723 133.104C48.8343 133.139 48.5179 133.156 48.2233 133.156C47.3653 133.156 46.6979 133.026 46.2213 132.766C45.7533 132.506 45.4413 132.12 45.2853 131.609C45.1293 131.089 45.0946 130.452 45.1813 129.698C45.2593 129.031 45.3893 128.485 45.5713 128.06C45.7619 127.635 46.0046 127.306 46.2993 127.072C46.6026 126.829 46.9709 126.66 47.4043 126.565C47.8376 126.461 48.3359 126.409 48.8993 126.409ZM57.6671 126.409C58.0225 126.409 58.3301 126.478 58.5901 126.617C58.8501 126.747 59.0408 126.946 59.1621 127.215C59.2835 127.484 59.3181 127.822 59.2661 128.229L58.5901 133H56.6531L57.2511 128.814C57.2945 128.519 57.2771 128.316 57.1991 128.203C57.1298 128.082 56.9738 128.025 56.7311 128.034C56.4451 128.043 56.1418 128.134 55.8211 128.307C55.5091 128.48 55.1278 128.749 54.6771 129.113L54.4561 128.138C54.9675 127.592 55.4961 127.167 56.0421 126.864C56.5968 126.561 57.1385 126.409 57.6671 126.409ZM54.7291 126.578V128.268L54.8851 128.45L54.2481 133H52.3241L53.2211 126.578H54.7291ZM63.3824 126.409C63.703 126.409 64.0454 126.422 64.4094 126.448C64.7734 126.474 65.1244 126.504 65.4624 126.539C65.809 126.574 66.108 126.613 66.3594 126.656L66.1774 127.852C65.7614 127.843 65.3454 127.839 64.9294 127.839C64.522 127.83 64.106 127.822 63.6814 127.813C63.352 127.813 63.0877 127.822 62.8884 127.839C62.6977 127.848 62.559 127.882 62.4724 127.943C62.3857 127.995 62.3337 128.082 62.3164 128.203C62.299 128.359 62.3424 128.48 62.4464 128.567C62.559 128.654 62.7497 128.745 63.0184 128.84L64.6174 129.412C64.9554 129.533 65.2327 129.676 65.4494 129.841C65.666 130.006 65.8177 130.209 65.9044 130.452C65.9997 130.695 66.0257 130.989 65.9824 131.336C65.9217 131.856 65.757 132.246 65.4884 132.506C65.2284 132.757 64.8774 132.926 64.4354 133.013C64.002 133.1 63.4734 133.143 62.8494 133.143C62.5114 133.143 62.195 133.134 61.9004 133.117C61.6144 133.108 61.3154 133.082 61.0034 133.039C60.7 133.004 60.3577 132.961 59.9764 132.909L60.1454 131.713C60.31 131.722 60.5094 131.73 60.7434 131.739C60.986 131.739 61.2374 131.743 61.4974 131.752C61.766 131.752 62.0174 131.752 62.2514 131.752C62.7454 131.743 63.1224 131.726 63.3824 131.7C63.6424 131.674 63.8244 131.631 63.9284 131.57C64.041 131.501 64.1104 131.401 64.1364 131.271C64.1537 131.158 64.1364 131.072 64.0844 131.011C64.041 130.95 63.9587 130.894 63.8374 130.842C63.7247 130.79 63.5687 130.729 63.3694 130.66L61.8094 130.075C61.454 129.945 61.168 129.789 60.9514 129.607C60.7434 129.425 60.6004 129.204 60.5224 128.944C60.453 128.684 60.44 128.389 60.4834 128.06C60.5354 127.661 60.6654 127.345 60.8734 127.111C61.0814 126.868 61.389 126.691 61.7964 126.578C62.2037 126.465 62.7324 126.409 63.3824 126.409ZM72.2528 126.409C72.8508 126.409 73.2928 126.565 73.5788 126.877C73.8735 127.189 73.9775 127.64 73.8908 128.229L73.2148 133H71.2908L71.9018 128.749C71.9365 128.472 71.9192 128.285 71.8498 128.19C71.7805 128.086 71.6418 128.034 71.4338 128.034C71.1218 128.034 70.8055 128.125 70.4848 128.307C70.1642 128.48 69.7742 128.749 69.3148 129.113L69.0938 128.138C69.6745 127.549 70.2248 127.115 70.7448 126.838C71.2735 126.552 71.7762 126.409 72.2528 126.409ZM70.1598 123.9L69.8478 126.162C69.7958 126.569 69.7135 126.968 69.6008 127.358C69.4968 127.748 69.4015 128.056 69.3148 128.281L69.5098 128.437L68.8858 133H66.9618L68.2358 123.9H70.1598ZM78.6181 126.409C79.4067 126.409 80.0394 126.526 80.5161 126.76C80.9927 126.985 81.3134 127.349 81.4781 127.852C81.6514 128.355 81.6774 129.031 81.5561 129.88C81.4434 130.686 81.2484 131.332 80.9711 131.817C80.7024 132.294 80.3211 132.636 79.8271 132.844C79.3331 133.052 78.6917 133.156 77.9031 133.156C77.1231 133.156 76.4904 133.043 76.0051 132.818C75.5284 132.593 75.1991 132.229 75.0171 131.726C74.8437 131.223 74.8134 130.556 74.9261 129.724C75.0474 128.909 75.2424 128.264 75.5111 127.787C75.7797 127.302 76.1654 126.951 76.6681 126.734C77.1794 126.517 77.8294 126.409 78.6181 126.409ZM78.5921 127.813C78.2454 127.813 77.9637 127.869 77.7471 127.982C77.5391 128.095 77.3701 128.298 77.2401 128.593C77.1187 128.888 77.0191 129.317 76.9411 129.88C76.8717 130.374 76.8501 130.76 76.8761 131.037C76.9107 131.314 77.0147 131.505 77.1881 131.609C77.3614 131.713 77.6171 131.765 77.9551 131.765C78.3017 131.765 78.5791 131.709 78.7871 131.596C78.9951 131.475 79.1597 131.267 79.2811 130.972C79.4024 130.677 79.5021 130.261 79.5801 129.724C79.6494 129.213 79.6667 128.823 79.6321 128.554C79.6061 128.277 79.5064 128.086 79.3331 127.982C79.1684 127.869 78.9214 127.813 78.5921 127.813ZM85.9889 124.797L85.1049 130.985C85.0702 131.219 85.0919 131.379 85.1699 131.466C85.2479 131.553 85.4125 131.596 85.6639 131.596H86.5349L86.6259 132.909C86.4612 132.961 86.2619 133.004 86.0279 133.039C85.8025 133.082 85.5815 133.113 85.3649 133.13C85.1482 133.147 84.9705 133.156 84.8319 133.156C84.2339 133.156 83.7789 132.996 83.4669 132.675C83.1635 132.346 83.0552 131.904 83.1419 131.349L84.0909 124.797H85.9889ZM87.5229 126.578L87.3409 127.839H82.5049L82.6609 126.643L83.9089 126.578H87.5229ZM90.9185 126.409C91.2392 126.409 91.5815 126.422 91.9455 126.448C92.3095 126.474 92.6605 126.504 92.9985 126.539C93.3452 126.574 93.6442 126.613 93.8955 126.656L93.7135 127.852C93.2975 127.843 92.8815 127.839 92.4655 127.839C92.0582 127.83 91.6422 127.822 91.2175 127.813C90.8882 127.813 90.6238 127.822 90.4245 127.839C90.2338 127.848 90.0952 127.882 90.0085 127.943C89.9218 127.995 89.8698 128.082 89.8525 128.203C89.8352 128.359 89.8785 128.48 89.9825 128.567C90.0952 128.654 90.2858 128.745 90.5545 128.84L92.1535 129.412C92.4915 129.533 92.7688 129.676 92.9855 129.841C93.2022 130.006 93.3538 130.209 93.4405 130.452C93.5358 130.695 93.5618 130.989 93.5185 131.336C93.4578 131.856 93.2932 132.246 93.0245 132.506C92.7645 132.757 92.4135 132.926 91.9715 133.013C91.5382 133.1 91.0095 133.143 90.3855 133.143C90.0475 133.143 89.7312 133.134 89.4365 133.117C89.1505 133.108 88.8515 133.082 88.5395 133.039C88.2362 133.004 87.8938 132.961 87.5125 132.909L87.6815 131.713C87.8462 131.722 88.0455 131.73 88.2795 131.739C88.5222 131.739 88.7735 131.743 89.0335 131.752C89.3022 131.752 89.5535 131.752 89.7875 131.752C90.2815 131.743 90.6585 131.726 90.9185 131.7C91.1785 131.674 91.3605 131.631 91.4645 131.57C91.5772 131.501 91.6465 131.401 91.6725 131.271C91.6898 131.158 91.6725 131.072 91.6205 131.011C91.5772 130.95 91.4948 130.894 91.3735 130.842C91.2608 130.79 91.1048 130.729 90.9055 130.66L89.3455 130.075C88.9902 129.945 88.7042 129.789 88.4875 129.607C88.2795 129.425 88.1365 129.204 88.0585 128.944C87.9892 128.684 87.9762 128.389 88.0195 128.06C88.0715 127.661 88.2015 127.345 88.4095 127.111C88.6175 126.868 88.9252 126.691 89.3325 126.578C89.7398 126.465 90.2685 126.409 90.9185 126.409Z" fill="white"/>
</g>
<defs>
<clipPath id="clip0_24_23">
<rect width="112" height="160" rx="6" fill="white"/>
</clipPath>
</defs>
</svg>
