<svg width="112" height="160" viewBox="0 0 112 160" fill="none" xmlns="http://www.w3.org/2000/svg">
<g clip-path="url(#clip0_117_23)">
<path d="M1 7C1 3.6863 3.68629 1 7 1H105C108.314 1 111 3.68629 111 7V152C111 155.314 108.314 158 105 158H7C3.68629 158 1 155.314 1 152V7Z" fill="#393B4E"/>
<path fill-rule="evenodd" clip-rule="evenodd" d="M7 0C3.13401 0 0 3.13401 0 7V153C0 156.866 3.13401 160 7 160H105C108.866 160 112 156.866 112 153V7C112 3.13401 108.866 0 105 0H7ZM7 1C3.68629 1 1 3.68629 1 7C1 7 1 7 1 7V152C1 152.165 1.00666 152.328 1.01973 152.49C1.2691 155.575 3.85131 158 7 158H105C108.149 158 110.731 155.575 110.98 152.49C110.993 152.328 111 152.165 111 152V7C111 3.68629 108.314 1 105 1H7Z" fill="black" fill-opacity="0.3"/>
<rect x="21.5" y="56.5" width="69" height="32" rx="1.5" fill="#4F4F4F" stroke="#333333"/>
<path d="M25 56.5H25.5V57V88V88.5H25H23C22.1716 88.5 21.5 87.8284 21.5 87V58C21.5 57.1716 22.1716 56.5 23 56.5H25Z" fill="#828282" fill-opacity="0.4" stroke="#333333"/>
<path d="M54 56.5H53.5V57V64C53.5 64.8284 54.1716 65.5 55 65.5H90H90.5V65V58C90.5 57.1716 89.8284 56.5 89 56.5H54Z" fill="#828282" fill-opacity="0.4" stroke="#333333"/>
<path d="M54 88.5H53.5V88V85C53.5 84.1716 54.1716 83.5 55 83.5H90H90.5V84V87C90.5 87.8284 89.8284 88.5 89 88.5H54Z" fill="#828282" fill-opacity="0.4" stroke="#333333"/>
<rect x="67" y="67" width="10" height="2" rx="0.5" fill="#EB5757"/>
<rect x="67" y="70" width="10" height="12" rx="0.5" fill="#BDBDBD"/>
<circle cx="72" cy="76" r="4" fill="#333333"/>
<circle cx="72" cy="76" r="4.25" stroke="black" stroke-opacity="0.15" stroke-width="0.5"/>
<circle cx="72" cy="76" r="4" fill="#333333"/>
<rect x="78" y="67" width="10" height="2" rx="0.5" fill="#EB5757"/>
<rect x="78" y="70" width="10" height="12" rx="0.5" fill="#BDBDBD"/>
<circle cx="83" cy="76" r="4" fill="#333333"/>
<circle cx="83" cy="76" r="4.25" stroke="black" stroke-opacity="0.15" stroke-width="0.5"/>
<circle cx="83" cy="76" r="4" fill="#333333"/>
<rect x="56" y="70" width="1" height="11" rx="0.5" fill="#828282"/>
<rect x="54" y="70" width="1" height="11" rx="0.5" fill="#828282"/>
<rect x="58" y="70" width="1" height="11" rx="0.5" fill="#828282"/>
<rect x="60" y="70" width="1" height="11" rx="0.5" fill="#828282"/>
<rect x="62" y="70" width="1" height="11" rx="0.5" fill="#828282"/>
<rect x="64" y="70" width="1" height="11" rx="0.5" fill="#828282"/>
<rect x="28.5" y="61.5" width="22" height="22" rx="2.5" stroke="#EB5757"/>
<rect x="30" y="63" width="19" height="19" rx="1" fill="#BDBDBD"/>
<path d="M30 63L49 82M49 63L30 82" stroke="#4F4F4F"/>
<rect x="31.5" y="64.5" width="16" height="16" rx="4.5" fill="#828282" stroke="#4F4F4F"/>
<rect x="32" y="65" width="15" height="15" rx="4" fill="#828282"/>
<path d="M39 66.5C39 66.2239 39.2239 66 39.5 66C39.7761 66 40 66.2239 40 66.5V68.5C40 68.7761 39.7761 69 39.5 69C39.2239 69 39 68.7761 39 68.5V66.5Z" fill="#BDBDBD"/>
<path d="M39 76.5C39 76.2239 39.2239 76 39.5 76C39.7761 76 40 76.2239 40 76.5V78.5C40 78.7761 39.7761 79 39.5 79C39.2239 79 39 78.7761 39 78.5V76.5Z" fill="#BDBDBD"/>
<path d="M33 72.5C33 72.2239 33.2239 72 33.5 72H35.5C35.7761 72 36 72.2239 36 72.5C36 72.7761 35.7761 73 35.5 73H33.5C33.2239 73 33 72.7761 33 72.5Z" fill="#BDBDBD"/>
<path d="M43 72.5C43 72.2239 43.2239 72 43.5 72H45.5C45.7761 72 46 72.2239 46 72.5C46 72.7761 45.7761 73 45.5 73H43.5C43.2239 73 43 72.7761 43 72.5Z" fill="#BDBDBD"/>
<path d="M49 72.5L48 72V73L49 72.5Z" fill="#E0E0E0"/>
<path d="M39.5 82L39 81H40L39.5 82Z" fill="#E0E0E0"/>
<path d="M30 72.5L31 73V72L30 72.5Z" fill="#E0E0E0"/>
<path d="M39.5 63L39 64H40L39.5 63Z" fill="#E0E0E0"/>
<rect x="25.5" y="86.5" width="28" height="2" fill="#828282" fill-opacity="0.4" stroke="#333333"/>
<rect x="25.5" y="56.5" width="28" height="2" fill="#828282" fill-opacity="0.4" stroke="#333333"/>
<path d="M20.1456 124.03C20.3883 124.03 20.5703 124.099 20.6916 124.238C20.8129 124.377 20.8606 124.563 20.8346 124.797L20.0156 133H18.1696L18.9366 125.564H18.7156L16.5056 131.18C16.4363 131.388 16.3366 131.54 16.2066 131.635C16.0766 131.73 15.8989 131.778 15.6736 131.778H14.4516C14.2349 131.778 14.0616 131.722 13.9316 131.609C13.8016 131.488 13.7236 131.323 13.6976 131.115L13.0216 125.564H12.7876L11.4746 133H9.64159L11.1366 124.719C11.1799 124.485 11.2579 124.312 11.3706 124.199C11.4919 124.086 11.6696 124.03 11.9036 124.03H13.7366C13.9446 124.03 14.1093 124.091 14.2306 124.212C14.3519 124.325 14.4213 124.489 14.4386 124.706L14.9976 129.204C15.0236 129.421 15.0409 129.637 15.0496 129.854C15.0583 130.062 15.0626 130.274 15.0626 130.491H15.2576C15.3269 130.257 15.3919 130.04 15.4526 129.841C15.5219 129.633 15.5956 129.429 15.6736 129.23L17.4286 124.628C17.4979 124.42 17.5976 124.268 17.7276 124.173C17.8663 124.078 18.0396 124.03 18.2476 124.03H20.1456ZM25.503 126.409C25.7283 126.409 25.9797 126.422 26.257 126.448C26.543 126.465 26.829 126.491 27.115 126.526C27.4097 126.561 27.6827 126.6 27.934 126.643C28.194 126.686 28.4063 126.73 28.571 126.773L27.258 127.813C26.9113 127.796 26.595 127.787 26.309 127.787C26.023 127.778 25.7543 127.774 25.503 127.774C25.217 127.774 24.9743 127.796 24.775 127.839C24.5757 127.882 24.411 127.969 24.281 128.099C24.151 128.22 24.0427 128.407 23.956 128.658C23.8693 128.909 23.7957 129.247 23.735 129.672C23.657 130.209 23.6137 130.621 23.605 130.907C23.605 131.184 23.657 131.375 23.761 131.479C23.865 131.583 24.0297 131.631 24.255 131.622C24.489 131.613 24.7317 131.535 24.983 131.388C25.243 131.241 25.4987 131.041 25.75 130.79C26.0013 130.53 26.244 130.24 26.478 129.919L26.816 130.543C26.6427 131.054 26.3957 131.505 26.075 131.895C25.763 132.276 25.3947 132.575 24.97 132.792C24.5453 133.009 24.073 133.13 23.553 133.156C22.9897 133.182 22.5563 133.069 22.253 132.818C21.9583 132.567 21.7763 132.177 21.707 131.648C21.6377 131.119 21.6637 130.456 21.785 129.659C21.8977 128.922 22.0537 128.337 22.253 127.904C22.461 127.462 22.721 127.137 23.033 126.929C23.345 126.712 23.7047 126.574 24.112 126.513C24.528 126.444 24.9917 126.409 25.503 126.409ZM26.673 126.656L28.571 126.773L27.7 133H26.205L26.231 131.544L25.997 131.388L26.673 126.656ZM32.5201 126.409C32.8407 126.409 33.1831 126.422 33.5471 126.448C33.9111 126.474 34.2621 126.504 34.6001 126.539C34.9467 126.574 35.2457 126.613 35.4971 126.656L35.3151 127.852C34.8991 127.843 34.4831 127.839 34.0671 127.839C33.6597 127.83 33.2437 127.822 32.8191 127.813C32.4897 127.813 32.2254 127.822 32.0261 127.839C31.8354 127.848 31.6967 127.882 31.6101 127.943C31.5234 127.995 31.4714 128.082 31.4541 128.203C31.4367 128.359 31.4801 128.48 31.5841 128.567C31.6967 128.654 31.8874 128.745 32.1561 128.84L33.7551 129.412C34.0931 129.533 34.3704 129.676 34.5871 129.841C34.8037 130.006 34.9554 130.209 35.0421 130.452C35.1374 130.695 35.1634 130.989 35.1201 131.336C35.0594 131.856 34.8947 132.246 34.6261 132.506C34.3661 132.757 34.0151 132.926 33.5731 133.013C33.1397 133.1 32.6111 133.143 31.9871 133.143C31.6491 133.143 31.3327 133.134 31.0381 133.117C30.7521 133.108 30.4531 133.082 30.1411 133.039C29.8377 133.004 29.4954 132.961 29.1141 132.909L29.2831 131.713C29.4477 131.722 29.6471 131.73 29.8811 131.739C30.1237 131.739 30.3751 131.743 30.6351 131.752C30.9037 131.752 31.1551 131.752 31.3891 131.752C31.8831 131.743 32.2601 131.726 32.5201 131.7C32.7801 131.674 32.9621 131.631 33.0661 131.57C33.1787 131.501 33.2481 131.401 33.2741 131.271C33.2914 131.158 33.2741 131.072 33.2221 131.011C33.1787 130.95 33.0964 130.894 32.9751 130.842C32.8624 130.79 32.7064 130.729 32.5071 130.66L30.9471 130.075C30.5917 129.945 30.3057 129.789 30.0891 129.607C29.8811 129.425 29.7381 129.204 29.6601 128.944C29.5907 128.684 29.5777 128.389 29.6211 128.06C29.6731 127.661 29.8031 127.345 30.0111 127.111C30.2191 126.868 30.5267 126.691 30.9341 126.578C31.3414 126.465 31.8701 126.409 32.5201 126.409ZM39.7525 124.797L38.8685 130.985C38.8339 131.219 38.8555 131.379 38.9335 131.466C39.0115 131.553 39.1762 131.596 39.4275 131.596H40.2985L40.3895 132.909C40.2249 132.961 40.0255 133.004 39.7915 133.039C39.5662 133.082 39.3452 133.113 39.1285 133.13C38.9119 133.147 38.7342 133.156 38.5955 133.156C37.9975 133.156 37.5425 132.996 37.2305 132.675C36.9272 132.346 36.8189 131.904 36.9055 131.349L37.8545 124.797H39.7525ZM41.2865 126.578L41.1045 127.839H36.2685L36.4245 126.643L37.6725 126.578H41.2865ZM45.3192 126.409C46.1078 126.409 46.7145 126.496 47.1392 126.669C47.5725 126.834 47.8628 127.085 48.0102 127.423C48.1575 127.752 48.1922 128.16 48.1142 128.645C48.0535 129.044 47.9192 129.36 47.7112 129.594C47.5118 129.819 47.2345 129.988 46.8792 130.101C46.5238 130.214 46.0732 130.292 45.5272 130.335L42.2512 130.608L42.3942 129.542L45.1502 129.269C45.3842 129.243 45.5748 129.208 45.7222 129.165C45.8782 129.113 45.9995 129.035 46.0862 128.931C46.1728 128.818 46.2292 128.662 46.2552 128.463C46.2898 128.255 46.2768 128.099 46.2162 127.995C46.1555 127.891 46.0472 127.826 45.8912 127.8C45.7352 127.765 45.5272 127.752 45.2672 127.761C44.9985 127.761 44.7732 127.787 44.5912 127.839C44.4092 127.891 44.2575 127.986 44.1362 128.125C44.0148 128.255 43.9152 128.446 43.8372 128.697C43.7592 128.94 43.6855 129.256 43.6162 129.646C43.5295 130.209 43.5165 130.634 43.5772 130.92C43.6378 131.206 43.7722 131.397 43.9802 131.492C44.1882 131.587 44.4785 131.635 44.8512 131.635C45.0592 131.635 45.3105 131.631 45.6052 131.622C45.8998 131.605 46.1988 131.587 46.5022 131.57C46.8142 131.544 47.0958 131.518 47.3472 131.492L47.4772 132.688C47.2172 132.801 46.9225 132.892 46.5932 132.961C46.2638 133.03 45.9302 133.078 45.5922 133.104C45.2542 133.139 44.9378 133.156 44.6432 133.156C43.7852 133.156 43.1178 133.026 42.6412 132.766C42.1732 132.506 41.8612 132.12 41.7052 131.609C41.5492 131.089 41.5145 130.452 41.6012 129.698C41.6792 129.031 41.8092 128.485 41.9912 128.06C42.1818 127.635 42.4245 127.306 42.7192 127.072C43.0225 126.829 43.3908 126.66 43.8242 126.565C44.2575 126.461 44.7558 126.409 45.3192 126.409ZM51.1361 126.578L51.1491 128.112L51.3181 128.294L50.6681 133H48.7441L49.6411 126.578H51.1361ZM54.2821 126.409L53.8661 128.19H53.3981C53.0947 128.19 52.7654 128.259 52.4101 128.398C52.0634 128.528 51.6257 128.727 51.0971 128.996L51.0191 127.865C51.5304 127.388 52.0287 127.029 52.5141 126.786C52.9994 126.535 53.4587 126.409 53.8921 126.409H54.2821ZM61.056 123.861C61.524 123.861 62.0137 123.891 62.525 123.952C63.0363 124.004 63.526 124.095 63.994 124.225L63.812 125.538C63.5347 125.529 63.2357 125.525 62.915 125.525C62.603 125.516 62.2823 125.512 61.953 125.512C61.6237 125.503 61.29 125.499 60.952 125.499C60.7353 125.499 60.5403 125.508 60.367 125.525C60.2023 125.534 60.0593 125.564 59.938 125.616C59.8253 125.668 59.7343 125.755 59.665 125.876C59.5957 125.989 59.5437 126.145 59.509 126.344C59.4917 126.517 59.496 126.665 59.522 126.786C59.5567 126.899 59.6303 126.998 59.743 127.085C59.8557 127.163 60.0247 127.25 60.25 127.345L61.875 128.021C62.3517 128.22 62.7113 128.441 62.954 128.684C63.1967 128.927 63.3527 129.213 63.422 129.542C63.4913 129.863 63.4957 130.244 63.435 130.686C63.357 131.353 63.188 131.869 62.928 132.233C62.668 132.588 62.2953 132.835 61.81 132.974C61.3247 133.104 60.6877 133.169 59.899 133.169C59.5783 133.169 59.1363 133.143 58.573 133.091C58.0183 133.048 57.4203 132.957 56.779 132.818L56.974 131.414C57.4853 131.423 57.9273 131.436 58.3 131.453C58.6727 131.462 58.9847 131.47 59.236 131.479C59.4873 131.479 59.6867 131.479 59.834 131.479C60.2067 131.479 60.5057 131.457 60.731 131.414C60.9563 131.362 61.1253 131.275 61.238 131.154C61.3593 131.024 61.4373 130.833 61.472 130.582C61.498 130.391 61.4937 130.24 61.459 130.127C61.433 130.014 61.3637 129.923 61.251 129.854C61.147 129.776 60.9997 129.698 60.809 129.62L59.093 128.879C58.6337 128.68 58.2827 128.454 58.04 128.203C57.7973 127.943 57.6413 127.653 57.572 127.332C57.5027 127.003 57.494 126.643 57.546 126.253C57.6067 125.759 57.7237 125.356 57.897 125.044C58.0703 124.723 58.3 124.481 58.586 124.316C58.8807 124.143 59.2317 124.026 59.639 123.965C60.055 123.896 60.5273 123.861 61.056 123.861ZM71.5876 126.578C71.5183 127.003 71.4229 127.436 71.3016 127.878C71.1889 128.32 71.0589 128.758 70.9116 129.191C70.7643 129.624 70.6083 130.04 70.4436 130.439C70.2876 130.829 70.1273 131.193 69.9626 131.531C69.8066 131.869 69.6506 132.168 69.4946 132.428C69.0613 133.173 68.6106 133.78 68.1426 134.248C67.6746 134.716 67.1719 135.063 66.6346 135.288C66.0973 135.513 65.5079 135.643 64.8666 135.678L64.6716 134.547C64.9923 134.452 65.2956 134.343 65.5816 134.222C65.8676 134.109 66.1406 133.958 66.4006 133.767C66.6693 133.576 66.9293 133.321 67.1806 133C67.4319 132.671 67.6833 132.25 67.9346 131.739C68.1946 131.228 68.4199 130.716 68.6106 130.205C68.8099 129.694 68.9833 129.143 69.1306 128.554C69.2866 127.965 69.4253 127.306 69.5466 126.578H71.5876ZM66.6606 126.578L67.2066 131.518C67.2326 131.665 67.3193 131.739 67.4666 131.739H68.1946L67.6746 133H66.3616C66.1623 133 65.9933 132.939 65.8546 132.818C65.7159 132.697 65.6293 132.545 65.5946 132.363L64.5806 126.578H66.6606ZM75.1763 126.409C75.497 126.409 75.8393 126.422 76.2033 126.448C76.5673 126.474 76.9183 126.504 77.2563 126.539C77.603 126.574 77.902 126.613 78.1533 126.656L77.9713 127.852C77.5553 127.843 77.1393 127.839 76.7233 127.839C76.316 127.83 75.9 127.822 75.4753 127.813C75.146 127.813 74.8817 127.822 74.6823 127.839C74.4917 127.848 74.353 127.882 74.2663 127.943C74.1797 127.995 74.1277 128.082 74.1103 128.203C74.093 128.359 74.1363 128.48 74.2403 128.567C74.353 128.654 74.5437 128.745 74.8123 128.84L76.4113 129.412C76.7493 129.533 77.0267 129.676 77.2433 129.841C77.46 130.006 77.6117 130.209 77.6983 130.452C77.7937 130.695 77.8197 130.989 77.7763 131.336C77.7157 131.856 77.551 132.246 77.2823 132.506C77.0223 132.757 76.6713 132.926 76.2293 133.013C75.796 133.1 75.2673 133.143 74.6433 133.143C74.3053 133.143 73.989 133.134 73.6943 133.117C73.4083 133.108 73.1093 133.082 72.7973 133.039C72.494 133.004 72.1517 132.961 71.7703 132.909L71.9393 131.713C72.104 131.722 72.3033 131.73 72.5373 131.739C72.78 131.739 73.0313 131.743 73.2913 131.752C73.56 131.752 73.8113 131.752 74.0453 131.752C74.5393 131.743 74.9163 131.726 75.1763 131.7C75.4363 131.674 75.6183 131.631 75.7223 131.57C75.835 131.501 75.9043 131.401 75.9303 131.271C75.9477 131.158 75.9303 131.072 75.8783 131.011C75.835 130.95 75.7527 130.894 75.6313 130.842C75.5187 130.79 75.3627 130.729 75.1633 130.66L73.6033 130.075C73.248 129.945 72.962 129.789 72.7453 129.607C72.5373 129.425 72.3943 129.204 72.3163 128.944C72.247 128.684 72.234 128.389 72.2773 128.06C72.3293 127.661 72.4593 127.345 72.6673 127.111C72.8753 126.868 73.183 126.691 73.5903 126.578C73.9977 126.465 74.5263 126.409 75.1763 126.409ZM82.4088 124.797L81.5248 130.985C81.4901 131.219 81.5118 131.379 81.5898 131.466C81.6678 131.553 81.8325 131.596 82.0838 131.596H82.9548L83.0458 132.909C82.8811 132.961 82.6818 133.004 82.4478 133.039C82.2225 133.082 82.0015 133.113 81.7848 133.13C81.5681 133.147 81.3905 133.156 81.2518 133.156C80.6538 133.156 80.1988 132.996 79.8868 132.675C79.5835 132.346 79.4751 131.904 79.5618 131.349L80.5108 124.797H82.4088ZM83.9428 126.578L83.7608 127.839H78.9248L79.0808 126.643L80.3288 126.578H83.9428ZM87.9754 126.409C88.7641 126.409 89.3708 126.496 89.7954 126.669C90.2288 126.834 90.5191 127.085 90.6664 127.423C90.8138 127.752 90.8484 128.16 90.7704 128.645C90.7098 129.044 90.5754 129.36 90.3674 129.594C90.1681 129.819 89.8908 129.988 89.5354 130.101C89.1801 130.214 88.7294 130.292 88.1834 130.335L84.9074 130.608L85.0504 129.542L87.8064 129.269C88.0404 129.243 88.2311 129.208 88.3784 129.165C88.5344 129.113 88.6558 129.035 88.7424 128.931C88.8291 128.818 88.8854 128.662 88.9114 128.463C88.9461 128.255 88.9331 128.099 88.8724 127.995C88.8118 127.891 88.7034 127.826 88.5474 127.8C88.3914 127.765 88.1834 127.752 87.9234 127.761C87.6548 127.761 87.4294 127.787 87.2474 127.839C87.0654 127.891 86.9138 127.986 86.7924 128.125C86.6711 128.255 86.5714 128.446 86.4934 128.697C86.4154 128.94 86.3418 129.256 86.2724 129.646C86.1858 130.209 86.1728 130.634 86.2334 130.92C86.2941 131.206 86.4284 131.397 86.6364 131.492C86.8444 131.587 87.1348 131.635 87.5074 131.635C87.7154 131.635 87.9668 131.631 88.2614 131.622C88.5561 131.605 88.8551 131.587 89.1584 131.57C89.4704 131.544 89.7521 131.518 90.0034 131.492L90.1334 132.688C89.8734 132.801 89.5788 132.892 89.2494 132.961C88.9201 133.03 88.5864 133.078 88.2484 133.104C87.9104 133.139 87.5941 133.156 87.2994 133.156C86.4414 133.156 85.7741 133.026 85.2974 132.766C84.8294 132.506 84.5174 132.12 84.3614 131.609C84.2054 131.089 84.1708 130.452 84.2574 129.698C84.3354 129.031 84.4654 128.485 84.6474 128.06C84.8381 127.635 85.0808 127.306 85.3754 127.072C85.6788 126.829 86.0471 126.66 86.4804 126.565C86.9138 126.461 87.4121 126.409 87.9754 126.409ZM93.7923 126.578L93.8053 128.06L93.9743 128.242L93.3113 133H91.4003L92.2973 126.578H93.7923ZM96.3533 126.409C96.9513 126.409 97.3847 126.569 97.6533 126.89C97.9307 127.211 98.0303 127.657 97.9523 128.229L97.2763 133H95.4303L96.0283 128.749C96.063 128.489 96.0413 128.307 95.9633 128.203C95.8853 128.09 95.738 128.034 95.5213 128.034C95.3653 128.034 95.2007 128.069 95.0273 128.138C94.854 128.207 94.659 128.32 94.4423 128.476C94.2257 128.623 93.9613 128.831 93.6493 129.1L93.4153 128.138C93.9527 127.54 94.451 127.102 94.9103 126.825C95.3697 126.548 95.8507 126.409 96.3533 126.409ZM100.357 126.409C100.964 126.409 101.406 126.574 101.683 126.903C101.961 127.224 102.056 127.666 101.969 128.229L101.306 133H99.3953L99.9933 128.749C100.028 128.472 99.9977 128.285 99.9023 128.19C99.8157 128.086 99.677 128.034 99.4863 128.034C99.339 128.034 99.1787 128.069 99.0053 128.138C98.8407 128.199 98.65 128.307 98.4333 128.463C98.2253 128.61 97.974 128.818 97.6793 129.087L97.4323 128.138C97.9697 127.531 98.4637 127.094 98.9143 126.825C99.3737 126.548 99.8547 126.409 100.357 126.409Z" fill="white"/>
</g>
<defs>
<clipPath id="clip0_117_23">
<rect width="112" height="160" rx="6" fill="white"/>
</clipPath>
</defs>
</svg>
