<svg width="112" height="160" viewBox="0 0 112 160" fill="none" xmlns="http://www.w3.org/2000/svg">
<g clip-path="url(#clip0_117_311)">
<path d="M1 7C1 3.6863 3.68629 1 7 1H105C108.314 1 111 3.68629 111 7V152C111 155.314 108.314 158 105 158H7C3.68629 158 1 155.314 1 152V7Z" fill="#393B4E"/>
<path fill-rule="evenodd" clip-rule="evenodd" d="M7 0C3.13401 0 0 3.13401 0 7V153C0 156.866 3.13401 160 7 160H105C108.866 160 112 156.866 112 153V7C112 3.13401 108.866 0 105 0H7ZM7 1C3.68629 1 1 3.68629 1 7C1 7 1 7 1 7V152C1 152.165 1.00666 152.328 1.01973 152.49C1.2691 155.575 3.85131 158 7 158H105C108.149 158 110.731 155.575 110.98 152.49C110.993 152.328 111 152.165 111 152V7C111 3.68629 108.314 1 105 1H7Z" fill="black" fill-opacity="0.3"/>
<path d="M36 92C28.5 92 22 81 22 72C22 61.5 34 52 56 52C78 52 90 61.5 90 72C90 81 83.5 92 76 92C73.0941 92 71.8008 89.6751 70.4862 87.3121C69.539 85.6093 68.5807 83.8867 67 83C63.1166 80.8215 60.4527 80 56 80C51.5473 80 48.8834 80.8215 45 83C43.4193 83.8867 42.461 85.6093 41.5138 87.3121C40.1993 89.6751 38.9059 92 36 92Z" fill="#4F4F4F"/>
<path d="M20.5 72C20.5 76.8233 22.2283 82.1073 24.9363 86.2024C27.6094 90.2446 31.5045 93.5 36 93.5C37.9284 93.5 39.3493 92.7003 40.43 91.587C41.4204 90.5667 42.1544 89.2466 42.7779 88.1253L42.8246 88.0413C43.8261 86.241 44.5934 84.948 45.7339 84.3082C49.4249 82.2376 51.8385 81.5 56 81.5C60.1615 81.5 62.5751 82.2376 66.2661 84.3082C67.4066 84.948 68.1739 86.241 69.1754 88.0413L69.2221 88.1253C69.8456 89.2466 70.5796 90.5667 71.57 91.587C72.6507 92.7003 74.0716 93.5 76 93.5C80.4955 93.5 84.3906 90.2446 87.0637 86.2024C89.7717 82.1073 91.5 76.8233 91.5 72C91.5 66.1199 88.129 60.6921 82.0597 56.7998C76.0025 52.9153 67.1977 50.5 56 50.5C44.8023 50.5 35.9975 52.9153 29.9403 56.7998C23.871 60.6921 20.5 66.1199 20.5 72Z" stroke="white" stroke-opacity="0.3" stroke-width="3"/>
<path d="M21.5 72C21.5 76.6078 23.1594 81.7024 25.7704 85.6508C28.3698 89.5815 32.0015 92.5 36 92.5C37.6115 92.5 38.785 91.846 39.7124 90.8904C40.6095 89.9663 41.2884 88.7458 41.9323 87.5883L41.9507 87.5552C42.9161 85.8199 43.8107 84.2405 45.2446 83.4361C49.0639 81.2936 51.6444 80.5 56 80.5C60.3556 80.5 62.9361 81.2936 66.7554 83.4361C68.1893 84.2405 69.0839 85.8199 70.0493 87.5552L70.0677 87.5884C70.7116 88.7459 71.3905 89.9663 72.2876 90.8904C73.215 91.846 74.3885 92.5 76 92.5C79.9985 92.5 83.6302 89.5815 86.2296 85.6508C88.8406 81.7024 90.5 76.6078 90.5 72C90.5 66.54 87.3763 61.3974 81.5199 57.6416C75.6675 53.8884 67.0659 51.5 56 51.5C44.9341 51.5 36.3325 53.8884 30.4801 57.6416C24.6237 61.3974 21.5 66.54 21.5 72Z" fill="#569AF2" stroke="#333333"/>
<path d="M68 75C68 75 71.5272 72.3475 74 71C76.6115 69.5769 81 68 81 68" stroke="#97C0F7" stroke-width="14" stroke-linecap="round" stroke-linejoin="round"/>
<path d="M68 75C68 75 71.5272 72.3475 74 71C76.6115 69.5769 81 68 81 68" stroke="#6CA7F4" stroke-width="10" stroke-linecap="round" stroke-linejoin="round"/>
<path d="M81 71.5C82.933 71.5 84.5 69.933 84.5 68C84.5 66.067 82.933 64.5 81 64.5C79.067 64.5 77.5 66.067 77.5 68C77.5 69.933 79.067 71.5 81 71.5ZM74 74.5C75.933 74.5 77.5 72.933 77.5 71C77.5 69.067 75.933 67.5 74 67.5C72.067 67.5 70.5 69.067 70.5 71C70.5 72.933 72.067 74.5 74 74.5ZM68 78.5C69.933 78.5 71.5 76.933 71.5 75C71.5 73.067 69.933 71.5 68 71.5C66.067 71.5 64.5 73.067 64.5 75C64.5 76.933 66.067 78.5 68 78.5Z" fill="#4F4F4F" stroke="#4F4F4F"/>
<circle cx="68" cy="75" r="3" fill="#828282"/>
<circle cx="74" cy="71" r="3" fill="#828282"/>
<circle cx="81" cy="68" r="3" fill="#828282"/>
<circle cx="37.5" cy="70.5" r="10.5" fill="#97C0F7"/>
<circle opacity="0.5" cx="37.5" cy="70.5" r="8.5" fill="#569AF2"/>
<circle cx="37.5" cy="70.5" r="7" fill="#828282" stroke="#4F4F4F"/>
<path d="M38.5 64.5H36.5C35.9477 64.5 35.5 64.9477 35.5 65.5V68.5H32.5C31.9477 68.5 31.5 68.9477 31.5 69.5V71.5C31.5 72.0523 31.9477 72.5 32.5 72.5H35.5V75.5C35.5 76.0523 35.9477 76.5 36.5 76.5H38.5C39.0523 76.5 39.5 76.0523 39.5 75.5V72.5H42.5C43.0523 72.5 43.5 72.0523 43.5 71.5V69.5C43.5 68.9477 43.0523 68.5 42.5 68.5H39.5V65.5C39.5 64.9477 39.0523 64.5 38.5 64.5Z" fill="#828282" stroke="#4F4F4F"/>
<path d="M33.5 67L33 66L34 66.5L33.5 67Z" fill="#BDBDBD"/>
<path d="M41 66.5L42 66L41.5 67L41 66.5Z" fill="#BDBDBD"/>
<path d="M42 75L41.5 74L41 74.5L42 75Z" fill="#BDBDBD"/>
<path d="M33.5 74L33 75L34 74.5L33.5 74Z" fill="#BDBDBD"/>
<path d="M29 70L28 70.5L29 71V70Z" fill="#3B7BCE"/>
<path d="M37.5 61L37 62H38L37.5 61Z" fill="#3B7BCE"/>
<path d="M47 70.5L46 70V71L47 70.5Z" fill="#3B7BCE"/>
<path d="M37.5 80L37 79H38L37.5 80Z" fill="#3B7BCE"/>
<circle cx="37.5" cy="70.5" r="1.25" stroke="#4F4F4F" stroke-width="0.5"/>
<path fill-rule="evenodd" clip-rule="evenodd" d="M73.4285 60.1286C73.6336 60.6414 73.3842 61.2234 72.8714 61.4285L67.8714 63.4285C67.3586 63.6336 66.7766 63.3842 66.5715 62.8714C66.3664 62.3586 66.6158 61.7767 67.1286 61.5715L72.1286 59.5715C72.6414 59.3664 73.2234 59.6158 73.4285 60.1286Z" fill="#BDBDBD"/>
<path d="M73.0571 61.8927C73.8263 61.5851 74.2004 60.7121 73.8927 59.9429C73.585 59.1738 72.7121 58.7996 71.9429 59.1073L66.9429 61.1073C66.1737 61.415 65.7996 62.2879 66.1073 63.0571C66.4149 63.8263 67.2879 64.2004 68.0571 63.8927L73.0571 61.8927Z" stroke="black" stroke-opacity="0.4" stroke-linecap="round" stroke-linejoin="round"/>
<path d="M39.7535 124.03C39.9962 124.03 40.1782 124.099 40.2995 124.238C40.4208 124.377 40.4685 124.563 40.4425 124.797L39.6235 133H37.7775L38.5445 125.564H38.3235L36.1135 131.18C36.0442 131.388 35.9445 131.54 35.8145 131.635C35.6845 131.73 35.5068 131.778 35.2815 131.778H34.0595C33.8428 131.778 33.6695 131.722 33.5395 131.609C33.4095 131.488 33.3315 131.323 33.3055 131.115L32.6295 125.564H32.3955L31.0825 133H29.2495L30.7445 124.719C30.7878 124.485 30.8658 124.312 30.9785 124.199C31.0998 124.086 31.2775 124.03 31.5115 124.03H33.3445C33.5525 124.03 33.7172 124.091 33.8385 124.212C33.9598 124.325 34.0292 124.489 34.0465 124.706L34.6055 129.204C34.6315 129.421 34.6488 129.637 34.6575 129.854C34.6662 130.062 34.6705 130.274 34.6705 130.491H34.8655C34.9348 130.257 34.9998 130.04 35.0605 129.841C35.1298 129.633 35.2035 129.429 35.2815 129.23L37.0365 124.628C37.1058 124.42 37.2055 124.268 37.3355 124.173C37.4742 124.078 37.6475 124.03 37.8555 124.03H39.7535ZM45.0589 126.409C45.8476 126.409 46.4543 126.496 46.8789 126.669C47.3123 126.834 47.6026 127.085 47.7499 127.423C47.8973 127.752 47.9319 128.16 47.8539 128.645C47.7933 129.044 47.6589 129.36 47.4509 129.594C47.2516 129.819 46.9743 129.988 46.6189 130.101C46.2636 130.214 45.8129 130.292 45.2669 130.335L41.9909 130.608L42.1339 129.542L44.8899 129.269C45.1239 129.243 45.3146 129.208 45.4619 129.165C45.6179 129.113 45.7393 129.035 45.8259 128.931C45.9126 128.818 45.9689 128.662 45.9949 128.463C46.0296 128.255 46.0166 128.099 45.9559 127.995C45.8953 127.891 45.7869 127.826 45.6309 127.8C45.4749 127.765 45.2669 127.752 45.0069 127.761C44.7383 127.761 44.5129 127.787 44.3309 127.839C44.1489 127.891 43.9973 127.986 43.8759 128.125C43.7546 128.255 43.6549 128.446 43.5769 128.697C43.4989 128.94 43.4253 129.256 43.3559 129.646C43.2693 130.209 43.2563 130.634 43.3169 130.92C43.3776 131.206 43.5119 131.397 43.7199 131.492C43.9279 131.587 44.2183 131.635 44.5909 131.635C44.7989 131.635 45.0503 131.631 45.3449 131.622C45.6396 131.605 45.9386 131.587 46.2419 131.57C46.5539 131.544 46.8356 131.518 47.0869 131.492L47.2169 132.688C46.9569 132.801 46.6623 132.892 46.3329 132.961C46.0036 133.03 45.6699 133.078 45.3319 133.104C44.9939 133.139 44.6776 133.156 44.3829 133.156C43.5249 133.156 42.8576 133.026 42.3809 132.766C41.9129 132.506 41.6009 132.12 41.4449 131.609C41.2889 131.089 41.2543 130.452 41.3409 129.698C41.4189 129.031 41.5489 128.485 41.7309 128.06C41.9216 127.635 42.1643 127.306 42.4589 127.072C42.7623 126.829 43.1306 126.66 43.5639 126.565C43.9973 126.461 44.4956 126.409 45.0589 126.409ZM53.6708 126.656L55.5688 126.773L54.7758 132.35C54.6892 132.991 54.5375 133.524 54.3208 133.949C54.1042 134.382 53.8268 134.725 53.4888 134.976C53.1595 135.236 52.7738 135.418 52.3318 135.522C51.8985 135.626 51.4218 135.682 50.9018 135.691C50.7545 135.691 50.5291 135.687 50.2258 135.678C49.9311 135.669 49.6148 135.639 49.2768 135.587C48.9388 135.535 48.6355 135.461 48.3668 135.366L48.4838 134.261C48.6398 134.261 48.7958 134.261 48.9518 134.261C49.1165 134.27 49.3071 134.274 49.5238 134.274C49.7405 134.274 50.0091 134.27 50.3298 134.261C50.9451 134.252 51.4738 134.157 51.9158 133.975C52.3665 133.793 52.6741 133.468 52.8388 133C52.9428 132.731 53.0208 132.471 53.0728 132.22C53.1335 131.969 53.2288 131.73 53.3588 131.505L52.9948 131.362L53.6708 126.656ZM52.0458 126.409C52.4965 126.409 52.9428 126.426 53.3848 126.461C53.8355 126.496 54.2471 126.543 54.6198 126.604C55.0012 126.656 55.3132 126.712 55.5558 126.773L54.2558 127.813C53.9005 127.796 53.5755 127.787 53.2808 127.787C52.9948 127.778 52.7218 127.774 52.4618 127.774C52.1411 127.774 51.8768 127.8 51.6688 127.852C51.4695 127.904 51.3091 127.999 51.1878 128.138C51.0665 128.268 50.9668 128.459 50.8888 128.71C50.8195 128.953 50.7545 129.273 50.6938 129.672C50.6071 130.201 50.5638 130.612 50.5638 130.907C50.5725 131.193 50.6288 131.388 50.7328 131.492C50.8455 131.596 51.0101 131.639 51.2268 131.622C51.4695 131.605 51.7165 131.527 51.9678 131.388C52.2191 131.241 52.4705 131.041 52.7218 130.79C52.9731 130.539 53.2201 130.248 53.4628 129.919L53.8008 130.53C53.6275 131.033 53.3805 131.475 53.0598 131.856C52.7392 132.229 52.3621 132.523 51.9288 132.74C51.4955 132.957 51.0188 133.074 50.4988 133.091C49.9615 133.1 49.5411 132.987 49.2378 132.753C48.9431 132.51 48.7568 132.133 48.6788 131.622C48.6008 131.102 48.6225 130.448 48.7438 129.659C48.8565 128.914 49.0081 128.324 49.1988 127.891C49.3895 127.458 49.6191 127.137 49.8878 126.929C50.1651 126.712 50.4815 126.574 50.8368 126.513C51.2008 126.444 51.6038 126.409 52.0458 126.409ZM60.2057 126.409C60.431 126.409 60.6823 126.422 60.9597 126.448C61.2457 126.465 61.5317 126.491 61.8177 126.526C62.1123 126.561 62.3853 126.6 62.6367 126.643C62.8967 126.686 63.109 126.73 63.2737 126.773L61.9607 127.813C61.614 127.796 61.2977 127.787 61.0117 127.787C60.7257 127.778 60.457 127.774 60.2057 127.774C59.9197 127.774 59.677 127.796 59.4777 127.839C59.2783 127.882 59.1137 127.969 58.9837 128.099C58.8537 128.22 58.7453 128.407 58.6587 128.658C58.572 128.909 58.4983 129.247 58.4377 129.672C58.3597 130.209 58.3163 130.621 58.3077 130.907C58.3077 131.184 58.3597 131.375 58.4637 131.479C58.5677 131.583 58.7323 131.631 58.9577 131.622C59.1917 131.613 59.4343 131.535 59.6857 131.388C59.9457 131.241 60.2013 131.041 60.4527 130.79C60.704 130.53 60.9467 130.24 61.1807 129.919L61.5187 130.543C61.3453 131.054 61.0983 131.505 60.7777 131.895C60.4657 132.276 60.0973 132.575 59.6727 132.792C59.248 133.009 58.7757 133.13 58.2557 133.156C57.6923 133.182 57.259 133.069 56.9557 132.818C56.661 132.567 56.479 132.177 56.4097 131.648C56.3403 131.119 56.3663 130.456 56.4877 129.659C56.6003 128.922 56.7563 128.337 56.9557 127.904C57.1637 127.462 57.4237 127.137 57.7357 126.929C58.0477 126.712 58.4073 126.574 58.8147 126.513C59.2307 126.444 59.6943 126.409 60.2057 126.409ZM61.3757 126.656L63.2737 126.773L62.4027 133H60.9077L60.9337 131.544L60.6997 131.388L61.3757 126.656ZM71.5364 123.874C71.961 123.874 72.325 123.887 72.6284 123.913C72.9317 123.93 73.209 123.965 73.4604 124.017C73.7204 124.06 73.9804 124.121 74.2404 124.199L73.9804 125.642C73.703 125.625 73.4387 125.612 73.1874 125.603C72.9447 125.594 72.689 125.59 72.4204 125.59C72.1517 125.581 71.831 125.577 71.4584 125.577C71.1204 125.577 70.8344 125.62 70.6004 125.707C70.3664 125.785 70.1627 125.932 69.9894 126.149C69.8247 126.357 69.686 126.66 69.5734 127.059C69.4607 127.449 69.3654 127.96 69.2874 128.593C69.1834 129.338 69.1444 129.919 69.1704 130.335C69.205 130.751 69.3264 131.041 69.5344 131.206C69.751 131.371 70.0804 131.453 70.5224 131.453C71.1377 131.453 71.6447 131.444 72.0434 131.427C72.4507 131.401 72.8494 131.371 73.2394 131.336L73.3304 132.805C72.897 132.926 72.4637 133.013 72.0304 133.065C71.597 133.126 71.0727 133.156 70.4574 133.156C69.53 133.156 68.7977 133 68.2604 132.688C67.7317 132.376 67.385 131.878 67.2204 131.193C67.0557 130.5 67.0514 129.581 67.2074 128.437C67.3374 127.562 67.5064 126.829 67.7144 126.24C67.9224 125.651 68.191 125.183 68.5204 124.836C68.8497 124.489 69.2614 124.242 69.7554 124.095C70.2494 123.948 70.843 123.874 71.5364 123.874ZM79.0369 123.9C79.9815 123.9 80.7312 124.043 81.2859 124.329C81.8492 124.606 82.2262 125.087 82.4169 125.772C82.6075 126.448 82.6162 127.388 82.4429 128.593C82.3129 129.52 82.1395 130.283 81.9229 130.881C81.7062 131.47 81.4289 131.93 81.0909 132.259C80.7529 132.58 80.3282 132.805 79.8169 132.935C79.3055 133.065 78.6945 133.13 77.9839 133.13C77.3599 133.13 76.7532 133.117 76.1639 133.091C75.5745 133.065 75.0112 133.035 74.4739 133L75.4489 131.531C75.7695 131.548 76.1639 131.566 76.6319 131.583C77.0999 131.592 77.5419 131.596 77.9579 131.596C78.3219 131.596 78.6339 131.557 78.8939 131.479C79.1625 131.392 79.3879 131.236 79.5699 131.011C79.7605 130.786 79.9165 130.469 80.0379 130.062C80.1679 129.646 80.2762 129.104 80.3629 128.437C80.4495 127.822 80.4929 127.319 80.4929 126.929C80.4929 126.53 80.4409 126.223 80.3369 126.006C80.2415 125.789 80.0812 125.638 79.8559 125.551C79.6305 125.464 79.3359 125.421 78.9719 125.421C78.7032 125.421 78.4215 125.425 78.1269 125.434C77.8322 125.434 77.5419 125.434 77.2559 125.434C76.9785 125.434 76.7229 125.434 76.4889 125.434L75.7349 124.03C76.0469 124.004 76.3892 123.982 76.7619 123.965C77.1345 123.939 77.5159 123.922 77.9059 123.913C78.2959 123.904 78.6729 123.9 79.0369 123.9ZM77.7239 124.03L76.4629 133H74.4739L75.7349 124.03H77.7239Z" fill="white"/>
</g>
<defs>
<clipPath id="clip0_117_311">
<rect width="112" height="160" rx="6" fill="white"/>
</clipPath>
</defs>
</svg>
