<svg width="112" height="160" viewBox="0 0 112 160" fill="none" xmlns="http://www.w3.org/2000/svg">
<g clip-path="url(#clip0_117_113)">
<path d="M1 7C1 3.6863 3.68629 1 7 1H105C108.314 1 111 3.68629 111 7V152C111 155.314 108.314 158 105 158H7C3.68629 158 1 155.314 1 152V7Z" fill="#393B4E"/>
<path fill-rule="evenodd" clip-rule="evenodd" d="M7 0C3.13401 0 0 3.13401 0 7V153C0 156.866 3.13401 160 7 160H105C108.866 160 112 156.866 112 153V7C112 3.13401 108.866 0 105 0H7ZM7 1C3.68629 1 1 3.68629 1 7C1 7 1 7 1 7V152C1 152.165 1.00666 152.328 1.01973 152.49C1.2691 155.575 3.85131 158 7 158H105C108.149 158 110.731 155.575 110.98 152.49C110.993 152.328 111 152.165 111 152V7C111 3.68629 108.314 1 105 1H7Z" fill="black" fill-opacity="0.3"/>
<path d="M36 92C28.5 92 22 81 22 72C22 61.5 34 52 56 52C78 52 90 61.5 90 72C90 81 83.5 92 76 92C73.0941 92 71.8008 89.6751 70.4862 87.3121C69.539 85.6093 68.5807 83.8867 67 83C63.1166 80.8215 60.4527 80 56 80C51.5473 80 48.8834 80.8215 45 83C43.4193 83.8867 42.461 85.6093 41.5138 87.3121C40.1993 89.6751 38.9059 92 36 92Z" fill="#4F4F4F"/>
<path d="M20.5 72C20.5 76.8233 22.2283 82.1073 24.9363 86.2024C27.6094 90.2446 31.5045 93.5 36 93.5C37.9284 93.5 39.3493 92.7003 40.43 91.587C41.4204 90.5667 42.1544 89.2466 42.7779 88.1253L42.8246 88.0413C43.8261 86.241 44.5934 84.948 45.7339 84.3082C49.4249 82.2376 51.8385 81.5 56 81.5C60.1615 81.5 62.5751 82.2376 66.2661 84.3082C67.4066 84.948 68.1739 86.241 69.1754 88.0413L69.2221 88.1253C69.8456 89.2466 70.5796 90.5667 71.57 91.587C72.6507 92.7003 74.0716 93.5 76 93.5C80.4955 93.5 84.3906 90.2446 87.0637 86.2024C89.7717 82.1073 91.5 76.8233 91.5 72C91.5 66.1199 88.129 60.6921 82.0597 56.7998C76.0025 52.9153 67.1977 50.5 56 50.5C44.8023 50.5 35.9975 52.9153 29.9403 56.7998C23.871 60.6921 20.5 66.1199 20.5 72Z" stroke="white" stroke-opacity="0.3" stroke-width="3"/>
<path d="M21.5 72C21.5 76.6078 23.1594 81.7024 25.7704 85.6508C28.3698 89.5815 32.0015 92.5 36 92.5C37.6115 92.5 38.785 91.846 39.7124 90.8904C40.6095 89.9663 41.2884 88.7458 41.9323 87.5883L41.9507 87.5552C42.9161 85.8199 43.8107 84.2405 45.2446 83.4361C49.0639 81.2936 51.6444 80.5 56 80.5C60.3556 80.5 62.9361 81.2936 66.7554 83.4361C68.1893 84.2405 69.0839 85.8199 70.0493 87.5552L70.0677 87.5884C70.7116 88.7459 71.3905 89.9663 72.2876 90.8904C73.215 91.846 74.3885 92.5 76 92.5C79.9985 92.5 83.6302 89.5815 86.2296 85.6508C88.8406 81.7024 90.5 76.6078 90.5 72C90.5 66.54 87.3763 61.3974 81.5199 57.6416C75.6675 53.8884 67.0659 51.5 56 51.5C44.9341 51.5 36.3325 53.8884 30.4801 57.6416C24.6237 61.3974 21.5 66.54 21.5 72Z" fill="#4F4F4F" stroke="#333333"/>
<path d="M68 75C68 75 71.5272 72.3475 74 71C76.6115 69.5769 81 68 81 68" stroke="#828282" stroke-width="14" stroke-linecap="round" stroke-linejoin="round"/>
<path d="M68 75C68 75 71.5272 72.3475 74 71C76.6115 69.5769 81 68 81 68" stroke="#4F4F4F" stroke-width="10" stroke-linecap="round" stroke-linejoin="round"/>
<path d="M81 71.5C82.933 71.5 84.5 69.933 84.5 68C84.5 66.067 82.933 64.5 81 64.5C79.067 64.5 77.5 66.067 77.5 68C77.5 69.933 79.067 71.5 81 71.5ZM74 74.5C75.933 74.5 77.5 72.933 77.5 71C77.5 69.067 75.933 67.5 74 67.5C72.067 67.5 70.5 69.067 70.5 71C70.5 72.933 72.067 74.5 74 74.5ZM68 78.5C69.933 78.5 71.5 76.933 71.5 75C71.5 73.067 69.933 71.5 68 71.5C66.067 71.5 64.5 73.067 64.5 75C64.5 76.933 66.067 78.5 68 78.5Z" fill="#4F4F4F" stroke="#333333"/>
<circle cx="68" cy="75" r="3" fill="#EB5757"/>
<circle cx="74" cy="71" r="3" fill="#EB5757"/>
<circle cx="81" cy="68" r="3" fill="#EB5757"/>
<circle cx="37.5" cy="70.5" r="10.5" fill="#828282"/>
<circle opacity="0.5" cx="37.5" cy="70.5" r="8.5" fill="#4F4F4F"/>
<path d="M29 70L28 70.5L29 71V70Z" fill="#F08484"/>
<path d="M37.5 61L37 62H38L37.5 61Z" fill="#F08484"/>
<path d="M47 70.5L46 70V71L47 70.5Z" fill="#F08484"/>
<path d="M37.5 80L37 79H38L37.5 80Z" fill="#F08484"/>
<circle cx="37.5" cy="70.5" r="7" fill="#828282" stroke="#333333"/>
<path d="M38.5 64.5H36.5C35.9477 64.5 35.5 64.9477 35.5 65.5V68.5H32.5C31.9477 68.5 31.5 68.9477 31.5 69.5V71.5C31.5 72.0523 31.9477 72.5 32.5 72.5H35.5V75.5C35.5 76.0523 35.9477 76.5 36.5 76.5H38.5C39.0523 76.5 39.5 76.0523 39.5 75.5V72.5H42.5C43.0523 72.5 43.5 72.0523 43.5 71.5V69.5C43.5 68.9477 43.0523 68.5 42.5 68.5H39.5V65.5C39.5 64.9477 39.0523 64.5 38.5 64.5Z" fill="#828282" stroke="#333333"/>
<path d="M33.5 67L33 66L34 66.5L33.5 67Z" fill="#BDBDBD"/>
<path d="M41 66.5L42 66L41.5 67L41 66.5Z" fill="#BDBDBD"/>
<path d="M42 75L41.5 74L41 74.5L42 75Z" fill="#BDBDBD"/>
<path d="M33.5 74L33 75L34 74.5L33.5 74Z" fill="#BDBDBD"/>
<circle cx="37.5" cy="70.5" r="1.25" stroke="#4F4F4F" stroke-width="0.5"/>
<path fill-rule="evenodd" clip-rule="evenodd" d="M73.4285 60.1286C73.6336 60.6414 73.3842 61.2234 72.8714 61.4285L67.8714 63.4285C67.3586 63.6336 66.7767 63.3842 66.5715 62.8714C66.3664 62.3586 66.6158 61.7767 67.1286 61.5715L72.1286 59.5715C72.6414 59.3664 73.2234 59.6158 73.4285 60.1286Z" fill="#BDBDBD"/>
<path d="M73.0571 61.8927C73.8263 61.5851 74.2004 60.7121 73.8927 59.9429C73.5851 59.1738 72.7121 58.7996 71.9429 59.1073L66.9429 61.1073C66.1738 61.415 65.7996 62.2879 66.1073 63.0571C66.415 63.8263 67.2879 64.2004 68.0571 63.8927L73.0571 61.8927Z" stroke="black" stroke-opacity="0.3" stroke-linecap="round" stroke-linejoin="round"/>
<path d="M31.6349 124.03C31.8775 124.03 32.0595 124.099 32.1809 124.238C32.3022 124.377 32.3499 124.563 32.3239 124.797L31.5049 133H29.6589L30.4259 125.564H30.2049L27.9949 131.18C27.9255 131.388 27.8259 131.54 27.6959 131.635C27.5659 131.73 27.3882 131.778 27.1629 131.778H25.9409C25.7242 131.778 25.5509 131.722 25.4209 131.609C25.2909 131.488 25.2129 131.323 25.1869 131.115L24.5109 125.564H24.2769L22.9639 133H21.1309L22.6259 124.719C22.6692 124.485 22.7472 124.312 22.8599 124.199C22.9812 124.086 23.1589 124.03 23.3929 124.03H25.2259C25.4339 124.03 25.5985 124.091 25.7199 124.212C25.8412 124.325 25.9105 124.489 25.9279 124.706L26.4869 129.204C26.5129 129.421 26.5302 129.637 26.5389 129.854C26.5475 130.062 26.5519 130.274 26.5519 130.491H26.7469C26.8162 130.257 26.8812 130.04 26.9419 129.841C27.0112 129.633 27.0849 129.429 27.1629 129.23L28.9179 124.628C28.9872 124.42 29.0869 124.268 29.2169 124.173C29.3555 124.078 29.5289 124.03 29.7369 124.03H31.6349ZM36.9403 126.409C37.7289 126.409 38.3356 126.496 38.7603 126.669C39.1936 126.834 39.4839 127.085 39.6313 127.423C39.7786 127.752 39.8133 128.16 39.7353 128.645C39.6746 129.044 39.5403 129.36 39.3323 129.594C39.1329 129.819 38.8556 129.988 38.5003 130.101C38.1449 130.214 37.6943 130.292 37.1483 130.335L33.8723 130.608L34.0153 129.542L36.7713 129.269C37.0053 129.243 37.1959 129.208 37.3433 129.165C37.4993 129.113 37.6206 129.035 37.7073 128.931C37.7939 128.818 37.8503 128.662 37.8763 128.463C37.9109 128.255 37.8979 128.099 37.8373 127.995C37.7766 127.891 37.6683 127.826 37.5123 127.8C37.3563 127.765 37.1483 127.752 36.8883 127.761C36.6196 127.761 36.3943 127.787 36.2123 127.839C36.0303 127.891 35.8786 127.986 35.7573 128.125C35.6359 128.255 35.5363 128.446 35.4583 128.697C35.3803 128.94 35.3066 129.256 35.2373 129.646C35.1506 130.209 35.1376 130.634 35.1983 130.92C35.2589 131.206 35.3933 131.397 35.6013 131.492C35.8093 131.587 36.0996 131.635 36.4723 131.635C36.6803 131.635 36.9316 131.631 37.2263 131.622C37.5209 131.605 37.8199 131.587 38.1233 131.57C38.4353 131.544 38.7169 131.518 38.9683 131.492L39.0983 132.688C38.8383 132.801 38.5436 132.892 38.2143 132.961C37.8849 133.03 37.5513 133.078 37.2133 133.104C36.8753 133.139 36.5589 133.156 36.2643 133.156C35.4063 133.156 34.7389 133.026 34.2623 132.766C33.7943 132.506 33.4823 132.12 33.3263 131.609C33.1703 131.089 33.1356 130.452 33.2223 129.698C33.3003 129.031 33.4303 128.485 33.6123 128.06C33.8029 127.635 34.0456 127.306 34.3403 127.072C34.6436 126.829 35.0119 126.66 35.4453 126.565C35.8786 126.461 36.3769 126.409 36.9403 126.409ZM45.5522 126.656L47.4502 126.773L46.6572 132.35C46.5705 132.991 46.4188 133.524 46.2022 133.949C45.9855 134.382 45.7082 134.725 45.3702 134.976C45.0408 135.236 44.6552 135.418 44.2132 135.522C43.7798 135.626 43.3032 135.682 42.7832 135.691C42.6358 135.691 42.4105 135.687 42.1072 135.678C41.8125 135.669 41.4962 135.639 41.1582 135.587C40.8202 135.535 40.5168 135.461 40.2482 135.366L40.3652 134.261C40.5212 134.261 40.6772 134.261 40.8332 134.261C40.9978 134.27 41.1885 134.274 41.4052 134.274C41.6218 134.274 41.8905 134.27 42.2112 134.261C42.8265 134.252 43.3552 134.157 43.7972 133.975C44.2478 133.793 44.5555 133.468 44.7202 133C44.8242 132.731 44.9022 132.471 44.9542 132.22C45.0148 131.969 45.1102 131.73 45.2402 131.505L44.8762 131.362L45.5522 126.656ZM43.9272 126.409C44.3778 126.409 44.8242 126.426 45.2662 126.461C45.7168 126.496 46.1285 126.543 46.5012 126.604C46.8825 126.656 47.1945 126.712 47.4372 126.773L46.1372 127.813C45.7818 127.796 45.4568 127.787 45.1622 127.787C44.8762 127.778 44.6032 127.774 44.3432 127.774C44.0225 127.774 43.7582 127.8 43.5502 127.852C43.3508 127.904 43.1905 127.999 43.0692 128.138C42.9478 128.268 42.8482 128.459 42.7702 128.71C42.7008 128.953 42.6358 129.273 42.5752 129.672C42.4885 130.201 42.4452 130.612 42.4452 130.907C42.4538 131.193 42.5102 131.388 42.6142 131.492C42.7268 131.596 42.8915 131.639 43.1082 131.622C43.3508 131.605 43.5978 131.527 43.8492 131.388C44.1005 131.241 44.3518 131.041 44.6032 130.79C44.8545 130.539 45.1015 130.248 45.3442 129.919L45.6822 130.53C45.5088 131.033 45.2618 131.475 44.9412 131.856C44.6205 132.229 44.2435 132.523 43.8102 132.74C43.3768 132.957 42.9002 133.074 42.3802 133.091C41.8428 133.1 41.4225 132.987 41.1192 132.753C40.8245 132.51 40.6382 132.133 40.5602 131.622C40.4822 131.102 40.5038 130.448 40.6252 129.659C40.7378 128.914 40.8895 128.324 41.0802 127.891C41.2708 127.458 41.5005 127.137 41.7692 126.929C42.0465 126.712 42.3628 126.574 42.7182 126.513C43.0822 126.444 43.4852 126.409 43.9272 126.409ZM52.087 126.409C52.3123 126.409 52.5637 126.422 52.841 126.448C53.127 126.465 53.413 126.491 53.699 126.526C53.9937 126.561 54.2667 126.6 54.518 126.643C54.778 126.686 54.9903 126.73 55.155 126.773L53.842 127.813C53.4953 127.796 53.179 127.787 52.893 127.787C52.607 127.778 52.3383 127.774 52.087 127.774C51.801 127.774 51.5583 127.796 51.359 127.839C51.1597 127.882 50.995 127.969 50.865 128.099C50.735 128.22 50.6267 128.407 50.54 128.658C50.4533 128.909 50.3797 129.247 50.319 129.672C50.241 130.209 50.1977 130.621 50.189 130.907C50.189 131.184 50.241 131.375 50.345 131.479C50.449 131.583 50.6137 131.631 50.839 131.622C51.073 131.613 51.3157 131.535 51.567 131.388C51.827 131.241 52.0827 131.041 52.334 130.79C52.5853 130.53 52.828 130.24 53.062 129.919L53.4 130.543C53.2267 131.054 52.9797 131.505 52.659 131.895C52.347 132.276 51.9787 132.575 51.554 132.792C51.1293 133.009 50.657 133.13 50.137 133.156C49.5737 133.182 49.1403 133.069 48.837 132.818C48.5423 132.567 48.3603 132.177 48.291 131.648C48.2217 131.119 48.2477 130.456 48.369 129.659C48.4817 128.922 48.6377 128.337 48.837 127.904C49.045 127.462 49.305 127.137 49.617 126.929C49.929 126.712 50.2887 126.574 50.696 126.513C51.112 126.444 51.5757 126.409 52.087 126.409ZM53.257 126.656L55.155 126.773L54.284 133H52.789L52.815 131.544L52.581 131.388L53.257 126.656ZM63.3137 123.9C64.2584 123.9 65.0081 124.043 65.5627 124.329C66.1261 124.606 66.5031 125.087 66.6937 125.772C66.8844 126.448 66.8931 127.388 66.7197 128.593C66.5897 129.52 66.4164 130.283 66.1997 130.881C65.9831 131.47 65.7057 131.93 65.3677 132.259C65.0297 132.58 64.6051 132.805 64.0937 132.935C63.5824 133.065 62.9714 133.13 62.2607 133.13C61.6367 133.13 61.0301 133.117 60.4407 133.091C59.8514 133.065 59.2881 133.035 58.7507 133L59.7257 131.531C60.0464 131.548 60.4407 131.566 60.9087 131.583C61.3767 131.592 61.8187 131.596 62.2347 131.596C62.5987 131.596 62.9107 131.557 63.1707 131.479C63.4394 131.392 63.6647 131.236 63.8467 131.011C64.0374 130.786 64.1934 130.469 64.3147 130.062C64.4447 129.646 64.5531 129.104 64.6397 128.437C64.7264 127.822 64.7697 127.319 64.7697 126.929C64.7697 126.53 64.7177 126.223 64.6137 126.006C64.5184 125.789 64.3581 125.638 64.1327 125.551C63.9074 125.464 63.6127 125.421 63.2487 125.421C62.9801 125.421 62.6984 125.425 62.4037 125.434C62.1091 125.434 61.8187 125.434 61.5327 125.434C61.2554 125.434 60.9997 125.434 60.7657 125.434L60.0117 124.03C60.3237 124.004 60.6661 123.982 61.0387 123.965C61.4114 123.939 61.7927 123.922 62.1827 123.913C62.5727 123.904 62.9497 123.9 63.3137 123.9ZM62.0007 124.03L60.7397 133H58.7507L60.0117 124.03H62.0007ZM69.8744 126.578L69.8874 128.112L70.0564 128.294L69.4064 133H67.4824L68.3794 126.578H69.8744ZM73.0204 126.409L72.6044 128.19H72.1364C71.833 128.19 71.5037 128.259 71.1484 128.398C70.8017 128.528 70.364 128.727 69.8354 128.996L69.7574 127.865C70.2687 127.388 70.767 127.029 71.2524 126.786C71.7377 126.535 72.197 126.409 72.6304 126.409H73.0204ZM75.8648 126.578L74.9678 133H73.0568L73.9538 126.578H75.8648ZM75.6698 123.744C75.8778 123.744 76.0251 123.796 76.1118 123.9C76.2071 124.004 76.2418 124.16 76.2158 124.368L76.1248 125.057C76.0728 125.421 75.8605 125.603 75.4878 125.603H74.7078C74.2918 125.603 74.1055 125.395 74.1488 124.979L74.2528 124.29C74.2875 123.926 74.4955 123.744 74.8768 123.744H75.6698ZM83.6829 126.578C83.6222 126.959 83.5399 127.345 83.4359 127.735C83.3319 128.125 83.2236 128.498 83.1109 128.853C82.9982 129.2 82.8812 129.52 82.7599 129.815C82.5779 130.309 82.3872 130.747 82.1879 131.128C81.9972 131.509 81.8369 131.795 81.7069 131.986C81.5509 132.255 81.3819 132.463 81.1999 132.61C81.0266 132.757 80.8316 132.861 80.6149 132.922C80.3982 132.974 80.1339 133 79.8219 133H78.3659C78.2186 133 78.0886 132.952 77.9759 132.857C77.8719 132.762 77.8112 132.645 77.7939 132.506L76.8319 126.578H78.9119L79.3799 131.739H79.5359C79.7092 131.739 79.8392 131.7 79.9259 131.622C80.0212 131.544 80.1296 131.384 80.2509 131.141C80.3549 130.942 80.4676 130.699 80.5889 130.413C80.7189 130.127 80.8489 129.78 80.9789 129.373C81.1436 128.87 81.2736 128.389 81.3689 127.93C81.4642 127.471 81.5466 127.02 81.6159 126.578H83.6829ZM87.8993 126.409C88.6879 126.409 89.2946 126.496 89.7193 126.669C90.1526 126.834 90.4429 127.085 90.5903 127.423C90.7376 127.752 90.7723 128.16 90.6943 128.645C90.6336 129.044 90.4993 129.36 90.2913 129.594C90.0919 129.819 89.8146 129.988 89.4593 130.101C89.1039 130.214 88.6533 130.292 88.1073 130.335L84.8313 130.608L84.9743 129.542L87.7303 129.269C87.9643 129.243 88.1549 129.208 88.3023 129.165C88.4583 129.113 88.5796 129.035 88.6663 128.931C88.7529 128.818 88.8093 128.662 88.8353 128.463C88.8699 128.255 88.8569 128.099 88.7963 127.995C88.7356 127.891 88.6273 127.826 88.4713 127.8C88.3153 127.765 88.1073 127.752 87.8473 127.761C87.5786 127.761 87.3533 127.787 87.1713 127.839C86.9893 127.891 86.8376 127.986 86.7163 128.125C86.5949 128.255 86.4953 128.446 86.4173 128.697C86.3393 128.94 86.2656 129.256 86.1963 129.646C86.1096 130.209 86.0966 130.634 86.1573 130.92C86.2179 131.206 86.3523 131.397 86.5603 131.492C86.7683 131.587 87.0586 131.635 87.4313 131.635C87.6393 131.635 87.8906 131.631 88.1853 131.622C88.4799 131.605 88.7789 131.587 89.0823 131.57C89.3943 131.544 89.6759 131.518 89.9273 131.492L90.0573 132.688C89.7973 132.801 89.5026 132.892 89.1733 132.961C88.8439 133.03 88.5103 133.078 88.1723 133.104C87.8343 133.139 87.5179 133.156 87.2233 133.156C86.3653 133.156 85.6979 133.026 85.2213 132.766C84.7533 132.506 84.4413 132.12 84.2853 131.609C84.1293 131.089 84.0946 130.452 84.1813 129.698C84.2593 129.031 84.3893 128.485 84.5713 128.06C84.7619 127.635 85.0046 127.306 85.2993 127.072C85.6026 126.829 85.9709 126.66 86.4043 126.565C86.8376 126.461 87.3359 126.409 87.8993 126.409Z" fill="white"/>
</g>
<defs>
<clipPath id="clip0_117_113">
<rect width="112" height="160" rx="6" fill="white"/>
</clipPath>
</defs>
</svg>
