<svg width="112" height="160" viewBox="0 0 112 160" fill="none" xmlns="http://www.w3.org/2000/svg">
<g clip-path="url(#clip0_113_2281)">
<path d="M1 7C1 3.6863 3.68629 1 7 1H105C108.314 1 111 3.68629 111 7V152C111 155.314 108.314 158 105 158H7C3.68629 158 1 155.314 1 152V7Z" fill="#393B4E"/>
<path fill-rule="evenodd" clip-rule="evenodd" d="M7 0C3.13401 0 0 3.13401 0 7V153C0 156.866 3.13401 160 7 160H105C108.866 160 112 156.866 112 153V7C112 3.13401 108.866 0 105 0H7ZM7 1C3.68629 1 1 3.68629 1 7C1 7 1 7 1 7V152C1 152.165 1.00666 152.328 1.01973 152.49C1.2691 155.575 3.85131 158 7 158H105C108.149 158 110.731 155.575 110.98 152.49C110.993 152.328 111 152.165 111 152V7C111 3.68629 108.314 1 105 1H7Z" fill="black" fill-opacity="0.3"/>
<path d="M45.3894 37.9675L45.8004 39.3994L45.3894 37.9675C43.7523 38.4374 42.5156 39.6147 41.8082 41.0295L41.7536 41.1387C39.6614 41.3953 34.9686 42.0004 32.6592 42.5392C30.7833 42.9769 29.24 43.6509 28.2872 44.1302C27.1133 44.7208 26.5 45.9136 26.5 47.0985V47.8412C24.015 50.4433 22.5 54.3109 22.5 60C22.5 60.5159 22.5296 61.015 22.586 61.4972L22.5775 61.5192C22.5604 61.5637 22.5364 61.6269 22.5065 61.708C22.4468 61.8701 22.3635 62.1036 22.2645 62.4007C22.0666 62.9943 21.8053 63.8439 21.5448 64.8862C21.0253 66.9643 20.5 69.8413 20.5 73C20.5 75.536 20.8851 80.147 21.7866 84.1557C22.2351 86.1504 22.8335 88.0985 23.6322 89.5831C24.3735 90.9611 25.5985 92.5 27.5 92.5C29.9633 92.5 31.3448 90.5024 32.1431 88.7097C32.9653 86.8632 33.4987 84.5129 33.9581 82.4888L33.9782 82.4004C34.1414 81.6814 34.2963 80.9995 34.4552 80.3638C35.1575 77.5548 35.6224 76.0292 36.0035 75.0601C36.3622 74.148 36.6443 73.7293 37.0667 73.1022L37.0682 73.1L37.0689 73.0989L37.0695 73.098C37.0963 73.0583 37.1238 73.0174 37.1521 72.9754C38.8478 73.2991 40.5953 73.6096 42.0667 73.8633C43.6077 74.129 44.8042 75.3589 45.0273 76.9068C45.5935 80.8336 46.5618 87.1054 47.5384 91.3373C48.2827 94.5624 49.1798 98.4204 50.3492 101.474C50.932 102.996 51.6205 104.423 52.4594 105.495C53.288 106.554 54.4561 107.5 56 107.5C57.5439 107.5 58.712 106.554 59.5406 105.495C60.3795 104.423 61.068 102.996 61.6508 101.474C62.8202 98.4204 63.7173 94.5624 64.4616 91.3373C65.4382 87.1054 66.4065 80.8336 66.9727 76.9068C67.1958 75.3589 68.3923 74.129 69.9333 73.8633C71.4047 73.6096 73.1522 73.2991 74.8479 72.9754C74.8766 73.0181 74.9047 73.0597 74.9318 73.1001L74.9333 73.1022C75.3557 73.7293 75.6378 74.148 75.9965 75.0602C76.3777 76.0293 76.8426 77.5548 77.5448 80.3638C77.7037 80.9994 77.8586 81.6814 78.0218 82.4003L78.0419 82.4888C78.5013 84.513 79.0347 86.8632 79.8569 88.7097C80.6552 90.5024 82.0367 92.5 84.5 92.5C86.4015 92.5 87.6265 90.9611 88.3678 89.5831C89.1665 88.0985 89.7649 86.1504 90.2134 84.1557C91.1149 80.147 91.5 75.536 91.5 73C91.5 69.8413 90.9747 66.9643 90.4552 64.8862C90.1947 63.8439 89.9334 62.9943 89.7355 62.4007C89.6365 62.1036 89.5532 61.8701 89.4935 61.708C89.4636 61.6269 89.4396 61.5637 89.4225 61.5192L89.414 61.4972C89.4704 61.015 89.5 60.5159 89.5 60C89.5 54.3109 87.985 50.4433 85.5 47.8412V47.0985C85.5 45.9136 84.8867 44.7208 83.7128 44.1302C82.76 43.6509 81.2167 42.9769 79.3408 42.5392C77.0314 42.0004 72.3386 41.3953 70.2464 41.1387L70.1918 41.0295C69.4844 39.6147 68.2477 38.4374 66.6106 37.9675C64.4619 37.3507 60.6576 36.5 56 36.5C51.3424 36.5 47.5381 37.3507 45.3894 37.9675Z" stroke="white" stroke-opacity="0.3" stroke-width="3" stroke-linecap="round"/>
<path d="M88.4644 61.8146C88.4643 61.8145 88.4643 61.8143 88.3545 61.8582L88.4643 61.8143L88.3892 61.6267C88.4615 61.1085 88.5 60.5664 88.5 60C88.5 54.2783 86.9228 50.6192 84.5 48.2519V47.0985C84.5 46.2474 84.0621 45.4254 83.2634 45.0235C82.358 44.568 80.8907 43.9277 79.1136 43.5131C76.6427 42.9365 71.2999 42.2718 69.5983 42.0674C69.5675 42.0132 69.538 41.958 69.5099 41.9018L69.2974 41.4767C68.6965 40.2749 67.6651 39.3105 66.3347 38.9287C64.2485 38.3299 60.5396 37.5 56 37.5C51.4604 37.5 47.7515 38.3299 45.6653 38.9287C44.3349 39.3105 43.3035 40.2749 42.7026 41.4767L42.4901 41.9018C42.462 41.958 42.4325 42.0132 42.4016 42.0674C40.7001 42.2718 35.3573 42.9365 32.8864 43.5131C31.1093 43.9277 29.642 44.568 28.7366 45.0235C27.9379 45.4254 27.5 46.2474 27.5 47.0985V48.2519C25.0772 50.6192 23.5 54.2783 23.5 60C23.5 60.5664 23.5385 61.1085 23.6108 61.6267L23.5357 61.8143L23.6455 61.8582C23.6455 61.8582 23.6455 61.8583 23.6456 61.8583C23.5357 61.8144 23.5357 61.8145 23.5356 61.8146L23.5355 61.8149L23.5351 61.816L23.5337 61.8195L23.5288 61.8319L23.5108 61.8781C23.4954 61.9184 23.4731 61.9772 23.4449 62.0537C23.3885 62.2067 23.3086 62.4304 23.2131 62.7169C23.0222 63.2898 22.7684 64.1146 22.5149 65.1287C22.0084 67.1548 21.5 69.9471 21.5 73C21.5 75.469 21.8784 80.006 22.7622 83.9363C23.2034 85.8983 23.7778 87.7432 24.5128 89.1094C25.2287 90.44 26.1995 91.5 27.5 91.5C29.3171 91.5 30.4555 90.0412 31.2296 88.3029C32.0115 86.5469 32.5271 84.2755 32.9957 82.2113L33.003 82.179C33.1657 81.4623 33.323 80.7694 33.485 80.1213C34.189 77.3056 34.6666 75.7271 35.0729 74.6941C35.4717 73.6801 35.8015 73.1905 36.2384 72.542L36.2388 72.5413L36.2393 72.5406L36.2396 72.5402C36.2396 72.5401 36.2397 72.54 36.2398 72.5399C36.2964 72.4558 36.3553 72.3685 36.416 72.2773C36.4899 72.1665 36.6009 72.03 36.7385 71.8774C38.6077 72.2407 40.593 72.5945 42.2366 72.8778C44.2047 73.2172 45.7321 74.7874 46.0171 76.7641C46.5835 80.6931 47.5468 86.9264 48.5128 91.1124C49.2609 94.3541 50.1433 98.1401 51.2831 101.116C51.8523 102.603 52.4985 103.922 53.2469 104.878C53.9918 105.83 54.902 106.5 56 106.5C57.098 106.5 58.0082 105.83 58.7531 104.878C59.5015 103.922 60.1477 102.603 60.7169 101.116C61.8567 98.1401 62.7391 94.3541 63.4872 91.1124C64.4532 86.9264 65.4165 80.6931 65.9829 76.7641C66.2679 74.7874 67.7953 73.2172 69.7634 72.8778C71.407 72.5945 73.3923 72.2407 75.2615 71.8774C75.3991 72.03 75.5101 72.1665 75.584 72.2773C75.6451 72.369 75.7043 72.4569 75.7612 72.5414L75.7617 72.542C76.1985 73.1906 76.5283 73.6801 76.9271 74.6942C77.3334 75.7272 77.811 77.3056 78.5149 80.1213C78.677 80.7694 78.8343 81.4623 78.997 82.179L79.0043 82.2113C79.4729 84.2755 79.9885 86.5469 80.7705 88.3029C81.5445 90.0412 82.6829 91.5 84.5 91.5C85.8005 91.5 86.7713 90.44 87.4872 89.1094C88.2221 87.7432 88.7966 85.8983 89.2378 83.9363C90.1216 80.006 90.5 75.469 90.5 73C90.5 69.9471 89.9916 67.1548 89.4851 65.1287C89.2316 64.1146 88.9778 63.2898 88.7869 62.7169C88.6914 62.4304 88.6115 62.2067 88.5551 62.0537C88.5269 61.9772 88.5046 61.9184 88.4892 61.8781L88.4712 61.8319L88.4663 61.8195L88.4649 61.816L88.4645 61.8149L88.4644 61.8146Z" stroke="#333333" stroke-linecap="round"/>
<path d="M28 47.0985C28 46.4144 28.3502 45.7776 28.9613 45.4702C29.843 45.0266 31.2723 44.4031 33 44C35.9289 43.3166 43 42.5 43 42.5V49H28V47.0985Z" fill="#BDBDBD"/>
<path d="M84 47.0985C84 46.4144 83.6498 45.7776 83.0387 45.4702C82.157 45.0266 80.7277 44.4031 79 44C76.0711 43.3166 69 42.5 69 42.5V49H84V47.0985Z" fill="#BDBDBD"/>
<path d="M45.8033 39.4092C47.8583 38.8194 51.5194 38 56 38C60.4806 38 64.1417 38.8194 66.1967 39.4092C67.3738 39.7471 68.3025 40.605 68.8502 41.7003L69.0627 42.1254C69.6497 43.2995 70.7757 44.1071 72.0781 44.2701C78.98 45.1338 88 46.4169 88 60C88 60.7508 87.9295 61.4547 87.8013 62.1135L88 62C88 62 90 67 90 73C90 77.871 88.4999 91 84.5 91C81.5122 91 80.4322 86.2427 79.4846 82.0683C79.3222 81.3528 79.1636 80.6543 79 80C77.5905 74.362 77.064 73.5804 76.1759 72.262C76.1189 72.1774 76.0604 72.0905 76 72C75.8703 71.8054 75.6666 71.5716 75.4379 71.3335C73.4958 71.7143 71.4004 72.0883 69.6784 72.3851C67.4968 72.7612 65.8039 74.5016 65.488 76.6927C64.9214 80.6229 63.9607 86.8369 63 91C61.5 97.5 59.5 106 56 106C52.5 106 50.5 97.5 49 91C48.0393 86.8369 47.0786 80.6229 46.512 76.6927C46.1961 74.5016 44.5032 72.7612 42.3216 72.3851C40.5996 72.0883 38.5042 71.7143 36.5621 71.3335C36.3334 71.5716 36.1297 71.8054 36 72C35.9399 72.0901 35.8817 72.1766 35.8249 72.2609L35.8241 72.262C34.936 73.5803 34.4095 74.362 33 80C32.8364 80.6544 32.6778 81.3528 32.5154 82.0683C31.5678 86.2427 30.4878 91 27.5 91C23.5 91 22 77.871 22 73C22 67 24 62 24 62L24.1987 62.1135C24.0705 61.4547 24 60.7508 24 60C24 46.4169 33.02 45.1338 39.9219 44.2701C41.2243 44.1071 42.3503 43.2995 42.9373 42.1254L43.1498 41.7003C43.6975 40.605 44.6262 39.7471 45.8033 39.4092Z" fill="#E0E0E0"/>
<path d="M35.8569 72.2134C35.7739 72.1968 35.6913 72.1803 35.6092 72.1637C33.497 71.7381 31.5403 71.2932 30.6286 70.9285C28.4746 70.0669 24.8282 67.7741 23.5016 63.4534C23.7878 62.5306 24 62 24 62L24.1987 62.1135C25.0949 66.7195 28.8129 69.1251 31 70C31.9029 70.3612 34.1103 70.8528 36.5621 71.3335C36.3334 71.5716 36.1297 71.8054 36 72C35.9511 72.0733 35.9035 72.1441 35.8569 72.2134Z" fill="#828282"/>
<path d="M88.4984 63.4534C87.1718 67.7741 83.5254 70.0669 81.3714 70.9285C80.4597 71.2932 78.503 71.7381 76.3909 72.1637C76.3087 72.1803 76.2261 72.1968 76.1432 72.2134C76.0965 72.1441 76.0489 72.0733 76 72C75.8703 71.8054 75.6666 71.5716 75.4379 71.3335C77.8897 70.8528 80.0971 70.3612 81 70C83.1872 69.1251 86.9051 66.7195 87.8013 62.1135L88 62C88 62 88.2122 62.5306 88.4984 63.4534Z" fill="#828282"/>
<path d="M34 53C33.4477 53 33 53.4477 33 54V57H30C29.4477 57 29 57.4477 29 58V60C29 60.5523 29.4477 61 30 61H33V64C33 64.5523 33.4477 65 34 65H36C36.5523 65 37 64.5523 37 64V61H40C40.5523 61 41 60.5523 41 60V58C41 57.4477 40.5523 57 40 57H37V54C37 53.4477 36.5523 53 36 53H34Z" fill="#333333"/>
<circle cx="56" cy="61" r="3" fill="#C03535"/>
<circle cx="56" cy="61" r="2.5" stroke="black" stroke-opacity="0.3"/>
<circle cx="69" cy="61" r="3" fill="#27AE60"/>
<circle cx="74" cy="66" r="3" fill="#4D62CB"/>
<path d="M79 54C80.1046 54 81 53.1046 81 52C81 50.8954 80.1046 50 79 50C77.8954 50 77 50.8954 77 52C77 53.1046 77.8954 54 79 54Z" fill="#F3BE54"/>
<path d="M79 62C80.1046 62 81 61.1046 81 60C81 58.8954 80.1046 58 79 58C77.8954 58 77 58.8954 77 60C77 61.1046 77.8954 62 79 62Z" fill="#F3BE54"/>
<path d="M77 56C77 57.1046 76.1046 58 75 58C73.8954 58 73 57.1046 73 56C73 54.8954 73.8954 54 75 54C76.1046 54 77 54.8954 77 56Z" fill="#F3BE54"/>
<path d="M83 58C84.1046 58 85 57.1046 85 56C85 54.8954 84.1046 54 83 54C81.8954 54 81 54.8954 81 56C81 57.1046 81.8954 58 83 58Z" fill="#F3BE54"/>
<circle cx="56" cy="76" r="7" fill="#4F4F4F"/>
<path d="M56 71L59.5355 72.4645L61 76L59.5355 79.5355L56 81L52.4645 79.5355L51 76L52.4645 72.4645L56 71Z" fill="#333333"/>
<circle cx="56" cy="76" r="3" fill="#BDBDBD"/>
<rect x="49.5" y="44.5" width="13" height="3" rx="1.5" stroke="black" stroke-opacity="0.2"/>
<path d="M52.5709 124.03L51.4009 132.324C51.3663 132.558 51.2926 132.731 51.1799 132.844C51.0673 132.948 50.8939 133 50.6599 133H49.6719C49.4553 133 49.2949 132.944 49.1909 132.831C49.0956 132.718 49.0089 132.562 48.9309 132.363L47.0459 127.657C46.9593 127.466 46.8813 127.254 46.8119 127.02C46.7513 126.786 46.6949 126.556 46.6429 126.331H46.4869C46.4869 126.565 46.4783 126.803 46.4609 127.046C46.4523 127.28 46.4306 127.518 46.3959 127.761L45.6549 133H43.7829L44.9399 124.706C44.9746 124.472 45.0526 124.303 45.1739 124.199C45.2953 124.086 45.4729 124.03 45.7069 124.03H46.6689C46.8856 124.03 47.0416 124.091 47.1369 124.212C47.2323 124.325 47.3233 124.476 47.4099 124.667L49.2429 129.217C49.3296 129.416 49.4119 129.637 49.4899 129.88C49.5766 130.114 49.6546 130.365 49.7239 130.634H49.9059C49.8973 130.374 49.8973 130.131 49.9059 129.906C49.9233 129.681 49.9493 129.451 49.9839 129.217L50.6989 124.03H52.5709ZM57.7943 123.874C57.933 123.874 58.115 123.878 58.3403 123.887C58.5656 123.896 58.8126 123.917 59.0813 123.952C59.35 123.978 59.6186 124.034 59.8873 124.121L59.6143 125.369C59.389 125.36 59.1853 125.356 59.0033 125.356C58.8213 125.347 58.6263 125.343 58.4183 125.343C58.2103 125.343 57.946 125.343 57.6253 125.343C57.27 125.343 56.971 125.391 56.7283 125.486C56.4856 125.573 56.2776 125.737 56.1043 125.98C55.9396 126.223 55.7966 126.569 55.6753 127.02C55.554 127.462 55.4456 128.043 55.3503 128.762C55.2723 129.343 55.2116 129.824 55.1683 130.205C55.1336 130.578 55.1423 130.872 55.1943 131.089C55.2463 131.306 55.359 131.462 55.5323 131.557C55.7143 131.644 55.9786 131.687 56.3253 131.687C56.75 131.687 57.075 131.583 57.3003 131.375C57.5256 131.158 57.6816 130.877 57.7683 130.53C57.8636 130.175 57.9156 129.802 57.9243 129.412C57.933 129.135 57.8593 128.918 57.7033 128.762C57.556 128.597 57.2873 128.515 56.8973 128.515C56.516 128.515 56.1476 128.623 55.7923 128.84C55.437 129.057 55.0296 129.382 54.5703 129.815L54.5313 128.97C54.8346 128.528 55.138 128.173 55.4413 127.904C55.7446 127.635 56.074 127.436 56.4293 127.306C56.7846 127.176 57.1833 127.111 57.6253 127.111C58.3793 127.111 58.934 127.28 59.2893 127.618C59.6446 127.956 59.818 128.402 59.8093 128.957C59.792 129.858 59.6663 130.621 59.4323 131.245C59.207 131.869 58.8343 132.346 58.3143 132.675C57.803 132.996 57.1096 133.156 56.2343 133.156C55.6103 133.156 55.0903 133.087 54.6743 132.948C54.2583 132.801 53.9376 132.558 53.7123 132.22C53.4956 131.873 53.3656 131.41 53.3223 130.829C53.2876 130.248 53.331 129.525 53.4523 128.658C53.5996 127.644 53.7903 126.825 54.0243 126.201C54.2583 125.568 54.5486 125.083 54.8953 124.745C55.2506 124.407 55.6666 124.177 56.1433 124.056C56.62 123.935 57.1703 123.874 57.7943 123.874ZM65.7492 124.03L62.8502 129.23C62.7722 129.36 62.7419 129.46 62.7592 129.529C62.7852 129.59 62.8632 129.62 62.9932 129.62H68.1282L67.9722 130.803L66.9192 130.998H61.6022C61.3075 130.998 61.0692 130.929 60.8872 130.79C60.7052 130.643 60.5969 130.456 60.5622 130.231C60.5275 130.006 60.5752 129.78 60.7052 129.555L63.8252 124.03H65.7492ZM67.6472 125.772L66.6332 133H64.8002L65.6062 127.202L66.1262 125.772H67.6472Z" fill="white"/>
</g>
<defs>
<clipPath id="clip0_113_2281">
<rect width="112" height="160" rx="6" fill="white"/>
</clipPath>
</defs>
</svg>
