<svg width="112" height="160" viewBox="0 0 112 160" fill="none" xmlns="http://www.w3.org/2000/svg">
<g clip-path="url(#clip0_121_207)">
<path d="M1 7C1 3.6863 3.68629 1 7 1H105C108.314 1 111 3.68629 111 7V152C111 155.314 108.314 158 105 158H7C3.68629 158 1 155.314 1 152V7Z" fill="#393B4E"/>
<path fill-rule="evenodd" clip-rule="evenodd" d="M7 0C3.13401 0 0 3.13401 0 7V153C0 156.866 3.13401 160 7 160H105C108.866 160 112 156.866 112 153V7C112 3.13401 108.866 0 105 0H7ZM7 1C3.68629 1 1 3.68629 1 7C1 7 1 7 1 7V152C1 152.165 1.00666 152.328 1.01973 152.49C1.2691 155.575 3.85131 158 7 158H105C108.149 158 110.731 155.575 110.98 152.49C110.993 152.328 111 152.165 111 152V7C111 3.68629 108.314 1 105 1H7Z" fill="black" fill-opacity="0.3"/>
<path d="M35.894 49.8897C40.1782 43.3328 47.5831 39 56 39C64.4169 39 71.8218 43.3328 76.106 49.8897C80.6162 50.6943 83.8247 51.5498 84.5 52C86 53 88 61 88 68C88 75 86 93.5 83.5 99C81 104.5 79 108 78 108C77.1075 108 76.6752 106.35 75.7404 102.783C75.5244 101.959 75.2815 101.032 75 100C74.9528 99.8268 74.9066 99.6557 74.8613 99.4864C73.298 94.9308 63.7182 94 56 94C48.2818 94 38.702 94.9308 37.1387 99.4864C37.0934 99.6557 37.0472 99.8268 37 100C36.7185 101.032 36.4757 101.959 36.2597 102.783C35.3248 106.35 34.8925 108 34 108C33 108 31 104.5 28.5 99C26 93.5 24 75 24 68C24 61 26 53 27.5 52C28.1753 51.5498 31.3838 50.6943 35.894 49.8897Z" fill="#E0E0E0"/>
<path d="M56 37.5C47.2899 37.5 39.6007 41.8682 35.0026 48.5268C32.9872 48.8982 31.2429 49.278 29.8874 49.6245C29.1417 49.8151 28.4986 49.9995 27.986 50.1711C27.5236 50.3259 27.0214 50.5163 26.6679 50.7519C26.2045 51.0609 25.8709 51.5214 25.6351 51.9118C25.3801 52.3339 25.1442 52.8367 24.9268 53.3823C24.4909 54.4764 24.0799 55.8681 23.7254 57.4149C23.0161 60.51 22.5 64.373 22.5 68C22.5 71.5924 23.0087 78.0396 23.8253 84.2578C24.2345 87.3744 24.7244 90.4592 25.273 93.1229C25.815 95.7544 26.4353 98.0826 27.1345 99.6207C28.3918 102.387 29.5445 104.698 30.5263 106.334C31.0133 107.146 31.4905 107.847 31.948 108.362C32.176 108.62 32.4375 108.875 32.731 109.076C33.0089 109.267 33.4481 109.5 34 109.5C34.7711 109.5 35.3514 109.112 35.7362 108.664C36.0827 108.26 36.3231 107.755 36.5105 107.277C36.8794 106.336 37.2391 104.963 37.6819 103.273L37.7107 103.163C37.9268 102.339 38.1678 101.419 38.4471 100.395C38.4898 100.238 38.5316 100.083 38.5727 99.9304C38.8174 99.2586 39.3903 98.6056 40.4199 98.0005C41.4738 97.3811 42.8937 96.8811 44.5914 96.4981C47.9841 95.7326 52.1778 95.5 56 95.5C59.8222 95.5 64.0159 95.7326 67.4086 96.4981C69.1063 96.8811 70.5262 97.3811 71.5801 98.0005C72.6096 98.6055 73.1826 99.2585 73.4273 99.9303C73.4684 100.083 73.5102 100.238 73.5529 100.395C73.8321 101.419 74.0733 102.339 74.2894 103.163L74.3181 103.273C74.7609 104.963 75.1206 106.336 75.4896 107.277C75.6769 107.755 75.9173 108.26 76.2638 108.664C76.6486 109.112 77.2289 109.5 78 109.5C78.5519 109.5 78.9911 109.267 79.269 109.076C79.5625 108.875 79.824 108.62 80.052 108.362C80.5095 107.847 80.9867 107.146 81.4737 106.334C82.4555 104.698 83.6082 102.387 84.8656 99.6207C85.5647 98.0826 86.185 95.7544 86.727 93.1229C87.2756 90.4592 87.7655 87.3744 88.1747 84.2578C88.9913 78.0396 89.5 71.5924 89.5 68C89.5 64.373 88.9839 60.51 88.2746 57.4149C87.9201 55.8681 87.5091 54.4764 87.0732 53.3823C86.8558 52.8367 86.6199 52.3339 86.3649 51.9118C86.1291 51.5214 85.7955 51.0609 85.3321 50.7519C84.9786 50.5163 84.4764 50.3259 84.014 50.1711C83.5014 49.9995 82.8583 49.8151 82.1126 49.6245C80.7571 49.278 79.0128 48.8982 76.9974 48.5268C72.3993 41.8682 64.7101 37.5 56 37.5Z" stroke="white" stroke-opacity="0.3" stroke-width="3"/>
<path d="M56 38.5C47.4849 38.5 39.9847 42.8444 35.5947 49.4354C33.4212 49.8274 31.5543 50.2306 30.1351 50.5933C29.4031 50.7805 28.7852 50.9581 28.3035 51.1194C27.8385 51.275 27.453 51.4304 27.2226 51.584C26.9432 51.7703 26.7018 52.0801 26.491 52.4289C26.2738 52.7884 26.0611 53.2372 25.8558 53.7524C25.4449 54.7838 25.0475 56.1227 24.7001 57.6383C24.0054 60.67 23.5 64.4577 23.5 68C23.5 71.5308 24.0029 77.9299 24.8168 84.1276C25.224 87.229 25.7102 90.2885 26.2525 92.9212C26.7925 95.5431 27.3951 97.7775 28.0448 99.2069C29.2973 101.962 30.4315 104.233 31.3838 105.82C31.8586 106.611 32.2989 107.251 32.6962 107.699C32.8946 107.923 33.0951 108.113 33.2964 108.251C33.4926 108.386 33.7327 108.5 34 108.5C34.4058 108.5 34.7288 108.302 34.9775 108.012C35.2134 107.737 35.4048 107.357 35.5794 106.912C35.9267 106.026 36.2743 104.7 36.7325 102.951L36.7433 102.91C36.9594 102.085 37.2016 101.161 37.4824 100.132C37.5282 99.9634 37.5731 99.7973 37.6171 99.6329C37.9591 98.6516 38.7433 97.8259 39.9132 97.1383C41.0902 96.4466 42.6204 95.9177 44.3713 95.5226C47.8723 94.7327 52.1532 94.5 56 94.5C59.8468 94.5 64.1277 94.7327 67.6287 95.5226C69.3796 95.9177 70.9098 96.4466 72.0868 97.1383C73.2567 97.8259 74.0409 98.6516 74.3829 99.633C74.4269 99.7973 74.4718 99.9634 74.5176 100.132C74.7983 101.161 75.0407 102.086 75.2567 102.91L75.2675 102.951C75.7258 104.7 76.0733 106.026 76.4206 106.912C76.5952 107.357 76.7866 107.737 77.0225 108.012C77.2712 108.302 77.5942 108.5 78 108.5C78.2673 108.5 78.5074 108.386 78.7036 108.251C78.9049 108.113 79.1054 107.923 79.3038 107.699C79.7011 107.251 80.1414 106.611 80.6162 105.82C81.5685 104.233 82.7027 101.962 83.9552 99.2069C84.6049 97.7775 85.2075 95.5431 85.7475 92.9212C86.2898 90.2885 86.776 87.229 87.1832 84.1276C87.9971 77.9299 88.5 71.5308 88.5 68C88.5 64.4577 87.9946 60.67 87.2999 57.6383C86.9525 56.1227 86.5551 54.7838 86.1442 53.7524C85.9389 53.2372 85.7262 52.7884 85.509 52.4289C85.2982 52.0801 85.0568 51.7703 84.7774 51.584C84.547 51.4304 84.1615 51.275 83.6965 51.1194C83.2148 50.9581 82.5969 50.7805 81.8649 50.5933C80.4457 50.2306 78.5788 49.8274 76.4053 49.4354C72.0153 42.8444 64.5151 38.5 56 38.5Z" fill="#E0E0E0" stroke="#333333"/>
<path d="M68.3955 84.7155C64.7421 86.8055 60.5105 88 56 88C51.4895 88 47.2579 86.8055 43.6045 84.7155C40.5721 90.2396 39.7261 93.4471 38.7281 97.344C37.9727 97.949 37.423 98.6578 37.1387 99.4865C37.3421 98.7259 37.527 98.0037 37.7062 97.3037C38.7427 93.2548 39.5903 89.9438 42.746 84.2014C35.6913 79.7818 31 71.9388 31 63C31 58.2955 32.2995 53.8945 34.559 50.1364C34.9897 50.0539 35.4351 49.9715 35.894 49.8896C33.4315 53.6585 32 58.1621 32 63C32 76.2548 42.7452 87 56 87C60.6599 87 65.0096 85.6719 68.6913 83.3737C68.7162 83.3581 68.7411 83.3425 68.766 83.3268C75.5151 79.0792 80 71.5634 80 63C80 58.1621 78.5685 53.6585 76.106 49.8896C76.5649 49.9715 77.0103 50.0539 77.441 50.1364C79.7005 53.8945 81 58.2955 81 63C81 71.9388 76.3087 79.7818 69.2539 84.2014C72.4097 89.9438 73.2573 93.2548 74.2938 97.3037C74.473 98.0038 74.6579 98.7259 74.8613 99.4865C74.5769 98.6578 74.0273 97.949 73.2719 97.344C72.2739 93.4471 71.4279 90.2396 68.3955 84.7155Z" fill="#828282"/>
<path fill-rule="evenodd" clip-rule="evenodd" d="M67 41.6636C63.7048 39.9613 59.9647 39 56 39C52.0353 39 48.2952 39.9613 45 41.6636V61C45 67.0751 49.9249 72 56 72C62.0751 72 67 67.0751 67 61V41.6636Z" fill="#BDBDBD"/>
<path d="M68 42.2108V61C68 67.6274 62.6274 73 56 73C49.3726 73 44 67.6274 44 61V42.2108C44.3285 42.0208 44.6619 41.8383 45 41.6636V61C45 67.0751 49.9249 72 56 72C62.0751 72 67 67.0751 67 61V41.6636C67.3381 41.8383 67.6715 42.0208 68 42.2108Z" fill="#4F4F4F"/>
<path d="M48 52.5616C48 51.6438 48.6244 50.8464 49.5258 50.6742C51.0535 50.3823 53.5267 50 56 50C58.4733 50 60.9465 50.3823 62.4742 50.6742C63.3756 50.8464 64 51.6438 64 52.5616V63.4384C64 64.3562 63.3756 65.1536 62.4742 65.3258C60.9465 65.6177 58.4733 66 56 66C53.5267 66 51.0535 65.6177 49.5258 65.3258C48.6244 65.1536 48 64.3562 48 63.4384V52.5616Z" fill="#828282"/>
<path d="M49 52.5C49 52.2239 49.2239 52 49.5 52H62.5C62.7761 52 63 52.2239 63 52.5V63.5C63 63.7761 62.7761 64 62.5 64H49.5C49.2239 64 49 63.7761 49 63.5V52.5Z" fill="#4F4F4F"/>
<path fill-rule="evenodd" clip-rule="evenodd" d="M50 53V63H62V53H50ZM49.5 52C49.2239 52 49 52.2239 49 52.5V63.5C49 63.7761 49.2239 64 49.5 64H62.5C62.7761 64 63 63.7761 63 63.5V52.5C63 52.2239 62.7761 52 62.5 52H49.5Z" fill="black" fill-opacity="0.15"/>
<path d="M33.8843 69.4577C33.6038 69.6458 33.5 69.9503 33.5 70.2071V72.5H31.2071C30.9503 72.5 30.6458 72.6038 30.4577 72.8843C30.2657 73.1706 30 73.7116 30 74.5C30 75.2884 30.2657 75.8294 30.4577 76.1157L30.8721 75.8378L30.4577 76.1157C30.6458 76.3962 30.9503 76.5 31.2071 76.5H33.5V78.7929C33.5 79.0497 33.6038 79.3542 33.8843 79.5423L34.1628 79.127L33.8843 79.5423C34.1706 79.7343 34.7116 80 35.5 80C36.2884 80 36.8294 79.7343 37.1157 79.5423C37.3962 79.3542 37.5 79.0497 37.5 78.7929V76.5H39.7929C40.0497 76.5 40.3542 76.3962 40.5423 76.1157C40.7343 75.8294 41 75.2884 41 74.5C41 73.7116 40.7343 73.1706 40.5423 72.8843L40.127 73.1628L40.5423 72.8843C40.3542 72.6038 40.0497 72.5 39.7929 72.5H37.5V70.2071C37.5 69.9503 37.3962 69.6458 37.1157 69.4577L36.8372 69.873L37.1157 69.4577C36.8294 69.2657 36.2884 69 35.5 69C34.7116 69 34.1706 69.2657 33.8843 69.4577Z" fill="#E0E0E0" stroke="#4F4F4F"/>
<circle cx="77.5" cy="59.5" r="3" fill="#EB5757" stroke="#4F4F4F"/>
<circle cx="77.5" cy="71.5" r="3" fill="#EB5757" stroke="#4F4F4F"/>
<circle cx="71.5" cy="65.5" r="3" fill="#EB5757" stroke="#4F4F4F"/>
<circle cx="83.5" cy="65.5" r="3" fill="#EB5757" stroke="#4F4F4F"/>
<circle cx="34" cy="60" r="7.5" fill="#E0E0E0" stroke="#4F4F4F"/>
<circle cx="34" cy="60" r="4.5" fill="#EB5757" stroke="#C03535"/>
<circle cx="35.5" cy="74.5" r="1.25" stroke="#BDBDBD" stroke-width="0.5"/>
<path d="M58.1366 83.7586L57.2179 82.4809C56.6194 81.6484 55.3806 81.6484 54.7821 82.4809L53.8634 83.7587C53.1721 84.7202 52.6155 85.7717 52.2089 86.8839L51.7726 88.0772C51.4452 88.9727 52.0254 89.9424 52.9693 90.0772L54.1615 90.2475C55.381 90.4217 56.619 90.4217 57.8385 90.2475L59.0307 90.0772C59.9746 89.9424 60.5548 88.9727 60.2274 88.0773L59.7912 86.8839C59.3845 85.7717 58.8279 84.7202 58.1366 83.7586Z" fill="#E0E0E0" stroke="#E0E0E0" stroke-width="2"/>
<path d="M57.0895 83.1588L56.8119 82.7728C56.4129 82.2178 55.5871 82.2178 55.1881 82.7728L54.9105 83.1588C53.8204 84.6751 52.9426 86.3332 52.3014 88.0871L52.2422 88.2489C52.024 88.8459 52.4108 89.4923 53.04 89.5822L53.1009 89.5909C55.0239 89.8656 56.9761 89.8656 58.8991 89.5909L58.96 89.5822C59.5892 89.4923 59.976 88.8459 59.7578 88.2489L59.6986 88.0871C59.0575 86.3332 58.1796 84.6751 57.0895 83.1588Z" fill="#BDBDBD" stroke="#4F4F4F"/>
<path d="M45.3092 124.03L44.1392 132.324C44.1046 132.558 44.0309 132.731 43.9182 132.844C43.8056 132.948 43.6322 133 43.3982 133H42.4102C42.1936 133 42.0332 132.944 41.9292 132.831C41.8339 132.718 41.7472 132.562 41.6692 132.363L39.7842 127.657C39.6976 127.466 39.6196 127.254 39.5502 127.02C39.4896 126.786 39.4332 126.556 39.3812 126.331H39.2252C39.2252 126.565 39.2166 126.803 39.1992 127.046C39.1906 127.28 39.1689 127.518 39.1342 127.761L38.3932 133H36.5212L37.6782 124.706C37.7129 124.472 37.7909 124.303 37.9122 124.199C38.0336 124.086 38.2112 124.03 38.4452 124.03H39.4072C39.6239 124.03 39.7799 124.091 39.8752 124.212C39.9706 124.325 40.0616 124.476 40.1482 124.667L41.9812 129.217C42.0679 129.416 42.1502 129.637 42.2282 129.88C42.3149 130.114 42.3929 130.365 42.4622 130.634H42.6442C42.6356 130.374 42.6356 130.131 42.6442 129.906C42.6616 129.681 42.6876 129.451 42.7222 129.217L43.4372 124.03H45.3092ZM49.6876 126.409C49.9129 126.409 50.1643 126.422 50.4416 126.448C50.7276 126.465 51.0136 126.491 51.2996 126.526C51.5943 126.561 51.8673 126.6 52.1186 126.643C52.3786 126.686 52.5909 126.73 52.7556 126.773L51.4426 127.813C51.0959 127.796 50.7796 127.787 50.4936 127.787C50.2076 127.778 49.9389 127.774 49.6876 127.774C49.4016 127.774 49.1589 127.796 48.9596 127.839C48.7603 127.882 48.5956 127.969 48.4656 128.099C48.3356 128.22 48.2273 128.407 48.1406 128.658C48.0539 128.909 47.9803 129.247 47.9196 129.672C47.8416 130.209 47.7983 130.621 47.7896 130.907C47.7896 131.184 47.8416 131.375 47.9456 131.479C48.0496 131.583 48.2143 131.631 48.4396 131.622C48.6736 131.613 48.9163 131.535 49.1676 131.388C49.4276 131.241 49.6833 131.041 49.9346 130.79C50.1859 130.53 50.4286 130.24 50.6626 129.919L51.0006 130.543C50.8273 131.054 50.5803 131.505 50.2596 131.895C49.9476 132.276 49.5793 132.575 49.1546 132.792C48.7299 133.009 48.2576 133.13 47.7376 133.156C47.1743 133.182 46.7409 133.069 46.4376 132.818C46.1429 132.567 45.9609 132.177 45.8916 131.648C45.8223 131.119 45.8483 130.456 45.9696 129.659C46.0823 128.922 46.2383 128.337 46.4376 127.904C46.6456 127.462 46.9056 127.137 47.2176 126.929C47.5296 126.712 47.8893 126.574 48.2966 126.513C48.7126 126.444 49.1763 126.409 49.6876 126.409ZM50.8576 126.656L52.7556 126.773L51.8846 133H50.3896L50.4156 131.544L50.1816 131.388L50.8576 126.656ZM57.3026 126.409C58.0913 126.409 58.724 126.526 59.2006 126.76C59.6773 126.985 59.998 127.349 60.1626 127.852C60.336 128.355 60.362 129.031 60.2406 129.88C60.128 130.686 59.933 131.332 59.6556 131.817C59.387 132.294 59.0056 132.636 58.5116 132.844C58.0176 133.052 57.3763 133.156 56.5876 133.156C55.8076 133.156 55.175 133.043 54.6896 132.818C54.213 132.593 53.8836 132.229 53.7016 131.726C53.5283 131.223 53.498 130.556 53.6106 129.724C53.732 128.909 53.927 128.264 54.1956 127.787C54.4643 127.302 54.85 126.951 55.3526 126.734C55.864 126.517 56.514 126.409 57.3026 126.409ZM57.2766 127.813C56.93 127.813 56.6483 127.869 56.4316 127.982C56.2236 128.095 56.0546 128.298 55.9246 128.593C55.8033 128.888 55.7036 129.317 55.6256 129.88C55.5563 130.374 55.5346 130.76 55.5606 131.037C55.5953 131.314 55.6993 131.505 55.8726 131.609C56.046 131.713 56.3016 131.765 56.6396 131.765C56.9863 131.765 57.2636 131.709 57.4716 131.596C57.6796 131.475 57.8443 131.267 57.9656 130.972C58.087 130.677 58.1866 130.261 58.2646 129.724C58.334 129.213 58.3513 128.823 58.3166 128.554C58.2906 128.277 58.191 128.086 58.0176 127.982C57.853 127.869 57.606 127.813 57.2766 127.813ZM63.4886 126.578L63.5016 128.06L63.6706 128.242L63.0076 133H61.0966L61.9936 126.578H63.4886ZM66.0496 126.409C66.6476 126.409 67.0809 126.569 67.3496 126.89C67.6269 127.211 67.7266 127.657 67.6486 128.229L66.9726 133H65.1266L65.7246 128.749C65.7593 128.489 65.7376 128.307 65.6596 128.203C65.5816 128.09 65.4343 128.034 65.2176 128.034C65.0616 128.034 64.8969 128.069 64.7236 128.138C64.5503 128.207 64.3553 128.32 64.1386 128.476C63.9219 128.623 63.6576 128.831 63.3456 129.1L63.1116 128.138C63.6489 127.54 64.1473 127.102 64.6066 126.825C65.0659 126.548 65.5469 126.409 66.0496 126.409ZM70.0536 126.409C70.6603 126.409 71.1023 126.574 71.3796 126.903C71.6569 127.224 71.7523 127.666 71.6656 128.229L71.0026 133H69.0916L69.6896 128.749C69.7243 128.472 69.6939 128.285 69.5986 128.19C69.5119 128.086 69.3733 128.034 69.1826 128.034C69.0353 128.034 68.8749 128.069 68.7016 128.138C68.5369 128.199 68.3463 128.307 68.1296 128.463C67.9216 128.61 67.6703 128.818 67.3756 129.087L67.1286 128.138C67.6659 127.531 68.1599 127.094 68.6106 126.825C69.0699 126.548 69.5509 126.409 70.0536 126.409ZM75.3697 126.578L74.4727 133H72.5617L73.4587 126.578H75.3697ZM75.1747 123.744C75.3827 123.744 75.53 123.796 75.6167 123.9C75.712 124.004 75.7467 124.16 75.7207 124.368L75.6297 125.057C75.5777 125.421 75.3654 125.603 74.9927 125.603H74.2127C73.7967 125.603 73.6104 125.395 73.6537 124.979L73.7577 124.29C73.7924 123.926 74.0004 123.744 74.3817 123.744H75.1747Z" fill="white"/>
</g>
<defs>
<clipPath id="clip0_121_207">
<rect width="112" height="160" rx="6" fill="white"/>
</clipPath>
</defs>
</svg>
