<svg width="112" height="160" viewBox="0 0 112 160" fill="none" xmlns="http://www.w3.org/2000/svg">
<g clip-path="url(#clip0_114_2475)">
<path d="M1 7C1 3.6863 3.68629 1 7 1H105C108.314 1 111 3.68629 111 7V152C111 155.314 108.314 158 105 158H7C3.68629 158 1 155.314 1 152V7Z" fill="#393B4E"/>
<path fill-rule="evenodd" clip-rule="evenodd" d="M7 0C3.13401 0 0 3.13401 0 7V153C0 156.866 3.13401 160 7 160H105C108.866 160 112 156.866 112 153V7C112 3.13401 108.866 0 105 0H7ZM7 1C3.68629 1 1 3.68629 1 7C1 7 1 7 1 7V152C1 152.165 1.00666 152.328 1.01973 152.49C1.2691 155.575 3.85131 158 7 158H105C108.149 158 110.731 155.575 110.98 152.49C110.993 152.328 111 152.165 111 152V7C111 3.68629 108.314 1 105 1H7Z" fill="black" fill-opacity="0.3"/>
<rect x="24" y="38" width="64" height="68" rx="2" fill="#18ADDC"/>
<rect x="22.5" y="36.5" width="67" height="71" rx="3.5" stroke="white" stroke-opacity="0.3" stroke-width="3"/>
<rect x="23.5" y="37.5" width="65" height="69" rx="2.5" fill="#188BDC" stroke="#333333"/>
<path d="M24 40C24 38.8954 24.8954 38 26 38H86C87.1046 38 88 38.8954 88 40V70H24V40Z" fill="#4F4F4F"/>
<rect x="39" y="43" width="34" height="24" rx="1" fill="#747B81"/>
<rect x="38.5" y="42.5" width="35" height="25" rx="1.5" stroke="black" stroke-opacity="0.3"/>
<rect x="39" y="77" width="34" height="24" rx="1" fill="#6E7C87"/>
<rect x="38.5" y="76.5" width="35" height="25" rx="1.5" stroke="black" stroke-opacity="0.3"/>
<path d="M82 83.5C82 84.3284 81.3284 85 80.5 85C79.6716 85 79 84.3284 79 83.5C79 82.6716 79.6716 82 80.5 82C81.3284 82 82 82.6716 82 83.5Z" fill="#E0E0E0"/>
<path d="M77.5 88C78.3284 88 79 87.3284 79 86.5C79 85.6716 78.3284 85 77.5 85C76.6716 85 76 85.6716 76 86.5C76 87.3284 76.6716 88 77.5 88Z" fill="#E0E0E0"/>
<path d="M83.5 88C84.3284 88 85 87.3284 85 86.5C85 85.6716 84.3284 85 83.5 85C82.6716 85 82 85.6716 82 86.5C82 87.3284 82.6716 88 83.5 88Z" fill="#E0E0E0"/>
<path d="M80.5 91C81.3284 91 82 90.3284 82 89.5C82 88.6716 81.3284 88 80.5 88C79.6716 88 79 88.6716 79 89.5C79 90.3284 79.6716 91 80.5 91Z" fill="#E0E0E0"/>
<path d="M80.5 85.25C81.4665 85.25 82.25 84.4665 82.25 83.5C82.25 82.5335 81.4665 81.75 80.5 81.75C79.5335 81.75 78.75 82.5335 78.75 83.5C78.75 84.4665 79.5335 85.25 80.5 85.25ZM77.5 88.25C78.4665 88.25 79.25 87.4665 79.25 86.5C79.25 85.5335 78.4665 84.75 77.5 84.75C76.5335 84.75 75.75 85.5335 75.75 86.5C75.75 87.4665 76.5335 88.25 77.5 88.25ZM83.5 88.25C84.4665 88.25 85.25 87.4665 85.25 86.5C85.25 85.5335 84.4665 84.75 83.5 84.75C82.5335 84.75 81.75 85.5335 81.75 86.5C81.75 87.4665 82.5335 88.25 83.5 88.25ZM80.5 91.25C81.4665 91.25 82.25 90.4665 82.25 89.5C82.25 88.5335 81.4665 87.75 80.5 87.75C79.5335 87.75 78.75 88.5335 78.75 89.5C78.75 90.4665 79.5335 91.25 80.5 91.25Z" stroke="black" stroke-opacity="0.3" stroke-width="0.5"/>
<path d="M30.5 82C30.2239 82 30 82.2239 30 82.5V85H27.5C27.2239 85 27 85.2239 27 85.5V87.5C27 87.7761 27.2239 88 27.5 88H30V90.5C30 90.7761 30.2239 91 30.5 91H32.5C32.7761 91 33 90.7761 33 90.5V88H35.5C35.7761 88 36 87.7761 36 87.5V85.5C36 85.2239 35.7761 85 35.5 85H33V82.5C33 82.2239 32.7761 82 32.5 82H30.5Z" fill="#E0E0E0"/>
<path d="M30.5 81.5C29.9477 81.5 29.5 81.9477 29.5 82.5V84.5H27.5C26.9477 84.5 26.5 84.9477 26.5 85.5V87.5C26.5 88.0523 26.9477 88.5 27.5 88.5H29.5V90.5C29.5 91.0523 29.9477 91.5 30.5 91.5H32.5C33.0523 91.5 33.5 91.0523 33.5 90.5V88.5H35.5C36.0523 88.5 36.5 88.0523 36.5 87.5V85.5C36.5 84.9477 36.0523 84.5 35.5 84.5H33.5V82.5C33.5 81.9477 33.0523 81.5 32.5 81.5H30.5Z" stroke="black" stroke-opacity="0.3"/>
<rect x="78" y="51" width="1" height="1" rx="0.5" fill="#333333"/>
<rect x="80" y="51" width="1" height="1" rx="0.5" fill="#333333"/>
<rect x="79" y="53" width="1" height="1" rx="0.5" fill="#333333"/>
<rect x="77" y="53" width="1" height="1" rx="0.5" fill="#333333"/>
<rect x="81" y="53" width="1" height="1" rx="0.5" fill="#333333"/>
<rect x="80" y="55" width="1" height="1" rx="0.5" fill="#333333"/>
<rect x="78" y="55" width="1" height="1" rx="0.5" fill="#333333"/>
<rect x="31" y="51" width="1" height="1" rx="0.5" fill="#333333"/>
<rect x="33" y="51" width="1" height="1" rx="0.5" fill="#333333"/>
<rect x="32" y="53" width="1" height="1" rx="0.5" fill="#333333"/>
<rect x="30" y="53" width="1" height="1" rx="0.5" fill="#333333"/>
<rect x="34" y="53" width="1" height="1" rx="0.5" fill="#333333"/>
<rect x="33" y="55" width="1" height="1" rx="0.5" fill="#333333"/>
<rect x="31" y="55" width="1" height="1" rx="0.5" fill="#333333"/>
<circle cx="35" cy="99" r="1" fill="#E0E0E0"/>
<circle cx="35" cy="99" r="1.25" stroke="black" stroke-opacity="0.3" stroke-width="0.5"/>
<path d="M77 97C77.5523 97 78 96.5523 78 96C78 95.4477 77.5523 95 77 95C76.4477 95 76 95.4477 76 96C76 96.5523 76.4477 97 77 97Z" fill="#E0E0E0"/>
<path d="M77 100C77.5523 100 78 99.5523 78 99C78 98.4477 77.5523 98 77 98C76.4477 98 76 98.4477 76 99C76 99.5523 76.4477 100 77 100Z" fill="#E0E0E0"/>
<path d="M77 97.25C77.6904 97.25 78.25 96.6904 78.25 96C78.25 95.3096 77.6904 94.75 77 94.75C76.3096 94.75 75.75 95.3096 75.75 96C75.75 96.6904 76.3096 97.25 77 97.25ZM77 100.25C77.6904 100.25 78.25 99.6904 78.25 99C78.25 98.3096 77.6904 97.75 77 97.75C76.3096 97.75 75.75 98.3096 75.75 99C75.75 99.6904 76.3096 100.25 77 100.25Z" stroke="black" stroke-opacity="0.3" stroke-width="0.5"/>
<path d="M36.5 73.5H24M75.5 73.5H88M35.5 70.5H76.5" stroke="black" stroke-opacity="0.1"/>
<path d="M24 70.5H35.5C35.7761 70.5 36 70.7239 36 71V73C36 73.2761 36.2239 73.5 36.5 73.5H75.5C75.7761 73.5 76 73.2761 76 73V71C76 70.7239 76.2239 70.5 76.5 70.5H88" stroke="#11619A"/>
<circle cx="56" cy="72" r="1" fill="black" fill-opacity="0.8"/>
<circle cx="61" cy="72" r="0.5" fill="black" fill-opacity="0.6"/>
<path d="M52.2916 124.03L51.1216 132.324C51.087 132.558 51.0133 132.731 50.9006 132.844C50.788 132.948 50.6146 133 50.3806 133H49.3926C49.176 133 49.0156 132.944 48.9116 132.831C48.8163 132.718 48.7296 132.562 48.6516 132.363L46.7666 127.657C46.68 127.466 46.602 127.254 46.5326 127.02C46.472 126.786 46.4156 126.556 46.3636 126.331H46.2076C46.2076 126.565 46.199 126.803 46.1816 127.046C46.173 127.28 46.1513 127.518 46.1166 127.761L45.3756 133H43.5036L44.6606 124.706C44.6953 124.472 44.7733 124.303 44.8946 124.199C45.016 124.086 45.1936 124.03 45.4276 124.03H46.3896C46.6063 124.03 46.7623 124.091 46.8576 124.212C46.953 124.325 47.044 124.476 47.1306 124.667L48.9636 129.217C49.0503 129.416 49.1326 129.637 49.2106 129.88C49.2973 130.114 49.3753 130.365 49.4446 130.634H49.6266C49.618 130.374 49.618 130.131 49.6266 129.906C49.644 129.681 49.67 129.451 49.7046 129.217L50.4196 124.03H52.2916ZM57.385 123.9C58.3297 123.9 59.0793 124.043 59.634 124.329C60.1973 124.606 60.5743 125.087 60.765 125.772C60.9557 126.448 60.9643 127.388 60.791 128.593C60.661 129.52 60.4877 130.283 60.271 130.881C60.0543 131.47 59.777 131.93 59.439 132.259C59.101 132.58 58.6763 132.805 58.165 132.935C57.6537 133.065 57.0427 133.13 56.332 133.13C55.708 133.13 55.1013 133.117 54.512 133.091C53.9227 133.065 53.3593 133.035 52.822 133L53.797 131.531C54.1177 131.548 54.512 131.566 54.98 131.583C55.448 131.592 55.89 131.596 56.306 131.596C56.67 131.596 56.982 131.557 57.242 131.479C57.5107 131.392 57.736 131.236 57.918 131.011C58.1087 130.786 58.2647 130.469 58.386 130.062C58.516 129.646 58.6243 129.104 58.711 128.437C58.7977 127.822 58.841 127.319 58.841 126.929C58.841 126.53 58.789 126.223 58.685 126.006C58.5897 125.789 58.4293 125.638 58.204 125.551C57.9787 125.464 57.684 125.421 57.32 125.421C57.0513 125.421 56.7697 125.425 56.475 125.434C56.1803 125.434 55.89 125.434 55.604 125.434C55.3267 125.434 55.071 125.434 54.837 125.434L54.083 124.03C54.395 124.004 54.7373 123.982 55.11 123.965C55.4827 123.939 55.864 123.922 56.254 123.913C56.644 123.904 57.021 123.9 57.385 123.9ZM56.072 124.03L54.811 133H52.822L54.083 124.03H56.072ZM65.7786 123.861C66.2466 123.861 66.7363 123.891 67.2476 123.952C67.759 124.004 68.2486 124.095 68.7166 124.225L68.5346 125.538C68.2573 125.529 67.9583 125.525 67.6376 125.525C67.3256 125.516 67.005 125.512 66.6756 125.512C66.3463 125.503 66.0126 125.499 65.6746 125.499C65.458 125.499 65.263 125.508 65.0896 125.525C64.925 125.534 64.782 125.564 64.6606 125.616C64.548 125.668 64.457 125.755 64.3876 125.876C64.3183 125.989 64.2663 126.145 64.2316 126.344C64.2143 126.517 64.2186 126.665 64.2446 126.786C64.2793 126.899 64.353 126.998 64.4656 127.085C64.5783 127.163 64.7473 127.25 64.9726 127.345L66.5976 128.021C67.0743 128.22 67.434 128.441 67.6766 128.684C67.9193 128.927 68.0753 129.213 68.1446 129.542C68.214 129.863 68.2183 130.244 68.1576 130.686C68.0796 131.353 67.9106 131.869 67.6506 132.233C67.3906 132.588 67.018 132.835 66.5326 132.974C66.0473 133.104 65.4103 133.169 64.6216 133.169C64.301 133.169 63.859 133.143 63.2956 133.091C62.741 133.048 62.143 132.957 61.5016 132.818L61.6966 131.414C62.208 131.423 62.65 131.436 63.0226 131.453C63.3953 131.462 63.7073 131.47 63.9586 131.479C64.21 131.479 64.4093 131.479 64.5566 131.479C64.9293 131.479 65.2283 131.457 65.4536 131.414C65.679 131.362 65.848 131.275 65.9606 131.154C66.082 131.024 66.16 130.833 66.1946 130.582C66.2206 130.391 66.2163 130.24 66.1816 130.127C66.1556 130.014 66.0863 129.923 65.9736 129.854C65.8696 129.776 65.7223 129.698 65.5316 129.62L63.8156 128.879C63.3563 128.68 63.0053 128.454 62.7626 128.203C62.52 127.943 62.364 127.653 62.2946 127.332C62.2253 127.003 62.2166 126.643 62.2686 126.253C62.3293 125.759 62.4463 125.356 62.6196 125.044C62.793 124.723 63.0226 124.481 63.3086 124.316C63.6033 124.143 63.9543 124.026 64.3616 123.965C64.7776 123.896 65.25 123.861 65.7786 123.861Z" fill="white"/>
</g>
<defs>
<clipPath id="clip0_114_2475">
<rect width="112" height="160" rx="6" fill="white"/>
</clipPath>
</defs>
</svg>
