<svg width="112" height="160" viewBox="0 0 112 160" fill="none" xmlns="http://www.w3.org/2000/svg">
<g clip-path="url(#clip0_113_1385)">
<path d="M1 7C1 3.6863 3.68629 1 7 1H105C108.314 1 111 3.68629 111 7V152C111 155.314 108.314 158 105 158H7C3.68629 158 1 155.314 1 152V7Z" fill="#393B4E"/>
<path fill-rule="evenodd" clip-rule="evenodd" d="M7 0C3.13401 0 0 3.13401 0 7V153C0 156.866 3.13401 160 7 160H105C108.866 160 112 156.866 112 153V7C112 3.13401 108.866 0 105 0H7ZM7 1C3.68629 1 1 3.68629 1 7C1 7 1 7 1 7V152C1 152.165 1.00666 152.328 1.01973 152.49C1.2691 155.575 3.85131 158 7 158H105C108.149 158 110.731 155.575 110.98 152.49C110.993 152.328 111 152.165 111 152V7C111 3.68629 108.314 1 105 1H7Z" fill="black" fill-opacity="0.3"/>
<rect x="16" y="52" width="80" height="40" rx="2" fill="#F8D99B"/>
<rect x="14.5" y="50.5" width="83" height="43" rx="3.5" stroke="white" stroke-opacity="0.3" stroke-width="3"/>
<rect x="15.5" y="51.5" width="81" height="41" rx="2.5" fill="#F8D99B" stroke="#333333"/>
<rect x="16" y="52" width="80" height="40" rx="2" fill="#BDBDBD"/>
<rect x="18" y="58" width="76" height="32" fill="#4F4F4F"/>
<path d="M26.5 69.5C25.9477 69.5 25.5 69.9477 25.5 70.5V74.5H21.5C20.9477 74.5 20.5 74.9477 20.5 75.5V79.5C20.5 80.0523 20.9477 80.5 21.5 80.5H25.5V84.5C25.5 85.0523 25.9477 85.5 26.5 85.5H30.5C31.0523 85.5 31.5 85.0523 31.5 84.5V80.5H35.5C36.0523 80.5 36.5 80.0523 36.5 79.5V75.5C36.5 74.9477 36.0523 74.5 35.5 74.5H31.5V70.5C31.5 69.9477 31.0523 69.5 30.5 69.5H26.5Z" fill="#333333" stroke="#E0E0E0"/>
<rect x="70" y="76" width="9" height="9" rx="1" fill="#E0E0E0"/>
<rect x="81" y="76" width="9" height="9" rx="1" fill="#E0E0E0"/>
<circle cx="74.5" cy="80.5" r="3.5" fill="#EB5757"/>
<circle cx="85.5" cy="80.5" r="3.5" fill="#EB5757"/>
<rect x="44" y="76" width="23" height="9" rx="1" fill="#E0E0E0"/>
<rect x="48" y="79" width="6" height="3" rx="1.5" fill="#333333"/>
<rect x="47.5" y="78.5" width="7" height="4" rx="2" stroke="black" stroke-opacity="0.2"/>
<rect x="57" y="79" width="6" height="3" rx="1.5" fill="#333333"/>
<rect x="56.5" y="78.5" width="7" height="4" rx="2" stroke="black" stroke-opacity="0.2"/>
<path d="M44 88C44 87.4477 44.4477 87 45 87H66C66.5523 87 67 87.4477 67 88V90H44V88Z" fill="#828282"/>
<rect x="44" y="69" width="23" height="5" rx="1" fill="#828282"/>
<rect x="44" y="63" width="23" height="5" rx="1" fill="#828282"/>
<path d="M44 58H67V61C67 61.5523 66.5523 62 66 62H45C44.4477 62 44 61.5523 44 61V58Z" fill="#828282"/>
<path d="M52.9899 124.03L51.8199 132.324C51.7852 132.558 51.7116 132.731 51.5989 132.844C51.4862 132.948 51.3129 133 51.0789 133H50.0909C49.8742 133 49.7139 132.944 49.6099 132.831C49.5146 132.718 49.4279 132.562 49.3499 132.363L47.4649 127.657C47.3782 127.466 47.3002 127.254 47.2309 127.02C47.1702 126.786 47.1139 126.556 47.0619 126.331H46.9059C46.9059 126.565 46.8972 126.803 46.8799 127.046C46.8712 127.28 46.8496 127.518 46.8149 127.761L46.0739 133H44.2019L45.3589 124.706C45.3936 124.472 45.4716 124.303 45.5929 124.199C45.7142 124.086 45.8919 124.03 46.1259 124.03H47.0879C47.3046 124.03 47.4606 124.091 47.5559 124.212C47.6512 124.325 47.7422 124.476 47.8289 124.667L49.6619 129.217C49.7486 129.416 49.8309 129.637 49.9089 129.88C49.9956 130.114 50.0736 130.365 50.1429 130.634H50.3249C50.3162 130.374 50.3162 130.131 50.3249 129.906C50.3422 129.681 50.3682 129.451 50.4029 129.217L51.1179 124.03H52.9899ZM56.5493 123.991C57.0433 123.991 57.5329 123.995 58.0183 124.004C58.5123 124.004 58.9933 124.017 59.4613 124.043C59.9293 124.06 60.3626 124.091 60.7613 124.134L60.5273 125.564H57.1733C56.9219 125.564 56.7356 125.62 56.6143 125.733C56.4929 125.837 56.4149 126.015 56.3803 126.266L55.7563 130.79C55.7216 131.015 55.7519 131.184 55.8473 131.297C55.9426 131.41 56.1116 131.466 56.3543 131.466H59.6693L59.6303 132.909C59.2316 132.961 58.8026 132.991 58.3433 133C57.8926 133.017 57.4333 133.026 56.9653 133.026C56.5059 133.035 56.0553 133.039 55.6133 133.039C54.9199 133.039 54.4129 132.844 54.0923 132.454C53.7716 132.055 53.6546 131.54 53.7413 130.907L54.4563 125.759C54.5343 125.213 54.7509 124.784 55.1063 124.472C55.4616 124.151 55.9426 123.991 56.5493 123.991ZM54.4433 127.644H59.7343L59.5653 129.035H54.2223L54.4433 127.644ZM65.0804 123.861C65.5484 123.861 66.0381 123.891 66.5494 123.952C67.0607 124.004 67.5504 124.095 68.0184 124.225L67.8364 125.538C67.5591 125.529 67.2601 125.525 66.9394 125.525C66.6274 125.516 66.3067 125.512 65.9774 125.512C65.6481 125.503 65.3144 125.499 64.9764 125.499C64.7597 125.499 64.5647 125.508 64.3914 125.525C64.2267 125.534 64.0837 125.564 63.9624 125.616C63.8497 125.668 63.7587 125.755 63.6894 125.876C63.6201 125.989 63.5681 126.145 63.5334 126.344C63.5161 126.517 63.5204 126.665 63.5464 126.786C63.5811 126.899 63.6547 126.998 63.7674 127.085C63.8801 127.163 64.0491 127.25 64.2744 127.345L65.8994 128.021C66.3761 128.22 66.7357 128.441 66.9784 128.684C67.2211 128.927 67.3771 129.213 67.4464 129.542C67.5157 129.863 67.5201 130.244 67.4594 130.686C67.3814 131.353 67.2124 131.869 66.9524 132.233C66.6924 132.588 66.3197 132.835 65.8344 132.974C65.3491 133.104 64.7121 133.169 63.9234 133.169C63.6027 133.169 63.1607 133.143 62.5974 133.091C62.0427 133.048 61.4447 132.957 60.8034 132.818L60.9984 131.414C61.5097 131.423 61.9517 131.436 62.3244 131.453C62.6971 131.462 63.0091 131.47 63.2604 131.479C63.5117 131.479 63.7111 131.479 63.8584 131.479C64.2311 131.479 64.5301 131.457 64.7554 131.414C64.9807 131.362 65.1497 131.275 65.2624 131.154C65.3837 131.024 65.4617 130.833 65.4964 130.582C65.5224 130.391 65.5181 130.24 65.4834 130.127C65.4574 130.014 65.3881 129.923 65.2754 129.854C65.1714 129.776 65.0241 129.698 64.8334 129.62L63.1174 128.879C62.6581 128.68 62.3071 128.454 62.0644 128.203C61.8217 127.943 61.6657 127.653 61.5964 127.332C61.5271 127.003 61.5184 126.643 61.5704 126.253C61.6311 125.759 61.7481 125.356 61.9214 125.044C62.0947 124.723 62.3244 124.481 62.6104 124.316C62.9051 124.143 63.2561 124.026 63.6634 123.965C64.0794 123.896 64.5517 123.861 65.0804 123.861Z" fill="white"/>
</g>
<defs>
<clipPath id="clip0_113_1385">
<rect width="112" height="160" rx="6" fill="white"/>
</clipPath>
</defs>
</svg>
