<svg width="112" height="160" viewBox="0 0 112 160" fill="none" xmlns="http://www.w3.org/2000/svg">
<g clip-path="url(#clip0_113_1428)">
<path d="M1 7C1 3.6863 3.68629 1 7 1H105C108.314 1 111 3.68629 111 7V152C111 155.314 108.314 158 105 158H7C3.68629 158 1 155.314 1 152V7Z" fill="#393B4E"/>
<path fill-rule="evenodd" clip-rule="evenodd" d="M7 0C3.13401 0 0 3.13401 0 7V153C0 156.866 3.13401 160 7 160H105C108.866 160 112 156.866 112 153V7C112 3.13401 108.866 0 105 0H7ZM7 1C3.68629 1 1 3.68629 1 7C1 7 1 7 1 7V152C1 152.165 1.00666 152.328 1.01973 152.49C1.2691 155.575 3.85131 158 7 158H105C108.149 158 110.731 155.575 110.98 152.49C110.993 152.328 111 152.165 111 152V7C111 3.68629 108.314 1 105 1H7Z" fill="black" fill-opacity="0.3"/>
<rect x="16" y="52" width="80" height="40" rx="2" fill="#F8D99B"/>
<rect x="14.5" y="50.5" width="83" height="43" rx="3.5" stroke="white" stroke-opacity="0.3" stroke-width="3"/>
<rect x="15.5" y="51.5" width="81" height="41" rx="2.5" fill="#F8D99B" stroke="#333333"/>
<rect x="16" y="52" width="80" height="40" rx="2" fill="#6CFF38"/>
<rect x="18" y="58" width="76" height="32" rx="1" fill="#1F7600"/>
<path d="M27.5 69.5C26.9477 69.5 26.5 69.9477 26.5 70.5V74.5H22.5C21.9477 74.5 21.5 74.9477 21.5 75.5V79.5C21.5 80.0523 21.9477 80.5 22.5 80.5H26.5V84.5C26.5 85.0523 26.9477 85.5 27.5 85.5H31.5C32.0523 85.5 32.5 85.0523 32.5 84.5V80.5H36.5C37.0523 80.5 37.5 80.0523 37.5 79.5V75.5C37.5 74.9477 37.0523 74.5 36.5 74.5H32.5V70.5C32.5 69.9477 32.0523 69.5 31.5 69.5H27.5Z" fill="#144C00" stroke="#BAFFA1"/>
<rect x="70" y="76" width="9" height="9" rx="1" fill="#BAFFA1"/>
<rect x="81" y="76" width="9" height="9" rx="1" fill="#BAFFA1"/>
<circle cx="74.5" cy="80.5" r="3.5" fill="#33C400"/>
<circle cx="85.5" cy="80.5" r="3.5" fill="#33C400"/>
<rect x="44" y="76" width="23" height="9" rx="1" fill="#BAFFA1"/>
<rect x="48" y="79" width="6" height="3" rx="1.5" fill="#144C00"/>
<rect x="47.5" y="78.5" width="7" height="4" rx="2" stroke="black" stroke-opacity="0.2"/>
<rect x="57" y="79" width="6" height="3" rx="1.5" fill="#144C00"/>
<rect x="56.5" y="78.5" width="7" height="4" rx="2" stroke="black" stroke-opacity="0.2"/>
<path d="M44 88C44 87.4477 44.4477 87 45 87H66C66.5523 87 67 87.4477 67 88V90H44V88Z" fill="#33C200"/>
<rect x="44" y="69" width="23" height="5" rx="1" fill="#33C200"/>
<rect x="44" y="63" width="23" height="5" rx="1" fill="#33C200"/>
<path d="M44 58H67V61C67 61.5523 66.5523 62 66 62H45C44.4477 62 44 61.5523 44 61V58Z" fill="#33C200"/>
<path d="M32.8615 124.03L31.6915 132.324C31.6568 132.558 31.5831 132.731 31.4705 132.844C31.3578 132.948 31.1845 133 30.9505 133H29.9625C29.7458 133 29.5855 132.944 29.4815 132.831C29.3861 132.718 29.2995 132.562 29.2215 132.363L27.3365 127.657C27.2498 127.466 27.1718 127.254 27.1025 127.02C27.0418 126.786 26.9855 126.556 26.9335 126.331H26.7775C26.7775 126.565 26.7688 126.803 26.7515 127.046C26.7428 127.28 26.7211 127.518 26.6865 127.761L25.9455 133H24.0735L25.2305 124.706C25.2651 124.472 25.3431 124.303 25.4645 124.199C25.5858 124.086 25.7635 124.03 25.9975 124.03H26.9595C27.1761 124.03 27.3321 124.091 27.4275 124.212C27.5228 124.325 27.6138 124.476 27.7005 124.667L29.5335 129.217C29.6201 129.416 29.7025 129.637 29.7805 129.88C29.8671 130.114 29.9451 130.365 30.0145 130.634H30.1965C30.1878 130.374 30.1878 130.131 30.1965 129.906C30.2138 129.681 30.2398 129.451 30.2745 129.217L30.9895 124.03H32.8615ZM36.4208 123.991C36.9148 123.991 37.4045 123.995 37.8898 124.004C38.3838 124.004 38.8648 124.017 39.3328 124.043C39.8008 124.06 40.2342 124.091 40.6328 124.134L40.3988 125.564H37.0448C36.7935 125.564 36.6072 125.62 36.4858 125.733C36.3645 125.837 36.2865 126.015 36.2518 126.266L35.6278 130.79C35.5932 131.015 35.6235 131.184 35.7188 131.297C35.8142 131.41 35.9832 131.466 36.2258 131.466H39.5408L39.5018 132.909C39.1032 132.961 38.6742 132.991 38.2148 133C37.7642 133.017 37.3048 133.026 36.8368 133.026C36.3775 133.035 35.9268 133.039 35.4848 133.039C34.7915 133.039 34.2845 132.844 33.9638 132.454C33.6432 132.055 33.5262 131.54 33.6128 130.907L34.3278 125.759C34.4058 125.213 34.6225 124.784 34.9778 124.472C35.3332 124.151 35.8142 123.991 36.4208 123.991ZM34.3148 127.644H39.6058L39.4368 129.035H34.0938L34.3148 127.644ZM44.952 123.861C45.42 123.861 45.9096 123.891 46.421 123.952C46.9323 124.004 47.422 124.095 47.89 124.225L47.708 125.538C47.4306 125.529 47.1316 125.525 46.811 125.525C46.499 125.516 46.1783 125.512 45.849 125.512C45.5196 125.503 45.186 125.499 44.848 125.499C44.6313 125.499 44.4363 125.508 44.263 125.525C44.0983 125.534 43.9553 125.564 43.834 125.616C43.7213 125.668 43.6303 125.755 43.561 125.876C43.4916 125.989 43.4396 126.145 43.405 126.344C43.3876 126.517 43.392 126.665 43.418 126.786C43.4526 126.899 43.5263 126.998 43.639 127.085C43.7516 127.163 43.9206 127.25 44.146 127.345L45.771 128.021C46.2476 128.22 46.6073 128.441 46.85 128.684C47.0926 128.927 47.2486 129.213 47.318 129.542C47.3873 129.863 47.3916 130.244 47.331 130.686C47.253 131.353 47.084 131.869 46.824 132.233C46.564 132.588 46.1913 132.835 45.706 132.974C45.2206 133.104 44.5836 133.169 43.795 133.169C43.4743 133.169 43.0323 133.143 42.469 133.091C41.9143 133.048 41.3163 132.957 40.675 132.818L40.87 131.414C41.3813 131.423 41.8233 131.436 42.196 131.453C42.5686 131.462 42.8806 131.47 43.132 131.479C43.3833 131.479 43.5826 131.479 43.73 131.479C44.1026 131.479 44.4016 131.457 44.627 131.414C44.8523 131.362 45.0213 131.275 45.134 131.154C45.2553 131.024 45.3333 130.833 45.368 130.582C45.394 130.391 45.3896 130.24 45.355 130.127C45.329 130.014 45.2596 129.923 45.147 129.854C45.043 129.776 44.8956 129.698 44.705 129.62L42.989 128.879C42.5296 128.68 42.1786 128.454 41.936 128.203C41.6933 127.943 41.5373 127.653 41.468 127.332C41.3986 127.003 41.39 126.643 41.442 126.253C41.5026 125.759 41.6196 125.356 41.793 125.044C41.9663 124.723 42.196 124.481 42.482 124.316C42.7766 124.143 43.1276 124.026 43.535 123.965C43.951 123.896 44.4233 123.861 44.952 123.861ZM54.4664 124.03L53.2054 133H51.2034L52.4644 124.03H54.4664ZM57.2484 127.475L57.0404 128.983H53.6604L53.8684 127.475H57.2484ZM59.5754 124.03L58.3144 133H56.3384L57.5994 124.03H59.5754ZM63.9635 126.409C64.1888 126.409 64.4401 126.422 64.7175 126.448C65.0035 126.465 65.2895 126.491 65.5755 126.526C65.8701 126.561 66.1431 126.6 66.3945 126.643C66.6545 126.686 66.8668 126.73 67.0315 126.773L65.7185 127.813C65.3718 127.796 65.0555 127.787 64.7695 127.787C64.4835 127.778 64.2148 127.774 63.9635 127.774C63.6775 127.774 63.4348 127.796 63.2355 127.839C63.0361 127.882 62.8715 127.969 62.7415 128.099C62.6115 128.22 62.5031 128.407 62.4165 128.658C62.3298 128.909 62.2561 129.247 62.1955 129.672C62.1175 130.209 62.0741 130.621 62.0655 130.907C62.0655 131.184 62.1175 131.375 62.2215 131.479C62.3255 131.583 62.4901 131.631 62.7155 131.622C62.9495 131.613 63.1921 131.535 63.4435 131.388C63.7035 131.241 63.9591 131.041 64.2105 130.79C64.4618 130.53 64.7045 130.24 64.9385 129.919L65.2765 130.543C65.1031 131.054 64.8561 131.505 64.5355 131.895C64.2235 132.276 63.8551 132.575 63.4305 132.792C63.0058 133.009 62.5335 133.13 62.0135 133.156C61.4501 133.182 61.0168 133.069 60.7135 132.818C60.4188 132.567 60.2368 132.177 60.1675 131.648C60.0981 131.119 60.1241 130.456 60.2455 129.659C60.3581 128.922 60.5141 128.337 60.7135 127.904C60.9215 127.462 61.1815 127.137 61.4935 126.929C61.8055 126.712 62.1651 126.574 62.5725 126.513C62.9885 126.444 63.4521 126.409 63.9635 126.409ZM65.1335 126.656L67.0315 126.773L66.1605 133H64.6655L64.6915 131.544L64.4575 131.388L65.1335 126.656ZM71.4225 126.409C71.8299 126.409 72.2632 126.444 72.7225 126.513C73.1819 126.574 73.5849 126.678 73.9315 126.825L73.6585 128.008C73.2772 127.991 72.9132 127.982 72.5665 127.982C72.2199 127.973 71.9252 127.969 71.6825 127.969C71.3012 127.969 70.9892 128.021 70.7465 128.125C70.5039 128.229 70.3175 128.415 70.1875 128.684C70.0575 128.944 69.9622 129.312 69.9015 129.789C69.8322 130.292 69.8235 130.673 69.8755 130.933C69.9275 131.193 70.0532 131.371 70.2525 131.466C70.4605 131.561 70.7509 131.609 71.1235 131.609C71.2795 131.609 71.4659 131.605 71.6825 131.596C71.9079 131.587 72.1505 131.579 72.4105 131.57C72.6705 131.553 72.9219 131.527 73.1645 131.492L73.2945 132.74C72.9219 132.887 72.5102 132.991 72.0595 133.052C71.6175 133.121 71.1929 133.156 70.7855 133.156C70.0315 133.156 69.4205 133.043 68.9525 132.818C68.4845 132.584 68.1595 132.216 67.9775 131.713C67.8042 131.202 67.7739 130.534 67.8865 129.711C68.0079 128.914 68.1942 128.277 68.4455 127.8C68.7055 127.315 69.0739 126.964 69.5505 126.747C70.0359 126.522 70.6599 126.409 71.4225 126.409ZM77.5295 123.9L76.9965 127.865C76.9531 128.142 76.8881 128.411 76.8015 128.671C76.7235 128.931 76.6195 129.2 76.4895 129.477C76.5068 129.676 76.5285 129.902 76.5545 130.153C76.5805 130.396 76.5891 130.612 76.5805 130.803L76.2555 133H74.3315L75.6055 123.9H77.5295ZM81.2475 126.578C81.0568 127.254 80.7795 127.83 80.4155 128.307C80.0601 128.775 79.6485 129.169 79.1805 129.49C78.7125 129.811 78.2228 130.084 77.7115 130.309C77.2001 130.526 76.7105 130.716 76.2425 130.881L76.0735 129.607C76.5588 129.416 77.0225 129.169 77.4645 128.866C77.9151 128.563 78.2965 128.216 78.6085 127.826C78.9291 127.436 79.1501 127.02 79.2715 126.578H81.2475ZM78.7385 129.347C78.9551 129.477 79.1328 129.633 79.2715 129.815C79.4101 129.997 79.5228 130.188 79.6095 130.387L80.8315 133H78.8295L77.4255 129.828L78.7385 129.347ZM84.9581 126.409C85.2787 126.409 85.6211 126.422 85.9851 126.448C86.3491 126.474 86.7001 126.504 87.0381 126.539C87.3847 126.574 87.6837 126.613 87.9351 126.656L87.7531 127.852C87.3371 127.843 86.9211 127.839 86.5051 127.839C86.0977 127.83 85.6817 127.822 85.2571 127.813C84.9277 127.813 84.6634 127.822 84.4641 127.839C84.2734 127.848 84.1347 127.882 84.0481 127.943C83.9614 127.995 83.9094 128.082 83.8921 128.203C83.8747 128.359 83.9181 128.48 84.0221 128.567C84.1347 128.654 84.3254 128.745 84.5941 128.84L86.1931 129.412C86.5311 129.533 86.8084 129.676 87.0251 129.841C87.2417 130.006 87.3934 130.209 87.4801 130.452C87.5754 130.695 87.6014 130.989 87.5581 131.336C87.4974 131.856 87.3327 132.246 87.0641 132.506C86.8041 132.757 86.4531 132.926 86.0111 133.013C85.5777 133.1 85.0491 133.143 84.4251 133.143C84.0871 133.143 83.7707 133.134 83.4761 133.117C83.1901 133.108 82.8911 133.082 82.5791 133.039C82.2757 133.004 81.9334 132.961 81.5521 132.909L81.7211 131.713C81.8857 131.722 82.0851 131.73 82.3191 131.739C82.5617 131.739 82.8131 131.743 83.0731 131.752C83.3417 131.752 83.5931 131.752 83.8271 131.752C84.3211 131.743 84.6981 131.726 84.9581 131.7C85.2181 131.674 85.4001 131.631 85.5041 131.57C85.6167 131.501 85.6861 131.401 85.7121 131.271C85.7294 131.158 85.7121 131.072 85.6601 131.011C85.6167 130.95 85.5344 130.894 85.4131 130.842C85.3004 130.79 85.1444 130.729 84.9451 130.66L83.3851 130.075C83.0297 129.945 82.7437 129.789 82.5271 129.607C82.3191 129.425 82.1761 129.204 82.0981 128.944C82.0287 128.684 82.0157 128.389 82.0591 128.06C82.1111 127.661 82.2411 127.345 82.4491 127.111C82.6571 126.868 82.9647 126.691 83.3721 126.578C83.7794 126.465 84.3081 126.409 84.9581 126.409Z" fill="white"/>
</g>
<defs>
<clipPath id="clip0_113_1428">
<rect width="112" height="160" rx="6" fill="white"/>
</clipPath>
</defs>
</svg>
