<svg width="112" height="160" viewBox="0 0 112 160" fill="none" xmlns="http://www.w3.org/2000/svg">
<g clip-path="url(#clip0_19_1421)">
<path d="M1 7C1 3.6863 3.68629 1 7 1H105C108.314 1 111 3.68629 111 7V152C111 155.314 108.314 158 105 158H7C3.68629 158 1 155.314 1 152V7Z" fill="#393B4E"/>
<path fill-rule="evenodd" clip-rule="evenodd" d="M7 0C3.13401 0 0 3.13401 0 7V153C0 156.866 3.13401 160 7 160H105C108.866 160 112 156.866 112 153V7C112 3.13401 108.866 0 105 0H7ZM7 1C3.68629 1 1 3.68629 1 7C1 7 1 7 1 7V152C1 152.165 1.00666 152.328 1.01973 152.49C1.2691 155.575 3.85131 158 7 158H105C108.149 158 110.731 155.575 110.98 152.49C110.993 152.328 111 152.165 111 152V7C111 3.68629 108.314 1 105 1H7Z" fill="black" fill-opacity="0.3"/>
<path d="M15.6308 112.143C16.1957 111.579 16.8096 111.291 17.4725 111.28C18.1353 111.268 18.8597 111.557 19.6455 112.144C20.4297 112.71 21.316 113.617 22.3046 114.863C23.1267 115.903 23.7247 116.818 24.0986 117.608C24.4707 118.377 24.6594 119.061 24.6647 119.661C24.68 120.251 24.5525 120.798 24.2824 121.3C24.0222 121.793 23.6542 122.278 23.1785 122.754C22.9407 122.991 22.6507 123.246 22.3085 123.519C21.9879 123.793 21.64 124.059 21.2646 124.318C20.9108 124.579 20.5495 124.812 20.1806 125.018C19.8117 125.224 19.4708 125.379 19.158 125.482L18.3502 124.02C18.8078 123.586 19.2257 123.191 19.6041 122.836C19.9824 122.481 20.35 122.125 20.7067 121.768C21.0734 121.402 21.3358 121.069 21.4939 120.772C21.662 120.464 21.7173 120.153 21.6599 119.837C21.6124 119.513 21.4537 119.136 21.1838 118.707C20.9238 118.269 20.5491 117.736 20.0598 117.108C19.439 116.308 18.9374 115.728 18.555 115.365C18.161 114.991 17.8347 114.793 17.5761 114.773C17.3157 114.73 17.0667 114.828 16.8288 115.066C16.6207 115.274 16.4535 115.592 16.3273 116.021C16.1994 116.429 16.1207 116.915 16.0911 117.48C16.0498 118.033 16.07 118.618 16.1516 119.235L14.6852 118.571C14.5679 118.177 14.4867 117.699 14.4418 117.139C14.3852 116.567 14.3749 115.972 14.411 115.354C14.4569 114.726 14.5751 114.13 14.7655 113.567C14.9658 112.995 15.2542 112.52 15.6308 112.143ZM12.7779 115.415L14.7962 117.552L15.2287 117.539L20.4584 124.077L20.5891 124.505C20.8917 124.808 21.1777 125.104 21.4472 125.393C21.7283 125.694 22.0128 126.038 22.3008 126.425L23.7565 128.356L21.5563 130.556L11.0238 117.17L12.7779 115.415Z" fill="white" fill-opacity="0.2"/>
<path d="M18.9144 102.086L27.2702 112.761C27.5332 113.103 27.7783 113.288 28.0054 113.317C28.2309 113.325 28.4922 113.18 28.7895 112.882L29.4585 112.213L31.326 113.873C31.2885 114.073 31.1791 114.311 30.9977 114.585C30.8262 114.85 30.6431 115.103 30.4484 115.344C30.2536 115.585 30.0869 115.775 29.9481 115.914C29.2445 116.618 28.5047 116.938 27.7289 116.876C26.9415 116.802 26.2208 116.359 25.5667 115.547L16.7142 104.286L18.9144 102.086Z" fill="white" fill-opacity="0.2"/>
<path d="M28.0096 99.7297C28.2673 99.472 28.5722 99.2021 28.9243 98.9198C29.2746 98.6161 29.6365 98.3239 30.0102 98.0435C30.3937 97.7531 30.7582 97.4932 31.1038 97.264C31.4594 97.0249 31.7604 96.8403 32.0069 96.7102L31.9022 99.6084C31.4825 99.9816 31.1091 100.332 30.782 100.659C30.4433 100.974 30.1303 101.276 29.8429 101.563C29.5158 101.89 29.2674 102.197 29.0977 102.483C28.928 102.769 28.856 103.074 28.882 103.397C28.8963 103.708 29.0226 104.083 29.2611 104.519C29.4995 104.956 29.8692 105.494 30.3702 106.134C31.0027 106.945 31.506 107.547 31.8802 107.941C32.2527 108.314 32.5682 108.51 32.8268 108.531C33.0854 108.552 33.3377 108.427 33.5838 108.158C33.8397 107.879 34.0124 107.497 34.102 107.011C34.2014 106.516 34.2261 105.956 34.1759 105.331C34.1141 104.694 34.0017 104.027 33.8386 103.329L35.0632 103.78C35.5517 104.665 35.8745 105.553 36.0316 106.443C36.187 107.312 36.1674 108.135 35.9727 108.912C35.7781 109.688 35.4009 110.391 34.8412 111.021C34.2319 111.7 33.5851 112.044 32.9007 112.054C32.2262 112.053 31.4943 111.737 30.705 111.107C29.9157 110.476 29.055 109.556 28.1229 108.346C27.2623 107.228 26.655 106.264 26.301 105.454C25.9452 104.623 25.8061 103.889 25.8835 103.253C25.9493 102.605 26.1744 102.007 26.5587 101.46C26.9413 100.891 27.4249 100.314 28.0096 99.7297ZM29.6793 98.7235L32.0069 96.7102L39.3739 106.069L37.6643 107.779L35.7386 105.794L35.2615 105.852L29.6793 98.7235Z" fill="white" fill-opacity="0.2"/>
<path d="M36.5393 91.2C37.0051 90.7342 37.5472 90.2853 38.1656 89.8531C38.7723 89.4093 39.3728 89.0882 39.9671 88.8896L41.2438 90.7906C40.7844 91.2034 40.3565 91.608 39.9601 92.0044C39.552 92.3892 39.2093 92.7203 38.9318 92.9978C38.4957 93.4339 38.2087 93.8605 38.0709 94.2777C37.9331 94.6949 37.9703 95.1582 38.1824 95.6677C38.383 96.1655 38.7686 96.7692 39.3394 97.4788C39.9353 98.2332 40.4375 98.7552 40.8461 99.045C41.2548 99.3347 41.6371 99.4296 41.9931 99.3297C42.359 99.2199 42.755 98.9519 43.1812 98.5257C43.3596 98.3473 43.5668 98.1284 43.8029 97.869C44.049 97.5997 44.3148 97.3106 44.6005 97.0016C44.8745 96.681 45.127 96.3587 45.358 96.0346L47.1827 97.5621C46.9545 98.1861 46.6234 98.7965 46.1895 99.3934C45.7772 99.9919 45.3381 100.524 44.8723 100.99C44.0101 101.852 43.1601 102.4 42.3223 102.632C41.4728 102.853 40.6065 102.73 39.7233 102.263C38.8383 101.774 37.9074 100.913 36.9305 99.6782C35.9984 98.4687 35.3559 97.4001 35.0032 96.4725C34.6487 95.5233 34.5985 94.6307 34.8526 93.7947C35.1049 92.937 35.6672 92.0722 36.5393 91.2Z" fill="white" fill-opacity="0.2"/>
<path d="M44.2388 83.5005C45.1407 82.5987 45.9508 82.0213 46.6692 81.7685C47.3859 81.4941 48.0555 81.4997 48.6779 81.7851C49.2887 82.059 49.8754 82.5664 50.438 83.3074C50.904 83.9122 51.1753 84.4906 51.2517 85.0428C51.3264 85.5733 51.2362 86.1175 50.9812 86.6751C50.7262 87.2328 50.3156 87.8529 49.7494 88.5354L46.3698 92.6483L45.1017 91.0531L47.8866 87.5349C48.1193 87.2324 48.2908 86.9678 48.401 86.7411C48.5096 86.4929 48.5436 86.2494 48.503 86.0106C48.4508 85.7602 48.3057 85.4862 48.0677 85.1888C47.828 84.8698 47.6036 84.6751 47.3946 84.6048C47.1855 84.5345 46.9744 84.5711 46.7611 84.7146C46.5361 84.8464 46.2808 85.0668 45.9951 85.3758C45.6879 85.683 45.4651 85.9756 45.3268 86.2536C45.1886 86.5315 45.1432 86.833 45.1906 87.158C45.2265 87.4713 45.3686 87.8414 45.6169 88.2681C45.8537 88.6832 46.1943 89.1923 46.6388 89.7954C47.2962 90.6511 47.8517 91.2363 48.3052 91.551C48.7587 91.8657 49.1684 91.9682 49.5342 91.8584C49.9001 91.7485 50.2962 91.4806 50.7223 91.0544C50.9602 90.8165 51.2418 90.5233 51.5671 90.1747C51.8808 89.8145 52.1994 89.4493 52.523 89.0791C52.8448 88.6874 53.132 88.3304 53.3845 88.0081L55.1394 89.4657C54.9934 89.9143 54.7787 90.3735 54.4952 90.8432C54.2117 91.3129 53.8942 91.7585 53.5426 92.18C53.2026 92.613 52.8642 92.998 52.5272 93.335C51.5461 94.3162 50.6084 94.9047 49.7141 95.1006C48.8297 95.2866 47.955 95.1254 47.0898 94.617C46.2131 94.097 45.3179 93.2812 44.4044 92.1694C43.5973 91.184 43.0127 90.302 42.6505 89.5236C42.2982 88.7352 42.1334 88.0154 42.1561 87.3642C42.177 86.6914 42.3712 86.0432 42.7387 85.4196C43.0946 84.7844 43.5946 84.1447 44.2388 83.5005Z" fill="white" fill-opacity="0.2"/>
<path d="M54.2057 73.5337C54.8895 72.8498 55.6045 72.5539 56.3505 72.6459C57.1065 72.7279 57.8307 73.2143 58.5231 74.1049L64.1577 81.2855L61.9575 83.4857L56.947 77.0777C56.6142 76.6656 56.3441 76.4352 56.1368 76.3864C55.9178 76.326 55.6894 76.4148 55.4516 76.6526C55.0948 77.0094 54.8553 77.4934 54.733 78.1045C54.5991 78.704 54.514 79.5108 54.4776 80.5249L52.9154 79.4682C52.7879 78.0127 52.8352 76.8014 53.0574 75.8343C53.2778 74.8456 53.6606 74.0787 54.2057 73.5337ZM48.4426 72.5574L51.1238 75.9521C51.6114 76.5586 52.0526 77.1882 52.4476 77.8408C52.8524 78.4835 53.1566 79.0058 53.3602 79.4075L53.7927 79.394L59.2073 86.2358L57.0072 88.436L46.2425 74.7575L48.4426 72.5574Z" fill="white" fill-opacity="0.2"/>
<path d="M61.4845 66.2548C62.3864 65.353 63.267 64.7866 64.1263 64.5558C64.9741 64.3133 65.8296 64.4355 66.693 64.9223C67.5663 65.3992 68.5039 66.2774 69.5059 67.5568C70.4595 68.7681 71.1037 69.8583 71.4384 70.8272C71.7713 71.7746 71.795 72.6705 71.5095 73.5147C71.2239 74.359 70.6302 75.232 69.7283 76.1339C68.8364 77.0258 67.9616 77.598 67.104 77.8504C66.2563 78.0928 65.3908 77.9806 64.5076 77.5136C63.6343 77.0367 62.7033 76.1751 61.7148 74.9289C60.7594 73.696 60.1152 72.6059 59.7823 71.6585C59.4377 70.6994 59.4073 69.787 59.6911 68.9212C59.9849 68.0455 60.5827 67.1567 61.4845 66.2548ZM63.3404 68.1702C62.944 68.5666 62.6975 68.9643 62.6011 69.3634C62.5146 69.7526 62.5948 70.2194 62.8419 70.7638C63.0989 71.2983 63.5611 71.9884 64.2285 72.8342C64.8127 73.5769 65.3058 74.1197 65.708 74.4624C66.1202 74.7952 66.4952 74.9324 66.833 74.8738C67.1709 74.8153 67.5331 74.5928 67.9196 74.2063C68.3161 73.8098 68.5576 73.417 68.6441 73.0279C68.719 72.6271 68.6279 72.1594 68.3709 71.6249C68.1139 71.0904 67.6692 70.4177 67.0368 69.6069C66.4293 68.8409 65.9253 68.2973 65.5249 67.9761C65.1227 67.6333 64.7526 67.4912 64.4147 67.5498C64.0751 67.5868 63.717 67.7936 63.3404 68.1702Z" fill="white" fill-opacity="0.2"/>
<path d="M66.1253 54.8747L74.4811 65.5497C74.7441 65.892 74.9891 66.0776 75.2163 66.1065C75.4417 66.1139 75.7031 65.9689 76.0004 65.6716L76.6694 65.0026L78.5368 66.6619C78.4994 66.8624 78.39 67.0998 78.2086 67.3743C78.0371 67.6389 77.854 67.8919 77.6592 68.1332C77.4645 68.3745 77.2977 68.5645 77.159 68.7033C76.4553 69.4069 75.7156 69.7276 74.9398 69.6654C74.1523 69.5915 73.4316 69.1483 72.7776 68.3357L63.9251 57.0749L66.1253 54.8747Z" fill="white" fill-opacity="0.2"/>
<path d="M74.24 53.4993C74.914 52.8254 75.6254 52.2187 76.3743 51.6793C77.1233 51.1398 77.8165 50.7726 78.4539 50.5775L79.2591 52.0071C78.8015 52.4414 78.3893 52.8419 78.0226 53.2086C77.6443 53.5637 77.2668 53.9295 76.8902 54.3061C76.5433 54.653 76.2859 54.9802 76.1179 55.2879C75.9481 55.5741 75.887 55.8796 75.9345 56.2046C75.9703 56.518 76.1183 56.8938 76.3782 57.3322C76.6382 57.7706 77.0245 58.3155 77.5372 58.9668C78.0847 59.6531 78.5447 60.1825 78.9171 60.5549C79.278 60.9158 79.5944 61.1231 79.8663 61.1771C80.1383 61.231 80.4031 61.1292 80.6608 60.8715C81.0753 60.4337 81.3254 59.881 81.411 59.2134C81.5065 58.5359 81.5328 57.7297 81.49 56.7949L83.0087 57.5109C83.0929 57.8924 83.1624 58.3583 83.2172 58.9087C83.282 59.4492 83.2964 60.0284 83.2603 60.6465C83.2225 61.2429 83.1084 61.8226 82.9181 62.3854C82.7277 62.9483 82.4194 63.4428 81.9933 63.8689C81.4383 64.4239 80.8302 64.7177 80.1691 64.7503C79.5062 64.7614 78.772 64.483 77.9663 63.9152C77.1589 63.3258 76.2667 62.4138 75.2898 61.1792C74.4909 60.1623 73.9005 59.2746 73.5184 58.5159C73.1347 57.7357 72.9302 57.0556 72.9051 56.4754C72.8782 55.8738 72.985 55.3363 73.2254 54.8632C73.4658 54.39 73.804 53.9354 74.24 53.4993ZM75.8059 45.1941L86.5706 58.8726L84.8313 60.6119L82.7012 58.4819L82.3508 58.518L77.0636 51.863L76.918 51.4499C76.6154 51.1473 76.3285 50.8405 76.0573 50.5297C75.7861 50.2189 75.5074 49.8807 75.2211 49.5152L73.6057 47.3943L75.8059 45.1941Z" fill="white" fill-opacity="0.2"/>
<path d="M83.9731 43.7662C84.875 42.8643 85.6851 42.287 86.4036 42.0342C87.1202 41.7598 87.7898 41.7653 88.4122 42.0508C89.023 42.3246 89.6097 42.832 90.1723 43.573C90.6384 44.1778 90.9096 44.7563 90.986 45.3084C91.0607 45.839 90.9705 46.3831 90.7155 46.9408C90.4605 47.4984 90.0499 48.1185 89.4837 48.8011L86.1042 52.9139L84.836 51.3187L87.621 47.8005C87.8536 47.498 88.0251 47.2334 88.1354 47.0067C88.2439 46.7585 88.2779 46.515 88.2374 46.2762C88.1852 46.0258 88.0401 45.7519 87.8021 45.4544C87.5624 45.1354 87.338 44.9408 87.1289 44.8705C86.9199 44.8002 86.7087 44.8368 86.4954 44.9803C86.2705 45.1121 86.0151 45.3325 85.7295 45.6414C85.4222 45.9487 85.1995 46.2413 85.0612 46.5192C84.9229 46.7972 84.8775 47.0987 84.925 47.4236C84.9608 47.737 85.1029 48.107 85.3513 48.5338C85.588 48.9489 85.9286 49.458 86.3731 50.061C87.0306 50.9167 87.586 51.5019 88.0395 51.8167C88.493 52.1314 88.9027 52.2338 89.2686 52.124C89.6345 52.0142 90.0305 51.7462 90.4567 51.3201C90.6945 51.0822 90.9761 50.789 91.3014 50.4404C91.6151 50.0801 91.9337 49.7149 92.2573 49.3448C92.5792 48.9531 92.8664 48.5961 93.1189 48.2737L94.8738 49.7314C94.7278 50.18 94.513 50.6392 94.2296 51.1089C93.9461 51.5786 93.6285 52.0242 93.2769 52.4456C92.937 52.8787 92.5985 53.2637 92.2616 53.6007C91.2804 54.5818 90.3427 55.1703 89.4484 55.3662C88.5641 55.5522 87.6893 55.391 86.8242 54.8827C85.9474 54.3627 85.0523 53.5468 84.1387 52.4351C83.3317 51.4496 82.747 50.5677 82.3848 49.7892C82.0325 49.0008 81.8677 48.281 81.8904 47.6298C81.9114 46.957 82.1056 46.3089 82.4731 45.6853C82.8289 45.0501 83.329 44.4104 83.9731 43.7662Z" fill="white" fill-opacity="0.2"/>
<path d="M90.8519 37.3414L92.927 39.3867L93.3647 39.4379L98.9417 46.5015L96.7415 48.7017L89.1423 39.051L90.8519 37.3414ZM94.2225 33.5169L96.1387 36.3845L95.6035 36.9197C95.2567 37.2665 94.9732 37.7363 94.7531 38.3288C94.5313 38.8999 94.2985 39.668 94.0548 40.6334L92.4466 39.2036C92.3911 37.9787 92.478 36.9258 92.707 36.0449C92.9245 35.1524 93.281 34.4584 93.7765 33.9628L94.2225 33.5169Z" fill="white" fill-opacity="0.2"/>
</g>
<defs>
<clipPath id="clip0_19_1421">
<rect width="112" height="160" rx="6" fill="white"/>
</clipPath>
</defs>
</svg>
