<svg width="112" height="160" viewBox="0 0 112 160" fill="none" xmlns="http://www.w3.org/2000/svg">
<g clip-path="url(#clip0_116_375)">
<path d="M1 7C1 3.6863 3.68629 1 7 1H105C108.314 1 111 3.68629 111 7V152C111 155.314 108.314 158 105 158H7C3.68629 158 1 155.314 1 152V7Z" fill="#393B4E"/>
<path fill-rule="evenodd" clip-rule="evenodd" d="M7 0C3.13401 0 0 3.13401 0 7V153C0 156.866 3.13401 160 7 160H105C108.866 160 112 156.866 112 153V7C112 3.13401 108.866 0 105 0H7ZM7 1C3.68629 1 1 3.68629 1 7C1 7 1 7 1 7V152C1 152.165 1.00666 152.328 1.01973 152.49C1.2691 155.575 3.85131 158 7 158H105C108.149 158 110.731 155.575 110.98 152.49C110.993 152.328 111 152.165 111 152V7C111 3.68629 108.314 1 105 1H7Z" fill="black" fill-opacity="0.3"/>
<path d="M32.2642 46.6837C33.2155 41.5998 37.6879 38 42.86 38H69.0811C74.2799 38 78.7679 41.637 79.7065 46.7504C80.9438 53.4905 82.4862 62.8363 83 70C83.6986 79.7395 83.0455 93.5397 82.5167 101.845C82.2791 105.576 78.6815 108.107 75.0712 107.135L66.8874 104.931C59.652 102.983 52.2207 101.855 44.7333 101.567L42.2361 101.471C35.2297 101.201 29.4975 95.7906 29.138 88.7882C28.8334 82.8566 28.645 75.7802 29 70C29.4417 62.8087 31.0025 53.427 32.2642 46.6837Z" fill="#E0E0E0"/>
<path d="M69.0811 36.5H42.86C36.9893 36.5 31.8781 40.5913 30.7898 46.4078C29.527 53.1572 27.9506 62.6171 27.5028 69.9081C27.1426 75.7743 27.3346 82.918 27.64 88.8652C28.0412 96.6792 34.4332 102.672 42.1784 102.97L44.6757 103.066C52.0508 103.349 59.3706 104.461 66.4974 106.38L74.6813 108.583C79.1886 109.796 83.7147 106.636 84.0137 101.94C84.5423 93.6377 85.2029 79.745 84.4962 69.8927C83.976 62.6406 82.4201 53.2253 81.1819 46.4796C80.1088 40.6337 74.9829 36.5 69.0811 36.5Z" stroke="white" stroke-opacity="0.3" stroke-width="3"/>
<path d="M69.0811 37.5H42.86C37.455 37.5 32.7697 41.2636 31.7728 46.5917C30.5107 53.3371 28.9446 62.7449 28.501 69.9694C28.1442 75.7782 28.3338 82.877 28.6387 88.8139C29.0121 96.0868 34.9642 101.691 42.2169 101.97L44.7141 102.066C52.1641 102.353 59.5582 103.476 66.7574 105.414L74.9413 107.617C78.8505 108.67 82.7576 105.93 83.0157 101.877C83.5445 93.5724 84.2 79.7413 83.4987 69.9642C82.9828 62.7711 81.4359 53.4021 80.1983 46.6602C79.2149 41.3026 74.5143 37.5 69.0811 37.5Z" fill="#E0E0E0" stroke="#333333"/>
<path d="M66 91V85M66 91H72M66 91L62 95" stroke="#DEF8A0" stroke-opacity="0.75" stroke-width="2" stroke-linecap="square" stroke-linejoin="round"/>
<path d="M76 82L80.5 85.5M76 82L71.5 78.5M76 82L72.5 86.5" stroke="#DEF8A0" stroke-opacity="0.75" stroke-width="2" stroke-linecap="square" stroke-linejoin="round"/>
<ellipse cx="56" cy="62" rx="21" ry="16" fill="#333333"/>
<rect x="42" y="52" width="28" height="20" rx="1" fill="#828282"/>
<circle cx="42" cy="88" r="9" fill="#DEF8A0" fill-opacity="0.75"/>
<path d="M40.5 80.5C39.9477 80.5 39.5 80.9477 39.5 81.5V85.5H35.5C34.9477 85.5 34.5 85.9477 34.5 86.5V89.5C34.5 90.0523 34.9477 90.5 35.5 90.5H39.5V94.5C39.5 95.0523 39.9477 95.5 40.5 95.5H43.5C44.0523 95.5 44.5 95.0523 44.5 94.5V90.5H48.5C49.0523 90.5 49.5 90.0523 49.5 89.5V86.5C49.5 85.9477 49.0523 85.5 48.5 85.5H44.5V81.5C44.5 80.9477 44.0523 80.5 43.5 80.5H40.5Z" fill="#C3F354" stroke="#749429"/>
<circle cx="56" cy="87" r="5" fill="black" fill-opacity="0.1"/>
<circle cx="56" cy="87" r="2" fill="#828282"/>
<circle cx="56" cy="87" r="2.5" stroke="black" stroke-opacity="0.15"/>
<circle cx="66" cy="91" r="4.5" fill="#C3F354" stroke="#749429"/>
<circle cx="76" cy="82" r="4.5" fill="#C3F354" stroke="#749429"/>
<circle cx="76.5" cy="100.5" r="1.5" fill="black" fill-opacity="0.1"/>
<circle cx="76.5" cy="100.5" r="2" stroke="white" stroke-opacity="0.25"/>
<circle cx="56.5" cy="97.5" r="1.5" fill="black" fill-opacity="0.1"/>
<circle cx="56.5" cy="97.5" r="2" stroke="white" stroke-opacity="0.25"/>
<circle cx="33.5" cy="73.5" r="1.5" fill="black" fill-opacity="0.1"/>
<circle cx="33.5" cy="73.5" r="2" stroke="white" stroke-opacity="0.25"/>
<circle cx="44.5" cy="42.5" r="1.5" fill="black" fill-opacity="0.1"/>
<circle cx="44.5" cy="42.5" r="2" stroke="white" stroke-opacity="0.25"/>
<circle cx="78.5" cy="73.5" r="1.5" fill="black" fill-opacity="0.1"/>
<circle cx="78.5" cy="73.5" r="2" stroke="white" stroke-opacity="0.25"/>
<circle cx="67.5" cy="42.5" r="1.5" fill="black" fill-opacity="0.1"/>
<circle cx="67.5" cy="42.5" r="2" stroke="white" stroke-opacity="0.25"/>
<path d="M32.6805 123.9C33.4865 123.9 34.1235 123.995 34.5915 124.186C35.0595 124.368 35.3759 124.68 35.5405 125.122C35.7139 125.555 35.7442 126.153 35.6315 126.916C35.5275 127.679 35.3499 128.268 35.0985 128.684C34.8559 129.091 34.5092 129.373 34.0585 129.529C33.6079 129.685 33.0142 129.763 32.2775 129.763C31.8875 129.763 31.5062 129.746 31.1335 129.711C30.7609 129.676 30.4099 129.633 30.0805 129.581C29.7599 129.52 29.4869 129.46 29.2615 129.399C29.0362 129.338 28.8802 129.286 28.7935 129.243L28.8715 128.268C29.3915 128.268 29.9332 128.268 30.4965 128.268C31.0599 128.268 31.6059 128.268 32.1345 128.268C32.4812 128.268 32.7542 128.229 32.9535 128.151C33.1529 128.073 33.3089 127.926 33.4215 127.709C33.5342 127.492 33.6165 127.176 33.6685 126.76C33.7205 126.405 33.7205 126.127 33.6685 125.928C33.6252 125.729 33.5169 125.59 33.3435 125.512C33.1789 125.434 32.9405 125.395 32.6285 125.395C31.8225 125.395 31.1335 125.404 30.5615 125.421C29.9895 125.43 29.6039 125.443 29.4045 125.46L29.3525 124.03C29.7079 123.987 30.0415 123.956 30.3535 123.939C30.6655 123.922 31.0035 123.913 31.3675 123.913C31.7315 123.904 32.1692 123.9 32.6805 123.9ZM31.3285 124.03L30.0675 133H28.0915L29.3525 124.03H31.3285ZM39.8212 126.409C40.6099 126.409 41.2425 126.526 41.7192 126.76C42.1959 126.985 42.5165 127.349 42.6812 127.852C42.8545 128.355 42.8805 129.031 42.7592 129.88C42.6465 130.686 42.4515 131.332 42.1742 131.817C41.9055 132.294 41.5242 132.636 41.0302 132.844C40.5362 133.052 39.8949 133.156 39.1062 133.156C38.3262 133.156 37.6935 133.043 37.2082 132.818C36.7315 132.593 36.4022 132.229 36.2202 131.726C36.0469 131.223 36.0165 130.556 36.1292 129.724C36.2505 128.909 36.4455 128.264 36.7142 127.787C36.9829 127.302 37.3685 126.951 37.8712 126.734C38.3825 126.517 39.0325 126.409 39.8212 126.409ZM39.7952 127.813C39.4485 127.813 39.1669 127.869 38.9502 127.982C38.7422 128.095 38.5732 128.298 38.4432 128.593C38.3219 128.888 38.2222 129.317 38.1442 129.88C38.0749 130.374 38.0532 130.76 38.0792 131.037C38.1139 131.314 38.2179 131.505 38.3912 131.609C38.5645 131.713 38.8202 131.765 39.1582 131.765C39.5049 131.765 39.7822 131.709 39.9902 131.596C40.1982 131.475 40.3629 131.267 40.4842 130.972C40.6055 130.677 40.7052 130.261 40.7832 129.724C40.8525 129.213 40.8699 128.823 40.8352 128.554C40.8092 128.277 40.7095 128.086 40.5362 127.982C40.3715 127.869 40.1245 127.813 39.7952 127.813ZM46.8132 123.9L46.2802 127.865C46.2368 128.142 46.1718 128.411 46.0852 128.671C46.0072 128.931 45.9032 129.2 45.7732 129.477C45.7905 129.676 45.8122 129.902 45.8382 130.153C45.8642 130.396 45.8728 130.612 45.8642 130.803L45.5392 133H43.6152L44.8892 123.9H46.8132ZM50.5312 126.578C50.3405 127.254 50.0632 127.83 49.6992 128.307C49.3438 128.775 48.9322 129.169 48.4642 129.49C47.9962 129.811 47.5065 130.084 46.9952 130.309C46.4838 130.526 45.9942 130.716 45.5262 130.881L45.3572 129.607C45.8425 129.416 46.3062 129.169 46.7482 128.866C47.1988 128.563 47.5802 128.216 47.8922 127.826C48.2128 127.436 48.4338 127.02 48.5552 126.578H50.5312ZM48.0222 129.347C48.2388 129.477 48.4165 129.633 48.5552 129.815C48.6938 129.997 48.8065 130.188 48.8932 130.387L50.1152 133H48.1132L46.7092 129.828L48.0222 129.347ZM54.7391 126.409C55.5278 126.409 56.1344 126.496 56.5591 126.669C56.9924 126.834 57.2828 127.085 57.4301 127.423C57.5774 127.752 57.6121 128.16 57.5341 128.645C57.4734 129.044 57.3391 129.36 57.1311 129.594C56.9318 129.819 56.6544 129.988 56.2991 130.101C55.9438 130.214 55.4931 130.292 54.9471 130.335L51.6711 130.608L51.8141 129.542L54.5701 129.269C54.8041 129.243 54.9948 129.208 55.1421 129.165C55.2981 129.113 55.4194 129.035 55.5061 128.931C55.5928 128.818 55.6491 128.662 55.6751 128.463C55.7098 128.255 55.6968 128.099 55.6361 127.995C55.5754 127.891 55.4671 127.826 55.3111 127.8C55.1551 127.765 54.9471 127.752 54.6871 127.761C54.4184 127.761 54.1931 127.787 54.0111 127.839C53.8291 127.891 53.6774 127.986 53.5561 128.125C53.4348 128.255 53.3351 128.446 53.2571 128.697C53.1791 128.94 53.1054 129.256 53.0361 129.646C52.9494 130.209 52.9364 130.634 52.9971 130.92C53.0578 131.206 53.1921 131.397 53.4001 131.492C53.6081 131.587 53.8984 131.635 54.2711 131.635C54.4791 131.635 54.7304 131.631 55.0251 131.622C55.3198 131.605 55.6188 131.587 55.9221 131.57C56.2341 131.544 56.5158 131.518 56.7671 131.492L56.8971 132.688C56.6371 132.801 56.3424 132.892 56.0131 132.961C55.6838 133.03 55.3501 133.078 55.0121 133.104C54.6741 133.139 54.3578 133.156 54.0631 133.156C53.2051 133.156 52.5378 133.026 52.0611 132.766C51.5931 132.506 51.2811 132.12 51.1251 131.609C50.9691 131.089 50.9344 130.452 51.0211 129.698C51.0991 129.031 51.2291 128.485 51.4111 128.06C51.6018 127.635 51.8444 127.306 52.1391 127.072C52.4424 126.829 52.8108 126.66 53.2441 126.565C53.6774 126.461 54.1758 126.409 54.7391 126.409ZM56.7541 123.185L57.4561 124.576L54.3751 125.98L53.8941 125.161L56.7541 123.185ZM60.556 126.578L60.569 128.06L60.738 128.242L60.075 133H58.164L59.061 126.578H60.556ZM63.117 126.409C63.715 126.409 64.1483 126.569 64.417 126.89C64.6943 127.211 64.794 127.657 64.716 128.229L64.04 133H62.194L62.792 128.749C62.8267 128.489 62.805 128.307 62.727 128.203C62.649 128.09 62.5017 128.034 62.285 128.034C62.129 128.034 61.9643 128.069 61.791 128.138C61.6177 128.207 61.4227 128.32 61.206 128.476C60.9893 128.623 60.725 128.831 60.413 129.1L60.179 128.138C60.7163 127.54 61.2147 127.102 61.674 126.825C62.1333 126.548 62.6143 126.409 63.117 126.409ZM67.121 126.409C67.7277 126.409 68.1697 126.574 68.447 126.903C68.7243 127.224 68.8197 127.666 68.733 128.229L68.07 133H66.159L66.757 128.749C66.7917 128.472 66.7613 128.285 66.666 128.19C66.5793 128.086 66.4407 128.034 66.25 128.034C66.1027 128.034 65.9423 128.069 65.769 128.138C65.6043 128.199 65.4137 128.307 65.197 128.463C64.989 128.61 64.7377 128.818 64.443 129.087L64.196 128.138C64.7333 127.531 65.2273 127.094 65.678 126.825C66.1373 126.548 66.6183 126.409 67.121 126.409ZM72.4371 126.578L71.5401 133H69.6291L70.5261 126.578H72.4371ZM72.2421 123.744C72.4501 123.744 72.5974 123.796 72.6841 123.9C72.7794 124.004 72.8141 124.16 72.7881 124.368L72.6971 125.057C72.6451 125.421 72.4327 125.603 72.0601 125.603H71.2801C70.8641 125.603 70.6777 125.395 70.7211 124.979L70.8251 124.29C70.8597 123.926 71.0677 123.744 71.4491 123.744H72.2421ZM78.5002 126.409C78.8555 126.409 79.1632 126.478 79.4232 126.617C79.6832 126.747 79.8738 126.946 79.9952 127.215C80.1165 127.484 80.1512 127.822 80.0992 128.229L79.4232 133H77.4862L78.0842 128.814C78.1275 128.519 78.1102 128.316 78.0322 128.203C77.9628 128.082 77.8068 128.025 77.5642 128.034C77.2782 128.043 76.9748 128.134 76.6542 128.307C76.3422 128.48 75.9608 128.749 75.5102 129.113L75.2892 128.138C75.8005 127.592 76.3292 127.167 76.8752 126.864C77.4298 126.561 77.9715 126.409 78.5002 126.409ZM75.5622 126.578V128.268L75.7182 128.45L75.0812 133H73.1572L74.0542 126.578H75.5622ZM83.7994 126.578L82.9024 133H80.9914L81.8884 126.578H83.7994ZM83.6044 123.744C83.8124 123.744 83.9597 123.796 84.0464 123.9C84.1417 124.004 84.1764 124.16 84.1504 124.368L84.0594 125.057C84.0074 125.421 83.795 125.603 83.4224 125.603H82.6424C82.2264 125.603 82.04 125.395 82.0834 124.979L82.1874 124.29C82.222 123.926 82.43 123.744 82.8114 123.744H83.6044Z" fill="white"/>
</g>
<defs>
<clipPath id="clip0_116_375">
<rect width="112" height="160" rx="6" fill="white"/>
</clipPath>
</defs>
</svg>
