<svg width="112" height="160" viewBox="0 0 112 160" fill="none" xmlns="http://www.w3.org/2000/svg">
<g clip-path="url(#clip0_101_23)">
<path d="M1 7C1 3.6863 3.68629 1 7 1H105C108.314 1 111 3.68629 111 7V152C111 155.314 108.314 158 105 158H7C3.68629 158 1 155.314 1 152V7Z" fill="#393B4E"/>
<path fill-rule="evenodd" clip-rule="evenodd" d="M7 0C3.13401 0 0 3.13401 0 7V153C0 156.866 3.13401 160 7 160H105C108.866 160 112 156.866 112 153V7C112 3.13401 108.866 0 105 0H7ZM7 1C3.68629 1 1 3.68629 1 7C1 7 1 7 1 7V152C1 152.165 1.00666 152.328 1.01973 152.49C1.2691 155.575 3.85131 158 7 158H105C108.149 158 110.731 155.575 110.98 152.49C110.993 152.328 111 152.165 111 152V7C111 3.68629 108.314 1 105 1H7Z" fill="black" fill-opacity="0.3"/>
<path d="M44.2904 123.9C45.0964 123.9 45.7334 123.995 46.2014 124.186C46.6694 124.368 46.9857 124.68 47.1504 125.122C47.3237 125.555 47.3541 126.153 47.2414 126.916C47.1374 127.679 46.9597 128.268 46.7084 128.684C46.4657 129.091 46.1191 129.373 45.6684 129.529C45.2177 129.685 44.6241 129.763 43.8874 129.763C43.4974 129.763 43.1161 129.746 42.7434 129.711C42.3707 129.676 42.0197 129.633 41.6904 129.581C41.3697 129.52 41.0967 129.46 40.8714 129.399C40.6461 129.338 40.4901 129.286 40.4034 129.243L40.4814 128.268C41.0014 128.268 41.5431 128.268 42.1064 128.268C42.6697 128.268 43.2157 128.268 43.7444 128.268C44.0911 128.268 44.3641 128.229 44.5634 128.151C44.7627 128.073 44.9187 127.926 45.0314 127.709C45.1441 127.492 45.2264 127.176 45.2784 126.76C45.3304 126.405 45.3304 126.127 45.2784 125.928C45.2351 125.729 45.1267 125.59 44.9534 125.512C44.7887 125.434 44.5504 125.395 44.2384 125.395C43.4324 125.395 42.7434 125.404 42.1714 125.421C41.5994 125.43 41.2137 125.443 41.0144 125.46L40.9624 124.03C41.3177 123.987 41.6514 123.956 41.9634 123.939C42.2754 123.922 42.6134 123.913 42.9774 123.913C43.3414 123.904 43.7791 123.9 44.2904 123.9ZM42.9384 124.03L41.6774 133H39.7014L40.9624 124.03H42.9384ZM51.4311 126.409C52.2197 126.409 52.8524 126.526 53.3291 126.76C53.8057 126.985 54.1264 127.349 54.2911 127.852C54.4644 128.355 54.4904 129.031 54.3691 129.88C54.2564 130.686 54.0614 131.332 53.7841 131.817C53.5154 132.294 53.1341 132.636 52.6401 132.844C52.1461 133.052 51.5047 133.156 50.7161 133.156C49.9361 133.156 49.3034 133.043 48.8181 132.818C48.3414 132.593 48.0121 132.229 47.8301 131.726C47.6567 131.223 47.6264 130.556 47.7391 129.724C47.8604 128.909 48.0554 128.264 48.3241 127.787C48.5927 127.302 48.9784 126.951 49.4811 126.734C49.9924 126.517 50.6424 126.409 51.4311 126.409ZM51.4051 127.813C51.0584 127.813 50.7767 127.869 50.5601 127.982C50.3521 128.095 50.1831 128.298 50.0531 128.593C49.9317 128.888 49.8321 129.317 49.7541 129.88C49.6847 130.374 49.6631 130.76 49.6891 131.037C49.7237 131.314 49.8277 131.505 50.0011 131.609C50.1744 131.713 50.4301 131.765 50.7681 131.765C51.1147 131.765 51.3921 131.709 51.6001 131.596C51.8081 131.475 51.9727 131.267 52.0941 130.972C52.2154 130.677 52.3151 130.261 52.3931 129.724C52.4624 129.213 52.4797 128.823 52.4451 128.554C52.4191 128.277 52.3194 128.086 52.1461 127.982C51.9814 127.869 51.7344 127.813 51.4051 127.813ZM57.617 126.578L57.63 128.112L57.799 128.294L57.149 133H55.225L56.122 126.578H57.617ZM60.763 126.409L60.347 128.19H59.879C59.5757 128.19 59.2464 128.259 58.891 128.398C58.5444 128.528 58.1067 128.727 57.578 128.996L57.5 127.865C58.0114 127.388 58.5097 127.029 58.995 126.786C59.4804 126.535 59.9397 126.409 60.373 126.409H60.763ZM64.4005 124.797L63.5165 130.985C63.4818 131.219 63.5035 131.379 63.5815 131.466C63.6595 131.553 63.8242 131.596 64.0755 131.596H64.9465L65.0375 132.909C64.8728 132.961 64.6735 133.004 64.4395 133.039C64.2142 133.082 63.9932 133.113 63.7765 133.13C63.5598 133.147 63.3822 133.156 63.2435 133.156C62.6455 133.156 62.1905 132.996 61.8785 132.675C61.5752 132.346 61.4668 131.904 61.5535 131.349L62.5025 124.797H64.4005ZM65.9345 126.578L65.7525 127.839H60.9165L61.0725 126.643L62.3205 126.578H65.9345ZM69.3301 126.409C69.6508 126.409 69.9931 126.422 70.3571 126.448C70.7211 126.474 71.0721 126.504 71.4101 126.539C71.7568 126.574 72.0558 126.613 72.3071 126.656L72.1251 127.852C71.7091 127.843 71.2931 127.839 70.8771 127.839C70.4698 127.83 70.0538 127.822 69.6291 127.813C69.2998 127.813 69.0355 127.822 68.8361 127.839C68.6455 127.848 68.5068 127.882 68.4201 127.943C68.3335 127.995 68.2815 128.082 68.2641 128.203C68.2468 128.359 68.2901 128.48 68.3941 128.567C68.5068 128.654 68.6975 128.745 68.9661 128.84L70.5651 129.412C70.9031 129.533 71.1805 129.676 71.3971 129.841C71.6138 130.006 71.7655 130.209 71.8521 130.452C71.9475 130.695 71.9735 130.989 71.9301 131.336C71.8695 131.856 71.7048 132.246 71.4361 132.506C71.1761 132.757 70.8251 132.926 70.3831 133.013C69.9498 133.1 69.4211 133.143 68.7971 133.143C68.4591 133.143 68.1428 133.134 67.8481 133.117C67.5621 133.108 67.2631 133.082 66.9511 133.039C66.6478 133.004 66.3055 132.961 65.9241 132.909L66.0931 131.713C66.2578 131.722 66.4571 131.73 66.6911 131.739C66.9338 131.739 67.1851 131.743 67.4451 131.752C67.7138 131.752 67.9651 131.752 68.1991 131.752C68.6931 131.743 69.0701 131.726 69.3301 131.7C69.5901 131.674 69.7721 131.631 69.8761 131.57C69.9888 131.501 70.0581 131.401 70.0841 131.271C70.1015 131.158 70.0841 131.072 70.0321 131.011C69.9888 130.95 69.9065 130.894 69.7851 130.842C69.6725 130.79 69.5165 130.729 69.3171 130.66L67.7571 130.075C67.4018 129.945 67.1158 129.789 66.8991 129.607C66.6911 129.425 66.5481 129.204 66.4701 128.944C66.4008 128.684 66.3878 128.389 66.4311 128.06C66.4831 127.661 66.6131 127.345 66.8211 127.111C67.0291 126.868 67.3368 126.691 67.7441 126.578C68.1515 126.465 68.6801 126.409 69.3301 126.409Z" fill="white"/>
<path d="M27 54.5C23.4101 54.5 20.5 57.4101 20.5 61V84C20.5 87.5899 23.4102 90.5 27 90.5H85C88.5899 90.5 91.5 87.5899 91.5 84V61C91.5 57.4101 88.5899 54.5 85 54.5H84C83.4372 54.5 82.9178 54.686 82.5 54.9998C82.0822 54.686 81.5628 54.5 81 54.5H77C76.1821 54.5 75.4559 54.8928 74.9998 55.5H37.0002C36.5441 54.8928 35.8179 54.5 35 54.5H31C30.4372 54.5 29.9178 54.686 29.5 54.9998C29.0822 54.686 28.5628 54.5 28 54.5H27Z" stroke="white" stroke-opacity="0.3" stroke-width="3"/>
<path d="M27 55.5C23.9624 55.5 21.5 57.9624 21.5 61V84C21.5 87.0376 23.9624 89.5 27 89.5H85C88.0376 89.5 90.5 87.0376 90.5 84V61C90.5 57.9624 88.0376 55.5 85 55.5H84C83.3469 55.5 82.7913 55.9174 82.5854 56.5H82.4146C82.2087 55.9174 81.6531 55.5 81 55.5H77C76.3469 55.5 75.7913 55.9174 75.5854 56.5H36.4146C36.2087 55.9174 35.6531 55.5 35 55.5H31C30.3469 55.5 29.7913 55.9174 29.5854 56.5H29.4146C29.2087 55.9174 28.6531 55.5 28 55.5H27Z" stroke="#333333"/>
<path d="M22 61C22 58.2386 24.2386 56 27 56H28C28.5523 56 29 56.4477 29 57V63H22V61Z" fill="#828282"/>
<path d="M30 57C30 56.4477 30.4477 56 31 56H35C35.5523 56 36 56.4477 36 57V63H30V57Z" fill="#828282"/>
<path d="M90 61C90 58.2386 87.7614 56 85 56H84C83.4477 56 83 56.4477 83 57V63H90V61Z" fill="#828282"/>
<path d="M82 57C82 56.4477 81.5523 56 81 56H77C76.4477 56 76 56.4477 76 57V63H82V57Z" fill="#828282"/>
<rect x="22" y="57" width="68" height="32" rx="5" fill="#BDBDBD"/>
<rect x="38" y="60" width="36" height="26" rx="1.5" fill="#4F4F4F" stroke="#333333" stroke-width="2"/>
<circle cx="79" cy="68" r="2" fill="#4F4F4F"/>
<circle cx="82" cy="71" r="2" fill="#4F4F4F"/>
<circle cx="82" cy="65" r="2" fill="#4F4F4F"/>
<circle cx="85" cy="68" r="2" fill="#4F4F4F"/>
<rect x="28" y="63" width="4" height="10" rx="1" fill="#4F4F4F"/>
<rect x="25" y="66" width="10" height="4" rx="1" fill="#4F4F4F"/>
<circle cx="30" cy="80" r="5" fill="#4F4F4F"/>
<circle cx="30" cy="80" r="3" fill="#828282"/>
<circle cx="82" cy="80" r="5" fill="#4F4F4F"/>
<circle cx="82" cy="80" r="3" fill="#828282"/>
<circle cx="34" cy="61" r="1" fill="#4F4F4F"/>
<circle cx="78" cy="61" r="1" fill="#4F4F4F"/>
<circle cx="86" cy="61" r="1" fill="#23804A"/>
</g>
<defs>
<clipPath id="clip0_101_23">
<rect width="112" height="160" rx="6" fill="white"/>
</clipPath>
</defs>
</svg>
