<svg width="112" height="160" viewBox="0 0 112 160" fill="none" xmlns="http://www.w3.org/2000/svg">
<g clip-path="url(#clip0_113_2248)">
<path d="M1 7C1 3.6863 3.68629 1 7 1H105C108.314 1 111 3.68629 111 7V152C111 155.314 108.314 158 105 158H7C3.68629 158 1 155.314 1 152V7Z" fill="#393B4E"/>
<path fill-rule="evenodd" clip-rule="evenodd" d="M7 0C3.13401 0 0 3.13401 0 7V153C0 156.866 3.13401 160 7 160H105C108.866 160 112 156.866 112 153V7C112 3.13401 108.866 0 105 0H7ZM7 1C3.68629 1 1 3.68629 1 7C1 7 1 7 1 7V152C1 152.165 1.00666 152.328 1.01973 152.49C1.2691 155.575 3.85131 158 7 158H105C108.149 158 110.731 155.575 110.98 152.49C110.993 152.328 111 152.165 111 152V7C111 3.68629 108.314 1 105 1H7Z" fill="black" fill-opacity="0.3"/>
<path d="M69 56.5C68.1821 56.5 67.4559 56.8928 66.9998 57.5H45.0002C44.5441 56.8928 43.8179 56.5 43 56.5H37C34.2651 56.5 31.6727 57.1284 29.3632 58.2502C28.437 58.7 27.8391 59.5229 27.608 60.4322C23.3156 63.4089 20.5 68.3751 20.5 74C20.5 83.1127 27.8873 90.5 37 90.5C41.1153 90.5 44.8813 88.9916 47.7707 86.5H64.2293C67.1187 88.9916 70.8847 90.5 75 90.5C84.1127 90.5 91.5 83.1127 91.5 74C91.5 68.3751 88.6844 63.4089 84.392 60.4322C84.1609 59.5229 83.563 58.7 82.6368 58.2502L81.9851 59.592L82.6368 58.2502C80.3273 57.1284 77.7349 56.5 75 56.5H69Z" stroke="white" stroke-opacity="0.3" stroke-width="3"/>
<path d="M67.5854 58.5H44.4146C44.2087 57.9174 43.6531 57.5 43 57.5H37C34.4197 57.5 31.9764 58.0926 29.8001 59.1497C29.0517 59.5132 28.5983 60.2413 28.5142 61.0272C24.2911 63.7951 21.5 68.5714 21.5 74C21.5 82.5604 28.4396 89.5 37 89.5C40.9981 89.5 44.6436 87.9856 47.3925 85.5H64.6075C67.3564 87.9856 71.0019 89.5 75 89.5C83.5604 89.5 90.5 82.5604 90.5 74C90.5 68.5714 87.7089 63.7951 83.4858 61.0272C83.4017 60.2413 82.9483 59.5132 82.1999 59.1497C80.0236 58.0926 77.5803 57.5 75 57.5H69C68.3469 57.5 67.7913 57.9174 67.5854 58.5Z" stroke="#333333"/>
<path d="M37 89C40.9382 89 44.5219 87.4823 47.1981 85H64.8019C67.4781 87.4823 71.0618 89 75 89C83.2843 89 90 82.2843 90 74C90 65.7157 83.2843 59 75 59H37C28.7157 59 22 65.7157 22 74C22 82.2843 28.7157 89 37 89Z" fill="#E0E0E0"/>
<circle cx="37" cy="74" r="9.5" stroke="black" stroke-opacity="0.2"/>
<path d="M35.5 68C35.2239 68 35 68.2239 35 68.5V72H31.5C31.2239 72 31 72.2239 31 72.5V75.5C31 75.7761 31.2239 76 31.5 76H35V79.5C35 79.7761 35.2239 80 35.5 80H38.5C38.7761 80 39 79.7761 39 79.5V76H42.5C42.7761 76 43 75.7761 43 75.5V72.5C43 72.2239 42.7761 72 42.5 72H39V68.5C39 68.2239 38.7761 68 38.5 68H35.5Z" fill="#333333"/>
<path d="M35.5 67.5C34.9477 67.5 34.5 67.9477 34.5 68.5V71.5H31.5C30.9477 71.5 30.5 71.9477 30.5 72.5V75.5C30.5 76.0523 30.9477 76.5 31.5 76.5H34.5V79.5C34.5 80.0523 34.9477 80.5 35.5 80.5H38.5C39.0523 80.5 39.5 80.0523 39.5 79.5V76.5H42.5C43.0523 76.5 43.5 76.0523 43.5 75.5V72.5C43.5 71.9477 43.0523 71.5 42.5 71.5H39.5V68.5C39.5 67.9477 39.0523 67.5 38.5 67.5H35.5Z" stroke="black" stroke-opacity="0.2"/>
<circle cx="37" cy="74" r="1" fill="#4F4F4F"/>
<circle cx="75" cy="74" r="12" fill="#767A8F"/>
<path d="M69 74L75 69M75 79L81 74" stroke="#E0E0E0" stroke-width="6" stroke-linecap="round" stroke-linejoin="round"/>
<circle cx="69" cy="74" r="2" fill="#27AE60"/>
<circle cx="69" cy="74" r="2.25" stroke="black" stroke-opacity="0.3" stroke-width="0.5"/>
<circle cx="81" cy="74" r="2" fill="#EB5757"/>
<circle cx="81" cy="74" r="2.25" stroke="black" stroke-opacity="0.3" stroke-width="0.5"/>
<circle cx="75" cy="69" r="2" fill="#18ADDC"/>
<circle cx="75" cy="69" r="2.25" stroke="black" stroke-opacity="0.3" stroke-width="0.5"/>
<circle cx="75" cy="79" r="2" fill="#F3BE54"/>
<circle cx="75" cy="79" r="2.25" stroke="black" stroke-opacity="0.3" stroke-width="0.5"/>
<path d="M49.234 79.5712C48.879 79.1481 48.9342 78.5173 49.3572 78.1623L51.6554 76.234C52.0784 75.879 52.7092 75.9342 53.0642 76.3572C53.4192 76.7803 53.364 77.4111 52.9409 77.7661L50.6428 79.6944C50.2197 80.0494 49.589 79.9942 49.234 79.5712Z" fill="#333333"/>
<path d="M57.2341 79.5712C56.8791 79.1481 56.9343 78.5173 57.3574 78.1623L59.6555 76.234C60.0786 75.879 60.7093 75.9342 61.0643 76.3572C61.4193 76.7803 61.3641 77.4111 60.9411 77.7661L58.6429 79.6944C58.2199 80.0494 57.5891 79.9942 57.2341 79.5712Z" fill="#333333"/>
<path d="M51.334 75.851L49.0358 77.7793C48.4012 78.3118 48.3185 79.258 48.851 79.8926C49.3835 80.5272 50.3296 80.61 50.9642 80.0775L53.2623 78.1491C53.8969 77.6166 53.9797 76.6705 53.4472 76.0358C52.9147 75.4012 51.9686 75.3185 51.334 75.851ZM59.3341 75.851L57.036 77.7793C56.4014 78.3118 56.3186 79.258 56.8511 79.8926C57.3836 80.5272 58.3297 80.61 58.9643 80.0775L61.2625 78.1491C61.8971 77.6166 61.9798 76.6705 61.4473 76.0358C60.9148 75.4012 59.9687 75.3185 59.3341 75.851Z" stroke="black" stroke-opacity="0.1"/>
<path d="M44 59C44 58.4477 43.5523 58 43 58H37C34.497 58 32.1283 58.5747 30.0185 59.5995C29.3763 59.9114 29 60.5802 29 61.2941V61.3091C31.3154 59.8465 34.0588 59 37 59H44V59Z" fill="#BDBDBD"/>
<path d="M68 59C68 58.4477 68.4477 58 69 58H75C77.503 58 79.8717 58.5747 81.9815 59.5995C82.6237 59.9114 83 60.5802 83 61.2941V61.3091C80.6846 59.8465 77.9412 59 75 59H68V59Z" fill="#BDBDBD"/>
<path d="M55.9055 61H53.7866C53.7159 61 53.7004 61.0986 53.7694 61.119C57.5084 62.2304 59.8481 65.5308 60.7644 67.8744C60.7885 67.9373 60.8834 67.9203 60.8834 67.8523V67.4376C60.8834 67.4325 60.8834 67.4274 60.8817 67.4206C60.4193 65.75 58.4816 62.6196 55.94 61.0102C55.9297 61.0034 55.9176 61 55.9055 61Z" fill="#828282"/>
<path d="M58.152 61H57.2462C57.1875 61 57.1616 61.0731 57.2082 61.1088C58.8974 62.3953 60.245 64.6148 60.7644 66.044C60.7885 66.1086 60.8834 66.0916 60.8834 66.0237V65.4016C60.8834 65.3948 60.8834 65.3897 60.88 65.3846C60.5228 64.2086 59.4651 62.1607 58.1934 61.0153C58.1831 61.0051 58.1676 61 58.152 61Z" fill="#828282"/>
<path d="M59.3754 61H60.8213C60.8558 61 60.8834 61.0272 60.8834 61.0612V64.0064C60.8834 64.0744 60.7868 64.0913 60.7644 64.0268C60.44 63.1294 59.8965 61.9007 59.3253 61.0952C59.296 61.0561 59.3253 61 59.3754 61Z" fill="#828282"/>
<path d="M51.233 73H56.242C56.3731 73 56.4076 72.8199 56.2834 72.774C55.0272 72.3049 53.2742 71.1476 51.937 69.5008C51.83 69.3699 51.6212 69.4974 51.692 69.6503C52.0974 70.5222 52.3062 71.0082 52.3062 71.5826C52.3062 72.2794 51.7437 72.6448 51.2037 72.8369C51.1122 72.8674 51.1364 73 51.233 73Z" fill="#828282"/>
<path fill-rule="evenodd" clip-rule="evenodd" d="M51.8766 62.9459C53.4398 61.6237 56.5508 62.6706 58.8284 65.2827C61.1043 67.8931 61.6823 71.083 60.1208 72.4035C58.5575 73.7257 55.4448 72.6771 53.1689 70.0667C50.8931 67.4563 50.3133 64.2664 51.8766 62.9459ZM53.2276 69.2917C53.3415 69.873 54.08 70.2214 54.8771 70.0701C55.676 69.9189 56.2299 69.3274 56.116 68.7462C56.0021 68.165 55.2636 67.8166 54.4665 67.9679C53.6693 68.1174 53.1137 68.7105 53.2276 69.2917ZM54.5372 66.8972C55.45 67.232 55.7726 67.9628 55.7726 67.9628C56.7889 67.8948 56.0246 64.8204 53.9368 64.7694C52.3994 64.732 53.2466 66.6644 53.4899 66.8309C53.4899 66.8309 53.8229 66.6355 54.5372 66.8972ZM56.6595 69.907C56.7734 70.4882 57.5119 70.8366 58.309 70.6853C59.1079 70.5341 59.6618 69.9409 59.5479 69.3614C59.434 68.7802 58.6955 68.4335 57.8984 68.5831C57.1012 68.7326 56.5456 69.3257 56.6595 69.907ZM57.9622 67.5311C58.875 67.8659 59.1977 68.5967 59.1977 68.5967C60.2139 68.5287 59.4496 65.4543 57.3618 65.4033C55.8244 65.366 56.6716 67.2983 56.9149 67.4648C56.9149 67.4648 57.2479 67.2694 57.9622 67.5311Z" fill="#828282"/>
<path d="M23.4842 123.861C23.9522 123.861 24.4419 123.891 24.9532 123.952C25.4645 124.004 25.9542 124.095 26.4222 124.225L26.2402 125.538C25.9629 125.529 25.6639 125.525 25.3432 125.525C25.0312 125.516 24.7105 125.512 24.3812 125.512C24.0519 125.503 23.7182 125.499 23.3802 125.499C23.1635 125.499 22.9685 125.508 22.7952 125.525C22.6305 125.534 22.4875 125.564 22.3662 125.616C22.2535 125.668 22.1625 125.755 22.0932 125.876C22.0239 125.989 21.9719 126.145 21.9372 126.344C21.9199 126.517 21.9242 126.665 21.9502 126.786C21.9849 126.899 22.0585 126.998 22.1712 127.085C22.2839 127.163 22.4529 127.25 22.6782 127.345L24.3032 128.021C24.7799 128.22 25.1395 128.441 25.3822 128.684C25.6249 128.927 25.7809 129.213 25.8502 129.542C25.9195 129.863 25.9239 130.244 25.8632 130.686C25.7852 131.353 25.6162 131.869 25.3562 132.233C25.0962 132.588 24.7235 132.835 24.2382 132.974C23.7529 133.104 23.1159 133.169 22.3272 133.169C22.0065 133.169 21.5645 133.143 21.0012 133.091C20.4465 133.048 19.8485 132.957 19.2072 132.818L19.4022 131.414C19.9135 131.423 20.3555 131.436 20.7282 131.453C21.1009 131.462 21.4129 131.47 21.6642 131.479C21.9155 131.479 22.1149 131.479 22.2622 131.479C22.6349 131.479 22.9339 131.457 23.1592 131.414C23.3845 131.362 23.5535 131.275 23.6662 131.154C23.7875 131.024 23.8655 130.833 23.9002 130.582C23.9262 130.391 23.9219 130.24 23.8872 130.127C23.8612 130.014 23.7919 129.923 23.6792 129.854C23.5752 129.776 23.4279 129.698 23.2372 129.62L21.5212 128.879C21.0619 128.68 20.7109 128.454 20.4682 128.203C20.2255 127.943 20.0695 127.653 20.0002 127.332C19.9309 127.003 19.9222 126.643 19.9742 126.253C20.0349 125.759 20.1519 125.356 20.3252 125.044C20.4985 124.723 20.7282 124.481 21.0142 124.316C21.3089 124.143 21.6599 124.026 22.0672 123.965C22.4832 123.896 22.9555 123.861 23.4842 123.861ZM30.7779 126.409C31.0033 126.409 31.2546 126.422 31.5319 126.448C31.8179 126.465 32.1039 126.491 32.3899 126.526C32.6846 126.561 32.9576 126.6 33.2089 126.643C33.4689 126.686 33.6813 126.73 33.8459 126.773L32.5329 127.813C32.1863 127.796 31.8699 127.787 31.5839 127.787C31.2979 127.778 31.0293 127.774 30.7779 127.774C30.4919 127.774 30.2493 127.796 30.0499 127.839C29.8506 127.882 29.6859 127.969 29.5559 128.099C29.4259 128.22 29.3176 128.407 29.2309 128.658C29.1443 128.909 29.0706 129.247 29.0099 129.672C28.9319 130.209 28.8886 130.621 28.8799 130.907C28.8799 131.184 28.9319 131.375 29.0359 131.479C29.1399 131.583 29.3046 131.631 29.5299 131.622C29.7639 131.613 30.0066 131.535 30.2579 131.388C30.5179 131.241 30.7736 131.041 31.0249 130.79C31.2763 130.53 31.5189 130.24 31.7529 129.919L32.0909 130.543C31.9176 131.054 31.6706 131.505 31.3499 131.895C31.0379 132.276 30.6696 132.575 30.2449 132.792C29.8203 133.009 29.3479 133.13 28.8279 133.156C28.2646 133.182 27.8313 133.069 27.5279 132.818C27.2333 132.567 27.0513 132.177 26.9819 131.648C26.9126 131.119 26.9386 130.456 27.0599 129.659C27.1726 128.922 27.3286 128.337 27.5279 127.904C27.7359 127.462 27.9959 127.137 28.3079 126.929C28.6199 126.712 28.9796 126.574 29.3869 126.513C29.8029 126.444 30.2666 126.409 30.7779 126.409ZM31.9479 126.656L33.8459 126.773L32.9749 133H31.4799L31.5059 131.544L31.2719 131.388L31.9479 126.656ZM38.172 124.797L37.288 130.985C37.2533 131.219 37.275 131.379 37.353 131.466C37.431 131.553 37.5956 131.596 37.847 131.596H38.718L38.809 132.909C38.6443 132.961 38.445 133.004 38.211 133.039C37.9856 133.082 37.7646 133.113 37.548 133.13C37.3313 133.147 37.1536 133.156 37.015 133.156C36.417 133.156 35.962 132.996 35.65 132.675C35.3466 132.346 35.2383 131.904 35.325 131.349L36.274 124.797H38.172ZM39.706 126.578L39.524 127.839H34.688L34.844 126.643L36.092 126.578H39.706ZM43.7386 126.409C44.5273 126.409 45.1339 126.496 45.5586 126.669C45.9919 126.834 46.2823 127.085 46.4296 127.423C46.5769 127.752 46.6116 128.16 46.5336 128.645C46.4729 129.044 46.3386 129.36 46.1306 129.594C45.9313 129.819 45.6539 129.988 45.2986 130.101C44.9433 130.214 44.4926 130.292 43.9466 130.335L40.6706 130.608L40.8136 129.542L43.5696 129.269C43.8036 129.243 43.9943 129.208 44.1416 129.165C44.2976 129.113 44.4189 129.035 44.5056 128.931C44.5923 128.818 44.6486 128.662 44.6746 128.463C44.7093 128.255 44.6963 128.099 44.6356 127.995C44.5749 127.891 44.4666 127.826 44.3106 127.8C44.1546 127.765 43.9466 127.752 43.6866 127.761C43.4179 127.761 43.1926 127.787 43.0106 127.839C42.8286 127.891 42.6769 127.986 42.5556 128.125C42.4343 128.255 42.3346 128.446 42.2566 128.697C42.1786 128.94 42.1049 129.256 42.0356 129.646C41.9489 130.209 41.9359 130.634 41.9966 130.92C42.0573 131.206 42.1916 131.397 42.3996 131.492C42.6076 131.587 42.8979 131.635 43.2706 131.635C43.4786 131.635 43.7299 131.631 44.0246 131.622C44.3193 131.605 44.6183 131.587 44.9216 131.57C45.2336 131.544 45.5153 131.518 45.7666 131.492L45.8966 132.688C45.6366 132.801 45.3419 132.892 45.0126 132.961C44.6833 133.03 44.3496 133.078 44.0116 133.104C43.6736 133.139 43.3573 133.156 43.0626 133.156C42.2046 133.156 41.5373 133.026 41.0606 132.766C40.5926 132.506 40.2806 132.12 40.1246 131.609C39.9686 131.089 39.9339 130.452 40.0206 129.698C40.0986 129.031 40.2286 128.485 40.4106 128.06C40.6013 127.635 40.8439 127.306 41.1386 127.072C41.4419 126.829 41.8103 126.66 42.2436 126.565C42.6769 126.461 43.1753 126.409 43.7386 126.409ZM50.3745 123.9L49.3605 130.985C49.3258 131.21 49.3518 131.371 49.4385 131.466C49.5338 131.553 49.7115 131.596 49.9715 131.596H50.5565L50.6475 132.909C50.5435 132.97 50.3918 133.017 50.1925 133.052C50.0018 133.087 49.8112 133.113 49.6205 133.13C49.4298 133.147 49.2738 133.156 49.1525 133.156C48.5372 133.156 48.0735 133 47.7615 132.688C47.4495 132.367 47.3282 131.934 47.3975 131.388L48.4505 123.9H50.3745ZM54.6274 123.9L53.6134 130.985C53.5788 131.21 53.6048 131.371 53.6914 131.466C53.7868 131.553 53.9644 131.596 54.2244 131.596H54.8094L54.9004 132.909C54.7964 132.97 54.6448 133.017 54.4454 133.052C54.2548 133.087 54.0641 133.113 53.8734 133.13C53.6828 133.147 53.5268 133.156 53.4054 133.156C52.7901 133.156 52.3264 133 52.0144 132.688C51.7024 132.367 51.5811 131.934 51.6504 131.388L52.7034 123.9H54.6274ZM59.6344 126.409C59.8597 126.409 60.111 126.422 60.3884 126.448C60.6744 126.465 60.9604 126.491 61.2464 126.526C61.541 126.561 61.814 126.6 62.0654 126.643C62.3254 126.686 62.5377 126.73 62.7024 126.773L61.3894 127.813C61.0427 127.796 60.7264 127.787 60.4404 127.787C60.1544 127.778 59.8857 127.774 59.6344 127.774C59.3484 127.774 59.1057 127.796 58.9064 127.839C58.707 127.882 58.5424 127.969 58.4124 128.099C58.2824 128.22 58.174 128.407 58.0874 128.658C58.0007 128.909 57.927 129.247 57.8664 129.672C57.7884 130.209 57.745 130.621 57.7364 130.907C57.7364 131.184 57.7884 131.375 57.8924 131.479C57.9964 131.583 58.161 131.631 58.3864 131.622C58.6204 131.613 58.863 131.535 59.1144 131.388C59.3744 131.241 59.63 131.041 59.8814 130.79C60.1327 130.53 60.3754 130.24 60.6094 129.919L60.9474 130.543C60.774 131.054 60.527 131.505 60.2064 131.895C59.8944 132.276 59.526 132.575 59.1014 132.792C58.6767 133.009 58.2044 133.13 57.6844 133.156C57.121 133.182 56.6877 133.069 56.3844 132.818C56.0897 132.567 55.9077 132.177 55.8384 131.648C55.769 131.119 55.795 130.456 55.9164 129.659C56.029 128.922 56.185 128.337 56.3844 127.904C56.5924 127.462 56.8524 127.137 57.1644 126.929C57.4764 126.712 57.836 126.574 58.2434 126.513C58.6594 126.444 59.123 126.409 59.6344 126.409ZM60.8044 126.656L62.7024 126.773L61.8314 133H60.3364L60.3624 131.544L60.1284 131.388L60.8044 126.656ZM70.4734 126.578C70.4128 126.959 70.3304 127.345 70.2264 127.735C70.1224 128.125 70.0141 128.498 69.9014 128.853C69.7888 129.2 69.6718 129.52 69.5504 129.815C69.3684 130.309 69.1778 130.747 68.9784 131.128C68.7878 131.509 68.6274 131.795 68.4974 131.986C68.3414 132.255 68.1724 132.463 67.9904 132.61C67.8171 132.757 67.6221 132.861 67.4054 132.922C67.1888 132.974 66.9244 133 66.6124 133H65.1564C65.0091 133 64.8791 132.952 64.7664 132.857C64.6624 132.762 64.6018 132.645 64.5844 132.506L63.6224 126.578H65.7024L66.1704 131.739H66.3264C66.4998 131.739 66.6298 131.7 66.7164 131.622C66.8118 131.544 66.9201 131.384 67.0414 131.141C67.1454 130.942 67.2581 130.699 67.3794 130.413C67.5094 130.127 67.6394 129.78 67.7694 129.373C67.9341 128.87 68.0641 128.389 68.1594 127.93C68.2548 127.471 68.3371 127.02 68.4064 126.578H70.4734ZM73.6368 126.578L72.7398 133H70.8288L71.7258 126.578H73.6368ZM73.4418 123.744C73.6498 123.744 73.7971 123.796 73.8838 123.9C73.9791 124.004 74.0138 124.16 73.9878 124.368L73.8968 125.057C73.8448 125.421 73.6325 125.603 73.2598 125.603H72.4798C72.0638 125.603 71.8775 125.395 71.9208 124.979L72.0248 124.29C72.0595 123.926 72.2675 123.744 72.6488 123.744H73.4418ZM78.2699 126.409C79.0585 126.409 79.6652 126.496 80.0899 126.669C80.5232 126.834 80.8135 127.085 80.9609 127.423C81.1082 127.752 81.1429 128.16 81.0649 128.645C81.0042 129.044 80.8699 129.36 80.6619 129.594C80.4625 129.819 80.1852 129.988 79.8299 130.101C79.4745 130.214 79.0239 130.292 78.4779 130.335L75.2019 130.608L75.3449 129.542L78.1009 129.269C78.3349 129.243 78.5255 129.208 78.6729 129.165C78.8289 129.113 78.9502 129.035 79.0369 128.931C79.1235 128.818 79.1799 128.662 79.2059 128.463C79.2405 128.255 79.2275 128.099 79.1669 127.995C79.1062 127.891 78.9979 127.826 78.8419 127.8C78.6859 127.765 78.4779 127.752 78.2179 127.761C77.9492 127.761 77.7239 127.787 77.5419 127.839C77.3599 127.891 77.2082 127.986 77.0869 128.125C76.9655 128.255 76.8659 128.446 76.7879 128.697C76.7099 128.94 76.6362 129.256 76.5669 129.646C76.4802 130.209 76.4672 130.634 76.5279 130.92C76.5885 131.206 76.7229 131.397 76.9309 131.492C77.1389 131.587 77.4292 131.635 77.8019 131.635C78.0099 131.635 78.2612 131.631 78.5559 131.622C78.8505 131.605 79.1495 131.587 79.4529 131.57C79.7649 131.544 80.0465 131.518 80.2979 131.492L80.4279 132.688C80.1679 132.801 79.8732 132.892 79.5439 132.961C79.2145 133.03 78.8809 133.078 78.5429 133.104C78.2049 133.139 77.8885 133.156 77.5939 133.156C76.7359 133.156 76.0685 133.026 75.5919 132.766C75.1239 132.506 74.8119 132.12 74.6559 131.609C74.4999 131.089 74.4652 130.452 74.5519 129.698C74.6299 129.031 74.7599 128.485 74.9419 128.06C75.1325 127.635 75.3752 127.306 75.6699 127.072C75.9732 126.829 76.3415 126.66 76.7749 126.565C77.2082 126.461 77.7065 126.409 78.2699 126.409ZM83.9698 126.578L84.3598 131.713H84.4898C84.6111 131.713 84.7151 131.665 84.8018 131.57C84.8884 131.466 84.9751 131.297 85.0618 131.063C85.1398 130.881 85.2178 130.664 85.2958 130.413C85.3824 130.162 85.4604 129.884 85.5298 129.581C85.5991 129.338 85.6598 129.096 85.7118 128.853C85.7638 128.61 85.8114 128.346 85.8548 128.06C85.9068 127.765 85.9631 127.432 86.0238 127.059C86.0411 126.946 86.0931 126.838 86.1798 126.734C86.2751 126.63 86.4138 126.578 86.5958 126.578H88.3118C88.4591 126.578 88.5804 126.626 88.6758 126.721C88.7711 126.816 88.8231 126.929 88.8318 127.059L89.1698 131.713H89.2868C89.4254 131.713 89.5294 131.648 89.5988 131.518C89.6681 131.379 89.7374 131.21 89.8068 131.011C89.9194 130.742 90.0191 130.487 90.1058 130.244C90.2011 129.993 90.2964 129.694 90.3918 129.347C90.5131 128.922 90.6171 128.489 90.7038 128.047C90.7904 127.596 90.8684 127.107 90.9378 126.578H92.8748C92.8054 126.942 92.7318 127.306 92.6538 127.67C92.5758 128.034 92.4891 128.389 92.3938 128.736C92.2984 129.083 92.1901 129.425 92.0688 129.763C91.9301 130.17 91.7828 130.56 91.6268 130.933C91.4708 131.297 91.3278 131.605 91.1978 131.856C91.0678 132.116 90.9204 132.333 90.7558 132.506C90.5998 132.671 90.4004 132.796 90.1578 132.883C89.9151 132.961 89.5988 133 89.2088 133H88.3378C88.1818 133 88.0518 132.952 87.9478 132.857C87.8438 132.753 87.7874 132.627 87.7788 132.48L87.4928 127.761H87.3368C87.3194 127.917 87.2891 128.116 87.2458 128.359C87.2111 128.593 87.1634 128.849 87.1028 129.126C87.0421 129.395 86.9771 129.663 86.9078 129.932C86.8558 130.14 86.7951 130.352 86.7258 130.569C86.6651 130.777 86.6001 130.976 86.5308 131.167C86.4614 131.349 86.3921 131.514 86.3228 131.661C86.1841 132.06 86.0151 132.354 85.8158 132.545C85.6164 132.736 85.3911 132.861 85.1398 132.922C84.8884 132.974 84.6068 133 84.2948 133H83.2548C83.0988 133 82.9688 132.952 82.8648 132.857C82.7694 132.753 82.7131 132.627 82.6958 132.48L82.0068 126.578H83.9698Z" fill="white"/>
</g>
<defs>
<clipPath id="clip0_113_2248">
<rect width="112" height="160" rx="6" fill="white"/>
</clipPath>
</defs>
</svg>
