<svg width="112" height="160" viewBox="0 0 112 160" fill="none" xmlns="http://www.w3.org/2000/svg">
<g clip-path="url(#clip0_121_152)">
<path d="M1 7C1 3.6863 3.68629 1 7 1H105C108.314 1 111 3.68629 111 7V152C111 155.314 108.314 158 105 158H7C3.68629 158 1 155.314 1 152V7Z" fill="#393B4E"/>
<path fill-rule="evenodd" clip-rule="evenodd" d="M7 0C3.13401 0 0 3.13401 0 7V153C0 156.866 3.13401 160 7 160H105C108.866 160 112 156.866 112 153V7C112 3.13401 108.866 0 105 0H7ZM7 1C3.68629 1 1 3.68629 1 7C1 7 1 7 1 7V152C1 152.165 1.00666 152.328 1.01973 152.49C1.2691 155.575 3.85131 158 7 158H105C108.149 158 110.731 155.575 110.98 152.49C110.993 152.328 111 152.165 111 152V7C111 3.68629 108.314 1 105 1H7Z" fill="black" fill-opacity="0.3"/>
<path d="M48.201 57.0691C45.3082 56.4627 42.9046 55.9588 39 57C31.5 59.0001 22 70.5 22 84C22 91 29 94 32 94C34.7895 94 37.487 92.1582 40.5666 90.0555C44.6629 87.2586 49.4354 84 56 84C62.5646 84 67.3371 87.2586 71.4334 90.0555C74.513 92.1582 77.2104 94 80 94C83 94 90 91 90 84C90 70.5 80.5 59.0001 73 57C69.0954 55.9588 66.6918 56.4627 63.799 57.0691C61.7065 57.5077 59.3579 58 56 58C52.6421 58 50.2935 57.5077 48.201 57.0691Z" fill="#4F4F4F"/>
<path d="M48.5087 55.601L48.4901 55.5971C45.5529 54.9813 42.863 54.4175 38.6135 55.5507C34.3964 56.6753 29.8818 60.354 26.4519 65.3371C22.9941 70.3606 20.5 76.9021 20.5 84C20.5 88.0693 22.5571 90.9761 24.9638 92.8165C27.3138 94.6136 30.1273 95.5 32 95.5C33.7269 95.5 35.3429 94.9298 36.8599 94.1505C38.3515 93.3843 39.8605 92.354 41.3644 91.327L41.4125 91.2943C45.5367 88.4783 49.9542 85.5 56 85.5C62.0458 85.5 66.4633 88.4783 70.5875 91.2943L70.6356 91.327C72.1395 92.354 73.6485 93.3843 75.1401 94.1505C76.6571 94.9298 78.2731 95.5 80 95.5C81.8727 95.5 84.6862 94.6136 87.0362 92.8165C89.4429 90.9761 91.5 88.0693 91.5 84C91.5 76.9021 89.0059 70.3606 85.5481 65.3371C82.1182 60.354 77.6036 56.6753 73.3865 55.5507C69.137 54.4175 66.4471 54.9813 63.5099 55.5971L63.4913 55.601C61.4167 56.0358 59.1946 56.5 56 56.5C52.8054 56.5 50.5833 56.0358 48.5087 55.601Z" stroke="white" stroke-opacity="0.3" stroke-width="3"/>
<path d="M48.3036 56.5797L48.2971 56.5783C45.3898 55.9689 42.8908 55.445 38.8712 56.5169C34.9655 57.5585 30.6273 61.0347 27.2756 65.904C23.9147 70.7869 21.5 77.134 21.5 84C21.5 87.6898 23.3524 90.3254 25.5713 92.0222C27.7713 93.7045 30.3758 94.5 32 94.5C33.5055 94.5 34.9586 94.003 36.403 93.261C37.8388 92.5235 39.3044 91.5227 40.8314 90.4801L40.8486 90.4684C44.9542 87.6651 49.6083 84.5 56 84.5C62.3917 84.5 67.0458 87.6651 71.1514 90.4684L71.1686 90.4801C72.6956 91.5227 74.1612 92.5235 75.597 93.261C77.0414 94.003 78.4945 94.5 80 94.5C81.6242 94.5 84.2287 93.7045 86.4287 92.0222C88.6476 90.3254 90.5 87.6898 90.5 84C90.5 77.134 88.0853 70.7869 84.7244 65.904C81.3727 61.0347 77.0345 57.5585 73.1288 56.5169C69.1092 55.445 66.6102 55.9689 63.7029 56.5783L63.6964 56.5797C61.6099 57.0171 59.3035 57.5 56 57.5C52.6965 57.5 50.3901 57.0171 48.3036 56.5797Z" fill="#4F4F4F" stroke="#333333"/>
<path d="M71.1509 89.8627C72.2407 89.2927 73.3587 88.8261 74.5 88.5C85 85.5 88.3652 78.5035 84.5 70C79.9546 60 68 60 56 60C44 60 32.0454 60 27.5 70C23.6348 78.5035 27 85.5 37.5 88.5C38.6413 88.8261 39.7593 89.2927 40.8491 89.8627C44.8824 87.1111 49.5857 84 56 84C62.4143 84 67.1176 87.111 71.1509 89.8627Z" fill="#828282" fill-opacity="0.4"/>
<path d="M56 80.5C56.8892 80.5 57.719 80.3209 58.3449 80.0079C58.941 79.7099 59.5 79.2056 59.5 78.5C59.5 77.7944 58.941 77.2901 58.3449 76.9921C57.719 76.6791 56.8892 76.5 56 76.5C55.1108 76.5 54.281 76.6791 53.6551 76.9921C53.059 77.2901 52.5 77.7944 52.5 78.5C52.5 79.2056 53.059 79.7099 53.6551 80.0079C54.281 80.3209 55.1108 80.5 56 80.5Z" fill="#828282" stroke="#333333"/>
<path d="M76 70.5C77.3807 70.5 78.5 69.3807 78.5 68C78.5 66.6193 77.3807 65.5 76 65.5C74.6193 65.5 73.5 66.6193 73.5 68C73.5 69.3807 74.6193 70.5 76 70.5ZM71 72.5C72.3807 72.5 73.5 71.3807 73.5 70C73.5 68.6193 72.3807 67.5 71 67.5C69.6193 67.5 68.5 68.6193 68.5 70C68.5 71.3807 69.6193 72.5 71 72.5ZM81 76.5C82.933 76.5 84.5 74.933 84.5 73C84.5 71.067 82.933 69.5 81 69.5C79.067 69.5 77.5 71.067 77.5 73C77.5 74.933 79.067 76.5 81 76.5ZM74 79.5C75.933 79.5 77.5 77.933 77.5 76C77.5 74.067 75.933 72.5 74 72.5C72.067 72.5 70.5 74.067 70.5 76C70.5 77.933 72.067 79.5 74 79.5ZM67 82.5C68.933 82.5 70.5 80.933 70.5 79C70.5 77.067 68.933 75.5 67 75.5C65.067 75.5 63.5 77.067 63.5 79C63.5 80.933 65.067 82.5 67 82.5ZM66 74.5C67.3807 74.5 68.5 73.3807 68.5 72C68.5 70.6193 67.3807 69.5 66 69.5C64.6193 69.5 63.5 70.6193 63.5 72C63.5 73.3807 64.6193 74.5 66 74.5Z" fill="#828282" stroke="#333333"/>
<circle cx="67" cy="79" r="3" fill="#828282"/>
<circle cx="74" cy="76" r="3" fill="#828282"/>
<circle cx="81" cy="73" r="3" fill="#828282"/>
<circle cx="66" cy="72" r="2" fill="#828282"/>
<circle cx="71" cy="70" r="2" fill="#828282"/>
<circle cx="76" cy="68" r="2" fill="#828282"/>
<path d="M44.9301 78.9301C48.9441 74.9162 49.7657 68.9312 46.4172 65.5828C43.0688 62.2343 37.0838 63.0559 33.0699 67.0699C29.0559 71.0838 28.2343 77.0688 31.5828 80.4172C34.9312 83.7657 40.9162 82.9441 44.9301 78.9301Z" fill="#4F4F4F" stroke="#4F4F4F"/>
<path d="M39 80.5C43.1421 80.5 46.5 77.1421 46.5 73C46.5 68.8579 43.1421 65.5 39 65.5C34.8579 65.5 31.5 68.8579 31.5 73C31.5 77.1421 34.8579 80.5 39 80.5Z" fill="#4F4F4F" stroke="#333333"/>
<path d="M46.293 74.7567C46.4284 74.1927 46.5 73.6044 46.5 73C46.5 72.3956 46.4284 71.8073 46.293 71.2433C46.1837 70.7879 45.7733 70.5 45.3373 70.5H43C42.1716 70.5 41.5 69.8284 41.5 69V66.6627C41.5 66.2267 41.2121 65.8163 40.7567 65.707C40.1927 65.5716 39.6044 65.5 39 65.5C38.3956 65.5 37.8073 65.5716 37.2433 65.707C36.7879 65.8163 36.5 66.2267 36.5 66.6627V69C36.5 69.8284 35.8284 70.5 35 70.5H32.6627C32.2267 70.5 31.8163 70.7879 31.707 71.2433C31.5716 71.8073 31.5 72.3956 31.5 73C31.5 73.6044 31.5716 74.1927 31.707 74.7567C31.8163 75.2121 32.2267 75.5 32.6627 75.5H35C35.8284 75.5 36.5 76.1716 36.5 77V79.3373C36.5 79.7733 36.7879 80.1837 37.2433 80.293C37.8073 80.4284 38.3956 80.5 39 80.5C39.6044 80.5 40.1927 80.4284 40.7567 80.293C41.2121 80.1837 41.5 79.7733 41.5 79.3373V77C41.5 76.1716 42.1716 75.5 43 75.5H45.3373C45.7733 75.5 46.1837 75.2121 46.293 74.7567Z" fill="#828282" stroke="#333333"/>
<circle cx="39" cy="73" r="1.5" stroke="#333333"/>
<path d="M39.7025 123.861C40.1705 123.861 40.6601 123.891 41.1715 123.952C41.6828 124.004 42.1725 124.095 42.6405 124.225L42.4585 125.538C42.1811 125.529 41.8821 125.525 41.5615 125.525C41.2495 125.516 40.9288 125.512 40.5995 125.512C40.2701 125.503 39.9365 125.499 39.5985 125.499C39.3818 125.499 39.1868 125.508 39.0135 125.525C38.8488 125.534 38.7058 125.564 38.5845 125.616C38.4718 125.668 38.3808 125.755 38.3115 125.876C38.2421 125.989 38.1901 126.145 38.1555 126.344C38.1381 126.517 38.1425 126.665 38.1685 126.786C38.2031 126.899 38.2768 126.998 38.3895 127.085C38.5021 127.163 38.6711 127.25 38.8965 127.345L40.5215 128.021C40.9981 128.22 41.3578 128.441 41.6005 128.684C41.8431 128.927 41.9991 129.213 42.0685 129.542C42.1378 129.863 42.1421 130.244 42.0815 130.686C42.0035 131.353 41.8345 131.869 41.5745 132.233C41.3145 132.588 40.9418 132.835 40.4565 132.974C39.9711 133.104 39.3341 133.169 38.5455 133.169C38.2248 133.169 37.7828 133.143 37.2195 133.091C36.6648 133.048 36.0668 132.957 35.4255 132.818L35.6205 131.414C36.1318 131.423 36.5738 131.436 36.9465 131.453C37.3191 131.462 37.6311 131.47 37.8825 131.479C38.1338 131.479 38.3331 131.479 38.4805 131.479C38.8531 131.479 39.1521 131.457 39.3775 131.414C39.6028 131.362 39.7718 131.275 39.8845 131.154C40.0058 131.024 40.0838 130.833 40.1185 130.582C40.1445 130.391 40.1401 130.24 40.1055 130.127C40.0795 130.014 40.0101 129.923 39.8975 129.854C39.7935 129.776 39.6461 129.698 39.4555 129.62L37.7395 128.879C37.2801 128.68 36.9291 128.454 36.6865 128.203C36.4438 127.943 36.2878 127.653 36.2185 127.332C36.1491 127.003 36.1405 126.643 36.1925 126.253C36.2531 125.759 36.3701 125.356 36.5435 125.044C36.7168 124.723 36.9465 124.481 37.2325 124.316C37.5271 124.143 37.8781 124.026 38.2855 123.965C38.7015 123.896 39.1738 123.861 39.7025 123.861ZM46.9962 126.409C47.2215 126.409 47.4728 126.422 47.7502 126.448C48.0362 126.465 48.3222 126.491 48.6082 126.526C48.9028 126.561 49.1758 126.6 49.4272 126.643C49.6872 126.686 49.8995 126.73 50.0642 126.773L48.7512 127.813C48.4045 127.796 48.0882 127.787 47.8022 127.787C47.5162 127.778 47.2475 127.774 46.9962 127.774C46.7102 127.774 46.4675 127.796 46.2682 127.839C46.0688 127.882 45.9042 127.969 45.7742 128.099C45.6442 128.22 45.5358 128.407 45.4492 128.658C45.3625 128.909 45.2888 129.247 45.2282 129.672C45.1502 130.209 45.1068 130.621 45.0982 130.907C45.0982 131.184 45.1502 131.375 45.2542 131.479C45.3582 131.583 45.5228 131.631 45.7482 131.622C45.9822 131.613 46.2248 131.535 46.4762 131.388C46.7362 131.241 46.9918 131.041 47.2432 130.79C47.4945 130.53 47.7372 130.24 47.9712 129.919L48.3092 130.543C48.1358 131.054 47.8888 131.505 47.5682 131.895C47.2562 132.276 46.8878 132.575 46.4632 132.792C46.0385 133.009 45.5662 133.13 45.0462 133.156C44.4828 133.182 44.0495 133.069 43.7462 132.818C43.4515 132.567 43.2695 132.177 43.2002 131.648C43.1308 131.119 43.1568 130.456 43.2782 129.659C43.3908 128.922 43.5468 128.337 43.7462 127.904C43.9542 127.462 44.2142 127.137 44.5262 126.929C44.8382 126.712 45.1978 126.574 45.6052 126.513C46.0212 126.444 46.4848 126.409 46.9962 126.409ZM48.1662 126.656L50.0642 126.773L49.1932 133H47.6982L47.7242 131.544L47.4902 131.388L48.1662 126.656ZM54.3902 124.797L53.5062 130.985C53.4716 131.219 53.4932 131.379 53.5712 131.466C53.6492 131.553 53.8139 131.596 54.0652 131.596H54.9362L55.0272 132.909C54.8626 132.961 54.6632 133.004 54.4292 133.039C54.2039 133.082 53.9829 133.113 53.7662 133.13C53.5496 133.147 53.3719 133.156 53.2332 133.156C52.6352 133.156 52.1802 132.996 51.8682 132.675C51.5649 132.346 51.4566 131.904 51.5432 131.349L52.4922 124.797H54.3902ZM55.9242 126.578L55.7422 127.839H50.9062L51.0622 126.643L52.3102 126.578H55.9242ZM58.8259 126.578L58.2149 130.829C58.1802 131.098 58.2062 131.284 58.2929 131.388C58.3882 131.492 58.5399 131.544 58.7479 131.544C59.0512 131.544 59.3459 131.457 59.6319 131.284C59.9265 131.111 60.2949 130.833 60.7369 130.452L61.0229 131.414C60.4595 132.012 59.9265 132.458 59.4239 132.753C58.9212 133.039 58.4099 133.182 57.8899 133.182C57.2659 133.182 56.8109 133.022 56.5249 132.701C56.2475 132.372 56.1522 131.921 56.2389 131.349L56.9019 126.578H58.8259ZM63.0509 126.578L62.1669 133H60.6589L60.6849 131.258L60.5159 131.089L61.1399 126.578H63.0509ZM66.1038 126.578L66.1168 128.112L66.2858 128.294L65.6358 133H63.7118L64.6088 126.578H66.1038ZM69.2498 126.409L68.8338 128.19H68.3658C68.0625 128.19 67.7332 128.259 67.3778 128.398C67.0312 128.528 66.5935 128.727 66.0648 128.996L65.9868 127.865C66.4982 127.388 66.9965 127.029 67.4818 126.786C67.9672 126.535 68.4265 126.409 68.8598 126.409H69.2498ZM74.5773 126.409C74.9326 126.409 75.2403 126.478 75.5003 126.617C75.7603 126.747 75.951 126.946 76.0723 127.215C76.1936 127.484 76.2283 127.822 76.1763 128.229L75.5003 133H73.5633L74.1613 128.814C74.2046 128.519 74.1873 128.316 74.1093 128.203C74.04 128.082 73.884 128.025 73.6413 128.034C73.3553 128.043 73.052 128.134 72.7313 128.307C72.4193 128.48 72.038 128.749 71.5873 129.113L71.3663 128.138C71.8776 127.592 72.4063 127.167 72.9523 126.864C73.507 126.561 74.0486 126.409 74.5773 126.409ZM71.6393 126.578V128.268L71.7953 128.45L71.1583 133H69.2343L70.1313 126.578H71.6393Z" fill="white"/>
</g>
<defs>
<clipPath id="clip0_121_152">
<rect width="112" height="160" rx="6" fill="white"/>
</clipPath>
</defs>
</svg>
