<svg width="112" height="160" viewBox="0 0 112 160" fill="none" xmlns="http://www.w3.org/2000/svg">
<g clip-path="url(#clip0_122_295)">
<path d="M1 7C1 3.6863 3.68629 1 7 1H105C108.314 1 111 3.68629 111 7V152C111 155.314 108.314 158 105 158H7C3.68629 158 1 155.314 1 152V7Z" fill="#393B4E"/>
<path fill-rule="evenodd" clip-rule="evenodd" d="M7 0C3.13401 0 0 3.13401 0 7V153C0 156.866 3.13401 160 7 160H105C108.866 160 112 156.866 112 153V7C112 3.13401 108.866 0 105 0H7ZM7 1C3.68629 1 1 3.68629 1 7C1 7 1 7 1 7V152C1 152.165 1.00666 152.328 1.01973 152.49C1.2691 155.575 3.85131 158 7 158H105C108.149 158 110.731 155.575 110.98 152.49C110.993 152.328 111 152.165 111 152V7C111 3.68629 108.314 1 105 1H7Z" fill="black" fill-opacity="0.3"/>
<path d="M20 51C20 50.4477 20.4477 50 21 50H91C91.5523 50 92 50.4477 92 51V94C92 94.5523 91.5523 95 91 95H21C20.4477 95 20 94.5523 20 94V51Z" fill="#4F4F4F"/>
<path d="M91 48.5H21C19.6193 48.5 18.5 49.6193 18.5 51V94C18.5 95.3807 19.6193 96.5 21 96.5H91C92.3807 96.5 93.5 95.3807 93.5 94V51C93.5 49.6193 92.3807 48.5 91 48.5Z" stroke="white" stroke-opacity="0.3" stroke-width="3"/>
<path d="M91 49.5H21C20.1716 49.5 19.5 50.1716 19.5 51V94C19.5 94.8284 20.1716 95.5 21 95.5H91C91.8284 95.5 92.5 94.8284 92.5 94V51C92.5 50.1716 91.8284 49.5 91 49.5Z" fill="#4F4F4F" stroke="#333333"/>
<rect x="78" y="68" width="5" height="5" fill="#BDBDBD"/>
<rect x="74.5" y="68.5" width="4" height="4" fill="#828282" stroke="#BDBDBD"/>
<rect x="82.5" y="68.5" width="4" height="4" fill="#F8D99B" stroke="#F3BE54"/>
<rect x="80.5" y="74.5" width="4" height="4" fill="#BDBDBD" stroke="#828282"/>
<rect x="78.5" y="78.5" width="4" height="4" fill="#BDBDBD" stroke="#828282"/>
<rect x="80.5" y="82.5" width="4" height="4" fill="#BDBDBD" stroke="#828282"/>
<rect x="82.5" y="78.5" width="4" height="4" fill="#BDBDBD" stroke="#828282"/>
<path d="M23 58.5H22.5V59V91V91.5H23H89H89.5V91V59V58.5H89H23Z" stroke="#333333"/>
<path d="M23 60.5H89" stroke="#333333"/>
<path d="M23 62.5H89" stroke="#333333"/>
<path d="M20 64.5H92" stroke="#333333"/>
<rect x="27.5" y="68.5" width="4" height="4" fill="#828282" stroke="#BDBDBD"/>
<rect x="31.5" y="68.5" width="4" height="4" fill="#828282" stroke="#BDBDBD"/>
<rect x="35.5" y="68.5" width="4" height="4" fill="#828282" stroke="#BDBDBD"/>
<rect x="39.5" y="68.5" width="4" height="4" fill="#828282" stroke="#BDBDBD"/>
<rect x="43.5" y="68.5" width="4" height="4" fill="#828282" stroke="#BDBDBD"/>
<rect x="47.5" y="68.5" width="4" height="4" fill="#828282" stroke="#BDBDBD"/>
<rect x="51.5" y="68.5" width="4" height="4" fill="#828282" stroke="#BDBDBD"/>
<rect x="55.5" y="68.5" width="4" height="4" fill="#828282" stroke="#BDBDBD"/>
<rect x="59.5" y="68.5" width="4" height="4" fill="#828282" stroke="#BDBDBD"/>
<rect x="63.5" y="68.5" width="4" height="4" fill="#828282" stroke="#BDBDBD"/>
<rect x="67.5" y="68.5" width="4" height="4" fill="#828282" stroke="#BDBDBD"/>
<rect x="31.5" y="84.5" width="4" height="4" fill="#E0E0E0" stroke="#BDBDBD"/>
<rect x="37.5" y="84.5" width="4" height="4" fill="#E0E0E0" stroke="#BDBDBD"/>
<rect x="43.5" y="84.5" width="16" height="4" fill="#828282" stroke="#BDBDBD"/>
<rect x="61.5" y="84.5" width="4" height="4" fill="#E0E0E0" stroke="#BDBDBD"/>
<rect x="67.5" y="84.5" width="4" height="4" fill="#E0E0E0" stroke="#BDBDBD"/>
<rect x="27.5" y="80.5" width="6" height="4" fill="#E0E0E0" stroke="#BDBDBD"/>
<rect x="33.5" y="80.5" width="4" height="4" fill="#828282" stroke="#BDBDBD"/>
<rect x="37.5" y="80.5" width="4" height="4" fill="#828282" stroke="#BDBDBD"/>
<rect x="41.5" y="80.5" width="4" height="4" fill="#828282" stroke="#BDBDBD"/>
<rect x="45.5" y="80.5" width="4" height="4" fill="#828282" stroke="#BDBDBD"/>
<rect x="49.5" y="80.5" width="4" height="4" fill="#828282" stroke="#BDBDBD"/>
<rect x="53.5" y="80.5" width="4" height="4" fill="#828282" stroke="#BDBDBD"/>
<rect x="57.5" y="80.5" width="4" height="4" fill="#828282" stroke="#BDBDBD"/>
<rect x="61.5" y="80.5" width="4" height="4" fill="#828282" stroke="#BDBDBD"/>
<rect x="65.5" y="80.5" width="4" height="4" fill="#828282" stroke="#BDBDBD"/>
<rect x="69.5" y="80.5" width="6" height="4" fill="#E0E0E0" stroke="#BDBDBD"/>
<rect x="25.5" y="76.5" width="6" height="4" fill="#E0E0E0" stroke="#BDBDBD"/>
<rect x="31.5" y="76.5" width="4" height="4" fill="#828282" stroke="#BDBDBD"/>
<rect x="35.5" y="76.5" width="4" height="4" fill="#828282" stroke="#BDBDBD"/>
<rect x="39.5" y="76.5" width="4" height="4" fill="#828282" stroke="#BDBDBD"/>
<rect x="43.5" y="76.5" width="4" height="4" fill="#828282" stroke="#BDBDBD"/>
<rect x="47.5" y="76.5" width="4" height="4" fill="#828282" stroke="#BDBDBD"/>
<rect x="51.5" y="76.5" width="4" height="4" fill="#828282" stroke="#BDBDBD"/>
<rect x="55.5" y="76.5" width="4" height="4" fill="#828282" stroke="#BDBDBD"/>
<rect x="59.5" y="76.5" width="4" height="4" fill="#828282" stroke="#BDBDBD"/>
<rect x="63.5" y="76.5" width="4" height="4" fill="#828282" stroke="#BDBDBD"/>
<rect x="67.5" y="76.5" width="4" height="4" fill="#828282" stroke="#BDBDBD"/>
<rect x="25.5" y="72.5" width="7" height="4" fill="#E0E0E0" stroke="#BDBDBD"/>
<rect x="32.5" y="72.5" width="4" height="4" fill="#828282" stroke="#BDBDBD"/>
<rect x="36.5" y="72.5" width="4" height="4" fill="#828282" stroke="#BDBDBD"/>
<rect x="40.5" y="72.5" width="4" height="4" fill="#828282" stroke="#BDBDBD"/>
<rect x="44.5" y="72.5" width="4" height="4" fill="#828282" stroke="#BDBDBD"/>
<rect x="48.5" y="72.5" width="4" height="4" fill="#828282" stroke="#BDBDBD"/>
<rect x="52.5" y="72.5" width="4" height="4" fill="#828282" stroke="#BDBDBD"/>
<rect x="56.5" y="72.5" width="4" height="4" fill="#828282" stroke="#BDBDBD"/>
<rect x="60.5" y="72.5" width="4" height="4" fill="#828282" stroke="#BDBDBD"/>
<rect x="64.5" y="72.5" width="4" height="4" fill="#828282" stroke="#BDBDBD"/>
<circle cx="80" cy="70.5" r="1" fill="#27AE60"/>
<circle cx="80" cy="70.5" r="0.75" stroke="black" stroke-opacity="0.4" stroke-width="0.5"/>
<rect x="71.5" y="72.5" width="4" height="8" fill="#E0E0E0" stroke="#BDBDBD"/>
<path d="M33.9575 52.012V52.1912H32.7893V52.8206H33.9575V52.9998H32.714C32.622 52.9998 32.5478 52.9312 32.5478 52.8469C32.5471 52.7508 32.5455 52.6654 32.5442 52.5895C32.5384 52.275 32.5357 52.1237 32.6097 52.0542C32.6783 51.9899 32.8128 51.9958 33.0719 52.0071C33.2782 52.0162 33.5635 52.0287 33.9575 52.012Z" fill="#F2F2F2"/>
<path d="M35.6537 52.3467L36.0176 52.012H34.6222V52.1912H35.5474L35.1833 52.5259H35.8225V52.8208H34.6076V53H35.8512C35.9428 53 36.0173 52.9317 36.0173 52.8471C36.0123 52.8139 36.015 52.7659 36.0179 52.7127C36.0267 52.5524 36.0381 52.3442 35.8512 52.3469C35.8514 52.3467 35.6537 52.3467 35.6537 52.3467Z" fill="#F2F2F2"/>
<path d="M34.5029 52.4226H34.0763V52.6018H34.5029V52.4226Z" fill="#F2F2F2"/>
<path fill-rule="evenodd" clip-rule="evenodd" d="M36.1257 52.1648V52.8469C36.1257 52.9312 36.1999 52.9998 36.2919 52.9998H37.4945C37.5862 52.9998 37.6607 52.9315 37.6607 52.8469V52.1648C37.6607 52.0805 37.5865 52.012 37.4945 52.012H36.2919C36.2002 52.0124 36.1257 52.0807 36.1257 52.1648ZM36.3672 52.8205V52.1912H37.4192V52.8205H36.3672Z" fill="#F2F2F2"/>
<path fill-rule="evenodd" clip-rule="evenodd" d="M37.7953 52.8469V52.1648C37.7953 52.0807 37.8696 52.0124 37.9615 52.012H39.1642C39.2561 52.012 39.3303 52.0805 39.3303 52.1648V52.8469C39.3303 52.9315 39.2558 52.9998 39.1642 52.9998H37.9615C37.8696 52.9998 37.7953 52.9312 37.7953 52.8469ZM38.0368 52.1912V52.8205H39.0889V52.1912H38.0368Z" fill="#F2F2F2"/>
<path fill-rule="evenodd" clip-rule="evenodd" d="M39.465 52.1648V52.8469C39.465 52.9312 39.5393 52.9998 39.6312 52.9998H40.8338C40.9255 52.9998 41 52.9315 41 52.8469V52.1648C41 52.0805 40.9258 52.012 40.8338 52.012H39.6312C39.5393 52.0124 39.465 52.0807 39.465 52.1648ZM39.7062 52.8205V52.1912H40.7583V52.8205H39.7062Z" fill="#F2F2F2"/>
<path d="M31.2446 52.4226H32.2469C32.4274 52.4215 32.4197 52.6047 32.4138 52.7459C32.4122 52.7843 32.4107 52.8195 32.4131 52.8471C32.4131 52.9315 32.3386 53 32.2469 53H31.0034V52.8208H32.1714V52.6018H31.1693C30.9878 52.6031 30.9961 52.4164 31.0026 52.2722C31.0044 52.2312 31.006 52.1937 31.0032 52.1648C31.0032 52.0805 31.0777 52.012 31.1693 52.012H32.4129V52.1912H31.2446V52.4226Z" fill="#F2F2F2"/>
<path d="M23 53.3802H23.9703C23.9856 53.3802 24.0014 53.3657 24.0014 53.3449C24.0014 53.3232 23.9856 53.3092 23.9624 53.3092H23.7139C23.318 53.3092 23 53.0176 23 52.6546C23 52.2916 23.318 52 23.7139 52H24.6842V52.2771H23.7218C23.497 52.2771 23.3106 52.448 23.3106 52.6541C23.3106 52.8602 23.497 53.0311 23.7218 53.0311H23.9703C24.1567 53.0311 24.312 53.1736 24.312 53.3444C24.312 53.5153 24.1567 53.6577 23.9703 53.6577H23V53.3802Z" fill="#18ADDC"/>
<path d="M24.6842 52.6261H23.7139C23.6986 52.6261 23.6828 52.6401 23.6828 52.6546C23.6828 52.6763 23.6986 52.6903 23.7218 52.6903H23.9703C24.3662 52.6903 24.6842 52.9819 24.6842 53.3449C24.6842 53.7079 24.3662 53.9995 23.9703 53.9995H23V53.7219H23.9624C24.1872 53.7219 24.3736 53.551 24.3736 53.3449C24.3736 53.1388 24.1872 52.9679 23.9624 52.9679H23.7139C23.5275 52.9679 23.3722 52.8255 23.3722 52.6546C23.3722 52.4837 23.5275 52.3413 23.7139 52.3413H24.6842V52.6261Z" fill="#18ADDC"/>
<path d="M27.1982 52.3704C27.066 52.3704 26.9655 52.4615 26.9655 52.58V53.4541C26.9655 53.5731 27.0665 53.6637 27.1982 53.6637H27.8262V53.0481H27.345V53.3208H27.5235V53.3839H27.345C27.3061 53.3839 27.275 53.3559 27.275 53.3208V52.7062C27.275 52.6711 27.3061 52.6431 27.345 52.6431H28.2064V52.3704H27.1982Z" fill="#18ADDC"/>
<path fill-rule="evenodd" clip-rule="evenodd" d="M29.8132 53.6637H29.0993V53.419L28.8818 53.9995H28.5249L29.1456 52.3709C29.1614 52.3429 29.1998 52.3149 29.2388 52.3149C29.2856 52.3149 29.3167 52.3429 29.332 52.378L29.8132 53.6637ZM29.3325 53.3559L29.2314 53.0761L29.1224 53.3559H29.3325Z" fill="#18ADDC"/>
<path d="M29.7047 52.3216C29.6426 52.1399 29.4562 52 29.2314 52C29.0066 52 28.8202 52.1328 28.766 52.3144L28.1995 53.8103V52.7133H27.3456V52.986H27.9042V53.7273H27.2055C27.0349 53.7273 26.9028 53.6016 26.9028 53.4546V52.5805C26.9028 52.4268 27.0423 52.3078 27.2055 52.3078H28.2069V52.0351H27.1981C26.8644 52.0351 26.5927 52.2798 26.5927 52.5805V53.4546C26.5927 53.7553 26.8644 54 27.1981 54H28.4475L29.0761 52.3576C29.0993 52.2945 29.1614 52.2528 29.2393 52.2528C29.3167 52.2528 29.3788 52.2945 29.4025 52.3576L29.9148 53.7273H29.1077V54H30.3333L29.7047 52.3216Z" fill="#18ADDC"/>
<path d="M25.1344 53.4439C25.1344 53.5935 25.2665 53.7215 25.4371 53.7215L26.4769 53.7224V54H25.4371C25.1033 54 24.8316 53.7509 24.8316 53.4448V52.5552C24.8316 52.2491 25.1033 52 25.4371 52H26.4769V52.2771H25.4371C25.2739 52.2771 25.1344 52.3983 25.1344 52.5547V53.4439Z" fill="#18ADDC"/>
<path d="M25.5071 53.3159H26.26V53.0384H25.2044V53.4511C25.2044 53.5723 25.3055 53.6645 25.4371 53.6645H26.4769V53.3869H25.5766C25.5382 53.3801 25.5071 53.3517 25.5071 53.3159Z" fill="#18ADDC"/>
<path d="M25.5066 52.6903H26.2594V52.9674H25.2038V52.5547C25.2038 52.434 25.3044 52.3413 25.4365 52.3413H26.469V52.6261H25.5766C25.5376 52.6261 25.5066 52.6546 25.5066 52.6903Z" fill="#18ADDC"/>
<path d="M36.2908 53.125C36.2296 53.125 36.1745 53.1329 36.1255 53.1487C36.0772 53.1645 36.0386 53.1846 36.0096 53.2089C35.9815 53.2327 35.9578 53.2606 35.9385 53.2929C35.9192 53.3251 35.9059 53.3561 35.8986 53.3859C35.8922 53.4158 35.889 53.4459 35.889 53.4763C35.889 53.5061 35.8922 53.5356 35.8986 53.5648C35.9059 53.594 35.9188 53.6247 35.9373 53.6569C35.9566 53.6886 35.9803 53.7162 36.0084 53.74C36.0374 53.7637 36.0756 53.7835 36.1231 53.7993C36.1713 53.8145 36.2256 53.8221 36.2859 53.8221C36.5007 53.8221 36.6214 53.7342 36.6479 53.5584H36.5321C36.5184 53.6229 36.4923 53.6706 36.4537 53.7016C36.4151 53.7321 36.3596 53.7473 36.2872 53.7473C36.1995 53.7473 36.1299 53.7229 36.0784 53.6743C36.0269 53.625 36.0012 53.5587 36.0012 53.4754C36.0012 53.3902 36.0257 53.323 36.0748 53.2737C36.1247 53.2245 36.1922 53.1998 36.2775 53.1998C36.3475 53.1998 36.4014 53.2117 36.4392 53.2354C36.477 53.2591 36.5023 53.2947 36.5152 53.3422H36.6298C36.5952 53.1974 36.4822 53.125 36.2908 53.125ZM31 53.1359V53.8011H31.1122V53.5192H31.3885C31.4617 53.5192 31.5208 53.5021 31.5659 53.4681C31.6117 53.4334 31.6347 53.3878 31.6347 53.3312C31.6347 53.2686 31.6109 53.2205 31.5635 53.187C31.5168 53.153 31.45 53.1359 31.3632 53.1359H31ZM35.3533 53.1359V53.8011H35.4546V53.1359H35.3533ZM39.7524 53.1916V53.323H39.6667V53.385H39.7524V53.7464C39.7524 53.7707 39.7629 53.7892 39.7838 53.802C39.8047 53.8154 39.8349 53.8221 39.8743 53.8221C39.8976 53.8221 39.9249 53.82 39.9563 53.8157V53.7518C39.9443 53.7543 39.9282 53.7555 39.9081 53.7555C39.8863 53.7555 39.8715 53.7527 39.8634 53.7473C39.8562 53.7412 39.8526 53.7296 39.8526 53.7126V53.385H39.9563V53.323H39.8526V53.1916H39.7524ZM31.1122 53.2108H31.3463C31.4002 53.2108 31.442 53.2211 31.4718 53.2418C31.5023 53.2625 31.5176 53.2911 31.5176 53.3276C31.5176 53.3641 31.5023 53.3926 31.4718 53.4133C31.442 53.434 31.4002 53.4443 31.3463 53.4443H31.1122V53.2108ZM32.0208 53.3093C31.9331 53.3093 31.8627 53.333 31.8096 53.3805C31.7573 53.4273 31.7312 53.49 31.7312 53.5684C31.7312 53.6469 31.7569 53.7089 31.8084 53.7546C31.8599 53.7996 31.9299 53.8221 32.0183 53.8221C32.0907 53.8221 32.1507 53.8075 32.1981 53.7783C32.2456 53.7491 32.2757 53.7083 32.2886 53.656H32.1872C32.1591 53.7199 32.104 53.7518 32.022 53.7518C31.9648 53.7518 31.9198 53.7369 31.8868 53.7071C31.8546 53.6773 31.8378 53.6375 31.8361 53.5876H32.3019C32.3019 53.4021 32.2082 53.3093 32.0208 53.3093ZM32.6759 53.3093C32.6437 53.3093 32.614 53.3172 32.5866 53.333C32.5601 53.3482 32.5323 53.3738 32.5034 53.4097V53.323H32.4105V53.8011H32.5118V53.5529C32.5118 53.4903 32.5287 53.4477 32.5625 53.4252C32.5963 53.4027 32.647 53.3908 32.7145 53.3896V53.312C32.6976 53.3102 32.6848 53.3093 32.6759 53.3093ZM33.0379 53.3093C32.9647 53.3093 32.906 53.3227 32.8617 53.3494C32.8175 53.3756 32.7954 53.4109 32.7954 53.4553C32.7954 53.493 32.8098 53.5222 32.8388 53.5429C32.8686 53.563 32.9208 53.5797 32.9957 53.5931L33.0898 53.6104C33.1244 53.6165 33.1493 53.6247 33.1646 53.635C33.1799 53.6454 33.1875 53.6594 33.1875 53.677C33.1875 53.6995 33.1738 53.7178 33.1465 53.7317C33.1199 53.7451 33.0845 53.7518 33.0403 53.7518C32.9848 53.7518 32.9462 53.7436 32.9245 53.7272C32.9035 53.7102 32.8907 53.6873 32.8859 53.6588H32.7797C32.7845 53.7676 32.8686 53.8221 33.0319 53.8221C33.1115 53.8221 33.1746 53.8084 33.2213 53.781C33.2687 53.7536 33.2925 53.7168 33.2925 53.6706C33.2925 53.6353 33.2784 53.6074 33.2502 53.5867C33.2221 53.5654 33.1766 53.549 33.1139 53.5374L33.0174 53.5201C32.9763 53.5128 32.9466 53.504 32.9281 53.4936C32.9096 53.4827 32.9003 53.4687 32.9003 53.4516C32.9003 53.4297 32.9124 53.4124 32.9365 53.3996C32.9607 53.3863 32.9932 53.3796 33.0343 53.3796C33.1163 53.3796 33.1585 53.4051 33.161 53.4562H33.2671C33.2663 53.4094 33.2462 53.3732 33.2068 53.3476C33.1674 53.3221 33.1111 53.3093 33.0379 53.3093ZM33.6544 53.3093C33.566 53.3093 33.4964 53.3321 33.4457 53.3777C33.395 53.4227 33.3697 53.4854 33.3697 53.5657C33.3697 53.646 33.3946 53.7089 33.4445 53.7546C33.4952 53.7996 33.5656 53.8221 33.6556 53.8221C33.7441 53.8221 33.8137 53.7996 33.8644 53.7546C33.9159 53.7096 33.9416 53.6478 33.9416 53.5693C33.9416 53.4866 33.9163 53.4227 33.8656 53.3777C33.8157 53.3321 33.7453 53.3093 33.6544 53.3093ZM34.353 53.3093C34.3064 53.3093 34.2666 53.3166 34.2336 53.3312C34.2014 53.3458 34.1713 53.3698 34.1431 53.4033V53.323H34.0502V53.8011H34.1515V53.5374C34.1515 53.4887 34.1672 53.4498 34.1986 53.4206C34.23 53.3908 34.2714 53.3759 34.3229 53.3759C34.3631 53.3759 34.3949 53.3844 34.4182 53.4015C34.4415 53.4185 34.4532 53.4413 34.4532 53.4699V53.8011H34.5533V53.4398C34.5533 53.4002 34.5352 53.3686 34.499 53.3449C34.4628 53.3212 34.4142 53.3093 34.353 53.3093ZM34.943 53.3093C34.779 53.3093 34.6945 53.361 34.6897 53.4644H34.791C34.795 53.4352 34.8091 53.4139 34.8333 53.4005C34.8574 53.3866 34.8928 53.3796 34.9394 53.3796C34.9845 53.3796 35.0191 53.3856 35.0432 53.3978C35.0681 53.41 35.0806 53.4276 35.0806 53.4507V53.4708C35.0806 53.4866 35.073 53.4985 35.0577 53.5064C35.0424 53.5143 35.015 53.5201 34.9756 53.5237C34.9467 53.5268 34.9266 53.5289 34.9153 53.5301C34.904 53.5313 34.8863 53.5335 34.8622 53.5365C34.8381 53.5395 34.8212 53.5423 34.8115 53.5447C34.8019 53.5465 34.7878 53.5499 34.7693 53.5547C34.7516 53.559 34.7387 53.5636 34.7307 53.5684C34.7235 53.5733 34.7142 53.5797 34.7029 53.5876C34.6917 53.5949 34.6836 53.6031 34.6788 53.6122C34.6748 53.6207 34.6708 53.6308 34.6667 53.6423C34.6635 53.6539 34.6619 53.6667 34.6619 53.6807C34.6619 53.7238 34.6804 53.7582 34.7174 53.7838C34.7552 53.8093 34.8059 53.8221 34.8694 53.8221C34.9451 53.8221 35.0166 53.7987 35.0842 53.7518C35.0882 53.7762 35.0983 53.7938 35.1144 53.8047C35.1313 53.8163 35.1558 53.8221 35.188 53.8221C35.2057 53.8221 35.2286 53.8193 35.2567 53.8139V53.7564C35.2495 53.7576 35.2423 53.7582 35.235 53.7582C35.1988 53.7582 35.1807 53.7457 35.1807 53.7208V53.4398C35.1807 53.3972 35.1606 53.365 35.1204 53.3431C35.0802 53.3206 35.0211 53.3093 34.943 53.3093ZM37.0171 53.3093C36.9287 53.3093 36.8591 53.3321 36.8084 53.3777C36.7577 53.4227 36.7324 53.4854 36.7324 53.5657C36.7324 53.646 36.7573 53.7089 36.8072 53.7546C36.8579 53.7996 36.9282 53.8221 37.0183 53.8221C37.1068 53.8221 37.1764 53.7996 37.2271 53.7546C37.2786 53.7096 37.3043 53.6478 37.3043 53.5693C37.3043 53.4866 37.279 53.4227 37.2283 53.3777C37.1784 53.3321 37.108 53.3093 37.0171 53.3093ZM37.7 53.3093C37.6582 53.3093 37.622 53.3157 37.5915 53.3285C37.5617 53.3412 37.5331 53.3619 37.5058 53.3905V53.323H37.4129V53.8011H37.5142V53.5009C37.5142 53.4662 37.5287 53.4367 37.5577 53.4124C37.5866 53.3881 37.6216 53.3759 37.6626 53.3759C37.6996 53.3759 37.7282 53.3844 37.7483 53.4015C37.7692 53.4179 37.7797 53.4413 37.7797 53.4717V53.8011H37.881V53.5009C37.881 53.4662 37.8955 53.4367 37.9245 53.4124C37.9534 53.3881 37.9884 53.3759 38.0294 53.3759C38.0664 53.3759 38.095 53.3844 38.1151 53.4015C38.136 53.4179 38.1465 53.4413 38.1465 53.4717V53.8011H38.2478V53.4425C38.2478 53.3993 38.2317 53.3665 38.1996 53.344C38.1682 53.3209 38.1231 53.3093 38.0644 53.3093C38.0226 53.3093 37.9872 53.3148 37.9582 53.3257C37.9293 53.3367 37.8999 53.3555 37.8702 53.3823C37.8348 53.3336 37.7781 53.3093 37.7 53.3093ZM38.687 53.3093C38.6001 53.3093 38.533 53.3379 38.4855 53.3951V53.323H38.3926V54H38.494V53.7509C38.5454 53.7984 38.6102 53.8221 38.6882 53.8221C38.7695 53.8221 38.8346 53.7993 38.8837 53.7536C38.9336 53.7074 38.9585 53.6463 38.9585 53.5703C38.9585 53.49 38.934 53.4264 38.8849 53.3796C38.8366 53.3327 38.7707 53.3093 38.687 53.3093ZM40.3062 53.3093C40.2185 53.3093 40.1482 53.333 40.0951 53.3805C40.0428 53.4273 40.0166 53.49 40.0166 53.5684C40.0166 53.6469 40.0424 53.7089 40.0939 53.7546C40.1453 53.7996 40.2153 53.8221 40.3038 53.8221C40.3762 53.8221 40.4361 53.8075 40.4836 53.7783C40.531 53.7491 40.5612 53.7083 40.5741 53.656H40.4727C40.4446 53.7199 40.3895 53.7518 40.3074 53.7518C40.2503 53.7518 40.2053 53.7369 40.1723 53.7071C40.1401 53.6773 40.1232 53.6375 40.1216 53.5876H40.5873C40.5873 53.4021 40.4936 53.3093 40.3062 53.3093ZM40.9614 53.3093C40.9292 53.3093 40.8995 53.3172 40.8721 53.333C40.8456 53.3482 40.8178 53.3738 40.7888 53.4097V53.323H40.6959V53.8011H40.7973V53.5529C40.7973 53.4903 40.8142 53.4477 40.848 53.4252C40.8818 53.4027 40.9324 53.3908 41 53.3896V53.312C40.9831 53.3102 40.9702 53.3093 40.9614 53.3093ZM39.0671 53.323V53.6916C39.0671 53.7311 39.0852 53.7628 39.1214 53.7865C39.1584 53.8102 39.2074 53.8221 39.2686 53.8221C39.3152 53.8221 39.3546 53.8154 39.3868 53.802C39.419 53.7886 39.45 53.7661 39.4797 53.7345V53.8011H39.5702V53.323H39.4701V53.594C39.4701 53.6426 39.4544 53.6819 39.423 53.7117C39.3916 53.7409 39.3498 53.7555 39.2975 53.7555C39.2573 53.7555 39.2255 53.747 39.2022 53.7299C39.1789 53.7129 39.1672 53.6901 39.1672 53.6615V53.323H39.0671ZM32.0195 53.3796C32.0702 53.3796 32.112 53.3936 32.145 53.4215C32.178 53.4495 32.1945 53.4842 32.1945 53.5255H31.8386C31.8426 53.4811 31.8611 53.4459 31.8941 53.4197C31.927 53.3929 31.9689 53.3796 32.0195 53.3796ZM33.6556 53.3796C33.7128 53.3796 33.757 53.3963 33.7884 53.4297C33.8205 53.4632 33.8366 53.5094 33.8366 53.5684C33.8366 53.6244 33.8201 53.6691 33.7872 53.7026C33.755 53.7354 33.7111 53.7518 33.6556 53.7518C33.5993 53.7518 33.5551 53.7354 33.5229 53.7026C33.4907 53.6691 33.4747 53.6235 33.4747 53.5657C33.4747 53.5079 33.4907 53.4626 33.5229 53.4297C33.5551 53.3963 33.5993 53.3796 33.6556 53.3796ZM37.0183 53.3796C37.0754 53.3796 37.1197 53.3963 37.1511 53.4297C37.1832 53.4632 37.1993 53.5094 37.1993 53.5684C37.1993 53.6244 37.1828 53.6691 37.1499 53.7026C37.1177 53.7354 37.0738 53.7518 37.0183 53.7518C36.962 53.7518 36.9178 53.7354 36.8856 53.7026C36.8534 53.6691 36.8374 53.6235 36.8374 53.5657C36.8374 53.5079 36.8534 53.4626 36.8856 53.4297C36.9178 53.3963 36.962 53.3796 37.0183 53.3796ZM40.305 53.3796C40.3557 53.3796 40.3975 53.3936 40.4305 53.4215C40.4635 53.4495 40.48 53.4842 40.48 53.5255H40.124C40.128 53.4811 40.1465 53.4459 40.1795 53.4197C40.2125 53.3929 40.2543 53.3796 40.305 53.3796ZM38.6701 53.3805C38.7256 53.3805 38.7699 53.3975 38.8028 53.4316C38.8366 53.4656 38.8535 53.5113 38.8535 53.5684C38.8535 53.6226 38.8366 53.6667 38.8028 53.7007C38.7691 53.7342 38.7248 53.7509 38.6701 53.7509C38.617 53.7509 38.5744 53.7342 38.5422 53.7007C38.51 53.6667 38.494 53.6217 38.494 53.5657C38.494 53.5097 38.51 53.465 38.5422 53.4316C38.5744 53.3975 38.617 53.3805 38.6701 53.3805ZM35.0806 53.5648V53.6505C35.0806 53.6761 35.0629 53.7001 35.0275 53.7226C34.9921 53.7445 34.9467 53.7555 34.8912 53.7555C34.8517 53.7555 34.8212 53.7488 34.7995 53.7354C34.7778 53.722 34.7669 53.7032 34.7669 53.6788C34.7669 53.6545 34.779 53.6356 34.8031 53.6223C34.8272 53.6083 34.8542 53.5994 34.8839 53.5958C34.9137 53.5921 34.9487 53.5879 34.9889 53.583C35.0299 53.5782 35.0605 53.5721 35.0806 53.5648Z" fill="#F2F2F2"/>
<path d="M34.3704 123.861C34.8384 123.861 35.3281 123.891 35.8394 123.952C36.3508 124.004 36.8404 124.095 37.3084 124.225L37.1264 125.538C36.8491 125.529 36.5501 125.525 36.2294 125.525C35.9174 125.516 35.5968 125.512 35.2674 125.512C34.9381 125.503 34.6044 125.499 34.2664 125.499C34.0498 125.499 33.8548 125.508 33.6814 125.525C33.5168 125.534 33.3738 125.564 33.2524 125.616C33.1398 125.668 33.0488 125.755 32.9794 125.876C32.9101 125.989 32.8581 126.145 32.8234 126.344C32.8061 126.517 32.8104 126.665 32.8364 126.786C32.8711 126.899 32.9448 126.998 33.0574 127.085C33.1701 127.163 33.3391 127.25 33.5644 127.345L35.1894 128.021C35.6661 128.22 36.0258 128.441 36.2684 128.684C36.5111 128.927 36.6671 129.213 36.7364 129.542C36.8058 129.863 36.8101 130.244 36.7494 130.686C36.6714 131.353 36.5024 131.869 36.2424 132.233C35.9824 132.588 35.6098 132.835 35.1244 132.974C34.6391 133.104 34.0021 133.169 33.2134 133.169C32.8928 133.169 32.4508 133.143 31.8874 133.091C31.3328 133.048 30.7348 132.957 30.0934 132.818L30.2884 131.414C30.7998 131.423 31.2418 131.436 31.6144 131.453C31.9871 131.462 32.2991 131.47 32.5504 131.479C32.8018 131.479 33.0011 131.479 33.1484 131.479C33.5211 131.479 33.8201 131.457 34.0454 131.414C34.2708 131.362 34.4398 131.275 34.5524 131.154C34.6738 131.024 34.7518 130.833 34.7864 130.582C34.8124 130.391 34.8081 130.24 34.7734 130.127C34.7474 130.014 34.6781 129.923 34.5654 129.854C34.4614 129.776 34.3141 129.698 34.1234 129.62L32.4074 128.879C31.9481 128.68 31.5971 128.454 31.3544 128.203C31.1118 127.943 30.9558 127.653 30.8864 127.332C30.8171 127.003 30.8084 126.643 30.8604 126.253C30.9211 125.759 31.0381 125.356 31.2114 125.044C31.3848 124.723 31.6144 124.481 31.9004 124.316C32.1951 124.143 32.5461 124.026 32.9534 123.965C33.3694 123.896 33.8418 123.861 34.3704 123.861ZM42.4831 123.874C42.9078 123.874 43.2718 123.887 43.5751 123.913C43.8785 123.93 44.1558 123.965 44.4071 124.017C44.6671 124.06 44.9271 124.121 45.1871 124.199L44.9271 125.642C44.6498 125.625 44.3855 125.612 44.1341 125.603C43.8915 125.594 43.6358 125.59 43.3671 125.59C43.0985 125.581 42.7778 125.577 42.4051 125.577C42.0671 125.577 41.7811 125.62 41.5471 125.707C41.3131 125.785 41.1095 125.932 40.9361 126.149C40.7715 126.357 40.6328 126.66 40.5201 127.059C40.4075 127.449 40.3121 127.96 40.2341 128.593C40.1301 129.338 40.0911 129.919 40.1171 130.335C40.1518 130.751 40.2731 131.041 40.4811 131.206C40.6978 131.371 41.0271 131.453 41.4691 131.453C42.0845 131.453 42.5915 131.444 42.9901 131.427C43.3975 131.401 43.7961 131.371 44.1861 131.336L44.2771 132.805C43.8438 132.926 43.4105 133.013 42.9771 133.065C42.5438 133.126 42.0195 133.156 41.4041 133.156C40.4768 133.156 39.7445 133 39.2071 132.688C38.6785 132.376 38.3318 131.878 38.1671 131.193C38.0025 130.5 37.9981 129.581 38.1541 128.437C38.2841 127.562 38.4531 126.829 38.6611 126.24C38.8691 125.651 39.1378 125.183 39.4671 124.836C39.7965 124.489 40.2081 124.242 40.7021 124.095C41.1961 123.948 41.7898 123.874 42.4831 123.874ZM49.558 129.074L49.389 130.296H45.515L45.697 129.074H49.558ZM54.3821 123.848C55.3354 123.848 56.0374 123.991 56.4881 124.277C56.9388 124.554 57.1641 125.027 57.1641 125.694C57.1641 126.119 57.0991 126.517 56.9691 126.89C56.8478 127.263 56.6571 127.57 56.3971 127.813C56.1458 128.047 55.8294 128.186 55.4481 128.229L55.4351 128.281C55.9291 128.359 56.2888 128.537 56.5141 128.814C56.7394 129.091 56.8521 129.455 56.8521 129.906C56.8521 130.643 56.7048 131.249 56.4101 131.726C56.1154 132.203 55.6908 132.562 55.1361 132.805C54.5901 133.048 53.9228 133.173 53.1341 133.182C52.7181 133.182 52.2674 133.156 51.7821 133.104C51.2968 133.061 50.8158 133 50.3391 132.922L50.4951 131.505C50.8418 131.522 51.1494 131.54 51.4181 131.557C51.6868 131.574 51.9381 131.587 52.1721 131.596C52.4148 131.596 52.6574 131.592 52.9001 131.583C53.5501 131.557 54.0441 131.397 54.3821 131.102C54.7288 130.799 54.9021 130.361 54.9021 129.789C54.9021 129.624 54.8631 129.486 54.7851 129.373C54.7158 129.252 54.5988 129.156 54.4341 129.087C54.2694 129.018 54.0484 128.983 53.7711 128.983L51.9901 128.97L52.1591 127.683H53.8881C54.3994 127.674 54.7591 127.544 54.9671 127.293C55.1751 127.042 55.2791 126.652 55.2791 126.123C55.2791 125.863 55.1968 125.685 55.0321 125.59C54.8674 125.486 54.5424 125.434 54.0571 125.434C53.6498 125.434 53.2251 125.443 52.7831 125.46C52.3498 125.469 51.9728 125.477 51.6521 125.486L51.6261 124.082C52.1374 124.004 52.6314 123.948 53.1081 123.913C53.5934 123.87 54.0181 123.848 54.3821 123.848ZM61.2662 133.169C60.6162 133.169 60.0572 133.078 59.5892 132.896C59.1299 132.705 58.7789 132.398 58.5362 131.973C58.2936 131.54 58.1766 130.963 58.1852 130.244C58.1852 129.594 58.2156 128.957 58.2762 128.333C58.3456 127.709 58.4626 127.128 58.6272 126.591C58.7919 126.045 59.0259 125.568 59.3292 125.161C59.6326 124.754 60.0182 124.437 60.4862 124.212C60.9629 123.978 61.5479 123.861 62.2412 123.861C62.9086 123.861 63.4676 123.956 63.9182 124.147C64.3776 124.329 64.7242 124.632 64.9582 125.057C65.2009 125.482 65.3222 126.049 65.3222 126.76C65.3222 127.41 65.2919 128.051 65.2312 128.684C65.1792 129.308 65.0709 129.893 64.9062 130.439C64.7416 130.976 64.5076 131.453 64.2042 131.869C63.9009 132.276 63.5109 132.597 63.0342 132.831C62.5576 133.056 61.9682 133.169 61.2662 133.169ZM61.4222 131.622C61.7776 131.622 62.0722 131.531 62.3062 131.349C62.5402 131.167 62.7309 130.92 62.8782 130.608C63.0256 130.296 63.1339 129.941 63.2032 129.542C63.2726 129.135 63.3202 128.71 63.3462 128.268C63.3722 127.817 63.3896 127.375 63.3982 126.942C63.4069 126.387 63.2986 125.993 63.0732 125.759C62.8566 125.525 62.5186 125.408 62.0592 125.408C61.7126 125.408 61.4222 125.499 61.1882 125.681C60.9629 125.863 60.7766 126.114 60.6292 126.435C60.4906 126.747 60.3866 127.102 60.3172 127.501C60.2479 127.9 60.1959 128.324 60.1612 128.775C60.1352 129.226 60.1179 129.668 60.1092 130.101C60.1092 130.647 60.2132 131.037 60.4212 131.271C60.6379 131.505 60.9716 131.622 61.4222 131.622ZM69.442 133.169C68.792 133.169 68.233 133.078 67.765 132.896C67.3057 132.705 66.9547 132.398 66.712 131.973C66.4693 131.54 66.3523 130.963 66.361 130.244C66.361 129.594 66.3913 128.957 66.452 128.333C66.5213 127.709 66.6383 127.128 66.803 126.591C66.9677 126.045 67.2017 125.568 67.505 125.161C67.8083 124.754 68.194 124.437 68.662 124.212C69.1387 123.978 69.7237 123.861 70.417 123.861C71.0843 123.861 71.6433 123.956 72.094 124.147C72.5533 124.329 72.9 124.632 73.134 125.057C73.3767 125.482 73.498 126.049 73.498 126.76C73.498 127.41 73.4677 128.051 73.407 128.684C73.355 129.308 73.2467 129.893 73.082 130.439C72.9173 130.976 72.6833 131.453 72.38 131.869C72.0767 132.276 71.6867 132.597 71.21 132.831C70.7333 133.056 70.144 133.169 69.442 133.169ZM69.598 131.622C69.9533 131.622 70.248 131.531 70.482 131.349C70.716 131.167 70.9067 130.92 71.054 130.608C71.2013 130.296 71.3097 129.941 71.379 129.542C71.4483 129.135 71.496 128.71 71.522 128.268C71.548 127.817 71.5653 127.375 71.574 126.942C71.5827 126.387 71.4743 125.993 71.249 125.759C71.0323 125.525 70.6943 125.408 70.235 125.408C69.8883 125.408 69.598 125.499 69.364 125.681C69.1387 125.863 68.9523 126.114 68.805 126.435C68.6663 126.747 68.5623 127.102 68.493 127.501C68.4237 127.9 68.3717 128.324 68.337 128.775C68.311 129.226 68.2937 129.668 68.285 130.101C68.285 130.647 68.389 131.037 68.597 131.271C68.8137 131.505 69.1473 131.622 69.598 131.622ZM77.6178 133.169C76.9678 133.169 76.4088 133.078 75.9408 132.896C75.4814 132.705 75.1304 132.398 74.8878 131.973C74.6451 131.54 74.5281 130.963 74.5368 130.244C74.5368 129.594 74.5671 128.957 74.6278 128.333C74.6971 127.709 74.8141 127.128 74.9788 126.591C75.1434 126.045 75.3774 125.568 75.6808 125.161C75.9841 124.754 76.3698 124.437 76.8378 124.212C77.3144 123.978 77.8994 123.861 78.5928 123.861C79.2601 123.861 79.8191 123.956 80.2698 124.147C80.7291 124.329 81.0758 124.632 81.3098 125.057C81.5524 125.482 81.6738 126.049 81.6738 126.76C81.6738 127.41 81.6434 128.051 81.5828 128.684C81.5308 129.308 81.4224 129.893 81.2578 130.439C81.0931 130.976 80.8591 131.453 80.5558 131.869C80.2524 132.276 79.8624 132.597 79.3858 132.831C78.9091 133.056 78.3198 133.169 77.6178 133.169ZM77.7738 131.622C78.1291 131.622 78.4238 131.531 78.6578 131.349C78.8918 131.167 79.0824 130.92 79.2298 130.608C79.3771 130.296 79.4854 129.941 79.5548 129.542C79.6241 129.135 79.6718 128.71 79.6978 128.268C79.7238 127.817 79.7411 127.375 79.7498 126.942C79.7584 126.387 79.6501 125.993 79.4248 125.759C79.2081 125.525 78.8701 125.408 78.4108 125.408C78.0641 125.408 77.7738 125.499 77.5398 125.681C77.3144 125.863 77.1281 126.114 76.9808 126.435C76.8421 126.747 76.7381 127.102 76.6688 127.501C76.5994 127.9 76.5474 128.324 76.5128 128.775C76.4868 129.226 76.4694 129.668 76.4608 130.101C76.4608 130.647 76.5648 131.037 76.7728 131.271C76.9894 131.505 77.3231 131.622 77.7738 131.622Z" fill="white"/>
</g>
<defs>
<clipPath id="clip0_122_295">
<rect width="112" height="160" rx="6" fill="white"/>
</clipPath>
</defs>
</svg>
