<svg width="112" height="160" viewBox="0 0 112 160" fill="none" xmlns="http://www.w3.org/2000/svg">
<g clip-path="url(#clip0_117_273)">
<path d="M1 7C1 3.6863 3.68629 1 7 1H105C108.314 1 111 3.68629 111 7V152C111 155.314 108.314 158 105 158H7C3.68629 158 1 155.314 1 152V7Z" fill="#393B4E"/>
<path fill-rule="evenodd" clip-rule="evenodd" d="M7 0C3.13401 0 0 3.13401 0 7V153C0 156.866 3.13401 160 7 160H105C108.866 160 112 156.866 112 153V7C112 3.13401 108.866 0 105 0H7ZM7 1C3.68629 1 1 3.68629 1 7C1 7 1 7 1 7V152C1 152.165 1.00666 152.328 1.01973 152.49C1.2691 155.575 3.85131 158 7 158H105C108.149 158 110.731 155.575 110.98 152.49C110.993 152.328 111 152.165 111 152V7C111 3.68629 108.314 1 105 1H7Z" fill="black" fill-opacity="0.3"/>
<path d="M36 92C28.5 92 22 81 22 72C22 61.5 34 52 56 52C78 52 90 61.5 90 72C90 81 83.5 92 76 92C73.0941 92 71.8008 89.6751 70.4862 87.3121C69.539 85.6093 68.5807 83.8867 67 83C63.1166 80.8215 60.4527 80 56 80C51.5473 80 48.8834 80.8215 45 83C43.4193 83.8867 42.461 85.6093 41.5138 87.3121C40.1993 89.6751 38.9059 92 36 92Z" fill="#4F4F4F"/>
<path d="M20.5 72C20.5 76.8233 22.2283 82.1073 24.9363 86.2024C27.6094 90.2446 31.5045 93.5 36 93.5C37.9284 93.5 39.3493 92.7003 40.43 91.587C41.4204 90.5667 42.1544 89.2466 42.7779 88.1253L42.8246 88.0413C43.8261 86.241 44.5934 84.948 45.7339 84.3082C49.4249 82.2376 51.8385 81.5 56 81.5C60.1615 81.5 62.5751 82.2376 66.2661 84.3082C67.4066 84.948 68.1739 86.241 69.1754 88.0413L69.2221 88.1253C69.8456 89.2466 70.5796 90.5667 71.57 91.587C72.6507 92.7003 74.0716 93.5 76 93.5C80.4955 93.5 84.3906 90.2446 87.0637 86.2024C89.7717 82.1073 91.5 76.8233 91.5 72C91.5 66.1199 88.129 60.6921 82.0597 56.7998C76.0025 52.9153 67.1977 50.5 56 50.5C44.8023 50.5 35.9975 52.9153 29.9403 56.7998C23.871 60.6921 20.5 66.1199 20.5 72Z" stroke="white" stroke-opacity="0.3" stroke-width="3"/>
<path d="M21.5 72C21.5 76.6078 23.1594 81.7024 25.7704 85.6508C28.3698 89.5815 32.0015 92.5 36 92.5C37.6115 92.5 38.785 91.846 39.7124 90.8904C40.6095 89.9663 41.2884 88.7458 41.9323 87.5883L41.9507 87.5552C42.9161 85.8199 43.8107 84.2405 45.2446 83.4361C49.0639 81.2936 51.6444 80.5 56 80.5C60.3556 80.5 62.9361 81.2936 66.7554 83.4361C68.1893 84.2405 69.0839 85.8199 70.0493 87.5552L70.0677 87.5884C70.7116 88.7459 71.3905 89.9663 72.2876 90.8904C73.215 91.846 74.3885 92.5 76 92.5C79.9985 92.5 83.6302 89.5815 86.2296 85.6508C88.8406 81.7024 90.5 76.6078 90.5 72C90.5 66.54 87.3763 61.3974 81.5199 57.6416C75.6675 53.8884 67.0659 51.5 56 51.5C44.9341 51.5 36.3325 53.8884 30.4801 57.6416C24.6237 61.3974 21.5 66.54 21.5 72Z" fill="#F3BE54" stroke="#333333"/>
<path d="M68 75C68 75 71.5272 72.3475 74 71C76.6115 69.5769 81 68 81 68" stroke="#F8D99B" stroke-width="14" stroke-linecap="round" stroke-linejoin="round"/>
<path d="M68 75C68 75 71.5272 72.3475 74 71C76.6115 69.5769 81 68 81 68" stroke="#F5C970" stroke-width="10" stroke-linecap="round" stroke-linejoin="round"/>
<path d="M81 71.5C82.933 71.5 84.5 69.933 84.5 68C84.5 66.067 82.933 64.5 81 64.5C79.067 64.5 77.5 66.067 77.5 68C77.5 69.933 79.067 71.5 81 71.5ZM74 74.5C75.933 74.5 77.5 72.933 77.5 71C77.5 69.067 75.933 67.5 74 67.5C72.067 67.5 70.5 69.067 70.5 71C70.5 72.933 72.067 74.5 74 74.5ZM68 78.5C69.933 78.5 71.5 76.933 71.5 75C71.5 73.067 69.933 71.5 68 71.5C66.067 71.5 64.5 73.067 64.5 75C64.5 76.933 66.067 78.5 68 78.5Z" fill="#4F4F4F" stroke="#4F4F4F"/>
<circle cx="68" cy="75" r="3" fill="#828282"/>
<circle cx="74" cy="71" r="3" fill="#828282"/>
<circle cx="81" cy="68" r="3" fill="#828282"/>
<circle cx="37.5" cy="70.5" r="10.5" fill="#F8D99B"/>
<circle opacity="0.5" cx="37.5" cy="70.5" r="8.5" fill="#F3BE54"/>
<path d="M29 70L28 70.5L29 71V70Z" fill="#DF9F20"/>
<path d="M37.5 61L37 62H38L37.5 61Z" fill="#DF9F20"/>
<path d="M47 70.5L46 70V71L47 70.5Z" fill="#DF9F20"/>
<path d="M37.5 80L37 79H38L37.5 80Z" fill="#DF9F20"/>
<circle cx="37.5" cy="70.5" r="7" fill="#828282" stroke="#4F4F4F"/>
<path d="M38.5 64.5H36.5C35.9477 64.5 35.5 64.9477 35.5 65.5V68.5H32.5C31.9477 68.5 31.5 68.9477 31.5 69.5V71.5C31.5 72.0523 31.9477 72.5 32.5 72.5H35.5V75.5C35.5 76.0523 35.9477 76.5 36.5 76.5H38.5C39.0523 76.5 39.5 76.0523 39.5 75.5V72.5H42.5C43.0523 72.5 43.5 72.0523 43.5 71.5V69.5C43.5 68.9477 43.0523 68.5 42.5 68.5H39.5V65.5C39.5 64.9477 39.0523 64.5 38.5 64.5Z" fill="#828282" stroke="#4F4F4F"/>
<path d="M33.5 67L33 66L34 66.5L33.5 67Z" fill="#BDBDBD"/>
<path d="M41 66.5L42 66L41.5 67L41 66.5Z" fill="#BDBDBD"/>
<path d="M42 75L41.5 74L41 74.5L42 75Z" fill="#BDBDBD"/>
<path d="M33.5 74L33 75L34 74.5L33.5 74Z" fill="#BDBDBD"/>
<circle cx="37.5" cy="70.5" r="1.25" stroke="#4F4F4F" stroke-width="0.5"/>
<path fill-rule="evenodd" clip-rule="evenodd" d="M73.4285 60.1286C73.6336 60.6414 73.3842 61.2234 72.8714 61.4285L67.8714 63.4285C67.3586 63.6336 66.7767 63.3842 66.5715 62.8714C66.3664 62.3586 66.6158 61.7767 67.1286 61.5715L72.1286 59.5715C72.6414 59.3664 73.2234 59.6158 73.4285 60.1286Z" fill="#E0E0E0"/>
<path d="M73.0571 61.8927C73.8263 61.5851 74.2004 60.7121 73.8927 59.9429C73.5851 59.1738 72.7121 58.7996 71.9429 59.1073L66.9429 61.1073C66.1738 61.415 65.7996 62.2879 66.1073 63.0571C66.415 63.8263 67.2879 64.2004 68.0571 63.8927L73.0571 61.8927Z" stroke="black" stroke-opacity="0.3" stroke-linecap="round" stroke-linejoin="round"/>
<path d="M35.6654 123.861C36.1334 123.861 36.623 123.891 37.1344 123.952C37.6457 124.004 38.1354 124.095 38.6034 124.225L38.4214 125.538C38.144 125.529 37.845 125.525 37.5244 125.525C37.2124 125.516 36.8917 125.512 36.5624 125.512C36.233 125.503 35.8994 125.499 35.5614 125.499C35.3447 125.499 35.1497 125.508 34.9764 125.525C34.8117 125.534 34.6687 125.564 34.5474 125.616C34.4347 125.668 34.3437 125.755 34.2744 125.876C34.205 125.989 34.153 126.145 34.1184 126.344C34.101 126.517 34.1054 126.665 34.1314 126.786C34.166 126.899 34.2397 126.998 34.3524 127.085C34.465 127.163 34.634 127.25 34.8594 127.345L36.4844 128.021C36.961 128.22 37.3207 128.441 37.5634 128.684C37.806 128.927 37.962 129.213 38.0314 129.542C38.1007 129.863 38.105 130.244 38.0444 130.686C37.9664 131.353 37.7974 131.869 37.5374 132.233C37.2774 132.588 36.9047 132.835 36.4194 132.974C35.934 133.104 35.297 133.169 34.5084 133.169C34.1877 133.169 33.7457 133.143 33.1824 133.091C32.6277 133.048 32.0297 132.957 31.3884 132.818L31.5834 131.414C32.0947 131.423 32.5367 131.436 32.9094 131.453C33.282 131.462 33.594 131.47 33.8454 131.479C34.0967 131.479 34.296 131.479 34.4434 131.479C34.816 131.479 35.115 131.457 35.3404 131.414C35.5657 131.362 35.7347 131.275 35.8474 131.154C35.9687 131.024 36.0467 130.833 36.0814 130.582C36.1074 130.391 36.103 130.24 36.0684 130.127C36.0424 130.014 35.973 129.923 35.8604 129.854C35.7564 129.776 35.609 129.698 35.4184 129.62L33.7024 128.879C33.243 128.68 32.892 128.454 32.6494 128.203C32.4067 127.943 32.2507 127.653 32.1814 127.332C32.112 127.003 32.1034 126.643 32.1554 126.253C32.216 125.759 32.333 125.356 32.5064 125.044C32.6797 124.723 32.9094 124.481 33.1954 124.316C33.49 124.143 33.841 124.026 34.2484 123.965C34.6644 123.896 35.1367 123.861 35.6654 123.861ZM42.9071 126.409C43.6957 126.409 44.3024 126.496 44.7271 126.669C45.1604 126.834 45.4507 127.085 45.5981 127.423C45.7454 127.752 45.7801 128.16 45.7021 128.645C45.6414 129.044 45.5071 129.36 45.2991 129.594C45.0997 129.819 44.8224 129.988 44.4671 130.101C44.1117 130.214 43.6611 130.292 43.1151 130.335L39.8391 130.608L39.9821 129.542L42.7381 129.269C42.9721 129.243 43.1627 129.208 43.3101 129.165C43.4661 129.113 43.5874 129.035 43.6741 128.931C43.7607 128.818 43.8171 128.662 43.8431 128.463C43.8777 128.255 43.8647 128.099 43.8041 127.995C43.7434 127.891 43.6351 127.826 43.4791 127.8C43.3231 127.765 43.1151 127.752 42.8551 127.761C42.5864 127.761 42.3611 127.787 42.1791 127.839C41.9971 127.891 41.8454 127.986 41.7241 128.125C41.6027 128.255 41.5031 128.446 41.4251 128.697C41.3471 128.94 41.2734 129.256 41.2041 129.646C41.1174 130.209 41.1044 130.634 41.1651 130.92C41.2257 131.206 41.3601 131.397 41.5681 131.492C41.7761 131.587 42.0664 131.635 42.4391 131.635C42.6471 131.635 42.8984 131.631 43.1931 131.622C43.4877 131.605 43.7867 131.587 44.0901 131.57C44.4021 131.544 44.6837 131.518 44.9351 131.492L45.0651 132.688C44.8051 132.801 44.5104 132.892 44.1811 132.961C43.8517 133.03 43.5181 133.078 43.1801 133.104C42.8421 133.139 42.5257 133.156 42.2311 133.156C41.3731 133.156 40.7057 133.026 40.2291 132.766C39.7611 132.506 39.4491 132.12 39.2931 131.609C39.1371 131.089 39.1024 130.452 39.1891 129.698C39.2671 129.031 39.3971 128.485 39.5791 128.06C39.7697 127.635 40.0124 127.306 40.3071 127.072C40.6104 126.829 40.9787 126.66 41.4121 126.565C41.8454 126.461 42.3437 126.409 42.9071 126.409ZM51.519 126.656L53.417 126.773L52.624 132.35C52.5373 132.991 52.3856 133.524 52.169 133.949C51.9523 134.382 51.675 134.725 51.337 134.976C51.0076 135.236 50.622 135.418 50.18 135.522C49.7466 135.626 49.27 135.682 48.75 135.691C48.6026 135.691 48.3773 135.687 48.074 135.678C47.7793 135.669 47.463 135.639 47.125 135.587C46.787 135.535 46.4836 135.461 46.215 135.366L46.332 134.261C46.488 134.261 46.644 134.261 46.8 134.261C46.9646 134.27 47.1553 134.274 47.372 134.274C47.5886 134.274 47.8573 134.27 48.178 134.261C48.7933 134.252 49.322 134.157 49.764 133.975C50.2146 133.793 50.5223 133.468 50.687 133C50.791 132.731 50.869 132.471 50.921 132.22C50.9816 131.969 51.077 131.73 51.207 131.505L50.843 131.362L51.519 126.656ZM49.894 126.409C50.3446 126.409 50.791 126.426 51.233 126.461C51.6836 126.496 52.0953 126.543 52.468 126.604C52.8493 126.656 53.1613 126.712 53.404 126.773L52.104 127.813C51.7486 127.796 51.4236 127.787 51.129 127.787C50.843 127.778 50.57 127.774 50.31 127.774C49.9893 127.774 49.725 127.8 49.517 127.852C49.3176 127.904 49.1573 127.999 49.036 128.138C48.9146 128.268 48.815 128.459 48.737 128.71C48.6676 128.953 48.6026 129.273 48.542 129.672C48.4553 130.201 48.412 130.612 48.412 130.907C48.4206 131.193 48.477 131.388 48.581 131.492C48.6936 131.596 48.8583 131.639 49.075 131.622C49.3176 131.605 49.5646 131.527 49.816 131.388C50.0673 131.241 50.3186 131.041 50.57 130.79C50.8213 130.539 51.0683 130.248 51.311 129.919L51.649 130.53C51.4756 131.033 51.2286 131.475 50.908 131.856C50.5873 132.229 50.2103 132.523 49.777 132.74C49.3436 132.957 48.867 133.074 48.347 133.091C47.8096 133.1 47.3893 132.987 47.086 132.753C46.7913 132.51 46.605 132.133 46.527 131.622C46.449 131.102 46.4706 130.448 46.592 129.659C46.7046 128.914 46.8563 128.324 47.047 127.891C47.2376 127.458 47.4673 127.137 47.736 126.929C48.0133 126.712 48.3296 126.574 48.685 126.513C49.049 126.444 49.452 126.409 49.894 126.409ZM58.0538 126.409C58.2791 126.409 58.5305 126.422 58.8078 126.448C59.0938 126.465 59.3798 126.491 59.6658 126.526C59.9605 126.561 60.2335 126.6 60.4848 126.643C60.7448 126.686 60.9571 126.73 61.1218 126.773L59.8088 127.813C59.4621 127.796 59.1458 127.787 58.8598 127.787C58.5738 127.778 58.3051 127.774 58.0538 127.774C57.7678 127.774 57.5251 127.796 57.3258 127.839C57.1265 127.882 56.9618 127.969 56.8318 128.099C56.7018 128.22 56.5935 128.407 56.5068 128.658C56.4201 128.909 56.3465 129.247 56.2858 129.672C56.2078 130.209 56.1645 130.621 56.1558 130.907C56.1558 131.184 56.2078 131.375 56.3118 131.479C56.4158 131.583 56.5805 131.631 56.8058 131.622C57.0398 131.613 57.2825 131.535 57.5338 131.388C57.7938 131.241 58.0495 131.041 58.3008 130.79C58.5521 130.53 58.7948 130.24 59.0288 129.919L59.3668 130.543C59.1935 131.054 58.9465 131.505 58.6258 131.895C58.3138 132.276 57.9455 132.575 57.5208 132.792C57.0961 133.009 56.6238 133.13 56.1038 133.156C55.5405 133.182 55.1071 133.069 54.8038 132.818C54.5091 132.567 54.3271 132.177 54.2578 131.648C54.1885 131.119 54.2145 130.456 54.3358 129.659C54.4485 128.922 54.6045 128.337 54.8038 127.904C55.0118 127.462 55.2718 127.137 55.5838 126.929C55.8958 126.712 56.2555 126.574 56.6628 126.513C57.0788 126.444 57.5425 126.409 58.0538 126.409ZM59.2238 126.656L61.1218 126.773L60.2508 133H58.7558L58.7818 131.544L58.5478 131.388L59.2238 126.656ZM69.3845 123.874C69.8092 123.874 70.1732 123.887 70.4765 123.913C70.7798 123.93 71.0572 123.965 71.3085 124.017C71.5685 124.06 71.8285 124.121 72.0885 124.199L71.8285 125.642C71.5512 125.625 71.2868 125.612 71.0355 125.603C70.7928 125.594 70.5372 125.59 70.2685 125.59C69.9998 125.581 69.6792 125.577 69.3065 125.577C68.9685 125.577 68.6825 125.62 68.4485 125.707C68.2145 125.785 68.0108 125.932 67.8375 126.149C67.6728 126.357 67.5342 126.66 67.4215 127.059C67.3088 127.449 67.2135 127.96 67.1355 128.593C67.0315 129.338 66.9925 129.919 67.0185 130.335C67.0532 130.751 67.1745 131.041 67.3825 131.206C67.5992 131.371 67.9285 131.453 68.3705 131.453C68.9858 131.453 69.4928 131.444 69.8915 131.427C70.2988 131.401 70.6975 131.371 71.0875 131.336L71.1785 132.805C70.7452 132.926 70.3118 133.013 69.8785 133.065C69.4452 133.126 68.9208 133.156 68.3055 133.156C67.3782 133.156 66.6458 133 66.1085 132.688C65.5798 132.376 65.2332 131.878 65.0685 131.193C64.9038 130.5 64.8995 129.581 65.0555 128.437C65.1855 127.562 65.3545 126.829 65.5625 126.24C65.7705 125.651 66.0392 125.183 66.3685 124.836C66.6978 124.489 67.1095 124.242 67.6035 124.095C68.0975 123.948 68.6912 123.874 69.3845 123.874ZM76.885 123.9C77.8297 123.9 78.5793 124.043 79.134 124.329C79.6973 124.606 80.0743 125.087 80.265 125.772C80.4557 126.448 80.4643 127.388 80.291 128.593C80.161 129.52 79.9877 130.283 79.771 130.881C79.5543 131.47 79.277 131.93 78.939 132.259C78.601 132.58 78.1763 132.805 77.665 132.935C77.1537 133.065 76.5427 133.13 75.832 133.13C75.208 133.13 74.6013 133.117 74.012 133.091C73.4227 133.065 72.8593 133.035 72.322 133L73.297 131.531C73.6177 131.548 74.012 131.566 74.48 131.583C74.948 131.592 75.39 131.596 75.806 131.596C76.17 131.596 76.482 131.557 76.742 131.479C77.0107 131.392 77.236 131.236 77.418 131.011C77.6087 130.786 77.7647 130.469 77.886 130.062C78.016 129.646 78.1243 129.104 78.211 128.437C78.2977 127.822 78.341 127.319 78.341 126.929C78.341 126.53 78.289 126.223 78.185 126.006C78.0897 125.789 77.9293 125.638 77.704 125.551C77.4787 125.464 77.184 125.421 76.82 125.421C76.5513 125.421 76.2697 125.425 75.975 125.434C75.6803 125.434 75.39 125.434 75.104 125.434C74.8267 125.434 74.571 125.434 74.337 125.434L73.583 124.03C73.895 124.004 74.2373 123.982 74.61 123.965C74.9827 123.939 75.364 123.922 75.754 123.913C76.144 123.904 76.521 123.9 76.885 123.9ZM75.572 124.03L74.311 133H72.322L73.583 124.03H75.572Z" fill="white"/>
</g>
<defs>
<clipPath id="clip0_117_273">
<rect width="112" height="160" rx="6" fill="white"/>
</clipPath>
</defs>
</svg>
