<svg width="112" height="160" viewBox="0 0 112 160" fill="none" xmlns="http://www.w3.org/2000/svg">
<g clip-path="url(#clip0_1_135)">
<path d="M1 7C1 3.6863 3.68629 1 7 1H105C108.314 1 111 3.68629 111 7V152C111 155.314 108.314 158 105 158H7C3.68629 158 1 155.314 1 152V7Z" fill="#393B4E"/>
<path fill-rule="evenodd" clip-rule="evenodd" d="M7 0C3.13401 0 0 3.13401 0 7V153C0 156.866 3.13401 160 7 160H105C108.866 160 112 156.866 112 153V7C112 3.13401 108.866 0 105 0H7ZM7 1C3.68629 1 1 3.68629 1 7C1 7 1 7 1 7V152C1 152.165 1.00666 152.328 1.01973 152.49C1.2691 155.575 3.85131 158 7 158H105C108.149 158 110.731 155.575 110.98 152.49C110.993 152.328 111 152.165 111 152V7C111 3.68629 108.314 1 105 1H7Z" fill="black" fill-opacity="0.3"/>
<path d="M82 90C76 90 67 82 56 82C45 82 38 90 31 90C24 90 20 85 20 78C20 64 38 53 56 53C74 53 92 64 92 78.5C92 85 88 90 82 90Z" fill="#4F4F4F"/>
<path d="M56 83.5C61.1529 83.5 65.899 85.3746 70.2514 87.3642C70.8805 87.6518 71.5079 87.9449 72.1288 88.2349C73.6095 88.9267 75.0528 89.6009 76.392 90.1411C78.2926 90.9077 80.2009 91.5 82 91.5C89.05 91.5 93.5 85.5879 93.5 78.5C93.5 70.5807 88.5872 63.7993 81.59 59.0697C74.5792 54.331 65.2837 51.5 56 51.5C46.7164 51.5 37.4246 54.3308 30.418 59.0019C23.4332 63.6584 18.5 70.3129 18.5 78C18.5 81.776 19.5802 85.158 21.7502 87.6174C23.9409 90.1001 27.1186 91.5 31 91.5C33.0308 91.5 34.99 90.9206 36.886 90.136C38.3495 89.5305 39.8619 88.7633 41.38 87.9933C41.8101 87.7751 42.2407 87.5567 42.6708 87.3416C46.6387 85.3577 50.8717 83.5 56 83.5Z" stroke="white" stroke-opacity="0.3" stroke-width="3"/>
<path d="M56 82.5C61.3843 82.5 66.2997 84.4582 70.6671 86.4547C71.3154 86.7511 71.9538 87.0493 72.5803 87.342C74.0493 88.0283 75.453 88.684 76.7661 89.2137C78.6392 89.9692 80.4003 90.5 82 90.5C88.35 90.5 92.5 85.1959 92.5 78.5C92.5 71.0269 87.8624 64.5164 81.03 59.8982C74.1931 55.277 65.0946 52.5 56 52.5C46.9055 52.5 37.8082 55.277 30.9727 59.834C24.1444 64.3861 19.5 70.771 19.5 78C19.5 81.592 20.5267 84.7193 22.5001 86.9558C24.4803 89.2 27.3729 90.5 31 90.5C32.8436 90.5 34.6633 89.9735 36.5037 89.212C37.9279 88.6227 39.3934 87.8794 40.9055 87.1125C41.3409 86.8917 41.7803 86.6689 42.2236 86.4472C46.2129 84.4526 50.6239 82.5 56 82.5Z" fill="#4F4F4F" stroke="#333333"/>
<ellipse cx="74.9999" cy="71.4999" rx="13" ry="10.5" transform="rotate(45 74.9999 71.4999)" fill="#4F4F4F" stroke="#333333" stroke-width="2"/>
<circle cx="66" cy="71" r="3" fill="#BDBDBD"/>
<circle cx="69" cy="77" r="3" fill="#828282"/>
<circle cx="73" cy="68" r="3" fill="#BDBDBD"/>
<circle cx="76" cy="74" r="3" fill="#828282"/>
<circle cx="80" cy="65" r="3" fill="#BDBDBD"/>
<circle cx="83" cy="71" r="3" fill="#828282"/>
<ellipse cx="37.0001" cy="71.4999" rx="13" ry="10.5" transform="rotate(-45 37.0001 71.4999)" fill="#4F4F4F" stroke="#333333" stroke-width="2"/>
<circle cx="37" cy="71" r="8" fill="#828282"/>
<path fill-rule="evenodd" clip-rule="evenodd" d="M36 64C35.4477 64 35 64.4477 35 65V69H31C30.4477 69 30 69.4477 30 70V72C30 72.5522 30.4477 73 31 73H35V77C35 77.5522 35.4477 78 36 78H38C38.5523 78 39 77.5522 39 77V73H43C43.5523 73 44 72.5522 44 72V70C44 69.4477 43.5523 69 43 69H39V65C39 64.4477 38.5523 64 38 64H36ZM39 69H35V73H39V69Z" fill="#BDBDBD"/>
<rect x="53" y="69" width="6" height="3" rx="1.5" fill="#BB6BD9"/>
<path d="M32.3519 123.861C32.8199 123.861 33.3095 123.891 33.8209 123.952C34.3322 124.004 34.8219 124.095 35.2899 124.225L35.1079 125.538C34.8306 125.529 34.5315 125.525 34.2109 125.525C33.8989 125.516 33.5782 125.512 33.2489 125.512C32.9195 125.503 32.5859 125.499 32.2479 125.499C32.0312 125.499 31.8362 125.508 31.6629 125.525C31.4982 125.534 31.3552 125.564 31.2339 125.616C31.1212 125.668 31.0302 125.755 30.9609 125.876C30.8915 125.989 30.8395 126.145 30.8049 126.344C30.7875 126.517 30.7919 126.665 30.8179 126.786C30.8525 126.899 30.9262 126.998 31.0389 127.085C31.1515 127.163 31.3205 127.25 31.5459 127.345L33.1709 128.021C33.6475 128.22 34.0072 128.441 34.2499 128.684C34.4925 128.927 34.6485 129.213 34.7179 129.542C34.7872 129.863 34.7915 130.244 34.7309 130.686C34.6529 131.353 34.4839 131.869 34.2239 132.233C33.9639 132.588 33.5912 132.835 33.1059 132.974C32.6205 133.104 31.9835 133.169 31.1949 133.169C30.8742 133.169 30.4322 133.143 29.8689 133.091C29.3142 133.048 28.7162 132.957 28.0749 132.818L28.2699 131.414C28.7812 131.423 29.2232 131.436 29.5959 131.453C29.9685 131.462 30.2805 131.47 30.5319 131.479C30.7832 131.479 30.9825 131.479 31.1299 131.479C31.5025 131.479 31.8015 131.457 32.0269 131.414C32.2522 131.362 32.4212 131.275 32.5339 131.154C32.6552 131.024 32.7332 130.833 32.7679 130.582C32.7939 130.391 32.7895 130.24 32.7549 130.127C32.7289 130.014 32.6595 129.923 32.5469 129.854C32.4429 129.776 32.2955 129.698 32.1049 129.62L30.3889 128.879C29.9295 128.68 29.5785 128.454 29.3359 128.203C29.0932 127.943 28.9372 127.653 28.8679 127.332C28.7985 127.003 28.7899 126.643 28.8419 126.253C28.9025 125.759 29.0195 125.356 29.1929 125.044C29.3662 124.723 29.5959 124.481 29.8819 124.316C30.1765 124.143 30.5275 124.026 30.9349 123.965C31.3509 123.896 31.8232 123.861 32.3519 123.861ZM39.5936 126.409C40.3823 126.409 40.9889 126.496 41.4136 126.669C41.8469 126.834 42.1373 127.085 42.2846 127.423C42.4319 127.752 42.4666 128.16 42.3886 128.645C42.3279 129.044 42.1936 129.36 41.9856 129.594C41.7863 129.819 41.5089 129.988 41.1536 130.101C40.7983 130.214 40.3476 130.292 39.8016 130.335L36.5256 130.608L36.6686 129.542L39.4246 129.269C39.6586 129.243 39.8493 129.208 39.9966 129.165C40.1526 129.113 40.2739 129.035 40.3606 128.931C40.4473 128.818 40.5036 128.662 40.5296 128.463C40.5643 128.255 40.5513 128.099 40.4906 127.995C40.4299 127.891 40.3216 127.826 40.1656 127.8C40.0096 127.765 39.8016 127.752 39.5416 127.761C39.2729 127.761 39.0476 127.787 38.8656 127.839C38.6836 127.891 38.5319 127.986 38.4106 128.125C38.2893 128.255 38.1896 128.446 38.1116 128.697C38.0336 128.94 37.9599 129.256 37.8906 129.646C37.8039 130.209 37.7909 130.634 37.8516 130.92C37.9123 131.206 38.0466 131.397 38.2546 131.492C38.4626 131.587 38.7529 131.635 39.1256 131.635C39.3336 131.635 39.5849 131.631 39.8796 131.622C40.1743 131.605 40.4733 131.587 40.7766 131.57C41.0886 131.544 41.3703 131.518 41.6216 131.492L41.7516 132.688C41.4916 132.801 41.1969 132.892 40.8676 132.961C40.5383 133.03 40.2046 133.078 39.8666 133.104C39.5286 133.139 39.2123 133.156 38.9176 133.156C38.0596 133.156 37.3923 133.026 36.9156 132.766C36.4476 132.506 36.1356 132.12 35.9796 131.609C35.8236 131.089 35.7889 130.452 35.8756 129.698C35.9536 129.031 36.0836 128.485 36.2656 128.06C36.4563 127.635 36.6989 127.306 36.9936 127.072C37.2969 126.829 37.6653 126.66 38.0986 126.565C38.5319 126.461 39.0303 126.409 39.5936 126.409ZM48.2055 126.656L50.1035 126.773L49.3105 132.35C49.2238 132.991 49.0722 133.524 48.8555 133.949C48.6388 134.382 48.3615 134.725 48.0235 134.976C47.6942 135.236 47.3085 135.418 46.8665 135.522C46.4332 135.626 45.9565 135.682 45.4365 135.691C45.2892 135.691 45.0638 135.687 44.7605 135.678C44.4658 135.669 44.1495 135.639 43.8115 135.587C43.4735 135.535 43.1702 135.461 42.9015 135.366L43.0185 134.261C43.1745 134.261 43.3305 134.261 43.4865 134.261C43.6512 134.27 43.8418 134.274 44.0585 134.274C44.2752 134.274 44.5438 134.27 44.8645 134.261C45.4798 134.252 46.0085 134.157 46.4505 133.975C46.9012 133.793 47.2088 133.468 47.3735 133C47.4775 132.731 47.5555 132.471 47.6075 132.22C47.6682 131.969 47.7635 131.73 47.8935 131.505L47.5295 131.362L48.2055 126.656ZM46.5805 126.409C47.0312 126.409 47.4775 126.426 47.9195 126.461C48.3702 126.496 48.7818 126.543 49.1545 126.604C49.5358 126.656 49.8478 126.712 50.0905 126.773L48.7905 127.813C48.4352 127.796 48.1102 127.787 47.8155 127.787C47.5295 127.778 47.2565 127.774 46.9965 127.774C46.6758 127.774 46.4115 127.8 46.2035 127.852C46.0042 127.904 45.8438 127.999 45.7225 128.138C45.6012 128.268 45.5015 128.459 45.4235 128.71C45.3542 128.953 45.2892 129.273 45.2285 129.672C45.1418 130.201 45.0985 130.612 45.0985 130.907C45.1072 131.193 45.1635 131.388 45.2675 131.492C45.3802 131.596 45.5448 131.639 45.7615 131.622C46.0042 131.605 46.2512 131.527 46.5025 131.388C46.7538 131.241 47.0052 131.041 47.2565 130.79C47.5078 130.539 47.7548 130.248 47.9975 129.919L48.3355 130.53C48.1622 131.033 47.9152 131.475 47.5945 131.856C47.2738 132.229 46.8968 132.523 46.4635 132.74C46.0302 132.957 45.5535 133.074 45.0335 133.091C44.4962 133.1 44.0758 132.987 43.7725 132.753C43.4778 132.51 43.2915 132.133 43.2135 131.622C43.1355 131.102 43.1572 130.448 43.2785 129.659C43.3912 128.914 43.5428 128.324 43.7335 127.891C43.9242 127.458 44.1538 127.137 44.4225 126.929C44.6998 126.712 45.0162 126.574 45.3715 126.513C45.7355 126.444 46.1385 126.409 46.5805 126.409ZM54.7403 126.409C54.9657 126.409 55.217 126.422 55.4943 126.448C55.7803 126.465 56.0663 126.491 56.3523 126.526C56.647 126.561 56.92 126.6 57.1713 126.643C57.4313 126.686 57.6437 126.73 57.8083 126.773L56.4953 127.813C56.1487 127.796 55.8323 127.787 55.5463 127.787C55.2603 127.778 54.9917 127.774 54.7403 127.774C54.4543 127.774 54.2117 127.796 54.0123 127.839C53.813 127.882 53.6483 127.969 53.5183 128.099C53.3883 128.22 53.28 128.407 53.1933 128.658C53.1067 128.909 53.033 129.247 52.9723 129.672C52.8943 130.209 52.851 130.621 52.8423 130.907C52.8423 131.184 52.8943 131.375 52.9983 131.479C53.1023 131.583 53.267 131.631 53.4923 131.622C53.7263 131.613 53.969 131.535 54.2203 131.388C54.4803 131.241 54.736 131.041 54.9873 130.79C55.2387 130.53 55.4813 130.24 55.7153 129.919L56.0533 130.543C55.88 131.054 55.633 131.505 55.3123 131.895C55.0003 132.276 54.632 132.575 54.2073 132.792C53.7827 133.009 53.3103 133.13 52.7903 133.156C52.227 133.182 51.7937 133.069 51.4903 132.818C51.1957 132.567 51.0137 132.177 50.9443 131.648C50.875 131.119 50.901 130.456 51.0223 129.659C51.135 128.922 51.291 128.337 51.4903 127.904C51.6983 127.462 51.9583 127.137 52.2703 126.929C52.5823 126.712 52.942 126.574 53.3493 126.513C53.7653 126.444 54.229 126.409 54.7403 126.409ZM55.9103 126.656L57.8083 126.773L56.9373 133H55.4423L55.4683 131.544L55.2343 131.388L55.9103 126.656ZM65.135 123.848C66.0884 123.848 66.7904 123.991 67.241 124.277C67.6917 124.554 67.917 125.027 67.917 125.694C67.917 126.119 67.852 126.517 67.722 126.89C67.6007 127.263 67.41 127.57 67.15 127.813C66.8987 128.047 66.5824 128.186 66.201 128.229L66.188 128.281C66.682 128.359 67.0417 128.537 67.267 128.814C67.4924 129.091 67.605 129.455 67.605 129.906C67.605 130.643 67.4577 131.249 67.163 131.726C66.8684 132.203 66.4437 132.562 65.889 132.805C65.343 133.048 64.6757 133.173 63.887 133.182C63.471 133.182 63.0204 133.156 62.535 133.104C62.0497 133.061 61.5687 133 61.092 132.922L61.248 131.505C61.5947 131.522 61.9024 131.54 62.171 131.557C62.4397 131.574 62.691 131.587 62.925 131.596C63.1677 131.596 63.4104 131.592 63.653 131.583C64.303 131.557 64.797 131.397 65.135 131.102C65.4817 130.799 65.655 130.361 65.655 129.789C65.655 129.624 65.616 129.486 65.538 129.373C65.4687 129.252 65.3517 129.156 65.187 129.087C65.0224 129.018 64.8014 128.983 64.524 128.983L62.743 128.97L62.912 127.683H64.641C65.1524 127.674 65.512 127.544 65.72 127.293C65.928 127.042 66.032 126.652 66.032 126.123C66.032 125.863 65.9497 125.685 65.785 125.59C65.6204 125.486 65.2954 125.434 64.81 125.434C64.4027 125.434 63.978 125.443 63.536 125.46C63.1027 125.469 62.7257 125.477 62.405 125.486L62.379 124.082C62.8904 124.004 63.3844 123.948 63.861 123.913C64.3464 123.87 64.771 123.848 65.135 123.848ZM72.5651 123.874C73.1631 123.874 73.6745 123.922 74.0991 124.017C74.5325 124.112 74.8618 124.29 75.0871 124.55C75.3211 124.801 75.4381 125.17 75.4381 125.655C75.4381 126.097 75.3645 126.504 75.2171 126.877C75.0698 127.25 74.8575 127.601 74.5801 127.93C74.3115 128.259 73.9908 128.593 73.6181 128.931L70.9531 131.388C71.1785 131.336 71.3995 131.301 71.6161 131.284C71.8415 131.267 72.0581 131.258 72.2661 131.258H74.9831L74.7491 133H68.3401L68.4961 131.895C68.5221 131.739 68.5525 131.596 68.5871 131.466C68.6305 131.336 68.7085 131.215 68.8211 131.102L71.4081 128.71C71.7548 128.389 72.0798 128.077 72.3831 127.774C72.6951 127.462 72.9465 127.159 73.1371 126.864C73.3365 126.569 73.4361 126.296 73.4361 126.045C73.4361 125.898 73.3928 125.789 73.3061 125.72C73.2281 125.651 73.1111 125.607 72.9551 125.59C72.7991 125.564 72.6085 125.551 72.3831 125.551C72.0711 125.551 71.7765 125.555 71.4991 125.564C71.2305 125.564 70.9445 125.573 70.6411 125.59C70.3378 125.607 69.9868 125.633 69.5881 125.668L69.6011 124.173C70.0518 124.086 70.4548 124.021 70.8101 123.978C71.1655 123.935 71.4861 123.909 71.7721 123.9C72.0668 123.883 72.3311 123.874 72.5651 123.874ZM78.795 124.03L80.277 128.58L77.534 133H75.376L78.392 128.398L76.845 124.03H78.795ZM81.122 127.761L80.953 128.983H78.912L79.081 127.761H81.122ZM84.567 124.03L81.746 128.398L83.449 133H81.473L79.9 128.177L82.5 124.03H84.567Z" fill="white"/>
</g>
<defs>
<clipPath id="clip0_1_135">
<rect width="112" height="160" rx="6" fill="white"/>
</clipPath>
</defs>
</svg>
