<svg width="112" height="160" viewBox="0 0 112 160" fill="none" xmlns="http://www.w3.org/2000/svg">
<g clip-path="url(#clip0_113_1813)">
<path d="M1 7C1 3.6863 3.68629 1 7 1H105C108.314 1 111 3.68629 111 7V152C111 155.314 108.314 158 105 158H7C3.68629 158 1 155.314 1 152V7Z" fill="#393B4E"/>
<path fill-rule="evenodd" clip-rule="evenodd" d="M7 0C3.13401 0 0 3.13401 0 7V153C0 156.866 3.13401 160 7 160H105C108.866 160 112 156.866 112 153V7C112 3.13401 108.866 0 105 0H7ZM7 1C3.68629 1 1 3.68629 1 7C1 7 1 7 1 7V152C1 152.165 1.00666 152.328 1.01973 152.49C1.2691 155.575 3.85131 158 7 158H105C108.149 158 110.731 155.575 110.98 152.49C110.993 152.328 111 152.165 111 152V7C111 3.68629 108.314 1 105 1H7Z" fill="black" fill-opacity="0.3"/>
<path d="M45.0002 57.5C44.5441 56.8928 43.8179 56.5 43 56.5H37C34.2651 56.5 31.6727 57.1284 29.3632 58.2502C28.437 58.7 27.8391 59.5229 27.608 60.4322C23.3156 63.4089 20.5 68.3751 20.5 74C20.5 83.1127 27.8873 90.5 37 90.5C41.1153 90.5 44.8813 88.9916 47.7707 86.5H64.2293C67.1187 88.9916 70.8847 90.5 75 90.5C84.1127 90.5 91.5 83.1127 91.5 74C91.5 68.3751 88.6844 63.4089 84.392 60.4322C84.1609 59.5229 83.563 58.7 82.6368 58.2502L81.9851 59.592L82.6368 58.2502C80.3273 57.1284 77.7349 56.5 75 56.5H69C68.1821 56.5 67.4559 56.8928 66.9998 57.5H45.0002Z" stroke="white" stroke-opacity="0.3" stroke-width="3"/>
<path d="M44.4146 58.5C44.2087 57.9174 43.6531 57.5 43 57.5H37C34.4197 57.5 31.9764 58.0926 29.8001 59.1497C29.0517 59.5132 28.5983 60.2413 28.5142 61.0272C24.2911 63.7951 21.5 68.5714 21.5 74C21.5 82.5604 28.4396 89.5 37 89.5C40.9981 89.5 44.6436 87.9856 47.3925 85.5H64.6075C67.3564 87.9856 71.0019 89.5 75 89.5C83.5604 89.5 90.5 82.5604 90.5 74C90.5 68.5714 87.7089 63.7951 83.4858 61.0272C83.4017 60.2413 82.9483 59.5132 82.1999 59.1497C80.0236 58.0926 77.5803 57.5 75 57.5H69C68.3469 57.5 67.7913 57.9174 67.5854 58.5H44.4146Z" stroke="#333333"/>
<path d="M37 89C40.9382 89 44.5219 87.4823 47.1981 85H64.8019C67.4781 87.4823 71.0618 89 75 89C83.2843 89 90 82.2843 90 74C90 65.7157 83.2843 59 75 59H37C28.7157 59 22 65.7157 22 74C22 82.2843 28.7157 89 37 89Z" fill="#E0E0E0"/>
<circle cx="37" cy="74" r="9.5" stroke="black" stroke-opacity="0.2"/>
<path d="M35.5 68C35.2239 68 35 68.2239 35 68.5V72H31.5C31.2239 72 31 72.2239 31 72.5V75.5C31 75.7761 31.2239 76 31.5 76H35V79.5C35 79.7761 35.2239 80 35.5 80H38.5C38.7761 80 39 79.7761 39 79.5V76H42.5C42.7761 76 43 75.7761 43 75.5V72.5C43 72.2239 42.7761 72 42.5 72H39V68.5C39 68.2239 38.7761 68 38.5 68H35.5Z" fill="#333333"/>
<circle cx="37" cy="74" r="1" fill="#4F4F4F"/>
<circle cx="75" cy="74" r="12" fill="#767A8F"/>
<path d="M69 74L75 69M75 79L81 74" stroke="#E0E0E0" stroke-width="6" stroke-linecap="round" stroke-linejoin="round"/>
<circle cx="69" cy="74" r="2" fill="#27AE60"/>
<circle cx="81" cy="74" r="2" fill="#EB5757"/>
<circle cx="75" cy="69" r="2" fill="#18ADDC"/>
<circle cx="75" cy="79" r="2" fill="#F3BE54"/>
<path d="M49.234 79.5712C48.879 79.1481 48.9342 78.5173 49.3572 78.1623L51.6554 76.234C52.0784 75.879 52.7092 75.9342 53.0642 76.3572C53.4192 76.7803 53.364 77.4111 52.9409 77.7661L50.6428 79.6944C50.2197 80.0494 49.589 79.9942 49.234 79.5712Z" fill="#333333"/>
<path d="M57.2341 79.5712C56.8791 79.1481 56.9343 78.5173 57.3574 78.1623L59.6555 76.234C60.0786 75.879 60.7093 75.9342 61.0643 76.3572C61.4193 76.7803 61.3641 77.4111 60.9411 77.7661L58.6429 79.6944C58.2199 80.0494 57.5891 79.9942 57.2341 79.5712Z" fill="#333333"/>
<path d="M44 59C44 58.4477 43.5523 58 43 58H37C34.497 58 32.1283 58.5747 30.0185 59.5995C29.3763 59.9114 29 60.5802 29 61.2941V61.3091C31.3154 59.8465 34.0588 59 37 59H44Z" fill="#BDBDBD"/>
<path d="M68 59C68 58.4477 68.4477 58 69 58H75C77.503 58 79.8717 58.5747 81.9815 59.5995C82.6237 59.9114 83 60.5802 83 61.2941V61.3091C80.6846 59.8465 77.9412 59 75 59H68Z" fill="#BDBDBD"/>
<path d="M13.6263 123.861C14.0943 123.861 14.584 123.891 15.0953 123.952C15.6066 124.004 16.0963 124.095 16.5643 124.225L16.3823 125.538C16.105 125.529 15.806 125.525 15.4853 125.525C15.1733 125.516 14.8526 125.512 14.5233 125.512C14.194 125.503 13.8603 125.499 13.5223 125.499C13.3056 125.499 13.1106 125.508 12.9373 125.525C12.7726 125.534 12.6296 125.564 12.5083 125.616C12.3956 125.668 12.3046 125.755 12.2353 125.876C12.166 125.989 12.114 126.145 12.0793 126.344C12.062 126.517 12.0663 126.665 12.0923 126.786C12.127 126.899 12.2006 126.998 12.3133 127.085C12.426 127.163 12.595 127.25 12.8203 127.345L14.4453 128.021C14.922 128.22 15.2816 128.441 15.5243 128.684C15.767 128.927 15.923 129.213 15.9923 129.542C16.0616 129.863 16.066 130.244 16.0053 130.686C15.9273 131.353 15.7583 131.869 15.4983 132.233C15.2383 132.588 14.8656 132.835 14.3803 132.974C13.895 133.104 13.258 133.169 12.4693 133.169C12.1486 133.169 11.7066 133.143 11.1433 133.091C10.5886 133.048 9.99063 132.957 9.3493 132.818L9.5443 131.414C10.0556 131.423 10.4976 131.436 10.8703 131.453C11.243 131.462 11.555 131.47 11.8063 131.479C12.0576 131.479 12.257 131.479 12.4043 131.479C12.777 131.479 13.076 131.457 13.3013 131.414C13.5266 131.362 13.6956 131.275 13.8083 131.154C13.9296 131.024 14.0076 130.833 14.0423 130.582C14.0683 130.391 14.064 130.24 14.0293 130.127C14.0033 130.014 13.934 129.923 13.8213 129.854C13.7173 129.776 13.57 129.698 13.3793 129.62L11.6633 128.879C11.204 128.68 10.853 128.454 10.6103 128.203C10.3676 127.943 10.2116 127.653 10.1423 127.332C10.073 127.003 10.0643 126.643 10.1163 126.253C10.177 125.759 10.294 125.356 10.4673 125.044C10.6406 124.723 10.8703 124.481 11.1563 124.316C11.451 124.143 11.802 124.026 12.2093 123.965C12.6253 123.896 13.0976 123.861 13.6263 123.861ZM19.737 126.578L19.126 130.829C19.0913 131.098 19.1173 131.284 19.204 131.388C19.2993 131.492 19.451 131.544 19.659 131.544C19.9623 131.544 20.257 131.457 20.543 131.284C20.8377 131.111 21.206 130.833 21.648 130.452L21.934 131.414C21.3707 132.012 20.8377 132.458 20.335 132.753C19.8323 133.039 19.321 133.182 18.801 133.182C18.177 133.182 17.722 133.022 17.436 132.701C17.1587 132.372 17.0633 131.921 17.15 131.349L17.813 126.578H19.737ZM23.962 126.578L23.078 133H21.57L21.596 131.258L21.427 131.089L22.051 126.578H23.962ZM29.732 126.422C30.226 126.422 30.6203 126.543 30.915 126.786C31.2096 127.029 31.4003 127.406 31.487 127.917C31.5823 128.42 31.5736 129.087 31.461 129.919C31.3656 130.612 31.227 131.176 31.045 131.609C30.8716 132.034 30.655 132.359 30.395 132.584C30.1436 132.809 29.849 132.965 29.511 133.052C29.1816 133.139 28.809 133.182 28.393 133.182C28.185 133.182 27.9466 133.169 27.678 133.143C27.418 133.126 27.1493 133.095 26.872 133.052C26.6033 133.017 26.3433 132.97 26.092 132.909C25.8406 132.848 25.624 132.779 25.442 132.701L25.728 131.856C26.118 131.865 26.4733 131.873 26.794 131.882C27.1146 131.891 27.431 131.895 27.743 131.895C28.0636 131.895 28.3236 131.869 28.523 131.817C28.731 131.765 28.8913 131.67 29.004 131.531C29.1253 131.392 29.2206 131.193 29.29 130.933C29.368 130.673 29.4373 130.335 29.498 129.919C29.576 129.39 29.6106 128.987 29.602 128.71C29.5933 128.424 29.537 128.229 29.433 128.125C29.3376 128.012 29.186 127.956 28.978 127.956C28.796 127.956 28.5836 128.012 28.341 128.125C28.107 128.229 27.86 128.381 27.6 128.58C27.34 128.771 27.093 128.996 26.859 129.256L26.508 128.463C26.6293 128.272 26.8026 128.064 27.028 127.839C27.2533 127.605 27.509 127.38 27.795 127.163C28.0896 126.946 28.4016 126.769 28.731 126.63C29.069 126.491 29.4026 126.422 29.732 126.422ZM27.054 126.578L27.002 128.125L27.197 128.281L26.625 132.662L26.495 132.87C26.495 133.095 26.4906 133.312 26.482 133.52C26.4733 133.737 26.4473 133.971 26.404 134.222L26.196 135.483H24.272L25.52 126.578H27.054ZM36.2674 126.409C37.0561 126.409 37.6628 126.496 38.0874 126.669C38.5208 126.834 38.8111 127.085 38.9584 127.423C39.1058 127.752 39.1404 128.16 39.0624 128.645C39.0018 129.044 38.8674 129.36 38.6594 129.594C38.4601 129.819 38.1828 129.988 37.8274 130.101C37.4721 130.214 37.0214 130.292 36.4754 130.335L33.1994 130.608L33.3424 129.542L36.0984 129.269C36.3324 129.243 36.5231 129.208 36.6704 129.165C36.8264 129.113 36.9478 129.035 37.0344 128.931C37.1211 128.818 37.1774 128.662 37.2034 128.463C37.2381 128.255 37.2251 128.099 37.1644 127.995C37.1038 127.891 36.9954 127.826 36.8394 127.8C36.6834 127.765 36.4754 127.752 36.2154 127.761C35.9468 127.761 35.7214 127.787 35.5394 127.839C35.3574 127.891 35.2058 127.986 35.0844 128.125C34.9631 128.255 34.8634 128.446 34.7854 128.697C34.7074 128.94 34.6338 129.256 34.5644 129.646C34.4778 130.209 34.4648 130.634 34.5254 130.92C34.5861 131.206 34.7204 131.397 34.9284 131.492C35.1364 131.587 35.4268 131.635 35.7994 131.635C36.0074 131.635 36.2588 131.631 36.5534 131.622C36.8481 131.605 37.1471 131.587 37.4504 131.57C37.7624 131.544 38.0441 131.518 38.2954 131.492L38.4254 132.688C38.1654 132.801 37.8708 132.892 37.5414 132.961C37.2121 133.03 36.8784 133.078 36.5404 133.104C36.2024 133.139 35.8861 133.156 35.5914 133.156C34.7334 133.156 34.0661 133.026 33.5894 132.766C33.1214 132.506 32.8094 132.12 32.6534 131.609C32.4974 131.089 32.4628 130.452 32.5494 129.698C32.6274 129.031 32.7574 128.485 32.9394 128.06C33.1301 127.635 33.3728 127.306 33.6674 127.072C33.9708 126.829 34.3391 126.66 34.7724 126.565C35.2058 126.461 35.7041 126.409 36.2674 126.409ZM42.0843 126.578L42.0973 128.112L42.2663 128.294L41.6163 133H39.6923L40.5893 126.578H42.0843ZM45.2303 126.409L44.8143 128.19H44.3463C44.043 128.19 43.7136 128.259 43.3583 128.398C43.0116 128.528 42.574 128.727 42.0453 128.996L41.9673 127.865C42.4786 127.388 42.977 127.029 43.4623 126.786C43.9476 126.535 44.407 126.409 44.8403 126.409H45.2303ZM50.9642 123.991C51.6749 123.991 52.3899 124 53.1092 124.017C53.8286 124.026 54.4829 124.069 55.0722 124.147L54.8382 125.564H51.6662C51.3889 125.564 51.1852 125.616 51.0552 125.72C50.9252 125.815 50.8429 125.997 50.8082 126.266L49.8592 133H47.8702L48.8712 125.785C48.9579 125.222 49.1876 124.784 49.5602 124.472C49.9329 124.151 50.4009 123.991 50.9642 123.991ZM48.8192 127.813H54.0322L53.8502 129.191H48.6242L48.8192 127.813ZM58.7393 126.409C58.9647 126.409 59.216 126.422 59.4933 126.448C59.7793 126.465 60.0653 126.491 60.3513 126.526C60.646 126.561 60.919 126.6 61.1703 126.643C61.4303 126.686 61.6427 126.73 61.8073 126.773L60.4943 127.813C60.1477 127.796 59.8313 127.787 59.5453 127.787C59.2593 127.778 58.9907 127.774 58.7393 127.774C58.4533 127.774 58.2107 127.796 58.0113 127.839C57.812 127.882 57.6473 127.969 57.5173 128.099C57.3873 128.22 57.279 128.407 57.1923 128.658C57.1057 128.909 57.032 129.247 56.9713 129.672C56.8933 130.209 56.85 130.621 56.8413 130.907C56.8413 131.184 56.8933 131.375 56.9973 131.479C57.1013 131.583 57.266 131.631 57.4913 131.622C57.7253 131.613 57.968 131.535 58.2193 131.388C58.4793 131.241 58.735 131.041 58.9863 130.79C59.2377 130.53 59.4803 130.24 59.7143 129.919L60.0523 130.543C59.879 131.054 59.632 131.505 59.3113 131.895C58.9993 132.276 58.631 132.575 58.2063 132.792C57.7817 133.009 57.3093 133.13 56.7893 133.156C56.226 133.182 55.7927 133.069 55.4893 132.818C55.1947 132.567 55.0127 132.177 54.9433 131.648C54.874 131.119 54.9 130.456 55.0213 129.659C55.134 128.922 55.29 128.337 55.4893 127.904C55.6973 127.462 55.9573 127.137 56.2693 126.929C56.5813 126.712 56.941 126.574 57.3483 126.513C57.7643 126.444 58.228 126.409 58.7393 126.409ZM59.9093 126.656L61.8073 126.773L60.9363 133H59.4413L59.4673 131.544L59.2333 131.388L59.9093 126.656ZM64.8724 126.578L64.8854 128.06L65.0544 128.242L64.3914 133H62.4804L63.3774 126.578H64.8724ZM67.4334 126.409C68.0314 126.409 68.4647 126.569 68.7334 126.89C69.0107 127.211 69.1104 127.657 69.0324 128.229L68.3564 133H66.5104L67.1084 128.749C67.1431 128.489 67.1214 128.307 67.0434 128.203C66.9654 128.09 66.8181 128.034 66.6014 128.034C66.4454 128.034 66.2807 128.069 66.1074 128.138C65.9341 128.207 65.7391 128.32 65.5224 128.476C65.3057 128.623 65.0414 128.831 64.7294 129.1L64.4954 128.138C65.0327 127.54 65.5311 127.102 65.9904 126.825C66.4497 126.548 66.9307 126.409 67.4334 126.409ZM71.4374 126.409C72.0441 126.409 72.4861 126.574 72.7634 126.903C73.0407 127.224 73.1361 127.666 73.0494 128.229L72.3864 133H70.4754L71.0734 128.749C71.1081 128.472 71.0777 128.285 70.9824 128.19C70.8957 128.086 70.7571 128.034 70.5664 128.034C70.4191 128.034 70.2587 128.069 70.0854 128.138C69.9207 128.199 69.7301 128.307 69.5134 128.463C69.3054 128.61 69.0541 128.818 68.7594 129.087L68.5124 128.138C69.0497 127.531 69.5437 127.094 69.9944 126.825C70.4537 126.548 70.9347 126.409 71.4374 126.409ZM76.7535 126.578L75.8565 133H73.9455L74.8425 126.578H76.7535ZM76.5585 123.744C76.7665 123.744 76.9138 123.796 77.0005 123.9C77.0958 124.004 77.1305 124.16 77.1045 124.368L77.0135 125.057C76.9615 125.421 76.7492 125.603 76.3765 125.603H75.5965C75.1805 125.603 74.9942 125.395 75.0375 124.979L75.1415 124.29C75.1762 123.926 75.3842 123.744 75.7655 123.744H76.5585ZM81.1916 126.409C81.5989 126.409 82.0322 126.444 82.4916 126.513C82.9509 126.574 83.3539 126.678 83.7006 126.825L83.4276 128.008C83.0462 127.991 82.6822 127.982 82.3356 127.982C81.9889 127.973 81.6942 127.969 81.4516 127.969C81.0702 127.969 80.7582 128.021 80.5156 128.125C80.2729 128.229 80.0866 128.415 79.9566 128.684C79.8266 128.944 79.7312 129.312 79.6706 129.789C79.6012 130.292 79.5926 130.673 79.6446 130.933C79.6966 131.193 79.8222 131.371 80.0216 131.466C80.2296 131.561 80.5199 131.609 80.8926 131.609C81.0486 131.609 81.2349 131.605 81.4516 131.596C81.6769 131.587 81.9196 131.579 82.1796 131.57C82.4396 131.553 82.6909 131.527 82.9336 131.492L83.0636 132.74C82.6909 132.887 82.2792 132.991 81.8286 133.052C81.3866 133.121 80.9619 133.156 80.5546 133.156C79.8006 133.156 79.1896 133.043 78.7216 132.818C78.2536 132.584 77.9286 132.216 77.7466 131.713C77.5732 131.202 77.5429 130.534 77.6556 129.711C77.7769 128.914 77.9632 128.277 78.2146 127.8C78.4746 127.315 78.8429 126.964 79.3196 126.747C79.8049 126.522 80.4289 126.409 81.1916 126.409ZM87.8856 126.409C88.6743 126.409 89.307 126.526 89.7836 126.76C90.2603 126.985 90.581 127.349 90.7456 127.852C90.919 128.355 90.945 129.031 90.8236 129.88C90.711 130.686 90.516 131.332 90.2386 131.817C89.97 132.294 89.5886 132.636 89.0946 132.844C88.6006 133.052 87.9593 133.156 87.1706 133.156C86.3906 133.156 85.758 133.043 85.2726 132.818C84.796 132.593 84.4666 132.229 84.2846 131.726C84.1113 131.223 84.081 130.556 84.1936 129.724C84.315 128.909 84.51 128.264 84.7786 127.787C85.0473 127.302 85.433 126.951 85.9356 126.734C86.447 126.517 87.097 126.409 87.8856 126.409ZM87.8596 127.813C87.513 127.813 87.2313 127.869 87.0146 127.982C86.8066 128.095 86.6376 128.298 86.5076 128.593C86.3863 128.888 86.2866 129.317 86.2086 129.88C86.1393 130.374 86.1176 130.76 86.1436 131.037C86.1783 131.314 86.2823 131.505 86.4556 131.609C86.629 131.713 86.8846 131.765 87.2226 131.765C87.5693 131.765 87.8466 131.709 88.0546 131.596C88.2626 131.475 88.4273 131.267 88.5486 130.972C88.67 130.677 88.7696 130.261 88.8476 129.724C88.917 129.213 88.9343 128.823 88.8996 128.554C88.8736 128.277 88.774 128.086 88.6006 127.982C88.436 127.869 88.189 127.813 87.8596 127.813ZM94.0716 126.578L94.0846 128.06L94.2536 128.242L93.5906 133H91.6796L92.5766 126.578H94.0716ZM96.6326 126.409C97.2306 126.409 97.664 126.569 97.9326 126.89C98.21 127.211 98.3096 127.657 98.2316 128.229L97.5556 133H95.7096L96.3076 128.749C96.3423 128.489 96.3206 128.307 96.2426 128.203C96.1646 128.09 96.0173 128.034 95.8006 128.034C95.6446 128.034 95.48 128.069 95.3066 128.138C95.1333 128.207 94.9383 128.32 94.7216 128.476C94.505 128.623 94.2406 128.831 93.9286 129.1L93.6946 128.138C94.232 127.54 94.7303 127.102 95.1896 126.825C95.649 126.548 96.13 126.409 96.6326 126.409ZM100.637 126.409C101.243 126.409 101.685 126.574 101.963 126.903C102.24 127.224 102.335 127.666 102.249 128.229L101.586 133H99.6746L100.273 128.749C100.307 128.472 100.277 128.285 100.182 128.19C100.095 128.086 99.9563 128.034 99.7656 128.034C99.6183 128.034 99.458 128.069 99.2846 128.138C99.12 128.199 98.9293 128.307 98.7126 128.463C98.5046 128.61 98.2533 128.818 97.9586 129.087L97.7116 128.138C98.249 127.531 98.743 127.094 99.1936 126.825C99.653 126.548 100.134 126.409 100.637 126.409Z" fill="white"/>
</g>
<defs>
<clipPath id="clip0_113_1813">
<rect width="112" height="160" rx="6" fill="white"/>
</clipPath>
</defs>
</svg>
