<svg width="112" height="160" viewBox="0 0 112 160" fill="none" xmlns="http://www.w3.org/2000/svg">
<g clip-path="url(#clip0_122_308)">
<path d="M1 7C1 3.6863 3.68629 1 7 1H105C108.314 1 111 3.68629 111 7V152C111 155.314 108.314 158 105 158H7C3.68629 158 1 155.314 1 152V7Z" fill="#393B4E"/>
<path fill-rule="evenodd" clip-rule="evenodd" d="M7 0C3.13401 0 0 3.13401 0 7V153C0 156.866 3.13401 160 7 160H105C108.866 160 112 156.866 112 153V7C112 3.13401 108.866 0 105 0H7ZM7 1C3.68629 1 1 3.68629 1 7C1 7 1 7 1 7V152C1 152.165 1.00666 152.328 1.01973 152.49C1.2691 155.575 3.85131 158 7 158H105C108.149 158 110.731 155.575 110.98 152.49C110.993 152.328 111 152.165 111 152V7C111 3.68629 108.314 1 105 1H7Z" fill="black" fill-opacity="0.3"/>
<rect x="22" y="58" width="68" height="29" rx="3" fill="#D9D9D9"/>
<rect x="20.5" y="56.5" width="71" height="32" rx="4.5" stroke="white" stroke-opacity="0.3" stroke-width="3"/>
<rect x="21.5" y="57.5" width="69" height="30" rx="3.5" fill="#E0E0E0" stroke="#333333"/>
<circle cx="38.5" cy="72.5" r="8.5" fill="#4F4F4F"/>
<circle cx="38.5" cy="72.5" r="9" stroke="black" stroke-opacity="0.15"/>
<rect x="38" y="65" width="1" height="3" rx="0.5" fill="#333333"/>
<rect x="38" y="77" width="1" height="3" rx="0.5" fill="#333333"/>
<rect x="31" y="73" width="1" height="3" rx="0.5" transform="rotate(-90 31 73)" fill="#333333"/>
<rect x="43" y="73" width="1" height="3" rx="0.5" transform="rotate(-90 43 73)" fill="#333333"/>
<circle cx="38.5" cy="72.5" r="2.75" stroke="#333333" stroke-width="0.5"/>
<circle cx="38.5" cy="72.5" r="1.5" fill="#333333"/>
<rect x="75" y="71" width="7" height="10" rx="3.5" fill="#4F4F4F"/>
<rect x="74.5" y="70.5" width="8" height="11" rx="4" stroke="black" stroke-opacity="0.15"/>
<rect x="63" y="71" width="7" height="10" rx="3.5" fill="#4F4F4F"/>
<rect x="62.5" y="70.5" width="8" height="11" rx="4" stroke="black" stroke-opacity="0.15"/>
<path d="M62 66H83V68.5C83 68.7761 82.7761 69 82.5 69H62.5C62.2239 69 62 68.7761 62 68.5V66Z" fill="white"/>
<path d="M62 61.5C62 61.2239 62.2239 61 62.5 61H82.5C82.7761 61 83 61.2239 83 61.5V66H62V61.5Z" fill="#4F4F4F"/>
<path d="M34.9862 123.861C35.4542 123.861 35.9438 123.891 36.4552 123.952C36.9665 124.004 37.4562 124.095 37.9242 124.225L37.7422 125.538C37.4648 125.529 37.1658 125.525 36.8452 125.525C36.5332 125.516 36.2125 125.512 35.8832 125.512C35.5538 125.503 35.2202 125.499 34.8822 125.499C34.6655 125.499 34.4705 125.508 34.2972 125.525C34.1325 125.534 33.9895 125.564 33.8682 125.616C33.7555 125.668 33.6645 125.755 33.5952 125.876C33.5258 125.989 33.4738 126.145 33.4392 126.344C33.4218 126.517 33.4262 126.665 33.4522 126.786C33.4868 126.899 33.5605 126.998 33.6732 127.085C33.7858 127.163 33.9548 127.25 34.1802 127.345L35.8052 128.021C36.2818 128.22 36.6415 128.441 36.8842 128.684C37.1268 128.927 37.2828 129.213 37.3522 129.542C37.4215 129.863 37.4258 130.244 37.3652 130.686C37.2872 131.353 37.1182 131.869 36.8582 132.233C36.5982 132.588 36.2255 132.835 35.7402 132.974C35.2548 133.104 34.6178 133.169 33.8292 133.169C33.5085 133.169 33.0665 133.143 32.5032 133.091C31.9485 133.048 31.3505 132.957 30.7092 132.818L30.9042 131.414C31.4155 131.423 31.8575 131.436 32.2302 131.453C32.6028 131.462 32.9148 131.47 33.1662 131.479C33.4175 131.479 33.6168 131.479 33.7642 131.479C34.1368 131.479 34.4358 131.457 34.6612 131.414C34.8865 131.362 35.0555 131.275 35.1682 131.154C35.2895 131.024 35.3675 130.833 35.4022 130.582C35.4282 130.391 35.4238 130.24 35.3892 130.127C35.3632 130.014 35.2938 129.923 35.1812 129.854C35.0772 129.776 34.9298 129.698 34.7392 129.62L33.0232 128.879C32.5638 128.68 32.2128 128.454 31.9702 128.203C31.7275 127.943 31.5715 127.653 31.5022 127.332C31.4328 127.003 31.4242 126.643 31.4762 126.253C31.5368 125.759 31.6538 125.356 31.8272 125.044C32.0005 124.723 32.2302 124.481 32.5162 124.316C32.8108 124.143 33.1618 124.026 33.5692 123.965C33.9852 123.896 34.4575 123.861 34.9862 123.861ZM43.3719 123.848C43.7012 123.848 44.0219 123.861 44.3339 123.887C44.6545 123.913 44.9665 123.952 45.2699 124.004C45.5819 124.047 45.8765 124.112 46.1539 124.199L45.9199 125.629C45.6252 125.612 45.3349 125.599 45.0489 125.59C44.7629 125.581 44.4812 125.577 44.2039 125.577C43.9265 125.568 43.6362 125.564 43.3329 125.564C42.9342 125.564 42.5962 125.612 42.3189 125.707C42.0415 125.794 41.8075 125.95 41.6169 126.175C41.4349 126.392 41.2832 126.699 41.1619 127.098C41.0405 127.488 40.9365 127.986 40.8499 128.593C40.7632 129.321 40.7329 129.897 40.7589 130.322C40.7935 130.738 40.9019 131.033 41.0839 131.206C41.2659 131.379 41.5432 131.466 41.9159 131.466C42.2105 131.466 42.4662 131.423 42.6829 131.336C42.8995 131.241 43.0989 131.119 43.2809 130.972C43.4715 130.816 43.6622 130.656 43.8529 130.491L44.1519 131.427C43.9959 131.618 43.8182 131.817 43.6189 132.025C43.4195 132.224 43.1942 132.415 42.9429 132.597C42.6915 132.77 42.4099 132.909 42.0979 133.013C41.7859 133.126 41.4392 133.182 41.0579 133.182C40.4512 133.182 39.9529 133.026 39.5629 132.714C39.1729 132.402 38.9085 131.899 38.7699 131.206C38.6312 130.513 38.6355 129.59 38.7829 128.437C38.9042 127.51 39.0819 126.747 39.3159 126.149C39.5585 125.551 39.8619 125.087 40.2259 124.758C40.5985 124.42 41.0449 124.186 41.5649 124.056C42.0849 123.917 42.6872 123.848 43.3719 123.848ZM46.0109 127.826L45.2699 133H43.8269L43.7619 131.609L43.6319 131.232L44.0999 127.826H46.0109ZM51.1259 129.074L50.9569 130.296H47.0829L47.2649 129.074H51.1259ZM56.4952 124.03L55.2342 133H53.2582L54.1812 126.604C54.1985 126.439 54.2245 126.279 54.2592 126.123C54.2938 125.958 54.3328 125.794 54.3762 125.629L52.1792 126.214L52.0492 124.953L54.5582 124.03H56.4952ZM60.6505 133.169C60.0005 133.169 59.4415 133.078 58.9735 132.896C58.5142 132.705 58.1632 132.398 57.9205 131.973C57.6778 131.54 57.5608 130.963 57.5695 130.244C57.5695 129.594 57.5998 128.957 57.6605 128.333C57.7298 127.709 57.8468 127.128 58.0115 126.591C58.1762 126.045 58.4102 125.568 58.7135 125.161C59.0168 124.754 59.4025 124.437 59.8705 124.212C60.3472 123.978 60.9322 123.861 61.6255 123.861C62.2928 123.861 62.8518 123.956 63.3025 124.147C63.7618 124.329 64.1085 124.632 64.3425 125.057C64.5852 125.482 64.7065 126.049 64.7065 126.76C64.7065 127.41 64.6762 128.051 64.6155 128.684C64.5635 129.308 64.4552 129.893 64.2905 130.439C64.1258 130.976 63.8918 131.453 63.5885 131.869C63.2852 132.276 62.8952 132.597 62.4185 132.831C61.9418 133.056 61.3525 133.169 60.6505 133.169ZM60.8065 131.622C61.1618 131.622 61.4565 131.531 61.6905 131.349C61.9245 131.167 62.1152 130.92 62.2625 130.608C62.4098 130.296 62.5182 129.941 62.5875 129.542C62.6568 129.135 62.7045 128.71 62.7305 128.268C62.7565 127.817 62.7738 127.375 62.7825 126.942C62.7912 126.387 62.6828 125.993 62.4575 125.759C62.2408 125.525 61.9028 125.408 61.4435 125.408C61.0968 125.408 60.8065 125.499 60.5725 125.681C60.3472 125.863 60.1608 126.114 60.0135 126.435C59.8748 126.747 59.7708 127.102 59.7015 127.501C59.6322 127.9 59.5802 128.324 59.5455 128.775C59.5195 129.226 59.5022 129.668 59.4935 130.101C59.4935 130.647 59.5975 131.037 59.8055 131.271C60.0222 131.505 60.3558 131.622 60.8065 131.622ZM68.8263 133.169C68.1763 133.169 67.6173 133.078 67.1493 132.896C66.6899 132.705 66.3389 132.398 66.0963 131.973C65.8536 131.54 65.7366 130.963 65.7453 130.244C65.7453 129.594 65.7756 128.957 65.8363 128.333C65.9056 127.709 66.0226 127.128 66.1873 126.591C66.3519 126.045 66.5859 125.568 66.8893 125.161C67.1926 124.754 67.5783 124.437 68.0463 124.212C68.5229 123.978 69.1079 123.861 69.8013 123.861C70.4686 123.861 71.0276 123.956 71.4783 124.147C71.9376 124.329 72.2843 124.632 72.5183 125.057C72.7609 125.482 72.8823 126.049 72.8823 126.76C72.8823 127.41 72.8519 128.051 72.7913 128.684C72.7393 129.308 72.6309 129.893 72.4663 130.439C72.3016 130.976 72.0676 131.453 71.7643 131.869C71.4609 132.276 71.0709 132.597 70.5943 132.831C70.1176 133.056 69.5283 133.169 68.8263 133.169ZM68.9823 131.622C69.3376 131.622 69.6323 131.531 69.8663 131.349C70.1003 131.167 70.2909 130.92 70.4383 130.608C70.5856 130.296 70.6939 129.941 70.7633 129.542C70.8326 129.135 70.8803 128.71 70.9063 128.268C70.9323 127.817 70.9496 127.375 70.9583 126.942C70.9669 126.387 70.8586 125.993 70.6333 125.759C70.4166 125.525 70.0786 125.408 69.6193 125.408C69.2726 125.408 68.9823 125.499 68.7483 125.681C68.5229 125.863 68.3366 126.114 68.1893 126.435C68.0506 126.747 67.9466 127.102 67.8773 127.501C67.8079 127.9 67.7559 128.324 67.7213 128.775C67.6953 129.226 67.6779 129.668 67.6693 130.101C67.6693 130.647 67.7733 131.037 67.9813 131.271C68.1979 131.505 68.5316 131.622 68.9823 131.622ZM77.0021 133.169C76.3521 133.169 75.7931 133.078 75.3251 132.896C74.8657 132.705 74.5147 132.398 74.2721 131.973C74.0294 131.54 73.9124 130.963 73.9211 130.244C73.9211 129.594 73.9514 128.957 74.0121 128.333C74.0814 127.709 74.1984 127.128 74.3631 126.591C74.5277 126.045 74.7617 125.568 75.0651 125.161C75.3684 124.754 75.7541 124.437 76.2221 124.212C76.6987 123.978 77.2837 123.861 77.9771 123.861C78.6444 123.861 79.2034 123.956 79.6541 124.147C80.1134 124.329 80.4601 124.632 80.6941 125.057C80.9367 125.482 81.0581 126.049 81.0581 126.76C81.0581 127.41 81.0277 128.051 80.9671 128.684C80.9151 129.308 80.8067 129.893 80.6421 130.439C80.4774 130.976 80.2434 131.453 79.9401 131.869C79.6367 132.276 79.2467 132.597 78.7701 132.831C78.2934 133.056 77.7041 133.169 77.0021 133.169ZM77.1581 131.622C77.5134 131.622 77.8081 131.531 78.0421 131.349C78.2761 131.167 78.4667 130.92 78.6141 130.608C78.7614 130.296 78.8697 129.941 78.9391 129.542C79.0084 129.135 79.0561 128.71 79.0821 128.268C79.1081 127.817 79.1254 127.375 79.1341 126.942C79.1427 126.387 79.0344 125.993 78.8091 125.759C78.5924 125.525 78.2544 125.408 77.7951 125.408C77.4484 125.408 77.1581 125.499 76.9241 125.681C76.6987 125.863 76.5124 126.114 76.3651 126.435C76.2264 126.747 76.1224 127.102 76.0531 127.501C75.9837 127.9 75.9317 128.324 75.8971 128.775C75.8711 129.226 75.8537 129.668 75.8451 130.101C75.8451 130.647 75.9491 131.037 76.1571 131.271C76.3737 131.505 76.7074 131.622 77.1581 131.622Z" fill="white"/>
</g>
<defs>
<clipPath id="clip0_122_308">
<rect width="112" height="160" rx="6" fill="white"/>
</clipPath>
</defs>
</svg>
