<svg width="112" height="160" viewBox="0 0 112 160" fill="none" xmlns="http://www.w3.org/2000/svg">
<g clip-path="url(#clip0_113_1903)">
<path d="M1 7C1 3.6863 3.68629 1 7 1H105C108.314 1 111 3.68629 111 7V152C111 155.314 108.314 158 105 158H7C3.68629 158 1 155.314 1 152V7Z" fill="#393B4E"/>
<path fill-rule="evenodd" clip-rule="evenodd" d="M7 0C3.13401 0 0 3.13401 0 7V153C0 156.866 3.13401 160 7 160H105C108.866 160 112 156.866 112 153V7C112 3.13401 108.866 0 105 0H7ZM7 1C3.68629 1 1 3.68629 1 7C1 7 1 7 1 7V152C1 152.165 1.00666 152.328 1.01973 152.49C1.2691 155.575 3.85131 158 7 158H105C108.149 158 110.731 155.575 110.98 152.49C110.993 152.328 111 152.165 111 152V7C111 3.68629 108.314 1 105 1H7Z" fill="black" fill-opacity="0.3"/>
<path d="M69 56.5C68.1821 56.5 67.4559 56.8928 66.9998 57.5H45.0002C44.5441 56.8928 43.8179 56.5 43 56.5H37C34.2651 56.5 31.6727 57.1284 29.3632 58.2502C28.437 58.7 27.8391 59.5229 27.608 60.4322C23.3156 63.4089 20.5 68.3751 20.5 74C20.5 83.1127 27.8873 90.5 37 90.5C41.1153 90.5 44.8813 88.9916 47.7707 86.5H64.2293C67.1187 88.9916 70.8847 90.5 75 90.5C84.1127 90.5 91.5 83.1127 91.5 74C91.5 68.3751 88.6844 63.4089 84.392 60.4322C84.1609 59.5229 83.563 58.7 82.6368 58.2502L81.9851 59.592L82.6368 58.2502C80.3273 57.1284 77.7349 56.5 75 56.5H69Z" stroke="white" stroke-opacity="0.3" stroke-width="3"/>
<path d="M67.5854 58.5H44.4146C44.2087 57.9174 43.6531 57.5 43 57.5H37C34.4197 57.5 31.9764 58.0926 29.8001 59.1497C29.0517 59.5132 28.5983 60.2413 28.5142 61.0272C24.2911 63.7951 21.5 68.5714 21.5 74C21.5 82.5604 28.4396 89.5 37 89.5C40.9981 89.5 44.6436 87.9856 47.3925 85.5H64.6075C67.3564 87.9856 71.0019 89.5 75 89.5C83.5604 89.5 90.5 82.5604 90.5 74C90.5 68.5714 87.7089 63.7951 83.4858 61.0272C83.4017 60.2413 82.9483 59.5132 82.1999 59.1497C80.0236 58.0926 77.5803 57.5 75 57.5H69C68.3469 57.5 67.7913 57.9174 67.5854 58.5Z" stroke="#333333"/>
<path d="M37 89C40.9382 89 44.5219 87.4823 47.1981 85H64.8019C67.4781 87.4823 71.0618 89 75 89C83.2843 89 90 82.2843 90 74C90 65.7157 83.2843 59 75 59H37C28.7157 59 22 65.7157 22 74C22 82.2843 28.7157 89 37 89Z" fill="#E0E0E0"/>
<circle cx="37" cy="74" r="9.5" stroke="black" stroke-opacity="0.2"/>
<path d="M35.5 68C35.2239 68 35 68.2239 35 68.5V72H31.5C31.2239 72 31 72.2239 31 72.5V75.5C31 75.7761 31.2239 76 31.5 76H35V79.5C35 79.7761 35.2239 80 35.5 80H38.5C38.7761 80 39 79.7761 39 79.5V76H42.5C42.7761 76 43 75.7761 43 75.5V72.5C43 72.2239 42.7761 72 42.5 72H39V68.5C39 68.2239 38.7761 68 38.5 68H35.5Z" fill="#333333"/>
<path d="M35.5 67.5C34.9477 67.5 34.5 67.9477 34.5 68.5V71.5H31.5C30.9477 71.5 30.5 71.9477 30.5 72.5V75.5C30.5 76.0523 30.9477 76.5 31.5 76.5H34.5V79.5C34.5 80.0523 34.9477 80.5 35.5 80.5H38.5C39.0523 80.5 39.5 80.0523 39.5 79.5V76.5H42.5C43.0523 76.5 43.5 76.0523 43.5 75.5V72.5C43.5 71.9477 43.0523 71.5 42.5 71.5H39.5V68.5C39.5 67.9477 39.0523 67.5 38.5 67.5H35.5Z" stroke="black" stroke-opacity="0.2"/>
<circle cx="37" cy="74" r="1" fill="#4F4F4F"/>
<circle cx="75" cy="74" r="12" fill="#767A8F"/>
<path d="M69 74L75 69M75 79L81 74" stroke="#E0E0E0" stroke-width="6" stroke-linecap="round" stroke-linejoin="round"/>
<circle cx="69" cy="74" r="2" fill="#D1A0E3"/>
<circle cx="69" cy="74" r="2.25" stroke="black" stroke-opacity="0.3" stroke-width="0.5"/>
<circle cx="81" cy="74" r="2" fill="#9F2BCA"/>
<circle cx="81" cy="74" r="2.25" stroke="black" stroke-opacity="0.3" stroke-width="0.5"/>
<circle cx="75" cy="69" r="2" fill="#D1A0E3"/>
<circle cx="75" cy="69" r="2.25" stroke="black" stroke-opacity="0.3" stroke-width="0.5"/>
<circle cx="75" cy="79" r="2" fill="#9F2BCA"/>
<circle cx="75" cy="79" r="2.25" stroke="black" stroke-opacity="0.3" stroke-width="0.5"/>
<path d="M49.234 79.5712C48.879 79.1481 48.9342 78.5173 49.3572 78.1623L51.6554 76.234C52.0784 75.879 52.7092 75.9342 53.0642 76.3572C53.4192 76.7803 53.364 77.4111 52.9409 77.7661L50.6428 79.6944C50.2197 80.0494 49.589 79.9942 49.234 79.5712Z" fill="#333333"/>
<path d="M57.2341 79.5712C56.8791 79.1481 56.9343 78.5173 57.3574 78.1623L59.6555 76.234C60.0786 75.879 60.7093 75.9342 61.0643 76.3572C61.4193 76.7803 61.3641 77.4111 60.9411 77.7661L58.6429 79.6944C58.2199 80.0494 57.5891 79.9942 57.2341 79.5712Z" fill="#333333"/>
<path d="M51.334 75.851L49.0358 77.7793C48.4012 78.3118 48.3185 79.258 48.851 79.8926C49.3835 80.5272 50.3296 80.61 50.9642 80.0775L53.2623 78.1491C53.8969 77.6166 53.9797 76.6705 53.4472 76.0358C52.9147 75.4012 51.9686 75.3185 51.334 75.851ZM59.3341 75.851L57.036 77.7793C56.4014 78.3118 56.3186 79.258 56.8511 79.8926C57.3836 80.5272 58.3297 80.61 58.9643 80.0775L61.2625 78.1491C61.8971 77.6166 61.9798 76.6705 61.4473 76.0358C60.9148 75.4012 59.9687 75.3185 59.3341 75.851Z" stroke="black" stroke-opacity="0.2"/>
<path d="M44 59C44 58.4477 43.5523 58 43 58H37C34.497 58 32.1283 58.5747 30.0185 59.5995C29.3763 59.9114 29 60.5802 29 61.2941V61.3091C31.3154 59.8465 34.0588 59 37 59H44V59Z" fill="#BDBDBD"/>
<path d="M68 59C68 58.4477 68.4477 58 69 58H75C77.503 58 79.8717 58.5747 81.9815 59.5995C82.6237 59.9114 83 60.5802 83 61.2941V61.3091C80.6846 59.8465 77.9412 59 75 59H68V59Z" fill="#BDBDBD"/>
<path d="M44.533 123.861C45.001 123.861 45.4907 123.891 46.002 123.952C46.5134 124.004 47.003 124.095 47.471 124.225L47.289 125.538C47.0117 125.529 46.7127 125.525 46.392 125.525C46.08 125.516 45.7594 125.512 45.43 125.512C45.1007 125.503 44.767 125.499 44.429 125.499C44.2124 125.499 44.0174 125.508 43.844 125.525C43.6794 125.534 43.5364 125.564 43.415 125.616C43.3024 125.668 43.2114 125.755 43.142 125.876C43.0727 125.989 43.0207 126.145 42.986 126.344C42.9687 126.517 42.973 126.665 42.999 126.786C43.0337 126.899 43.1074 126.998 43.22 127.085C43.3327 127.163 43.5017 127.25 43.727 127.345L45.352 128.021C45.8287 128.22 46.1884 128.441 46.431 128.684C46.6737 128.927 46.8297 129.213 46.899 129.542C46.9684 129.863 46.9727 130.244 46.912 130.686C46.834 131.353 46.665 131.869 46.405 132.233C46.145 132.588 45.7724 132.835 45.287 132.974C44.8017 133.104 44.1647 133.169 43.376 133.169C43.0554 133.169 42.6134 133.143 42.05 133.091C41.4954 133.048 40.8974 132.957 40.256 132.818L40.451 131.414C40.9624 131.423 41.4044 131.436 41.777 131.453C42.1497 131.462 42.4617 131.47 42.713 131.479C42.9644 131.479 43.1637 131.479 43.311 131.479C43.6837 131.479 43.9827 131.457 44.208 131.414C44.4334 131.362 44.6024 131.275 44.715 131.154C44.8364 131.024 44.9144 130.833 44.949 130.582C44.975 130.391 44.9707 130.24 44.936 130.127C44.91 130.014 44.8407 129.923 44.728 129.854C44.624 129.776 44.4767 129.698 44.286 129.62L42.57 128.879C42.1107 128.68 41.7597 128.454 41.517 128.203C41.2744 127.943 41.1184 127.653 41.049 127.332C40.9797 127.003 40.971 126.643 41.023 126.253C41.0837 125.759 41.2007 125.356 41.374 125.044C41.5474 124.723 41.777 124.481 42.063 124.316C42.3577 124.143 42.7087 124.026 43.116 123.965C43.532 123.896 44.0044 123.861 44.533 123.861ZM56.7667 124.03L55.5967 132.324C55.5621 132.558 55.4884 132.731 55.3757 132.844C55.2631 132.948 55.0897 133 54.8557 133H53.8677C53.6511 133 53.4907 132.944 53.3867 132.831C53.2914 132.718 53.2047 132.562 53.1267 132.363L51.2417 127.657C51.1551 127.466 51.0771 127.254 51.0077 127.02C50.9471 126.786 50.8907 126.556 50.8387 126.331H50.6827C50.6827 126.565 50.6741 126.803 50.6567 127.046C50.6481 127.28 50.6264 127.518 50.5917 127.761L49.8507 133H47.9787L49.1357 124.706C49.1704 124.472 49.2484 124.303 49.3697 124.199C49.4911 124.086 49.6687 124.03 49.9027 124.03H50.8647C51.0814 124.03 51.2374 124.091 51.3327 124.212C51.4281 124.325 51.5191 124.476 51.6057 124.667L53.4387 129.217C53.5254 129.416 53.6077 129.637 53.6857 129.88C53.7724 130.114 53.8504 130.365 53.9197 130.634H54.1017C54.0931 130.374 54.0931 130.131 54.1017 129.906C54.1191 129.681 54.1451 129.451 54.1797 129.217L54.8947 124.03H56.7667ZM60.3261 123.991C60.8201 123.991 61.3098 123.995 61.7951 124.004C62.2891 124.004 62.7701 124.017 63.2381 124.043C63.7061 124.06 64.1394 124.091 64.5381 124.134L64.3041 125.564H60.9501C60.6988 125.564 60.5124 125.62 60.3911 125.733C60.2698 125.837 60.1918 126.015 60.1571 126.266L59.5331 130.79C59.4984 131.015 59.5288 131.184 59.6241 131.297C59.7194 131.41 59.8884 131.466 60.1311 131.466H63.4461L63.4071 132.909C63.0084 132.961 62.5794 132.991 62.1201 133C61.6694 133.017 61.2101 133.026 60.7421 133.026C60.2828 133.035 59.8321 133.039 59.3901 133.039C58.6968 133.039 58.1898 132.844 57.8691 132.454C57.5484 132.055 57.4314 131.54 57.5181 130.907L58.2331 125.759C58.3111 125.213 58.5278 124.784 58.8831 124.472C59.2384 124.151 59.7194 123.991 60.3261 123.991ZM58.2201 127.644H63.5111L63.3421 129.035H57.9991L58.2201 127.644ZM68.8573 123.861C69.3253 123.861 69.8149 123.891 70.3263 123.952C70.8376 124.004 71.3273 124.095 71.7953 124.225L71.6133 125.538C71.3359 125.529 71.0369 125.525 70.7163 125.525C70.4043 125.516 70.0836 125.512 69.7543 125.512C69.4249 125.503 69.0913 125.499 68.7533 125.499C68.5366 125.499 68.3416 125.508 68.1683 125.525C68.0036 125.534 67.8606 125.564 67.7393 125.616C67.6266 125.668 67.5356 125.755 67.4663 125.876C67.3969 125.989 67.3449 126.145 67.3103 126.344C67.2929 126.517 67.2973 126.665 67.3233 126.786C67.3579 126.899 67.4316 126.998 67.5443 127.085C67.6569 127.163 67.8259 127.25 68.0513 127.345L69.6763 128.021C70.1529 128.22 70.5126 128.441 70.7553 128.684C70.9979 128.927 71.1539 129.213 71.2233 129.542C71.2926 129.863 71.2969 130.244 71.2363 130.686C71.1583 131.353 70.9893 131.869 70.7293 132.233C70.4693 132.588 70.0966 132.835 69.6113 132.974C69.1259 133.104 68.4889 133.169 67.7003 133.169C67.3796 133.169 66.9376 133.143 66.3743 133.091C65.8196 133.048 65.2216 132.957 64.5803 132.818L64.7753 131.414C65.2866 131.423 65.7286 131.436 66.1013 131.453C66.4739 131.462 66.7859 131.47 67.0373 131.479C67.2886 131.479 67.4879 131.479 67.6353 131.479C68.0079 131.479 68.3069 131.457 68.5323 131.414C68.7576 131.362 68.9266 131.275 69.0393 131.154C69.1606 131.024 69.2386 130.833 69.2733 130.582C69.2993 130.391 69.2949 130.24 69.2603 130.127C69.2343 130.014 69.1649 129.923 69.0523 129.854C68.9483 129.776 68.8009 129.698 68.6103 129.62L66.8943 128.879C66.4349 128.68 66.0839 128.454 65.8413 128.203C65.5986 127.943 65.4426 127.653 65.3733 127.332C65.3039 127.003 65.2953 126.643 65.3473 126.253C65.4079 125.759 65.5249 125.356 65.6983 125.044C65.8716 124.723 66.1013 124.481 66.3873 124.316C66.6819 124.143 67.0329 124.026 67.4403 123.965C67.8563 123.896 68.3286 123.861 68.8573 123.861Z" fill="white"/>
</g>
<defs>
<clipPath id="clip0_113_1903">
<rect width="112" height="160" rx="6" fill="white"/>
</clipPath>
</defs>
</svg>
