<svg width="112" height="160" viewBox="0 0 112 160" fill="none" xmlns="http://www.w3.org/2000/svg">
<g clip-path="url(#clip0_113_1936)">
<path d="M1 7C1 3.6863 3.68629 1 7 1H105C108.314 1 111 3.68629 111 7V152C111 155.314 108.314 158 105 158H7C3.68629 158 1 155.314 1 152V7Z" fill="#393B4E"/>
<path fill-rule="evenodd" clip-rule="evenodd" d="M7 0C3.13401 0 0 3.13401 0 7V153C0 156.866 3.13401 160 7 160H105C108.866 160 112 156.866 112 153V7C112 3.13401 108.866 0 105 0H7ZM7 1C3.68629 1 1 3.68629 1 7C1 7 1 7 1 7V152C1 152.165 1.00666 152.328 1.01973 152.49C1.2691 155.575 3.85131 158 7 158H105C108.149 158 110.731 155.575 110.98 152.49C110.993 152.328 111 152.165 111 152V7C111 3.68629 108.314 1 105 1H7Z" fill="black" fill-opacity="0.3"/>
<path d="M45.0002 57.5C44.5441 56.8928 43.8179 56.5 43 56.5H37C34.2651 56.5 31.6727 57.1284 29.3632 58.2502C28.437 58.7 27.8391 59.5229 27.608 60.4322C23.3156 63.4089 20.5 68.3751 20.5 74C20.5 83.1127 27.8873 90.5 37 90.5C41.1153 90.5 44.8813 88.9916 47.7707 86.5H64.2293C67.1187 88.9916 70.8847 90.5 75 90.5C84.1127 90.5 91.5 83.1127 91.5 74C91.5 68.3751 88.6844 63.4089 84.392 60.4322C84.1609 59.5229 83.563 58.7 82.6368 58.2502L81.9851 59.592L82.6368 58.2502C80.3273 57.1284 77.7349 56.5 75 56.5H69C68.1821 56.5 67.4559 56.8928 66.9998 57.5H45.0002Z" stroke="white" stroke-opacity="0.3" stroke-width="3"/>
<path d="M44.4146 58.5C44.2087 57.9174 43.6531 57.5 43 57.5H37C34.4197 57.5 31.9764 58.0926 29.8001 59.1497C29.0517 59.5132 28.5983 60.2413 28.5142 61.0272C24.2911 63.7951 21.5 68.5714 21.5 74C21.5 82.5604 28.4396 89.5 37 89.5C40.9981 89.5 44.6436 87.9856 47.3925 85.5H64.6075C67.3564 87.9856 71.0019 89.5 75 89.5C83.5604 89.5 90.5 82.5604 90.5 74C90.5 68.5714 87.7089 63.7951 83.4858 61.0272C83.4017 60.2413 82.9483 59.5132 82.1999 59.1497C80.0236 58.0926 77.5803 57.5 75 57.5H69C68.3469 57.5 67.7913 57.9174 67.5854 58.5H44.4146Z" stroke="#333333"/>
<path d="M37 89C40.9382 89 44.5219 87.4823 47.1981 85H64.8019C67.4781 87.4823 71.0618 89 75 89C83.2843 89 90 82.2843 90 74C90 65.7157 83.2843 59 75 59H37C28.7157 59 22 65.7157 22 74C22 82.2843 28.7157 89 37 89Z" fill="#BAFFA1"/>
<circle cx="37" cy="74" r="9.5" stroke="#51FA15"/>
<path d="M35.5 68C35.2239 68 35 68.2239 35 68.5V72H31.5C31.2239 72 31 72.2239 31 72.5V75.5C31 75.7761 31.2239 76 31.5 76H35V79.5C35 79.7761 35.2239 80 35.5 80H38.5C38.7761 80 39 79.7761 39 79.5V76H42.5C42.7761 76 43 75.7761 43 75.5V72.5C43 72.2239 42.7761 72 42.5 72H39V68.5C39 68.2239 38.7761 68 38.5 68H35.5Z" fill="#144C00"/>
<circle cx="37" cy="74" r="1" fill="#1F7600"/>
<circle cx="75" cy="74" r="12" fill="#30B700"/>
<path d="M69 74L75 69M75 79L81 74" stroke="#BAFFA1" stroke-width="6" stroke-linecap="round" stroke-linejoin="round"/>
<circle cx="69" cy="74" r="2" fill="#258E00"/>
<circle cx="81" cy="74" r="2" fill="#258E00"/>
<circle cx="75" cy="69" r="2" fill="#258E00"/>
<circle cx="75" cy="79" r="2" fill="#258E00"/>
<path d="M49.234 79.5712C48.879 79.1481 48.9342 78.5173 49.3572 78.1623L51.6554 76.234C52.0784 75.879 52.7092 75.9342 53.0642 76.3572C53.4192 76.7803 53.364 77.4111 52.9409 77.7661L50.6428 79.6944C50.2197 80.0494 49.589 79.9942 49.234 79.5712Z" fill="#144C00"/>
<path d="M57.2341 79.5712C56.8791 79.1481 56.9343 78.5173 57.3574 78.1623L59.6555 76.234C60.0786 75.879 60.7093 75.9342 61.0643 76.3572C61.4193 76.7803 61.3641 77.4111 60.9411 77.7661L58.6429 79.6944C58.2199 80.0494 57.5891 79.9942 57.2341 79.5712Z" fill="#144C00"/>
<path d="M44 59C44 58.4477 43.5523 58 43 58H37C34.497 58 32.1283 58.5747 30.0185 59.5995C29.3763 59.9114 29 60.5802 29 61.2941V61.3091C31.3154 59.8465 34.0588 59 37 59H44Z" fill="#6CFF38"/>
<path d="M68 59C68 58.4477 68.4477 58 69 58H75C77.503 58 79.8717 58.5747 81.9815 59.5995C82.6237 59.9114 83 60.5802 83 61.2941V61.3091C80.6846 59.8465 77.9412 59 75 59H68Z" fill="#6CFF38"/>
<path d="M24.4046 123.861C24.8726 123.861 25.3623 123.891 25.8736 123.952C26.385 124.004 26.8746 124.095 27.3426 124.225L27.1606 125.538C26.8833 125.529 26.5843 125.525 26.2636 125.525C25.9516 125.516 25.631 125.512 25.3016 125.512C24.9723 125.503 24.6386 125.499 24.3006 125.499C24.084 125.499 23.889 125.508 23.7156 125.525C23.551 125.534 23.408 125.564 23.2866 125.616C23.174 125.668 23.083 125.755 23.0136 125.876C22.9443 125.989 22.8923 126.145 22.8576 126.344C22.8403 126.517 22.8446 126.665 22.8706 126.786C22.9053 126.899 22.979 126.998 23.0916 127.085C23.2043 127.163 23.3733 127.25 23.5986 127.345L25.2236 128.021C25.7003 128.22 26.06 128.441 26.3026 128.684C26.5453 128.927 26.7013 129.213 26.7706 129.542C26.84 129.863 26.8443 130.244 26.7836 130.686C26.7056 131.353 26.5366 131.869 26.2766 132.233C26.0166 132.588 25.644 132.835 25.1586 132.974C24.6733 133.104 24.0363 133.169 23.2476 133.169C22.927 133.169 22.485 133.143 21.9216 133.091C21.367 133.048 20.769 132.957 20.1276 132.818L20.3226 131.414C20.834 131.423 21.276 131.436 21.6486 131.453C22.0213 131.462 22.3333 131.47 22.5846 131.479C22.836 131.479 23.0353 131.479 23.1826 131.479C23.5553 131.479 23.8543 131.457 24.0796 131.414C24.305 131.362 24.474 131.275 24.5866 131.154C24.708 131.024 24.786 130.833 24.8206 130.582C24.8466 130.391 24.8423 130.24 24.8076 130.127C24.7816 130.014 24.7123 129.923 24.5996 129.854C24.4956 129.776 24.3483 129.698 24.1576 129.62L22.4416 128.879C21.9823 128.68 21.6313 128.454 21.3886 128.203C21.146 127.943 20.99 127.653 20.9206 127.332C20.8513 127.003 20.8426 126.643 20.8946 126.253C20.9553 125.759 21.0723 125.356 21.2456 125.044C21.419 124.723 21.6486 124.481 21.9346 124.316C22.2293 124.143 22.5803 124.026 22.9876 123.965C23.4036 123.896 23.876 123.861 24.4046 123.861ZM36.6383 124.03L35.4683 132.324C35.4337 132.558 35.36 132.731 35.2473 132.844C35.1347 132.948 34.9613 133 34.7273 133H33.7393C33.5227 133 33.3623 132.944 33.2583 132.831C33.163 132.718 33.0763 132.562 32.9983 132.363L31.1133 127.657C31.0267 127.466 30.9487 127.254 30.8793 127.02C30.8187 126.786 30.7623 126.556 30.7103 126.331H30.5543C30.5543 126.565 30.5457 126.803 30.5283 127.046C30.5197 127.28 30.498 127.518 30.4633 127.761L29.7223 133H27.8503L29.0073 124.706C29.042 124.472 29.12 124.303 29.2413 124.199C29.3627 124.086 29.5403 124.03 29.7743 124.03H30.7363C30.953 124.03 31.109 124.091 31.2043 124.212C31.2997 124.325 31.3907 124.476 31.4773 124.667L33.3103 129.217C33.397 129.416 33.4793 129.637 33.5573 129.88C33.644 130.114 33.722 130.365 33.7913 130.634H33.9733C33.9647 130.374 33.9647 130.131 33.9733 129.906C33.9907 129.681 34.0167 129.451 34.0513 129.217L34.7663 124.03H36.6383ZM40.1977 123.991C40.6917 123.991 41.1814 123.995 41.6667 124.004C42.1607 124.004 42.6417 124.017 43.1097 124.043C43.5777 124.06 44.011 124.091 44.4097 124.134L44.1757 125.564H40.8217C40.5704 125.564 40.384 125.62 40.2627 125.733C40.1414 125.837 40.0634 126.015 40.0287 126.266L39.4047 130.79C39.37 131.015 39.4004 131.184 39.4957 131.297C39.591 131.41 39.76 131.466 40.0027 131.466H43.3177L43.2787 132.909C42.88 132.961 42.451 132.991 41.9917 133C41.541 133.017 41.0817 133.026 40.6137 133.026C40.1544 133.035 39.7037 133.039 39.2617 133.039C38.5684 133.039 38.0614 132.844 37.7407 132.454C37.42 132.055 37.303 131.54 37.3897 130.907L38.1047 125.759C38.1827 125.213 38.3994 124.784 38.7547 124.472C39.11 124.151 39.591 123.991 40.1977 123.991ZM38.0917 127.644H43.3827L43.2137 129.035H37.8707L38.0917 127.644ZM48.7288 123.861C49.1968 123.861 49.6865 123.891 50.1978 123.952C50.7092 124.004 51.1988 124.095 51.6668 124.225L51.4848 125.538C51.2075 125.529 50.9085 125.525 50.5878 125.525C50.2758 125.516 49.9552 125.512 49.6258 125.512C49.2965 125.503 48.9628 125.499 48.6248 125.499C48.4082 125.499 48.2132 125.508 48.0398 125.525C47.8752 125.534 47.7322 125.564 47.6108 125.616C47.4982 125.668 47.4072 125.755 47.3378 125.876C47.2685 125.989 47.2165 126.145 47.1818 126.344C47.1645 126.517 47.1688 126.665 47.1948 126.786C47.2295 126.899 47.3032 126.998 47.4158 127.085C47.5285 127.163 47.6975 127.25 47.9228 127.345L49.5478 128.021C50.0245 128.22 50.3842 128.441 50.6268 128.684C50.8695 128.927 51.0255 129.213 51.0948 129.542C51.1642 129.863 51.1685 130.244 51.1078 130.686C51.0298 131.353 50.8608 131.869 50.6008 132.233C50.3408 132.588 49.9682 132.835 49.4828 132.974C48.9975 133.104 48.3605 133.169 47.5718 133.169C47.2512 133.169 46.8092 133.143 46.2458 133.091C45.6912 133.048 45.0932 132.957 44.4518 132.818L44.6468 131.414C45.1582 131.423 45.6002 131.436 45.9728 131.453C46.3455 131.462 46.6575 131.47 46.9088 131.479C47.1602 131.479 47.3595 131.479 47.5068 131.479C47.8795 131.479 48.1785 131.457 48.4038 131.414C48.6292 131.362 48.7982 131.275 48.9108 131.154C49.0322 131.024 49.1102 130.833 49.1448 130.582C49.1708 130.391 49.1665 130.24 49.1318 130.127C49.1058 130.014 49.0365 129.923 48.9238 129.854C48.8198 129.776 48.6725 129.698 48.4818 129.62L46.7658 128.879C46.3065 128.68 45.9555 128.454 45.7128 128.203C45.4702 127.943 45.3142 127.653 45.2448 127.332C45.1755 127.003 45.1668 126.643 45.2188 126.253C45.2795 125.759 45.3965 125.356 45.5698 125.044C45.7432 124.723 45.9728 124.481 46.2588 124.316C46.5535 124.143 46.9045 124.026 47.3118 123.965C47.7278 123.896 48.2002 123.861 48.7288 123.861ZM58.2432 124.03L56.9822 133H54.9802L56.2412 124.03H58.2432ZM61.0252 127.475L60.8172 128.983H57.4372L57.6452 127.475H61.0252ZM63.3522 124.03L62.0912 133H60.1152L61.3762 124.03H63.3522ZM67.7403 126.409C67.9657 126.409 68.217 126.422 68.4943 126.448C68.7803 126.465 69.0663 126.491 69.3523 126.526C69.647 126.561 69.92 126.6 70.1713 126.643C70.4313 126.686 70.6437 126.73 70.8083 126.773L69.4953 127.813C69.1487 127.796 68.8323 127.787 68.5463 127.787C68.2603 127.778 67.9917 127.774 67.7403 127.774C67.4543 127.774 67.2117 127.796 67.0123 127.839C66.813 127.882 66.6483 127.969 66.5183 128.099C66.3883 128.22 66.28 128.407 66.1933 128.658C66.1067 128.909 66.033 129.247 65.9723 129.672C65.8943 130.209 65.851 130.621 65.8423 130.907C65.8423 131.184 65.8943 131.375 65.9983 131.479C66.1023 131.583 66.267 131.631 66.4923 131.622C66.7263 131.613 66.969 131.535 67.2203 131.388C67.4803 131.241 67.736 131.041 67.9873 130.79C68.2387 130.53 68.4813 130.24 68.7153 129.919L69.0533 130.543C68.88 131.054 68.633 131.505 68.3123 131.895C68.0003 132.276 67.632 132.575 67.2073 132.792C66.7827 133.009 66.3103 133.13 65.7903 133.156C65.227 133.182 64.7937 133.069 64.4903 132.818C64.1957 132.567 64.0137 132.177 63.9443 131.648C63.875 131.119 63.901 130.456 64.0223 129.659C64.135 128.922 64.291 128.337 64.4903 127.904C64.6983 127.462 64.9583 127.137 65.2703 126.929C65.5823 126.712 65.942 126.574 66.3493 126.513C66.7653 126.444 67.229 126.409 67.7403 126.409ZM68.9103 126.656L70.8083 126.773L69.9373 133H68.4423L68.4683 131.544L68.2343 131.388L68.9103 126.656ZM75.1994 126.409C75.6067 126.409 76.04 126.444 76.4994 126.513C76.9587 126.574 77.3617 126.678 77.7084 126.825L77.4354 128.008C77.054 127.991 76.69 127.982 76.3434 127.982C75.9967 127.973 75.702 127.969 75.4594 127.969C75.078 127.969 74.766 128.021 74.5234 128.125C74.2807 128.229 74.0944 128.415 73.9644 128.684C73.8344 128.944 73.739 129.312 73.6784 129.789C73.609 130.292 73.6004 130.673 73.6524 130.933C73.7044 131.193 73.83 131.371 74.0294 131.466C74.2374 131.561 74.5277 131.609 74.9004 131.609C75.0564 131.609 75.2427 131.605 75.4594 131.596C75.6847 131.587 75.9274 131.579 76.1874 131.57C76.4474 131.553 76.6987 131.527 76.9414 131.492L77.0714 132.74C76.6987 132.887 76.287 132.991 75.8364 133.052C75.3944 133.121 74.9697 133.156 74.5624 133.156C73.8084 133.156 73.1974 133.043 72.7294 132.818C72.2614 132.584 71.9364 132.216 71.7544 131.713C71.581 131.202 71.5507 130.534 71.6634 129.711C71.7847 128.914 71.971 128.277 72.2224 127.8C72.4824 127.315 72.8507 126.964 73.3274 126.747C73.8127 126.522 74.4367 126.409 75.1994 126.409ZM81.3063 123.9L80.7733 127.865C80.73 128.142 80.665 128.411 80.5783 128.671C80.5003 128.931 80.3963 129.2 80.2663 129.477C80.2837 129.676 80.3053 129.902 80.3313 130.153C80.3573 130.396 80.366 130.612 80.3573 130.803L80.0323 133H78.1083L79.3823 123.9H81.3063ZM85.0243 126.578C84.8337 127.254 84.5563 127.83 84.1923 128.307C83.837 128.775 83.4253 129.169 82.9573 129.49C82.4893 129.811 81.9997 130.084 81.4883 130.309C80.977 130.526 80.4873 130.716 80.0193 130.881L79.8503 129.607C80.3357 129.416 80.7993 129.169 81.2413 128.866C81.692 128.563 82.0733 128.216 82.3853 127.826C82.706 127.436 82.927 127.02 83.0483 126.578H85.0243ZM82.5153 129.347C82.732 129.477 82.9097 129.633 83.0483 129.815C83.187 129.997 83.2997 130.188 83.3863 130.387L84.6083 133H82.6063L81.2023 129.828L82.5153 129.347ZM88.7349 126.409C89.0556 126.409 89.3979 126.422 89.7619 126.448C90.1259 126.474 90.4769 126.504 90.8149 126.539C91.1616 126.574 91.4606 126.613 91.7119 126.656L91.5299 127.852C91.1139 127.843 90.6979 127.839 90.2819 127.839C89.8746 127.83 89.4586 127.822 89.0339 127.813C88.7046 127.813 88.4402 127.822 88.2409 127.839C88.0502 127.848 87.9116 127.882 87.8249 127.943C87.7382 127.995 87.6862 128.082 87.6689 128.203C87.6516 128.359 87.6949 128.48 87.7989 128.567C87.9116 128.654 88.1022 128.745 88.3709 128.84L89.9699 129.412C90.3079 129.533 90.5852 129.676 90.8019 129.841C91.0186 130.006 91.1702 130.209 91.2569 130.452C91.3522 130.695 91.3782 130.989 91.3349 131.336C91.2742 131.856 91.1096 132.246 90.8409 132.506C90.5809 132.757 90.2299 132.926 89.7879 133.013C89.3546 133.1 88.8259 133.143 88.2019 133.143C87.8639 133.143 87.5476 133.134 87.2529 133.117C86.9669 133.108 86.6679 133.082 86.3559 133.039C86.0526 133.004 85.7102 132.961 85.3289 132.909L85.4979 131.713C85.6626 131.722 85.8619 131.73 86.0959 131.739C86.3386 131.739 86.5899 131.743 86.8499 131.752C87.1186 131.752 87.3699 131.752 87.6039 131.752C88.0979 131.743 88.4749 131.726 88.7349 131.7C88.9949 131.674 89.1769 131.631 89.2809 131.57C89.3936 131.501 89.4629 131.401 89.4889 131.271C89.5062 131.158 89.4889 131.072 89.4369 131.011C89.3936 130.95 89.3112 130.894 89.1899 130.842C89.0772 130.79 88.9212 130.729 88.7219 130.66L87.1619 130.075C86.8066 129.945 86.5206 129.789 86.3039 129.607C86.0959 129.425 85.9529 129.204 85.8749 128.944C85.8056 128.684 85.7926 128.389 85.8359 128.06C85.8879 127.661 86.0179 127.345 86.2259 127.111C86.4339 126.868 86.7416 126.691 87.1489 126.578C87.5562 126.465 88.0849 126.409 88.7349 126.409Z" fill="white"/>
</g>
<defs>
<clipPath id="clip0_113_1936">
<rect width="112" height="160" rx="6" fill="white"/>
</clipPath>
</defs>
</svg>
