<svg width="112" height="160" viewBox="0 0 112 160" fill="none" xmlns="http://www.w3.org/2000/svg">
<g clip-path="url(#clip0_113_1971)">
<path d="M1 7C1 3.6863 3.68629 1 7 1H105C108.314 1 111 3.68629 111 7V152C111 155.314 108.314 158 105 158H7C3.68629 158 1 155.314 1 152V7Z" fill="#393B4E"/>
<path fill-rule="evenodd" clip-rule="evenodd" d="M7 0C3.13401 0 0 3.13401 0 7V153C0 156.866 3.13401 160 7 160H105C108.866 160 112 156.866 112 153V7C112 3.13401 108.866 0 105 0H7ZM7 1C3.68629 1 1 3.68629 1 7C1 7 1 7 1 7V152C1 152.165 1.00666 152.328 1.01973 152.49C1.2691 155.575 3.85131 158 7 158H105C108.149 158 110.731 155.575 110.98 152.49C110.993 152.328 111 152.165 111 152V7C111 3.68629 108.314 1 105 1H7Z" fill="black" fill-opacity="0.3"/>
<path d="M45.0002 57.5C44.5441 56.8928 43.8179 56.5 43 56.5H37C34.2651 56.5 31.6727 57.1284 29.3632 58.2502C28.437 58.7 27.8391 59.5229 27.608 60.4322C23.3156 63.4089 20.5 68.3751 20.5 74C20.5 83.1127 27.8873 90.5 37 90.5C41.1153 90.5 44.8813 88.9916 47.7707 86.5H64.2293C67.1187 88.9916 70.8847 90.5 75 90.5C84.1127 90.5 91.5 83.1127 91.5 74C91.5 68.3751 88.6844 63.4089 84.392 60.4322C84.1609 59.5229 83.563 58.7 82.6368 58.2502L81.9851 59.592L82.6368 58.2502C80.3273 57.1284 77.7349 56.5 75 56.5H69C68.1821 56.5 67.4559 56.8928 66.9998 57.5H45.0002Z" stroke="white" stroke-opacity="0.3" stroke-width="3"/>
<path d="M44.4146 58.5C44.2087 57.9174 43.6531 57.5 43 57.5H37C34.4197 57.5 31.9764 58.0926 29.8001 59.1497C29.0517 59.5132 28.5983 60.2413 28.5142 61.0272C24.2911 63.7951 21.5 68.5714 21.5 74C21.5 82.5604 28.4396 89.5 37 89.5C40.9981 89.5 44.6436 87.9856 47.3925 85.5H64.6075C67.3564 87.9856 71.0019 89.5 75 89.5C83.5604 89.5 90.5 82.5604 90.5 74C90.5 68.5714 87.7089 63.7951 83.4858 61.0272C83.4017 60.2413 82.9483 59.5132 82.1999 59.1497C80.0236 58.0926 77.5803 57.5 75 57.5H69C68.3469 57.5 67.7913 57.9174 67.5854 58.5H44.4146Z" stroke="#333333"/>
<path d="M37 89C40.9382 89 44.5219 87.4823 47.1981 85H64.8019C67.4781 87.4823 71.0618 89 75 89C83.2843 89 90 82.2843 90 74C90 65.7157 83.2843 59 75 59H37C28.7157 59 22 65.7157 22 74C22 82.2843 28.7157 89 37 89Z" fill="#E0E0E0"/>
<circle cx="37" cy="74" r="9.5" stroke="black" stroke-opacity="0.2"/>
<path d="M35.5 68C35.2239 68 35 68.2239 35 68.5V72H31.5C31.2239 72 31 72.2239 31 72.5V75.5C31 75.7761 31.2239 76 31.5 76H35V79.5C35 79.7761 35.2239 80 35.5 80H38.5C38.7761 80 39 79.7761 39 79.5V76H42.5C42.7761 76 43 75.7761 43 75.5V72.5C43 72.2239 42.7761 72 42.5 72H39V68.5C39 68.2239 38.7761 68 38.5 68H35.5Z" fill="#333333"/>
<circle cx="37" cy="74" r="1" fill="#4F4F4F"/>
<circle cx="75" cy="74" r="12" fill="#767A8F"/>
<path d="M69 74L75 69M75 79L81 74" stroke="#E0E0E0" stroke-width="6" stroke-linecap="round" stroke-linejoin="round"/>
<circle cx="69" cy="74" r="2" fill="#F08484"/>
<circle cx="81" cy="74" r="2" fill="#C03535"/>
<circle cx="75" cy="69" r="2" fill="#F08484"/>
<circle cx="75" cy="79" r="2" fill="#C03535"/>
<path d="M49.234 79.5712C48.879 79.1481 48.9342 78.5173 49.3572 78.1623L51.6554 76.234C52.0784 75.879 52.7092 75.9342 53.0642 76.3572C53.4192 76.7803 53.364 77.4111 52.9409 77.7661L50.6428 79.6944C50.2197 80.0494 49.589 79.9942 49.234 79.5712Z" fill="#333333"/>
<path d="M57.2341 79.5712C56.8791 79.1481 56.9343 78.5173 57.3574 78.1623L59.6555 76.234C60.0786 75.879 60.7093 75.9342 61.0643 76.3572C61.4193 76.7803 61.3641 77.4111 60.9411 77.7661L58.6429 79.6944C58.2199 80.0494 57.5891 79.9942 57.2341 79.5712Z" fill="#333333"/>
<path d="M44 59C44 58.4477 43.5523 58 43 58H37C34.497 58 32.1283 58.5747 30.0185 59.5995C29.3763 59.9114 29 60.5802 29 61.2941V61.3091C31.3154 59.8465 34.0588 59 37 59H44Z" fill="#C03535"/>
<path d="M68 59C68 58.4477 68.4477 58 69 58H75C77.503 58 79.8717 58.5747 81.9815 59.5995C82.6237 59.9114 83 60.5802 83 61.2941V61.3091C80.6846 59.8465 77.9412 59 75 59H68Z" fill="#C03535"/>
<circle cx="52.5" cy="63.5" r="0.5" fill="black" fill-opacity="0.3"/>
<circle cx="54.5" cy="63.5" r="0.5" fill="black" fill-opacity="0.3"/>
<circle cx="56.5" cy="63.5" r="0.5" fill="black" fill-opacity="0.3"/>
<circle cx="58.5" cy="63.5" r="0.5" fill="black" fill-opacity="0.3"/>
<circle cx="58.5" cy="65.5" r="0.5" fill="black" fill-opacity="0.3"/>
<circle cx="56.5" cy="65.5" r="0.5" fill="black" fill-opacity="0.3"/>
<circle cx="54.5" cy="65.5" r="0.5" fill="black" fill-opacity="0.3"/>
<circle cx="52.5" cy="65.5" r="0.5" fill="black" fill-opacity="0.3"/>
<circle cx="50.5" cy="65.5" r="0.5" fill="black" fill-opacity="0.3"/>
<circle cx="52.5" cy="67.5" r="0.5" fill="black" fill-opacity="0.3"/>
<circle cx="54.5" cy="67.5" r="0.5" fill="black" fill-opacity="0.3"/>
<circle cx="56.5" cy="67.5" r="0.5" fill="black" fill-opacity="0.3"/>
<circle cx="58.5" cy="67.5" r="0.5" fill="black" fill-opacity="0.3"/>
<circle cx="60.5" cy="65.5" r="0.5" fill="black" fill-opacity="0.3"/>
<path d="M26.1883 123.861C26.6563 123.861 27.146 123.891 27.6573 123.952C28.1686 124.004 28.6583 124.095 29.1263 124.225L28.9443 125.538C28.667 125.529 28.368 125.525 28.0473 125.525C27.7353 125.516 27.4146 125.512 27.0853 125.512C26.756 125.503 26.4223 125.499 26.0843 125.499C25.8676 125.499 25.6726 125.508 25.4993 125.525C25.3346 125.534 25.1916 125.564 25.0703 125.616C24.9576 125.668 24.8666 125.755 24.7973 125.876C24.728 125.989 24.676 126.145 24.6413 126.344C24.624 126.517 24.6283 126.665 24.6543 126.786C24.689 126.899 24.7626 126.998 24.8753 127.085C24.988 127.163 25.157 127.25 25.3823 127.345L27.0073 128.021C27.484 128.22 27.8436 128.441 28.0863 128.684C28.329 128.927 28.485 129.213 28.5543 129.542C28.6236 129.863 28.628 130.244 28.5673 130.686C28.4893 131.353 28.3203 131.869 28.0603 132.233C27.8003 132.588 27.4276 132.835 26.9423 132.974C26.457 133.104 25.82 133.169 25.0313 133.169C24.7106 133.169 24.2686 133.143 23.7053 133.091C23.1506 133.048 22.5526 132.957 21.9113 132.818L22.1063 131.414C22.6176 131.423 23.0596 131.436 23.4323 131.453C23.805 131.462 24.117 131.47 24.3683 131.479C24.6196 131.479 24.819 131.479 24.9663 131.479C25.339 131.479 25.638 131.457 25.8633 131.414C26.0886 131.362 26.2576 131.275 26.3703 131.154C26.4916 131.024 26.5696 130.833 26.6043 130.582C26.6303 130.391 26.626 130.24 26.5913 130.127C26.5653 130.014 26.496 129.923 26.3833 129.854C26.2793 129.776 26.132 129.698 25.9413 129.62L24.2253 128.879C23.766 128.68 23.415 128.454 23.1723 128.203C22.9296 127.943 22.7736 127.653 22.7043 127.332C22.635 127.003 22.6263 126.643 22.6783 126.253C22.739 125.759 22.856 125.356 23.0293 125.044C23.2026 124.723 23.4323 124.481 23.7183 124.316C24.013 124.143 24.364 124.026 24.7713 123.965C25.1873 123.896 25.6596 123.861 26.1883 123.861ZM38.422 124.03L37.252 132.324C37.2174 132.558 37.1437 132.731 37.031 132.844C36.9184 132.948 36.745 133 36.511 133H35.523C35.3064 133 35.146 132.944 35.042 132.831C34.9467 132.718 34.86 132.562 34.782 132.363L32.897 127.657C32.8104 127.466 32.7324 127.254 32.663 127.02C32.6024 126.786 32.546 126.556 32.494 126.331H32.338C32.338 126.565 32.3294 126.803 32.312 127.046C32.3034 127.28 32.2817 127.518 32.247 127.761L31.506 133H29.634L30.791 124.706C30.8257 124.472 30.9037 124.303 31.025 124.199C31.1464 124.086 31.324 124.03 31.558 124.03H32.52C32.7367 124.03 32.8927 124.091 32.988 124.212C33.0834 124.325 33.1744 124.476 33.261 124.667L35.094 129.217C35.1807 129.416 35.263 129.637 35.341 129.88C35.4277 130.114 35.5057 130.365 35.575 130.634H35.757C35.7484 130.374 35.7484 130.131 35.757 129.906C35.7744 129.681 35.8004 129.451 35.835 129.217L36.55 124.03H38.422ZM41.9814 123.991C42.4754 123.991 42.965 123.995 43.4504 124.004C43.9444 124.004 44.4254 124.017 44.8934 124.043C45.3614 124.06 45.7947 124.091 46.1934 124.134L45.9594 125.564H42.6054C42.354 125.564 42.1677 125.62 42.0464 125.733C41.925 125.837 41.847 126.015 41.8124 126.266L41.1884 130.79C41.1537 131.015 41.184 131.184 41.2794 131.297C41.3747 131.41 41.5437 131.466 41.7864 131.466H45.1014L45.0624 132.909C44.6637 132.961 44.2347 132.991 43.7754 133C43.3247 133.017 42.8654 133.026 42.3974 133.026C41.938 133.035 41.4874 133.039 41.0454 133.039C40.352 133.039 39.845 132.844 39.5244 132.454C39.2037 132.055 39.0867 131.54 39.1734 130.907L39.8884 125.759C39.9664 125.213 40.183 124.784 40.5384 124.472C40.8937 124.151 41.3747 123.991 41.9814 123.991ZM39.8754 127.644H45.1664L44.9974 129.035H39.6544L39.8754 127.644ZM50.5125 123.861C50.9805 123.861 51.4702 123.891 51.9815 123.952C52.4929 124.004 52.9825 124.095 53.4505 124.225L53.2685 125.538C52.9912 125.529 52.6922 125.525 52.3715 125.525C52.0595 125.516 51.7389 125.512 51.4095 125.512C51.0802 125.503 50.7465 125.499 50.4085 125.499C50.1919 125.499 49.9969 125.508 49.8235 125.525C49.6589 125.534 49.5159 125.564 49.3945 125.616C49.2819 125.668 49.1909 125.755 49.1215 125.876C49.0522 125.989 49.0002 126.145 48.9655 126.344C48.9482 126.517 48.9525 126.665 48.9785 126.786C49.0132 126.899 49.0869 126.998 49.1995 127.085C49.3122 127.163 49.4812 127.25 49.7065 127.345L51.3315 128.021C51.8082 128.22 52.1679 128.441 52.4105 128.684C52.6532 128.927 52.8092 129.213 52.8785 129.542C52.9479 129.863 52.9522 130.244 52.8915 130.686C52.8135 131.353 52.6445 131.869 52.3845 132.233C52.1245 132.588 51.7519 132.835 51.2665 132.974C50.7812 133.104 50.1442 133.169 49.3555 133.169C49.0349 133.169 48.5929 133.143 48.0295 133.091C47.4749 133.048 46.8769 132.957 46.2355 132.818L46.4305 131.414C46.9419 131.423 47.3839 131.436 47.7565 131.453C48.1292 131.462 48.4412 131.47 48.6925 131.479C48.9439 131.479 49.1432 131.479 49.2905 131.479C49.6632 131.479 49.9622 131.457 50.1875 131.414C50.4129 131.362 50.5819 131.275 50.6945 131.154C50.8159 131.024 50.8939 130.833 50.9285 130.582C50.9545 130.391 50.9502 130.24 50.9155 130.127C50.8895 130.014 50.8202 129.923 50.7075 129.854C50.6035 129.776 50.4562 129.698 50.2655 129.62L48.5495 128.879C48.0902 128.68 47.7392 128.454 47.4965 128.203C47.2539 127.943 47.0979 127.653 47.0285 127.332C46.9592 127.003 46.9505 126.643 47.0025 126.253C47.0632 125.759 47.1802 125.356 47.3535 125.044C47.5269 124.723 47.7565 124.481 48.0425 124.316C48.3372 124.143 48.6882 124.026 49.0955 123.965C49.5115 123.896 49.9839 123.861 50.5125 123.861ZM67.1119 124.03C67.3546 124.03 67.5366 124.099 67.6579 124.238C67.7792 124.377 67.8269 124.563 67.8009 124.797L66.9819 133H65.1359L65.9029 125.564H65.6819L63.4719 131.18C63.4026 131.388 63.3029 131.54 63.1729 131.635C63.0429 131.73 62.8652 131.778 62.6399 131.778H61.4179C61.2012 131.778 61.0279 131.722 60.8979 131.609C60.7679 131.488 60.6899 131.323 60.6639 131.115L59.9879 125.564H59.7539L58.4409 133H56.6079L58.1029 124.719C58.1462 124.485 58.2242 124.312 58.3369 124.199C58.4582 124.086 58.6359 124.03 58.8699 124.03H60.7029C60.9109 124.03 61.0756 124.091 61.1969 124.212C61.3182 124.325 61.3876 124.489 61.4049 124.706L61.9639 129.204C61.9899 129.421 62.0072 129.637 62.0159 129.854C62.0246 130.062 62.0289 130.274 62.0289 130.491H62.2239C62.2932 130.257 62.3582 130.04 62.4189 129.841C62.4882 129.633 62.5619 129.429 62.6399 129.23L64.3949 124.628C64.4642 124.42 64.5639 124.268 64.6939 124.173C64.8326 124.078 65.0059 124.03 65.2139 124.03H67.1119ZM72.7293 123.861C73.1973 123.861 73.687 123.891 74.1983 123.952C74.7097 124.004 75.1993 124.095 75.6673 124.225L75.4853 125.538C75.208 125.529 74.909 125.525 74.5883 125.525C74.2763 125.516 73.9557 125.512 73.6263 125.512C73.297 125.503 72.9633 125.499 72.6253 125.499C72.4087 125.499 72.2137 125.508 72.0403 125.525C71.8757 125.534 71.7327 125.564 71.6113 125.616C71.4987 125.668 71.4077 125.755 71.3383 125.876C71.269 125.989 71.217 126.145 71.1823 126.344C71.165 126.517 71.1693 126.665 71.1953 126.786C71.23 126.899 71.3037 126.998 71.4163 127.085C71.529 127.163 71.698 127.25 71.9233 127.345L73.5483 128.021C74.025 128.22 74.3847 128.441 74.6273 128.684C74.87 128.927 75.026 129.213 75.0953 129.542C75.1647 129.863 75.169 130.244 75.1083 130.686C75.0303 131.353 74.8613 131.869 74.6013 132.233C74.3413 132.588 73.9687 132.835 73.4833 132.974C72.998 133.104 72.361 133.169 71.5723 133.169C71.2517 133.169 70.8097 133.143 70.2463 133.091C69.6917 133.048 69.0937 132.957 68.4523 132.818L68.6473 131.414C69.1587 131.423 69.6007 131.436 69.9733 131.453C70.346 131.462 70.658 131.47 70.9093 131.479C71.1607 131.479 71.36 131.479 71.5073 131.479C71.88 131.479 72.179 131.457 72.4043 131.414C72.6297 131.362 72.7987 131.275 72.9113 131.154C73.0327 131.024 73.1107 130.833 73.1453 130.582C73.1713 130.391 73.167 130.24 73.1323 130.127C73.1063 130.014 73.037 129.923 72.9243 129.854C72.8203 129.776 72.673 129.698 72.4823 129.62L70.7663 128.879C70.307 128.68 69.956 128.454 69.7133 128.203C69.4707 127.943 69.3147 127.653 69.2453 127.332C69.176 127.003 69.1673 126.643 69.2193 126.253C69.28 125.759 69.397 125.356 69.5703 125.044C69.7437 124.723 69.9733 124.481 70.2593 124.316C70.554 124.143 70.905 124.026 71.3123 123.965C71.7283 123.896 72.2007 123.861 72.7293 123.861ZM84.586 124.03L83.806 129.464C83.6847 130.374 83.4724 131.102 83.169 131.648C82.8744 132.185 82.4584 132.575 81.921 132.818C81.3924 133.061 80.699 133.182 79.841 133.182C79.009 133.182 78.3287 133.056 77.8 132.805C77.28 132.545 76.9204 132.138 76.721 131.583C76.5217 131.028 76.4827 130.296 76.604 129.386L77.358 124.03H79.347L78.58 129.464C78.502 130.01 78.4847 130.443 78.528 130.764C78.58 131.076 78.71 131.297 78.918 131.427C79.1347 131.548 79.451 131.609 79.867 131.609C80.2917 131.609 80.634 131.544 80.894 131.414C81.154 131.275 81.3534 131.041 81.492 130.712C81.6394 130.383 81.7564 129.941 81.843 129.386L82.584 124.03H84.586ZM89.8204 124.03L88.5594 133H86.5834L87.5064 126.604C87.5237 126.439 87.5497 126.279 87.5844 126.123C87.619 125.958 87.658 125.794 87.7014 125.629L85.5044 126.214L85.3744 124.953L87.8834 124.03H89.8204Z" fill="white"/>
</g>
<defs>
<clipPath id="clip0_113_1971">
<rect width="112" height="160" rx="6" fill="white"/>
</clipPath>
</defs>
</svg>
