<svg width="112" height="160" viewBox="0 0 112 160" fill="none" xmlns="http://www.w3.org/2000/svg">
<g clip-path="url(#clip0_116_23)">
<path d="M1 7C1 3.6863 3.68629 1 7 1H105C108.314 1 111 3.68629 111 7V152C111 155.314 108.314 158 105 158H7C3.68629 158 1 155.314 1 152V7Z" fill="#393B4E"/>
<path fill-rule="evenodd" clip-rule="evenodd" d="M7 0C3.13401 0 0 3.13401 0 7V153C0 156.866 3.13401 160 7 160H105C108.866 160 112 156.866 112 153V7C112 3.13401 108.866 0 105 0H7ZM7 1C3.68629 1 1 3.68629 1 7C1 7 1 7 1 7V152C1 152.165 1.00666 152.328 1.01973 152.49C1.2691 155.575 3.85131 158 7 158H105C108.149 158 110.731 155.575 110.98 152.49C110.993 152.328 111 152.165 111 152V7C111 3.68629 108.314 1 105 1H7Z" fill="black" fill-opacity="0.3"/>
<path d="M45.1178 124.03L43.8568 133H41.8678L43.1288 124.03H45.1178ZM47.7958 124.03L47.5878 125.59H40.2298L40.4508 124.03H47.7958ZM50.1488 126.409C50.9375 126.409 51.5702 126.526 52.0468 126.76C52.5235 126.985 52.8442 127.349 53.0088 127.852C53.1822 128.355 53.2082 129.031 53.0868 129.88C52.9742 130.686 52.7792 131.332 52.5018 131.817C52.2332 132.294 51.8518 132.636 51.3578 132.844C50.8638 133.052 50.2225 133.156 49.4338 133.156C48.6538 133.156 48.0212 133.043 47.5358 132.818C47.0592 132.593 46.7298 132.229 46.5478 131.726C46.3745 131.223 46.3442 130.556 46.4568 129.724C46.5782 128.909 46.7732 128.264 47.0418 127.787C47.3105 127.302 47.6962 126.951 48.1988 126.734C48.7102 126.517 49.3602 126.409 50.1488 126.409ZM50.1228 127.813C49.7762 127.813 49.4945 127.869 49.2778 127.982C49.0698 128.095 48.9008 128.298 48.7708 128.593C48.6495 128.888 48.5498 129.317 48.4718 129.88C48.4025 130.374 48.3808 130.76 48.4068 131.037C48.4415 131.314 48.5455 131.505 48.7188 131.609C48.8922 131.713 49.1478 131.765 49.4858 131.765C49.8325 131.765 50.1098 131.709 50.3178 131.596C50.5258 131.475 50.6905 131.267 50.8118 130.972C50.9332 130.677 51.0328 130.261 51.1108 129.724C51.1802 129.213 51.1975 128.823 51.1628 128.554C51.1368 128.277 51.0372 128.086 50.8638 127.982C50.6992 127.869 50.4522 127.813 50.1228 127.813ZM57.8168 126.409C58.6055 126.409 59.2381 126.526 59.7148 126.76C60.1915 126.985 60.5121 127.349 60.6768 127.852C60.8501 128.355 60.8761 129.031 60.7548 129.88C60.6421 130.686 60.4471 131.332 60.1698 131.817C59.9011 132.294 59.5198 132.636 59.0258 132.844C58.5318 133.052 57.8905 133.156 57.1018 133.156C56.3218 133.156 55.6891 133.043 55.2038 132.818C54.7271 132.593 54.3978 132.229 54.2158 131.726C54.0425 131.223 54.0121 130.556 54.1248 129.724C54.2461 128.909 54.4411 128.264 54.7098 127.787C54.9785 127.302 55.3641 126.951 55.8668 126.734C56.3781 126.517 57.0281 126.409 57.8168 126.409ZM57.7908 127.813C57.4441 127.813 57.1625 127.869 56.9458 127.982C56.7378 128.095 56.5688 128.298 56.4388 128.593C56.3175 128.888 56.2178 129.317 56.1398 129.88C56.0705 130.374 56.0488 130.76 56.0748 131.037C56.1095 131.314 56.2135 131.505 56.3868 131.609C56.5601 131.713 56.8158 131.765 57.1538 131.765C57.5005 131.765 57.7778 131.709 57.9858 131.596C58.1938 131.475 58.3585 131.267 58.4798 130.972C58.6011 130.677 58.7008 130.261 58.7788 129.724C58.8481 129.213 58.8655 128.823 58.8308 128.554C58.8048 128.277 58.7051 128.086 58.5318 127.982C58.3671 127.869 58.1201 127.813 57.7908 127.813ZM64.8218 123.9L63.8078 130.985C63.7731 131.21 63.7991 131.371 63.8858 131.466C63.9811 131.553 64.1588 131.596 64.4188 131.596H65.0038L65.0948 132.909C64.9908 132.97 64.8391 133.017 64.6398 133.052C64.4491 133.087 64.2584 133.113 64.0678 133.13C63.8771 133.147 63.7211 133.156 63.5998 133.156C62.9844 133.156 62.5208 133 62.2088 132.688C61.8968 132.367 61.7754 131.934 61.8448 131.388L62.8978 123.9H64.8218ZM69.1397 126.409C69.4604 126.409 69.8027 126.422 70.1667 126.448C70.5307 126.474 70.8817 126.504 71.2197 126.539C71.5664 126.574 71.8654 126.613 72.1167 126.656L71.9347 127.852C71.5187 127.843 71.1027 127.839 70.6867 127.839C70.2794 127.83 69.8634 127.822 69.4387 127.813C69.1094 127.813 68.845 127.822 68.6457 127.839C68.455 127.848 68.3164 127.882 68.2297 127.943C68.143 127.995 68.091 128.082 68.0737 128.203C68.0564 128.359 68.0997 128.48 68.2037 128.567C68.3164 128.654 68.507 128.745 68.7757 128.84L70.3747 129.412C70.7127 129.533 70.99 129.676 71.2067 129.841C71.4234 130.006 71.575 130.209 71.6617 130.452C71.757 130.695 71.783 130.989 71.7397 131.336C71.679 131.856 71.5144 132.246 71.2457 132.506C70.9857 132.757 70.6347 132.926 70.1927 133.013C69.7594 133.1 69.2307 133.143 68.6067 133.143C68.2687 133.143 67.9524 133.134 67.6577 133.117C67.3717 133.108 67.0727 133.082 66.7607 133.039C66.4574 133.004 66.115 132.961 65.7337 132.909L65.9027 131.713C66.0674 131.722 66.2667 131.73 66.5007 131.739C66.7434 131.739 66.9947 131.743 67.2547 131.752C67.5234 131.752 67.7747 131.752 68.0087 131.752C68.5027 131.743 68.8797 131.726 69.1397 131.7C69.3997 131.674 69.5817 131.631 69.6857 131.57C69.7984 131.501 69.8677 131.401 69.8937 131.271C69.911 131.158 69.8937 131.072 69.8417 131.011C69.7984 130.95 69.716 130.894 69.5947 130.842C69.482 130.79 69.326 130.729 69.1267 130.66L67.5667 130.075C67.2114 129.945 66.9254 129.789 66.7087 129.607C66.5007 129.425 66.3577 129.204 66.2797 128.944C66.2104 128.684 66.1974 128.389 66.2407 128.06C66.2927 127.661 66.4227 127.345 66.6307 127.111C66.8387 126.868 67.1464 126.691 67.5537 126.578C67.961 126.465 68.4897 126.409 69.1397 126.409Z" fill="white"/>
<path d="M35.93 58.3945L49.9541 72.4186L48.8332 72.5205C47.7848 72.6158 46.803 73.0757 46.0586 73.8201L27.0276 92.851C25.6608 94.2179 25.6608 96.4339 27.0276 97.8008L29.8561 100.629C31.2229 101.996 33.439 101.996 34.8058 100.629L53.8368 81.5982C54.5811 80.8538 55.041 79.8721 55.1363 78.8237L55.2382 77.7027L70.6081 93.0726C70.2879 95.3255 70.9935 97.7006 72.7297 99.4368C75.6586 102.366 80.4073 102.366 83.3363 99.4368C86.2652 96.5079 86.2652 91.7591 83.3363 88.8302C81.6001 87.094 79.225 86.3885 76.9721 86.7086L60.7279 70.4645L75.8574 55.335C76.1318 55.0605 76.4664 54.8537 76.8346 54.731L77.639 54.4629C78.8933 54.0448 79.9903 53.2541 80.7836 52.1964L83.959 47.9625C84.4815 47.2659 84.4122 46.2909 83.7964 45.6751L81.9817 43.8604C81.3659 43.2446 80.391 43.1753 79.6943 43.6979L75.4604 46.8733C74.4027 47.6665 73.612 48.7635 73.194 50.0178L74.617 50.4921L73.1939 50.0178L72.9258 50.8222C72.8031 51.1904 72.5963 51.525 72.3219 51.7994L57.1924 66.9289L42.294 52.0306C42.93 49.2724 42.175 46.2547 40.0227 44.1024C37.9793 42.059 35.1538 41.2749 32.515 41.7451C31.9648 41.8431 31.5147 42.2389 31.3472 42.772C31.1796 43.3052 31.3223 43.8873 31.7175 44.2825L35.2497 47.8147L34.8078 50.9083L31.7142 51.3502L28.182 47.818C27.7868 47.4228 27.2047 47.2801 26.6715 47.4477C26.1384 47.6153 25.7426 48.0653 25.6446 48.6155C25.1743 51.2544 25.9585 54.0798 28.0019 56.1232C30.1542 58.2755 33.1719 59.0305 35.93 58.3945ZM75.6566 94.1335L76.3526 92.4531L78.033 91.7571L79.7134 92.4531L80.4094 94.1335L79.7134 95.8139L78.033 96.5099L76.3526 95.8139L75.6566 94.1335Z" stroke="white" stroke-opacity="0.3" stroke-width="3" stroke-linejoin="round"/>
<path d="M27.4749 48.5251C27.3431 48.3934 27.1491 48.3458 26.9714 48.4017C26.7937 48.4575 26.6618 48.6076 26.6291 48.791C26.2138 51.1218 26.9065 53.6136 28.709 55.4161C30.7446 57.4517 33.6587 58.0719 36.229 57.2792L71.6845 92.7348C71.2257 94.8261 71.8091 97.102 73.4368 98.7297C75.9752 101.268 80.0908 101.268 82.6292 98.7297C85.1676 96.1913 85.1676 92.0757 82.6292 89.5373C81.0015 87.9096 78.7256 87.3262 76.6343 87.785L41.1787 52.3295C41.9714 49.7592 41.3512 46.8451 39.3156 44.8095C37.5131 43.007 35.0213 42.3143 32.6905 42.7296C32.5071 42.7623 32.357 42.8942 32.3012 43.0719C32.2453 43.2496 32.2929 43.4437 32.4246 43.5754L36.3104 47.4612L35.6917 51.7922L31.3606 52.4109L27.4749 48.5251ZM74.5742 94.1335L75.5873 91.6878L78.033 90.6747L80.4788 91.6878L81.4918 94.1335L80.4788 96.5793L78.033 97.5923L75.5873 96.5793L74.5742 94.1335Z" fill="#BDBDBD" stroke="#333333" stroke-linejoin="round"/>
<path fill-rule="evenodd" clip-rule="evenodd" d="M27.1213 48.8787C26.7334 51.0555 27.3805 53.3805 29.0625 55.0625C31.0371 57.0371 33.8977 57.5854 36.3644 56.7075L72.2366 92.5798C71.7021 94.5815 72.22 96.8058 73.7904 98.3762C76.1335 100.719 79.9325 100.719 82.2756 98.3762C84.6188 96.033 84.6188 92.234 82.2756 89.8909C80.7053 88.3205 78.481 87.8026 76.4793 88.3371L40.607 52.4649C41.4849 49.9982 40.9366 47.1376 38.962 45.1631C37.28 43.481 34.955 42.834 32.7782 43.2218L36.8407 47.2844L36.1336 52.2341L31.1839 52.9412L27.1213 48.8787ZM75.2046 91.3051L78.033 90.1335L80.8614 91.3051L82.033 94.1335L80.8614 96.9619L78.033 98.1335L75.2046 96.9619L74.033 94.1335L75.2046 91.3051Z" fill="#E0E0E0"/>
<path d="M29.2393 54.8858C27.7424 53.3888 27.0953 51.3638 27.2988 49.4097L31.0071 53.118C31.0627 53.1736 31.1413 53.1998 31.2192 53.1887L36.169 52.4816C36.279 52.4659 36.3654 52.3795 36.3811 52.2695L37.0882 47.3197C37.0993 47.2418 37.0731 47.1632 37.0175 47.1076L33.3092 43.3993C35.2633 43.1958 37.2883 43.8429 38.7853 45.3398C40.689 47.2436 41.2182 50.0019 40.3715 52.3811C40.3391 52.472 40.362 52.5734 40.4303 52.6417L76.3025 88.5139C76.3656 88.577 76.4576 88.6017 76.5438 88.5787C78.4628 88.0662 80.5941 88.5629 82.0989 90.0676C84.3444 92.3132 84.3444 95.9539 82.0989 98.1994C79.8534 100.445 76.2127 100.445 73.9671 98.1994C72.4624 96.6947 71.9657 94.5633 72.4782 92.6443C72.5012 92.5581 72.4765 92.4661 72.4134 92.403L36.5412 56.5308C36.4729 56.4625 36.3715 56.4397 36.2806 56.472C33.9014 57.3187 31.1431 56.7895 29.2393 54.8858ZM78.1287 89.9025C78.0674 89.8772 77.9986 89.8772 77.9373 89.9025L75.1089 91.0741C75.0477 91.0995 74.999 91.1482 74.9736 91.2094L73.802 94.0378C73.7767 94.0991 73.7767 94.1679 73.802 94.2292L74.9736 97.0576C74.999 97.1189 75.0477 97.1675 75.1089 97.1929L77.9373 98.3645C77.9986 98.3899 78.0674 98.3899 78.1287 98.3645L80.9571 97.1929C81.0184 97.1675 81.067 97.1189 81.0924 97.0576L82.264 94.2292C82.2894 94.1679 82.2894 94.0991 82.264 94.0378L81.0924 91.2094C81.067 91.1482 81.0184 91.0995 80.9571 91.0741L78.1287 89.9025Z" stroke="black" stroke-opacity="0.2" stroke-width="0.5" stroke-linejoin="round"/>
<path d="M54.3533 76.3922L53.8553 76.3469L54.3533 76.3922C54.379 76.1091 54.3236 75.8281 54.1982 75.5799L75.1503 54.6279C75.5345 54.2436 76.0029 53.9542 76.5184 53.7823L77.3228 53.5142C78.3841 53.1604 79.3123 52.4914 79.9836 51.5964L83.159 47.3625C83.3829 47.064 83.3532 46.6461 83.0893 46.3822L81.2746 44.5675C81.0107 44.3036 80.5929 44.2739 80.2943 44.4979L76.0604 47.6733C75.1654 48.3445 74.4964 49.2727 74.1427 50.334L73.8745 51.1385C73.7027 51.6539 73.4132 52.1223 73.029 52.5065L52.0769 73.4586C51.8288 73.3333 51.5477 73.2779 51.2647 73.3036L51.3099 73.8015L51.2647 73.3036L48.9237 73.5164C48.1083 73.5905 47.3447 73.9482 46.7657 74.5272L27.7348 93.5581C26.7584 94.5344 26.7584 96.1174 27.7348 97.0937L30.5632 99.9221C31.5395 100.898 33.1224 100.898 34.0987 99.9221L53.1297 80.8911C53.7087 80.3122 54.0663 79.5485 54.1404 78.7331L54.3533 76.3922Z" stroke="#333333"/>
<path d="M82.7358 46.7358L80.9211 44.9211C80.8331 44.8331 80.6938 44.8232 80.5943 44.8979L76.3604 48.0733C75.5468 48.6835 74.9386 49.5273 74.617 50.4921L74.3489 51.2966C74.1525 51.8857 73.8217 52.421 73.3826 52.8601L48.5944 77.6482L50.0086 79.0625L74.7968 54.2743C75.2359 53.8352 75.7712 53.5044 76.3603 53.308L77.1647 53.0399C78.1296 52.7183 78.9734 52.1101 79.5836 51.2964L82.759 47.0626C82.8336 46.963 82.8238 46.8238 82.7358 46.7358Z" fill="#E0E0E0"/>
<path d="M80.7678 44.7678L82.8891 46.8891L80.0899 50.3103C79.8347 50.6222 79.5867 50.9397 79.3085 51.2313C78.5373 52.0399 76.7993 53.5272 75.4645 52.1924C74.1298 50.8577 75.6167 49.12 76.4253 48.3486C76.7171 48.0703 77.0348 47.8221 77.3468 47.5668L80.7678 44.7678Z" fill="#F2F2F2"/>
<path d="M80.7443 45.0979L82.559 46.9126L79.3836 51.1464C78.8039 51.9194 78.0023 52.4972 77.0857 52.8027L76.2812 53.0708C75.6553 53.2795 75.0865 53.631 74.62 54.0975L50.0086 78.7089L48.948 77.6482L73.5593 53.0369C74.0259 52.5703 74.3774 52.0016 74.586 51.3756L74.8542 50.5712C75.1597 49.6546 75.7375 48.853 76.5104 48.2733L80.7443 45.0979Z" stroke="black" stroke-opacity="0.2" stroke-width="0.5"/>
<path d="M28.0883 96.7401L30.9167 99.5686C31.6978 100.35 32.9641 100.35 33.7452 99.5686L52.7761 80.5376C53.2724 80.0413 53.5789 79.3868 53.6425 78.6879L53.8553 76.3469C53.8822 76.0514 53.7764 75.7591 53.5665 75.5493L52.1076 74.0904C51.8977 73.8805 51.6055 73.7747 51.3099 73.8016L48.969 74.0144C48.27 74.0779 47.6155 74.3845 47.1193 74.8807L28.0883 93.9117C27.3072 94.6928 27.3072 95.9591 28.0883 96.7401Z" fill="#EB5757"/>
<path d="M46.6145 76.7997C46.9269 76.4873 47.4334 76.4873 47.7459 76.7997V76.7997C48.2145 77.2683 48.2145 78.0281 47.7459 78.4968L31.0581 95.1845C30.5895 95.6531 29.8297 95.6531 29.3611 95.1845V95.1845C29.0487 94.8721 29.0487 94.3655 29.3611 94.0531L46.6145 76.7997Z" fill="#C03535"/>
<path d="M50.8572 81.0424C51.1696 80.73 51.1696 80.2234 50.8572 79.911V79.911C50.3885 79.4424 49.6287 79.4424 49.1601 79.911L32.4724 96.5987C32.0038 97.0673 32.0038 97.8271 32.4724 98.2958V98.2958C32.7848 98.6082 33.2913 98.6082 33.6038 98.2958L50.8572 81.0424Z" fill="#C03535"/>
</g>
<defs>
<clipPath id="clip0_116_23">
<rect width="112" height="160" rx="6" fill="white"/>
</clipPath>
</defs>
</svg>
