<svg width="112" height="160" viewBox="0 0 112 160" fill="none" xmlns="http://www.w3.org/2000/svg">
<g clip-path="url(#clip0_116_289)">
<path d="M1 7C1 3.6863 3.68629 1 7 1H105C108.314 1 111 3.68629 111 7V152C111 155.314 108.314 158 105 158H7C3.68629 158 1 155.314 1 152V7Z" fill="#393B4E"/>
<path fill-rule="evenodd" clip-rule="evenodd" d="M7 0C3.13401 0 0 3.13401 0 7V153C0 156.866 3.13401 160 7 160H105C108.866 160 112 156.866 112 153V7C112 3.13401 108.866 0 105 0H7ZM7 1C3.68629 1 1 3.68629 1 7C1 7 1 7 1 7V152C1 152.165 1.00666 152.328 1.01973 152.49C1.2691 155.575 3.85131 158 7 158H105C108.149 158 110.731 155.575 110.98 152.49C110.993 152.328 111 152.165 111 152V7C111 3.68629 108.314 1 105 1H7Z" fill="black" fill-opacity="0.3"/>
<path d="M54 55C53.4477 55 53 55.4477 53 56V57H42C40.8954 57 40 57.8954 40 59V60H28.9119C27.9758 60 27.1649 60.6493 26.9603 61.5628L24.3736 73.1099L23.886 73.0709C23.3807 73.0305 22.9251 73.3745 22.8257 73.8716L22 78V79L22.8106 82.2425C22.9219 82.6877 23.3219 83 23.7808 83H38.8182L41.4671 88.8276C41.7916 89.5416 42.5035 90 43.2878 90H68.7122C69.4965 90 70.2084 89.5416 70.5329 88.8276L73.1818 83H88.2222C88.6797 83 89.0788 82.6896 89.1915 82.2462L90 79.0625V77.9688L89.1752 73.8703C89.0752 73.3738 88.6199 73.0304 88.1151 73.0708L87.6264 73.1099L85.0397 61.5628C84.8351 60.6493 84.0242 60 83.0881 60H72V59C72 57.8954 71.1046 57 70 57H59V56C59 55.4477 58.5523 55 58 55H54Z" fill="#EB5757"/>
<path d="M20.5291 77.7058C20.5098 77.8027 20.5 77.9012 20.5 78V79C20.5 79.1226 20.515 79.2448 20.5448 79.3638L21.3554 82.6063C21.6337 83.7193 22.6336 84.5 23.7808 84.5H37.8523L40.1015 89.4483C40.6695 90.6978 41.9153 91.5 43.2878 91.5H68.7122C70.0847 91.5 71.3305 90.6978 71.8985 89.4483L74.1477 84.5H88.2222C89.3659 84.5 90.3638 83.7239 90.6453 82.6154L91.4538 79.4317C91.4845 79.311 91.5 79.187 91.5 79.0625V77.9688C91.5 77.8694 91.4901 77.7702 91.4705 77.6728L90.6457 73.5744C90.4533 72.6184 89.7338 71.8894 88.8367 71.651L86.5035 61.2349C86.1454 59.6363 84.7263 58.5 83.0881 58.5H73.4646C73.2219 56.8039 71.7632 55.5 70 55.5H60.45C60.2184 54.3589 59.2095 53.5 58 53.5H54C52.7905 53.5 51.7816 54.3589 51.55 55.5H42C40.2368 55.5 38.7781 56.8039 38.5354 58.5H28.9119C27.2737 58.5 25.8546 59.6363 25.4965 61.2349L23.1632 71.6514C22.2656 71.8904 21.5462 72.6205 21.3548 73.5774L20.5291 77.7058Z" stroke="white" stroke-opacity="0.3" stroke-width="3" stroke-linejoin="round"/>
<path d="M37 78.5H36.2235L36.5448 79.2069L41.0119 89.0345C41.4176 89.927 42.3075 90.5 43.2878 90.5H68.7122C69.6925 90.5 70.5824 89.927 70.9881 89.0345L75.4552 79.2069L75.7765 78.5H75H37Z" fill="#4F4F4F" stroke="#333333"/>
<rect x="50" y="81" width="3" height="7" fill="#333333"/>
<path d="M45 90V90.5H46V90H45ZM66 90V90.5H67V90H66ZM46 90V83H45V90H46ZM67 90V83H66V90H67Z" fill="#333333"/>
<path d="M59 57.5H59.5V57V56C59.5 55.1716 58.8284 54.5 58 54.5H54C53.1716 54.5 52.5 55.1716 52.5 56V57V57.5H53H59Z" fill="#BDBDBD" stroke="#333333"/>
<path d="M72 60.5H72.5V60V59C72.5 57.6193 71.3807 56.5 70 56.5H42C40.6193 56.5 39.5 57.6193 39.5 59V60V60.5H40H72Z" fill="#EB5757" stroke="#333333"/>
<path d="M63 60.5H63.5V60V59C63.5 57.6193 62.3807 56.5 61 56.5H51C49.6193 56.5 48.5 57.6193 48.5 59V60V60.5H49H63Z" fill="#EB5757" stroke="#333333"/>
<path d="M88.0654 75.2735L88.6074 75.202L88.4879 74.6685L85.5276 61.4535C85.2719 60.3117 84.2583 59.5 83.0881 59.5H28.9119C27.7417 59.5 26.7281 60.3117 26.4724 61.4535L23.5121 74.6685L23.3926 75.202L23.9346 75.2735L55.9346 79.4957L56 79.5043L56.0654 79.4957L88.0654 75.2735Z" fill="#EB5757" stroke="#333333"/>
<path d="M21.5 79C21.5 79.0409 21.505 79.0816 21.5149 79.1213L22.3256 82.3638C22.4925 83.0316 23.0925 83.5 23.7808 83.5H47.8769C47.9995 83.5 48.1217 83.485 48.2407 83.4552L55.3937 81.667C55.7918 81.5674 56.2082 81.5674 56.6063 81.667L63.7593 83.4552C63.8783 83.485 64.0005 83.5 64.1231 83.5H88.2222C88.9084 83.5 89.5072 83.0343 89.6761 82.3692L90.4846 79.1856C90.4948 79.1453 90.5 79.104 90.5 79.0625V77.9688C90.5 77.8327 90.4446 77.7025 90.3465 77.6083C90.2484 77.514 90.1161 77.4638 89.9802 77.4691L64.1308 78.4944C64.0809 78.4964 64.0309 78.4909 63.9827 78.4781L56.8985 76.5963C56.3097 76.4399 55.6903 76.4399 55.1015 76.5963L48.0168 78.4782C47.9687 78.491 47.9189 78.4965 47.8692 78.4946L22.0192 77.5004C21.8834 77.4951 21.7513 77.5455 21.6533 77.6397C21.5554 77.734 21.5 77.8641 21.5 78V79Z" fill="#696969" stroke="#333333" stroke-linejoin="round"/>
<path d="M90.0198 78.4684C90.1661 78.4626 90.3026 78.3929 90.3931 78.2778C90.4836 78.1627 90.5191 78.0137 90.4902 77.8701L89.6653 73.7717C89.5154 73.0269 88.8325 72.5118 88.0752 72.5724L64.1235 74.4885C64.0694 74.4929 64.0149 74.4883 63.9623 74.4752L56.8489 72.6968C56.2915 72.5575 55.7085 72.5575 55.1511 72.6968L48.0377 74.4752C47.9851 74.4883 47.9306 74.4929 47.8765 74.4885L23.9259 72.5725C23.1679 72.5118 22.4845 73.0279 22.3354 73.7735L21.5097 77.9019C21.481 78.0455 21.5167 78.1945 21.6073 78.3095C21.698 78.4245 21.8345 78.494 21.9808 78.4996L47.8382 79.4941C47.9801 79.4996 48.122 79.4849 48.2597 79.4505L55.3937 77.667C55.7918 77.5674 56.2082 77.5674 56.6063 77.667L63.7397 79.4503C63.878 79.4849 64.0205 79.4996 64.163 79.4939L90.0198 78.4684Z" fill="#EB5757" stroke="#333333" stroke-linejoin="round"/>
<path d="M46 87.5H45.5L45.5 88L45.5 90L45.5 90.5H46H66H66.5V90V88V87.5H66H46Z" fill="#1D1D1D" stroke="#333333"/>
<path d="M30.7924 124.03L27.1394 132.493C27.0094 132.831 26.7711 133 26.4244 133H24.6174C24.4441 133 24.2967 132.944 24.1754 132.831C24.0627 132.718 23.9977 132.58 23.9804 132.415L22.6934 124.03H24.6954L25.4234 130.452C25.4407 130.634 25.4537 130.816 25.4624 130.998C25.4797 131.18 25.4884 131.358 25.4884 131.531H25.8264C25.8697 131.349 25.9217 131.171 25.9824 130.998C26.0431 130.816 26.1081 130.638 26.1774 130.465L28.6994 124.03H30.7924ZM33.2593 126.578L32.3623 133H30.4513L31.3483 126.578H33.2593ZM33.0643 123.744C33.2723 123.744 33.4197 123.796 33.5063 123.9C33.6017 124.004 33.6363 124.16 33.6103 124.368L33.5193 125.057C33.4673 125.421 33.255 125.603 32.8823 125.603H32.1023C31.6863 125.603 31.5 125.395 31.5433 124.979L31.6473 124.29C31.682 123.926 31.89 123.744 32.2713 123.744H33.0643ZM36.3714 126.578L36.3844 128.112L36.5534 128.294L35.9034 133H33.9794L34.8764 126.578H36.3714ZM39.5174 126.409L39.1014 128.19H38.6334C38.3301 128.19 38.0008 128.259 37.6454 128.398C37.2988 128.528 36.8611 128.727 36.3324 128.996L36.2544 127.865C36.7658 127.388 37.2641 127.029 37.7494 126.786C38.2348 126.535 38.6941 126.409 39.1274 126.409H39.5174ZM43.1549 124.797L42.2709 130.985C42.2362 131.219 42.2579 131.379 42.3359 131.466C42.4139 131.553 42.5785 131.596 42.8299 131.596H43.7009L43.7919 132.909C43.6272 132.961 43.4279 133.004 43.1939 133.039C42.9685 133.082 42.7475 133.113 42.5309 133.13C42.3142 133.147 42.1365 133.156 41.9979 133.156C41.3999 133.156 40.9449 132.996 40.6329 132.675C40.3295 132.346 40.2212 131.904 40.3079 131.349L41.2569 124.797H43.1549ZM44.6889 126.578L44.5069 127.839H39.6709L39.8269 126.643L41.0749 126.578H44.6889ZM47.5905 126.578L46.9795 130.829C46.9449 131.098 46.9709 131.284 47.0575 131.388C47.1529 131.492 47.3045 131.544 47.5125 131.544C47.8159 131.544 48.1105 131.457 48.3965 131.284C48.6912 131.111 49.0595 130.833 49.5015 130.452L49.7875 131.414C49.2242 132.012 48.6912 132.458 48.1885 132.753C47.6859 133.039 47.1745 133.182 46.6545 133.182C46.0305 133.182 45.5755 133.022 45.2895 132.701C45.0122 132.372 44.9169 131.921 45.0035 131.349L45.6665 126.578H47.5905ZM51.8155 126.578L50.9315 133H49.4235L49.4495 131.258L49.2805 131.089L49.9045 126.578H51.8155ZM56.4415 126.409C56.6668 126.409 56.9182 126.422 57.1955 126.448C57.4815 126.465 57.7675 126.491 58.0535 126.526C58.3482 126.561 58.6212 126.6 58.8725 126.643C59.1325 126.686 59.3448 126.73 59.5095 126.773L58.1965 127.813C57.8498 127.796 57.5335 127.787 57.2475 127.787C56.9615 127.778 56.6928 127.774 56.4415 127.774C56.1555 127.774 55.9128 127.796 55.7135 127.839C55.5142 127.882 55.3495 127.969 55.2195 128.099C55.0895 128.22 54.9812 128.407 54.8945 128.658C54.8078 128.909 54.7342 129.247 54.6735 129.672C54.5955 130.209 54.5522 130.621 54.5435 130.907C54.5435 131.184 54.5955 131.375 54.6995 131.479C54.8035 131.583 54.9682 131.631 55.1935 131.622C55.4275 131.613 55.6702 131.535 55.9215 131.388C56.1815 131.241 56.4372 131.041 56.6885 130.79C56.9398 130.53 57.1825 130.24 57.4165 129.919L57.7545 130.543C57.5812 131.054 57.3342 131.505 57.0135 131.895C56.7015 132.276 56.3332 132.575 55.9085 132.792C55.4838 133.009 55.0115 133.13 54.4915 133.156C53.9282 133.182 53.4948 133.069 53.1915 132.818C52.8968 132.567 52.7148 132.177 52.6455 131.648C52.5762 131.119 52.6022 130.456 52.7235 129.659C52.8362 128.922 52.9922 128.337 53.1915 127.904C53.3995 127.462 53.6595 127.137 53.9715 126.929C54.2835 126.712 54.6432 126.574 55.0505 126.513C55.4665 126.444 55.9302 126.409 56.4415 126.409ZM57.6115 126.656L59.5095 126.773L58.6385 133H57.1435L57.1695 131.544L56.9355 131.388L57.6115 126.656ZM63.3935 123.9L62.3795 130.985C62.3449 131.21 62.3709 131.371 62.4575 131.466C62.5529 131.553 62.7305 131.596 62.9905 131.596H63.5755L63.6665 132.909C63.5625 132.97 63.4109 133.017 63.2115 133.052C63.0209 133.087 62.8302 133.113 62.6395 133.13C62.4489 133.147 62.2929 133.156 62.1715 133.156C61.5562 133.156 61.0925 133 60.7805 132.688C60.4685 132.367 60.3472 131.934 60.4165 131.388L61.4695 123.9H63.3935ZM71.5905 123.926C72.3445 123.926 72.9468 124 73.3975 124.147C73.8568 124.286 74.1731 124.533 74.3465 124.888C74.5285 125.235 74.5761 125.72 74.4895 126.344C74.4028 126.968 74.2251 127.44 73.9565 127.761C73.6878 128.082 73.2588 128.268 72.6695 128.32L72.6565 128.385C73.3498 128.446 73.8091 128.688 74.0345 129.113C74.2598 129.538 74.3205 130.114 74.2165 130.842C74.1298 131.449 73.9651 131.917 73.7225 132.246C73.4798 132.575 73.1331 132.801 72.6825 132.922C72.2318 133.043 71.6511 133.104 70.9405 133.104C70.3425 133.104 69.8225 133.1 69.3805 133.091C68.9385 133.091 68.5355 133.082 68.1715 133.065C67.8075 133.048 67.4348 133.026 67.0535 133L67.3785 131.596C67.5951 131.605 67.9895 131.613 68.5615 131.622C69.1421 131.631 69.8138 131.635 70.5765 131.635C70.9578 131.635 71.2611 131.6 71.4865 131.531C71.7118 131.462 71.8808 131.332 71.9935 131.141C72.1148 130.942 72.1971 130.664 72.2405 130.309C72.2925 129.954 72.2925 129.685 72.2405 129.503C72.1885 129.321 72.0671 129.195 71.8765 129.126C71.6945 129.048 71.4258 129.005 71.0705 128.996H67.7945L67.9765 127.709H71.1225C71.4518 127.7 71.7118 127.666 71.9025 127.605C72.1018 127.536 72.2535 127.41 72.3575 127.228C72.4701 127.046 72.5481 126.79 72.5915 126.461C72.6348 126.175 72.6261 125.954 72.5655 125.798C72.5135 125.642 72.4008 125.538 72.2275 125.486C72.0628 125.425 71.8288 125.395 71.5255 125.395C71.0228 125.395 70.5808 125.395 70.1995 125.395C69.8181 125.395 69.4801 125.395 69.1855 125.395C68.8995 125.395 68.6308 125.404 68.3795 125.421L68.3145 124.03C68.6525 123.995 68.9818 123.974 69.3025 123.965C69.6231 123.948 69.9655 123.939 70.3295 123.939C70.7021 123.93 71.1225 123.926 71.5905 123.926ZM70.2515 124.03L68.9905 133H67.0535L68.3145 124.03H70.2515ZM79.1005 126.409C79.8892 126.409 80.5218 126.526 80.9985 126.76C81.4752 126.985 81.7958 127.349 81.9605 127.852C82.1338 128.355 82.1598 129.031 82.0385 129.88C81.9258 130.686 81.7308 131.332 81.4535 131.817C81.1848 132.294 80.8035 132.636 80.3095 132.844C79.8155 133.052 79.1742 133.156 78.3855 133.156C77.6055 133.156 76.9728 133.043 76.4875 132.818C76.0108 132.593 75.6815 132.229 75.4995 131.726C75.3262 131.223 75.2958 130.556 75.4085 129.724C75.5298 128.909 75.7248 128.264 75.9935 127.787C76.2622 127.302 76.6478 126.951 77.1505 126.734C77.6618 126.517 78.3118 126.409 79.1005 126.409ZM79.0745 127.813C78.7278 127.813 78.4462 127.869 78.2295 127.982C78.0215 128.095 77.8525 128.298 77.7225 128.593C77.6012 128.888 77.5015 129.317 77.4235 129.88C77.3542 130.374 77.3325 130.76 77.3585 131.037C77.3932 131.314 77.4972 131.505 77.6705 131.609C77.8438 131.713 78.0995 131.765 78.4375 131.765C78.7842 131.765 79.0615 131.709 79.2695 131.596C79.4775 131.475 79.6422 131.267 79.7635 130.972C79.8848 130.677 79.9845 130.261 80.0625 129.724C80.1318 129.213 80.1492 128.823 80.1145 128.554C80.0885 128.277 79.9888 128.086 79.8155 127.982C79.6508 127.869 79.4038 127.813 79.0745 127.813ZM90.0339 126.578C89.9646 127.003 89.8692 127.436 89.7479 127.878C89.6352 128.32 89.5052 128.758 89.3579 129.191C89.2106 129.624 89.0546 130.04 88.8899 130.439C88.7339 130.829 88.5736 131.193 88.4089 131.531C88.2529 131.869 88.0969 132.168 87.9409 132.428C87.5076 133.173 87.0569 133.78 86.5889 134.248C86.1209 134.716 85.6182 135.063 85.0809 135.288C84.5436 135.513 83.9542 135.643 83.3129 135.678L83.1179 134.547C83.4386 134.452 83.7419 134.343 84.0279 134.222C84.3139 134.109 84.5869 133.958 84.8469 133.767C85.1156 133.576 85.3756 133.321 85.6269 133C85.8782 132.671 86.1296 132.25 86.3809 131.739C86.6409 131.228 86.8662 130.716 87.0569 130.205C87.2562 129.694 87.4296 129.143 87.5769 128.554C87.7329 127.965 87.8716 127.306 87.9929 126.578H90.0339ZM85.1069 126.578L85.6529 131.518C85.6789 131.665 85.7656 131.739 85.9129 131.739H86.6409L86.1209 133H84.8079C84.6086 133 84.4396 132.939 84.3009 132.818C84.1622 132.697 84.0756 132.545 84.0409 132.363L83.0269 126.578H85.1069Z" fill="white"/>
</g>
<defs>
<clipPath id="clip0_116_289">
<rect width="112" height="160" rx="6" fill="white"/>
</clipPath>
</defs>
</svg>
