<svg width="112" height="160" viewBox="0 0 112 160" fill="none" xmlns="http://www.w3.org/2000/svg">
<g clip-path="url(#clip0_116_426)">
<path d="M1 7C1 3.6863 3.68629 1 7 1H105C108.314 1 111 3.68629 111 7V152C111 155.314 108.314 158 105 158H7C3.68629 158 1 155.314 1 152V7Z" fill="#393B4E"/>
<path fill-rule="evenodd" clip-rule="evenodd" d="M7 0C3.13401 0 0 3.13401 0 7V153C0 156.866 3.13401 160 7 160H105C108.866 160 112 156.866 112 153V7C112 3.13401 108.866 0 105 0H7ZM7 1C3.68629 1 1 3.68629 1 7C1 7 1 7 1 7V152C1 152.165 1.00666 152.328 1.01973 152.49C1.2691 155.575 3.85131 158 7 158H105C108.149 158 110.731 155.575 110.98 152.49C110.993 152.328 111 152.165 111 152V7C111 3.68629 108.314 1 105 1H7Z" fill="black" fill-opacity="0.3"/>
<path d="M56 49C60.0803 49 63.4471 45.9453 63.9384 41.998C64.0066 41.45 64.4477 41 65 41H82C83.1046 41 84 41.8954 84 43V101C84 102.105 83.1046 103 82 103H30C28.8954 103 28 102.105 28 101V43C28 41.8954 28.8954 41 30 41H47C47.5523 41 47.9934 41.45 48.0616 41.998C48.5529 45.9453 51.9197 49 56 49Z" fill="#27AE60"/>
<path d="M62.4498 41.8128C62.0509 45.0184 59.3141 47.5 56 47.5C52.6859 47.5 49.9491 45.0184 49.5502 41.8128C49.4031 40.6312 48.4218 39.5 47 39.5H30C28.067 39.5 26.5 41.067 26.5 43V101C26.5 102.933 28.067 104.5 30 104.5H82C83.933 104.5 85.5 102.933 85.5 101V43C85.5 41.067 83.933 39.5 82 39.5H65C63.5782 39.5 62.5969 40.6312 62.4498 41.8128Z" stroke="white" stroke-opacity="0.3" stroke-width="3"/>
<path d="M63.4422 41.9363C62.9817 45.6363 59.8249 48.5 56 48.5C52.1751 48.5 49.0183 45.6363 48.5578 41.9363C48.4633 41.177 47.8421 40.5 47 40.5H30C28.6193 40.5 27.5 41.6193 27.5 43V101C27.5 102.381 28.6193 103.5 30 103.5H82C83.3807 103.5 84.5 102.381 84.5 101V43C84.5 41.6193 83.3807 40.5 82 40.5H65C64.1579 40.5 63.5367 41.177 63.4422 41.9363Z" fill="#27AE60" stroke="#333333"/>
<path d="M40.5 70.5C39.9477 70.5 39.5 70.9477 39.5 71.5V76.5H34.5C33.9477 76.5 33.5 76.9477 33.5 77.5V81.5C33.5 82.0523 33.9477 82.5 34.5 82.5H39.5V87.5C39.5 88.0523 39.9477 88.5 40.5 88.5H44.5C45.0523 88.5 45.5 88.0523 45.5 87.5V82.5H50.5C51.0523 82.5 51.5 82.0523 51.5 81.5V77.5C51.5 76.9477 51.0523 76.5 50.5 76.5H45.5V71.5C45.5 70.9477 45.0523 70.5 44.5 70.5H40.5Z" fill="#F2F2F2" stroke="#23804A"/>
<circle cx="65.5" cy="84.5" r="4" fill="#F2F2F2" stroke="#23804A"/>
<circle cx="73.5" cy="75.5" r="4" fill="#F2F2F2" stroke="#23804A"/>
<path d="M44.3013 124.03L41.6363 132.493C41.5929 132.658 41.5063 132.783 41.3763 132.87C41.2549 132.957 41.0989 133 40.9083 133H39.0883C38.9063 133 38.7503 132.944 38.6203 132.831C38.4903 132.718 38.4253 132.575 38.4253 132.402L38.2433 126.643C38.2433 126.426 38.2433 126.227 38.2433 126.045C38.2433 125.863 38.2433 125.668 38.2433 125.46H37.9833C37.9399 125.651 37.8923 125.85 37.8403 126.058C37.7883 126.257 37.7363 126.452 37.6843 126.643L35.8773 132.48C35.8253 132.645 35.7343 132.775 35.6043 132.87C35.4743 132.957 35.3226 133 35.1493 133H33.2903C33.1169 133 32.9609 132.944 32.8223 132.831C32.6923 132.718 32.6273 132.58 32.6273 132.415L32.3153 124.03H34.2913L34.3303 130.309C34.3303 130.5 34.3259 130.703 34.3173 130.92C34.3086 131.137 34.2999 131.366 34.2913 131.609H34.5643C34.6249 131.375 34.6856 131.141 34.7463 130.907C34.8069 130.664 34.8676 130.439 34.9283 130.231L36.6963 124.602C36.8003 124.221 37.0473 124.03 37.4373 124.03H39.0363C39.2183 124.03 39.3656 124.095 39.4783 124.225C39.5996 124.346 39.6646 124.498 39.6733 124.68L39.9333 130.322C39.9419 130.53 39.9463 130.747 39.9463 130.972C39.9549 131.189 39.9549 131.401 39.9463 131.609H40.2323C40.2669 131.401 40.3103 131.176 40.3623 130.933C40.4229 130.682 40.4836 130.456 40.5443 130.257L42.3123 124.03H44.3013ZM47.9166 126.409C48.1419 126.409 48.3933 126.422 48.6706 126.448C48.9566 126.465 49.2426 126.491 49.5286 126.526C49.8233 126.561 50.0963 126.6 50.3476 126.643C50.6076 126.686 50.8199 126.73 50.9846 126.773L49.6716 127.813C49.3249 127.796 49.0086 127.787 48.7226 127.787C48.4366 127.778 48.1679 127.774 47.9166 127.774C47.6306 127.774 47.3879 127.796 47.1886 127.839C46.9893 127.882 46.8246 127.969 46.6946 128.099C46.5646 128.22 46.4563 128.407 46.3696 128.658C46.2829 128.909 46.2093 129.247 46.1486 129.672C46.0706 130.209 46.0273 130.621 46.0186 130.907C46.0186 131.184 46.0706 131.375 46.1746 131.479C46.2786 131.583 46.4433 131.631 46.6686 131.622C46.9026 131.613 47.1453 131.535 47.3966 131.388C47.6566 131.241 47.9123 131.041 48.1636 130.79C48.4149 130.53 48.6576 130.24 48.8916 129.919L49.2296 130.543C49.0563 131.054 48.8093 131.505 48.4886 131.895C48.1766 132.276 47.8083 132.575 47.3836 132.792C46.9589 133.009 46.4866 133.13 45.9666 133.156C45.4033 133.182 44.9699 133.069 44.6666 132.818C44.3719 132.567 44.1899 132.177 44.1206 131.648C44.0513 131.119 44.0773 130.456 44.1986 129.659C44.3113 128.922 44.4673 128.337 44.6666 127.904C44.8746 127.462 45.1346 127.137 45.4466 126.929C45.7586 126.712 46.1183 126.574 46.5256 126.513C46.9416 126.444 47.4053 126.409 47.9166 126.409ZM49.0866 126.656L50.9846 126.773L50.1136 133H48.6186L48.6446 131.544L48.4106 131.388L49.0866 126.656ZM54.9336 126.409C55.2543 126.409 55.5966 126.422 55.9606 126.448C56.3246 126.474 56.6756 126.504 57.0136 126.539C57.3603 126.574 57.6593 126.613 57.9106 126.656L57.7286 127.852C57.3126 127.843 56.8966 127.839 56.4806 127.839C56.0733 127.83 55.6573 127.822 55.2326 127.813C54.9033 127.813 54.639 127.822 54.4396 127.839C54.249 127.848 54.1103 127.882 54.0236 127.943C53.937 127.995 53.885 128.082 53.8676 128.203C53.8503 128.359 53.8936 128.48 53.9976 128.567C54.1103 128.654 54.301 128.745 54.5696 128.84L56.1686 129.412C56.5066 129.533 56.784 129.676 57.0006 129.841C57.2173 130.006 57.369 130.209 57.4556 130.452C57.551 130.695 57.577 130.989 57.5336 131.336C57.473 131.856 57.3083 132.246 57.0396 132.506C56.7796 132.757 56.4286 132.926 55.9866 133.013C55.5533 133.1 55.0246 133.143 54.4006 133.143C54.0626 133.143 53.7463 133.134 53.4516 133.117C53.1656 133.108 52.8666 133.082 52.5546 133.039C52.2513 133.004 51.909 132.961 51.5276 132.909L51.6966 131.713C51.8613 131.722 52.0606 131.73 52.2946 131.739C52.5373 131.739 52.7886 131.743 53.0486 131.752C53.3173 131.752 53.5686 131.752 53.8026 131.752C54.2966 131.743 54.6736 131.726 54.9336 131.7C55.1936 131.674 55.3756 131.631 55.4796 131.57C55.5923 131.501 55.6616 131.401 55.6876 131.271C55.705 131.158 55.6876 131.072 55.6356 131.011C55.5923 130.95 55.51 130.894 55.3886 130.842C55.276 130.79 55.12 130.729 54.9206 130.66L53.3606 130.075C53.0053 129.945 52.7193 129.789 52.5026 129.607C52.2946 129.425 52.1516 129.204 52.0736 128.944C52.0043 128.684 51.9913 128.389 52.0346 128.06C52.0866 127.661 52.2166 127.345 52.4246 127.111C52.6326 126.868 52.9403 126.691 53.3476 126.578C53.755 126.465 54.2836 126.409 54.9336 126.409ZM60.9051 126.578L60.9181 128.06L61.0871 128.242L60.4241 133H58.5131L59.4101 126.578H60.9051ZM63.4661 126.409C64.0641 126.409 64.4974 126.569 64.7661 126.89C65.0434 127.211 65.1431 127.657 65.0651 128.229L64.3891 133H62.5431L63.1411 128.749C63.1758 128.489 63.1541 128.307 63.0761 128.203C62.9981 128.09 62.8508 128.034 62.6341 128.034C62.4781 128.034 62.3134 128.069 62.1401 128.138C61.9668 128.207 61.7718 128.32 61.5551 128.476C61.3384 128.623 61.0741 128.831 60.7621 129.1L60.5281 128.138C61.0654 127.54 61.5638 127.102 62.0231 126.825C62.4824 126.548 62.9634 126.409 63.4661 126.409ZM67.4701 126.409C68.0768 126.409 68.5188 126.574 68.7961 126.903C69.0734 127.224 69.1688 127.666 69.0821 128.229L68.4191 133H66.5081L67.1061 128.749C67.1408 128.472 67.1104 128.285 67.0151 128.19C66.9284 128.086 66.7898 128.034 66.5991 128.034C66.4518 128.034 66.2914 128.069 66.1181 128.138C65.9534 128.199 65.7628 128.307 65.5461 128.463C65.3381 128.61 65.0868 128.818 64.7921 129.087L64.5451 128.138C65.0824 127.531 65.5764 127.094 66.0271 126.825C66.4864 126.548 66.9674 126.409 67.4701 126.409ZM77.8669 124.03L74.9679 129.23C74.8899 129.36 74.8595 129.46 74.8769 129.529C74.9029 129.59 74.9809 129.62 75.1109 129.62H80.2459L80.0899 130.803L79.0369 130.998H73.7199C73.4252 130.998 73.1869 130.929 73.0049 130.79C72.8229 130.643 72.7145 130.456 72.6799 130.231C72.6452 130.006 72.6929 129.78 72.8229 129.555L75.9429 124.03H77.8669ZM79.7649 125.772L78.7509 133H76.9179L77.7239 127.202L78.2439 125.772H79.7649Z" fill="white"/>
</g>
<defs>
<clipPath id="clip0_116_426">
<rect width="112" height="160" rx="6" fill="white"/>
</clipPath>
</defs>
</svg>
